<?xml version="1.0" standalone="no"?>
<!DOCTYPE svg PUBLIC "-//W3C//DTD SVG 1.1//EN" "http://www.w3.org/Graphics/SVG/1.1/DTD/svg11.dtd" >
<svg xmlns="http://www.w3.org/2000/svg" xmlns:xlink="http://www.w3.org/1999/xlink" version="1.1">
<metadata>
Created by FontForge 20201107 at Fri Jul 30 19:18:20 2021
 By 
Copyright 2019 The Lexend Project Authors (https://github.com/googlefonts/lexend)
</metadata>
<defs>
<font id="LexendExa-Black" horiz-adv-x="0" >
  <font-face 
    font-family="Lexend Exa Black"
    font-weight="900"
    font-stretch="normal"
    units-per-em="1000"
    panose-1="0 0 0 0 0 0 0 0 0 0"
    ascent="800"
    descent="-200"
    x-height="535"
    cap-height="700"
    bbox="-245 -331 1894 1200"
    underline-thickness="50"
    underline-position="-125"
    unicode-range="U+000D-FB02"
  />
<missing-glyph horiz-adv-x="584" 
d="M75 0q-35 0 -35 35v630q0 35 35 35h434q35 0 35 -35v-630q0 -35 -35 -35h-434zM75 30h413q3 0 4 2t-1 4l-415 599q-2 3 -4 2.5t-2 -4.5v-598q0 -5 5 -5zM508 65q2 -3 4 -2.5t2 4.5v598q0 5 -5 5h-414q-3 0 -4 -2t1 -4z" />
    <glyph glyph-name="fi" unicode="fi" horiz-adv-x="990" 
d="M142 0v525q0 64 27.5 113.5t77 78t117.5 28.5q50 0 88.5 -12t69.5 -29l-53 -144l-31.5 9t-34.5 5q-21 0 -34.5 -7.5t-20.5 -21.5t-7 -34v-511h-99h-61h-39zM53 352v160h430v-160h-430zM657 0v535h203v-535h-203zM759 636q-54 0 -84.5 25t-30.5 71q0 42 31 69t84 27
q54 0 84.5 -25t30.5 -71q0 -42 -31 -69t-84 -27z" />
    <glyph glyph-name="fl" unicode="fl" horiz-adv-x="980" 
d="M142 0v525q0 64 27.5 113.5t77 78t117.5 28.5q50 0 88.5 -12t69.5 -29l-53 -144l-31.5 9t-34.5 5q-21 0 -34.5 -7.5t-20.5 -21.5t-7 -34v-511h-99h-61h-39zM53 352v160h430v-160h-430zM652 0v740h203v-740h-203z" />
    <glyph glyph-name="f_f" unicode="ff" horiz-adv-x="1056" 
d="M142 0v525q0 64 27.5 113.5t77 78t117.5 28.5q50 0 88.5 -12t69.5 -29l-53 -144l-31.5 9t-34.5 5q-21 0 -34.5 -7.5t-20.5 -21.5t-7 -34v-511h-99h-61h-39zM53 352v160h430v-160h-430zM670 0v525q0 64 27.5 113.5t77 78t117.5 28.5q50 0 88.5 -12t69.5 -29l-53 -144
l-31.5 9t-34.5 5q-21 0 -34.5 -7.5t-20.5 -21.5t-7 -34v-511h-99h-61h-39zM581 352v160h430v-160h-430z" />
    <glyph glyph-name="f_f_i" unicode="ffi" horiz-adv-x="1518" 
d="M142 0v525q0 64 27.5 113.5t77 78t117.5 28.5q50 0 88.5 -12t69.5 -29l-53 -144l-31.5 9t-34.5 5q-21 0 -34.5 -7.5t-20.5 -21.5t-7 -34v-511h-99h-61h-39zM53 352v160h430v-160h-430zM670 0v525q0 64 27.5 113.5t77 78t117.5 28.5q50 0 88.5 -12t69.5 -29l-53 -144
l-31.5 9t-34.5 5q-21 0 -34.5 -7.5t-20.5 -21.5t-7 -34v-511h-99h-61h-39zM581 352v160h430v-160h-430zM1185 0v535h203v-535h-203zM1287 636q-54 0 -84.5 25t-30.5 71q0 42 31 69t84 27q54 0 84.5 -25t30.5 -71q0 -42 -31 -69t-84 -27z" />
    <glyph glyph-name="f_f_l" unicode="ffl" horiz-adv-x="1507" 
d="M142 0v525q0 64 27.5 113.5t77 78t117.5 28.5q50 0 88.5 -12t69.5 -29l-53 -144l-31.5 9t-34.5 5q-21 0 -34.5 -7.5t-20.5 -21.5t-7 -34v-511h-99h-61h-39zM53 352v160h430v-160h-430zM670 0v525q0 64 27.5 113.5t77 78t117.5 28.5q50 0 88.5 -12t69.5 -29l-53 -144
l-31.5 9t-34.5 5q-21 0 -34.5 -7.5t-20.5 -21.5t-7 -34v-511h-99h-61h-39zM581 352v160h430v-160h-430zM1180 0v740h203v-740h-203z" />
    <glyph glyph-name=".notdef" horiz-adv-x="584" 
d="M75 0q-35 0 -35 35v630q0 35 35 35h434q35 0 35 -35v-630q0 -35 -35 -35h-434zM75 30h413q3 0 4 2t-1 4l-415 599q-2 3 -4 2.5t-2 -4.5v-598q0 -5 5 -5zM508 65q2 -3 4 -2.5t2 4.5v598q0 5 -5 5h-414q-3 0 -4 -2t1 -4z" />
    <glyph glyph-name=".null" 
 />
    <glyph glyph-name="nonmarkingreturn" horiz-adv-x="333" 
 />
    <glyph glyph-name="CR" unicode="&#xd;" horiz-adv-x="297" 
 />
    <glyph glyph-name="space" unicode=" " horiz-adv-x="432" 
 />
    <glyph glyph-name="exclam" unicode="!" horiz-adv-x="489" 
d="M180 266q-12 56 -24.5 118t-21 126t-8.5 125v85h238v-85q0 -60 -8 -123t-20.5 -125.5t-25.5 -120.5h-130zM247 -11q-55 0 -84 26.5t-29 73.5q0 42 30 71t83 29q55 0 84 -26.5t29 -73.5q0 -42 -30 -71t-83 -29z" />
    <glyph glyph-name="quotedbl" unicode="&#x22;" horiz-adv-x="608" 
d="M331 424l14 276h210l-86 -276h-138zM79 424l14 276h210l-86 -276h-138z" />
    <glyph glyph-name="numbersign" unicode="#" horiz-adv-x="879" 
d="M439 0l120 700h183l-120 -700h-183zM84 127v169h679v-169h-679zM152 0l120 700h183l-120 -700h-183zM122 407v169h678v-169h-678z" />
    <glyph glyph-name="dollar" unicode="$" horiz-adv-x="766" 
d="M391 -10q-117 0 -202 27t-146 79l83 165q64 -45 132 -69.5t134 -24.5q24 0 46 3.5t35 13.5t13 29q0 16 -13 25t-33 14t-41.5 7.5t-38 3.5t-23.5 2q-88 18 -148.5 46.5t-91.5 71.5t-31 106q0 53 25.5 96t69 73t99 46t115.5 16q98 0 176.5 -21.5t148.5 -73.5l-66 -151
q-52 33 -116 50t-132 17q-29 0 -50.5 -3.5t-34 -11t-12.5 -21.5q0 -15 14.5 -24t36.5 -15t44.5 -8.5t37.5 -3.5q57 -8 108.5 -22.5t91.5 -38.5t62.5 -64.5t22.5 -101.5q0 -77 -42.5 -130t-114 -80t-159.5 -27zM321 -91l20 474l72 -33l20 -441h-112zM427 348l-72 33l-20 411
h112z" />
    <glyph glyph-name="percent" unicode="%" horiz-adv-x="1192" 
d="M258 0l471 700h185l-477 -700h-179zM265 305q-59 0 -106 28t-73 76t-26 107q0 62 25 109.5t72 75t108 27.5t107 -27.5t71 -75t25 -109.5q0 -60 -26.5 -107t-72 -75.5t-104.5 -28.5zM265 434q15 0 24.5 11t14 29.5t4.5 41.5q0 24 -4.5 43t-14 29.5t-24.5 10.5t-25 -10.5
t-15 -30t-5 -42.5q0 -24 5 -42.5t15 -29t25 -10.5zM929 -13q-60 0 -106.5 28t-72.5 76t-26 107q0 62 25 109.5t72 75t108 27.5t107 -27.5t71 -75t25 -109.5q0 -60 -26.5 -107.5t-72 -75.5t-104.5 -28zM929 117q15 0 24.5 10.5t14 29t4.5 41.5q0 24 -5 43t-14 29.5t-24 10.5
t-25.5 -11t-15 -29.5t-4.5 -42.5t5 -42.5t15 -28.5t25 -10z" />
    <glyph glyph-name="ampersand" unicode="&#x26;" horiz-adv-x="917" 
d="M658 0l-52 50l-99 86l-139 126q-52 47 -85 85t-52 69t-26.5 59t-7.5 53q0 51 30.5 95t87.5 71.5t133 27.5q65 0 119 -18t93 -49t57 -72l-161 -102q-20 39 -45 55t-52 16q-18 0 -30.5 -5t-19.5 -14t-7 -23q0 -17 17 -41t42.5 -51t54 -53t50.5 -46l75 -59l95 -82l184 -178
h-262zM400 -12q-99 0 -169.5 30t-108.5 83t-38 119q0 64 43.5 123t132.5 91l128 -110q-55 -13 -80.5 -38.5t-25.5 -55.5q0 -24 13 -42.5t41 -28.5t73 -10q33 0 69 13t65 39t47 65.5t17 92.5h200q-5 -70 -30 -128.5t-64 -103.5t-89.5 -76t-107 -47t-116.5 -16z" />
    <glyph glyph-name="quotesingle" unicode="'" horiz-adv-x="352" 
d="M79 424l14 276h202l-86 -276h-130z" />
    <glyph glyph-name="parenleft" unicode="(" horiz-adv-x="533" 
d="M378 -186q-152 77 -229 192t-77 252q0 135 77.5 249.5t229.5 194.5l116 -108q-112 -60 -161.5 -148.5t-49.5 -187.5t49.5 -187.5t161.5 -148.5z" />
    <glyph glyph-name="parenright" unicode=")" horiz-adv-x="533" 
d="M154 -186l-116 108q112 60 161.5 148.5t49.5 187.5t-49.5 187.5t-161.5 148.5l117 108q152 -77 229 -192t77 -252q0 -136 -77.5 -251.5t-229.5 -192.5z" />
    <glyph glyph-name="asterisk" unicode="*" horiz-adv-x="589" 
d="M221 311l19 160l25 -10l-147 -103l-70 117l178 71l-11 -23l-171 79l74 119l159 -124l-37 -9l-22 174h152l-19 -173l-24 11l147 121l70 -119l-175 -80l-2 21l176 -66l-75 -117l-136 107l20 4l21 -160h-152z" />
    <glyph glyph-name="plus" unicode="+" horiz-adv-x="717" 
d="M72 216v146h574v-146h-574zM282 11v549h152v-549h-152z" />
    <glyph glyph-name="comma" unicode="," horiz-adv-x="398" 
d="M116 -225l-56 68q49 20 78.5 49.5t29.5 50.5q0 12 -7.5 23t-27.5 19q-25 14 -40.5 33t-15.5 48q0 42 31 64t77 22q35 0 65 -19t48 -52t18 -76q0 -36 -15.5 -71.5t-43.5 -67t-64 -55t-77 -36.5z" />
    <glyph glyph-name="hyphen" unicode="-" horiz-adv-x="574" 
d="M79 200v178h416v-178h-416z" />
    <glyph glyph-name="period" unicode="." horiz-adv-x="406" 
d="M203 -11q-55 0 -84 26.5t-29 73.5q0 42 30 71t83 29q55 0 84 -26.5t29 -73.5q0 -42 -30 -71t-83 -29z" />
    <glyph glyph-name="slash" unicode="/" horiz-adv-x="719" 
d="M37 -149l419 849h218l-417 -849h-220z" />
    <glyph glyph-name="zero" unicode="0" horiz-adv-x="812" 
d="M408 -10q-114 0 -192.5 43t-118.5 124t-40 193t40 193t118.5 124t192.5 43q113 0 190.5 -43t117.5 -124t40 -193t-40 -193t-117.5 -124t-190.5 -43zM408 168q68 0 105.5 47t37.5 135q0 93 -37.5 142.5t-105.5 49.5q-70 0 -108.5 -49.5t-38.5 -142.5q0 -88 38.5 -135
t108.5 -47z" />
    <glyph glyph-name="one" unicode="1" horiz-adv-x="672" 
d="M244 49v568l38 -117l-172 -77l-33 192l206 95h170v-661h-209zM87 0v184h514v-184h-514z" />
    <glyph glyph-name="two" unicode="2" horiz-adv-x="639" 
d="M67 0l-37 97l192 186q25 22 50.5 48t48.5 53.5t37 53t14 44.5q0 12 -6.5 22.5t-20 17t-34.5 6.5t-41 -8.5t-39.5 -27.5t-40.5 -54l-158 83q28 55 74 100.5t104 72.5t123 26q69 -1 124 -27.5t88 -73t33 -108.5q0 -26 -8 -52t-22 -52.5t-34.5 -55t-46.5 -57.5t-56 -59
l-177 -167l-8 116h390v-184h-549z" />
    <glyph glyph-name="three" unicode="3" horiz-adv-x="731" 
d="M362 -10q-103 0 -179 40t-130 126l151 103q17 -29 41 -49.5t53 -32.5t64 -12q31 0 55 8t38.5 24.5t14.5 40.5q0 26 -16 41.5t-40.5 22.5t-53.5 7q-14 0 -30 -2.5t-30 -7t-26 -11.5l-46 112l156 150l53 -25l-327 10v175h492l40 -95l-255 -242l-50 75q10 4 31.5 7t48.5 3
q48 0 92.5 -17t79.5 -46.5t55.5 -70t20.5 -87.5q0 -73 -40.5 -128.5t-109 -87t-153.5 -31.5z" />
    <glyph glyph-name="four" unicode="4" horiz-adv-x="756" 
d="M387 0v603l152 2l-325 -385l-33 60h538v-166h-609l-84 158l384 438h186v-710h-209z" />
    <glyph glyph-name="five" unicode="5" horiz-adv-x="693" 
d="M345 -7q-90 0 -165 32t-126 88l114 129q36 -36 78 -54t89 -18q32 0 55 10t35.5 28.5t12.5 41.5q0 24 -13.5 42t-37 28.5t-56.5 10.5q-35 0 -63.5 -7t-50.5 -17.5t-39 -22.5l-84 108l45 318h436v-175h-346l63 84l-33 -222l-87 14q26 21 59 37t70 25.5t75 9.5
q73 0 130.5 -30.5t91.5 -86t34 -128.5q0 -69 -38 -124.5t-102.5 -88t-146.5 -32.5z" />
    <glyph glyph-name="six" unicode="6" horiz-adv-x="690" 
d="M346 0q-58 0 -110 20t-92 55.5t-63 82.5t-23 100q0 50 10 88.5t28 70.5t39.5 62.5t44.5 63.5l119 167h205l4 -10l-183 -236q-24 -32 -43.5 -60.5t-36.5 -62t-38 -81.5l-54 31q4 39 28.5 74.5t61 63.5t78.5 44t82 16q65 0 119 -30.5t86 -82.5t32 -116q0 -72 -38 -131.5
t-104 -94t-152 -34.5zM350 170q32 0 57 10t38.5 30t13.5 45q0 24 -14 43t-38.5 30t-56.5 11t-55.5 -11t-36.5 -30t-13 -43q0 -25 13 -44.5t36.5 -30t55.5 -10.5z" />
    <glyph glyph-name="seven" unicode="7" horiz-adv-x="623" 
d="M104 0l272 642l74 -116h-403v184h502l17 -90l-252 -620h-210z" />
    <glyph glyph-name="eight" unicode="8" horiz-adv-x="707" 
d="M353 -3q-84 0 -151.5 28t-106 77.5t-38.5 111.5q0 48 15 82.5t41.5 57.5t61 37.5t73.5 21.5l-16 -61q-27 12 -53 28.5t-46 38.5t-32 49t-12 59q0 57 35.5 101t95.5 68t133 24t133 -24t95 -68t35 -101q0 -33 -11.5 -60t-32 -48.5t-46 -38t-53.5 -28.5l-13 59
q38 -7 72.5 -21t60.5 -37.5t41.5 -58t15.5 -80.5q0 -63 -39 -112t-106.5 -77t-151.5 -28zM353 156q29 0 50 9t33.5 25t12.5 38q0 20 -12 36t-33.5 25t-50.5 9t-51 -9t-34 -25t-12 -36q0 -21 12.5 -37.5t34 -25.5t50.5 -9zM353 455q24 0 42 8.5t28.5 23t10.5 33.5
q0 18 -10 31.5t-28.5 21.5t-42.5 8q-25 0 -43.5 -8t-28.5 -21.5t-10 -31.5q0 -19 10.5 -34t29 -23t42.5 -8z" />
    <glyph glyph-name="nine" unicode="9" horiz-adv-x="686" 
d="M229 0l-4 10l256 442l44 -39q-7 -39 -31.5 -73.5t-60 -60.5t-75 -41t-76.5 -15q-60 0 -110 32.5t-80 85.5t-30 115q0 75 38.5 134.5t104 94.5t147.5 35q58 0 109.5 -19.5t91 -53.5t61.5 -79t22 -96q0 -46 -10.5 -89t-27 -80.5t-35.5 -70t-35 -58.5l-101 -174h-198z
M342 383q32 0 54.5 12t34.5 31.5t12 40.5q0 24 -12 43t-34.5 30.5t-54.5 11.5q-28 0 -51 -10.5t-36.5 -29.5t-13.5 -45q0 -21 13 -40t36 -31.5t52 -12.5z" />
    <glyph glyph-name="colon" unicode=":" horiz-adv-x="406" 
d="M203 -11q-55 0 -84 26.5t-29 73.5q0 42 30 71t83 29q55 0 84 -26.5t29 -73.5q0 -42 -30 -71t-83 -29zM203 345q-55 0 -84 26.5t-29 73.5q0 42 30 71t83 29q55 0 84 -26.5t29 -73.5q0 -42 -30 -71t-83 -29z" />
    <glyph glyph-name="semicolon" unicode=";" horiz-adv-x="427" 
d="M146 -225l-56 68q49 20 78.5 49.5t29.5 50.5q0 12 -7.5 23t-27.5 19q-25 14 -40.5 33t-15.5 48q0 42 31 64t77 22q35 0 65 -19t48 -52t18 -76q0 -36 -15.5 -71.5t-43.5 -67t-64 -55t-77 -36.5zM220 346q-55 0 -84 26.5t-29 73.5q0 42 30 71t83 29q55 0 84 -26.5t29 -73.5
q0 -42 -30 -71t-83 -29z" />
    <glyph glyph-name="less" unicode="&#x3c;" horiz-adv-x="624" 
d="M511 -26l-460 233v109l460 233l78 -169l-377 -158v79l377 -158z" />
    <glyph glyph-name="equal" unicode="=" horiz-adv-x="778" 
d="M108 321v166h562v-166h-562zM108 76v166h562v-166h-562z" />
    <glyph glyph-name="greater" unicode="&#x3e;" horiz-adv-x="625" 
d="M129 -26l-78 169l377 158v-79l-377 158l78 169l460 -233v-109z" />
    <glyph glyph-name="question" unicode="?" horiz-adv-x="681" 
d="M264 261l-37 130q19 3 42.5 8.5t48.5 13.5t45.5 19.5t32.5 27.5t12 35q0 14 -8 21t-20.5 10t-27.5 3q-43 0 -81 -20.5t-72 -74.5l-135 136q52 71 124.5 110.5t159.5 39.5q74 0 133.5 -27.5t93.5 -75t34 -106.5q0 -41 -19 -81t-52.5 -73.5t-77.5 -58t-94 -37.5h-5h-97z
M220 89q0 42 30 71t83 29q55 0 84 -26.5t29 -73.5q0 -42 -30 -71t-83 -29q-55 0 -84 26.5t-29 73.5z" />
    <glyph glyph-name="at" unicode="@" horiz-adv-x="1093" 
d="M450 -170q-88 0 -160 28.5t-123.5 79t-79 120.5t-27.5 153q0 117 44.5 211t123.5 160t182.5 101t221.5 35q95 0 169 -25.5t126 -71t79 -107t27 -134.5q0 -74 -21.5 -135t-60 -106.5t-88.5 -69.5t-106 -24q-45 0 -78.5 15.5t-52 41t-18.5 55.5q0 17 0.5 33t0.5 32l38 -22
q-22 -47 -54.5 -82t-72 -54t-82.5 -19q-52 0 -93.5 23.5t-65.5 65.5t-24 99q0 50 20 102t57 96t85.5 70t104.5 26q40 0 70.5 -17.5t49 -48t22.5 -69.5l-39 -9l31 126h176l-61 -289q-4 -22 -1 -34.5t13 -18.5t25 -6q26 0 49.5 15t42.5 43.5t30.5 67.5t11.5 88
q0 81 -37.5 139.5t-109 90.5t-171.5 32q-107 0 -194 -29t-149 -83.5t-95.5 -133.5t-33.5 -178q0 -70 21.5 -124.5t60.5 -93t95 -59t124 -20.5q51 0 87 6.5t69 19.5t75 34l37 -73q-52 -25 -94.5 -41t-84.5 -24t-92 -8zM500 198q24 0 46.5 10.5t40.5 32.5t27 54q3 9 5 19.5
t2 20.5q2 17 -4 29.5t-19.5 19t-36.5 6.5q-34 0 -59 -18t-38.5 -48.5t-13.5 -67.5q0 -26 14.5 -42t35.5 -16z" />
    <glyph glyph-name="A" unicode="A" horiz-adv-x="807" 
d="M7 0l309 700h177l307 -700h-216l-142 330q-11 28 -19.5 49.5t-15 41t-12.5 40t-12 45.5h38q-5 -26 -11.5 -47t-13.5 -40t-16 -40t-20 -49l-142 -330h-211zM158 100l65 147h363l46 -147h-474z" />
    <glyph glyph-name="B" unicode="B" horiz-adv-x="841" 
d="M114 0v700h358q84 0 141.5 -21t88 -59t30.5 -89q0 -62 -31 -103.5t-92 -55.5v18q45 -11 81 -34t57.5 -58t21.5 -82q0 -59 -24 -100.5t-64.5 -67t-90 -37t-102.5 -11.5h-374zM314 170h172q22 0 38 6t25.5 19.5t9.5 33.5q0 21 -11.5 32.5t-29 17t-37.5 5.5h-167v-114z
M314 428h131q25 0 42.5 6t26 17.5t8.5 28.5q0 24 -20.5 37t-58.5 13h-129v-102z" />
    <glyph glyph-name="C" unicode="C" horiz-adv-x="826" 
d="M484 -10q-88 0 -163.5 27t-131.5 75t-86.5 115t-30.5 148t31 148t86.5 115t131.5 75t165 27q56 0 109 -12.5t100 -35.5t84 -56l-126 -158q-17 18 -41 33t-56.5 25t-75.5 10q-35 0 -69 -11t-60 -33t-41.5 -54.5t-15.5 -75.5q0 -40 16 -71.5t44.5 -53t66 -33.5t81.5 -12
q41 0 74 12t58.5 28.5t44.5 34.5l102 -163q-28 -26 -74.5 -50t-104 -39t-118.5 -15z" />
    <glyph glyph-name="D" unicode="D" horiz-adv-x="914" 
d="M114 0v700h340q87 0 158 -27t123 -74.5t79.5 -111t27.5 -137.5t-27.5 -138t-79.5 -111t-123 -74t-158 -27h-340zM330 133l-37 51h156q41 0 73 13.5t54 36.5t34 52.5t12 63.5q0 33 -12 63t-34 53t-54 36.5t-73 13.5h-159l40 49v-432z" />
    <glyph glyph-name="E" unicode="E" horiz-adv-x="792" 
d="M114 0v700h579v-175h-372v-350h390v-175h-597zM221 272v164h435v-164h-435z" />
    <glyph glyph-name="F" unicode="F" horiz-adv-x="748" 
d="M114 0v700h216v-700h-216zM212 242v170h416v-170h-416zM217 516v184h448v-184h-448z" />
    <glyph glyph-name="G" unicode="G" horiz-adv-x="919" 
d="M467 -10q-93 0 -166 25t-124 72.5t-78 115.5t-27 152q0 80 29.5 146.5t85.5 115.5t132.5 76t170.5 27q70 0 128 -16t104 -41.5t78 -55.5l-128 -138q-22 18 -49 33t-60.5 24.5t-75.5 9.5q-41 0 -76 -13.5t-60.5 -37.5t-40 -57.5t-14.5 -72.5q0 -45 15 -79t41.5 -56.5
t62 -34t77.5 -11.5q34 0 62.5 8.5t49.5 23t32 36t12 46.5v26l28 -51h-212v151h380q1 -13 2.5 -37t2 -46.5t0.5 -29.5q0 -71 -28 -129t-78.5 -98t-120.5 -62t-155 -22z" />
    <glyph glyph-name="H" unicode="H" horiz-adv-x="916" 
d="M587 0v700h216v-700h-216zM114 0v700h216v-700h-216zM195 253l1 188h513v-188h-514z" />
    <glyph glyph-name="I" unicode="I" horiz-adv-x="762" 
d="M122 0v178h151v344h-151v178h518v-178h-151v-344h151v-178h-518z" />
    <glyph glyph-name="J" unicode="J" horiz-adv-x="778" 
d="M323 -10q-54 0 -97 12.5t-75 32t-54 44t-36 48.5l121 125q7 -11 17.5 -24.5t23.5 -24.5t30.5 -18.5t37.5 -7.5q25 0 43.5 11.5t28 31t9.5 44.5v249h-147v187h473v-187h-118v-276q0 -56 -19 -101t-53 -78.5t-81.5 -50.5t-103.5 -17z" />
    <glyph glyph-name="K" unicode="K" horiz-adv-x="880" 
d="M258 184l-70 161l392 355h253zM114 0v700h216v-700h-216zM605 0l-270 339l135 128l384 -467h-249z" />
    <glyph glyph-name="L" unicode="L" horiz-adv-x="736" 
d="M114 0v700h216v-516h356v-184h-572z" />
    <glyph glyph-name="M" unicode="M" horiz-adv-x="1013" 
d="M114 0v700h186l280 -407l-146 1l283 406h182v-700h-208v171q0 87 4.5 159.5t15.5 145.5l23 -65l-196 -264h-66l-195 266l25 63q11 -71 15.5 -142.5t4.5 -162.5v-171h-208z" />
    <glyph glyph-name="N" unicode="N" horiz-adv-x="948" 
d="M114 0v700h197l378 -445l-42 14q-6 42 -9.5 74t-6 58.5t-3.5 51.5t-1 53v64v130h208v-700h-199l-411 490l77 -24q3 -27 6.5 -49.5t6 -44t4 -46.5t2.5 -58t1 -77v-191h-208z" />
    <glyph glyph-name="O" unicode="O" horiz-adv-x="962" 
d="M482 -10q-91 0 -165.5 27t-130 76.5t-85 116t-29.5 145.5t29.5 145.5t85 116t130 76.5t164.5 27t164.5 -27t129.5 -76.5t85 -116t30 -144.5q0 -79 -30 -146t-85 -116.5t-129.5 -76.5t-163.5 -27zM481 190q41 0 75.5 12t60.5 34.5t39.5 52.5t13.5 66t-13.5 66t-39.5 52.5
t-60.5 34.5t-75.5 12t-75.5 -12t-60.5 -35t-39.5 -53t-13.5 -65q0 -36 13.5 -65.5t39.5 -52.5t60.5 -35t75.5 -12z" />
    <glyph glyph-name="P" unicode="P" horiz-adv-x="811" 
d="M114 0v700h364q74 0 132 -31t91.5 -85t33.5 -124q0 -74 -34.5 -132t-94.5 -91t-136 -33h-140v-204h-216zM326 388h101q23 0 42.5 8t30.5 23t11 37q0 21 -11 34t-30.5 19.5t-42.5 6.5h-101v-128z" />
    <glyph glyph-name="Q" unicode="Q" horiz-adv-x="962" 
d="M690 -110l-270 374l151 104l267 -371zM481 -10q-90 0 -164.5 27t-130 76.5t-85 116t-29.5 145.5t29.5 145.5t85 116t130 76.5t164.5 27t164.5 -27t129.5 -76.5t85 -116t30 -145.5q0 -78 -30 -145t-85 -116.5t-129.5 -76.5t-164.5 -27zM481 190q41 0 75.5 12t60.5 34.5
t39.5 52.5t13.5 66t-13.5 66t-39.5 52.5t-60.5 34.5t-75.5 12t-75.5 -12t-60.5 -35t-39.5 -53t-13.5 -65q0 -36 13.5 -65.5t39.5 -52.5t60.5 -35t75.5 -12z" />
    <glyph glyph-name="R" unicode="R" horiz-adv-x="833" 
d="M114 0v700h358q84 0 144 -28t91.5 -78.5t31.5 -119.5q0 -72 -33.5 -126.5t-93 -85.5t-134.5 -31h-162v-231h-202zM531 0l-202 316l223 25l222 -341h-243zM316 381h131q25 0 42.5 9t27.5 26t10 42q0 23 -10 39t-28.5 24.5t-45.5 8.5h-127v-149z" />
    <glyph glyph-name="S" unicode="S" horiz-adv-x="767" 
d="M393 -10q-85 0 -152 16.5t-118.5 45.5t-93.5 65l109 152q68 -59 138.5 -80.5t127.5 -21.5q19 0 39 2.5t32.5 11.5t12.5 27q0 12 -8 20.5t-22.5 14t-33.5 9.5t-40 7t-45 6q-65 10 -115.5 28.5t-85 46.5t-52.5 65t-18 84q0 53 25.5 96t70 73t101.5 46t120 16
q80 0 136.5 -14t97 -38t68.5 -53l-111 -131q-26 19 -58 31.5t-65.5 19t-64.5 6.5q-29 0 -50.5 -3.5t-34 -12t-12.5 -23.5q0 -14 14.5 -22.5t36.5 -14t44.5 -8t37.5 -4.5q57 -8 108.5 -22t91.5 -38t62.5 -64.5t22.5 -101.5q0 -77 -42.5 -130t-114 -80t-159.5 -27z" />
    <glyph glyph-name="T" unicode="T" horiz-adv-x="822" 
d="M300 0v516h-244v184h710v-184h-250v-516h-216z" />
    <glyph glyph-name="U" unicode="U" horiz-adv-x="906" 
d="M453 -6q-101 0 -177.5 39t-119.5 107t-43 155v405h218v-398q0 -36 15.5 -64t43 -44t63.5 -16q38 0 66 16t44.5 44t16.5 64v398h213v-405q0 -87 -43 -155t-119.5 -107t-177.5 -39z" />
    <glyph glyph-name="V" unicode="V" horiz-adv-x="805" 
d="M313 0l-296 700h216l120 -303q9 -24 18 -46.5t18.5 -47t18 -52t16.5 -62.5h-38q12 44 23.5 77t23.5 63t26 67l119 304h210l-295 -700h-180z" />
    <glyph glyph-name="W" unicode="W" horiz-adv-x="1102" 
d="M230 0l-213 700h218l87 -305q7 -27 14 -55.5t12 -56.5t8.5 -52.5t3.5 -40.5h-22q0 26 4.5 57t13 68.5t23.5 78.5l89 237h167l89 -236q15 -41 25.5 -78.5t16.5 -69t5 -57.5h-20q0 13 1 31t3.5 40t6 45t9 46t10.5 44l95 304h209l-227 -700h-170l-159 390h31l-146 -390h-184
z" />
    <glyph glyph-name="X" unicode="X" horiz-adv-x="830" 
d="M559 0l-241 315l-306 385h263l234 -307l314 -393h-264zM7 0l294 381l186 -79l-225 -302h-255zM528 325l-185 76l214 299h255z" />
    <glyph glyph-name="Y" unicode="Y" horiz-adv-x="830" 
d="M316 0v335l12 -61l-320 426h248l239 -327l-134 2l223 325h238l-299 -421l11 64v-343h-218z" />
    <glyph glyph-name="Z" unicode="Z" horiz-adv-x="791" 
d="M76 0v139l405 474l102 -108h-481v195h600v-138l-404 -475l-102 96h517v-183h-637z" />
    <glyph glyph-name="bracketleft" unicode="[" horiz-adv-x="546" 
d="M108 -190v890h383v-186h-182l6 8v-538l-10 12h186v-186h-383z" />
    <glyph glyph-name="backslash" unicode="\" horiz-adv-x="700" 
d="M433 -107l-398 807h215l400 -807h-217z" />
    <glyph glyph-name="bracketright" unicode="]" horiz-adv-x="546" 
d="M55 -190v186h182l-6 -8v538l10 -12h-186v186h383v-890h-383z" />
    <glyph glyph-name="asciicircum" unicode="^" horiz-adv-x="714" 
d="M24 356l254 381h157l254 -381h-203l-198 305l138 1l-202 -306h-200z" />
    <glyph glyph-name="underscore" unicode="_" horiz-adv-x="770" 
d="M59 -216v176h652v-176h-652z" />
    <glyph glyph-name="grave" unicode="`" horiz-adv-x="500" 
d="M335 567l-228 122l80 121l206 -154z" />
    <glyph glyph-name="a" unicode="a" horiz-adv-x="819" 
d="M324 -9q-79 0 -137.5 35t-91 97.5t-32.5 144.5t32.5 144.5t91.5 98t138 35.5q43 0 79.5 -10.5t64 -29t46 -40.5t28.5 -46l-43 -3v118h198v-535h-203v139l43 -10q-8 -27 -26.5 -52t-46.5 -44t-63.5 -30.5t-77.5 -11.5zM381 156q37 0 64 13t41 38t14 61q0 35 -14 60.5
t-41 39t-64 13.5q-38 0 -64.5 -13.5t-40.5 -39t-14 -60.5q0 -36 14 -61t40.5 -38t64.5 -13z" />
    <glyph glyph-name="b" unicode="b" horiz-adv-x="823" 
d="M493 -11q-44 0 -82 10t-67 27t-48 40t-24 47l49 5l-16 -118h-183v740h204v-336l-53 10q7 26 26 50t48 42.5t66 29t79 10.5q75 0 134 -36t93 -99t34 -144q0 -82 -33.5 -144.5t-92.5 -98t-134 -35.5zM436 155q38 0 64 13.5t40 38.5t14 60q0 36 -14 61.5t-40.5 38.5
t-63.5 13q-38 0 -64.5 -13t-40.5 -38.5t-14 -61.5q0 -35 14 -60t40.5 -38.5t64.5 -13.5z" />
    <glyph glyph-name="c" unicode="c" horiz-adv-x="695" 
d="M387 -10q-93 0 -164.5 36t-112 98.5t-40.5 143.5t40.5 143.5t110 98.5t158.5 36q81 0 149 -21.5t115 -62.5l-110 -136q-16 13 -36.5 24t-44.5 17t-53 6q-39 0 -67.5 -13t-43 -36.5t-14.5 -54.5q0 -30 14 -53.5t42 -37.5t67 -14q34 0 59 5.5t44.5 14t32.5 19.5l109 -135
q-47 -36 -112 -57t-143 -21z" />
    <glyph glyph-name="d" unicode="d" horiz-adv-x="801" 
d="M314 -11q-75 0 -132 35.5t-88.5 98t-31.5 144.5q0 81 33 144t92 99t136 36q42 0 78 -10t64.5 -27.5t47.5 -41t25 -49.5l-45 -14v336h204v-740h-183l-16 126l41 -12q-5 -26 -24.5 -48.5t-49.5 -39.5t-68.5 -27t-82.5 -10zM379 156q37 0 64 13.5t41 38t14 59.5t-14 60
t-41 37.5t-64 12.5t-63.5 -12.5t-40.5 -37.5t-14 -60t14 -59.5t40.5 -38t63.5 -13.5z" />
    <glyph glyph-name="e" unicode="e" horiz-adv-x="724" 
d="M393 -10q-102 0 -176.5 36t-114.5 98.5t-40 143.5q0 62 23 113t64.5 88t96.5 57t119 20q65 0 119 -20t93.5 -57.5t61 -88.5t19.5 -112l-1 -43h-475l-23 102h337l-19 -26v18q-1 19 -15.5 34.5t-38.5 24.5t-54 9q-35 0 -62.5 -11.5t-43.5 -34.5t-16 -57q0 -36 20.5 -64
t59 -44.5t93.5 -16.5q47 0 76.5 9.5t50.5 22.5l90 -127q-39 -27 -79 -43.5t-80.5 -23.5t-84.5 -7z" />
    <glyph glyph-name="f" unicode="f" horiz-adv-x="528" 
d="M142 0v525q0 64 27.5 113.5t77 78t117.5 28.5q50 0 88.5 -12t69.5 -29l-53 -144l-31.5 9t-34.5 5q-21 0 -34.5 -7.5t-20.5 -21.5t-7 -34v-511h-99h-61h-39zM53 352v160h430v-160h-430z" />
    <glyph glyph-name="g" unicode="g" horiz-adv-x="829" 
d="M400 -230q-86 0 -160 20.5t-121 51.5l68 138q23 -12 49 -22.5t57.5 -17t70.5 -6.5q48 0 80 14.5t48.5 45.5t16.5 77v64l45 -4q-9 -33 -41 -59t-79.5 -41.5t-102.5 -15.5q-77 0 -135.5 32t-92 89.5t-33.5 135.5q0 81 34 142.5t93 96.5t137 35q27 0 56.5 -5.5t57.5 -15
t51 -24.5t38 -33.5t18 -41.5l-41 -9l11 118h188v-467q0 -73 -23.5 -128.5t-65.5 -93.5t-99.5 -57t-124.5 -19zM394 160q38 0 65 13t41 37.5t14 59.5t-14 60t-41 38t-65 13q-40 0 -67.5 -13t-42.5 -38t-15 -60t15 -59.5t42.5 -37.5t67.5 -13z" />
    <glyph glyph-name="h" unicode="h" horiz-adv-x="817" 
d="M122 0v740h198v-329l-48 -17q10 44 42 78t79 54t101 20q68 0 115.5 -28t71.5 -77.5t24 -114.5v-326h-203v291q0 30 -10 49.5t-29.5 30.5t-45.5 10q-20 0 -37 -6t-29.5 -18t-19 -28.5t-6.5 -36.5v-292h-101h-68.5h-33.5z" />
    <glyph glyph-name="i" unicode="i" horiz-adv-x="462" 
d="M129 0v535h203v-535h-203zM231 636q-54 0 -84.5 25t-30.5 71q0 42 31 69t84 27q54 0 84.5 -25t30.5 -71q0 -42 -31 -69t-84 -27z" />
    <glyph glyph-name="j" unicode="j" horiz-adv-x="493" 
d="M81 -219l-77 162q63 0 96.5 16.5t46 55.5t12.5 108v412h203v-460q0 -106 -32 -170.5t-94 -94t-155 -29.5zM261 632q-54 0 -84.5 25t-30.5 71q0 42 31 69t84 27q54 0 84.5 -25t30.5 -71q0 -42 -31 -69t-84 -27z" />
    <glyph glyph-name="k" unicode="k" horiz-adv-x="815" 
d="M314 138l-93 126l294 271h266zM122 0v740h199v-740h-199zM534 0l-208 275l140 102l300 -377h-232z" />
    <glyph glyph-name="l" unicode="l" horiz-adv-x="452" 
d="M124 0v740h203v-740h-203z" />
    <glyph glyph-name="m" unicode="m" horiz-adv-x="1195" 
d="M122 0v535h188l8 -100l-31 16q18 24 40.5 41.5t48 29.5t54.5 18t61 6q39 0 74 -10.5t62 -37.5t45 -76l-39 3l9 14q18 25 41.5 44.5t52 33.5t60.5 21.5t66 7.5q76 0 124.5 -28t71.5 -77.5t23 -114.5v-326h-203v305q0 22 -8 39t-24.5 27t-41.5 10q-22 0 -40.5 -6.5t-32 -19
t-21 -28t-7.5 -33.5v-294h-203v305q0 23 -9 40t-27.5 26.5t-47.5 9.5q-21 0 -37.5 -7t-28.5 -19.5t-18.5 -25.5t-6.5 -27v-302h-203z" />
    <glyph glyph-name="n" unicode="n" horiz-adv-x="817" 
d="M122 0v535h188l10 -124l-47 -13q11 41 42 74.5t77.5 53.5t101.5 20q67 0 114.5 -27.5t72 -77t24.5 -117.5v-324h-203v293q0 28 -10 47t-29.5 30t-45.5 11q-23 0 -40 -7.5t-28.5 -19.5t-17.5 -27t-6 -30v-297h-101h-68.5h-33.5z" />
    <glyph glyph-name="o" unicode="o" horiz-adv-x="804" 
d="M403 -10q-97 0 -172 36t-118 98.5t-43 143.5t43 143.5t118 98.5t172 36t171.5 -36t117 -98.5t42.5 -143.5t-42.5 -143.5t-117 -98.5t-171.5 -36zM403 160q35 0 63.5 14t45.5 38.5t17 55.5q0 32 -17 57t-45.5 38.5t-63.5 13.5t-65 -14t-46.5 -38t-16.5 -57
q0 -31 16.5 -55.5t46.5 -38.5t65 -14z" />
    <glyph glyph-name="p" unicode="p" horiz-adv-x="827" 
d="M122 -220v755h188l11 -118l-41 9q7 34 38 61t78.5 43t104.5 16q76 0 133.5 -35.5t90 -98t32.5 -144.5q0 -81 -33 -143.5t-92 -98t-136 -35.5q-54 0 -99.5 17t-75.5 45.5t-40 63.5l45 14v-351h-204zM440 156q37 0 63.5 13t40.5 38t14 61t-14 61.5t-40 38.5t-64 13
t-64.5 -13t-40.5 -38.5t-14 -61.5t14 -61t40.5 -38t64.5 -13z" />
    <glyph glyph-name="q" unicode="q" horiz-adv-x="818" 
d="M495 -224v363l45 -17q-6 -27 -25.5 -51t-49 -41.5t-66.5 -28t-78 -10.5q-78 0 -136.5 35.5t-90.5 98t-32 143.5q0 82 33 144.5t91 98t133 35.5q45 0 83.5 -9t67.5 -25.5t47.5 -38.5t23.5 -47l-41 -9l11 118h188v-759h-204zM382 156q37 0 64 13t40.5 38.5t13.5 60.5
t-13.5 60.5t-40.5 38.5t-64 13q-38 0 -64 -13t-40.5 -38t-14.5 -61t14.5 -61t40.5 -38t64 -13z" />
    <glyph glyph-name="r" unicode="r" horiz-adv-x="637" 
d="M122 0v535h188l12 -188l-53 14q14 52 47 94t78 66.5t96 24.5q26 0 50 -4.5t43 -12.5l-56 -223q-14 11 -42.5 18.5t-59.5 7.5q-25 0 -44 -7.5t-31.5 -21t-18.5 -30.5t-6 -37v-236h-203z" />
    <glyph glyph-name="s" unicode="s" horiz-adv-x="654" 
d="M337 -10q-97 0 -171 26.5t-117 70.5l118 103q33 -29 83 -45t100 -16q13 0 24.5 2t19 5.5t12 8.5t4.5 12q0 12 -17 19q-15 5 -41.5 10t-57.5 11q-52 9 -92.5 22t-69.5 33q-28 22 -44 51.5t-16 68.5q0 41 21 73.5t58 54.5t84 34t97 12q53 0 101.5 -9t92.5 -26t79 -43
l-101 -117q-21 14 -50.5 27.5t-64 22.5t-68.5 9q-13 0 -23.5 -1.5t-17.5 -5t-11 -8t-4 -10.5q-1 -7 3.5 -12.5t12.5 -9.5q13 -7 39.5 -12.5t68.5 -14.5q68 -14 113 -32t71 -42q18 -16 27 -38.5t9 -48.5q0 -53 -34.5 -94.5t-95 -66t-142.5 -24.5z" />
    <glyph glyph-name="t" unicode="t" horiz-adv-x="555" 
d="M161 0v682h203v-682h-203zM54 365v170h430v-170h-430z" />
    <glyph glyph-name="u" unicode="u" horiz-adv-x="820" 
d="M321 -11q-66 0 -112.5 27.5t-71.5 81.5t-25 131v306h203v-285q0 -31 8.5 -51t27.5 -30t47 -10q20 0 37.5 6t30.5 18t20.5 27.5t7.5 34.5v290h203v-535h-186l-12 108l38 12q-11 -35 -41.5 -65t-75 -48t-99.5 -18z" />
    <glyph glyph-name="v" unicode="v" horiz-adv-x="755" 
d="M295 0l-253 535h230l143 -400h-58l142 400h230l-262 -535h-172z" />
    <glyph glyph-name="w" unicode="w" horiz-adv-x="965" 
d="M226 0l-184 535h214l88 -313l-20 3l100 249h125l112 -249l-20 -2l80 312h218l-191 -535h-158l-115 289h31l-122 -289h-158z" />
    <glyph glyph-name="x" unicode="x" horiz-adv-x="811" 
d="M489 0l-112 165l-59 80l-227 290h248l96 -142l64 -85l238 -308h-248zM74 0l243 319l121 -121l-116 -198h-248zM493 215l-121 121l117 199h247z" />
    <glyph glyph-name="y" unicode="y" horiz-adv-x="794" 
d="M172 -230l153 314l-6 -81l-276 532h231l105 -223q10 -24 20.5 -49.5t19.5 -54.5l-38 -11q8 18 19 45t20 52l102 241h229l-269 -537l-109 -228h-201z" />
    <glyph glyph-name="z" unicode="z" horiz-adv-x="697" 
d="M70 0v96l344 362l7 -82h-351v159h539v-104l-321 -347l-10 75h341v-159h-549z" />
    <glyph glyph-name="braceleft" unicode="{" horiz-adv-x="577" 
d="M458 -210q-56 10 -101.5 26t-78.5 40t-51 58t-18 79l1 95q1 44 -23.5 59.5t-71.5 16.5h-38v170h40q47 0 70.5 18t22.5 60l-1 95q0 81 61 130.5t188 72.5l48 -155q-33 -8 -56 -16t-36 -24t-13 -48l2 -69q1 -59 -45 -98.5t-148 -60.5v23q102 -23 148 -62.5t45 -97.5l-2 -69
q0 -28 12 -42t35.5 -20.5t57.5 -15.5z" />
    <glyph glyph-name="bar" unicode="|" horiz-adv-x="489" 
d="M144 -193v933h201v-933h-201z" />
    <glyph glyph-name="braceright" unicode="}" horiz-adv-x="577" 
d="M118 -210l-48 155q34 8 57.5 16t36 24t11.5 48l-2 69q0 59 46 98.5t147 60.5v-23q-101 23 -147 62.5t-46 97.5l2 69q1 29 -11 42.5t-35.5 20t-58.5 15.5l48 165q57 -9 102.5 -25.5t78.5 -40.5t50.5 -58t17.5 -79l-1 -95q0 -44 24 -59.5t71 -16.5h38v-170h-40
q-47 0 -70 -18t-23 -60l1 -95q1 -81 -60.5 -130.5t-188.5 -72.5z" />
    <glyph glyph-name="asciitilde" unicode="~" horiz-adv-x="726" 
d="M483 206q-21 0 -40 4t-39 11.5t-43 18.5q-19 8 -36 15t-32.5 11.5t-29.5 4.5q-24 0 -40.5 -18.5t-15.5 -52.5l-153 -2q0 119 46.5 185t145.5 66q16 0 32 -3t31.5 -8t31 -11t29.5 -13q16 -7 31 -14.5t30.5 -12t31.5 -4.5q24 0 38.5 22.5t13.5 56.5l153 2q0 -79 -20.5 -137
t-62 -89.5t-102.5 -31.5z" />
    <glyph glyph-name="uni00A0" unicode="&#xa0;" horiz-adv-x="432" 
 />
    <glyph glyph-name="exclamdown" unicode="&#xa1;" horiz-adv-x="489" 
d="M310 264q12 -55 24.5 -117t21 -126.5t8.5 -125.5v-85h-238v85q0 60 8 123.5t21 126t25 119.5h130zM243 541q56 0 84.5 -26.5t28.5 -73.5q0 -42 -29.5 -71t-83.5 -29q-55 0 -84 26.5t-29 73.5q0 42 30 71t83 29z" />
    <glyph glyph-name="cent" unicode="&#xa2;" horiz-adv-x="721" 
d="M405 78q-92 0 -163.5 36t-113.5 98.5t-42 143.5t42 143.5t113.5 98.5t163.5 36q81 0 150.5 -21.5t113.5 -62.5l-110 -136q-16 13 -36.5 24t-46 17t-57.5 6q-39 0 -68.5 -13t-45 -36.5t-15.5 -54.5q0 -30 15.5 -53.5t44 -37.5t69.5 -14q36 0 62 6t45.5 15t32.5 18
l109 -135q-47 -36 -113 -57t-150 -21zM350 0v108l40 38v404l-40 56v104h145v-105l-33 -55v-405l33 -38v-107h-145z" />
    <glyph glyph-name="sterling" unicode="&#xa3;" horiz-adv-x="791" 
d="M220 53l-82 21q20 12 36.5 31.5t26.5 43t10 43.5q0 16 -5 39.5t-12.5 47.5t-14.5 43.5t-10 29.5q-10 31 -16.5 54.5t-9.5 43t-3 37.5q0 71 36 122.5t102 81t156 29.5q88 0 148.5 -28.5t88.5 -74.5l-155 -121q-10 15 -24 24.5t-31 14t-37 4.5q-29 0 -50 -9t-33.5 -25.5
t-12.5 -38.5q0 -31 6.5 -56.5t16.5 -56.5q12 -39 19 -70t7 -51q0 -34 -16.5 -63.5t-51 -57.5t-89.5 -58zM558 -21q-48 0 -90.5 9.5t-74.5 18.5q-21 6 -43 12t-45.5 10.5t-48.5 4.5q-38 0 -71 -15.5t-65 -34.5l-70 152q47 33 101 52.5t114 19.5q39 0 72.5 -7.5t76.5 -21.5
q29 -9 61.5 -17.5t70.5 -8.5q21 0 48.5 12.5t53.5 30.5l88 -141q-38 -38 -89 -57t-89 -19zM80 282v107h494v-107h-494z" />
    <glyph glyph-name="currency" unicode="&#xa4;" horiz-adv-x="680" 
d="M340 96q-68 0 -121.5 27t-83.5 75t-30 110t30 109.5t83.5 75t121.5 27.5t120.5 -27t82.5 -75t30 -110t-30 -110t-82.5 -75t-120.5 -27zM188 44l-120 121l83 83l117 -124zM142 379l-74 74l120 120l78 -78zM340 240q19 0 33.5 8.5t22.5 24t8 35.5q0 21 -8 36.5t-22.5 24
t-33.5 8.5t-34 -8.5t-23.5 -24t-8.5 -36.5q0 -20 8.5 -35.5t23.5 -24t34 -8.5zM496 44l-80 80l117 123l83 -82zM525 362l-120 119l91 92l120 -120z" />
    <glyph glyph-name="yen" unicode="&#xa5;" horiz-adv-x="830" 
d="M316 0v335l12 -61l-320 426h248l239 -327l-134 2l223 325h238l-299 -421l11 64v-343h-218zM183 142v66h484v-66h-484zM183 258v66h484v-66h-484z" />
    <glyph glyph-name="brokenbar" unicode="&#xa6;" horiz-adv-x="490" 
d="M143 -202v390h205v-390h-205zM143 351v389h205v-389h-205z" />
    <glyph glyph-name="section" unicode="&#xa7;" horiz-adv-x="713" 
d="M453 128l-76 87q22 3 37 9.5t23.5 18t8.5 26.5q0 20 -18.5 32t-46.5 22l-76 21q-51 17 -91 36.5t-68.5 43.5t-43 54.5t-14.5 68.5q0 32 14 63t45 55.5t81.5 39.5t123.5 15q65 0 123.5 -13t105 -35t75.5 -50l-105 -119q-39 30 -75 45t-68 21.5t-56 6.5q-33 0 -47.5 -7.5
t-14.5 -22.5q0 -12 9.5 -21t27 -16t43.5 -15l117 -37q76 -26 114.5 -69t38.5 -106q0 -35 -20.5 -68.5t-62 -56t-104.5 -29.5zM339 -162q-65 0 -120.5 12t-98 34t-70.5 49l106 116q55 -41 100.5 -54.5t82.5 -13.5q36 0 52.5 9.5t16.5 24.5q0 12 -12.5 21t-36.5 17.5t-58 19.5
l-90 27q-78 27 -117.5 69t-39.5 101q0 41 22.5 74t65.5 55.5t106 29.5l76 -84q-26 -3 -43.5 -10t-26.5 -17.5t-9 -25.5q0 -21 17 -32t42 -20l89 -27q77 -25 124.5 -50t69.5 -58t22 -83q0 -48 -27 -90t-86.5 -68t-156.5 -26z" />
    <glyph glyph-name="dieresis" unicode="&#xa8;" horiz-adv-x="500" 
d="M386 614q-48 0 -74 26t-26 74q0 44 27 72t73 28q48 0 74 -25.5t26 -74.5q0 -44 -27 -72t-73 -28zM115 614q-48 0 -74 26t-26 74q0 44 27 72t73 28q48 0 74 -25.5t26 -74.5q0 -44 -27 -72t-73 -28z" />
    <glyph glyph-name="copyright" unicode="&#xa9;" horiz-adv-x="869" 
d="M434 -31q-80 0 -149 29t-121.5 81.5t-81.5 121.5t-29 149t29 149t81.5 121.5t121.5 81.5t149 29q78 0 147.5 -29t121.5 -81.5t82 -121.5t30 -149t-30 -149t-82 -121.5t-121 -81.5t-148 -29zM448 144q-57 0 -105 26.5t-77 72.5t-29 106q0 57 28.5 104.5t76.5 75.5t106 28
q37 0 71.5 -13t68.5 -38l-58 -127q-9 6 -19.5 11t-20.5 8t-21 3q-17 0 -30 -7t-20 -19t-7 -26q0 -15 7.5 -27t20.5 -19t29 -7q13 0 30 5t33 17l60 -129q-34 -23 -70.5 -34t-73.5 -11zM434 47q62 0 117 24t96.5 65t65.5 96t24 118t-23.5 118t-65.5 96.5t-97 65t-117 23.5
q-63 0 -118 -23.5t-96.5 -65t-65 -96.5t-23.5 -118t23.5 -118t64.5 -96.5t96 -65t119 -23.5z" />
    <glyph glyph-name="ordfeminine" unicode="&#xaa;" horiz-adv-x="472" 
d="M171 390q-37 0 -63.5 23t-40 61.5t-13.5 87.5q0 45 16.5 81t45.5 57.5t67 21.5q59 0 86 -30.5t27 -89.5l-25 46v67h133v-314h-133v73l25 28q0 -27 -13 -52.5t-40 -42.5t-72 -17zM230 498q13 0 23.5 7.5t16 21t5.5 31.5q0 26 -12 41t-34 15q-13 0 -22.5 -7.5t-15.5 -20
t-6 -27.5q0 -17 5 -31t14.5 -22t25.5 -8z" />
    <glyph glyph-name="guillemotleft" unicode="&#xab;" horiz-adv-x="750" 
d="M554 9l-215 239v21l215 239l117 -81l-149 -198v59l149 -198zM265 9l-215 239v21l215 239l117 -81l-149 -198v59l149 -198z" />
    <glyph glyph-name="logicalnot" unicode="&#xac;" horiz-adv-x="786" 
d="M530 97v222l99 -75h-566v180h660v-327h-193z" />
    <glyph glyph-name="uni00AD" unicode="&#xad;" horiz-adv-x="584" 
d="M89 200v178h416v-178h-416z" />
    <glyph glyph-name="registered" unicode="&#xae;" horiz-adv-x="580" 
d="M294 219q-74 0 -136 35.5t-98 95.5t-36 134q0 55 21 103.5t58 84.5t86 56.5t105 20.5q53 0 100 -20.5t82.5 -57t56 -84.5t20.5 -103t-20 -103.5t-56 -84.5t-82.5 -56.5t-100.5 -20.5zM295 283q53 0 97 27t70.5 72.5t26.5 101.5q0 55 -26.5 101t-71 73t-96.5 27
q-57 0 -103.5 -27t-75 -73t-28.5 -101q0 -57 28.5 -102.5t75 -72t103.5 -26.5zM328 367l-37 80l79 19l63 -99h-105zM183 367v239h130q42 0 68 -22t26 -57q0 -38 -28.5 -59.5t-65.5 -21.5h-44l11 14v-93h-97zM280 495l-11 7h24q8 0 13.5 4.5t5.5 12.5t-4.5 12.5t-12.5 4.5
h-26l11 8v-49z" />
    <glyph glyph-name="macron" unicode="&#xaf;" horiz-adv-x="424" 
d="M63 628v120h374v-120h-374z" />
    <glyph glyph-name="degree" unicode="&#xb0;" horiz-adv-x="532" 
d="M266 389q-50 0 -89.5 22.5t-63 60t-23.5 81.5q0 47 23 84.5t62.5 59.5t90.5 22t90.5 -22t62.5 -59.5t23 -83.5t-23.5 -83.5t-63 -59.5t-89.5 -22zM266 506q12 0 22.5 6.5t16.5 17.5t6 24t-6 23.5t-16 17t-23 6.5t-23.5 -6.5t-16 -17t-5.5 -24.5q0 -13 6 -23.5t16.5 -17
t22.5 -6.5z" />
    <glyph glyph-name="plusminus" unicode="&#xb1;" horiz-adv-x="768" 
d="M108 333v160h549v-160h-549zM111 -10v160h549v-160h-549zM289 214v393h185v-393h-185z" />
    <glyph glyph-name="uni00B2" unicode="&#xb2;" horiz-adv-x="378" 
d="M57 418l-17 93l105 71q20 14 36 28t25.5 28.5t9.5 25.5t-6 18.5t-17 7.5q-22 0 -38 -17.5t-25 -33.5l-95 67q24 32 48.5 54.5t54 34.5t67.5 12q45 0 76.5 -16.5t47.5 -43t16 -57.5q0 -48 -22 -81t-57 -56.5t-72 -42.5l-44 -22v37h208v-107h-301z" />
    <glyph glyph-name="uni00B3" unicode="&#xb3;" horiz-adv-x="366" 
d="M186 412q-35 0 -61 3t-50.5 10.5t-54.5 20.5l54 95q17 -8 36 -13t38 -5q17 0 30 7.5t13 20.5q0 11 -11 18t-32 7q-15 0 -28 -2.5t-28 -5.5l-25 64l173 107v-45h-188v107h242l12 -98l-135 -89v6q13 8 28 13t26 5q41 0 71 -29t30 -74q0 -39 -21 -66t-53 -42t-66 -15z" />
    <glyph glyph-name="acute" unicode="&#xb4;" horiz-adv-x="500" 
d="M165 566l-58 89l206 154l80 -121z" />
    <glyph glyph-name="uni00B5" unicode="&#xb5;" horiz-adv-x="803" 
d="M98 -165v700h211v-307q0 -18 8.5 -33.5t27 -25t47.5 -9.5q21 0 39 5.5t30.5 15.5t19.5 22.5t7 25.5v306h211v-535h-194l-11 82l33 19q-29 -37 -56.5 -60.5t-63 -36t-90.5 -16.5q-7 0 -14 -1t-13.5 -1t-10.5 1l20 82l10 -234h-211z" />
    <glyph glyph-name="paragraph" unicode="&#xb6;" horiz-adv-x="931" 
d="M308 0v314l64 -45h-84q-67 0 -115.5 27t-74.5 75t-26 110q0 67 29.5 116t86 76t137.5 27h492v-700h-216v660l76 -70h-265l112 62v-652h-216z" />
    <glyph glyph-name="periodcentered" unicode="&#xb7;" horiz-adv-x="406" 
d="M203 253q-55 0 -84 26.5t-29 73.5q0 42 30 71t83 29q55 0 84 -26.5t29 -73.5q0 -42 -30 -71t-83 -29z" />
    <glyph glyph-name="cedilla" unicode="&#xb8;" horiz-adv-x="500" 
d="M146 -247l-11 91q18 0 38 3t34 10t14 18q0 10 -7.5 16.5t-20 9.5t-29.5 3l-21 16l67 104h99l-48 -64q54 -4 79.5 -32.5t25.5 -66.5q0 -34 -20.5 -55.5t-54 -33.5t-71.5 -16t-74 -3z" />
    <glyph glyph-name="uni00B9" unicode="&#xb9;" horiz-adv-x="298" 
d="M108 431v305l26 -58l-70 -42l-54 96l132 78h109v-379h-71h-33.5h-38.5z" />
    <glyph glyph-name="ordmasculine" unicode="&#xba;" horiz-adv-x="514" 
d="M256 393q-51 0 -90.5 21t-62.5 58t-23 84q0 46 23 83.5t62.5 59.5t90.5 22q50 0 90.5 -22t64 -59.5t23.5 -83.5q0 -47 -23 -83.5t-63.5 -58t-91.5 -21.5zM255 488q14 0 24 9t15.5 25t5.5 37t-5 35.5t-15 22t-25 7.5q-13 0 -23 -9t-16 -23.5t-6 -32.5q0 -22 5.5 -38
t15.5 -24.5t24 -8.5z" />
    <glyph glyph-name="guillemotright" unicode="&#xbb;" horiz-adv-x="750" 
d="M486 13l-117 81l149 198v-59l-149 198l117 81l216 -239v-21zM196 13l-117 81l149 198v-59l-149 198l117 81l216 -239v-21z" />
    <glyph glyph-name="onequarter" unicode="&#xbc;" horiz-adv-x="964" 
d="M118 361v305l26 -58l-70 -42l-54 96l132 78h109v-379h-71h-33.5h-38.5zM124 0l476 700h180l-477 -700h-179zM855 167h72v-107h-72v107zM657 133l-16 34h161l-56 -46v161l29 -11zM871 0h-155v104l58 -44h-207l-22 89l190 230h136v-379z" />
    <glyph glyph-name="onehalf" unicode="&#xbd;" horiz-adv-x="945" 
d="M118 361v305l26 -58l-70 -42l-54 96l132 78h109v-379h-71h-33.5h-38.5zM104 0l476 700h180l-477 -700h-179zM597 0l-17 93l105 71q20 14 36 28t25.5 28.5t9.5 25.5t-6 18.5t-17 7.5q-22 0 -38 -17.5t-25 -33.5l-95 67q24 32 48.5 54.5t54 34.5t67.5 12q45 0 76.5 -16.5
t47.5 -43t16 -57.5q0 -48 -22 -81t-57 -56.5t-72 -42.5l-44 -22v37h208v-107h-301z" />
    <glyph glyph-name="threequarters" unicode="&#xbe;" horiz-adv-x="1048" 
d="M219 342q-35 0 -61 3t-50.5 10.5t-54.5 20.5l54 95q17 -8 36 -13t38 -5q17 0 30 7.5t13 20.5q0 11 -11 18t-32 7q-15 0 -28 -2.5t-28 -5.5l-25 64l173 107v-45h-188v107h242l12 -98l-135 -89v6q13 8 28 13t26 5q41 0 71 -29t30 -74q0 -39 -21 -66t-53 -42t-66 -15zM204 0
l476 700h180l-477 -700h-179zM939 167h72v-107h-72v107zM741 133l-16 34h161l-56 -46v161l29 -11zM955 0h-155v104l58 -44h-207l-22 89l190 230h136v-379z" />
    <glyph glyph-name="questiondown" unicode="&#xbf;" horiz-adv-x="681" 
d="M409 273l37 -130q-19 -3 -42.5 -8.5t-48 -13.5t-45 -19.5t-33 -27t-12.5 -35.5q0 -13 8 -20.5t20.5 -10.5t27.5 -3q45 0 82 20.5t71 74.5l135 -136q-51 -71 -124 -110.5t-159 -39.5q-75 0 -134.5 27.5t-93.5 75t-34 106.5q0 42 19 81.5t52.5 73t77.5 58t95 37.5h4h97z
M453 445q0 -42 -30 -71t-83 -29q-55 0 -84 26.5t-29 73.5q0 42 30.5 71t82.5 29q55 0 84 -26.5t29 -73.5z" />
    <glyph glyph-name="Agrave" unicode="&#xc0;" horiz-adv-x="807" 
d="M7 0l309 700h177l307 -700h-216l-142 330q-11 28 -19.5 49.5t-15 41t-12.5 40t-12 45.5h38q-5 -26 -11.5 -47t-13.5 -40t-16 -40t-20 -49l-142 -330h-211zM158 100l65 147h363l46 -147h-474zM517 742l-245 81l60 137l228 -116z" />
    <glyph glyph-name="Aacute" unicode="&#xc1;" horiz-adv-x="807" 
d="M7 0l309 700h177l307 -700h-216l-142 330q-11 28 -19.5 49.5t-15 41t-12.5 40t-12 45.5h38q-5 -26 -11.5 -47t-13.5 -40t-16 -40t-20 -49l-142 -330h-211zM158 100l65 147h363l46 -147h-474zM299 742l-43 102l228 116l60 -137z" />
    <glyph glyph-name="Acircumflex" unicode="&#xc2;" horiz-adv-x="807" 
d="M7 0l309 700h177l307 -700h-216l-142 330q-11 28 -19.5 49.5t-15 41t-12.5 40t-12 45.5h38q-5 -26 -11.5 -47t-13.5 -40t-16 -40t-20 -49l-142 -330h-211zM158 100l65 147h363l46 -147h-474zM265 753l-58 73l145 111h102l145 -111l-58 -73l-153 76h30z" />
    <glyph glyph-name="Atilde" unicode="&#xc3;" horiz-adv-x="807" 
d="M7 0l309 700h177l307 -700h-216l-142 330q-11 28 -19.5 49.5t-15 41t-12.5 40t-12 45.5h38q-5 -26 -11.5 -47t-13.5 -40t-16 -40t-20 -49l-142 -330h-211zM158 100l65 147h363l46 -147h-474zM482 768q-17 0 -35 5t-44 17q-19 9 -31.5 13.5t-22.5 4.5q-15 0 -23 -10.5
t-8 -28.5h-117q0 75 37 119t101 44q15 0 31 -3.5t48 -19.5q18 -9 27 -13t18 -4q13 0 19.5 11t5.5 29h116q0 -46 -15.5 -83.5t-43 -59t-63.5 -21.5z" />
    <glyph glyph-name="Adieresis" unicode="&#xc4;" horiz-adv-x="807" 
d="M7 0l309 700h177l307 -700h-216l-142 330q-11 28 -19.5 49.5t-15 41t-12.5 40t-12 45.5h38q-5 -26 -11.5 -47t-13.5 -40t-16 -40t-20 -49l-142 -330h-211zM158 100l65 147h363l46 -147h-474zM538 750q-48 0 -74 26t-26 74q0 44 27 72t73 28q48 0 74 -25.5t26 -74.5
q0 -44 -27 -72t-73 -28zM267 750q-48 0 -74 26t-26 74q0 44 27 72t73 28q48 0 74 -25.5t26 -74.5q0 -44 -27 -72t-73 -28z" />
    <glyph glyph-name="Aring" unicode="&#xc5;" horiz-adv-x="807" 
d="M7 0l309 700h177l307 -700h-216l-142 330q-11 28 -19.5 49.5t-15 41t-12.5 40t-12 45.5h38q-5 -26 -11.5 -47t-13.5 -40t-16 -40t-20 -49l-142 -330h-211zM158 100l65 147h363l46 -147h-474zM403 669q-40 0 -74 19t-55 49.5t-21 66.5q0 40 20.5 73t54.5 53t75 20
q40 0 74 -20t54.5 -53t20.5 -73q0 -36 -20.5 -66.5t-54.5 -49.5t-74 -19zM403 768q14 0 24.5 10.5t10.5 25.5q0 16 -10.5 26.5t-24.5 10.5t-24.5 -10.5t-10.5 -26.5q0 -15 10.5 -25.5t24.5 -10.5z" />
    <glyph glyph-name="AE" unicode="&#xc6;" horiz-adv-x="1335" 
d="M15 0l544 700h695v-179h-381v-87h336v-168h-336v-87h381v-179h-591v135h-311l124 169h187v261l27 -10l-426 -555h-249z" />
    <glyph glyph-name="Ccedilla" unicode="&#xc7;" horiz-adv-x="826" 
d="M484 -10q-88 0 -163.5 27t-131.5 75t-86.5 115t-30.5 148t31 148t86.5 115t131.5 75t165 27q56 0 109 -12.5t100 -35.5t84 -56l-126 -158q-17 18 -41 33t-56.5 25t-75.5 10q-35 0 -69 -11t-60 -33t-41.5 -54.5t-15.5 -75.5q0 -40 16 -71.5t44.5 -53t66 -33.5t81.5 -12
q41 0 74 12t58.5 28.5t44.5 34.5l102 -163q-28 -26 -74.5 -50t-104 -39t-118.5 -15zM372 -247l-11 91q18 0 38 3t34 10t14 18q0 10 -7.5 16.5t-20 9.5t-29.5 3l-21 16l67 104h99l-48 -64q54 -4 79.5 -32.5t25.5 -66.5q0 -34 -20.5 -55.5t-54 -33.5t-71.5 -16t-74 -3z" />
    <glyph glyph-name="Egrave" unicode="&#xc8;" horiz-adv-x="792" 
d="M114 0v700h579v-175h-372v-350h390v-175h-597zM221 272v164h435v-164h-435zM534 742l-245 81l60 137l228 -116z" />
    <glyph glyph-name="Eacute" unicode="&#xc9;" horiz-adv-x="792" 
d="M114 0v700h579v-175h-372v-350h390v-175h-597zM221 272v164h435v-164h-435zM316 742l-43 102l228 116l60 -137z" />
    <glyph glyph-name="Ecircumflex" unicode="&#xca;" horiz-adv-x="792" 
d="M114 0v700h579v-175h-372v-350h390v-175h-597zM221 272v164h435v-164h-435zM282 753l-58 73l145 111h102l145 -111l-58 -73l-153 76h30z" />
    <glyph glyph-name="Edieresis" unicode="&#xcb;" horiz-adv-x="792" 
d="M114 0v700h579v-175h-372v-350h390v-175h-597zM221 272v164h435v-164h-435zM555 750q-48 0 -74 26t-26 74q0 44 27 72t73 28q48 0 74 -25.5t26 -74.5q0 -44 -27 -72t-73 -28zM284 750q-48 0 -74 26t-26 74q0 44 27 72t73 28q48 0 74 -25.5t26 -74.5q0 -44 -27 -72
t-73 -28z" />
    <glyph glyph-name="Igrave" unicode="&#xcc;" horiz-adv-x="762" 
d="M122 0v178h151v344h-151v178h518v-178h-151v-344h151v-178h-518zM495 742l-245 81l60 137l228 -116z" />
    <glyph glyph-name="Iacute" unicode="&#xcd;" horiz-adv-x="762" 
d="M122 0v178h151v344h-151v178h518v-178h-151v-344h151v-178h-518zM277 742l-43 102l228 116l60 -137z" />
    <glyph glyph-name="Icircumflex" unicode="&#xce;" horiz-adv-x="762" 
d="M122 0v178h151v344h-151v178h518v-178h-151v-344h151v-178h-518zM243 753l-58 73l145 111h102l145 -111l-58 -73l-153 76h30z" />
    <glyph glyph-name="Idieresis" unicode="&#xcf;" horiz-adv-x="762" 
d="M122 0v178h151v344h-151v178h518v-178h-151v-344h151v-178h-518zM516 750q-48 0 -74 26t-26 74q0 44 27 72t73 28q48 0 74 -25.5t26 -74.5q0 -44 -27 -72t-73 -28zM245 750q-48 0 -74 26t-26 74q0 44 27 72t73 28q48 0 74 -25.5t26 -74.5q0 -44 -27 -72t-73 -28z" />
    <glyph glyph-name="Eth" unicode="&#xd0;" horiz-adv-x="914" 
d="M45 281v138h424v-138h-424zM114 0v700h340q87 0 158 -27t123 -74.5t79.5 -111t27.5 -137.5t-27.5 -138t-79.5 -111t-123 -74t-158 -27h-340zM330 133l-37 51h156q41 0 73 13.5t54 36.5t34 52.5t12 63.5q0 33 -12 63t-34 53t-54 36.5t-73 13.5h-159l40 49v-432z" />
    <glyph glyph-name="Ntilde" unicode="&#xd1;" horiz-adv-x="948" 
d="M114 0v700h197l378 -445l-42 14q-6 42 -9.5 74t-6 58.5t-3.5 51.5t-1 53v64v130h208v-700h-199l-411 490l77 -24q3 -27 6.5 -49.5t6 -44t4 -46.5t2.5 -58t1 -77v-191h-208zM554 768q-17 0 -35 5t-44 17q-19 9 -31.5 13.5t-22.5 4.5q-15 0 -23 -10.5t-8 -28.5h-117
q0 75 37 119t101 44q15 0 31 -3.5t48 -19.5q18 -9 27 -13t18 -4q13 0 19.5 11t5.5 29h116q0 -46 -15.5 -83.5t-43 -59t-63.5 -21.5z" />
    <glyph glyph-name="Ograve" unicode="&#xd2;" horiz-adv-x="962" 
d="M482 -10q-91 0 -165.5 27t-130 76.5t-85 116t-29.5 145.5t29.5 145.5t85 116t130 76.5t164.5 27t164.5 -27t129.5 -76.5t85 -116t30 -144.5q0 -79 -30 -146t-85 -116.5t-129.5 -76.5t-163.5 -27zM481 190q41 0 75.5 12t60.5 34.5t39.5 52.5t13.5 66t-13.5 66t-39.5 52.5
t-60.5 34.5t-75.5 12t-75.5 -12t-60.5 -35t-39.5 -53t-13.5 -65q0 -36 13.5 -65.5t39.5 -52.5t60.5 -35t75.5 -12zM595 742l-245 81l60 137l228 -116z" />
    <glyph glyph-name="Oacute" unicode="&#xd3;" horiz-adv-x="962" 
d="M482 -10q-91 0 -165.5 27t-130 76.5t-85 116t-29.5 145.5t29.5 145.5t85 116t130 76.5t164.5 27t164.5 -27t129.5 -76.5t85 -116t30 -144.5q0 -79 -30 -146t-85 -116.5t-129.5 -76.5t-163.5 -27zM481 190q41 0 75.5 12t60.5 34.5t39.5 52.5t13.5 66t-13.5 66t-39.5 52.5
t-60.5 34.5t-75.5 12t-75.5 -12t-60.5 -35t-39.5 -53t-13.5 -65q0 -36 13.5 -65.5t39.5 -52.5t60.5 -35t75.5 -12zM377 742l-43 102l228 116l60 -137z" />
    <glyph glyph-name="Ocircumflex" unicode="&#xd4;" horiz-adv-x="962" 
d="M482 -10q-91 0 -165.5 27t-130 76.5t-85 116t-29.5 145.5t29.5 145.5t85 116t130 76.5t164.5 27t164.5 -27t129.5 -76.5t85 -116t30 -144.5q0 -79 -30 -146t-85 -116.5t-129.5 -76.5t-163.5 -27zM481 190q41 0 75.5 12t60.5 34.5t39.5 52.5t13.5 66t-13.5 66t-39.5 52.5
t-60.5 34.5t-75.5 12t-75.5 -12t-60.5 -35t-39.5 -53t-13.5 -65q0 -36 13.5 -65.5t39.5 -52.5t60.5 -35t75.5 -12zM343 753l-58 73l145 111h102l145 -111l-58 -73l-153 76h30z" />
    <glyph glyph-name="Otilde" unicode="&#xd5;" horiz-adv-x="962" 
d="M482 -10q-91 0 -165.5 27t-130 76.5t-85 116t-29.5 145.5t29.5 145.5t85 116t130 76.5t164.5 27t164.5 -27t129.5 -76.5t85 -116t30 -144.5q0 -79 -30 -146t-85 -116.5t-129.5 -76.5t-163.5 -27zM481 190q41 0 75.5 12t60.5 34.5t39.5 52.5t13.5 66t-13.5 66t-39.5 52.5
t-60.5 34.5t-75.5 12t-75.5 -12t-60.5 -35t-39.5 -53t-13.5 -65q0 -36 13.5 -65.5t39.5 -52.5t60.5 -35t75.5 -12zM560 768q-17 0 -35 5t-44 17q-19 9 -31.5 13.5t-22.5 4.5q-15 0 -23 -10.5t-8 -28.5h-117q0 75 37 119t101 44q15 0 31 -3.5t48 -19.5q18 -9 27 -13t18 -4
q13 0 19.5 11t5.5 29h116q0 -46 -15.5 -83.5t-43 -59t-63.5 -21.5z" />
    <glyph glyph-name="Odieresis" unicode="&#xd6;" horiz-adv-x="962" 
d="M482 -10q-91 0 -165.5 27t-130 76.5t-85 116t-29.5 145.5t29.5 145.5t85 116t130 76.5t164.5 27t164.5 -27t129.5 -76.5t85 -116t30 -144.5q0 -79 -30 -146t-85 -116.5t-129.5 -76.5t-163.5 -27zM481 190q41 0 75.5 12t60.5 34.5t39.5 52.5t13.5 66t-13.5 66t-39.5 52.5
t-60.5 34.5t-75.5 12t-75.5 -12t-60.5 -35t-39.5 -53t-13.5 -65q0 -36 13.5 -65.5t39.5 -52.5t60.5 -35t75.5 -12zM616 750q-48 0 -74 26t-26 74q0 44 27 72t73 28q48 0 74 -25.5t26 -74.5q0 -44 -27 -72t-73 -28zM345 750q-48 0 -74 26t-26 74q0 44 27 72t73 28
q48 0 74 -25.5t26 -74.5q0 -44 -27 -72t-73 -28z" />
    <glyph glyph-name="multiply" unicode="&#xd7;" horiz-adv-x="680" 
d="M482 5l-408 409l129 128l408 -407zM204 8l-127 128l402 402l127 -127z" />
    <glyph glyph-name="Oslash" unicode="&#xd8;" horiz-adv-x="978" 
d="M177 -33l-62 61l677 711l67 -55zM488 -10q-91 0 -165.5 27t-130 76.5t-85 116t-29.5 145.5t29.5 145.5t85 116t130 76.5t164.5 27t164.5 -27t129.5 -76.5t85 -116t30 -144.5q0 -79 -30 -146t-85 -116.5t-129.5 -76.5t-163.5 -27zM487 190q41 0 75.5 12t60.5 34.5
t39.5 52.5t13.5 66t-13.5 66t-39.5 52.5t-60.5 34.5t-75.5 12t-75.5 -12t-60.5 -35t-39.5 -53t-13.5 -65q0 -36 13.5 -65.5t39.5 -52.5t60.5 -35t75.5 -12z" />
    <glyph glyph-name="Ugrave" unicode="&#xd9;" horiz-adv-x="906" 
d="M453 -6q-101 0 -177.5 39t-119.5 107t-43 155v405h218v-398q0 -36 15.5 -64t43 -44t63.5 -16q38 0 66 16t44.5 44t16.5 64v398h213v-405q0 -87 -43 -155t-119.5 -107t-177.5 -39zM567 742l-245 81l60 137l228 -116z" />
    <glyph glyph-name="Uacute" unicode="&#xda;" horiz-adv-x="906" 
d="M453 -6q-101 0 -177.5 39t-119.5 107t-43 155v405h218v-398q0 -36 15.5 -64t43 -44t63.5 -16q38 0 66 16t44.5 44t16.5 64v398h213v-405q0 -87 -43 -155t-119.5 -107t-177.5 -39zM349 742l-43 102l228 116l60 -137z" />
    <glyph glyph-name="Ucircumflex" unicode="&#xdb;" horiz-adv-x="906" 
d="M453 -6q-101 0 -177.5 39t-119.5 107t-43 155v405h218v-398q0 -36 15.5 -64t43 -44t63.5 -16q38 0 66 16t44.5 44t16.5 64v398h213v-405q0 -87 -43 -155t-119.5 -107t-177.5 -39zM315 753l-58 73l145 111h102l145 -111l-58 -73l-153 76h30z" />
    <glyph glyph-name="Udieresis" unicode="&#xdc;" horiz-adv-x="906" 
d="M453 -6q-101 0 -177.5 39t-119.5 107t-43 155v405h218v-398q0 -36 15.5 -64t43 -44t63.5 -16q38 0 66 16t44.5 44t16.5 64v398h213v-405q0 -87 -43 -155t-119.5 -107t-177.5 -39zM588 750q-48 0 -74 26t-26 74q0 44 27 72t73 28q48 0 74 -25.5t26 -74.5q0 -44 -27 -72
t-73 -28zM317 750q-48 0 -74 26t-26 74q0 44 27 72t73 28q48 0 74 -25.5t26 -74.5q0 -44 -27 -72t-73 -28z" />
    <glyph glyph-name="Yacute" unicode="&#xdd;" horiz-adv-x="830" 
d="M316 0v335l12 -61l-320 426h248l239 -327l-134 2l223 325h238l-299 -421l11 64v-343h-218zM311 742l-43 102l228 116l60 -137z" />
    <glyph glyph-name="Thorn" unicode="&#xde;" horiz-adv-x="817" 
d="M114 0v700h216v-100h147q80 0 139 -29.5t92 -83t33 -127.5q0 -73 -33 -130t-92 -89.5t-139 -32.5h-147v-108h-216zM330 292h113q21 0 38 7.5t26.5 21.5t9.5 35t-9.5 34t-26.5 19.5t-38 6.5h-113v-124z" />
    <glyph glyph-name="germandbls" unicode="&#xdf;" horiz-adv-x="820" 
d="M523 -10q-46 0 -82.5 11t-62.5 28l67 154q17 -9 34 -14t35 -5q24 0 39.5 11t15.5 34q0 21 -14 37t-35.5 28t-46 21.5t-45.5 18.5v100q11 5 24 11.5t24 15.5t18 22t7 30q0 29 -20 45.5t-57 16.5q-40 0 -62.5 -19t-22.5 -64v-472h-205v499q0 68 34 121t100.5 83.5
t163.5 30.5q75 0 136 -21.5t96 -62.5t35 -99q0 -39 -18 -77.5t-51 -69.5t-77 -47l-2 75q47 -13 87 -33t71 -47.5t48 -63.5t17 -83q0 -62 -32.5 -110.5t-89 -76.5t-129.5 -28zM53 335v170h181v-170h-181z" />
    <glyph glyph-name="agrave" unicode="&#xe0;" horiz-adv-x="819" 
d="M324 -9q-79 0 -137.5 35t-91 97.5t-32.5 144.5t32.5 144.5t91.5 98t138 35.5q43 0 79.5 -10.5t64 -29t46 -40.5t28.5 -46l-43 -3v118h198v-535h-203v139l43 -10q-8 -27 -26.5 -52t-46.5 -44t-63.5 -30.5t-77.5 -11.5zM381 156q37 0 64 13t41 38t14 61q0 35 -14 60.5
t-41 39t-64 13.5q-38 0 -64.5 -13.5t-40.5 -39t-14 -60.5q0 -36 14 -61t40.5 -38t64.5 -13zM466 577l-228 122l80 121l206 -154z" />
    <glyph glyph-name="aacute" unicode="&#xe1;" horiz-adv-x="819" 
d="M324 -9q-79 0 -137.5 35t-91 97.5t-32.5 144.5t32.5 144.5t91.5 98t138 35.5q43 0 79.5 -10.5t64 -29t46 -40.5t28.5 -46l-43 -3v118h198v-535h-203v139l43 -10q-8 -27 -26.5 -52t-46.5 -44t-63.5 -30.5t-77.5 -11.5zM381 156q37 0 64 13t41 38t14 61q0 35 -14 60.5
t-41 39t-64 13.5q-38 0 -64.5 -13.5t-40.5 -39t-14 -60.5q0 -36 14 -61t40.5 -38t64.5 -13zM316 576l-58 89l206 154l80 -121z" />
    <glyph glyph-name="acircumflex" unicode="&#xe2;" horiz-adv-x="819" 
d="M324 -9q-79 0 -137.5 35t-91 97.5t-32.5 144.5t32.5 144.5t91.5 98t138 35.5q43 0 79.5 -10.5t64 -29t46 -40.5t28.5 -46l-43 -3v118h198v-535h-203v139l43 -10q-8 -27 -26.5 -52t-46.5 -44t-63.5 -30.5t-77.5 -11.5zM381 156q37 0 64 13t41 38t14 61q0 35 -14 60.5
t-41 39t-64 13.5q-38 0 -64.5 -13.5t-40.5 -39t-14 -60.5q0 -36 14 -61t40.5 -38t64.5 -13zM256 596l-72 62l166 142h102l166 -142l-72 -62l-160 96h30z" />
    <glyph glyph-name="atilde" unicode="&#xe3;" horiz-adv-x="819" 
d="M324 -9q-79 0 -137.5 35t-91 97.5t-32.5 144.5t32.5 144.5t91.5 98t138 35.5q43 0 79.5 -10.5t64 -29t46 -40.5t28.5 -46l-43 -3v118h198v-535h-203v139l43 -10q-8 -27 -26.5 -52t-46.5 -44t-63.5 -30.5t-77.5 -11.5zM381 156q37 0 64 13t41 38t14 61q0 35 -14 60.5
t-41 39t-64 13.5q-38 0 -64.5 -13.5t-40.5 -39t-14 -60.5q0 -36 14 -61t40.5 -38t64.5 -13zM482 613q-15 0 -35.5 4.5t-49.5 23.5q-17 12 -28.5 16.5t-18.5 4.5q-15 0 -26.5 -9.5t-13.5 -30.5l-105 14q0 62 32 104.5t87 42.5q15 0 34.5 -4t47.5 -22q9 -6 22.5 -14t26.5 -8
q14 0 25 10t12 30l105 -15q0 -38 -14.5 -72t-40.5 -54.5t-60 -20.5z" />
    <glyph glyph-name="adieresis" unicode="&#xe4;" horiz-adv-x="819" 
d="M324 -9q-79 0 -137.5 35t-91 97.5t-32.5 144.5t32.5 144.5t91.5 98t138 35.5q43 0 79.5 -10.5t64 -29t46 -40.5t28.5 -46l-43 -3v118h198v-535h-203v139l43 -10q-8 -27 -26.5 -52t-46.5 -44t-63.5 -30.5t-77.5 -11.5zM381 156q37 0 64 13t41 38t14 61q0 35 -14 60.5
t-41 39t-64 13.5q-38 0 -64.5 -13.5t-40.5 -39t-14 -60.5q0 -36 14 -61t40.5 -38t64.5 -13zM536 624q-48 0 -74 26t-26 74q0 44 27 72t73 28q48 0 74 -25.5t26 -74.5q0 -44 -27 -72t-73 -28zM265 624q-48 0 -74 26t-26 74q0 44 27 72t73 28q48 0 74 -25.5t26 -74.5
q0 -44 -27 -72t-73 -28z" />
    <glyph glyph-name="aring" unicode="&#xe5;" horiz-adv-x="819" 
d="M324 -9q-79 0 -137.5 35t-91 97.5t-32.5 144.5t32.5 144.5t91.5 98t138 35.5q43 0 79.5 -10.5t64 -29t46 -40.5t28.5 -46l-43 -3v118h198v-535h-203v139l43 -10q-8 -27 -26.5 -52t-46.5 -44t-63.5 -30.5t-77.5 -11.5zM381 156q37 0 64 13t41 38t14 61q0 35 -14 60.5
t-41 39t-64 13.5q-38 0 -64.5 -13.5t-40.5 -39t-14 -60.5q0 -36 14 -61t40.5 -38t64.5 -13zM401 604q-34 0 -63.5 17t-47.5 45t-18 62q0 35 17.5 63.5t47 45.5t64.5 17q36 0 65 -17t46.5 -45.5t17.5 -63.5q0 -34 -18 -62t-47 -45t-64 -17zM401 700q12 0 20 8t8 20
q0 13 -8 21.5t-20 8.5t-20 -8t-8 -21t8 -21t20 -8z" />
    <glyph glyph-name="ae" unicode="&#xe6;" horiz-adv-x="1088" 
d="M274 -10q-61 0 -109 19t-75 54.5t-27 85.5q0 45 20 78t55 53.5t84.5 30t109.5 9.5h514l-5 -19v18q-1 21 -14 36t-35 23.5t-50 8.5q-39 0 -69.5 -10.5t-48.5 -33t-18 -59.5q0 -40 22 -68t63.5 -43t97.5 -15q45 0 76 9.5t55 23.5l84 -127q-36 -26 -75 -42.5t-79.5 -24
t-83.5 -7.5q-104 0 -179.5 36.5t-115.5 99t-40 142.5q0 62 23.5 113t66 88t98 57t119.5 20q84 0 148.5 -35.5t101 -98t34.5 -144.5l-1 -49h-672q-13 0 -28 -2.5t-27.5 -7t-20.5 -13t-8 -20.5t9.5 -21t26.5 -13.5t37 -4.5q28 0 51 7.5t40 19t26 23.5l59 -96
q-17 -26 -53.5 -49.5t-84.5 -37.5t-102 -14zM426 242v65q0 22 -6.5 37.5t-20 24.5t-30.5 13t-39 4q-41 0 -73.5 -11t-59.5 -42l-107 111q26 27 66.5 50.5t94 37.5t117.5 14q47 0 89 -10t75 -33.5t51.5 -60.5t18.5 -90v-110h-176z" />
    <glyph glyph-name="ccedilla" unicode="&#xe7;" horiz-adv-x="695" 
d="M387 -10q-93 0 -164.5 36t-112 98.5t-40.5 143.5t40.5 143.5t110 98.5t158.5 36q81 0 149 -21.5t115 -62.5l-110 -136q-16 13 -36.5 24t-44.5 17t-53 6q-39 0 -67.5 -13t-43 -36.5t-14.5 -54.5q0 -30 14 -53.5t42 -37.5t67 -14q34 0 59 5.5t44.5 14t32.5 19.5l109 -135
q-47 -36 -112 -57t-143 -21zM276 -247l-11 91q18 0 38 3t34 10t14 18q0 10 -7.5 16.5t-20 9.5t-29.5 3l-21 16l67 104h99l-48 -64q54 -4 79.5 -32.5t25.5 -66.5q0 -34 -20.5 -55.5t-54 -33.5t-71.5 -16t-74 -3z" />
    <glyph glyph-name="egrave" unicode="&#xe8;" horiz-adv-x="724" 
d="M393 -10q-102 0 -176.5 36t-114.5 98.5t-40 143.5q0 62 23 113t64.5 88t96.5 57t119 20q65 0 119 -20t93.5 -57.5t61 -88.5t19.5 -112l-1 -43h-475l-23 102h337l-19 -26v18q-1 19 -15.5 34.5t-38.5 24.5t-54 9q-35 0 -62.5 -11.5t-43.5 -34.5t-16 -57q0 -36 20.5 -64
t59 -44.5t93.5 -16.5q47 0 76.5 9.5t50.5 22.5l90 -127q-39 -27 -79 -43.5t-80.5 -23.5t-84.5 -7zM430 577l-228 122l80 121l206 -154z" />
    <glyph glyph-name="eacute" unicode="&#xe9;" horiz-adv-x="724" 
d="M393 -10q-102 0 -176.5 36t-114.5 98.5t-40 143.5q0 62 23 113t64.5 88t96.5 57t119 20q65 0 119 -20t93.5 -57.5t61 -88.5t19.5 -112l-1 -43h-475l-23 102h337l-19 -26v18q-1 19 -15.5 34.5t-38.5 24.5t-54 9q-35 0 -62.5 -11.5t-43.5 -34.5t-16 -57q0 -36 20.5 -64
t59 -44.5t93.5 -16.5q47 0 76.5 9.5t50.5 22.5l90 -127q-39 -27 -79 -43.5t-80.5 -23.5t-84.5 -7zM280 576l-58 89l206 154l80 -121z" />
    <glyph glyph-name="ecircumflex" unicode="&#xea;" horiz-adv-x="724" 
d="M393 -10q-102 0 -176.5 36t-114.5 98.5t-40 143.5q0 62 23 113t64.5 88t96.5 57t119 20q65 0 119 -20t93.5 -57.5t61 -88.5t19.5 -112l-1 -43h-475l-23 102h337l-19 -26v18q-1 19 -15.5 34.5t-38.5 24.5t-54 9q-35 0 -62.5 -11.5t-43.5 -34.5t-16 -57q0 -36 20.5 -64
t59 -44.5t93.5 -16.5q47 0 76.5 9.5t50.5 22.5l90 -127q-39 -27 -79 -43.5t-80.5 -23.5t-84.5 -7zM220 596l-72 62l166 142h102l166 -142l-72 -62l-160 96h30z" />
    <glyph glyph-name="edieresis" unicode="&#xeb;" horiz-adv-x="724" 
d="M393 -10q-102 0 -176.5 36t-114.5 98.5t-40 143.5q0 62 23 113t64.5 88t96.5 57t119 20q65 0 119 -20t93.5 -57.5t61 -88.5t19.5 -112l-1 -43h-475l-23 102h337l-19 -26v18q-1 19 -15.5 34.5t-38.5 24.5t-54 9q-35 0 -62.5 -11.5t-43.5 -34.5t-16 -57q0 -36 20.5 -64
t59 -44.5t93.5 -16.5q47 0 76.5 9.5t50.5 22.5l90 -127q-39 -27 -79 -43.5t-80.5 -23.5t-84.5 -7zM500 624q-48 0 -74 26t-26 74q0 44 27 72t73 28q48 0 74 -25.5t26 -74.5q0 -44 -27 -72t-73 -28zM229 624q-48 0 -74 26t-26 74q0 44 27 72t73 28q48 0 74 -25.5t26 -74.5
q0 -44 -27 -72t-73 -28z" />
    <glyph glyph-name="igrave" unicode="&#xec;" horiz-adv-x="435" 
d="M116 0v535h203v-535h-203zM283 577l-228 122l80 121l206 -154z" />
    <glyph glyph-name="iacute" unicode="&#xed;" horiz-adv-x="435" 
d="M116 0v535h203v-535h-203zM133 576l-58 89l206 154l80 -121z" />
    <glyph glyph-name="icircumflex" unicode="&#xee;" horiz-adv-x="435" 
d="M116 0v535h203v-535h-203zM73 596l-72 62l166 142h102l166 -142l-72 -62l-160 96h30z" />
    <glyph glyph-name="idieresis" unicode="&#xef;" horiz-adv-x="435" 
d="M116 0v535h203v-535h-203zM353 624q-48 0 -74 26t-26 74q0 44 27 72t73 28q48 0 74 -25.5t26 -74.5q0 -44 -27 -72t-73 -28zM82 624q-48 0 -74 26t-26 74q0 44 27 72t73 28q48 0 74 -25.5t26 -74.5q0 -44 -27 -72t-73 -28z" />
    <glyph glyph-name="eth" unicode="&#xf0;" horiz-adv-x="754" 
d="M373 -7q-95 0 -162.5 34.5t-104 93t-36.5 131.5q0 53 23.5 99.5t63.5 81.5t93.5 55t112.5 20q60 0 103 -20.5t70 -56.5t36 -83l-112 13q-1 38 -9.5 71.5t-24 63.5t-38 55.5t-51.5 47t-64 37.5l56 114q56 -18 108.5 -48.5t97.5 -73t78 -94.5t52 -112.5t19 -127.5
q0 -90 -39.5 -158t-109 -105.5t-162.5 -37.5zM375 155q33 0 59.5 14t42.5 38t16 55q0 30 -16 53t-43.5 37t-62.5 14q-31 0 -56 -13.5t-40 -37t-15 -53.5t15.5 -54.5t41.5 -38.5t58 -14zM242 517l-15 65l170 40l58 33l145 29l20 -66l-113 -21l-44 -29z" />
    <glyph glyph-name="ntilde" unicode="&#xf1;" horiz-adv-x="817" 
d="M122 0v535h188l10 -124l-47 -13q11 41 42 74.5t77.5 53.5t101.5 20q67 0 114.5 -27.5t72 -77t24.5 -117.5v-324h-203v293q0 28 -10 47t-29.5 30t-45.5 11q-23 0 -40 -7.5t-28.5 -19.5t-17.5 -27t-6 -30v-297h-101h-68.5h-33.5zM520 613q-15 0 -35.5 4.5t-49.5 23.5
q-17 12 -28.5 16.5t-18.5 4.5q-15 0 -26.5 -9.5t-13.5 -30.5l-105 14q0 62 32 104.5t87 42.5q15 0 34.5 -4t47.5 -22q9 -6 22.5 -14t26.5 -8q14 0 25 10t12 30l105 -15q0 -38 -14.5 -72t-40.5 -54.5t-60 -20.5z" />
    <glyph glyph-name="ograve" unicode="&#xf2;" horiz-adv-x="804" 
d="M403 -10q-97 0 -172 36t-118 98.5t-43 143.5t43 143.5t118 98.5t172 36t171.5 -36t117 -98.5t42.5 -143.5t-42.5 -143.5t-117 -98.5t-171.5 -36zM403 160q35 0 63.5 14t45.5 38.5t17 55.5q0 32 -17 57t-45.5 38.5t-63.5 13.5t-65 -14t-46.5 -38t-16.5 -57
q0 -31 16.5 -55.5t46.5 -38.5t65 -14zM467 577l-228 122l80 121l206 -154z" />
    <glyph glyph-name="oacute" unicode="&#xf3;" horiz-adv-x="804" 
d="M403 -10q-97 0 -172 36t-118 98.5t-43 143.5t43 143.5t118 98.5t172 36t171.5 -36t117 -98.5t42.5 -143.5t-42.5 -143.5t-117 -98.5t-171.5 -36zM403 160q35 0 63.5 14t45.5 38.5t17 55.5q0 32 -17 57t-45.5 38.5t-63.5 13.5t-65 -14t-46.5 -38t-16.5 -57
q0 -31 16.5 -55.5t46.5 -38.5t65 -14zM317 576l-58 89l206 154l80 -121z" />
    <glyph glyph-name="ocircumflex" unicode="&#xf4;" horiz-adv-x="804" 
d="M403 -10q-97 0 -172 36t-118 98.5t-43 143.5t43 143.5t118 98.5t172 36t171.5 -36t117 -98.5t42.5 -143.5t-42.5 -143.5t-117 -98.5t-171.5 -36zM403 160q35 0 63.5 14t45.5 38.5t17 55.5q0 32 -17 57t-45.5 38.5t-63.5 13.5t-65 -14t-46.5 -38t-16.5 -57
q0 -31 16.5 -55.5t46.5 -38.5t65 -14zM257 596l-72 62l166 142h102l166 -142l-72 -62l-160 96h30z" />
    <glyph glyph-name="otilde" unicode="&#xf5;" horiz-adv-x="804" 
d="M403 -10q-97 0 -172 36t-118 98.5t-43 143.5t43 143.5t118 98.5t172 36t171.5 -36t117 -98.5t42.5 -143.5t-42.5 -143.5t-117 -98.5t-171.5 -36zM403 160q35 0 63.5 14t45.5 38.5t17 55.5q0 32 -17 57t-45.5 38.5t-63.5 13.5t-65 -14t-46.5 -38t-16.5 -57
q0 -31 16.5 -55.5t46.5 -38.5t65 -14zM483 613q-15 0 -35.5 4.5t-49.5 23.5q-17 12 -28.5 16.5t-18.5 4.5q-15 0 -26.5 -9.5t-13.5 -30.5l-105 14q0 62 32 104.5t87 42.5q15 0 34.5 -4t47.5 -22q9 -6 22.5 -14t26.5 -8q14 0 25 10t12 30l105 -15q0 -38 -14.5 -72
t-40.5 -54.5t-60 -20.5z" />
    <glyph glyph-name="odieresis" unicode="&#xf6;" horiz-adv-x="804" 
d="M403 -10q-97 0 -172 36t-118 98.5t-43 143.5t43 143.5t118 98.5t172 36t171.5 -36t117 -98.5t42.5 -143.5t-42.5 -143.5t-117 -98.5t-171.5 -36zM403 160q35 0 63.5 14t45.5 38.5t17 55.5q0 32 -17 57t-45.5 38.5t-63.5 13.5t-65 -14t-46.5 -38t-16.5 -57
q0 -31 16.5 -55.5t46.5 -38.5t65 -14zM537 624q-48 0 -74 26t-26 74q0 44 27 72t73 28q48 0 74 -25.5t26 -74.5q0 -44 -27 -72t-73 -28zM266 624q-48 0 -74 26t-26 74q0 44 27 72t73 28q48 0 74 -25.5t26 -74.5q0 -44 -27 -72t-73 -28z" />
    <glyph glyph-name="divide" unicode="&#xf7;" horiz-adv-x="709" 
d="M66 188v166h578v-166h-578zM355 -52q-38 0 -68.5 10.5t-47.5 32.5t-17 57q0 32 18 54.5t47.5 34t67.5 11.5q39 0 69 -10.5t47 -32.5t17 -57q0 -32 -18 -54.5t-47.5 -34t-67.5 -11.5zM355 394q-38 0 -68.5 10.5t-47.5 32.5t-17 57q0 33 18 55t47.5 33.5t67.5 11.5
q39 0 69 -10.5t47 -32.5t17 -56q0 -33 -17.5 -55.5t-47.5 -34t-68 -11.5z" />
    <glyph glyph-name="oslash" unicode="&#xf8;" horiz-adv-x="796" 
d="M165 -27l-63 52l529 542l63 -53zM403 -10q-97 0 -172 36t-118 98.5t-43 143.5t43 143.5t118 98.5t172 36q98 0 172.5 -36t116.5 -98.5t42 -143.5t-42 -143.5t-116.5 -98.5t-172.5 -36zM403 160q36 0 64.5 14t45.5 38.5t16 55.5q1 32 -16 57t-45.5 38.5t-64.5 13.5
q-35 0 -64.5 -14t-46.5 -38t-17 -57q0 -31 17 -55.5t46.5 -38.5t64.5 -14z" />
    <glyph glyph-name="ugrave" unicode="&#xf9;" horiz-adv-x="820" 
d="M321 -11q-66 0 -112.5 27.5t-71.5 81.5t-25 131v306h203v-285q0 -31 8.5 -51t27.5 -30t47 -10q20 0 37.5 6t30.5 18t20.5 27.5t7.5 34.5v290h203v-535h-186l-12 108l38 12q-11 -35 -41.5 -65t-75 -48t-99.5 -18zM476 577l-228 122l80 121l206 -154z" />
    <glyph glyph-name="uacute" unicode="&#xfa;" horiz-adv-x="820" 
d="M321 -11q-66 0 -112.5 27.5t-71.5 81.5t-25 131v306h203v-285q0 -31 8.5 -51t27.5 -30t47 -10q20 0 37.5 6t30.5 18t20.5 27.5t7.5 34.5v290h203v-535h-186l-12 108l38 12q-11 -35 -41.5 -65t-75 -48t-99.5 -18zM326 576l-58 89l206 154l80 -121z" />
    <glyph glyph-name="ucircumflex" unicode="&#xfb;" horiz-adv-x="820" 
d="M321 -11q-66 0 -112.5 27.5t-71.5 81.5t-25 131v306h203v-285q0 -31 8.5 -51t27.5 -30t47 -10q20 0 37.5 6t30.5 18t20.5 27.5t7.5 34.5v290h203v-535h-186l-12 108l38 12q-11 -35 -41.5 -65t-75 -48t-99.5 -18zM266 596l-72 62l166 142h102l166 -142l-72 -62l-160 96h30
z" />
    <glyph glyph-name="udieresis" unicode="&#xfc;" horiz-adv-x="820" 
d="M321 -11q-66 0 -112.5 27.5t-71.5 81.5t-25 131v306h203v-285q0 -31 8.5 -51t27.5 -30t47 -10q20 0 37.5 6t30.5 18t20.5 27.5t7.5 34.5v290h203v-535h-186l-12 108l38 12q-11 -35 -41.5 -65t-75 -48t-99.5 -18zM546 624q-48 0 -74 26t-26 74q0 44 27 72t73 28
q48 0 74 -25.5t26 -74.5q0 -44 -27 -72t-73 -28zM275 624q-48 0 -74 26t-26 74q0 44 27 72t73 28q48 0 74 -25.5t26 -74.5q0 -44 -27 -72t-73 -28z" />
    <glyph glyph-name="yacute" unicode="&#xfd;" horiz-adv-x="794" 
d="M172 -230l153 314l-6 -81l-276 532h231l105 -223q10 -24 20.5 -49.5t19.5 -54.5l-38 -11q8 18 19 45t20 52l102 241h229l-269 -537l-109 -228h-201zM308 576l-58 89l206 154l80 -121z" />
    <glyph glyph-name="thorn" unicode="&#xfe;" horiz-adv-x="827" 
d="M122 -220v960h204v-323l-46 9q7 34 38 61t78.5 43t104.5 16q56 0 102 -20t80.5 -57.5t54 -88t19.5 -112.5q0 -81 -34 -143.5t-93 -98t-134 -35.5q-54 0 -99.5 17t-75.5 45.5t-40 63.5l45 14v-351h-204zM440 156q37 0 63.5 13t40.5 38t14 61t-14 61.5t-40 38.5t-64 13
t-64.5 -13t-40.5 -38.5t-14 -61.5t14 -61t40.5 -38t64.5 -13z" />
    <glyph glyph-name="ydieresis" unicode="&#xff;" horiz-adv-x="794" 
d="M172 -230l153 314l-6 -81l-276 532h231l105 -223q10 -24 20.5 -49.5t19.5 -54.5l-38 -11q8 18 19 45t20 52l102 241h229l-269 -537l-109 -228h-201zM528 624q-48 0 -74 26t-26 74q0 44 27 72t73 28q48 0 74 -25.5t26 -74.5q0 -44 -27 -72t-73 -28zM257 624q-48 0 -74 26
t-26 74q0 44 27 72t73 28q48 0 74 -25.5t26 -74.5q0 -44 -27 -72t-73 -28z" />
    <glyph glyph-name="Amacron" unicode="&#x100;" horiz-adv-x="807" 
d="M7 0l309 700h177l307 -700h-216l-142 330q-11 28 -19.5 49.5t-15 41t-12.5 40t-12 45.5h38q-5 -26 -11.5 -47t-13.5 -40t-16 -40t-20 -49l-142 -330h-211zM158 100l65 147h363l46 -147h-474zM213 790v120h379v-120h-379z" />
    <glyph glyph-name="amacron" unicode="&#x101;" horiz-adv-x="819" 
d="M324 -9q-79 0 -137.5 35t-91 97.5t-32.5 144.5t32.5 144.5t91.5 98t138 35.5q43 0 79.5 -10.5t64 -29t46 -40.5t28.5 -46l-43 -3v118h198v-535h-203v139l43 -10q-8 -27 -26.5 -52t-46.5 -44t-63.5 -30.5t-77.5 -11.5zM381 156q37 0 64 13t41 38t14 61q0 35 -14 60.5
t-41 39t-64 13.5q-38 0 -64.5 -13.5t-40.5 -39t-14 -60.5q0 -36 14 -61t40.5 -38t64.5 -13zM214 638v120h374v-120h-374z" />
    <glyph glyph-name="Abreve" unicode="&#x102;" horiz-adv-x="807" 
d="M7 0l309 700h177l307 -700h-216l-142 330q-11 28 -19.5 49.5t-15 41t-12.5 40t-12 45.5h38q-5 -26 -11.5 -47t-13.5 -40t-16 -40t-20 -49l-142 -330h-211zM158 100l65 147h363l46 -147h-474zM403 762q-48 0 -88 19.5t-67 56.5t-37 88l124 12q9 -26 28 -40.5t40 -14.5
t40 14.5t28 40.5l124 -12q-10 -51 -37 -88t-66.5 -56.5t-88.5 -19.5z" />
    <glyph glyph-name="abreve" unicode="&#x103;" horiz-adv-x="819" 
d="M324 -9q-79 0 -137.5 35t-91 97.5t-32.5 144.5t32.5 144.5t91.5 98t138 35.5q43 0 79.5 -10.5t64 -29t46 -40.5t28.5 -46l-43 -3v118h198v-535h-203v139l43 -10q-8 -27 -26.5 -52t-46.5 -44t-63.5 -30.5t-77.5 -11.5zM381 156q37 0 64 13t41 38t14 61q0 35 -14 60.5
t-41 39t-64 13.5q-38 0 -64.5 -13.5t-40.5 -39t-14 -60.5q0 -36 14 -61t40.5 -38t64.5 -13zM401 610q-73 0 -125 43.5t-67 120.5l124 12q9 -26 28 -40.5t40 -14.5t40 14.5t28 40.5l124 -12q-15 -77 -67 -120.5t-125 -43.5z" />
    <glyph glyph-name="Aogonek" unicode="&#x104;" horiz-adv-x="807" 
d="M7 0l309 700h177l307 -700h-216l-142 330q-11 28 -19.5 49.5t-15 41t-12.5 40t-12 45.5h38q-5 -26 -11.5 -47t-13.5 -40t-16 -40t-20 -49l-142 -330h-211zM158 100l65 147h363l46 -147h-474zM644 -220q-37 0 -66.5 13.5t-46 38.5t-16.5 58q0 26 12 50t35 44.5t55.5 37
t72.5 27.5l31 -49q-22 -3 -40.5 -14t-29 -25.5t-10.5 -30.5q0 -11 5.5 -19t16.5 -8q10 0 16.5 5.5t13.5 17.5l80 -59q-18 -39 -49.5 -63t-79.5 -24z" />
    <glyph glyph-name="aogonek" unicode="&#x105;" horiz-adv-x="819" 
d="M324 -9q-79 0 -137.5 35t-91 97.5t-32.5 144.5t32.5 144.5t91.5 98t138 35.5q43 0 79.5 -10.5t64 -29t46 -40.5t28.5 -46l-43 -3v118h198v-535h-203v139l43 -10q-8 -27 -26.5 -52t-46.5 -44t-63.5 -30.5t-77.5 -11.5zM381 156q37 0 64 13t41 38t14 61q0 35 -14 60.5
t-41 39t-64 13.5q-38 0 -64.5 -13.5t-40.5 -39t-14 -60.5q0 -36 14 -61t40.5 -38t64.5 -13zM550 -219q-37 0 -66.5 15.5t-46 42t-16.5 59.5q0 26 10.5 48.5t32.5 41.5t55.5 34.5t79.5 27.5l44 -50q-26 -6 -48 -17t-35 -25.5t-13 -31.5q0 -10 6 -16t17 -6q9 0 15 5.5t14 17.5
l80 -59q-12 -20 -31.5 -40t-44 -33.5t-53.5 -13.5z" />
    <glyph glyph-name="Cacute" unicode="&#x106;" horiz-adv-x="826" 
d="M484 -10q-88 0 -163.5 27t-131.5 75t-86.5 115t-30.5 148t31 148t86.5 115t131.5 75t165 27q56 0 109 -12.5t100 -35.5t84 -56l-126 -158q-17 18 -41 33t-56.5 25t-75.5 10q-35 0 -69 -11t-60 -33t-41.5 -54.5t-15.5 -75.5q0 -40 16 -71.5t44.5 -53t66 -33.5t81.5 -12
q41 0 74 12t58.5 28.5t44.5 34.5l102 -163q-28 -26 -74.5 -50t-104 -39t-118.5 -15zM379 742l-43 102l228 116l60 -137z" />
    <glyph glyph-name="cacute" unicode="&#x107;" horiz-adv-x="695" 
d="M387 -10q-93 0 -164.5 36t-112 98.5t-40.5 143.5t40.5 143.5t110 98.5t158.5 36q81 0 149 -21.5t115 -62.5l-110 -136q-16 13 -36.5 24t-44.5 17t-53 6q-39 0 -67.5 -13t-43 -36.5t-14.5 -54.5q0 -30 14 -53.5t42 -37.5t67 -14q34 0 59 5.5t44.5 14t32.5 19.5l109 -135
q-47 -36 -112 -57t-143 -21zM294 576l-58 89l206 154l80 -121z" />
    <glyph glyph-name="Ccircumflex" unicode="&#x108;" horiz-adv-x="826" 
d="M484 -10q-88 0 -163.5 27t-131.5 75t-86.5 115t-30.5 148t31 148t86.5 115t131.5 75t165 27q56 0 109 -12.5t100 -35.5t84 -56l-126 -158q-17 18 -41 33t-56.5 25t-75.5 10q-35 0 -69 -11t-60 -33t-41.5 -54.5t-15.5 -75.5q0 -40 16 -71.5t44.5 -53t66 -33.5t81.5 -12
q41 0 74 12t58.5 28.5t44.5 34.5l102 -163q-28 -26 -74.5 -50t-104 -39t-118.5 -15zM345 753l-58 73l145 111h102l145 -111l-58 -73l-153 76h30z" />
    <glyph glyph-name="ccircumflex" unicode="&#x109;" horiz-adv-x="695" 
d="M387 -10q-93 0 -164.5 36t-112 98.5t-40.5 143.5t40.5 143.5t110 98.5t158.5 36q81 0 149 -21.5t115 -62.5l-110 -136q-16 13 -36.5 24t-44.5 17t-53 6q-39 0 -67.5 -13t-43 -36.5t-14.5 -54.5q0 -30 14 -53.5t42 -37.5t67 -14q34 0 59 5.5t44.5 14t32.5 19.5l109 -135
q-47 -36 -112 -57t-143 -21zM234 596l-72 62l166 142h102l166 -142l-72 -62l-160 96h30z" />
    <glyph glyph-name="Cdotaccent" unicode="&#x10a;" horiz-adv-x="826" 
d="M484 -10q-88 0 -163.5 27t-131.5 75t-86.5 115t-30.5 148t31 148t86.5 115t131.5 75t165 27q56 0 109 -12.5t100 -35.5t84 -56l-126 -158q-17 18 -41 33t-56.5 25t-75.5 10q-35 0 -69 -11t-60 -33t-41.5 -54.5t-15.5 -75.5q0 -40 16 -71.5t44.5 -53t66 -33.5t81.5 -12
q41 0 74 12t58.5 28.5t44.5 34.5l102 -163q-28 -26 -74.5 -50t-104 -39t-118.5 -15zM483 754q-54 0 -84.5 25t-30.5 71q0 42 31 69t84 27q54 0 84.5 -25t30.5 -71q0 -42 -31 -69t-84 -27z" />
    <glyph glyph-name="cdotaccent" unicode="&#x10b;" horiz-adv-x="695" 
d="M387 -10q-93 0 -164.5 36t-112 98.5t-40.5 143.5t40.5 143.5t110 98.5t158.5 36q81 0 149 -21.5t115 -62.5l-110 -136q-16 13 -36.5 24t-44.5 17t-53 6q-39 0 -67.5 -13t-43 -36.5t-14.5 -54.5q0 -30 14 -53.5t42 -37.5t67 -14q34 0 59 5.5t44.5 14t32.5 19.5l109 -135
q-47 -36 -112 -57t-143 -21zM379 632q-54 0 -84.5 25t-30.5 71q0 42 31 69t84 27q54 0 84.5 -25t30.5 -71q0 -42 -31 -69t-84 -27z" />
    <glyph glyph-name="Ccaron" unicode="&#x10c;" horiz-adv-x="826" 
d="M484 -10q-88 0 -163.5 27t-131.5 75t-86.5 115t-30.5 148t31 148t86.5 115t131.5 75t165 27q56 0 109 -12.5t100 -35.5t84 -56l-126 -158q-17 18 -41 33t-56.5 25t-75.5 10q-35 0 -69 -11t-60 -33t-41.5 -54.5t-15.5 -75.5q0 -40 16 -71.5t44.5 -53t66 -33.5t81.5 -12
q41 0 74 12t58.5 28.5t44.5 34.5l102 -163q-28 -26 -74.5 -50t-104 -39t-118.5 -15zM432 753l-145 111l58 73l153 -76h-30l153 76l58 -73l-145 -111h-102z" />
    <glyph glyph-name="ccaron" unicode="&#x10d;" horiz-adv-x="695" 
d="M387 -10q-93 0 -164.5 36t-112 98.5t-40.5 143.5t40.5 143.5t110 98.5t158.5 36q81 0 149 -21.5t115 -62.5l-110 -136q-16 13 -36.5 24t-44.5 17t-53 6q-39 0 -67.5 -13t-43 -36.5t-14.5 -54.5q0 -30 14 -53.5t42 -37.5t67 -14q34 0 59 5.5t44.5 14t32.5 19.5l109 -135
q-47 -36 -112 -57t-143 -21zM328 606l-166 142l72 62l160 -96h-30l160 96l72 -62l-166 -142h-102z" />
    <glyph glyph-name="Dcaron" unicode="&#x10e;" horiz-adv-x="914" 
d="M114 0v700h340q87 0 158 -27t123 -74.5t79.5 -111t27.5 -137.5t-27.5 -138t-79.5 -111t-123 -74t-158 -27h-340zM330 133l-37 51h156q41 0 73 13.5t54 36.5t34 52.5t12 63.5q0 33 -12 63t-34 53t-54 36.5t-73 13.5h-159l40 49v-432zM407 753l-145 111l58 73l153 -76h-30
l153 76l58 -73l-145 -111h-102z" />
    <glyph glyph-name="dcaron" unicode="&#x10f;" horiz-adv-x="955" 
d="M314 -11q-75 0 -132 35.5t-88.5 98t-31.5 144.5q0 81 33 144t92 99t136 36q42 0 78 -10t64.5 -27.5t47.5 -41t25 -49.5l-45 -14v336h204v-740h-183l-16 126l41 -12q-5 -26 -24.5 -48.5t-49.5 -39.5t-68.5 -27t-82.5 -10zM379 156q37 0 64 13.5t41 38t14 59.5t-14 60
t-41 37.5t-64 12.5t-63.5 -12.5t-40.5 -37.5t-14 -60t14 -59.5t40.5 -38t63.5 -13.5zM817 445l-52 64q14 5 34 14t36 21.5t16 26.5q0 10 -7.5 15t-20.5 12q-23 11 -34 26t-11 39q0 40 26.5 58.5t65.5 18.5q49 0 83 -27t34 -85q0 -36 -11.5 -65.5t-34 -52t-54 -38.5
t-70.5 -27z" />
    <glyph glyph-name="Dcroat" unicode="&#x110;" horiz-adv-x="914" 
d="M45 281v138h424v-138h-424zM114 0v700h340q87 0 158 -27t123 -74.5t79.5 -111t27.5 -137.5t-27.5 -138t-79.5 -111t-123 -74t-158 -27h-340zM330 133l-37 51h156q41 0 73 13.5t54 36.5t34 52.5t12 63.5q0 33 -12 63t-34 53t-54 36.5t-73 13.5h-159l40 49v-432z" />
    <glyph glyph-name="dcroat" unicode="&#x111;" horiz-adv-x="801" 
d="M317 565v138h424v-138h-424zM314 -11q-75 0 -132 35.5t-88.5 98t-31.5 144.5q0 81 33 144t92 99t136 36q42 0 78 -10t64.5 -27.5t47.5 -41t25 -49.5l-45 -14v336h204v-740h-183l-16 126l41 -12q-5 -26 -24.5 -48.5t-49.5 -39.5t-68.5 -27t-82.5 -10zM379 156
q37 0 64 13.5t41 38t14 59.5t-14 60t-41 37.5t-64 12.5t-63.5 -12.5t-40.5 -37.5t-14 -60t14 -59.5t40.5 -38t63.5 -13.5z" />
    <glyph glyph-name="Emacron" unicode="&#x112;" horiz-adv-x="792" 
d="M114 0v700h579v-175h-372v-350h390v-175h-597zM221 272v164h435v-164h-435zM230 790v120h379v-120h-379z" />
    <glyph glyph-name="emacron" unicode="&#x113;" horiz-adv-x="724" 
d="M393 -10q-102 0 -176.5 36t-114.5 98.5t-40 143.5q0 62 23 113t64.5 88t96.5 57t119 20q65 0 119 -20t93.5 -57.5t61 -88.5t19.5 -112l-1 -43h-475l-23 102h337l-19 -26v18q-1 19 -15.5 34.5t-38.5 24.5t-54 9q-35 0 -62.5 -11.5t-43.5 -34.5t-16 -57q0 -36 20.5 -64
t59 -44.5t93.5 -16.5q47 0 76.5 9.5t50.5 22.5l90 -127q-39 -27 -79 -43.5t-80.5 -23.5t-84.5 -7zM178 638v120h374v-120h-374z" />
    <glyph glyph-name="Ebreve" unicode="&#x114;" horiz-adv-x="792" 
d="M114 0v700h579v-175h-372v-350h390v-175h-597zM221 272v164h435v-164h-435zM420 762q-48 0 -88 19.5t-67 56.5t-37 88l124 12q9 -26 28 -40.5t40 -14.5t40 14.5t28 40.5l124 -12q-10 -51 -37 -88t-66.5 -56.5t-88.5 -19.5z" />
    <glyph glyph-name="ebreve" unicode="&#x115;" horiz-adv-x="724" 
d="M393 -10q-102 0 -176.5 36t-114.5 98.5t-40 143.5q0 62 23 113t64.5 88t96.5 57t119 20q65 0 119 -20t93.5 -57.5t61 -88.5t19.5 -112l-1 -43h-475l-23 102h337l-19 -26v18q-1 19 -15.5 34.5t-38.5 24.5t-54 9q-35 0 -62.5 -11.5t-43.5 -34.5t-16 -57q0 -36 20.5 -64
t59 -44.5t93.5 -16.5q47 0 76.5 9.5t50.5 22.5l90 -127q-39 -27 -79 -43.5t-80.5 -23.5t-84.5 -7zM365 610q-73 0 -125 43.5t-67 120.5l124 12q9 -26 28 -40.5t40 -14.5t40 14.5t28 40.5l124 -12q-15 -77 -67 -120.5t-125 -43.5z" />
    <glyph glyph-name="Edotaccent" unicode="&#x116;" horiz-adv-x="792" 
d="M114 0v700h579v-175h-372v-350h390v-175h-597zM221 272v164h435v-164h-435zM420 754q-54 0 -84.5 25t-30.5 71q0 42 31 69t84 27q54 0 84.5 -25t30.5 -71q0 -42 -31 -69t-84 -27z" />
    <glyph glyph-name="edotaccent" unicode="&#x117;" horiz-adv-x="724" 
d="M393 -10q-102 0 -176.5 36t-114.5 98.5t-40 143.5q0 62 23 113t64.5 88t96.5 57t119 20q65 0 119 -20t93.5 -57.5t61 -88.5t19.5 -112l-1 -43h-475l-23 102h337l-19 -26v18q-1 19 -15.5 34.5t-38.5 24.5t-54 9q-35 0 -62.5 -11.5t-43.5 -34.5t-16 -57q0 -36 20.5 -64
t59 -44.5t93.5 -16.5q47 0 76.5 9.5t50.5 22.5l90 -127q-39 -27 -79 -43.5t-80.5 -23.5t-84.5 -7zM365 632q-54 0 -84.5 25t-30.5 71q0 42 31 69t84 27q54 0 84.5 -25t30.5 -71q0 -42 -31 -69t-84 -27z" />
    <glyph glyph-name="Eogonek" unicode="&#x118;" horiz-adv-x="792" 
d="M114 0v700h579v-175h-372v-350h390v-175h-597zM221 272v164h435v-164h-435zM580 -220q-37 0 -66.5 13.5t-46 38.5t-16.5 58q0 26 12 50t35 44.5t55.5 37t72.5 27.5l31 -49q-22 -3 -40.5 -14t-29 -25.5t-10.5 -30.5q0 -11 5.5 -19t16.5 -8q10 0 16.5 5.5t13.5 17.5l80 -59
q-18 -39 -49.5 -63t-79.5 -24z" />
    <glyph glyph-name="eogonek" unicode="&#x119;" horiz-adv-x="724" 
d="M464 -209q-53 0 -85 33t-32 79q0 39 26.5 72t76.5 63t118 62l31 -59q-59 -29 -93 -52t-34 -50q0 -12 6 -18.5t14 -6.5q10 0 18 5.5t16 17.5l80 -59q-12 -20 -31 -40t-46.5 -33.5t-64.5 -13.5zM393 -10q-102 0 -176.5 36t-114.5 98.5t-40 143.5q0 62 23 113t64.5 88
t96.5 57t119 20q65 0 119 -20t93.5 -57.5t61 -88.5t19.5 -112l-1 -43h-475l-23 102h337l-19 -26v18q-1 19 -15.5 34.5t-38.5 24.5t-54 9q-35 0 -62.5 -11.5t-43.5 -34.5t-16 -57q0 -36 20.5 -64t59 -44.5t93.5 -16.5q47 0 76.5 9.5t50.5 22.5l90 -127q-39 -27 -79 -43.5
t-80.5 -23.5t-84.5 -7z" />
    <glyph glyph-name="Ecaron" unicode="&#x11a;" horiz-adv-x="792" 
d="M114 0v700h579v-175h-372v-350h390v-175h-597zM221 272v164h435v-164h-435zM369 753l-145 111l58 73l153 -76h-30l153 76l58 -73l-145 -111h-102z" />
    <glyph glyph-name="ecaron" unicode="&#x11b;" horiz-adv-x="724" 
d="M393 -10q-102 0 -176.5 36t-114.5 98.5t-40 143.5q0 62 23 113t64.5 88t96.5 57t119 20q65 0 119 -20t93.5 -57.5t61 -88.5t19.5 -112l-1 -43h-475l-23 102h337l-19 -26v18q-1 19 -15.5 34.5t-38.5 24.5t-54 9q-35 0 -62.5 -11.5t-43.5 -34.5t-16 -57q0 -36 20.5 -64
t59 -44.5t93.5 -16.5q47 0 76.5 9.5t50.5 22.5l90 -127q-39 -27 -79 -43.5t-80.5 -23.5t-84.5 -7zM314 606l-166 142l72 62l160 -96h-30l160 96l72 -62l-166 -142h-102z" />
    <glyph glyph-name="Gcircumflex" unicode="&#x11c;" horiz-adv-x="919" 
d="M467 -10q-93 0 -166 25t-124 72.5t-78 115.5t-27 152q0 80 29.5 146.5t85.5 115.5t132.5 76t170.5 27q70 0 128 -16t104 -41.5t78 -55.5l-128 -138q-22 18 -49 33t-60.5 24.5t-75.5 9.5q-41 0 -76 -13.5t-60.5 -37.5t-40 -57.5t-14.5 -72.5q0 -45 15 -79t41.5 -56.5
t62 -34t77.5 -11.5q34 0 62.5 8.5t49.5 23t32 36t12 46.5v26l28 -51h-212v151h380q1 -13 2.5 -37t2 -46.5t0.5 -29.5q0 -71 -28 -129t-78.5 -98t-120.5 -62t-155 -22zM343 753l-58 73l145 111h102l145 -111l-58 -73l-153 76h30z" />
    <glyph glyph-name="gcircumflex" unicode="&#x11d;" horiz-adv-x="829" 
d="M400 -230q-86 0 -160 20.5t-121 51.5l68 138q23 -12 49 -22.5t57.5 -17t70.5 -6.5q48 0 80 14.5t48.5 45.5t16.5 77v64l45 -4q-9 -33 -41 -59t-79.5 -41.5t-102.5 -15.5q-77 0 -135.5 32t-92 89.5t-33.5 135.5q0 81 34 142.5t93 96.5t137 35q27 0 56.5 -5.5t57.5 -15
t51 -24.5t38 -33.5t18 -41.5l-41 -9l11 118h188v-467q0 -73 -23.5 -128.5t-65.5 -93.5t-99.5 -57t-124.5 -19zM394 160q38 0 65 13t41 37.5t14 59.5t-14 60t-41 38t-65 13q-40 0 -67.5 -13t-42.5 -38t-15 -60t15 -59.5t42.5 -37.5t67.5 -13zM264 596l-72 62l166 142h102
l166 -142l-72 -62l-160 96h30z" />
    <glyph glyph-name="Gbreve" unicode="&#x11e;" horiz-adv-x="919" 
d="M467 -10q-93 0 -166 25t-124 72.5t-78 115.5t-27 152q0 80 29.5 146.5t85.5 115.5t132.5 76t170.5 27q70 0 128 -16t104 -41.5t78 -55.5l-128 -138q-22 18 -49 33t-60.5 24.5t-75.5 9.5q-41 0 -76 -13.5t-60.5 -37.5t-40 -57.5t-14.5 -72.5q0 -45 15 -79t41.5 -56.5
t62 -34t77.5 -11.5q34 0 62.5 8.5t49.5 23t32 36t12 46.5v26l28 -51h-212v151h380q1 -13 2.5 -37t2 -46.5t0.5 -29.5q0 -71 -28 -129t-78.5 -98t-120.5 -62t-155 -22zM481 762q-48 0 -88 19.5t-67 56.5t-37 88l124 12q9 -26 28 -40.5t40 -14.5t40 14.5t28 40.5l124 -12
q-10 -51 -37 -88t-66.5 -56.5t-88.5 -19.5z" />
    <glyph glyph-name="gbreve" unicode="&#x11f;" horiz-adv-x="829" 
d="M400 -230q-86 0 -160 20.5t-121 51.5l68 138q23 -12 49 -22.5t57.5 -17t70.5 -6.5q48 0 80 14.5t48.5 45.5t16.5 77v64l45 -4q-9 -33 -41 -59t-79.5 -41.5t-102.5 -15.5q-77 0 -135.5 32t-92 89.5t-33.5 135.5q0 81 34 142.5t93 96.5t137 35q27 0 56.5 -5.5t57.5 -15
t51 -24.5t38 -33.5t18 -41.5l-41 -9l11 118h188v-467q0 -73 -23.5 -128.5t-65.5 -93.5t-99.5 -57t-124.5 -19zM394 160q38 0 65 13t41 37.5t14 59.5t-14 60t-41 38t-65 13q-40 0 -67.5 -13t-42.5 -38t-15 -60t15 -59.5t42.5 -37.5t67.5 -13zM409 610q-73 0 -125 43.5
t-67 120.5l124 12q9 -26 28 -40.5t40 -14.5t40 14.5t28 40.5l124 -12q-15 -77 -67 -120.5t-125 -43.5z" />
    <glyph glyph-name="Gdotaccent" unicode="&#x120;" horiz-adv-x="919" 
d="M467 -10q-93 0 -166 25t-124 72.5t-78 115.5t-27 152q0 80 29.5 146.5t85.5 115.5t132.5 76t170.5 27q70 0 128 -16t104 -41.5t78 -55.5l-128 -138q-22 18 -49 33t-60.5 24.5t-75.5 9.5q-41 0 -76 -13.5t-60.5 -37.5t-40 -57.5t-14.5 -72.5q0 -45 15 -79t41.5 -56.5
t62 -34t77.5 -11.5q34 0 62.5 8.5t49.5 23t32 36t12 46.5v26l28 -51h-212v151h380q1 -13 2.5 -37t2 -46.5t0.5 -29.5q0 -71 -28 -129t-78.5 -98t-120.5 -62t-155 -22zM481 754q-54 0 -84.5 25t-30.5 71q0 42 31 69t84 27q54 0 84.5 -25t30.5 -71q0 -42 -31 -69t-84 -27z" />
    <glyph glyph-name="gdotaccent" unicode="&#x121;" horiz-adv-x="829" 
d="M400 -230q-86 0 -160 20.5t-121 51.5l68 138q23 -12 49 -22.5t57.5 -17t70.5 -6.5q48 0 80 14.5t48.5 45.5t16.5 77v64l45 -4q-9 -33 -41 -59t-79.5 -41.5t-102.5 -15.5q-77 0 -135.5 32t-92 89.5t-33.5 135.5q0 81 34 142.5t93 96.5t137 35q27 0 56.5 -5.5t57.5 -15
t51 -24.5t38 -33.5t18 -41.5l-41 -9l11 118h188v-467q0 -73 -23.5 -128.5t-65.5 -93.5t-99.5 -57t-124.5 -19zM394 160q38 0 65 13t41 37.5t14 59.5t-14 60t-41 38t-65 13q-40 0 -67.5 -13t-42.5 -38t-15 -60t15 -59.5t42.5 -37.5t67.5 -13zM409 632q-54 0 -84.5 25
t-30.5 71q0 42 31 69t84 27q54 0 84.5 -25t30.5 -71q0 -42 -31 -69t-84 -27z" />
    <glyph glyph-name="uni0122" unicode="&#x122;" horiz-adv-x="919" 
d="M467 -10q-93 0 -166 25t-124 72.5t-78 115.5t-27 152q0 80 29.5 146.5t85.5 115.5t132.5 76t170.5 27q70 0 128 -16t104 -41.5t78 -55.5l-128 -138q-22 18 -49 33t-60.5 24.5t-75.5 9.5q-41 0 -76 -13.5t-60.5 -37.5t-40 -57.5t-14.5 -72.5q0 -45 15 -79t41.5 -56.5
t62 -34t77.5 -11.5q34 0 62.5 8.5t49.5 23t32 36t12 46.5v26l28 -51h-212v151h380q1 -13 2.5 -37t2 -46.5t0.5 -29.5q0 -71 -28 -129t-78.5 -98t-120.5 -62t-155 -22zM402 -331l-52 64q14 5 34 14t36 21.5t16 26.5q0 10 -7.5 15t-20.5 12q-23 11 -34 26t-11 39
q0 40 26.5 58.5t65.5 18.5q49 0 83 -27t34 -85q0 -36 -11.5 -65.5t-34 -52t-54 -38.5t-70.5 -27z" />
    <glyph glyph-name="uni0123" unicode="&#x123;" horiz-adv-x="829" 
d="M400 -230q-86 0 -160 20.5t-121 51.5l68 138q23 -12 49 -22.5t57.5 -17t70.5 -6.5q48 0 80 14.5t48.5 45.5t16.5 77v64l45 -4q-9 -33 -41 -59t-79.5 -41.5t-102.5 -15.5q-77 0 -135.5 32t-92 89.5t-33.5 135.5q0 81 34 142.5t93 96.5t137 35q27 0 56.5 -5.5t57.5 -15
t51 -24.5t38 -33.5t18 -41.5l-41 -9l11 118h188v-467q0 -73 -23.5 -128.5t-65.5 -93.5t-99.5 -57t-124.5 -19zM394 160q38 0 65 13t41 37.5t14 59.5t-14 60t-41 38t-65 13q-40 0 -67.5 -13t-42.5 -38t-15 -60t15 -59.5t42.5 -37.5t67.5 -13zM410 588q-47 0 -79.5 28.5
t-32.5 88.5q0 31 11.5 57t34 48t54 40t70.5 33l52 -64q-13 -5 -33.5 -14t-36.5 -21t-16 -27q0 -10 7.5 -15t20.5 -12q23 -11 34 -26t11 -39q0 -40 -28 -58.5t-69 -18.5z" />
    <glyph glyph-name="Hcircumflex" unicode="&#x124;" horiz-adv-x="916" 
d="M587 0v700h216v-700h-216zM114 0v700h216v-700h-216zM195 253l1 188h513v-188h-514zM321 753l-58 73l145 111h102l145 -111l-58 -73l-153 76h30z" />
    <glyph glyph-name="hcircumflex" unicode="&#x125;" horiz-adv-x="817" 
d="M122 0v740h198v-329l-48 -17q10 44 42 78t79 54t101 20q68 0 115.5 -28t71.5 -77.5t24 -114.5v-326h-203v291q0 30 -10 49.5t-29.5 30.5t-45.5 10q-20 0 -37 -6t-29.5 -18t-19 -28.5t-6.5 -36.5v-292h-101h-68.5h-33.5zM271 793l-58 73l145 111h102l145 -111l-58 -73
l-153 76h30z" />
    <glyph glyph-name="Hbar" unicode="&#x126;" horiz-adv-x="966" 
d="M52 488v164h116l99 -10h420l119 10h111v-164h-115l-103 10h-442l-85 -10h-120zM613 0v700h216v-700h-216zM140 0v700h216v-700h-216zM221 253l2 188h512v-188h-514z" />
    <glyph glyph-name="hbar" unicode="&#x127;" horiz-adv-x="833" 
d="M51 568v138h424v-138h-424zM122 0v740h198v-329l-48 -17q10 44 42 78t79 54t101 20q68 0 115.5 -28t71.5 -77.5t24 -114.5v-326h-203v291q0 30 -10 49.5t-29.5 30.5t-45.5 10q-20 0 -37 -6t-29.5 -18t-19 -28.5t-6.5 -36.5v-292h-101h-68.5h-33.5z" />
    <glyph glyph-name="Itilde" unicode="&#x128;" horiz-adv-x="762" 
d="M122 0v178h151v344h-151v178h518v-178h-151v-344h151v-178h-518zM460 768q-17 0 -35 5t-44 17q-19 9 -31.5 13.5t-22.5 4.5q-15 0 -23 -10.5t-8 -28.5h-117q0 75 37 119t101 44q15 0 31 -3.5t48 -19.5q18 -9 27 -13t18 -4q13 0 19.5 11t5.5 29h116q0 -46 -15.5 -83.5
t-43 -59t-63.5 -21.5z" />
    <glyph glyph-name="itilde" unicode="&#x129;" horiz-adv-x="435" 
d="M116 0v535h203v-535h-203zM299 613q-15 0 -35.5 4.5t-49.5 23.5q-17 12 -28.5 16.5t-18.5 4.5q-15 0 -26.5 -9.5t-13.5 -30.5l-105 14q0 62 32 104.5t87 42.5q15 0 34.5 -4t47.5 -22q9 -6 22.5 -14t26.5 -8q14 0 25 10t12 30l105 -15q0 -38 -14.5 -72t-40.5 -54.5
t-60 -20.5z" />
    <glyph glyph-name="Imacron" unicode="&#x12a;" horiz-adv-x="762" 
d="M122 0v178h151v344h-151v178h518v-178h-151v-344h151v-178h-518zM191 790v120h379v-120h-379z" />
    <glyph glyph-name="imacron" unicode="&#x12b;" horiz-adv-x="435" 
d="M116 0v535h203v-535h-203zM31 638v120h374v-120h-374z" />
    <glyph glyph-name="Ibreve" unicode="&#x12c;" horiz-adv-x="762" 
d="M122 0v178h151v344h-151v178h518v-178h-151v-344h151v-178h-518zM381 762q-48 0 -88 19.5t-67 56.5t-37 88l124 12q9 -26 28 -40.5t40 -14.5t40 14.5t28 40.5l124 -12q-10 -51 -37 -88t-66.5 -56.5t-88.5 -19.5z" />
    <glyph glyph-name="ibreve" unicode="&#x12d;" horiz-adv-x="435" 
d="M116 0v535h203v-535h-203zM218 610q-73 0 -125 43.5t-67 120.5l124 12q9 -26 28 -40.5t40 -14.5t40 14.5t28 40.5l124 -12q-15 -77 -67 -120.5t-125 -43.5z" />
    <glyph glyph-name="Iogonek" unicode="&#x12e;" horiz-adv-x="762" 
d="M122 0v178h151v344h-151v178h518v-178h-151v-344h151v-178h-518zM431 -220q-37 0 -66.5 13.5t-46 38.5t-16.5 58q0 26 12 50t35 44.5t55.5 37t72.5 27.5l31 -49q-22 -3 -40.5 -14t-29 -25.5t-10.5 -30.5q0 -11 5.5 -19t16.5 -8q10 0 16.5 5.5t13.5 17.5l80 -59
q-18 -39 -49.5 -63t-79.5 -24z" />
    <glyph glyph-name="iogonek" unicode="&#x12f;" horiz-adv-x="435" 
d="M116 0v535h203v-535h-203zM218 632q-54 0 -84.5 25t-30.5 71q0 42 31 69t84 27q54 0 84.5 -25t30.5 -71q0 -42 -31 -69t-84 -27zM207 -219q-37 0 -66.5 15.5t-46 42t-16.5 59.5q0 26 10.5 48.5t32.5 41.5t55.5 34.5t79.5 27.5l44 -50q-26 -6 -48 -17t-35 -25.5t-13 -31.5
q0 -10 6 -16t17 -6q9 0 15 5.5t14 17.5l80 -59q-12 -20 -31.5 -40t-44 -33.5t-53.5 -13.5z" />
    <glyph glyph-name="Idotaccent" unicode="&#x130;" horiz-adv-x="762" 
d="M122 0v178h151v344h-151v178h518v-178h-151v-344h151v-178h-518zM381 754q-54 0 -84.5 25t-30.5 71q0 42 31 69t84 27q54 0 84.5 -25t30.5 -71q0 -42 -31 -69t-84 -27z" />
    <glyph glyph-name="dotlessi" unicode="&#x131;" horiz-adv-x="435" 
d="M116 0v535h203v-535h-203z" />
    <glyph glyph-name="IJ" unicode="&#x132;" horiz-adv-x="1540" 
d="M122 0v178h151v344h-151v178h518v-178h-151v-344h151v-178h-518zM1085 -10q-54 0 -97 12.5t-75 32t-54 44t-36 48.5l121 125q7 -11 17.5 -24.5t23.5 -24.5t30.5 -18.5t37.5 -7.5q25 0 43.5 11.5t28 31t9.5 44.5v249h-147v187h473v-187h-118v-276q0 -56 -19 -101
t-53 -78.5t-81.5 -50.5t-103.5 -17z" />
    <glyph glyph-name="ij" unicode="&#x133;" horiz-adv-x="955" 
d="M129 0v535h203v-535h-203zM231 636q-54 0 -84.5 25t-30.5 71q0 42 31 69t84 27q54 0 84.5 -25t30.5 -71q0 -42 -31 -69t-84 -27zM543 -219l-77 162q63 0 96.5 16.5t46 55.5t12.5 108v412h203v-460q0 -106 -32 -170.5t-94 -94t-155 -29.5zM723 632q-54 0 -84.5 25
t-30.5 71q0 42 31 69t84 27q54 0 84.5 -25t30.5 -71q0 -42 -31 -69t-84 -27z" />
    <glyph glyph-name="Jcircumflex" unicode="&#x134;" horiz-adv-x="778" 
d="M323 -10q-54 0 -97 12.5t-75 32t-54 44t-36 48.5l121 125q7 -11 17.5 -24.5t23.5 -24.5t30.5 -18.5t37.5 -7.5q25 0 43.5 11.5t28 31t9.5 44.5v249h-147v187h473v-187h-118v-276q0 -56 -19 -101t-53 -78.5t-81.5 -50.5t-103.5 -17zM337 753l-58 73l145 111h102l145 -111
l-58 -73l-153 76h30z" />
    <glyph glyph-name="jcircumflex" unicode="&#x135;" horiz-adv-x="451" 
d="M65 -219l-77 162q63 0 96.5 16.5t46 55.5t12.5 108v412h203v-460q0 -106 -32 -170.5t-94 -94t-155 -29.5zM102 596l-72 62l166 142h102l166 -142l-72 -62l-160 96h30z" />
    <glyph glyph-name="uni0136" unicode="&#x136;" horiz-adv-x="880" 
d="M258 184l-70 161l392 355h253zM114 0v700h216v-700h-216zM605 0l-270 339l135 128l384 -467h-249zM377 -331l-52 64q14 5 34 14t36 21.5t16 26.5q0 10 -7.5 15t-20.5 12q-23 11 -34 26t-11 39q0 40 26.5 58.5t65.5 18.5q49 0 83 -27t34 -85q0 -36 -11.5 -65.5t-34 -52
t-54 -38.5t-70.5 -27z" />
    <glyph glyph-name="uni0137" unicode="&#x137;" horiz-adv-x="815" 
d="M314 138l-93 126l294 271h266zM122 0v740h199v-740h-199zM534 0l-208 275l140 102l300 -377h-232zM352 -331l-52 64q14 5 34 14t36 21t16 27q0 10 -7.5 15t-20.5 12q-23 11 -34 26t-11 39q0 40 28 58.5t69 18.5q47 0 79.5 -28.5t32.5 -88.5q0 -31 -11.5 -57t-34 -48
t-54 -40t-70.5 -33z" />
    <glyph glyph-name="kgreenlandic" unicode="&#x138;" horiz-adv-x="816" 
d="M322 116l-98 124l291 295h276zM122 0v535h206v-535h-206zM541 0l-196 255l144 102l286 -357h-234z" />
    <glyph glyph-name="Lacute" unicode="&#x139;" horiz-adv-x="736" 
d="M114 0v700h216v-516h356v-184h-572zM120 742l-43 102l228 116l60 -137z" />
    <glyph glyph-name="lacute" unicode="&#x13a;" horiz-adv-x="452" 
d="M124 0v740h203v-740h-203zM122 782l-43 102l228 116l60 -137z" />
    <glyph glyph-name="uni013B" unicode="&#x13b;" horiz-adv-x="736" 
d="M114 0v700h216v-516h356v-184h-572zM311 -331l-52 64q14 5 34 14t36 21.5t16 26.5q0 10 -7.5 15t-20.5 12q-23 11 -34 26t-11 39q0 40 26.5 58.5t65.5 18.5q49 0 83 -27t34 -85q0 -36 -11.5 -65.5t-34 -52t-54 -38.5t-70.5 -27z" />
    <glyph glyph-name="uni013C" unicode="&#x13c;" horiz-adv-x="452" 
d="M124 0v740h203v-740h-203zM167 -331l-52 64q14 5 34 14t36 21t16 27q0 10 -7.5 15t-20.5 12q-23 11 -34 26t-11 39q0 40 28 58.5t69 18.5q47 0 79.5 -28.5t32.5 -88.5q0 -31 -11.5 -57t-34 -48t-54 -40t-70.5 -33z" />
    <glyph glyph-name="Lcaron" unicode="&#x13d;" horiz-adv-x="736" 
d="M114 0v700h216v-516h356v-184h-572zM505 405l-52 64q14 5 34 14t36 21.5t16 26.5q0 10 -7.5 15t-20.5 12q-23 11 -34 26t-11 39q0 40 26.5 58.5t65.5 18.5q49 0 83 -27t34 -85q0 -36 -11.5 -65.5t-34 -52t-54 -38.5t-70.5 -27z" />
    <glyph glyph-name="lcaron" unicode="&#x13e;" horiz-adv-x="595" 
d="M124 0v740h203v-740h-203zM457 445l-52 64q14 5 34 14t36 21.5t16 26.5q0 10 -7.5 15t-20.5 12q-23 11 -34 26t-11 39q0 40 26.5 58.5t65.5 18.5q49 0 83 -27t34 -85q0 -36 -11.5 -65.5t-34 -52t-54 -38.5t-70.5 -27z" />
    <glyph glyph-name="Ldot" unicode="&#x13f;" horiz-adv-x="736" 
d="M114 0v700h216v-516h356v-184h-572zM564 299q-55 0 -84 26.5t-29 73.5q0 42 30 71t83 29q55 0 84 -26.5t29 -73.5q0 -42 -30 -71t-83 -29z" />
    <glyph glyph-name="ldot" unicode="&#x140;" horiz-adv-x="576" 
d="M124 0v740h203v-740h-203zM513 299q-55 0 -84 26.5t-29 73.5q0 42 30 71t83 29q55 0 84 -26.5t29 -73.5q0 -42 -30 -71t-83 -29z" />
    <glyph glyph-name="Lslash" unicode="&#x141;" horiz-adv-x="732" 
d="M18 212l-62 171l515 212l62 -171zM110 0v700h216v-516h356v-184h-572z" />
    <glyph glyph-name="lslash" unicode="&#x142;" horiz-adv-x="577" 
d="M87 225l-59 169l466 174l59 -169zM190 0v740h203v-740h-203z" />
    <glyph glyph-name="Nacute" unicode="&#x143;" horiz-adv-x="948" 
d="M114 0v700h197l378 -445l-42 14q-6 42 -9.5 74t-6 58.5t-3.5 51.5t-1 53v64v130h208v-700h-199l-411 490l77 -24q3 -27 6.5 -49.5t6 -44t4 -46.5t2.5 -58t1 -77v-191h-208zM371 742l-43 102l228 116l60 -137z" />
    <glyph glyph-name="nacute" unicode="&#x144;" horiz-adv-x="817" 
d="M122 0v535h188l10 -124l-47 -13q11 41 42 74.5t77.5 53.5t101.5 20q67 0 114.5 -27.5t72 -77t24.5 -117.5v-324h-203v293q0 28 -10 47t-29.5 30t-45.5 11q-23 0 -40 -7.5t-28.5 -19.5t-17.5 -27t-6 -30v-297h-101h-68.5h-33.5zM354 576l-58 89l206 154l80 -121z" />
    <glyph glyph-name="uni0145" unicode="&#x145;" horiz-adv-x="948" 
d="M114 0v700h197l378 -445l-42 14q-6 42 -9.5 74t-6 58.5t-3.5 51.5t-1 53v64v130h208v-700h-199l-411 490l77 -24q3 -27 6.5 -49.5t6 -44t4 -46.5t2.5 -58t1 -77v-191h-208zM416 -331l-52 64q14 5 34 14t36 21.5t16 26.5q0 10 -7.5 15t-20.5 12q-23 11 -34 26t-11 39
q0 40 26.5 58.5t65.5 18.5q49 0 83 -27t34 -85q0 -36 -11.5 -65.5t-34 -52t-54 -38.5t-70.5 -27z" />
    <glyph glyph-name="uni0146" unicode="&#x146;" horiz-adv-x="817" 
d="M122 0v535h188l10 -124l-47 -13q11 41 42 74.5t77.5 53.5t101.5 20q67 0 114.5 -27.5t72 -77t24.5 -117.5v-324h-203v293q0 28 -10 47t-29.5 30t-45.5 11q-23 0 -40 -7.5t-28.5 -19.5t-17.5 -27t-6 -30v-297h-101h-68.5h-33.5zM350 -331l-52 64q14 5 34 14t36 21t16 27
q0 10 -7.5 15t-20.5 12q-23 11 -34 26t-11 39q0 40 28 58.5t69 18.5q47 0 79.5 -28.5t32.5 -88.5q0 -31 -11.5 -57t-34 -48t-54 -40t-70.5 -33z" />
    <glyph glyph-name="Ncaron" unicode="&#x147;" horiz-adv-x="948" 
d="M114 0v700h197l378 -445l-42 14q-6 42 -9.5 74t-6 58.5t-3.5 51.5t-1 53v64v130h208v-700h-199l-411 490l77 -24q3 -27 6.5 -49.5t6 -44t4 -46.5t2.5 -58t1 -77v-191h-208zM424 753l-145 111l58 73l153 -76h-30l153 76l58 -73l-145 -111h-102z" />
    <glyph glyph-name="ncaron" unicode="&#x148;" horiz-adv-x="817" 
d="M122 0v535h188l10 -124l-47 -13q11 41 42 74.5t77.5 53.5t101.5 20q67 0 114.5 -27.5t72 -77t24.5 -117.5v-324h-203v293q0 28 -10 47t-29.5 30t-45.5 11q-23 0 -40 -7.5t-28.5 -19.5t-17.5 -27t-6 -30v-297h-101h-68.5h-33.5zM388 606l-166 142l72 62l160 -96h-30
l160 96l72 -62l-166 -142h-102z" />
    <glyph glyph-name="napostrophe" unicode="&#x149;" horiz-adv-x="847" 
d="M-91 424l14 276h202l-86 -276h-130zM152 0v535h188l10 -124l-47 -13q11 41 42 74.5t77.5 53.5t101.5 20q67 0 114.5 -27.5t72 -77t24.5 -117.5v-324h-203v293q0 28 -10 47t-29.5 30t-45.5 11q-23 0 -40 -7.5t-28.5 -19.5t-17.5 -27t-6 -30v-297h-101h-68.5h-33.5z" />
    <glyph glyph-name="Eng" unicode="&#x14a;" horiz-adv-x="948" 
d="M546 -207l-88 168q27 0 57.5 4t57 12t43.5 18.5t17 24.5v27l6 -50l-338 387l11 6q1 -13 2.5 -28.5t3 -32t2.5 -33.5t1.5 -33t0.5 -29v-234h-208v700h197l343 -396l-10 -6q-7 51 -10.5 87t-5.5 64t-1.5 56.5t0.5 64.5v130h208v-648q0 -92 -35.5 -149.5t-100 -83.5
t-153.5 -26z" />
    <glyph glyph-name="eng" unicode="&#x14b;" horiz-adv-x="817" 
d="M422 -207l-76 164q84 0 119.5 27t36.5 78v231q0 28 -10 47t-29.5 30t-45.5 11q-23 0 -40 -7.5t-28.5 -19.5t-17.5 -27t-6 -30v-297h-203v535h188l5 -62q20 22 48 38.5t60.5 25.5t70.5 9q67 0 114.5 -27.5t72 -77t24.5 -117.5v-324q0 -74 -32.5 -119.5t-95.5 -66.5
t-155 -21z" />
    <glyph glyph-name="Omacron" unicode="&#x14c;" horiz-adv-x="962" 
d="M482 -10q-91 0 -165.5 27t-130 76.5t-85 116t-29.5 145.5t29.5 145.5t85 116t130 76.5t164.5 27t164.5 -27t129.5 -76.5t85 -116t30 -144.5q0 -79 -30 -146t-85 -116.5t-129.5 -76.5t-163.5 -27zM481 190q41 0 75.5 12t60.5 34.5t39.5 52.5t13.5 66t-13.5 66t-39.5 52.5
t-60.5 34.5t-75.5 12t-75.5 -12t-60.5 -35t-39.5 -53t-13.5 -65q0 -36 13.5 -65.5t39.5 -52.5t60.5 -35t75.5 -12zM291 790v120h379v-120h-379z" />
    <glyph glyph-name="omacron" unicode="&#x14d;" horiz-adv-x="804" 
d="M403 -10q-97 0 -172 36t-118 98.5t-43 143.5t43 143.5t118 98.5t172 36t171.5 -36t117 -98.5t42.5 -143.5t-42.5 -143.5t-117 -98.5t-171.5 -36zM403 160q35 0 63.5 14t45.5 38.5t17 55.5q0 32 -17 57t-45.5 38.5t-63.5 13.5t-65 -14t-46.5 -38t-16.5 -57
q0 -31 16.5 -55.5t46.5 -38.5t65 -14zM215 638v120h374v-120h-374z" />
    <glyph glyph-name="Obreve" unicode="&#x14e;" horiz-adv-x="962" 
d="M482 -10q-91 0 -165.5 27t-130 76.5t-85 116t-29.5 145.5t29.5 145.5t85 116t130 76.5t164.5 27t164.5 -27t129.5 -76.5t85 -116t30 -144.5q0 -79 -30 -146t-85 -116.5t-129.5 -76.5t-163.5 -27zM481 190q41 0 75.5 12t60.5 34.5t39.5 52.5t13.5 66t-13.5 66t-39.5 52.5
t-60.5 34.5t-75.5 12t-75.5 -12t-60.5 -35t-39.5 -53t-13.5 -65q0 -36 13.5 -65.5t39.5 -52.5t60.5 -35t75.5 -12zM481 762q-48 0 -88 19.5t-67 56.5t-37 88l124 12q9 -26 28 -40.5t40 -14.5t40 14.5t28 40.5l124 -12q-10 -51 -37 -88t-66.5 -56.5t-88.5 -19.5z" />
    <glyph glyph-name="obreve" unicode="&#x14f;" horiz-adv-x="804" 
d="M403 -10q-97 0 -172 36t-118 98.5t-43 143.5t43 143.5t118 98.5t172 36t171.5 -36t117 -98.5t42.5 -143.5t-42.5 -143.5t-117 -98.5t-171.5 -36zM403 160q35 0 63.5 14t45.5 38.5t17 55.5q0 32 -17 57t-45.5 38.5t-63.5 13.5t-65 -14t-46.5 -38t-16.5 -57
q0 -31 16.5 -55.5t46.5 -38.5t65 -14zM402 610q-73 0 -125 43.5t-67 120.5l124 12q9 -26 28 -40.5t40 -14.5t40 14.5t28 40.5l124 -12q-15 -77 -67 -120.5t-125 -43.5z" />
    <glyph glyph-name="Ohungarumlaut" unicode="&#x150;" horiz-adv-x="962" 
d="M482 -10q-91 0 -165.5 27t-130 76.5t-85 116t-29.5 145.5t29.5 145.5t85 116t130 76.5t164.5 27t164.5 -27t129.5 -76.5t85 -116t30 -144.5q0 -79 -30 -146t-85 -116.5t-129.5 -76.5t-163.5 -27zM481 190q41 0 75.5 12t60.5 34.5t39.5 52.5t13.5 66t-13.5 66t-39.5 52.5
t-60.5 34.5t-75.5 12t-75.5 -12t-60.5 -35t-39.5 -53t-13.5 -65q0 -36 13.5 -65.5t39.5 -52.5t60.5 -35t75.5 -12zM350 756l-61 85l165 148l81 -115zM589 752l-58 89l176 144l80 -121z" />
    <glyph glyph-name="ohungarumlaut" unicode="&#x151;" horiz-adv-x="804" 
d="M403 -10q-97 0 -172 36t-118 98.5t-43 143.5t43 143.5t118 98.5t172 36t171.5 -36t117 -98.5t42.5 -143.5t-42.5 -143.5t-117 -98.5t-171.5 -36zM403 160q35 0 63.5 14t45.5 38.5t17 55.5q0 32 -17 57t-45.5 38.5t-63.5 13.5t-65 -14t-46.5 -38t-16.5 -57
q0 -31 16.5 -55.5t46.5 -38.5t65 -14zM462 578l-86 51l159 202l109 -96zM252 573l-92 45l141 214l117 -86z" />
    <glyph glyph-name="OE" unicode="&#x152;" horiz-adv-x="1295" 
d="M435 0q-86 0 -153.5 26t-114 73t-71 111t-24.5 140q0 75 26 138.5t75.5 111.5t120.5 74t161 26h759v-175h-389v-84h334v-164h-334v-102h389v-175h-779zM290 350q0 -35 11.5 -65.5t34 -53t55 -35t76.5 -12.5h151v332h-151q-43 0 -76 -12.5t-55.5 -35.5t-34 -53t-11.5 -65z
" />
    <glyph glyph-name="oe" unicode="&#x153;" horiz-adv-x="1202" 
d="M403 -10q-97 0 -172 36t-118 98.5t-43 143.5t43 143.5t118 98.5t172 36q53 0 99.5 -10.5t84.5 -32t66 -51.5l-33 -1q24 32 58 53t77 31.5t90 10.5q64 0 118 -20t93 -57.5t60.5 -88.5t19.5 -112l-1 -43h-420l-9 102h294l-45 -38v24q0 24 -13 40t-37 25t-57 9q-32 0 -56 -8
t-38.5 -22t-21.5 -32.5t-7 -38.5q0 -39 17.5 -67.5t53.5 -44t91 -15.5q46 0 78.5 8.5t59.5 23.5l90 -127q-40 -27 -79.5 -43.5t-80.5 -23.5t-84 -7q-56 0 -103.5 11.5t-86 33.5t-67.5 54h32q-24 -32 -60 -54.5t-83 -33.5t-100 -11zM403 160q34 0 62.5 13t45.5 37t18 57
q0 33 -16.5 57.5t-45.5 38.5t-64 14q-36 0 -64.5 -14t-46 -38t-17.5 -57q0 -31 17.5 -55.5t46 -38.5t64.5 -14z" />
    <glyph glyph-name="Racute" unicode="&#x154;" horiz-adv-x="833" 
d="M114 0v700h358q84 0 144 -28t91.5 -78.5t31.5 -119.5q0 -72 -33.5 -126.5t-93 -85.5t-134.5 -31h-162v-231h-202zM531 0l-202 316l223 25l222 -341h-243zM316 381h131q25 0 42.5 9t27.5 26t10 42q0 23 -10 39t-28.5 24.5t-45.5 8.5h-127v-149zM300 742l-43 102l228 116
l60 -137z" />
    <glyph glyph-name="racute" unicode="&#x155;" horiz-adv-x="637" 
d="M122 0v535h188l12 -188l-53 14q14 52 47 94t78 66.5t96 24.5q26 0 50 -4.5t43 -12.5l-56 -223q-14 11 -42.5 18.5t-59.5 7.5q-25 0 -44 -7.5t-31.5 -21t-18.5 -30.5t-6 -37v-236h-203zM276 571l-58 89l206 154l80 -121z" />
    <glyph glyph-name="uni0156" unicode="&#x156;" horiz-adv-x="833" 
d="M114 0v700h358q84 0 144 -28t91.5 -78.5t31.5 -119.5q0 -72 -33.5 -126.5t-93 -85.5t-134.5 -31h-162v-231h-202zM531 0l-202 316l223 25l222 -341h-243zM316 381h131q25 0 42.5 9t27.5 26t10 42q0 23 -10 39t-28.5 24.5t-45.5 8.5h-127v-149zM355 -331l-52 64
q14 5 34 14t36 21.5t16 26.5q0 10 -7.5 15t-20.5 12q-23 11 -34 26t-11 39q0 40 26.5 58.5t65.5 18.5q49 0 83 -27t34 -85q0 -36 -11.5 -65.5t-34 -52t-54 -38.5t-70.5 -27z" />
    <glyph glyph-name="uni0157" unicode="&#x157;" horiz-adv-x="637" 
d="M122 0v535h188l12 -188l-53 14q14 52 47 94t78 66.5t96 24.5q26 0 50 -4.5t43 -12.5l-56 -223q-14 11 -42.5 18.5t-59.5 7.5q-25 0 -44 -7.5t-31.5 -21t-18.5 -30.5t-6 -37v-236h-203zM157 -331l-52 64q14 5 34 14t36 21t16 27q0 10 -7.5 15t-20.5 12q-23 11 -34 26
t-11 39q0 40 28 58.5t69 18.5q47 0 79.5 -28.5t32.5 -88.5q0 -31 -11.5 -57t-34 -48t-54 -40t-70.5 -33z" />
    <glyph glyph-name="Rcaron" unicode="&#x158;" horiz-adv-x="833" 
d="M114 0v700h358q84 0 144 -28t91.5 -78.5t31.5 -119.5q0 -72 -33.5 -126.5t-93 -85.5t-134.5 -31h-162v-231h-202zM531 0l-202 316l223 25l222 -341h-243zM316 381h131q25 0 42.5 9t27.5 26t10 42q0 23 -10 39t-28.5 24.5t-45.5 8.5h-127v-149zM353 753l-145 111l58 73
l153 -76h-30l153 76l58 -73l-145 -111h-102z" />
    <glyph glyph-name="rcaron" unicode="&#x159;" horiz-adv-x="637" 
d="M122 0v535h188l12 -188l-53 14q14 52 47 94t78 66.5t96 24.5q26 0 50 -4.5t43 -12.5l-56 -223q-14 11 -42.5 18.5t-59.5 7.5q-25 0 -44 -7.5t-31.5 -21t-18.5 -30.5t-6 -37v-236h-203zM310 601l-166 142l72 62l160 -96h-30l160 96l72 -62l-166 -142h-102z" />
    <glyph glyph-name="Sacute" unicode="&#x15a;" horiz-adv-x="767" 
d="M393 -10q-85 0 -152 16.5t-118.5 45.5t-93.5 65l109 152q68 -59 138.5 -80.5t127.5 -21.5q19 0 39 2.5t32.5 11.5t12.5 27q0 12 -8 20.5t-22.5 14t-33.5 9.5t-40 7t-45 6q-65 10 -115.5 28.5t-85 46.5t-52.5 65t-18 84q0 53 25.5 96t70 73t101.5 46t120 16
q80 0 136.5 -14t97 -38t68.5 -53l-111 -131q-26 19 -58 31.5t-65.5 19t-64.5 6.5q-29 0 -50.5 -3.5t-34 -12t-12.5 -23.5q0 -14 14.5 -22.5t36.5 -14t44.5 -8t37.5 -4.5q57 -8 108.5 -22t91.5 -38t62.5 -64.5t22.5 -101.5q0 -77 -42.5 -130t-114 -80t-159.5 -27zM292 742
l-43 102l228 116l60 -137z" />
    <glyph glyph-name="sacute" unicode="&#x15b;" horiz-adv-x="654" 
d="M337 -10q-97 0 -171 26.5t-117 70.5l118 103q33 -29 83 -45t100 -16q13 0 24.5 2t19 5.5t12 8.5t4.5 12q0 12 -17 19q-15 5 -41.5 10t-57.5 11q-52 9 -92.5 22t-69.5 33q-28 22 -44 51.5t-16 68.5q0 41 21 73.5t58 54.5t84 34t97 12q53 0 101.5 -9t92.5 -26t79 -43
l-101 -117q-21 14 -50.5 27.5t-64 22.5t-68.5 9q-13 0 -23.5 -1.5t-17.5 -5t-11 -8t-4 -10.5q-1 -7 3.5 -12.5t12.5 -9.5q13 -7 39.5 -12.5t68.5 -14.5q68 -14 113 -32t71 -42q18 -16 27 -38.5t9 -48.5q0 -53 -34.5 -94.5t-95 -66t-142.5 -24.5zM249 576l-58 89l206 154
l80 -121z" />
    <glyph glyph-name="Scircumflex" unicode="&#x15c;" horiz-adv-x="767" 
d="M393 -10q-85 0 -152 16.5t-118.5 45.5t-93.5 65l109 152q68 -59 138.5 -80.5t127.5 -21.5q19 0 39 2.5t32.5 11.5t12.5 27q0 12 -8 20.5t-22.5 14t-33.5 9.5t-40 7t-45 6q-65 10 -115.5 28.5t-85 46.5t-52.5 65t-18 84q0 53 25.5 96t70 73t101.5 46t120 16
q80 0 136.5 -14t97 -38t68.5 -53l-111 -131q-26 19 -58 31.5t-65.5 19t-64.5 6.5q-29 0 -50.5 -3.5t-34 -12t-12.5 -23.5q0 -14 14.5 -22.5t36.5 -14t44.5 -8t37.5 -4.5q57 -8 108.5 -22t91.5 -38t62.5 -64.5t22.5 -101.5q0 -77 -42.5 -130t-114 -80t-159.5 -27zM258 753
l-58 73l145 111h102l145 -111l-58 -73l-153 76h30z" />
    <glyph glyph-name="scircumflex" unicode="&#x15d;" horiz-adv-x="654" 
d="M337 -10q-97 0 -171 26.5t-117 70.5l118 103q33 -29 83 -45t100 -16q13 0 24.5 2t19 5.5t12 8.5t4.5 12q0 12 -17 19q-15 5 -41.5 10t-57.5 11q-52 9 -92.5 22t-69.5 33q-28 22 -44 51.5t-16 68.5q0 41 21 73.5t58 54.5t84 34t97 12q53 0 101.5 -9t92.5 -26t79 -43
l-101 -117q-21 14 -50.5 27.5t-64 22.5t-68.5 9q-13 0 -23.5 -1.5t-17.5 -5t-11 -8t-4 -10.5q-1 -7 3.5 -12.5t12.5 -9.5q13 -7 39.5 -12.5t68.5 -14.5q68 -14 113 -32t71 -42q18 -16 27 -38.5t9 -48.5q0 -53 -34.5 -94.5t-95 -66t-142.5 -24.5zM189 596l-72 62l166 142h102
l166 -142l-72 -62l-160 96h30z" />
    <glyph glyph-name="Scedilla" unicode="&#x15e;" horiz-adv-x="767" 
d="M393 -10q-85 0 -152 16.5t-118.5 45.5t-93.5 65l109 152q68 -59 138.5 -80.5t127.5 -21.5q19 0 39 2.5t32.5 11.5t12.5 27q0 12 -8 20.5t-22.5 14t-33.5 9.5t-40 7t-45 6q-65 10 -115.5 28.5t-85 46.5t-52.5 65t-18 84q0 53 25.5 96t70 73t101.5 46t120 16
q80 0 136.5 -14t97 -38t68.5 -53l-111 -131q-26 19 -58 31.5t-65.5 19t-64.5 6.5q-29 0 -50.5 -3.5t-34 -12t-12.5 -23.5q0 -14 14.5 -22.5t36.5 -14t44.5 -8t37.5 -4.5q57 -8 108.5 -22t91.5 -38t62.5 -64.5t22.5 -101.5q0 -77 -42.5 -130t-114 -80t-159.5 -27zM309 -247
l-11 91q18 0 38 3t34 10t14 18q0 10 -7.5 16.5t-20 9.5t-29.5 3l-21 16l67 104h99l-48 -64q54 -4 79.5 -32.5t25.5 -66.5q0 -34 -20.5 -55.5t-54 -33.5t-71.5 -16t-74 -3z" />
    <glyph glyph-name="scedilla" unicode="&#x15f;" horiz-adv-x="654" 
d="M337 -10q-97 0 -171 26.5t-117 70.5l118 103q33 -29 83 -45t100 -16q13 0 24.5 2t19 5.5t12 8.5t4.5 12q0 12 -17 19q-15 5 -41.5 10t-57.5 11q-52 9 -92.5 22t-69.5 33q-28 22 -44 51.5t-16 68.5q0 41 21 73.5t58 54.5t84 34t97 12q53 0 101.5 -9t92.5 -26t79 -43
l-101 -117q-21 14 -50.5 27.5t-64 22.5t-68.5 9q-13 0 -23.5 -1.5t-17.5 -5t-11 -8t-4 -10.5q-1 -7 3.5 -12.5t12.5 -9.5q13 -7 39.5 -12.5t68.5 -14.5q68 -14 113 -32t71 -42q18 -16 27 -38.5t9 -48.5q0 -53 -34.5 -94.5t-95 -66t-142.5 -24.5zM233 -247l-11 91q18 0 38 3
t34 10t14 18q0 10 -7.5 16.5t-20 9.5t-29.5 3l-21 16l67 104h99l-48 -64q54 -4 79.5 -32.5t25.5 -66.5q0 -34 -20.5 -55.5t-54 -33.5t-71.5 -16t-74 -3z" />
    <glyph glyph-name="Scaron" unicode="&#x160;" horiz-adv-x="767" 
d="M393 -10q-85 0 -152 16.5t-118.5 45.5t-93.5 65l109 152q68 -59 138.5 -80.5t127.5 -21.5q19 0 39 2.5t32.5 11.5t12.5 27q0 12 -8 20.5t-22.5 14t-33.5 9.5t-40 7t-45 6q-65 10 -115.5 28.5t-85 46.5t-52.5 65t-18 84q0 53 25.5 96t70 73t101.5 46t120 16
q80 0 136.5 -14t97 -38t68.5 -53l-111 -131q-26 19 -58 31.5t-65.5 19t-64.5 6.5q-29 0 -50.5 -3.5t-34 -12t-12.5 -23.5q0 -14 14.5 -22.5t36.5 -14t44.5 -8t37.5 -4.5q57 -8 108.5 -22t91.5 -38t62.5 -64.5t22.5 -101.5q0 -77 -42.5 -130t-114 -80t-159.5 -27zM345 753
l-145 111l58 73l153 -76h-30l153 76l58 -73l-145 -111h-102z" />
    <glyph glyph-name="scaron" unicode="&#x161;" horiz-adv-x="654" 
d="M337 -10q-97 0 -171 26.5t-117 70.5l118 103q33 -29 83 -45t100 -16q13 0 24.5 2t19 5.5t12 8.5t4.5 12q0 12 -17 19q-15 5 -41.5 10t-57.5 11q-52 9 -92.5 22t-69.5 33q-28 22 -44 51.5t-16 68.5q0 41 21 73.5t58 54.5t84 34t97 12q53 0 101.5 -9t92.5 -26t79 -43
l-101 -117q-21 14 -50.5 27.5t-64 22.5t-68.5 9q-13 0 -23.5 -1.5t-17.5 -5t-11 -8t-4 -10.5q-1 -7 3.5 -12.5t12.5 -9.5q13 -7 39.5 -12.5t68.5 -14.5q68 -14 113 -32t71 -42q18 -16 27 -38.5t9 -48.5q0 -53 -34.5 -94.5t-95 -66t-142.5 -24.5zM283 606l-166 142l72 62
l160 -96h-30l160 96l72 -62l-166 -142h-102z" />
    <glyph glyph-name="uni0162" unicode="&#x162;" horiz-adv-x="822" 
d="M300 0v516h-244v184h710v-184h-250v-516h-216zM306 -247l-11 91q18 0 38 3t34 10t14 18q0 10 -7.5 16.5t-20 9.5t-29.5 3l-21 16l67 104h99l-48 -64q54 -4 79.5 -32.5t25.5 -66.5q0 -34 -20.5 -55.5t-54 -33.5t-71.5 -16t-74 -3z" />
    <glyph glyph-name="uni0163" unicode="&#x163;" horiz-adv-x="555" 
d="M161 0v682h203v-682h-203zM54 365v170h430v-170h-430zM167 -247l-11 91q18 0 38 3t34 10t14 18q0 10 -7.5 16.5t-20 9.5t-29.5 3l-21 16l67 104h99l-48 -64q54 -4 79.5 -32.5t25.5 -66.5q0 -34 -20.5 -55.5t-54 -33.5t-71.5 -16t-74 -3z" />
    <glyph glyph-name="Tcaron" unicode="&#x164;" horiz-adv-x="822" 
d="M300 0v516h-244v184h710v-184h-250v-516h-216zM360 753l-145 111l58 73l153 -76h-30l153 76l58 -73l-145 -111h-102z" />
    <glyph glyph-name="tcaron" unicode="&#x165;" horiz-adv-x="555" 
d="M161 0v682h203v-682h-203zM54 365v170h430v-170h-430zM444 565l-52 64q14 5 34 14t36 21.5t16 26.5q0 10 -7.5 15t-20.5 12q-23 11 -34 26t-11 39q0 40 26.5 58.5t65.5 18.5q49 0 83 -27t34 -85q0 -36 -11.5 -65.5t-34 -52t-54 -38.5t-70.5 -27z" />
    <glyph glyph-name="Tbar" unicode="&#x166;" horiz-adv-x="822" 
d="M206 281v139h424v-139h-424zM300 0v516h-244v184h710v-184h-250v-516h-216z" />
    <glyph glyph-name="tbar" unicode="&#x167;" horiz-adv-x="555" 
d="M58 179v138h424v-138h-424zM161 0v682h203v-682h-203zM54 365v170h430v-170h-430z" />
    <glyph glyph-name="Utilde" unicode="&#x168;" horiz-adv-x="906" 
d="M453 -6q-101 0 -177.5 39t-119.5 107t-43 155v405h218v-398q0 -36 15.5 -64t43 -44t63.5 -16q38 0 66 16t44.5 44t16.5 64v398h213v-405q0 -87 -43 -155t-119.5 -107t-177.5 -39zM532 768q-17 0 -35 5t-44 17q-19 9 -31.5 13.5t-22.5 4.5q-15 0 -23 -10.5t-8 -28.5h-117
q0 75 37 119t101 44q15 0 31 -3.5t48 -19.5q18 -9 27 -13t18 -4q13 0 19.5 11t5.5 29h116q0 -46 -15.5 -83.5t-43 -59t-63.5 -21.5z" />
    <glyph glyph-name="utilde" unicode="&#x169;" horiz-adv-x="820" 
d="M321 -11q-66 0 -112.5 27.5t-71.5 81.5t-25 131v306h203v-285q0 -31 8.5 -51t27.5 -30t47 -10q20 0 37.5 6t30.5 18t20.5 27.5t7.5 34.5v290h203v-535h-186l-12 108l38 12q-11 -35 -41.5 -65t-75 -48t-99.5 -18zM492 613q-15 0 -35.5 4.5t-49.5 23.5q-17 12 -28.5 16.5
t-18.5 4.5q-15 0 -26.5 -9.5t-13.5 -30.5l-105 14q0 62 32 104.5t87 42.5q15 0 34.5 -4t47.5 -22q9 -6 22.5 -14t26.5 -8q14 0 25 10t12 30l105 -15q0 -38 -14.5 -72t-40.5 -54.5t-60 -20.5z" />
    <glyph glyph-name="Umacron" unicode="&#x16a;" horiz-adv-x="906" 
d="M453 -6q-101 0 -177.5 39t-119.5 107t-43 155v405h218v-398q0 -36 15.5 -64t43 -44t63.5 -16q38 0 66 16t44.5 44t16.5 64v398h213v-405q0 -87 -43 -155t-119.5 -107t-177.5 -39zM263 790v120h379v-120h-379z" />
    <glyph glyph-name="umacron" unicode="&#x16b;" horiz-adv-x="820" 
d="M321 -11q-66 0 -112.5 27.5t-71.5 81.5t-25 131v306h203v-285q0 -31 8.5 -51t27.5 -30t47 -10q20 0 37.5 6t30.5 18t20.5 27.5t7.5 34.5v290h203v-535h-186l-12 108l38 12q-11 -35 -41.5 -65t-75 -48t-99.5 -18zM224 638v120h374v-120h-374z" />
    <glyph glyph-name="Ubreve" unicode="&#x16c;" horiz-adv-x="906" 
d="M453 -6q-101 0 -177.5 39t-119.5 107t-43 155v405h218v-398q0 -36 15.5 -64t43 -44t63.5 -16q38 0 66 16t44.5 44t16.5 64v398h213v-405q0 -87 -43 -155t-119.5 -107t-177.5 -39zM453 762q-48 0 -88 19.5t-67 56.5t-37 88l124 12q9 -26 28 -40.5t40 -14.5t40 14.5
t28 40.5l124 -12q-10 -51 -37 -88t-66.5 -56.5t-88.5 -19.5z" />
    <glyph glyph-name="ubreve" unicode="&#x16d;" horiz-adv-x="820" 
d="M321 -11q-66 0 -112.5 27.5t-71.5 81.5t-25 131v306h203v-285q0 -31 8.5 -51t27.5 -30t47 -10q20 0 37.5 6t30.5 18t20.5 27.5t7.5 34.5v290h203v-535h-186l-12 108l38 12q-11 -35 -41.5 -65t-75 -48t-99.5 -18zM411 610q-73 0 -125 43.5t-67 120.5l124 12
q9 -26 28 -40.5t40 -14.5t40 14.5t28 40.5l124 -12q-15 -77 -67 -120.5t-125 -43.5z" />
    <glyph glyph-name="Uring" unicode="&#x16e;" horiz-adv-x="906" 
d="M453 -6q-101 0 -177.5 39t-119.5 107t-43 155v405h218v-398q0 -36 15.5 -64t43 -44t63.5 -16q38 0 66 16t44.5 44t16.5 64v398h213v-405q0 -87 -43 -155t-119.5 -107t-177.5 -39zM453 669q-40 0 -74 19t-55 49.5t-21 66.5q0 40 20.5 73t54.5 53t75 20q40 0 74 -20
t54.5 -53t20.5 -73q0 -36 -20.5 -66.5t-54.5 -49.5t-74 -19zM453 768q14 0 24.5 10.5t10.5 25.5q0 16 -10.5 26.5t-24.5 10.5t-24.5 -10.5t-10.5 -26.5q0 -15 10.5 -25.5t24.5 -10.5z" />
    <glyph glyph-name="uring" unicode="&#x16f;" horiz-adv-x="820" 
d="M321 -11q-66 0 -112.5 27.5t-71.5 81.5t-25 131v306h203v-285q0 -31 8.5 -51t27.5 -30t47 -10q20 0 37.5 6t30.5 18t20.5 27.5t7.5 34.5v290h203v-535h-186l-12 108l38 12q-11 -35 -41.5 -65t-75 -48t-99.5 -18zM411 604q-34 0 -63.5 17t-47.5 45t-18 62q0 35 17.5 63.5
t47 45.5t64.5 17q36 0 65 -17t46.5 -45.5t17.5 -63.5q0 -34 -18 -62t-47 -45t-64 -17zM411 700q12 0 20 8t8 20q0 13 -8 21.5t-20 8.5t-20 -8t-8 -21t8 -21t20 -8z" />
    <glyph glyph-name="Uhungarumlaut" unicode="&#x170;" horiz-adv-x="906" 
d="M453 -6q-101 0 -177.5 39t-119.5 107t-43 155v405h218v-398q0 -36 15.5 -64t43 -44t63.5 -16q38 0 66 16t44.5 44t16.5 64v398h213v-405q0 -87 -43 -155t-119.5 -107t-177.5 -39zM322 756l-61 85l165 148l81 -115zM561 752l-58 89l176 144l80 -121z" />
    <glyph glyph-name="uhungarumlaut" unicode="&#x171;" horiz-adv-x="820" 
d="M321 -11q-66 0 -112.5 27.5t-71.5 81.5t-25 131v306h203v-285q0 -31 8.5 -51t27.5 -30t47 -10q20 0 37.5 6t30.5 18t20.5 27.5t7.5 34.5v290h203v-535h-186l-12 108l38 12q-11 -35 -41.5 -65t-75 -48t-99.5 -18zM471 578l-86 51l159 202l109 -96zM261 573l-92 45l141 214
l117 -86z" />
    <glyph glyph-name="Uogonek" unicode="&#x172;" horiz-adv-x="906" 
d="M547 -220q-56 0 -89 34.5t-33 81.5q0 38 19 68.5t50 55.5t68.5 46.5t74.5 39.5l25 -52q-11 -8 -29.5 -19.5t-37.5 -25.5t-31.5 -33t-12.5 -42q0 -14 7 -22.5t17 -8.5q11 0 17.5 6t12.5 17l80 -59q-18 -32 -52 -59.5t-86 -27.5zM453 -6q-101 0 -177.5 39t-119.5 107
t-43 155v405h218v-398q0 -36 15.5 -64t43 -44t63.5 -16q38 0 66 16t44.5 44t16.5 64v398h213v-405q0 -87 -43 -155t-119.5 -107t-177.5 -39z" />
    <glyph glyph-name="uogonek" unicode="&#x173;" horiz-adv-x="820" 
d="M321 -11q-66 0 -112.5 27.5t-71.5 81.5t-25 131v306h203v-285q0 -31 8.5 -51t27.5 -30t47 -10q20 0 37.5 6t30.5 18t20.5 27.5t7.5 34.5v290h203v-535h-186l-12 108l38 12q-11 -35 -41.5 -65t-75 -48t-99.5 -18zM564 -219q-37 0 -66.5 15.5t-46 42t-16.5 59.5
q0 26 10.5 48.5t32.5 41.5t55.5 34.5t79.5 27.5l44 -50q-26 -6 -48 -17t-35 -25.5t-13 -31.5q0 -10 6 -16t17 -6q9 0 15 5.5t14 17.5l80 -59q-12 -20 -31.5 -40t-44 -33.5t-53.5 -13.5z" />
    <glyph glyph-name="Wcircumflex" unicode="&#x174;" horiz-adv-x="1102" 
d="M230 0l-213 700h218l87 -305q7 -27 14 -55.5t12 -56.5t8.5 -52.5t3.5 -40.5h-22q0 26 4.5 57t13 68.5t23.5 78.5l89 237h167l89 -236q15 -41 25.5 -78.5t16.5 -69t5 -57.5h-20q0 13 1 31t3.5 40t6 45t9 46t10.5 44l95 304h209l-227 -700h-170l-159 390h31l-146 -390h-184
zM413 753l-58 73l145 111h102l145 -111l-58 -73l-153 76h30z" />
    <glyph glyph-name="wcircumflex" unicode="&#x175;" horiz-adv-x="965" 
d="M226 0l-184 535h214l88 -313l-20 3l100 249h125l112 -249l-20 -2l80 312h218l-191 -535h-158l-115 289h31l-122 -289h-158zM346 596l-72 62l166 142h102l166 -142l-72 -62l-160 96h30z" />
    <glyph glyph-name="Ycircumflex" unicode="&#x176;" horiz-adv-x="830" 
d="M316 0v335l12 -61l-320 426h248l239 -327l-134 2l223 325h238l-299 -421l11 64v-343h-218zM277 753l-58 73l145 111h102l145 -111l-58 -73l-153 76h30z" />
    <glyph glyph-name="ycircumflex" unicode="&#x177;" horiz-adv-x="794" 
d="M172 -230l153 314l-6 -81l-276 532h231l105 -223q10 -24 20.5 -49.5t19.5 -54.5l-38 -11q8 18 19 45t20 52l102 241h229l-269 -537l-109 -228h-201zM248 596l-72 62l166 142h102l166 -142l-72 -62l-160 96h30z" />
    <glyph glyph-name="Ydieresis" unicode="&#x178;" horiz-adv-x="830" 
d="M316 0v335l12 -61l-320 426h248l239 -327l-134 2l223 325h238l-299 -421l11 64v-343h-218zM550 750q-48 0 -74 26t-26 74q0 44 27 72t73 28q48 0 74 -25.5t26 -74.5q0 -44 -27 -72t-73 -28zM279 750q-48 0 -74 26t-26 74q0 44 27 72t73 28q48 0 74 -25.5t26 -74.5
q0 -44 -27 -72t-73 -28z" />
    <glyph glyph-name="Zacute" unicode="&#x179;" horiz-adv-x="791" 
d="M76 0v139l405 474l102 -108h-481v195h600v-138l-404 -475l-102 96h517v-183h-637zM291 742l-43 102l228 116l60 -137z" />
    <glyph glyph-name="zacute" unicode="&#x17a;" horiz-adv-x="697" 
d="M70 0v96l344 362l7 -82h-351v159h539v-104l-321 -347l-10 75h341v-159h-549zM263 576l-58 89l206 154l80 -121z" />
    <glyph glyph-name="Zdotaccent" unicode="&#x17b;" horiz-adv-x="791" 
d="M76 0v139l405 474l102 -108h-481v195h600v-138l-404 -475l-102 96h517v-183h-637zM395 754q-54 0 -84.5 25t-30.5 71q0 42 31 69t84 27q54 0 84.5 -25t30.5 -71q0 -42 -31 -69t-84 -27z" />
    <glyph glyph-name="zdotaccent" unicode="&#x17c;" horiz-adv-x="697" 
d="M70 0v96l344 362l7 -82h-351v159h539v-104l-321 -347l-10 75h341v-159h-549zM348 632q-54 0 -84.5 25t-30.5 71q0 42 31 69t84 27q54 0 84.5 -25t30.5 -71q0 -42 -31 -69t-84 -27z" />
    <glyph glyph-name="Zcaron" unicode="&#x17d;" horiz-adv-x="791" 
d="M76 0v139l405 474l102 -108h-481v195h600v-138l-404 -475l-102 96h517v-183h-637zM344 753l-145 111l58 73l153 -76h-30l153 76l58 -73l-145 -111h-102z" />
    <glyph glyph-name="zcaron" unicode="&#x17e;" horiz-adv-x="697" 
d="M70 0v96l344 362l7 -82h-351v159h539v-104l-321 -347l-10 75h341v-159h-549zM297 606l-166 142l72 62l160 -96h-30l160 96l72 -62l-166 -142h-102z" />
    <glyph glyph-name="uni018F" unicode="&#x18f;" horiz-adv-x="839" 
d="M420 -10q-67 0 -128.5 23.5t-109.5 67t-77.5 102.5t-32.5 130v114h638l9 -166h-410q9 -17 21.5 -30.5t26.5 -22.5t30.5 -13.5t32.5 -4.5q25 0 48 9.5t40 29t26.5 50t9.5 72.5q0 38 -11.5 68t-31 50t-46 30.5t-58.5 10.5q-37 0 -67 -6t-58 -19.5t-62 -37.5l-77 167
q49 35 91 56t88 30.5t105 9.5q72 0 135 -28t111.5 -77.5t76 -114.5t27.5 -140t-27 -140t-75 -114.5t-110.5 -77.5t-134.5 -28z" />
    <glyph glyph-name="florin" unicode="&#x192;" horiz-adv-x="729" 
d="M158 -31q-41 0 -75 8t-63 24l74 174q18 -8 31.5 -11.5t32.5 -3.5q16 0 27 9.5t20 26t14 39.5l74 278q21 98 85.5 146.5t165.5 48.5q46 0 85.5 -11t77.5 -39l-72 -175q-20 17 -37 25t-38 8q-23 0 -35 -15.5t-19 -36.5l-79 -282q-24 -109 -91.5 -161t-177.5 -52zM139 266
v169l447 -1v-169z" />
    <glyph glyph-name="uni019D" unicode="&#x19d;" horiz-adv-x="950" 
d="M42 -207l-88 168q84 0 122.5 42t38.5 120v577h197l378 -437l-50 6q-6 53 -10.5 90.5t-6 68.5t-2.5 64.5t-1 77.5v130h216v-700h-199l-411 482l85 -16q6 -45 10 -79t6 -61.5t3 -53.5t1 -56v-71v-70q0 -101 -33 -163.5t-98 -90.5t-158 -28z" />
    <glyph glyph-name="Ohorn" unicode="&#x1a0;" horiz-adv-x="962" 
d="M481 -10q-90 0 -164.5 27t-130 76.5t-85 116t-29.5 145.5t29.5 145.5t85 116t130 76.5t164.5 27q19 0 44.5 -3t52.5 -8q23 -4 46 -8.5t47 -4.5q29 0 49.5 14.5t32 45t11.5 78.5h152q0 -43 -8 -84.5t-28.5 -74.5t-57.5 -52.5t-97 -17.5l37 21q41 -34 69 -75.5t43.5 -91
t15.5 -104.5q0 -78 -30 -145t-85 -116.5t-129.5 -76.5t-164.5 -27zM481 190q41 0 75.5 12t60.5 34.5t39.5 52.5t13.5 66t-13.5 66t-39.5 52.5t-60.5 34.5t-75.5 12t-75.5 -12t-60.5 -35t-39.5 -53t-13.5 -65q0 -36 13.5 -65.5t39.5 -52.5t60.5 -35t75.5 -12z" />
    <glyph glyph-name="ohorn" unicode="&#x1a1;" horiz-adv-x="796" 
d="M399 -10q-97 0 -172 36t-118 98.5t-43 143.5t43 143.5t118 98.5t172 36q15 0 31.5 -1.5t33.5 -3.5q14 -2 27 -4.5t26 -2.5q48 0 70.5 29t22.5 86h152q0 -48 -14 -91t-46.5 -72.5t-87.5 -37.5l17 23q47 -37 73 -89t26 -114q0 -81 -42.5 -143.5t-117 -98.5t-171.5 -36z
M399 160q35 0 64 14t45.5 38.5t16.5 55.5q0 32 -16.5 56.5t-45.5 38.5t-64 14q-36 0 -65 -14t-46 -38t-17 -57q0 -31 17 -55.5t46 -38.5t65 -14z" />
    <glyph glyph-name="Uhorn" unicode="&#x1af;" horiz-adv-x="906" 
d="M453 -6q-101 0 -177.5 39t-119.5 107t-43 155v405h218v-398q0 -36 15.5 -64t43 -44t63.5 -16q38 0 66 16t44.5 44t16.5 64v398h72q50 0 72.5 33t22.5 101h152q0 -51 -16 -98t-52 -78t-97 -33l59 38v-368q0 -87 -43 -155t-119.5 -107t-177.5 -39z" />
    <glyph glyph-name="uhorn" unicode="&#x1b0;" horiz-adv-x="819" 
d="M320 -11q-66 0 -112.5 27.5t-71.5 81.5t-25 131v306h203v-285q0 -31 9 -51t27.5 -30t46.5 -10q20 0 37.5 6t30.5 18t20.5 27.5t7.5 34.5v290q57 0 91 6t52 18.5t24 34.5t6 55h152q0 -53 -17.5 -100.5t-54 -75.5t-93.5 -23l43 28v-478h-186l-12 107l22 -25
q-17 -26 -46.5 -47t-68 -33.5t-85.5 -12.5z" />
    <glyph glyph-name="uni01C4" unicode="&#x1c4;" horiz-adv-x="1660" 
d="M114 0v700h340q87 0 158 -27t123 -74.5t79.5 -111t27.5 -137.5t-27.5 -138t-79.5 -111t-123 -74t-158 -27h-340zM330 133l-37 51h156q41 0 73 13.5t54 36.5t34 52.5t12 63.5q0 33 -12 63t-34 53t-54 36.5t-73 13.5h-159l40 49v-432zM945 0v139l405 474l102 -108h-481v195
h600v-138l-404 -475l-102 96h517v-183h-637zM1213 753l-145 111l58 73l153 -76h-30l153 76l58 -73l-145 -111h-102z" />
    <glyph glyph-name="uni01C5" unicode="&#x1c5;" horiz-adv-x="1610" 
d="M114 0v700h340q87 0 158 -27t123 -74.5t79.5 -111t27.5 -137.5t-27.5 -138t-79.5 -111t-123 -74t-158 -27h-340zM330 133l-37 51h156q41 0 73 13.5t54 36.5t34 52.5t12 63.5q0 33 -12 63t-34 53t-54 36.5t-73 13.5h-159l40 49v-432zM983 0v96l344 362l7 -82h-351v159h539
v-104l-321 -347l-10 75h341v-159h-549zM1210 606l-166 142l72 62l160 -96h-30l160 96l72 -62l-166 -142h-102z" />
    <glyph glyph-name="uni01C6" unicode="&#x1c6;" horiz-adv-x="1498" 
d="M314 -11q-75 0 -132 35.5t-88.5 98t-31.5 144.5q0 81 33 144t92 99t136 36q42 0 78 -10t64.5 -27.5t47.5 -41t25 -49.5l-45 -14v336h204v-740h-183l-16 126l41 -12q-5 -26 -24.5 -48.5t-49.5 -39.5t-68.5 -27t-82.5 -10zM379 156q37 0 64 13.5t41 38t14 59.5t-14 60
t-41 37.5t-64 12.5t-63.5 -12.5t-40.5 -37.5t-14 -60t14 -59.5t40.5 -38t63.5 -13.5zM871 0v96l344 362l7 -82h-351v159h539v-104l-321 -347l-10 75h341v-159h-549zM1098 606l-166 142l72 62l160 -96h-30l160 96l72 -62l-166 -142h-102z" />
    <glyph glyph-name="uni01C7" unicode="&#x1c7;" horiz-adv-x="1513" 
d="M114 0v700h216v-516h356v-184h-572zM1059 -10q-54 0 -97 12.5t-75 32t-54 44t-36 48.5l121 125q7 -11 17.5 -24.5t23.5 -24.5t30.5 -18.5t37.5 -7.5q25 0 43.5 11.5t28 31t9.5 44.5v249h-147v187h473v-187h-118v-276q0 -56 -19 -101t-53 -78.5t-81.5 -50.5t-103.5 -17z
" />
    <glyph glyph-name="uni01C8" unicode="&#x1c8;" horiz-adv-x="1228" 
d="M114 0v700h216v-516h356v-184h-572zM817 -219l-77 162q63 0 96.5 16.5t46 55.5t12.5 108v412h203v-460q0 -106 -32 -170.5t-94 -94t-155 -29.5zM997 632q-54 0 -84.5 25t-30.5 71q0 42 31 69t84 27q54 0 84.5 -25t30.5 -71q0 -42 -31 -69t-84 -27z" />
    <glyph glyph-name="uni01C9" unicode="&#x1c9;" horiz-adv-x="930" 
d="M124 0v740h203v-740h-203zM519 -219l-77 162q63 0 96.5 16.5t46 55.5t12.5 108v412h203v-460q0 -106 -32 -170.5t-94 -94t-155 -29.5zM699 632q-54 0 -84.5 25t-30.5 71q0 42 31 69t84 27q54 0 84.5 -25t30.5 -71q0 -42 -31 -69t-84 -27z" />
    <glyph glyph-name="uni01CA" unicode="&#x1ca;" horiz-adv-x="1726" 
d="M114 0v700h197l378 -445l-42 14q-6 42 -9.5 74t-6 58.5t-3.5 51.5t-1 53v64v130h208v-700h-199l-411 490l77 -24q3 -27 6.5 -49.5t6 -44t4 -46.5t2.5 -58t1 -77v-191h-208zM1271 -10q-54 0 -97 12.5t-75 32t-54 44t-36 48.5l121 125q7 -11 17.5 -24.5t23.5 -24.5
t30.5 -18.5t37.5 -7.5q25 0 43.5 11.5t28 31t9.5 44.5v249h-147v187h473v-187h-118v-276q0 -56 -19 -101t-53 -78.5t-81.5 -50.5t-103.5 -17z" />
    <glyph glyph-name="uni01CB" unicode="&#x1cb;" horiz-adv-x="1441" 
d="M114 0v700h197l378 -445l-42 14q-6 42 -9.5 74t-6 58.5t-3.5 51.5t-1 53v64v130h208v-700h-199l-411 490l77 -24q3 -27 6.5 -49.5t6 -44t4 -46.5t2.5 -58t1 -77v-191h-208zM1029 -219l-77 162q63 0 96.5 16.5t46 55.5t12.5 108v412h203v-460q0 -106 -32 -170.5t-94 -94
t-155 -29.5zM1209 632q-54 0 -84.5 25t-30.5 71q0 42 31 69t84 27q54 0 84.5 -25t30.5 -71q0 -42 -31 -69t-84 -27z" />
    <glyph glyph-name="uni01CC" unicode="&#x1cc;" horiz-adv-x="1310" 
d="M122 0v535h188l10 -124l-47 -13q11 41 42 74.5t77.5 53.5t101.5 20q67 0 114.5 -27.5t72 -77t24.5 -117.5v-324h-203v293q0 28 -10 47t-29.5 30t-45.5 11q-23 0 -40 -7.5t-28.5 -19.5t-17.5 -27t-6 -30v-297h-101h-68.5h-33.5zM898 -219l-77 162q63 0 96.5 16.5t46 55.5
t12.5 108v412h203v-460q0 -106 -32 -170.5t-94 -94t-155 -29.5zM1078 632q-54 0 -84.5 25t-30.5 71q0 42 31 69t84 27q54 0 84.5 -25t30.5 -71q0 -42 -31 -69t-84 -27z" />
    <glyph glyph-name="uni01CD" unicode="&#x1cd;" horiz-adv-x="807" 
d="M7 0l309 700h177l307 -700h-216l-142 330q-11 28 -19.5 49.5t-15 41t-12.5 40t-12 45.5h38q-5 -26 -11.5 -47t-13.5 -40t-16 -40t-20 -49l-142 -330h-211zM158 100l65 147h363l46 -147h-474zM352 753l-145 111l58 73l153 -76h-30l153 76l58 -73l-145 -111h-102z" />
    <glyph glyph-name="uni01CE" unicode="&#x1ce;" horiz-adv-x="819" 
d="M324 -9q-79 0 -137.5 35t-91 97.5t-32.5 144.5t32.5 144.5t91.5 98t138 35.5q43 0 79.5 -10.5t64 -29t46 -40.5t28.5 -46l-43 -3v118h198v-535h-203v139l43 -10q-8 -27 -26.5 -52t-46.5 -44t-63.5 -30.5t-77.5 -11.5zM381 156q37 0 64 13t41 38t14 61q0 35 -14 60.5
t-41 39t-64 13.5q-38 0 -64.5 -13.5t-40.5 -39t-14 -60.5q0 -36 14 -61t40.5 -38t64.5 -13zM350 606l-166 142l72 62l160 -96h-30l160 96l72 -62l-166 -142h-102z" />
    <glyph glyph-name="uni01CF" unicode="&#x1cf;" horiz-adv-x="762" 
d="M122 0v178h151v344h-151v178h518v-178h-151v-344h151v-178h-518zM330 753l-145 111l58 73l153 -76h-30l153 76l58 -73l-145 -111h-102z" />
    <glyph glyph-name="uni01D0" unicode="&#x1d0;" horiz-adv-x="435" 
d="M116 0v535h203v-535h-203zM167 606l-166 142l72 62l160 -96h-30l160 96l72 -62l-166 -142h-102z" />
    <glyph glyph-name="uni01D1" unicode="&#x1d1;" horiz-adv-x="962" 
d="M482 -10q-91 0 -165.5 27t-130 76.5t-85 116t-29.5 145.5t29.5 145.5t85 116t130 76.5t164.5 27t164.5 -27t129.5 -76.5t85 -116t30 -144.5q0 -79 -30 -146t-85 -116.5t-129.5 -76.5t-163.5 -27zM481 190q41 0 75.5 12t60.5 34.5t39.5 52.5t13.5 66t-13.5 66t-39.5 52.5
t-60.5 34.5t-75.5 12t-75.5 -12t-60.5 -35t-39.5 -53t-13.5 -65q0 -36 13.5 -65.5t39.5 -52.5t60.5 -35t75.5 -12zM430 753l-145 111l58 73l153 -76h-30l153 76l58 -73l-145 -111h-102z" />
    <glyph glyph-name="uni01D2" unicode="&#x1d2;" horiz-adv-x="804" 
d="M403 -10q-97 0 -172 36t-118 98.5t-43 143.5t43 143.5t118 98.5t172 36t171.5 -36t117 -98.5t42.5 -143.5t-42.5 -143.5t-117 -98.5t-171.5 -36zM403 160q35 0 63.5 14t45.5 38.5t17 55.5q0 32 -17 57t-45.5 38.5t-63.5 13.5t-65 -14t-46.5 -38t-16.5 -57
q0 -31 16.5 -55.5t46.5 -38.5t65 -14zM351 606l-166 142l72 62l160 -96h-30l160 96l72 -62l-166 -142h-102z" />
    <glyph glyph-name="uni01D3" unicode="&#x1d3;" horiz-adv-x="906" 
d="M453 -6q-101 0 -177.5 39t-119.5 107t-43 155v405h218v-398q0 -36 15.5 -64t43 -44t63.5 -16q38 0 66 16t44.5 44t16.5 64v398h213v-405q0 -87 -43 -155t-119.5 -107t-177.5 -39zM402 753l-145 111l58 73l153 -76h-30l153 76l58 -73l-145 -111h-102z" />
    <glyph glyph-name="uni01D4" unicode="&#x1d4;" horiz-adv-x="820" 
d="M321 -11q-66 0 -112.5 27.5t-71.5 81.5t-25 131v306h203v-285q0 -31 8.5 -51t27.5 -30t47 -10q20 0 37.5 6t30.5 18t20.5 27.5t7.5 34.5v290h203v-535h-186l-12 108l38 12q-11 -35 -41.5 -65t-75 -48t-99.5 -18zM360 606l-166 142l72 62l160 -96h-30l160 96l72 -62
l-166 -142h-102z" />
    <glyph glyph-name="Gcaron" unicode="&#x1e6;" horiz-adv-x="919" 
d="M467 -10q-93 0 -166 25t-124 72.5t-78 115.5t-27 152q0 80 29.5 146.5t85.5 115.5t132.5 76t170.5 27q70 0 128 -16t104 -41.5t78 -55.5l-128 -138q-22 18 -49 33t-60.5 24.5t-75.5 9.5q-41 0 -76 -13.5t-60.5 -37.5t-40 -57.5t-14.5 -72.5q0 -45 15 -79t41.5 -56.5
t62 -34t77.5 -11.5q34 0 62.5 8.5t49.5 23t32 36t12 46.5v26l28 -51h-212v151h380q1 -13 2.5 -37t2 -46.5t0.5 -29.5q0 -71 -28 -129t-78.5 -98t-120.5 -62t-155 -22zM430 753l-145 111l58 73l153 -76h-30l153 76l58 -73l-145 -111h-102z" />
    <glyph glyph-name="gcaron" unicode="&#x1e7;" horiz-adv-x="829" 
d="M400 -230q-86 0 -160 20.5t-121 51.5l68 138q23 -12 49 -22.5t57.5 -17t70.5 -6.5q48 0 80 14.5t48.5 45.5t16.5 77v64l45 -4q-9 -33 -41 -59t-79.5 -41.5t-102.5 -15.5q-77 0 -135.5 32t-92 89.5t-33.5 135.5q0 81 34 142.5t93 96.5t137 35q27 0 56.5 -5.5t57.5 -15
t51 -24.5t38 -33.5t18 -41.5l-41 -9l11 118h188v-467q0 -73 -23.5 -128.5t-65.5 -93.5t-99.5 -57t-124.5 -19zM394 160q38 0 65 13t41 37.5t14 59.5t-14 60t-41 38t-65 13q-40 0 -67.5 -13t-42.5 -38t-15 -60t15 -59.5t42.5 -37.5t67.5 -13zM358 606l-166 142l72 62l160 -96
h-30l160 96l72 -62l-166 -142h-102z" />
    <glyph glyph-name="uni01EA" unicode="&#x1ea;" horiz-adv-x="962" 
d="M583 -220q-56 0 -89 34.5t-33 81.5q0 38 19.5 68.5t53 55.5t74.5 46.5t85 39.5l25 -52q-13 -9 -35 -20.5t-44 -26t-37 -33t-15 -42.5q0 -12 7 -20.5t17 -8.5q11 0 17.5 6t12.5 17l80 -59q-18 -32 -52 -59.5t-86 -27.5zM481 -10q-90 0 -164.5 27t-130 76.5t-85 116
t-29.5 145.5t29.5 145.5t85 116t130 76.5t164.5 27t164.5 -27t129.5 -76.5t85 -116t30 -145.5q0 -78 -30 -145t-85 -116.5t-129.5 -76.5t-164.5 -27zM481 190q41 0 75.5 12t60.5 34.5t39.5 52.5t13.5 66t-13.5 66t-39.5 52.5t-60.5 34.5t-75.5 12t-75.5 -12t-60.5 -35
t-39.5 -53t-13.5 -65q0 -36 13.5 -65.5t39.5 -52.5t60.5 -35t75.5 -12z" />
    <glyph glyph-name="uni01EB" unicode="&#x1eb;" horiz-adv-x="796" 
d="M464 -209q-55 0 -87.5 32.5t-32.5 78.5q0 40 27.5 72.5t77.5 63t119 62.5l28 -61q-56 -27 -91.5 -50t-35.5 -49q0 -14 7.5 -20t15.5 -6q11 0 18.5 5.5t15.5 17.5l80 -59q-12 -20 -31 -40t-46.5 -33.5t-64.5 -13.5zM403 -10q-97 0 -172 36t-118 98.5t-43 143.5t43 143.5
t118 98.5t172 36t171.5 -36t117 -98.5t42.5 -143.5t-42.5 -143.5t-117 -98.5t-171.5 -36zM403 160q35 0 64 14t45.5 38.5t16.5 55.5q0 32 -16.5 56.5t-45.5 38.5t-64 14q-36 0 -65 -14t-46 -38t-17 -57q0 -31 17 -55.5t46 -38.5t65 -14z" />
    <glyph glyph-name="uni01F1" unicode="&#x1f1;" horiz-adv-x="1660" 
d="M114 0v700h340q87 0 158 -27t123 -74.5t79.5 -111t27.5 -137.5t-27.5 -138t-79.5 -111t-123 -74t-158 -27h-340zM330 133l-37 51h156q41 0 73 13.5t54 36.5t34 52.5t12 63.5q0 33 -12 63t-34 53t-54 36.5t-73 13.5h-159l40 49v-432zM945 0v139l405 474l102 -108h-481v195
h600v-138l-404 -475l-102 96h517v-183h-637z" />
    <glyph glyph-name="uni01F2" unicode="&#x1f2;" horiz-adv-x="1610" 
d="M114 0v700h340q87 0 158 -27t123 -74.5t79.5 -111t27.5 -137.5t-27.5 -138t-79.5 -111t-123 -74t-158 -27h-340zM330 133l-37 51h156q41 0 73 13.5t54 36.5t34 52.5t12 63.5q0 33 -12 63t-34 53t-54 36.5t-73 13.5h-159l40 49v-432zM983 0v96l344 362l7 -82h-351v159h539
v-104l-321 -347l-10 75h341v-159h-549z" />
    <glyph glyph-name="Aringacute" unicode="&#x1fa;" horiz-adv-x="807" 
d="M7 0l309 700h177l307 -700h-216l-142 330q-11 28 -19.5 49.5t-15 41t-12.5 40t-12 45.5h38q-5 -26 -11.5 -47t-13.5 -40t-16 -40t-20 -49l-142 -330h-211zM158 100l65 147h363l46 -147h-474zM403 669q-40 0 -74 19t-55 49.5t-21 66.5q0 40 20.5 73t54.5 53t75 20
q40 0 74 -20t54.5 -53t20.5 -73q0 -36 -20.5 -66.5t-54.5 -49.5t-74 -19zM403 768q14 0 24.5 10.5t10.5 25.5q0 16 -10.5 26.5t-24.5 10.5t-24.5 -10.5t-10.5 -26.5q0 -15 10.5 -25.5t24.5 -10.5zM299 960l-43 102l228 116l60 -137z" />
    <glyph glyph-name="aringacute" unicode="&#x1fb;" horiz-adv-x="819" 
d="M324 -9q-79 0 -137.5 35t-91 97.5t-32.5 144.5t32.5 144.5t91.5 98t138 35.5q43 0 79.5 -10.5t64 -29t46 -40.5t28.5 -46l-43 -3v118h198v-535h-203v139l43 -10q-8 -27 -26.5 -52t-46.5 -44t-63.5 -30.5t-77.5 -11.5zM381 156q37 0 64 13t41 38t14 61q0 35 -14 60.5
t-41 39t-64 13.5q-38 0 -64.5 -13.5t-40.5 -39t-14 -60.5q0 -36 14 -61t40.5 -38t64.5 -13zM401 604q-34 0 -63.5 17t-47.5 45t-18 62q0 35 17.5 63.5t47 45.5t64.5 17q36 0 65 -17t46.5 -45.5t17.5 -63.5q0 -34 -18 -62t-47 -45t-64 -17zM401 700q12 0 20 8t8 20
q0 13 -8 21.5t-20 8.5t-20 -8t-8 -21t8 -21t20 -8zM316 883l-58 89l206 154l80 -121z" />
    <glyph glyph-name="AEacute" unicode="&#x1fc;" horiz-adv-x="1335" 
d="M15 0l544 700h695v-179h-381v-87h336v-168h-336v-87h381v-179h-591v135h-311l124 169h187v261l27 -10l-426 -555h-249zM795 742l-43 102l228 116l60 -137z" />
    <glyph glyph-name="aeacute" unicode="&#x1fd;" horiz-adv-x="1088" 
d="M274 -10q-61 0 -109 19t-75 54.5t-27 85.5q0 45 20 78t55 53.5t84.5 30t109.5 9.5h514l-5 -19v18q-1 21 -14 36t-35 23.5t-50 8.5q-39 0 -69.5 -10.5t-48.5 -33t-18 -59.5q0 -40 22 -68t63.5 -43t97.5 -15q45 0 76 9.5t55 23.5l84 -127q-36 -26 -75 -42.5t-79.5 -24
t-83.5 -7.5q-104 0 -179.5 36.5t-115.5 99t-40 142.5q0 62 23.5 113t66 88t98 57t119.5 20q84 0 148.5 -35.5t101 -98t34.5 -144.5l-1 -49h-672q-13 0 -28 -2.5t-27.5 -7t-20.5 -13t-8 -20.5t9.5 -21t26.5 -13.5t37 -4.5q28 0 51 7.5t40 19t26 23.5l59 -96
q-17 -26 -53.5 -49.5t-84.5 -37.5t-102 -14zM426 242v65q0 22 -6.5 37.5t-20 24.5t-30.5 13t-39 4q-41 0 -73.5 -11t-59.5 -42l-107 111q26 27 66.5 50.5t94 37.5t117.5 14q47 0 89 -10t75 -33.5t51.5 -60.5t18.5 -90v-110h-176zM466 576l-58 89l206 154l80 -121z" />
    <glyph glyph-name="Oslashacute" unicode="&#x1fe;" horiz-adv-x="978" 
d="M177 -33l-62 61l677 711l67 -55zM488 -10q-91 0 -165.5 27t-130 76.5t-85 116t-29.5 145.5t29.5 145.5t85 116t130 76.5t164.5 27t164.5 -27t129.5 -76.5t85 -116t30 -144.5q0 -79 -30 -146t-85 -116.5t-129.5 -76.5t-163.5 -27zM487 190q41 0 75.5 12t60.5 34.5
t39.5 52.5t13.5 66t-13.5 66t-39.5 52.5t-60.5 34.5t-75.5 12t-75.5 -12t-60.5 -35t-39.5 -53t-13.5 -65q0 -36 13.5 -65.5t39.5 -52.5t60.5 -35t75.5 -12zM385 742l-43 102l228 116l60 -137z" />
    <glyph glyph-name="oslashacute" unicode="&#x1ff;" horiz-adv-x="796" 
d="M165 -27l-63 52l529 542l63 -53zM403 -10q-97 0 -172 36t-118 98.5t-43 143.5t43 143.5t118 98.5t172 36q98 0 172.5 -36t116.5 -98.5t42 -143.5t-42 -143.5t-116.5 -98.5t-172.5 -36zM403 160q36 0 64.5 14t45.5 38.5t16 55.5q1 32 -16 57t-45.5 38.5t-64.5 13.5
q-35 0 -64.5 -14t-46.5 -38t-17 -57q0 -31 17 -55.5t46.5 -38.5t64.5 -14zM313 576l-58 89l206 154l80 -121z" />
    <glyph glyph-name="uni0200" unicode="&#x200;" horiz-adv-x="807" 
d="M7 0l309 700h177l307 -700h-216l-142 330q-11 28 -19.5 49.5t-15 41t-12.5 40t-12 45.5h38q-5 -26 -11.5 -47t-13.5 -40t-16 -40t-20 -49l-142 -330h-211zM158 100l65 147h363l46 -147h-474zM535 737l-174 134l91 107l151 -162zM296 732l-187 129l90 114l163 -159z" />
    <glyph glyph-name="uni0201" unicode="&#x201;" horiz-adv-x="819" 
d="M324 -9q-79 0 -137.5 35t-91 97.5t-32.5 144.5t32.5 144.5t91.5 98t138 35.5q43 0 79.5 -10.5t64 -29t46 -40.5t28.5 -46l-43 -3v118h198v-535h-203v139l43 -10q-8 -27 -26.5 -52t-46.5 -44t-63.5 -30.5t-77.5 -11.5zM381 156q37 0 64 13t41 38t14 61q0 35 -14 60.5
t-41 39t-64 13.5q-38 0 -64.5 -13.5t-40.5 -39t-14 -60.5q0 -36 14 -61t40.5 -38t64.5 -13zM492 573l-166 173l117 86l141 -214zM282 578l-182 157l109 96l159 -202z" />
    <glyph glyph-name="uni0202" unicode="&#x202;" horiz-adv-x="807" 
d="M7 0l309 700h177l307 -700h-216l-142 330q-11 28 -19.5 49.5t-15 41t-12.5 40t-12 45.5h38q-5 -26 -11.5 -47t-13.5 -40t-16 -40t-20 -49l-142 -330h-211zM158 100l65 147h363l46 -147h-474zM335 763l-124 12q10 52 37 88.5t67 56t88 19.5q49 0 88.5 -19.5t66.5 -56
t37 -88.5l-124 -12q-9 26 -28 40.5t-40 14.5t-40 -14.5t-28 -40.5z" />
    <glyph glyph-name="uni0203" unicode="&#x203;" horiz-adv-x="819" 
d="M324 -9q-79 0 -137.5 35t-91 97.5t-32.5 144.5t32.5 144.5t91.5 98t138 35.5q43 0 79.5 -10.5t64 -29t46 -40.5t28.5 -46l-43 -3v118h198v-535h-203v139l43 -10q-8 -27 -26.5 -52t-46.5 -44t-63.5 -30.5t-77.5 -11.5zM381 156q37 0 64 13t41 38t14 61q0 35 -14 60.5
t-41 39t-64 13.5q-38 0 -64.5 -13.5t-40.5 -39t-14 -60.5q0 -36 14 -61t40.5 -38t64.5 -13zM333 620l-124 12q15 77 67 120.5t125 43.5t125 -43.5t67 -120.5l-124 -12q-9 26 -28 40.5t-40 14.5t-40 -14.5t-28 -40.5z" />
    <glyph glyph-name="uni0204" unicode="&#x204;" horiz-adv-x="792" 
d="M114 0v700h579v-175h-372v-350h390v-175h-597zM221 272v164h435v-164h-435zM551 737l-174 134l91 107l151 -162zM312 732l-187 129l90 114l163 -159z" />
    <glyph glyph-name="uni0205" unicode="&#x205;" horiz-adv-x="724" 
d="M393 -10q-102 0 -176.5 36t-114.5 98.5t-40 143.5q0 62 23 113t64.5 88t96.5 57t119 20q65 0 119 -20t93.5 -57.5t61 -88.5t19.5 -112l-1 -43h-475l-23 102h337l-19 -26v18q-1 19 -15.5 34.5t-38.5 24.5t-54 9q-35 0 -62.5 -11.5t-43.5 -34.5t-16 -57q0 -36 20.5 -64
t59 -44.5t93.5 -16.5q47 0 76.5 9.5t50.5 22.5l90 -127q-39 -27 -79 -43.5t-80.5 -23.5t-84.5 -7zM456 573l-166 173l117 86l141 -214zM246 578l-182 157l109 96l159 -202z" />
    <glyph glyph-name="uni0206" unicode="&#x206;" horiz-adv-x="792" 
d="M114 0v700h579v-175h-372v-350h390v-175h-597zM221 272v164h435v-164h-435zM352 763l-124 12q10 52 37 88.5t67 56t88 19.5q49 0 88.5 -19.5t66.5 -56t37 -88.5l-124 -12q-9 26 -28 40.5t-40 14.5t-40 -14.5t-28 -40.5z" />
    <glyph glyph-name="uni0207" unicode="&#x207;" horiz-adv-x="724" 
d="M393 -10q-102 0 -176.5 36t-114.5 98.5t-40 143.5q0 62 23 113t64.5 88t96.5 57t119 20q65 0 119 -20t93.5 -57.5t61 -88.5t19.5 -112l-1 -43h-475l-23 102h337l-19 -26v18q-1 19 -15.5 34.5t-38.5 24.5t-54 9q-35 0 -62.5 -11.5t-43.5 -34.5t-16 -57q0 -36 20.5 -64
t59 -44.5t93.5 -16.5q47 0 76.5 9.5t50.5 22.5l90 -127q-39 -27 -79 -43.5t-80.5 -23.5t-84.5 -7zM297 620l-124 12q15 77 67 120.5t125 43.5t125 -43.5t67 -120.5l-124 -12q-9 26 -28 40.5t-40 14.5t-40 -14.5t-28 -40.5z" />
    <glyph glyph-name="uni0208" unicode="&#x208;" horiz-adv-x="762" 
d="M122 0v178h151v344h-151v178h518v-178h-151v-344h151v-178h-518zM513 737l-174 134l91 107l151 -162zM274 732l-187 129l90 114l163 -159z" />
    <glyph glyph-name="uni0209" unicode="&#x209;" horiz-adv-x="435" 
d="M116 0v535h203v-535h-203zM309 573l-166 173l117 86l141 -214zM99 578l-182 157l109 96l159 -202z" />
    <glyph glyph-name="uni020A" unicode="&#x20a;" horiz-adv-x="762" 
d="M122 0v178h151v344h-151v178h518v-178h-151v-344h151v-178h-518zM313 763l-124 12q10 52 37 88.5t67 56t88 19.5q49 0 88.5 -19.5t66.5 -56t37 -88.5l-124 -12q-9 26 -28 40.5t-40 14.5t-40 -14.5t-28 -40.5z" />
    <glyph glyph-name="uni020B" unicode="&#x20b;" horiz-adv-x="435" 
d="M116 0v535h203v-535h-203zM150 620l-124 12q15 77 67 120.5t125 43.5t125 -43.5t67 -120.5l-124 -12q-9 26 -28 40.5t-40 14.5t-40 -14.5t-28 -40.5z" />
    <glyph glyph-name="uni020C" unicode="&#x20c;" horiz-adv-x="962" 
d="M482 -10q-91 0 -165.5 27t-130 76.5t-85 116t-29.5 145.5t29.5 145.5t85 116t130 76.5t164.5 27t164.5 -27t129.5 -76.5t85 -116t30 -144.5q0 -79 -30 -146t-85 -116.5t-129.5 -76.5t-163.5 -27zM481 190q41 0 75.5 12t60.5 34.5t39.5 52.5t13.5 66t-13.5 66t-39.5 52.5
t-60.5 34.5t-75.5 12t-75.5 -12t-60.5 -35t-39.5 -53t-13.5 -65q0 -36 13.5 -65.5t39.5 -52.5t60.5 -35t75.5 -12zM613 737l-174 134l91 107l151 -162zM374 732l-187 129l90 114l163 -159z" />
    <glyph glyph-name="uni020D" unicode="&#x20d;" horiz-adv-x="804" 
d="M403 -10q-97 0 -172 36t-118 98.5t-43 143.5t43 143.5t118 98.5t172 36t171.5 -36t117 -98.5t42.5 -143.5t-42.5 -143.5t-117 -98.5t-171.5 -36zM403 160q35 0 63.5 14t45.5 38.5t17 55.5q0 32 -17 57t-45.5 38.5t-63.5 13.5t-65 -14t-46.5 -38t-16.5 -57
q0 -31 16.5 -55.5t46.5 -38.5t65 -14zM493 573l-166 173l117 86l141 -214zM283 578l-182 157l109 96l159 -202z" />
    <glyph glyph-name="uni020E" unicode="&#x20e;" horiz-adv-x="962" 
d="M482 -10q-91 0 -165.5 27t-130 76.5t-85 116t-29.5 145.5t29.5 145.5t85 116t130 76.5t164.5 27t164.5 -27t129.5 -76.5t85 -116t30 -144.5q0 -79 -30 -146t-85 -116.5t-129.5 -76.5t-163.5 -27zM481 190q41 0 75.5 12t60.5 34.5t39.5 52.5t13.5 66t-13.5 66t-39.5 52.5
t-60.5 34.5t-75.5 12t-75.5 -12t-60.5 -35t-39.5 -53t-13.5 -65q0 -36 13.5 -65.5t39.5 -52.5t60.5 -35t75.5 -12zM413 763l-124 12q10 52 37 88.5t67 56t88 19.5q49 0 88.5 -19.5t66.5 -56t37 -88.5l-124 -12q-9 26 -28 40.5t-40 14.5t-40 -14.5t-28 -40.5z" />
    <glyph glyph-name="uni020F" unicode="&#x20f;" horiz-adv-x="804" 
d="M403 -10q-97 0 -172 36t-118 98.5t-43 143.5t43 143.5t118 98.5t172 36t171.5 -36t117 -98.5t42.5 -143.5t-42.5 -143.5t-117 -98.5t-171.5 -36zM403 160q35 0 63.5 14t45.5 38.5t17 55.5q0 32 -17 57t-45.5 38.5t-63.5 13.5t-65 -14t-46.5 -38t-16.5 -57
q0 -31 16.5 -55.5t46.5 -38.5t65 -14zM334 620l-124 12q15 77 67 120.5t125 43.5t125 -43.5t67 -120.5l-124 -12q-9 26 -28 40.5t-40 14.5t-40 -14.5t-28 -40.5z" />
    <glyph glyph-name="uni0210" unicode="&#x210;" horiz-adv-x="833" 
d="M114 0v700h358q84 0 144 -28t91.5 -78.5t31.5 -119.5q0 -72 -33.5 -126.5t-93 -85.5t-134.5 -31h-162v-231h-202zM531 0l-202 316l223 25l222 -341h-243zM316 381h131q25 0 42.5 9t27.5 26t10 42q0 23 -10 39t-28.5 24.5t-45.5 8.5h-127v-149zM535 737l-174 134l91 107
l151 -162zM296 732l-187 129l90 114l163 -159z" />
    <glyph glyph-name="uni0211" unicode="&#x211;" horiz-adv-x="637" 
d="M122 0v535h188l12 -188l-53 14q14 52 47 94t78 66.5t96 24.5q26 0 50 -4.5t43 -12.5l-56 -223q-14 11 -42.5 18.5t-59.5 7.5q-25 0 -44 -7.5t-31.5 -21t-18.5 -30.5t-6 -37v-236h-203zM453 568l-166 173l117 86l141 -214zM243 573l-182 157l109 96l159 -202z" />
    <glyph glyph-name="uni0212" unicode="&#x212;" horiz-adv-x="833" 
d="M114 0v700h358q84 0 144 -28t91.5 -78.5t31.5 -119.5q0 -72 -33.5 -126.5t-93 -85.5t-134.5 -31h-162v-231h-202zM531 0l-202 316l223 25l222 -341h-243zM316 381h131q25 0 42.5 9t27.5 26t10 42q0 23 -10 39t-28.5 24.5t-45.5 8.5h-127v-149zM336 763l-124 12
q10 52 37 88.5t67 56t88 19.5q49 0 88.5 -19.5t66.5 -56t37 -88.5l-124 -12q-9 26 -28 40.5t-40 14.5t-40 -14.5t-28 -40.5z" />
    <glyph glyph-name="uni0213" unicode="&#x213;" horiz-adv-x="637" 
d="M122 0v535h188l12 -188l-53 14q14 52 47 94t78 66.5t96 24.5q26 0 50 -4.5t43 -12.5l-56 -223q-14 11 -42.5 18.5t-59.5 7.5q-25 0 -44 -7.5t-31.5 -21t-18.5 -30.5t-6 -37v-236h-203zM293 615l-124 12q15 77 67 120.5t125 43.5t125 -43.5t67 -120.5l-124 -12
q-9 26 -28 40.5t-40 14.5t-40 -14.5t-28 -40.5z" />
    <glyph glyph-name="uni0214" unicode="&#x214;" horiz-adv-x="906" 
d="M453 -6q-101 0 -177.5 39t-119.5 107t-43 155v405h218v-398q0 -36 15.5 -64t43 -44t63.5 -16q38 0 66 16t44.5 44t16.5 64v398h213v-405q0 -87 -43 -155t-119.5 -107t-177.5 -39zM585 737l-174 134l91 107l151 -162zM346 732l-187 129l90 114l163 -159z" />
    <glyph glyph-name="uni0215" unicode="&#x215;" horiz-adv-x="820" 
d="M321 -11q-66 0 -112.5 27.5t-71.5 81.5t-25 131v306h203v-285q0 -31 8.5 -51t27.5 -30t47 -10q20 0 37.5 6t30.5 18t20.5 27.5t7.5 34.5v290h203v-535h-186l-12 108l38 12q-11 -35 -41.5 -65t-75 -48t-99.5 -18zM502 573l-166 173l117 86l141 -214zM292 578l-182 157
l109 96l159 -202z" />
    <glyph glyph-name="uni0216" unicode="&#x216;" horiz-adv-x="906" 
d="M453 -6q-101 0 -177.5 39t-119.5 107t-43 155v405h218v-398q0 -36 15.5 -64t43 -44t63.5 -16q38 0 66 16t44.5 44t16.5 64v398h213v-405q0 -87 -43 -155t-119.5 -107t-177.5 -39zM385 763l-124 12q10 52 37 88.5t67 56t88 19.5q49 0 88.5 -19.5t66.5 -56t37 -88.5
l-124 -12q-9 26 -28 40.5t-40 14.5t-40 -14.5t-28 -40.5z" />
    <glyph glyph-name="uni0217" unicode="&#x217;" horiz-adv-x="820" 
d="M321 -11q-66 0 -112.5 27.5t-71.5 81.5t-25 131v306h203v-285q0 -31 8.5 -51t27.5 -30t47 -10q20 0 37.5 6t30.5 18t20.5 27.5t7.5 34.5v290h203v-535h-186l-12 108l38 12q-11 -35 -41.5 -65t-75 -48t-99.5 -18zM343 620l-124 12q15 77 67 120.5t125 43.5t125 -43.5
t67 -120.5l-124 -12q-9 26 -28 40.5t-40 14.5t-40 -14.5t-28 -40.5z" />
    <glyph glyph-name="uni0218" unicode="&#x218;" horiz-adv-x="767" 
d="M393 -10q-85 0 -152 16.5t-118.5 45.5t-93.5 65l109 152q68 -59 138.5 -80.5t127.5 -21.5q19 0 39 2.5t32.5 11.5t12.5 27q0 12 -8 20.5t-22.5 14t-33.5 9.5t-40 7t-45 6q-65 10 -115.5 28.5t-85 46.5t-52.5 65t-18 84q0 53 25.5 96t70 73t101.5 46t120 16
q80 0 136.5 -14t97 -38t68.5 -53l-111 -131q-26 19 -58 31.5t-65.5 19t-64.5 6.5q-29 0 -50.5 -3.5t-34 -12t-12.5 -23.5q0 -14 14.5 -22.5t36.5 -14t44.5 -8t37.5 -4.5q57 -8 108.5 -22t91.5 -38t62.5 -64.5t22.5 -101.5q0 -77 -42.5 -130t-114 -80t-159.5 -27zM355 -331
l-52 64q14 5 34 14t36 21.5t16 26.5q0 10 -7.5 15t-20.5 12q-23 11 -34 26t-11 39q0 40 26.5 58.5t65.5 18.5q49 0 83 -27t34 -85q0 -36 -11.5 -65.5t-34 -52t-54 -38.5t-70.5 -27z" />
    <glyph glyph-name="uni0219" unicode="&#x219;" horiz-adv-x="654" 
d="M337 -10q-97 0 -171 26.5t-117 70.5l118 103q33 -29 83 -45t100 -16q13 0 24.5 2t19 5.5t12 8.5t4.5 12q0 12 -17 19q-15 5 -41.5 10t-57.5 11q-52 9 -92.5 22t-69.5 33q-28 22 -44 51.5t-16 68.5q0 41 21 73.5t58 54.5t84 34t97 12q53 0 101.5 -9t92.5 -26t79 -43
l-101 -117q-21 14 -50.5 27.5t-64 22.5t-68.5 9q-13 0 -23.5 -1.5t-17.5 -5t-11 -8t-4 -10.5q-1 -7 3.5 -12.5t12.5 -9.5q13 -7 39.5 -12.5t68.5 -14.5q68 -14 113 -32t71 -42q18 -16 27 -38.5t9 -48.5q0 -53 -34.5 -94.5t-95 -66t-142.5 -24.5zM279 -331l-52 64q14 5 34 14
t36 21t16 27q0 10 -7.5 15t-20.5 12q-23 11 -34 26t-11 39q0 40 28 58.5t69 18.5q47 0 79.5 -28.5t32.5 -88.5q0 -31 -11.5 -57t-34 -48t-54 -40t-70.5 -33z" />
    <glyph glyph-name="uni021A" unicode="&#x21a;" horiz-adv-x="822" 
d="M300 0v516h-244v184h710v-184h-250v-516h-216zM352 -331l-52 64q14 5 34 14t36 21.5t16 26.5q0 10 -7.5 15t-20.5 12q-23 11 -34 26t-11 39q0 40 26.5 58.5t65.5 18.5q49 0 83 -27t34 -85q0 -36 -11.5 -65.5t-34 -52t-54 -38.5t-70.5 -27z" />
    <glyph glyph-name="uni021B" unicode="&#x21b;" horiz-adv-x="555" 
d="M161 0v682h203v-682h-203zM54 365v170h430v-170h-430zM213 -331l-52 64q14 5 34 14t36 21t16 27q0 10 -7.5 15t-20.5 12q-23 11 -34 26t-11 39q0 40 28 58.5t69 18.5q47 0 79.5 -28.5t32.5 -88.5q0 -31 -11.5 -57t-34 -48t-54 -40t-70.5 -33z" />
    <glyph glyph-name="uni022A" unicode="&#x22a;" horiz-adv-x="962" 
d="M482 -10q-91 0 -165.5 27t-130 76.5t-85 116t-29.5 145.5t29.5 145.5t85 116t130 76.5t164.5 27t164.5 -27t129.5 -76.5t85 -116t30 -144.5q0 -79 -30 -146t-85 -116.5t-129.5 -76.5t-163.5 -27zM481 190q41 0 75.5 12t60.5 34.5t39.5 52.5t13.5 66t-13.5 66t-39.5 52.5
t-60.5 34.5t-75.5 12t-75.5 -12t-60.5 -35t-39.5 -53t-13.5 -65q0 -36 13.5 -65.5t39.5 -52.5t60.5 -35t75.5 -12zM616 750q-48 0 -74 26t-26 74q0 44 27 72t73 28q48 0 74 -25.5t26 -74.5q0 -44 -27 -72t-73 -28zM345 750q-48 0 -74 26t-26 74q0 44 27 72t73 28
q48 0 74 -25.5t26 -74.5q0 -44 -27 -72t-73 -28zM291 1010v120h379v-120h-379z" />
    <glyph glyph-name="uni022B" unicode="&#x22b;" horiz-adv-x="804" 
d="M403 -10q-97 0 -172 36t-118 98.5t-43 143.5t43 143.5t118 98.5t172 36t171.5 -36t117 -98.5t42.5 -143.5t-42.5 -143.5t-117 -98.5t-171.5 -36zM403 160q35 0 63.5 14t45.5 38.5t17 55.5q0 32 -17 57t-45.5 38.5t-63.5 13.5t-65 -14t-46.5 -38t-16.5 -57
q0 -31 16.5 -55.5t46.5 -38.5t65 -14zM537 624q-48 0 -74 26t-26 74q0 44 27 72t73 28q48 0 74 -25.5t26 -74.5q0 -44 -27 -72t-73 -28zM266 624q-48 0 -74 26t-26 74q0 44 27 72t73 28q48 0 74 -25.5t26 -74.5q0 -44 -27 -72t-73 -28zM215 873v120h374v-120h-374z" />
    <glyph glyph-name="uni022C" unicode="&#x22c;" horiz-adv-x="962" 
d="M482 -10q-91 0 -165.5 27t-130 76.5t-85 116t-29.5 145.5t29.5 145.5t85 116t130 76.5t164.5 27t164.5 -27t129.5 -76.5t85 -116t30 -144.5q0 -79 -30 -146t-85 -116.5t-129.5 -76.5t-163.5 -27zM481 190q41 0 75.5 12t60.5 34.5t39.5 52.5t13.5 66t-13.5 66t-39.5 52.5
t-60.5 34.5t-75.5 12t-75.5 -12t-60.5 -35t-39.5 -53t-13.5 -65q0 -36 13.5 -65.5t39.5 -52.5t60.5 -35t75.5 -12zM560 768q-17 0 -35 5t-44 17q-19 9 -31.5 13.5t-22.5 4.5q-15 0 -23 -10.5t-8 -28.5h-117q0 75 37 119t101 44q15 0 31 -3.5t48 -19.5q18 -9 27 -13t18 -4
q13 0 19.5 11t5.5 29h116q0 -46 -15.5 -83.5t-43 -59t-63.5 -21.5zM291 1010v120h379v-120h-379z" />
    <glyph glyph-name="uni022D" unicode="&#x22d;" horiz-adv-x="804" 
d="M403 -10q-97 0 -172 36t-118 98.5t-43 143.5t43 143.5t118 98.5t172 36t171.5 -36t117 -98.5t42.5 -143.5t-42.5 -143.5t-117 -98.5t-171.5 -36zM403 160q35 0 63.5 14t45.5 38.5t17 55.5q0 32 -17 57t-45.5 38.5t-63.5 13.5t-65 -14t-46.5 -38t-16.5 -57
q0 -31 16.5 -55.5t46.5 -38.5t65 -14zM483 613q-15 0 -35.5 4.5t-49.5 23.5q-17 12 -28.5 16.5t-18.5 4.5q-15 0 -26.5 -9.5t-13.5 -30.5l-105 14q0 62 32 104.5t87 42.5q15 0 34.5 -4t47.5 -22q9 -6 22.5 -14t26.5 -8q14 0 25 10t12 30l105 -15q0 -38 -14.5 -72
t-40.5 -54.5t-60 -20.5zM215 863v120h374v-120h-374z" />
    <glyph glyph-name="uni0230" unicode="&#x230;" horiz-adv-x="962" 
d="M482 -10q-91 0 -165.5 27t-130 76.5t-85 116t-29.5 145.5t29.5 145.5t85 116t130 76.5t164.5 27t164.5 -27t129.5 -76.5t85 -116t30 -144.5q0 -79 -30 -146t-85 -116.5t-129.5 -76.5t-163.5 -27zM481 190q41 0 75.5 12t60.5 34.5t39.5 52.5t13.5 66t-13.5 66t-39.5 52.5
t-60.5 34.5t-75.5 12t-75.5 -12t-60.5 -35t-39.5 -53t-13.5 -65q0 -36 13.5 -65.5t39.5 -52.5t60.5 -35t75.5 -12zM481 754q-54 0 -84.5 25t-30.5 71q0 42 31 69t84 27q54 0 84.5 -25t30.5 -71q0 -42 -31 -69t-84 -27zM291 1010v120h379v-120h-379z" />
    <glyph glyph-name="uni0231" unicode="&#x231;" horiz-adv-x="804" 
d="M403 -10q-97 0 -172 36t-118 98.5t-43 143.5t43 143.5t118 98.5t172 36t171.5 -36t117 -98.5t42.5 -143.5t-42.5 -143.5t-117 -98.5t-171.5 -36zM403 160q35 0 63.5 14t45.5 38.5t17 55.5q0 32 -17 57t-45.5 38.5t-63.5 13.5t-65 -14t-46.5 -38t-16.5 -57
q0 -31 16.5 -55.5t46.5 -38.5t65 -14zM402 632q-54 0 -84.5 25t-30.5 71q0 42 31 69t84 27q54 0 84.5 -25t30.5 -71q0 -42 -31 -69t-84 -27zM215 873v120h374v-120h-374z" />
    <glyph glyph-name="uni0232" unicode="&#x232;" horiz-adv-x="830" 
d="M316 0v335l12 -61l-320 426h248l239 -327l-134 2l223 325h238l-299 -421l11 64v-343h-218zM225 790v120h379v-120h-379z" />
    <glyph glyph-name="uni0233" unicode="&#x233;" horiz-adv-x="794" 
d="M172 -230l153 314l-6 -81l-276 532h231l105 -223q10 -24 20.5 -49.5t19.5 -54.5l-38 -11q8 18 19 45t20 52l102 241h229l-269 -537l-109 -228h-201zM206 638v120h374v-120h-374z" />
    <glyph glyph-name="uni0237" unicode="&#x237;" horiz-adv-x="451" 
d="M65 -219l-77 162q63 0 96.5 16.5t46 55.5t12.5 108v412h203v-460q0 -106 -32 -170.5t-94 -94t-155 -29.5z" />
    <glyph glyph-name="uni0259" unicode="&#x259;" horiz-adv-x="724" 
d="M359 -11q-86 0 -152.5 35.5t-104 98.5t-36.5 144l1 44h475l23 -103h-337l19 26v-18q1 -19 15 -34.5t38.5 -24.5t54.5 -9q36 0 63.5 12t43 35t15.5 56q0 37 -20.5 65t-58.5 44t-94 16q-47 0 -76.5 -9.5t-50.5 -22.5l-90 127q40 28 79.5 44t80 23t84.5 7q103 0 177 -35.5
t114 -98.5t40 -144q0 -62 -23 -113t-64.5 -88t-97 -57t-118.5 -20z" />
    <glyph glyph-name="uni0272" unicode="&#x272;" horiz-adv-x="859" 
d="M81 -219l-77 162q40 0 70 3t50 13t30 30.5t10 55.5v490h188l8 -107l-20 24q19 28 48.5 49t67 33t80.5 12q67 0 114.5 -27.5t72 -77t24.5 -117.5v-324h-203v293q0 27 -10 46.5t-29 30.5t-46 11q-23 0 -40 -7.5t-28.5 -19.5t-17.5 -27t-6 -30v-283q-1 -80 -36 -131.5
t-98 -76.5t-152 -25z" />
    <glyph glyph-name="uni02BB" unicode="&#x2bb;" horiz-adv-x="342" 
d="M187 365q-34 0 -63 19t-46.5 52t-17.5 76q0 38 15 74.5t42.5 69t63 57.5t75.5 37l56 -68q-48 -21 -76 -51t-28 -52q0 -11 5 -22t27 -22q24 -14 39.5 -34t15.5 -50q0 -41 -31 -63.5t-77 -22.5z" />
    <glyph glyph-name="uni02BC" unicode="&#x2bc;" horiz-adv-x="352" 
d="M79 424l14 276h202l-86 -276h-130z" />
    <glyph glyph-name="uni02BE" unicode="&#x2be;" horiz-adv-x="219" 
d="M45 513v96q12 0 20 8t8 20q0 13 -8 21.5t-20 8.5v96q35 0 64.5 -17t47 -45.5t17.5 -63.5q0 -34 -18 -62t-47 -45t-64 -17z" />
    <glyph glyph-name="uni02BF" unicode="&#x2bf;" horiz-adv-x="219" 
d="M174 513q-35 0 -63.5 17t-47 44.5t-18.5 62.5t17.5 63.5t47 45.5t64.5 17v-96q-13 0 -20.5 -8.5t-7.5 -21.5q0 -12 8 -20t20 -8v-96z" />
    <glyph glyph-name="circumflex" unicode="&#x2c6;" horiz-adv-x="500" 
d="M105 586l-72 62l166 142h102l166 -142l-72 -62l-160 96h30z" />
    <glyph glyph-name="caron" unicode="&#x2c7;" horiz-adv-x="500" 
d="M199 596l-166 142l72 62l160 -96h-30l160 96l72 -62l-166 -142h-102z" />
    <glyph glyph-name="uni02C8" unicode="&#x2c8;" horiz-adv-x="231" 
d="M67 368v344h97v-344h-97z" />
    <glyph glyph-name="uni02CC" unicode="&#x2cc;" horiz-adv-x="270" 
d="M60 -147v344h150v-344h-150z" />
    <glyph glyph-name="breve" unicode="&#x2d8;" horiz-adv-x="402" 
d="M250 600q-73 0 -125 43.5t-67 120.5l124 12q9 -26 28 -40.5t40 -14.5t40 14.5t28 40.5l124 -12q-15 -77 -67 -120.5t-125 -43.5z" />
    <glyph glyph-name="dotaccent" unicode="&#x2d9;" horiz-adv-x="500" 
d="M250 622q-54 0 -84.5 25t-30.5 71q0 42 31 69t84 27q54 0 84.5 -25t30.5 -71q0 -42 -31 -69t-84 -27z" />
    <glyph glyph-name="ring" unicode="&#x2da;" horiz-adv-x="500" 
d="M250 594q-34 0 -63.5 17t-47.5 45t-18 62q0 35 17.5 63.5t47 45.5t64.5 17q36 0 65 -17t46.5 -45.5t17.5 -63.5q0 -34 -18 -62t-47 -45t-64 -17zM250 690q12 0 20 8t8 20q0 13 -8 21.5t-20 8.5t-20 -8t-8 -21t8 -21t20 -8z" />
    <glyph glyph-name="ogonek" unicode="&#x2db;" horiz-adv-x="500" 
d="M250 -219q-37 0 -66.5 15.5t-46 42t-16.5 59.5q0 26 10.5 48.5t32.5 41.5t55.5 34.5t79.5 27.5l44 -50q-26 -6 -48 -17t-35 -25.5t-13 -31.5q0 -10 6 -16t17 -6q9 0 15 5.5t14 17.5l80 -59q-12 -20 -31.5 -40t-44 -33.5t-53.5 -13.5z" />
    <glyph glyph-name="tilde" unicode="&#x2dc;" horiz-adv-x="500" 
d="M331 603q-15 0 -35.5 4.5t-49.5 23.5q-17 12 -28.5 16.5t-18.5 4.5q-15 0 -26.5 -9.5t-13.5 -30.5l-105 14q0 62 32 104.5t87 42.5q15 0 34.5 -4t47.5 -22q9 -6 22.5 -14t26.5 -8q14 0 25 10t12 30l105 -15q0 -38 -14.5 -72t-40.5 -54.5t-60 -20.5z" />
    <glyph glyph-name="hungarumlaut" unicode="&#x2dd;" horiz-adv-x="500" 
d="M310 568l-86 51l159 202l109 -96zM100 563l-92 45l141 214l117 -86z" />
    <glyph glyph-name="gravecomb" unicode="&#x300;" 
d="M335 567l-228 122l80 121l206 -154z" />
    <glyph glyph-name="acutecomb" unicode="&#x301;" 
d="M165 566l-58 89l206 154l80 -121z" />
    <glyph glyph-name="uni0302" unicode="&#x302;" 
d="M105 586l-72 62l166 142h102l166 -142l-72 -62l-160 96h30z" />
    <glyph glyph-name="tildecomb" unicode="&#x303;" 
d="M331 603q-15 0 -35.5 4.5t-49.5 23.5q-17 12 -28.5 16.5t-18.5 4.5q-15 0 -26.5 -9.5t-13.5 -30.5l-105 14q0 62 32 104.5t87 42.5q15 0 34.5 -4t47.5 -22q9 -6 22.5 -14t26.5 -8q14 0 25 10t12 30l105 -15q0 -38 -14.5 -72t-40.5 -54.5t-60 -20.5z" />
    <glyph glyph-name="uni0304" unicode="&#x304;" 
d="M63 628v120h374v-120h-374z" />
    <glyph glyph-name="uni0306" unicode="&#x306;" 
d="M250 600q-73 0 -125 43.5t-67 120.5l124 12q9 -26 28 -40.5t40 -14.5t40 14.5t28 40.5l124 -12q-15 -77 -67 -120.5t-125 -43.5z" />
    <glyph glyph-name="uni0307" unicode="&#x307;" 
d="M250 622q-54 0 -84.5 25t-30.5 71q0 42 31 69t84 27q54 0 84.5 -25t30.5 -71q0 -42 -31 -69t-84 -27z" />
    <glyph glyph-name="uni0308" unicode="&#x308;" 
d="M386 614q-48 0 -74 26t-26 74q0 44 27 72t73 28q48 0 74 -25.5t26 -74.5q0 -44 -27 -72t-73 -28zM115 614q-48 0 -74 26t-26 74q0 44 27 72t73 28q48 0 74 -25.5t26 -74.5q0 -44 -27 -72t-73 -28z" />
    <glyph glyph-name="hookabovecomb" unicode="&#x309;" 
d="M223 580q-8 9 -15 20.5t-7 25.5q0 15 7 27t27 26q11 8 20.5 15.5t9.5 19.5q0 9 -8.5 14t-22.5 5q-23 0 -46.5 -7t-49.5 -17l-29 100q23 12 61.5 23t84.5 11q59 0 97.5 -26t38.5 -75q0 -38 -15.5 -57t-32.5 -32q-15 -10 -27.5 -21t-12.5 -21q0 -3 1 -6.5t2 -7.5z" />
    <glyph glyph-name="uni030A" unicode="&#x30a;" 
d="M250 594q-34 0 -63.5 17t-47.5 45t-18 62q0 35 17.5 63.5t47 45.5t64.5 17q36 0 65 -17t46.5 -45.5t17.5 -63.5q0 -34 -18 -62t-47 -45t-64 -17zM250 690q12 0 20 8t8 20q0 13 -8 21.5t-20 8.5t-20 -8t-8 -21t8 -21t20 -8z" />
    <glyph glyph-name="uni030B" unicode="&#x30b;" 
d="M310 568l-86 51l159 202l109 -96zM100 563l-92 45l141 214l117 -86z" />
    <glyph glyph-name="uni030C" unicode="&#x30c;" 
d="M199 596l-166 142l72 62l160 -96h-30l160 96l72 -62l-166 -142h-102z" />
    <glyph glyph-name="uni030F" unicode="&#x30f;" 
d="M400 563l-166 173l117 86l141 -214zM190 568l-182 157l109 96l159 -202z" />
    <glyph glyph-name="uni0311" unicode="&#x311;" 
d="M182 610l-124 12q15 77 67 120.5t125 43.5t125 -43.5t67 -120.5l-124 -12q-9 26 -28 40.5t-40 14.5t-40 -14.5t-28 -40.5z" />
    <glyph glyph-name="uni0312" unicode="&#x312;" 
d="M251 578q-47 0 -79.5 28.5t-32.5 88.5q0 31 11.5 57t34 48t54 40t70.5 33l52 -64q-13 -5 -33.5 -14t-36.5 -21t-16 -27q0 -10 7.5 -15t20.5 -12q23 -11 34 -26t11 -39q0 -40 -28 -58.5t-69 -18.5z" />
    <glyph glyph-name="uni031B" unicode="&#x31b;" 
d="M130 460v122q46 0 67.5 28.5t21.5 85.5h152q0 -67 -28.5 -120.5t-82 -84.5t-130.5 -31z" />
    <glyph glyph-name="dotbelowcomb" unicode="&#x323;" 
d="M250 -237q-56 0 -87.5 26t-31.5 74q0 44 32 72t87 28q56 0 87.5 -26t31.5 -74q0 -44 -32 -72t-87 -28z" />
    <glyph glyph-name="uni0324" unicode="&#x324;" 
d="M386 -238q-48 0 -74 26t-26 74q0 44 27 72t73 28q48 0 74 -25.5t26 -74.5q0 -44 -27 -72t-73 -28zM115 -238q-48 0 -74 26t-26 74q0 44 27 72t73 28q48 0 74 -25.5t26 -74.5q0 -44 -27 -72t-73 -28z" />
    <glyph glyph-name="uni0326" unicode="&#x326;" 
d="M191 -331l-52 64q14 5 34 14t36 21t16 27q0 10 -7.5 15t-20.5 12q-23 11 -34 26t-11 39q0 40 28 58.5t69 18.5q47 0 79.5 -28.5t32.5 -88.5q0 -31 -11.5 -57t-34 -48t-54 -40t-70.5 -33z" />
    <glyph glyph-name="uni0327" unicode="&#x327;" 
d="M146 -247l-11 91q18 0 38 3t34 10t14 18q0 10 -7.5 16.5t-20 9.5t-29.5 3l-21 16l67 104h99l-48 -64q54 -4 79.5 -32.5t25.5 -66.5q0 -34 -20.5 -55.5t-54 -33.5t-71.5 -16t-74 -3z" />
    <glyph glyph-name="uni0328" unicode="&#x328;" 
d="M250 -219q-37 0 -66.5 15.5t-46 42t-16.5 59.5q0 26 10.5 48.5t32.5 41.5t55.5 34.5t79.5 27.5l44 -50q-26 -6 -48 -17t-35 -25.5t-13 -31.5q0 -10 6 -16t17 -6q9 0 15 5.5t14 17.5l80 -59q-12 -20 -31.5 -40t-44 -33.5t-53.5 -13.5z" />
    <glyph glyph-name="uni032E" unicode="&#x32e;" 
d="M250 -236q-73 0 -125 43.5t-67 120.5l124 12q9 -26 28 -40.5t40 -14.5t40 14.5t28 40.5l124 -12q-15 -77 -67 -120.5t-125 -43.5z" />
    <glyph glyph-name="uni0331" unicode="&#x331;" 
d="M88 -213v150h324v-150h-324z" />
    <glyph glyph-name="uni0335" unicode="&#x335;" 
d="M66 221v140h368v-140h-368z" />
    <glyph glyph-name="uni0394" unicode="&#x394;" horiz-adv-x="711" 
d="M14 0l399 750l402 -750h-801zM232 64l-90 107h552l-99 -110l-250 469h136z" />
    <glyph glyph-name="uni03A9" unicode="&#x3a9;" horiz-adv-x="766" 
d="M82 0v183h221l-57 -38q-43 36 -81.5 77.5t-62.5 89.5t-24 104q0 66 29 121.5t81 96.5t121.5 63.5t149.5 22.5q81 0 150.5 -22.5t121.5 -63.5t80.5 -96.5t28.5 -121.5q0 -56 -24 -104.5t-62.5 -89.5t-81.5 -77l-57 38h221v-183h-316v225q9 6 20 15.5t22 21t19 25.5
q16 19 25 35.5t12.5 32t3.5 30.5q0 27 -12 51t-34 41t-52 26.5t-65 9.5t-64.5 -9.5t-51.5 -26.5t-34.5 -41t-12.5 -51q0 -15 4 -31t13.5 -33t24.5 -36q7 -11 14.5 -19.5t16 -15.5t15.5 -13.5t14 -11.5v-225h-316z" />
    <glyph glyph-name="uni03BC" unicode="&#x3bc;" horiz-adv-x="679" 
d="M98 -165v700h211v-307q0 -18 8.5 -33.5t27 -25t47.5 -9.5q21 0 39 5.5t30.5 15.5t19.5 22.5t7 25.5v306h211v-535h-194l-11 82l33 19q-29 -37 -56.5 -60.5t-63 -36t-90.5 -16.5q-7 0 -14 -1t-13.5 -1t-10.5 1l20 82l10 -234h-211z" />
    <glyph glyph-name="pi" unicode="&#x3c0;" horiz-adv-x="821" 
d="M159 0v485l17 -120h-119v170h722v-170h-111l9 82v-447h-194v469l10 -104h-153l13 82v-447h-194z" />
    <glyph glyph-name="uni1E08" unicode="&#x1e08;" horiz-adv-x="826" 
d="M484 -10q-88 0 -163.5 27t-131.5 75t-86.5 115t-30.5 148t31 148t86.5 115t131.5 75t165 27q56 0 109 -12.5t100 -35.5t84 -56l-126 -158q-17 18 -41 33t-56.5 25t-75.5 10q-35 0 -69 -11t-60 -33t-41.5 -54.5t-15.5 -75.5q0 -40 16 -71.5t44.5 -53t66 -33.5t81.5 -12
q41 0 74 12t58.5 28.5t44.5 34.5l102 -163q-28 -26 -74.5 -50t-104 -39t-118.5 -15zM372 -247l-11 91q18 0 38 3t34 10t14 18q0 10 -7.5 16.5t-20 9.5t-29.5 3l-21 16l67 104h99l-48 -64q54 -4 79.5 -32.5t25.5 -66.5q0 -34 -20.5 -55.5t-54 -33.5t-71.5 -16t-74 -3z
M379 742l-43 102l228 116l60 -137z" />
    <glyph glyph-name="uni1E09" unicode="&#x1e09;" horiz-adv-x="695" 
d="M387 -10q-93 0 -164.5 36t-112 98.5t-40.5 143.5t40.5 143.5t110 98.5t158.5 36q81 0 149 -21.5t115 -62.5l-110 -136q-16 13 -36.5 24t-44.5 17t-53 6q-39 0 -67.5 -13t-43 -36.5t-14.5 -54.5q0 -30 14 -53.5t42 -37.5t67 -14q34 0 59 5.5t44.5 14t32.5 19.5l109 -135
q-47 -36 -112 -57t-143 -21zM276 -247l-11 91q18 0 38 3t34 10t14 18q0 10 -7.5 16.5t-20 9.5t-29.5 3l-21 16l67 104h99l-48 -64q54 -4 79.5 -32.5t25.5 -66.5q0 -34 -20.5 -55.5t-54 -33.5t-71.5 -16t-74 -3zM294 576l-58 89l206 154l80 -121z" />
    <glyph glyph-name="uni1E0C" unicode="&#x1e0c;" horiz-adv-x="914" 
d="M114 0v700h340q87 0 158 -27t123 -74.5t79.5 -111t27.5 -137.5t-27.5 -138t-79.5 -111t-123 -74t-158 -27h-340zM330 133l-37 51h156q41 0 73 13.5t54 36.5t34 52.5t12 63.5q0 33 -12 63t-34 53t-54 36.5t-73 13.5h-159l40 49v-432zM458 -237q-56 0 -87.5 26t-31.5 74
q0 44 32 72t87 28q56 0 87.5 -26t31.5 -74q0 -44 -32 -72t-87 -28z" />
    <glyph glyph-name="uni1E0D" unicode="&#x1e0d;" horiz-adv-x="801" 
d="M314 -11q-75 0 -132 35.5t-88.5 98t-31.5 144.5q0 81 33 144t92 99t136 36q42 0 78 -10t64.5 -27.5t47.5 -41t25 -49.5l-45 -14v336h204v-740h-183l-16 126l41 -12q-5 -26 -24.5 -48.5t-49.5 -39.5t-68.5 -27t-82.5 -10zM379 156q37 0 64 13.5t41 38t14 59.5t-14 60
t-41 37.5t-64 12.5t-63.5 -12.5t-40.5 -37.5t-14 -60t14 -59.5t40.5 -38t63.5 -13.5zM395 -237q-56 0 -87.5 26t-31.5 74q0 44 32 72t87 28q56 0 87.5 -26t31.5 -74q0 -44 -32 -72t-87 -28z" />
    <glyph glyph-name="uni1E0E" unicode="&#x1e0e;" horiz-adv-x="914" 
d="M114 0v700h340q87 0 158 -27t123 -74.5t79.5 -111t27.5 -137.5t-27.5 -138t-79.5 -111t-123 -74t-158 -27h-340zM330 133l-37 51h156q41 0 73 13.5t54 36.5t34 52.5t12 63.5q0 33 -12 63t-34 53t-54 36.5t-73 13.5h-159l40 49v-432zM296 -213v150h324v-150h-324z" />
    <glyph glyph-name="uni1E0F" unicode="&#x1e0f;" horiz-adv-x="801" 
d="M314 -11q-75 0 -132 35.5t-88.5 98t-31.5 144.5q0 81 33 144t92 99t136 36q42 0 78 -10t64.5 -27.5t47.5 -41t25 -49.5l-45 -14v336h204v-740h-183l-16 126l41 -12q-5 -26 -24.5 -48.5t-49.5 -39.5t-68.5 -27t-82.5 -10zM379 156q37 0 64 13.5t41 38t14 59.5t-14 60
t-41 37.5t-64 12.5t-63.5 -12.5t-40.5 -37.5t-14 -60t14 -59.5t40.5 -38t63.5 -13.5zM233 -213v150h324v-150h-324z" />
    <glyph glyph-name="uni1E14" unicode="&#x1e14;" horiz-adv-x="792" 
d="M114 0v700h579v-175h-372v-350h390v-175h-597zM221 272v164h435v-164h-435zM230 790v120h379v-120h-379zM534 962l-245 81l60 137l228 -116z" />
    <glyph glyph-name="uni1E15" unicode="&#x1e15;" horiz-adv-x="724" 
d="M393 -10q-102 0 -176.5 36t-114.5 98.5t-40 143.5q0 62 23 113t64.5 88t96.5 57t119 20q65 0 119 -20t93.5 -57.5t61 -88.5t19.5 -112l-1 -43h-475l-23 102h337l-19 -26v18q-1 19 -15.5 34.5t-38.5 24.5t-54 9q-35 0 -62.5 -11.5t-43.5 -34.5t-16 -57q0 -36 20.5 -64
t59 -44.5t93.5 -16.5q47 0 76.5 9.5t50.5 22.5l90 -127q-39 -27 -79 -43.5t-80.5 -23.5t-84.5 -7zM372 798l-135 149l119 84l95 -183zM178 628v120h374v-120h-374z" />
    <glyph glyph-name="uni1E16" unicode="&#x1e16;" horiz-adv-x="792" 
d="M114 0v700h579v-175h-372v-350h390v-175h-597zM221 272v164h435v-164h-435zM230 790v120h379v-120h-379zM316 962l-43 102l228 116l60 -137z" />
    <glyph glyph-name="uni1E17" unicode="&#x1e17;" horiz-adv-x="724" 
d="M393 -10q-102 0 -176.5 36t-114.5 98.5t-40 143.5q0 62 23 113t64.5 88t96.5 57t119 20q65 0 119 -20t93.5 -57.5t61 -88.5t19.5 -112l-1 -43h-475l-23 102h337l-19 -26v18q-1 19 -15.5 34.5t-38.5 24.5t-54 9q-35 0 -62.5 -11.5t-43.5 -34.5t-16 -57q0 -36 20.5 -64
t59 -44.5t93.5 -16.5q47 0 76.5 9.5t50.5 22.5l90 -127q-39 -27 -79 -43.5t-80.5 -23.5t-84.5 -7zM178 628v120h374v-120h-374zM376 798l-79 50l95 183l119 -84z" />
    <glyph glyph-name="uni1E1C" unicode="&#x1e1c;" horiz-adv-x="792" 
d="M114 0v700h579v-175h-372v-350h390v-175h-597zM221 272v164h435v-164h-435zM290 -247l-11 91q18 0 38 3t34 10t14 18q0 10 -7.5 16.5t-20 9.5t-29.5 3l-21 16l67 104h99l-48 -64q54 -4 79.5 -32.5t25.5 -66.5q0 -34 -20.5 -55.5t-54 -33.5t-71.5 -16t-74 -3zM420 762
q-48 0 -88 19.5t-67 56.5t-37 88l124 12q9 -26 28 -40.5t40 -14.5t40 14.5t28 40.5l124 -12q-10 -51 -37 -88t-66.5 -56.5t-88.5 -19.5z" />
    <glyph glyph-name="uni1E1D" unicode="&#x1e1d;" horiz-adv-x="724" 
d="M393 -10q-102 0 -176.5 36t-114.5 98.5t-40 143.5q0 62 23 113t64.5 88t96.5 57t119 20q65 0 119 -20t93.5 -57.5t61 -88.5t19.5 -112l-1 -43h-475l-23 102h337l-19 -26v18q-1 19 -15.5 34.5t-38.5 24.5t-54 9q-35 0 -62.5 -11.5t-43.5 -34.5t-16 -57q0 -36 20.5 -64
t59 -44.5t93.5 -16.5q47 0 76.5 9.5t50.5 22.5l90 -127q-39 -27 -79 -43.5t-80.5 -23.5t-84.5 -7zM290 -247l-11 91q18 0 38 3t34 10t14 18q0 10 -7.5 16.5t-20 9.5t-29.5 3l-21 16l67 104h99l-48 -64q54 -4 79.5 -32.5t25.5 -66.5q0 -34 -20.5 -55.5t-54 -33.5t-71.5 -16
t-74 -3zM365 610q-73 0 -125 43.5t-67 120.5l124 12q9 -26 28 -40.5t40 -14.5t40 14.5t28 40.5l124 -12q-15 -77 -67 -120.5t-125 -43.5z" />
    <glyph glyph-name="uni1E20" unicode="&#x1e20;" horiz-adv-x="919" 
d="M467 -10q-93 0 -166 25t-124 72.5t-78 115.5t-27 152q0 80 29.5 146.5t85.5 115.5t132.5 76t170.5 27q70 0 128 -16t104 -41.5t78 -55.5l-128 -138q-22 18 -49 33t-60.5 24.5t-75.5 9.5q-41 0 -76 -13.5t-60.5 -37.5t-40 -57.5t-14.5 -72.5q0 -45 15 -79t41.5 -56.5
t62 -34t77.5 -11.5q34 0 62.5 8.5t49.5 23t32 36t12 46.5v26l28 -51h-212v151h380q1 -13 2.5 -37t2 -46.5t0.5 -29.5q0 -71 -28 -129t-78.5 -98t-120.5 -62t-155 -22zM291 790v120h379v-120h-379z" />
    <glyph glyph-name="uni1E21" unicode="&#x1e21;" horiz-adv-x="829" 
d="M400 -230q-86 0 -160 20.5t-121 51.5l68 138q23 -12 49 -22.5t57.5 -17t70.5 -6.5q48 0 80 14.5t48.5 45.5t16.5 77v64l45 -4q-9 -33 -41 -59t-79.5 -41.5t-102.5 -15.5q-77 0 -135.5 32t-92 89.5t-33.5 135.5q0 81 34 142.5t93 96.5t137 35q27 0 56.5 -5.5t57.5 -15
t51 -24.5t38 -33.5t18 -41.5l-41 -9l11 118h188v-467q0 -73 -23.5 -128.5t-65.5 -93.5t-99.5 -57t-124.5 -19zM394 160q38 0 65 13t41 37.5t14 59.5t-14 60t-41 38t-65 13q-40 0 -67.5 -13t-42.5 -38t-15 -60t15 -59.5t42.5 -37.5t67.5 -13zM222 638v120h374v-120h-374z" />
    <glyph glyph-name="uni1E24" unicode="&#x1e24;" horiz-adv-x="916" 
d="M587 0v700h216v-700h-216zM114 0v700h216v-700h-216zM195 253l1 188h513v-188h-514zM459 -237q-56 0 -87.5 26t-31.5 74q0 44 32 72t87 28q56 0 87.5 -26t31.5 -74q0 -44 -32 -72t-87 -28z" />
    <glyph glyph-name="uni1E25" unicode="&#x1e25;" horiz-adv-x="817" 
d="M122 0v740h198v-329l-48 -17q10 44 42 78t79 54t101 20q68 0 115.5 -28t71.5 -77.5t24 -114.5v-326h-203v291q0 30 -10 49.5t-29.5 30.5t-45.5 10q-20 0 -37 -6t-29.5 -18t-19 -28.5t-6.5 -36.5v-292h-101h-68.5h-33.5zM409 -237q-56 0 -87.5 26t-31.5 74q0 44 32 72
t87 28q56 0 87.5 -26t31.5 -74q0 -44 -32 -72t-87 -28z" />
    <glyph glyph-name="uni1E2A" unicode="&#x1e2a;" horiz-adv-x="916" 
d="M587 0v700h216v-700h-216zM114 0v700h216v-700h-216zM195 253l1 188h513v-188h-514zM459 -236q-73 0 -125 43.5t-67 120.5l124 12q9 -26 28 -40.5t40 -14.5t40 14.5t28 40.5l124 -12q-15 -77 -67 -120.5t-125 -43.5z" />
    <glyph glyph-name="uni1E2B" unicode="&#x1e2b;" horiz-adv-x="817" 
d="M122 0v740h198v-329l-48 -17q10 44 42 78t79 54t101 20q68 0 115.5 -28t71.5 -77.5t24 -114.5v-326h-203v291q0 30 -10 49.5t-29.5 30.5t-45.5 10q-20 0 -37 -6t-29.5 -18t-19 -28.5t-6.5 -36.5v-292h-101h-68.5h-33.5zM409 -236q-73 0 -125 43.5t-67 120.5l124 12
q9 -26 28 -40.5t40 -14.5t40 14.5t28 40.5l124 -12q-15 -77 -67 -120.5t-125 -43.5z" />
    <glyph glyph-name="uni1E2E" unicode="&#x1e2e;" horiz-adv-x="762" 
d="M122 0v178h151v344h-151v178h518v-178h-151v-344h151v-178h-518zM277 982l-43 102l228 116l60 -137zM245 750q-48 0 -74 26t-26 74q0 44 27 72t73 28q48 0 74 -25.5t26 -74.5q0 -44 -27 -72t-73 -28zM516 750q-48 0 -74 26t-26 74q0 44 27 72t73 28q48 0 74 -25.5
t26 -74.5q0 -44 -27 -72t-73 -28z" />
    <glyph glyph-name="uni1E2F" unicode="&#x1e2f;" horiz-adv-x="435" 
d="M116 0v535h203v-535h-203zM83 598q-48 0 -74 26t-26 74q0 44 27 72t73 28q48 0 74 -25.5t26 -74.5q0 -44 -27 -72t-73 -28zM354 598q-48 0 -74 26t-26 74q0 44 27 72t73 28q48 0 74 -25.5t26 -74.5q0 -44 -27 -72t-73 -28zM236 798l-79 50l95 183l119 -84z" />
    <glyph glyph-name="uni1E36" unicode="&#x1e36;" horiz-adv-x="736" 
d="M114 0v700h216v-516h356v-184h-572zM370 -237q-56 0 -87.5 26t-31.5 74q0 44 32 72t87 28q56 0 87.5 -26t31.5 -74q0 -44 -32 -72t-87 -28z" />
    <glyph glyph-name="uni1E37" unicode="&#x1e37;" horiz-adv-x="452" 
d="M124 0v740h203v-740h-203zM226 -237q-56 0 -87.5 26t-31.5 74q0 44 32 72t87 28q56 0 87.5 -26t31.5 -74q0 -44 -32 -72t-87 -28z" />
    <glyph glyph-name="uni1E3A" unicode="&#x1e3a;" horiz-adv-x="736" 
d="M114 0v700h216v-516h356v-184h-572zM208 -213v150h324v-150h-324z" />
    <glyph glyph-name="uni1E3B" unicode="&#x1e3b;" horiz-adv-x="452" 
d="M124 0v740h203v-740h-203zM64 -213v150h324v-150h-324z" />
    <glyph glyph-name="uni1E42" unicode="&#x1e42;" horiz-adv-x="1013" 
d="M114 0v700h186l280 -407l-146 1l283 406h182v-700h-208v171q0 87 4.5 159.5t15.5 145.5l23 -65l-196 -264h-66l-195 266l25 63q11 -71 15.5 -142.5t4.5 -162.5v-171h-208zM506 -237q-56 0 -87.5 26t-31.5 74q0 44 32 72t87 28q56 0 87.5 -26t31.5 -74q0 -44 -32 -72
t-87 -28z" />
    <glyph glyph-name="uni1E43" unicode="&#x1e43;" horiz-adv-x="1195" 
d="M122 0v535h188l8 -100l-31 16q18 24 40.5 41.5t48 29.5t54.5 18t61 6q39 0 74 -10.5t62 -37.5t45 -76l-39 3l9 14q18 25 41.5 44.5t52 33.5t60.5 21.5t66 7.5q76 0 124.5 -28t71.5 -77.5t23 -114.5v-326h-203v305q0 22 -8 39t-24.5 27t-41.5 10q-22 0 -40.5 -6.5t-32 -19
t-21 -28t-7.5 -33.5v-294h-203v305q0 23 -9 40t-27.5 26.5t-47.5 9.5q-21 0 -37.5 -7t-28.5 -19.5t-18.5 -25.5t-6.5 -27v-302h-203zM597 -237q-56 0 -87.5 26t-31.5 74q0 44 32 72t87 28q56 0 87.5 -26t31.5 -74q0 -44 -32 -72t-87 -28z" />
    <glyph glyph-name="uni1E44" unicode="&#x1e44;" horiz-adv-x="948" 
d="M114 0v700h197l378 -445l-42 14q-6 42 -9.5 74t-6 58.5t-3.5 51.5t-1 53v64v130h208v-700h-199l-411 490l77 -24q3 -27 6.5 -49.5t6 -44t4 -46.5t2.5 -58t1 -77v-191h-208zM475 754q-54 0 -84.5 25t-30.5 71q0 42 31 69t84 27q54 0 84.5 -25t30.5 -71q0 -42 -31 -69
t-84 -27z" />
    <glyph glyph-name="uni1E45" unicode="&#x1e45;" horiz-adv-x="817" 
d="M122 0v535h188l10 -124l-47 -13q11 41 42 74.5t77.5 53.5t101.5 20q67 0 114.5 -27.5t72 -77t24.5 -117.5v-324h-203v293q0 28 -10 47t-29.5 30t-45.5 11q-23 0 -40 -7.5t-28.5 -19.5t-17.5 -27t-6 -30v-297h-101h-68.5h-33.5zM439 632q-54 0 -84.5 25t-30.5 71
q0 42 31 69t84 27q54 0 84.5 -25t30.5 -71q0 -42 -31 -69t-84 -27z" />
    <glyph glyph-name="uni1E46" unicode="&#x1e46;" horiz-adv-x="948" 
d="M114 0v700h197l378 -445l-42 14q-6 42 -9.5 74t-6 58.5t-3.5 51.5t-1 53v64v130h208v-700h-199l-411 490l77 -24q3 -27 6.5 -49.5t6 -44t4 -46.5t2.5 -58t1 -77v-191h-208zM475 -237q-56 0 -87.5 26t-31.5 74q0 44 32 72t87 28q56 0 87.5 -26t31.5 -74q0 -44 -32 -72
t-87 -28z" />
    <glyph glyph-name="uni1E47" unicode="&#x1e47;" horiz-adv-x="817" 
d="M122 0v535h188l10 -124l-47 -13q11 41 42 74.5t77.5 53.5t101.5 20q67 0 114.5 -27.5t72 -77t24.5 -117.5v-324h-203v293q0 28 -10 47t-29.5 30t-45.5 11q-23 0 -40 -7.5t-28.5 -19.5t-17.5 -27t-6 -30v-297h-101h-68.5h-33.5zM409 -237q-56 0 -87.5 26t-31.5 74
q0 44 32 72t87 28q56 0 87.5 -26t31.5 -74q0 -44 -32 -72t-87 -28z" />
    <glyph glyph-name="uni1E48" unicode="&#x1e48;" horiz-adv-x="948" 
d="M114 0v700h197l378 -445l-42 14q-6 42 -9.5 74t-6 58.5t-3.5 51.5t-1 53v64v130h208v-700h-199l-411 490l77 -24q3 -27 6.5 -49.5t6 -44t4 -46.5t2.5 -58t1 -77v-191h-208zM313 -213v150h324v-150h-324z" />
    <glyph glyph-name="uni1E49" unicode="&#x1e49;" horiz-adv-x="817" 
d="M122 0v535h188l10 -124l-47 -13q11 41 42 74.5t77.5 53.5t101.5 20q67 0 114.5 -27.5t72 -77t24.5 -117.5v-324h-203v293q0 28 -10 47t-29.5 30t-45.5 11q-23 0 -40 -7.5t-28.5 -19.5t-17.5 -27t-6 -30v-297h-101h-68.5h-33.5zM247 -213v150h324v-150h-324z" />
    <glyph glyph-name="uni1E4C" unicode="&#x1e4c;" horiz-adv-x="962" 
d="M482 -10q-91 0 -165.5 27t-130 76.5t-85 116t-29.5 145.5t29.5 145.5t85 116t130 76.5t164.5 27t164.5 -27t129.5 -76.5t85 -116t30 -144.5q0 -79 -30 -146t-85 -116.5t-129.5 -76.5t-163.5 -27zM481 190q41 0 75.5 12t60.5 34.5t39.5 52.5t13.5 66t-13.5 66t-39.5 52.5
t-60.5 34.5t-75.5 12t-75.5 -12t-60.5 -35t-39.5 -53t-13.5 -65q0 -36 13.5 -65.5t39.5 -52.5t60.5 -35t75.5 -12zM560 768q-17 0 -35 5t-44 17q-19 9 -31.5 13.5t-22.5 4.5q-15 0 -23 -10.5t-8 -28.5h-117q0 75 37 119t101 44q15 0 31 -3.5t48 -19.5q18 -9 27 -13t18 -4
q13 0 19.5 11t5.5 29h116q0 -46 -15.5 -83.5t-43 -59t-63.5 -21.5zM377 962l-43 102l228 116l60 -137z" />
    <glyph glyph-name="uni1E4D" unicode="&#x1e4d;" horiz-adv-x="804" 
d="M403 -10q-97 0 -172 36t-118 98.5t-43 143.5t43 143.5t118 98.5t172 36t171.5 -36t117 -98.5t42.5 -143.5t-42.5 -143.5t-117 -98.5t-171.5 -36zM403 160q35 0 63.5 14t45.5 38.5t17 55.5q0 32 -17 57t-45.5 38.5t-63.5 13.5t-65 -14t-46.5 -38t-16.5 -57
q0 -31 16.5 -55.5t46.5 -38.5t65 -14zM483 613q-15 0 -35.5 4.5t-49.5 23.5q-17 12 -28.5 16.5t-18.5 4.5q-15 0 -26.5 -9.5t-13.5 -30.5l-105 14q0 62 32 104.5t87 42.5q15 0 34.5 -4t47.5 -22q9 -6 22.5 -14t26.5 -8q14 0 25 10t12 30l105 -15q0 -38 -14.5 -72
t-40.5 -54.5t-60 -20.5zM413 798l-79 50l95 183l119 -84z" />
    <glyph glyph-name="uni1E4E" unicode="&#x1e4e;" horiz-adv-x="962" 
d="M482 -10q-91 0 -165.5 27t-130 76.5t-85 116t-29.5 145.5t29.5 145.5t85 116t130 76.5t164.5 27t164.5 -27t129.5 -76.5t85 -116t30 -144.5q0 -79 -30 -146t-85 -116.5t-129.5 -76.5t-163.5 -27zM481 190q41 0 75.5 12t60.5 34.5t39.5 52.5t13.5 66t-13.5 66t-39.5 52.5
t-60.5 34.5t-75.5 12t-75.5 -12t-60.5 -35t-39.5 -53t-13.5 -65q0 -36 13.5 -65.5t39.5 -52.5t60.5 -35t75.5 -12zM560 768q-17 0 -35 5t-44 17q-19 9 -31.5 13.5t-22.5 4.5q-15 0 -23 -10.5t-8 -28.5h-117q0 75 37 119t101 44q15 0 31 -3.5t48 -19.5q18 -9 27 -13t18 -4
q13 0 19.5 11t5.5 29h116q0 -46 -15.5 -83.5t-43 -59t-63.5 -21.5zM616 970q-48 0 -74 26t-26 74q0 44 27 72t73 28q48 0 74 -25.5t26 -74.5q0 -44 -27 -72t-73 -28zM345 970q-48 0 -74 26t-26 74q0 44 27 72t73 28q48 0 74 -25.5t26 -74.5q0 -44 -27 -72t-73 -28z" />
    <glyph glyph-name="uni1E4F" unicode="&#x1e4f;" horiz-adv-x="804" 
d="M403 -10q-97 0 -172 36t-118 98.5t-43 143.5t43 143.5t118 98.5t172 36t171.5 -36t117 -98.5t42.5 -143.5t-42.5 -143.5t-117 -98.5t-171.5 -36zM403 160q35 0 63.5 14t45.5 38.5t17 55.5q0 32 -17 57t-45.5 38.5t-63.5 13.5t-65 -14t-46.5 -38t-16.5 -57
q0 -31 16.5 -55.5t46.5 -38.5t65 -14zM530 827q-46 0 -70.5 22.5t-24.5 63.5q0 38 26 62t69 24q45 0 70 -22t25 -64q0 -37 -25.5 -61.5t-69.5 -24.5zM273 827q-46 0 -70.5 22.5t-24.5 63.5q0 38 26 62t69 24q45 0 69.5 -22t24.5 -64q0 -37 -25.5 -61.5t-68.5 -24.5zM483 613
q-15 0 -35.5 4.5t-49.5 23.5q-17 12 -28.5 16.5t-18.5 4.5q-15 0 -26.5 -9.5t-13.5 -30.5l-105 14q0 62 32 104.5t87 42.5q15 0 34.5 -4t47.5 -22q9 -6 22.5 -14t26.5 -8q14 0 25 10t12 30l105 -15q0 -38 -14.5 -72t-40.5 -54.5t-60 -20.5z" />
    <glyph glyph-name="uni1E50" unicode="&#x1e50;" horiz-adv-x="962" 
d="M482 -10q-91 0 -165.5 27t-130 76.5t-85 116t-29.5 145.5t29.5 145.5t85 116t130 76.5t164.5 27t164.5 -27t129.5 -76.5t85 -116t30 -144.5q0 -79 -30 -146t-85 -116.5t-129.5 -76.5t-163.5 -27zM481 190q41 0 75.5 12t60.5 34.5t39.5 52.5t13.5 66t-13.5 66t-39.5 52.5
t-60.5 34.5t-75.5 12t-75.5 -12t-60.5 -35t-39.5 -53t-13.5 -65q0 -36 13.5 -65.5t39.5 -52.5t60.5 -35t75.5 -12zM291 790v120h379v-120h-379zM595 962l-245 81l60 137l228 -116z" />
    <glyph glyph-name="uni1E51" unicode="&#x1e51;" horiz-adv-x="804" 
d="M403 -10q-97 0 -172 36t-118 98.5t-43 143.5t43 143.5t118 98.5t172 36t171.5 -36t117 -98.5t42.5 -143.5t-42.5 -143.5t-117 -98.5t-171.5 -36zM403 160q35 0 63.5 14t45.5 38.5t17 55.5q0 32 -17 57t-45.5 38.5t-63.5 13.5t-65 -14t-46.5 -38t-16.5 -57
q0 -31 16.5 -55.5t46.5 -38.5t65 -14zM409 798l-135 149l119 84l95 -183zM215 628v120h374v-120h-374z" />
    <glyph glyph-name="uni1E52" unicode="&#x1e52;" horiz-adv-x="962" 
d="M482 -10q-91 0 -165.5 27t-130 76.5t-85 116t-29.5 145.5t29.5 145.5t85 116t130 76.5t164.5 27t164.5 -27t129.5 -76.5t85 -116t30 -144.5q0 -79 -30 -146t-85 -116.5t-129.5 -76.5t-163.5 -27zM481 190q41 0 75.5 12t60.5 34.5t39.5 52.5t13.5 66t-13.5 66t-39.5 52.5
t-60.5 34.5t-75.5 12t-75.5 -12t-60.5 -35t-39.5 -53t-13.5 -65q0 -36 13.5 -65.5t39.5 -52.5t60.5 -35t75.5 -12zM291 790v120h379v-120h-379zM377 962l-43 102l228 116l60 -137z" />
    <glyph glyph-name="uni1E53" unicode="&#x1e53;" horiz-adv-x="804" 
d="M403 -10q-97 0 -172 36t-118 98.5t-43 143.5t43 143.5t118 98.5t172 36t171.5 -36t117 -98.5t42.5 -143.5t-42.5 -143.5t-117 -98.5t-171.5 -36zM403 160q35 0 63.5 14t45.5 38.5t17 55.5q0 32 -17 57t-45.5 38.5t-63.5 13.5t-65 -14t-46.5 -38t-16.5 -57
q0 -31 16.5 -55.5t46.5 -38.5t65 -14zM215 628v120h374v-120h-374zM413 798l-79 50l95 183l119 -84z" />
    <glyph glyph-name="uni1E5A" unicode="&#x1e5a;" horiz-adv-x="833" 
d="M114 0v700h358q84 0 144 -28t91.5 -78.5t31.5 -119.5q0 -72 -33.5 -126.5t-93 -85.5t-134.5 -31h-162v-231h-202zM531 0l-202 316l223 25l222 -341h-243zM316 381h131q25 0 42.5 9t27.5 26t10 42q0 23 -10 39t-28.5 24.5t-45.5 8.5h-127v-149zM414 -237q-56 0 -87.5 26
t-31.5 74q0 44 32 72t87 28q56 0 87.5 -26t31.5 -74q0 -44 -32 -72t-87 -28z" />
    <glyph glyph-name="uni1E5B" unicode="&#x1e5b;" horiz-adv-x="637" 
d="M122 0v535h188l12 -188l-53 14q14 52 47 94t78 66.5t96 24.5q26 0 50 -4.5t43 -12.5l-56 -223q-14 11 -42.5 18.5t-59.5 7.5q-25 0 -44 -7.5t-31.5 -21t-18.5 -30.5t-6 -37v-236h-203zM216 -237q-56 0 -87.5 26t-31.5 74q0 44 32 72t87 28q56 0 87.5 -26t31.5 -74
q0 -44 -32 -72t-87 -28z" />
    <glyph glyph-name="uni1E5E" unicode="&#x1e5e;" horiz-adv-x="833" 
d="M114 0v700h358q84 0 144 -28t91.5 -78.5t31.5 -119.5q0 -72 -33.5 -126.5t-93 -85.5t-134.5 -31h-162v-231h-202zM531 0l-202 316l223 25l222 -341h-243zM316 381h131q25 0 42.5 9t27.5 26t10 42q0 23 -10 39t-28.5 24.5t-45.5 8.5h-127v-149zM252 -213v150h324v-150
h-324z" />
    <glyph glyph-name="uni1E5F" unicode="&#x1e5f;" horiz-adv-x="637" 
d="M122 0v535h188l12 -188l-53 14q14 52 47 94t78 66.5t96 24.5q26 0 50 -4.5t43 -12.5l-56 -223q-14 11 -42.5 18.5t-59.5 7.5q-25 0 -44 -7.5t-31.5 -21t-18.5 -30.5t-6 -37v-236h-203zM54 -213v150h324v-150h-324z" />
    <glyph glyph-name="uni1E60" unicode="&#x1e60;" horiz-adv-x="767" 
d="M393 -10q-85 0 -152 16.5t-118.5 45.5t-93.5 65l109 152q68 -59 138.5 -80.5t127.5 -21.5q19 0 39 2.5t32.5 11.5t12.5 27q0 12 -8 20.5t-22.5 14t-33.5 9.5t-40 7t-45 6q-65 10 -115.5 28.5t-85 46.5t-52.5 65t-18 84q0 53 25.5 96t70 73t101.5 46t120 16
q80 0 136.5 -14t97 -38t68.5 -53l-111 -131q-26 19 -58 31.5t-65.5 19t-64.5 6.5q-29 0 -50.5 -3.5t-34 -12t-12.5 -23.5q0 -14 14.5 -22.5t36.5 -14t44.5 -8t37.5 -4.5q57 -8 108.5 -22t91.5 -38t62.5 -64.5t22.5 -101.5q0 -77 -42.5 -130t-114 -80t-159.5 -27zM396 754
q-54 0 -84.5 25t-30.5 71q0 42 31 69t84 27q54 0 84.5 -25t30.5 -71q0 -42 -31 -69t-84 -27z" />
    <glyph glyph-name="uni1E61" unicode="&#x1e61;" horiz-adv-x="654" 
d="M337 -10q-97 0 -171 26.5t-117 70.5l118 103q33 -29 83 -45t100 -16q13 0 24.5 2t19 5.5t12 8.5t4.5 12q0 12 -17 19q-15 5 -41.5 10t-57.5 11q-52 9 -92.5 22t-69.5 33q-28 22 -44 51.5t-16 68.5q0 41 21 73.5t58 54.5t84 34t97 12q53 0 101.5 -9t92.5 -26t79 -43
l-101 -117q-21 14 -50.5 27.5t-64 22.5t-68.5 9q-13 0 -23.5 -1.5t-17.5 -5t-11 -8t-4 -10.5q-1 -7 3.5 -12.5t12.5 -9.5q13 -7 39.5 -12.5t68.5 -14.5q68 -14 113 -32t71 -42q18 -16 27 -38.5t9 -48.5q0 -53 -34.5 -94.5t-95 -66t-142.5 -24.5zM334 632q-54 0 -84.5 25
t-30.5 71q0 42 31 69t84 27q54 0 84.5 -25t30.5 -71q0 -42 -31 -69t-84 -27z" />
    <glyph glyph-name="uni1E62" unicode="&#x1e62;" horiz-adv-x="767" 
d="M393 -10q-85 0 -152 16.5t-118.5 45.5t-93.5 65l109 152q68 -59 138.5 -80.5t127.5 -21.5q19 0 39 2.5t32.5 11.5t12.5 27q0 12 -8 20.5t-22.5 14t-33.5 9.5t-40 7t-45 6q-65 10 -115.5 28.5t-85 46.5t-52.5 65t-18 84q0 53 25.5 96t70 73t101.5 46t120 16
q80 0 136.5 -14t97 -38t68.5 -53l-111 -131q-26 19 -58 31.5t-65.5 19t-64.5 6.5q-29 0 -50.5 -3.5t-34 -12t-12.5 -23.5q0 -14 14.5 -22.5t36.5 -14t44.5 -8t37.5 -4.5q57 -8 108.5 -22t91.5 -38t62.5 -64.5t22.5 -101.5q0 -77 -42.5 -130t-114 -80t-159.5 -27zM414 -237
q-56 0 -87.5 26t-31.5 74q0 44 32 72t87 28q56 0 87.5 -26t31.5 -74q0 -44 -32 -72t-87 -28z" />
    <glyph glyph-name="uni1E63" unicode="&#x1e63;" horiz-adv-x="654" 
d="M337 -10q-97 0 -171 26.5t-117 70.5l118 103q33 -29 83 -45t100 -16q13 0 24.5 2t19 5.5t12 8.5t4.5 12q0 12 -17 19q-15 5 -41.5 10t-57.5 11q-52 9 -92.5 22t-69.5 33q-28 22 -44 51.5t-16 68.5q0 41 21 73.5t58 54.5t84 34t97 12q53 0 101.5 -9t92.5 -26t79 -43
l-101 -117q-21 14 -50.5 27.5t-64 22.5t-68.5 9q-13 0 -23.5 -1.5t-17.5 -5t-11 -8t-4 -10.5q-1 -7 3.5 -12.5t12.5 -9.5q13 -7 39.5 -12.5t68.5 -14.5q68 -14 113 -32t71 -42q18 -16 27 -38.5t9 -48.5q0 -53 -34.5 -94.5t-95 -66t-142.5 -24.5zM338 -237q-56 0 -87.5 26
t-31.5 74q0 44 32 72t87 28q56 0 87.5 -26t31.5 -74q0 -44 -32 -72t-87 -28z" />
    <glyph glyph-name="uni1E64" unicode="&#x1e64;" horiz-adv-x="767" 
d="M393 -10q-85 0 -152 16.5t-118.5 45.5t-93.5 65l109 152q68 -59 138.5 -80.5t127.5 -21.5q19 0 39 2.5t32.5 11.5t12.5 27q0 12 -8 20.5t-22.5 14t-33.5 9.5t-40 7t-45 6q-65 10 -115.5 28.5t-85 46.5t-52.5 65t-18 84q0 53 25.5 96t70 73t101.5 46t120 16
q80 0 136.5 -14t97 -38t68.5 -53l-111 -131q-26 19 -58 31.5t-65.5 19t-64.5 6.5q-29 0 -50.5 -3.5t-34 -12t-12.5 -23.5q0 -14 14.5 -22.5t36.5 -14t44.5 -8t37.5 -4.5q57 -8 108.5 -22t91.5 -38t62.5 -64.5t22.5 -101.5q0 -77 -42.5 -130t-114 -80t-159.5 -27zM497 752
l-79 50l95 183l119 -84zM295 751q-48 0 -75 22.5t-27 62.5q0 38 27.5 61.5t74.5 23.5q48 0 75 -22t27 -63q0 -37 -27.5 -61t-74.5 -24z" />
    <glyph glyph-name="uni1E65" unicode="&#x1e65;" horiz-adv-x="654" 
d="M337 -10q-97 0 -171 26.5t-117 70.5l118 103q33 -29 83 -45t100 -16q13 0 24.5 2t19 5.5t12 8.5t4.5 12q0 12 -17 19q-15 5 -41.5 10t-57.5 11q-52 9 -92.5 22t-69.5 33q-28 22 -44 51.5t-16 68.5q0 41 21 73.5t58 54.5t84 34t97 12q53 0 101.5 -9t92.5 -26t79 -43
l-101 -117q-21 14 -50.5 27.5t-64 22.5t-68.5 9q-13 0 -23.5 -1.5t-17.5 -5t-11 -8t-4 -10.5q-1 -7 3.5 -12.5t12.5 -9.5q13 -7 39.5 -12.5t68.5 -14.5q68 -14 113 -32t71 -42q18 -16 27 -38.5t9 -48.5q0 -53 -34.5 -94.5t-95 -66t-142.5 -24.5zM435 612l-79 50l95 183
l119 -84zM233 611q-48 0 -75 22.5t-27 62.5q0 38 27.5 61.5t74.5 23.5q48 0 75 -22t27 -63q0 -37 -27.5 -61t-74.5 -24z" />
    <glyph glyph-name="uni1E66" unicode="&#x1e66;" horiz-adv-x="767" 
d="M393 -10q-85 0 -152 16.5t-118.5 45.5t-93.5 65l109 152q68 -59 138.5 -80.5t127.5 -21.5q19 0 39 2.5t32.5 11.5t12.5 27q0 12 -8 20.5t-22.5 14t-33.5 9.5t-40 7t-45 6q-65 10 -115.5 28.5t-85 46.5t-52.5 65t-18 84q0 53 25.5 96t70 73t101.5 46t120 16
q80 0 136.5 -14t97 -38t68.5 -53l-111 -131q-26 19 -58 31.5t-65.5 19t-64.5 6.5q-29 0 -50.5 -3.5t-34 -12t-12.5 -23.5q0 -14 14.5 -22.5t36.5 -14t44.5 -8t37.5 -4.5q57 -8 108.5 -22t91.5 -38t62.5 -64.5t22.5 -101.5q0 -77 -42.5 -130t-114 -80t-159.5 -27zM345 753
l-145 111l58 73l153 -76h-30l153 76l58 -73l-145 -111h-102zM396 974q-54 0 -84.5 25t-30.5 71q0 42 31 69t84 27q54 0 84.5 -25t30.5 -71q0 -42 -31 -69t-84 -27z" />
    <glyph glyph-name="uni1E67" unicode="&#x1e67;" horiz-adv-x="654" 
d="M337 -10q-97 0 -171 26.5t-117 70.5l118 103q33 -29 83 -45t100 -16q13 0 24.5 2t19 5.5t12 8.5t4.5 12q0 12 -17 19q-15 5 -41.5 10t-57.5 11q-52 9 -92.5 22t-69.5 33q-28 22 -44 51.5t-16 68.5q0 41 21 73.5t58 54.5t84 34t97 12q53 0 101.5 -9t92.5 -26t79 -43
l-101 -117q-21 14 -50.5 27.5t-64 22.5t-68.5 9q-13 0 -23.5 -1.5t-17.5 -5t-11 -8t-4 -10.5q-1 -7 3.5 -12.5t12.5 -9.5q13 -7 39.5 -12.5t68.5 -14.5q68 -14 113 -32t71 -42q18 -16 27 -38.5t9 -48.5q0 -53 -34.5 -94.5t-95 -66t-142.5 -24.5zM283 597l-166 142l72 62
l160 -96h-30l160 96l72 -62l-166 -142h-102zM334 817q-54 0 -84.5 25t-30.5 71q0 42 31 69t84 27q54 0 84.5 -25t30.5 -71q0 -42 -31 -69t-84 -27z" />
    <glyph glyph-name="uni1E68" unicode="&#x1e68;" horiz-adv-x="767" 
d="M393 -10q-85 0 -152 16.5t-118.5 45.5t-93.5 65l109 152q68 -59 138.5 -80.5t127.5 -21.5q19 0 39 2.5t32.5 11.5t12.5 27q0 12 -8 20.5t-22.5 14t-33.5 9.5t-40 7t-45 6q-65 10 -115.5 28.5t-85 46.5t-52.5 65t-18 84q0 53 25.5 96t70 73t101.5 46t120 16
q80 0 136.5 -14t97 -38t68.5 -53l-111 -131q-26 19 -58 31.5t-65.5 19t-64.5 6.5q-29 0 -50.5 -3.5t-34 -12t-12.5 -23.5q0 -14 14.5 -22.5t36.5 -14t44.5 -8t37.5 -4.5q57 -8 108.5 -22t91.5 -38t62.5 -64.5t22.5 -101.5q0 -77 -42.5 -130t-114 -80t-159.5 -27zM414 -237
q-56 0 -87.5 26t-31.5 74q0 44 32 72t87 28q56 0 87.5 -26t31.5 -74q0 -44 -32 -72t-87 -28zM396 754q-54 0 -84.5 25t-30.5 71q0 42 31 69t84 27q54 0 84.5 -25t30.5 -71q0 -42 -31 -69t-84 -27z" />
    <glyph glyph-name="uni1E69" unicode="&#x1e69;" horiz-adv-x="654" 
d="M337 -10q-97 0 -171 26.5t-117 70.5l118 103q33 -29 83 -45t100 -16q13 0 24.5 2t19 5.5t12 8.5t4.5 12q0 12 -17 19q-15 5 -41.5 10t-57.5 11q-52 9 -92.5 22t-69.5 33q-28 22 -44 51.5t-16 68.5q0 41 21 73.5t58 54.5t84 34t97 12q53 0 101.5 -9t92.5 -26t79 -43
l-101 -117q-21 14 -50.5 27.5t-64 22.5t-68.5 9q-13 0 -23.5 -1.5t-17.5 -5t-11 -8t-4 -10.5q-1 -7 3.5 -12.5t12.5 -9.5q13 -7 39.5 -12.5t68.5 -14.5q68 -14 113 -32t71 -42q18 -16 27 -38.5t9 -48.5q0 -53 -34.5 -94.5t-95 -66t-142.5 -24.5zM338 -237q-56 0 -87.5 26
t-31.5 74q0 44 32 72t87 28q56 0 87.5 -26t31.5 -74q0 -44 -32 -72t-87 -28zM334 632q-54 0 -84.5 25t-30.5 71q0 42 31 69t84 27q54 0 84.5 -25t30.5 -71q0 -42 -31 -69t-84 -27z" />
    <glyph glyph-name="uni1E6C" unicode="&#x1e6c;" horiz-adv-x="822" 
d="M300 0v516h-244v184h710v-184h-250v-516h-216zM411 -237q-56 0 -87.5 26t-31.5 74q0 44 32 72t87 28q56 0 87.5 -26t31.5 -74q0 -44 -32 -72t-87 -28z" />
    <glyph glyph-name="uni1E6D" unicode="&#x1e6d;" horiz-adv-x="555" 
d="M161 0v682h203v-682h-203zM54 365v170h430v-170h-430zM272 -237q-56 0 -87.5 26t-31.5 74q0 44 32 72t87 28q56 0 87.5 -26t31.5 -74q0 -44 -32 -72t-87 -28z" />
    <glyph glyph-name="uni1E6E" unicode="&#x1e6e;" horiz-adv-x="822" 
d="M300 0v516h-244v184h710v-184h-250v-516h-216zM249 -213v150h324v-150h-324z" />
    <glyph glyph-name="uni1E6F" unicode="&#x1e6f;" horiz-adv-x="555" 
d="M161 0v682h203v-682h-203zM54 365v170h430v-170h-430zM110 -213v150h324v-150h-324z" />
    <glyph glyph-name="uni1E78" unicode="&#x1e78;" horiz-adv-x="906" 
d="M453 -6q-101 0 -177.5 39t-119.5 107t-43 155v405h218v-398q0 -36 15.5 -64t43 -44t63.5 -16q38 0 66 16t44.5 44t16.5 64v398h213v-405q0 -87 -43 -155t-119.5 -107t-177.5 -39zM532 768q-17 0 -35 5t-44 17q-19 9 -31.5 13.5t-22.5 4.5q-15 0 -23 -10.5t-8 -28.5h-117
q0 75 37 119t101 44q15 0 31 -3.5t48 -19.5q18 -9 27 -13t18 -4q13 0 19.5 11t5.5 29h116q0 -46 -15.5 -83.5t-43 -59t-63.5 -21.5zM349 962l-43 102l228 116l60 -137z" />
    <glyph glyph-name="uni1E79" unicode="&#x1e79;" horiz-adv-x="820" 
d="M321 -11q-66 0 -112.5 27.5t-71.5 81.5t-25 131v306h203v-285q0 -31 8.5 -51t27.5 -30t47 -10q20 0 37.5 6t30.5 18t20.5 27.5t7.5 34.5v290h203v-535h-186l-12 108l38 12q-11 -35 -41.5 -65t-75 -48t-99.5 -18zM492 613q-15 0 -35.5 4.5t-49.5 23.5q-17 12 -28.5 16.5
t-18.5 4.5q-15 0 -26.5 -9.5t-13.5 -30.5l-105 14q0 62 32 104.5t87 42.5q15 0 34.5 -4t47.5 -22q9 -6 22.5 -14t26.5 -8q14 0 25 10t12 30l105 -15q0 -38 -14.5 -72t-40.5 -54.5t-60 -20.5zM422 798l-79 50l95 183l119 -84z" />
    <glyph glyph-name="uni1E7A" unicode="&#x1e7a;" horiz-adv-x="906" 
d="M453 -6q-101 0 -177.5 39t-119.5 107t-43 155v405h218v-398q0 -36 15.5 -64t43 -44t63.5 -16q38 0 66 16t44.5 44t16.5 64v398h213v-405q0 -87 -43 -155t-119.5 -107t-177.5 -39zM263 790v120h379v-120h-379zM588 970q-48 0 -74 26t-26 74q0 44 27 72t73 28
q48 0 74 -25.5t26 -74.5q0 -44 -27 -72t-73 -28zM317 970q-48 0 -74 26t-26 74q0 44 27 72t73 28q48 0 74 -25.5t26 -74.5q0 -44 -27 -72t-73 -28z" />
    <glyph glyph-name="uni1E7B" unicode="&#x1e7b;" horiz-adv-x="820" 
d="M321 -11q-66 0 -112.5 27.5t-71.5 81.5t-25 131v306h203v-285q0 -31 8.5 -51t27.5 -30t47 -10q20 0 37.5 6t30.5 18t20.5 27.5t7.5 34.5v290h203v-535h-186l-12 108l38 12q-11 -35 -41.5 -65t-75 -48t-99.5 -18zM224 638v120h374v-120h-374zM546 839q-48 0 -74 26t-26 74
q0 44 27 72t73 28q48 0 74 -25.5t26 -74.5q0 -44 -27 -72t-73 -28zM275 839q-48 0 -74 26t-26 74q0 44 27 72t73 28q48 0 74 -25.5t26 -74.5q0 -44 -27 -72t-73 -28z" />
    <glyph glyph-name="Wgrave" unicode="&#x1e80;" horiz-adv-x="1102" 
d="M230 0l-213 700h218l87 -305q7 -27 14 -55.5t12 -56.5t8.5 -52.5t3.5 -40.5h-22q0 26 4.5 57t13 68.5t23.5 78.5l89 237h167l89 -236q15 -41 25.5 -78.5t16.5 -69t5 -57.5h-20q0 13 1 31t3.5 40t6 45t9 46t10.5 44l95 304h209l-227 -700h-170l-159 390h31l-146 -390h-184
zM665 742l-245 81l60 137l228 -116z" />
    <glyph glyph-name="wgrave" unicode="&#x1e81;" horiz-adv-x="965" 
d="M226 0l-184 535h214l88 -313l-20 3l100 249h125l112 -249l-20 -2l80 312h218l-191 -535h-158l-115 289h31l-122 -289h-158zM556 577l-228 122l80 121l206 -154z" />
    <glyph glyph-name="Wacute" unicode="&#x1e82;" horiz-adv-x="1102" 
d="M230 0l-213 700h218l87 -305q7 -27 14 -55.5t12 -56.5t8.5 -52.5t3.5 -40.5h-22q0 26 4.5 57t13 68.5t23.5 78.5l89 237h167l89 -236q15 -41 25.5 -78.5t16.5 -69t5 -57.5h-20q0 13 1 31t3.5 40t6 45t9 46t10.5 44l95 304h209l-227 -700h-170l-159 390h31l-146 -390h-184
zM447 742l-43 102l228 116l60 -137z" />
    <glyph glyph-name="wacute" unicode="&#x1e83;" horiz-adv-x="965" 
d="M226 0l-184 535h214l88 -313l-20 3l100 249h125l112 -249l-20 -2l80 312h218l-191 -535h-158l-115 289h31l-122 -289h-158zM406 576l-58 89l206 154l80 -121z" />
    <glyph glyph-name="Wdieresis" unicode="&#x1e84;" horiz-adv-x="1102" 
d="M230 0l-213 700h218l87 -305q7 -27 14 -55.5t12 -56.5t8.5 -52.5t3.5 -40.5h-22q0 26 4.5 57t13 68.5t23.5 78.5l89 237h167l89 -236q15 -41 25.5 -78.5t16.5 -69t5 -57.5h-20q0 13 1 31t3.5 40t6 45t9 46t10.5 44l95 304h209l-227 -700h-170l-159 390h31l-146 -390h-184
zM686 750q-48 0 -74 26t-26 74q0 44 27 72t73 28q48 0 74 -25.5t26 -74.5q0 -44 -27 -72t-73 -28zM415 750q-48 0 -74 26t-26 74q0 44 27 72t73 28q48 0 74 -25.5t26 -74.5q0 -44 -27 -72t-73 -28z" />
    <glyph glyph-name="wdieresis" unicode="&#x1e85;" horiz-adv-x="965" 
d="M226 0l-184 535h214l88 -313l-20 3l100 249h125l112 -249l-20 -2l80 312h218l-191 -535h-158l-115 289h31l-122 -289h-158zM626 624q-48 0 -74 26t-26 74q0 44 27 72t73 28q48 0 74 -25.5t26 -74.5q0 -44 -27 -72t-73 -28zM355 624q-48 0 -74 26t-26 74q0 44 27 72t73 28
q48 0 74 -25.5t26 -74.5q0 -44 -27 -72t-73 -28z" />
    <glyph glyph-name="uni1E8E" unicode="&#x1e8e;" horiz-adv-x="830" 
d="M316 0v335l12 -61l-320 426h248l239 -327l-134 2l223 325h238l-299 -421l11 64v-343h-218zM415 754q-54 0 -84.5 25t-30.5 71q0 42 31 69t84 27q54 0 84.5 -25t30.5 -71q0 -42 -31 -69t-84 -27z" />
    <glyph glyph-name="uni1E8F" unicode="&#x1e8f;" horiz-adv-x="794" 
d="M172 -230l153 314l-6 -81l-276 532h231l105 -223q10 -24 20.5 -49.5t19.5 -54.5l-38 -11q8 18 19 45t20 52l102 241h229l-269 -537l-109 -228h-201zM393 632q-54 0 -84.5 25t-30.5 71q0 42 31 69t84 27q54 0 84.5 -25t30.5 -71q0 -42 -31 -69t-84 -27z" />
    <glyph glyph-name="uni1E92" unicode="&#x1e92;" horiz-adv-x="791" 
d="M76 0v139l405 474l102 -108h-481v195h600v-138l-404 -475l-102 96h517v-183h-637zM395 -237q-56 0 -87.5 26t-31.5 74q0 44 32 72t87 28q56 0 87.5 -26t31.5 -74q0 -44 -32 -72t-87 -28z" />
    <glyph glyph-name="uni1E93" unicode="&#x1e93;" horiz-adv-x="697" 
d="M70 0v96l344 362l7 -82h-351v159h539v-104l-321 -347l-10 75h341v-159h-549zM348 -237q-56 0 -87.5 26t-31.5 74q0 44 32 72t87 28q56 0 87.5 -26t31.5 -74q0 -44 -32 -72t-87 -28z" />
    <glyph glyph-name="uni1E97" unicode="&#x1e97;" horiz-adv-x="555" 
d="M161 0v682h203v-682h-203zM54 365v170h430v-170h-430zM398 701q-48 0 -74 26t-26 74q0 44 27 72t73 28q48 0 74 -25.5t26 -74.5q0 -44 -27 -72t-73 -28zM127 701q-48 0 -74 26t-26 74q0 44 27 72t73 28q48 0 74 -25.5t26 -74.5q0 -44 -27 -72t-73 -28z" />
    <glyph glyph-name="uni1E9E" unicode="&#x1e9e;" horiz-adv-x="979" 
d="M646 -10q-52 0 -100 12t-86.5 32.5t-66.5 43.5l109 130q32 -23 61 -37t64 -14q26 0 42.5 12t16.5 31q0 16 -13.5 30t-39 28t-62.5 30q-39 18 -66 38t-41 46.5t-14 61.5t21.5 64.5t57 50.5t76 31.5t79.5 7.5l37 -40q-27 9 -73 17.5t-94 8.5q-47 0 -88 -16.5t-71 -48.5
t-47.5 -81.5t-17.5 -116.5v-311h-216v313q0 131 54 223t152 141t230 49q74 0 141 -9.5t133 -32.5l2 -155q-52 -2 -88 -10.5t-54 -22.5t-18 -35q0 -19 13 -33t36 -26.5t54 -25.5q43 -19 77.5 -40t54.5 -53t20 -84q0 -58 -36 -105.5t-98 -75.5t-141 -28z" />
    <glyph glyph-name="uni1EA0" unicode="&#x1ea0;" horiz-adv-x="807" 
d="M7 0l309 700h177l307 -700h-216l-142 330q-11 28 -19.5 49.5t-15 41t-12.5 40t-12 45.5h38q-5 -26 -11.5 -47t-13.5 -40t-16 -40t-20 -49l-142 -330h-211zM158 100l65 147h363l46 -147h-474zM403 -237q-56 0 -87.5 26t-31.5 74q0 44 32 72t87 28q56 0 87.5 -26t31.5 -74
q0 -44 -32 -72t-87 -28z" />
    <glyph glyph-name="uni1EA1" unicode="&#x1ea1;" horiz-adv-x="819" 
d="M324 -9q-79 0 -137.5 35t-91 97.5t-32.5 144.5t32.5 144.5t91.5 98t138 35.5q43 0 79.5 -10.5t64 -29t46 -40.5t28.5 -46l-43 -3v118h198v-535h-203v139l43 -10q-8 -27 -26.5 -52t-46.5 -44t-63.5 -30.5t-77.5 -11.5zM381 156q37 0 64 13t41 38t14 61q0 35 -14 60.5
t-41 39t-64 13.5q-38 0 -64.5 -13.5t-40.5 -39t-14 -60.5q0 -36 14 -61t40.5 -38t64.5 -13zM401 -237q-56 0 -87.5 26t-31.5 74q0 44 32 72t87 28q56 0 87.5 -26t31.5 -74q0 -44 -32 -72t-87 -28z" />
    <glyph glyph-name="uni1EA2" unicode="&#x1ea2;" horiz-adv-x="807" 
d="M7 0l309 700h177l307 -700h-216l-142 330q-11 28 -19.5 49.5t-15 41t-12.5 40t-12 45.5h38q-5 -26 -11.5 -47t-13.5 -40t-16 -40t-20 -49l-142 -330h-211zM158 100l65 147h363l46 -147h-474zM376 737q-8 9 -15 20.5t-7 25.5q0 15 7 27t27 26q11 8 20.5 15.5t9.5 19.5
q0 9 -8.5 14t-22.5 5q-23 0 -46.5 -7t-49.5 -17l-29 100q23 12 61.5 23t84.5 11q59 0 97.5 -26t38.5 -75q0 -38 -15.5 -57t-32.5 -32q-15 -10 -27.5 -21t-12.5 -21q0 -3 1 -6.5t2 -7.5z" />
    <glyph glyph-name="uni1EA3" unicode="&#x1ea3;" horiz-adv-x="819" 
d="M324 -9q-79 0 -137.5 35t-91 97.5t-32.5 144.5t32.5 144.5t91.5 98t138 35.5q43 0 79.5 -10.5t64 -29t46 -40.5t28.5 -46l-43 -3v118h198v-535h-203v139l43 -10q-8 -27 -26.5 -52t-46.5 -44t-63.5 -30.5t-77.5 -11.5zM381 156q37 0 64 13t41 38t14 61q0 35 -14 60.5
t-41 39t-64 13.5q-38 0 -64.5 -13.5t-40.5 -39t-14 -60.5q0 -36 14 -61t40.5 -38t64.5 -13zM374 590q-8 9 -15 20.5t-7 25.5q0 15 7 27t27 26q11 8 20.5 15.5t9.5 19.5q0 9 -8.5 14t-22.5 5q-23 0 -46.5 -7t-49.5 -17l-29 100q23 12 61.5 23t84.5 11q59 0 97.5 -26t38.5 -75
q0 -38 -15.5 -57t-32.5 -32q-15 -10 -27.5 -21t-12.5 -21q0 -3 1 -6.5t2 -7.5z" />
    <glyph glyph-name="uni1EA4" unicode="&#x1ea4;" horiz-adv-x="807" 
d="M7 0l309 700h177l307 -700h-216l-142 330q-11 28 -19.5 49.5t-15 41t-12.5 40t-12 45.5h38q-5 -26 -11.5 -47t-13.5 -40t-16 -40t-20 -49l-142 -330h-211zM158 100l65 147h363l46 -147h-474zM261 747l-54 69l145 104h102l145 -104l-54 -69l-157 65h30zM595 891l-72 51
l104 178l110 -79z" />
    <glyph glyph-name="uni1EA5" unicode="&#x1ea5;" horiz-adv-x="819" 
d="M324 -9q-79 0 -137.5 35t-91 97.5t-32.5 144.5t32.5 144.5t91.5 98t138 35.5q43 0 79.5 -10.5t64 -29t46 -40.5t28.5 -46l-43 -3v118h198v-535h-203v139l43 -10q-8 -27 -26.5 -52t-46.5 -44t-63.5 -30.5t-77.5 -11.5zM381 156q37 0 64 13t41 38t14 61q0 35 -14 60.5
t-41 39t-64 13.5q-38 0 -64.5 -13.5t-40.5 -39t-14 -60.5q0 -36 14 -61t40.5 -38t64.5 -13zM259 597l-54 69l145 104h102l145 -104l-54 -69l-157 65h30zM613 761l-72 51l104 178l110 -79z" />
    <glyph glyph-name="uni1EA6" unicode="&#x1ea6;" horiz-adv-x="807" 
d="M7 0l309 700h177l307 -700h-216l-142 330q-11 28 -19.5 49.5t-15 41t-12.5 40t-12 45.5h38q-5 -26 -11.5 -47t-13.5 -40t-16 -40t-20 -49l-142 -330h-211zM158 100l65 147h363l46 -147h-474zM261 747l-54 69l145 104h102l145 -104l-54 -69l-157 65h30zM575 891l-142 150
l110 79l104 -178z" />
    <glyph glyph-name="uni1EA7" unicode="&#x1ea7;" horiz-adv-x="819" 
d="M324 -9q-79 0 -137.5 35t-91 97.5t-32.5 144.5t32.5 144.5t91.5 98t138 35.5q43 0 79.5 -10.5t64 -29t46 -40.5t28.5 -46l-43 -3v118h198v-535h-203v139l43 -10q-8 -27 -26.5 -52t-46.5 -44t-63.5 -30.5t-77.5 -11.5zM381 156q37 0 64 13t41 38t14 61q0 35 -14 60.5
t-41 39t-64 13.5q-38 0 -64.5 -13.5t-40.5 -39t-14 -60.5q0 -36 14 -61t40.5 -38t64.5 -13zM259 596l-54 69l145 104h102l145 -104l-54 -69l-157 65h30zM583 760l-142 150l110 79l104 -178z" />
    <glyph glyph-name="uni1EA8" unicode="&#x1ea8;" horiz-adv-x="807" 
d="M7 0l309 700h177l307 -700h-216l-142 330q-11 28 -19.5 49.5t-15 41t-12.5 40t-12 45.5h38q-5 -26 -11.5 -47t-13.5 -40t-16 -40t-20 -49l-142 -330h-211zM158 100l65 147h363l46 -147h-474zM261 747l-55 69l146 104h102l145 -104l-54 -69l-157 65h30zM567 886
q-10 9 -15.5 20t-5.5 23q1 11 5.5 20t19.5 19q8 6 16.5 13.5t9.5 15.5q0 10 -9.5 15.5t-25.5 5.5q-22 0 -45 -6.5t-47 -14.5l-26 101q21 11 57 20t79 9q62 0 103 -26.5t41 -76.5q0 -36 -17 -53t-38 -29q-14 -7 -25.5 -15.5t-11.5 -19.5q0 -1 -0.5 -2.5t0.5 -3.5z" />
    <glyph glyph-name="uni1EA9" unicode="&#x1ea9;" horiz-adv-x="819" 
d="M324 -9q-79 0 -137.5 35t-91 97.5t-32.5 144.5t32.5 144.5t91.5 98t138 35.5q43 0 79.5 -10.5t64 -29t46 -40.5t28.5 -46l-43 -3v118h198v-535h-203v139l43 -10q-8 -27 -26.5 -52t-46.5 -44t-63.5 -30.5t-77.5 -11.5zM381 156q37 0 64 13t41 38t14 61q0 35 -14 60.5
t-41 39t-64 13.5q-38 0 -64.5 -13.5t-40.5 -39t-14 -60.5q0 -36 14 -61t40.5 -38t64.5 -13zM259 597l-55 69l146 104h102l145 -104l-54 -69l-157 65h30zM565 756q-10 9 -15.5 20t-5.5 23q1 11 5.5 20t19.5 19q8 6 16.5 13.5t9.5 15.5q0 10 -9.5 15.5t-25.5 5.5
q-22 0 -45 -6.5t-47 -14.5l-26 101q21 11 57 20t79 9q62 0 103 -26.5t41 -76.5q0 -36 -17 -53t-38 -29q-14 -7 -25.5 -15.5t-11.5 -19.5q0 -1 -0.5 -2.5t0.5 -3.5z" />
    <glyph glyph-name="uni1EAA" unicode="&#x1eaa;" horiz-adv-x="807" 
d="M7 0l309 700h177l307 -700h-216l-142 330q-11 28 -19.5 49.5t-15 41t-12.5 40t-12 45.5h38q-5 -26 -11.5 -47t-13.5 -40t-16 -40t-20 -49l-142 -330h-211zM158 100l65 147h363l46 -147h-474zM261 747l-54 69l145 104h102l145 -104l-54 -69l-157 65h30zM488 966
q-21 0 -41 5t-43 14q-19 8 -31.5 12t-22.5 4q-19 0 -27.5 -10t-11.5 -27h-109q0 69 36 109.5t94 40.5q21 0 37 -4.5t42 -15.5q17 -7 30 -10.5t23 -3.5q17 0 23 10.5t9 26.5h109q0 -42 -15.5 -76.5t-41.5 -54.5t-60 -20z" />
    <glyph glyph-name="uni1EAB" unicode="&#x1eab;" horiz-adv-x="819" 
d="M324 -9q-79 0 -137.5 35t-91 97.5t-32.5 144.5t32.5 144.5t91.5 98t138 35.5q43 0 79.5 -10.5t64 -29t46 -40.5t28.5 -46l-43 -3v118h198v-535h-203v139l43 -10q-8 -27 -26.5 -52t-46.5 -44t-63.5 -30.5t-77.5 -11.5zM381 156q37 0 64 13t41 38t14 61q0 35 -14 60.5
t-41 39t-64 13.5q-38 0 -64.5 -13.5t-40.5 -39t-14 -60.5q0 -36 14 -61t40.5 -38t64.5 -13zM259 597l-54 69l145 104h102l145 -104l-54 -69l-157 65h30zM481 840q-15 0 -35.5 3.5t-47.5 14.5q-18 8 -30 11t-19 3q-15 0 -26.5 -8.5t-13.5 -26.5l-105 14q0 57 32 96t87 39
q15 0 35 -3t42 -13q17 -7 29 -11t25 -4q14 0 25 9.5t12 25.5l105 -15q0 -34 -14.5 -65t-40.5 -50.5t-60 -19.5z" />
    <glyph glyph-name="uni1EAC" unicode="&#x1eac;" horiz-adv-x="807" 
d="M7 0l309 700h177l307 -700h-216l-142 330q-11 28 -19.5 49.5t-15 41t-12.5 40t-12 45.5h38q-5 -26 -11.5 -47t-13.5 -40t-16 -40t-20 -49l-142 -330h-211zM158 100l65 147h363l46 -147h-474zM403 -237q-56 0 -87.5 26t-31.5 74q0 44 32 72t87 28q56 0 87.5 -26t31.5 -74
q0 -44 -32 -72t-87 -28zM265 753l-58 73l145 111h102l145 -111l-58 -73l-153 76h30z" />
    <glyph glyph-name="uni1EAD" unicode="&#x1ead;" horiz-adv-x="819" 
d="M324 -9q-79 0 -137.5 35t-91 97.5t-32.5 144.5t32.5 144.5t91.5 98t138 35.5q43 0 79.5 -10.5t64 -29t46 -40.5t28.5 -46l-43 -3v118h198v-535h-203v139l43 -10q-8 -27 -26.5 -52t-46.5 -44t-63.5 -30.5t-77.5 -11.5zM381 156q37 0 64 13t41 38t14 61q0 35 -14 60.5
t-41 39t-64 13.5q-38 0 -64.5 -13.5t-40.5 -39t-14 -60.5q0 -36 14 -61t40.5 -38t64.5 -13zM401 -237q-56 0 -87.5 26t-31.5 74q0 44 32 72t87 28q56 0 87.5 -26t31.5 -74q0 -44 -32 -72t-87 -28zM256 596l-72 62l166 142h102l166 -142l-72 -62l-160 96h30z" />
    <glyph glyph-name="uni1EAE" unicode="&#x1eae;" horiz-adv-x="807" 
d="M7 0l309 700h177l307 -700h-216l-142 330q-11 28 -19.5 49.5t-15 41t-12.5 40t-12 45.5h38q-5 -26 -11.5 -47t-13.5 -40t-16 -40t-20 -49l-142 -330h-211zM158 100l65 147h363l46 -147h-474zM403 740q-73 0 -125 39.5t-67 109.5l117 12q11 -31 32.5 -40.5t42.5 -9.5
t42.5 9.5t32.5 40.5l117 -12q-15 -70 -67 -109.5t-125 -39.5zM414 891l-72 51l104 178l110 -79z" />
    <glyph glyph-name="uni1EAF" unicode="&#x1eaf;" horiz-adv-x="819" 
d="M324 -9q-79 0 -137.5 35t-91 97.5t-32.5 144.5t32.5 144.5t91.5 98t138 35.5q43 0 79.5 -10.5t64 -29t46 -40.5t28.5 -46l-43 -3v118h198v-535h-203v139l43 -10q-8 -27 -26.5 -52t-46.5 -44t-63.5 -30.5t-77.5 -11.5zM381 156q37 0 64 13t41 38t14 61q0 35 -14 60.5
t-41 39t-64 13.5q-38 0 -64.5 -13.5t-40.5 -39t-14 -60.5q0 -36 14 -61t40.5 -38t64.5 -13zM401 597q-73 0 -125 39.5t-67 109.5l117 12q11 -31 32.5 -40.5t42.5 -9.5t42.5 9.5t32.5 40.5l117 -12q-15 -70 -67 -109.5t-125 -39.5zM412 781l-72 51l104 178l110 -79z" />
    <glyph glyph-name="uni1EB0" unicode="&#x1eb0;" horiz-adv-x="807" 
d="M7 0l309 700h177l307 -700h-216l-142 330q-11 28 -19.5 49.5t-15 41t-12.5 40t-12 45.5h38q-5 -26 -11.5 -47t-13.5 -40t-16 -40t-20 -49l-142 -330h-211zM158 100l65 147h363l46 -147h-474zM403 740q-73 0 -125 39t-67 110l117 12q11 -31 32.5 -40.5t42.5 -9.5t42.5 9.5
t32.5 40.5l117 -12q-15 -70 -67 -109.5t-125 -39.5zM400 891l-142 150l110 79l104 -178z" />
    <glyph glyph-name="uni1EB1" unicode="&#x1eb1;" horiz-adv-x="819" 
d="M324 -9q-79 0 -137.5 35t-91 97.5t-32.5 144.5t32.5 144.5t91.5 98t138 35.5q43 0 79.5 -10.5t64 -29t46 -40.5t28.5 -46l-43 -3v118h198v-535h-203v139l43 -10q-8 -27 -26.5 -52t-46.5 -44t-63.5 -30.5t-77.5 -11.5zM381 156q37 0 64 13t41 38t14 61q0 35 -14 60.5
t-41 39t-64 13.5q-38 0 -64.5 -13.5t-40.5 -39t-14 -60.5q0 -36 14 -61t40.5 -38t64.5 -13zM401 597q-73 0 -125 39t-67 110l117 12q11 -31 32.5 -40.5t42.5 -9.5t42.5 9.5t32.5 40.5l117 -12q-14 -70 -66 -109.5t-126 -39.5zM398 781l-142 150l110 79l104 -178z" />
    <glyph glyph-name="uni1EB2" unicode="&#x1eb2;" horiz-adv-x="807" 
d="M7 0l309 700h177l307 -700h-216l-142 330q-11 28 -19.5 49.5t-15 41t-12.5 40t-12 45.5h38q-5 -26 -11.5 -47t-13.5 -40t-16 -40t-20 -49l-142 -330h-211zM158 100l65 147h363l46 -147h-474zM403 740q-73 0 -125 39.5t-67 109.5l117 12q9 -31 31.5 -40.5t43.5 -9.5
t43.5 9.5t31.5 40.5l117 -12q-15 -70 -67 -109.5t-125 -39.5zM374 886q-10 9 -15.5 20t-5.5 23q1 11 5.5 20.5t17.5 18.5q8 6 16.5 13.5t9.5 15.5q0 10 -9.5 15.5t-26.5 5.5q-22 0 -44.5 -6t-46.5 -15l-26 101q21 11 57 20t79 9q62 0 103 -26.5t41 -76.5q0 -36 -17 -53
t-38 -29q-14 -7 -25.5 -15.5t-11.5 -19.5q0 -1 -0.5 -2.5t0.5 -3.5z" />
    <glyph glyph-name="uni1EB3" unicode="&#x1eb3;" horiz-adv-x="819" 
d="M324 -9q-79 0 -137.5 35t-91 97.5t-32.5 144.5t32.5 144.5t91.5 98t138 35.5q43 0 79.5 -10.5t64 -29t46 -40.5t28.5 -46l-43 -3v118h198v-535h-203v139l43 -10q-8 -27 -26.5 -52t-46.5 -44t-63.5 -30.5t-77.5 -11.5zM381 156q37 0 64 13t41 38t14 61q0 35 -14 60.5
t-41 39t-64 13.5q-38 0 -64.5 -13.5t-40.5 -39t-14 -60.5q0 -36 14 -61t40.5 -38t64.5 -13zM401 597q-73 0 -125 39t-67 110l117 12q11 -31 32.5 -40.5t42.5 -9.5t42.5 9.5t32.5 40.5l117 -12q-14 -70 -66 -109.5t-126 -39.5zM373 776q-10 9 -15.5 20t-5.5 23q1 11 5.5 20
t19.5 19q8 6 16.5 13.5t9.5 15.5q0 10 -9.5 15.5t-25.5 5.5q-22 0 -45 -6.5t-47 -14.5l-26 101q21 11 57 20t79 9q62 0 103 -26.5t41 -76.5q0 -36 -17 -53t-38 -29q-14 -7 -25.5 -15.5t-11.5 -19.5q0 -1 -0.5 -2.5t0.5 -3.5z" />
    <glyph glyph-name="uni1EB4" unicode="&#x1eb4;" horiz-adv-x="807" 
d="M7 0l309 700h177l307 -700h-216l-142 330q-11 28 -19.5 49.5t-15 41t-12.5 40t-12 45.5h38q-5 -26 -11.5 -47t-13.5 -40t-16 -40t-20 -49l-142 -330h-211zM158 100l65 147h363l46 -147h-474zM403 740q-73 0 -125 39.5t-67 109.5l117 12q11 -31 32.5 -40.5t42.5 -9.5
t42.5 9.5t32.5 40.5l117 -12q-15 -70 -67 -109.5t-125 -39.5zM483 963q-17 0 -35 5t-44 17q-19 9 -31.5 13.5t-22.5 4.5q-19 0 -27.5 -10.5t-11.5 -28.5h-109q0 71 36 112t94 41q21 0 39.5 -6t42.5 -17q17 -8 28.5 -12.5t21.5 -4.5q17 0 23 11t9 29h109q0 -43 -15.5 -78
t-43 -55.5t-63.5 -20.5z" />
    <glyph glyph-name="uni1EB5" unicode="&#x1eb5;" horiz-adv-x="819" 
d="M324 -9q-79 0 -137.5 35t-91 97.5t-32.5 144.5t32.5 144.5t91.5 98t138 35.5q43 0 79.5 -10.5t64 -29t46 -40.5t28.5 -46l-43 -3v118h198v-535h-203v139l43 -10q-8 -27 -26.5 -52t-46.5 -44t-63.5 -30.5t-77.5 -11.5zM381 156q37 0 64 13t41 38t14 61q0 35 -14 60.5
t-41 39t-64 13.5q-38 0 -64.5 -13.5t-40.5 -39t-14 -60.5q0 -36 14 -61t40.5 -38t64.5 -13zM401 597q-73 0 -125 39t-67 110l117 12q11 -31 32.5 -40.5t42.5 -9.5t42.5 9.5t32.5 40.5l117 -12q-14 -70 -66 -109.5t-126 -39.5zM481 840q-15 0 -35.5 3.5t-47.5 14.5
q-18 8 -30 11t-19 3q-15 0 -26.5 -8.5t-13.5 -26.5l-105 14q0 57 32 96t87 39q15 0 35 -3t42 -13q17 -7 29 -11t25 -4q14 0 25 9.5t12 25.5l105 -15q0 -34 -14.5 -65t-40.5 -50.5t-60 -19.5z" />
    <glyph glyph-name="uni1EB6" unicode="&#x1eb6;" horiz-adv-x="807" 
d="M7 0l309 700h177l307 -700h-216l-142 330q-11 28 -19.5 49.5t-15 41t-12.5 40t-12 45.5h38q-5 -26 -11.5 -47t-13.5 -40t-16 -40t-20 -49l-142 -330h-211zM158 100l65 147h363l46 -147h-474zM403 -237q-56 0 -87.5 26t-31.5 74q0 44 32 72t87 28q56 0 87.5 -26t31.5 -74
q0 -44 -32 -72t-87 -28zM403 762q-48 0 -88 19.5t-67 56.5t-37 88l124 12q9 -26 28 -40.5t40 -14.5t40 14.5t28 40.5l124 -12q-10 -51 -37 -88t-66.5 -56.5t-88.5 -19.5z" />
    <glyph glyph-name="uni1EB7" unicode="&#x1eb7;" horiz-adv-x="819" 
d="M324 -9q-79 0 -137.5 35t-91 97.5t-32.5 144.5t32.5 144.5t91.5 98t138 35.5q43 0 79.5 -10.5t64 -29t46 -40.5t28.5 -46l-43 -3v118h198v-535h-203v139l43 -10q-8 -27 -26.5 -52t-46.5 -44t-63.5 -30.5t-77.5 -11.5zM381 156q37 0 64 13t41 38t14 61q0 35 -14 60.5
t-41 39t-64 13.5q-38 0 -64.5 -13.5t-40.5 -39t-14 -60.5q0 -36 14 -61t40.5 -38t64.5 -13zM401 -237q-56 0 -87.5 26t-31.5 74q0 44 32 72t87 28q56 0 87.5 -26t31.5 -74q0 -44 -32 -72t-87 -28zM401 610q-73 0 -125 43.5t-67 120.5l124 12q9 -26 28 -40.5t40 -14.5
t40 14.5t28 40.5l124 -12q-15 -77 -67 -120.5t-125 -43.5z" />
    <glyph glyph-name="uni1EB8" unicode="&#x1eb8;" horiz-adv-x="792" 
d="M114 0v700h579v-175h-372v-350h390v-175h-597zM221 272v164h435v-164h-435zM396 -237q-56 0 -87.5 26t-31.5 74q0 44 32 72t87 28q56 0 87.5 -26t31.5 -74q0 -44 -32 -72t-87 -28z" />
    <glyph glyph-name="uni1EB9" unicode="&#x1eb9;" horiz-adv-x="724" 
d="M393 -10q-102 0 -176.5 36t-114.5 98.5t-40 143.5q0 62 23 113t64.5 88t96.5 57t119 20q65 0 119 -20t93.5 -57.5t61 -88.5t19.5 -112l-1 -43h-475l-23 102h337l-19 -26v18q-1 19 -15.5 34.5t-38.5 24.5t-54 9q-35 0 -62.5 -11.5t-43.5 -34.5t-16 -57q0 -36 20.5 -64
t59 -44.5t93.5 -16.5q47 0 76.5 9.5t50.5 22.5l90 -127q-39 -27 -79 -43.5t-80.5 -23.5t-84.5 -7zM395 -237q-56 0 -87.5 26t-31.5 74q0 44 32 72t87 28q56 0 87.5 -26t31.5 -74q0 -44 -32 -72t-87 -28z" />
    <glyph glyph-name="uni1EBA" unicode="&#x1eba;" horiz-adv-x="792" 
d="M114 0v700h579v-175h-372v-350h390v-175h-597zM221 272v164h435v-164h-435zM393 737q-8 9 -15 20.5t-7 25.5q0 15 7 27t27 26q11 8 20.5 15.5t9.5 19.5q0 9 -8.5 14t-22.5 5q-23 0 -46.5 -7t-49.5 -17l-29 100q23 12 61.5 23t84.5 11q59 0 97.5 -26t38.5 -75
q0 -38 -15.5 -57t-32.5 -32q-15 -10 -27.5 -21t-12.5 -21q0 -3 1 -6.5t2 -7.5z" />
    <glyph glyph-name="uni1EBB" unicode="&#x1ebb;" horiz-adv-x="724" 
d="M393 -10q-102 0 -176.5 36t-114.5 98.5t-40 143.5q0 62 23 113t64.5 88t96.5 57t119 20q65 0 119 -20t93.5 -57.5t61 -88.5t19.5 -112l-1 -43h-475l-23 102h337l-19 -26v18q-1 19 -15.5 34.5t-38.5 24.5t-54 9q-35 0 -62.5 -11.5t-43.5 -34.5t-16 -57q0 -36 20.5 -64
t59 -44.5t93.5 -16.5q47 0 76.5 9.5t50.5 22.5l90 -127q-39 -27 -79 -43.5t-80.5 -23.5t-84.5 -7zM338 590q-8 9 -15 20.5t-7 25.5q0 15 7 27t27 26q11 8 20.5 15.5t9.5 19.5q0 9 -8.5 14t-22.5 5q-23 0 -46.5 -7t-49.5 -17l-29 100q23 12 61.5 23t84.5 11q59 0 97.5 -26
t38.5 -75q0 -38 -15.5 -57t-32.5 -32q-15 -10 -27.5 -21t-12.5 -21q0 -3 1 -6.5t2 -7.5z" />
    <glyph glyph-name="uni1EBC" unicode="&#x1ebc;" horiz-adv-x="792" 
d="M114 0v700h579v-175h-372v-350h390v-175h-597zM221 272v164h435v-164h-435zM499 768q-17 0 -35 5t-44 17q-19 9 -31.5 13.5t-22.5 4.5q-15 0 -23 -10.5t-8 -28.5h-117q0 75 37 119t101 44q15 0 31 -3.5t48 -19.5q18 -9 27 -13t18 -4q13 0 19.5 11t5.5 29h116
q0 -46 -15.5 -83.5t-43 -59t-63.5 -21.5z" />
    <glyph glyph-name="uni1EBD" unicode="&#x1ebd;" horiz-adv-x="724" 
d="M393 -10q-102 0 -176.5 36t-114.5 98.5t-40 143.5q0 62 23 113t64.5 88t96.5 57t119 20q65 0 119 -20t93.5 -57.5t61 -88.5t19.5 -112l-1 -43h-475l-23 102h337l-19 -26v18q-1 19 -15.5 34.5t-38.5 24.5t-54 9q-35 0 -62.5 -11.5t-43.5 -34.5t-16 -57q0 -36 20.5 -64
t59 -44.5t93.5 -16.5q47 0 76.5 9.5t50.5 22.5l90 -127q-39 -27 -79 -43.5t-80.5 -23.5t-84.5 -7zM446 613q-15 0 -35.5 4.5t-49.5 23.5q-17 12 -28.5 16.5t-18.5 4.5q-15 0 -26.5 -9.5t-13.5 -30.5l-105 14q0 62 32 104.5t87 42.5q15 0 34.5 -4t47.5 -22q9 -6 22.5 -14
t26.5 -8q14 0 25 10t12 30l105 -15q0 -38 -14.5 -72t-40.5 -54.5t-60 -20.5z" />
    <glyph glyph-name="uni1EBE" unicode="&#x1ebe;" horiz-adv-x="792" 
d="M114 0v700h579v-175h-372v-350h390v-175h-597zM221 272v164h435v-164h-435zM278 747l-54 69l145 104h102l145 -104l-54 -69l-157 65h30zM612 891l-72 51l104 178l110 -79z" />
    <glyph glyph-name="uni1EBF" unicode="&#x1ebf;" horiz-adv-x="724" 
d="M393 -10q-102 0 -176.5 36t-114.5 98.5t-40 143.5q0 62 23 113t64.5 88t96.5 57t119 20q65 0 119 -20t93.5 -57.5t61 -88.5t19.5 -112l-1 -43h-475l-23 102h337l-19 -26v18q-1 19 -15.5 34.5t-38.5 24.5t-54 9q-35 0 -62.5 -11.5t-43.5 -34.5t-16 -57q0 -36 20.5 -64
t59 -44.5t93.5 -16.5q47 0 76.5 9.5t50.5 22.5l90 -127q-39 -27 -79 -43.5t-80.5 -23.5t-84.5 -7zM223 597l-54 69l145 104h102l145 -104l-54 -69l-157 65h30zM577 761l-72 51l104 178l110 -79z" />
    <glyph glyph-name="uni1EC0" unicode="&#x1ec0;" horiz-adv-x="792" 
d="M114 0v700h579v-175h-372v-350h390v-175h-597zM221 272v164h435v-164h-435zM278 747l-54 69l145 104h102l145 -104l-54 -69l-157 65h30zM592 891l-142 150l110 79l104 -178z" />
    </font>
</defs>
</svg>
