<?xml version="1.0" standalone="no"?>
<!DOCTYPE svg PUBLIC "-//W3C//DTD SVG 1.1//EN" "http://www.w3.org/Graphics/SVG/1.1/DTD/svg11.dtd" >
<svg xmlns="http://www.w3.org/2000/svg" xmlns:xlink="http://www.w3.org/1999/xlink" version="1.1">
<metadata>
Created by FontForge 20201107 at Fri Jul 30 19:18:20 2021
 By 
Copyright 2019 The Lexend Project Authors (https://github.com/googlefonts/lexend)
</metadata>
<defs>
<font id="LexendExa-Light" horiz-adv-x="0" >
  <font-face 
    font-family="Lexend Exa Light"
    font-weight="300"
    font-stretch="normal"
    units-per-em="1000"
    panose-1="0 0 0 0 0 0 0 0 0 0"
    ascent="800"
    descent="-200"
    x-height="522"
    cap-height="700"
    bbox="-212 -237 1658 1103"
    underline-thickness="50"
    underline-position="-125"
    unicode-range="U+000D-FB02"
  />
<missing-glyph horiz-adv-x="584" 
d="M75 0q-35 0 -35 35v630q0 35 35 35h434q35 0 35 -35v-630q0 -35 -35 -35h-434zM75 30h413q3 0 4 2t-1 4l-415 599q-2 3 -4 2.5t-2 -4.5v-598q0 -5 5 -5zM508 65q2 -3 4 -2.5t2 4.5v598q0 5 -5 5h-414q-3 0 -4 -2t1 -4z" />
    <glyph glyph-name="fi" unicode="fi" horiz-adv-x="876" 
d="M189 0v579q0 46 20 81.5t57 56t86 20.5q38 0 68 -12t48 -31l-26 -62q-18 16 -41 25.5t-45 9.5q-33 0 -54 -11.5t-30.5 -31.5t-9.5 -45v-579h-33h-20h-20zM80 446v69h358v-69h-358zM657 0v522h76v-522h-76zM694 637q-27 0 -42 14.5t-15 40.5q0 24 15.5 39.5t41.5 15.5
q28 0 42.5 -14.5t14.5 -40.5q0 -24 -15 -39.5t-42 -15.5z" />
    <glyph glyph-name="fl" unicode="fl" horiz-adv-x="841" 
d="M189 0v579q0 46 20 81.5t57 56t86 20.5q38 0 68 -12t48 -31l-26 -62q-18 16 -41 25.5t-45 9.5q-33 0 -54 -11.5t-30.5 -31.5t-9.5 -45v-579h-33h-20h-20zM80 446v69h358v-69h-358zM639 0v740h75v-740h-75z" />
    <glyph glyph-name="f_f" unicode="ff" horiz-adv-x="1026" 
d="M189 0v579q0 46 20 81.5t57 56t86 20.5q38 0 68 -12t48 -31l-26 -62q-18 16 -41 25.5t-45 9.5q-33 0 -54 -11.5t-30.5 -31.5t-9.5 -45v-579h-33h-20h-20zM80 446v69h358v-69h-358zM702 0v579q0 46 20 81.5t57 56t86 20.5q38 0 68 -12t48 -31l-26 -62q-18 16 -41 25.5
t-45 9.5q-33 0 -54 -11.5t-30.5 -31.5t-9.5 -45v-579h-33h-20h-20zM593 446v69h358v-69h-358z" />
    <glyph glyph-name="f_f_i" unicode="ffi" horiz-adv-x="1389" 
d="M189 0v579q0 46 20 81.5t57 56t86 20.5q38 0 68 -12t48 -31l-26 -62q-18 16 -41 25.5t-45 9.5q-33 0 -54 -11.5t-30.5 -31.5t-9.5 -45v-579h-33h-20h-20zM80 446v69h358v-69h-358zM702 0v579q0 46 20 81.5t57 56t86 20.5q38 0 68 -12t48 -31l-26 -62q-18 16 -41 25.5
t-45 9.5q-33 0 -54 -11.5t-30.5 -31.5t-9.5 -45v-579h-33h-20h-20zM593 446v69h358v-69h-358zM1170 0v522h76v-522h-76zM1207 637q-27 0 -42 14.5t-15 40.5q0 24 15.5 39.5t41.5 15.5q28 0 42.5 -14.5t14.5 -40.5q0 -24 -15 -39.5t-42 -15.5z" />
    <glyph glyph-name="f_f_l" unicode="ffl" horiz-adv-x="1353" 
d="M189 0v579q0 46 20 81.5t57 56t86 20.5q38 0 68 -12t48 -31l-26 -62q-18 16 -41 25.5t-45 9.5q-33 0 -54 -11.5t-30.5 -31.5t-9.5 -45v-579h-33h-20h-20zM80 446v69h358v-69h-358zM702 0v579q0 46 20 81.5t57 56t86 20.5q38 0 68 -12t48 -31l-26 -62q-18 16 -41 25.5
t-45 9.5q-33 0 -54 -11.5t-30.5 -31.5t-9.5 -45v-579h-33h-20h-20zM593 446v69h358v-69h-358zM1152 0v740h75v-740h-75z" />
    <glyph glyph-name=".notdef" horiz-adv-x="584" 
d="M75 0q-35 0 -35 35v630q0 35 35 35h434q35 0 35 -35v-630q0 -35 -35 -35h-434zM75 30h413q3 0 4 2t-1 4l-415 599q-2 3 -4 2.5t-2 -4.5v-598q0 -5 5 -5zM508 65q2 -3 4 -2.5t2 4.5v598q0 5 -5 5h-414q-3 0 -4 -2t1 -4z" />
    <glyph glyph-name=".null" 
 />
    <glyph glyph-name="nonmarkingreturn" horiz-adv-x="333" 
 />
    <glyph glyph-name="CR" unicode="&#xd;" horiz-adv-x="297" 
 />
    <glyph glyph-name="space" unicode=" " horiz-adv-x="362" 
 />
    <glyph glyph-name="exclam" unicode="!" horiz-adv-x="367" 
d="M164 241q-8 65 -14.5 136t-9.5 143t-3 137v43h97v-43q0 -67 -3 -140t-9 -144t-16 -132h-42zM183 -10q-32 0 -49 16.5t-17 45.5q0 26 17.5 43.5t48.5 17.5q32 0 49 -16.5t17 -44.5q0 -26 -17.5 -44t-48.5 -18z" />
    <glyph glyph-name="quotedbl" unicode="&#x22;" horiz-adv-x="478" 
d="M280 434l24 266h102l-73 -266h-53zM73 434l24 266h103l-74 -266h-53z" />
    <glyph glyph-name="numbersign" unicode="#" horiz-adv-x="784" 
d="M452 0l120 700h72l-119 -700h-73zM77 153l17 162h538l-17 -162h-538zM135 29l103 605h168l-102 -605h-169zM97 455v68h633v-68h-633z" />
    <glyph glyph-name="dollar" unicode="$" horiz-adv-x="732" 
d="M373 -10q-91 0 -166 33t-126 94l53 62q49 -56 107 -86t135 -30q53 0 97 15t69.5 43.5t25.5 67.5q0 25 -11 43t-31 31t-46.5 22.5t-57.5 16.5t-65 12q-79 13 -133 37.5t-82 64.5t-28 97q0 43 19.5 79t55 62t82.5 40t102 14q92 0 156.5 -30t102.5 -84l-54 -56
q-35 44 -86 71t-120 27q-51 0 -90.5 -15t-63 -41.5t-23.5 -62.5q0 -27 12.5 -47t36 -34.5t60.5 -25t86 -19.5q55 -9 102.5 -24t82.5 -36.5t54.5 -53.5t19.5 -77q0 -62 -34.5 -109.5t-96.5 -74t-145 -26.5zM323 -91v453l75 -33v-420h-75zM419 329l-75 33v420h75v-453z" />
    <glyph glyph-name="percent" unicode="%" horiz-adv-x="972" 
d="M200 0l473 700h81l-476 -700h-78zM228 305q-49 0 -86.5 26.5t-58 72t-20.5 102.5q0 58 20.5 104t58.5 72.5t87 26.5t86.5 -26.5t58 -72.5t20.5 -104q0 -56 -21.5 -101.5t-59 -72.5t-85.5 -27zM229 369q29 0 50.5 17.5t32 48t10.5 72.5q0 41 -10.5 72.5t-32 48.5t-51.5 17
t-51.5 -17.5t-32.5 -49t-11 -72.5q0 -42 11.5 -73t32.5 -47.5t52 -16.5zM735 -12q-50 0 -87 26.5t-58 72t-21 102.5q0 58 20.5 104t58.5 72.5t87 26.5t86.5 -26.5t58 -72.5t20.5 -104q0 -56 -21.5 -101.5t-58.5 -72.5t-85 -27zM735 52q30 0 51.5 17.5t32 48t10.5 72.5
q0 41 -11 72t-32.5 48.5t-50.5 17.5q-30 0 -51.5 -17.5t-32.5 -48.5t-11 -73t11.5 -72.5t32.5 -47.5t51 -17z" />
    <glyph glyph-name="ampersand" unicode="&#x26;" horiz-adv-x="831" 
d="M650 0l-78 81l-22 25l-196 199q-32 32 -59 61.5t-48.5 56.5t-33 53.5t-11.5 54.5q0 48 27 88.5t77 65t116 24.5q56 0 100.5 -17t78 -47t51.5 -69l-57 -44q-29 57 -73 81t-98 24q-42 0 -72.5 -12t-47 -34.5t-16.5 -55.5q0 -22 12 -46t30 -46t37.5 -41.5t32.5 -33.5
l210 -211l24 -27l121 -130h-105zM368 -11q-89 0 -152 29t-97.5 80t-34.5 114q0 72 45.5 130.5t135.5 91.5l50 -56q-75 -19 -110.5 -60t-35.5 -96q0 -44 24.5 -80t71 -57t112.5 -21q48 0 93 16.5t81 49.5t59.5 83t30.5 117h79q-5 -67 -27.5 -121t-55.5 -95.5t-75.5 -69
t-91.5 -41.5t-102 -14z" />
    <glyph glyph-name="quotesingle" unicode="'" horiz-adv-x="265" 
d="M73 434l24 266h96l-73 -266h-47z" />
    <glyph glyph-name="parenleft" unicode="(" horiz-adv-x="484" 
d="M367 -184q-152 77 -228 191.5t-76 250.5q0 135 76.5 250.5t228.5 192.5l41 -52q-133 -76 -200.5 -175.5t-67.5 -215.5t67.5 -216t200.5 -175z" />
    <glyph glyph-name="parenright" unicode=")" horiz-adv-x="484" 
d="M116 -185l-41 52q133 76 200.5 175.5t67.5 215.5t-67.5 216t-200.5 175l42 51q151 -77 227.5 -191.5t76.5 -250.5q0 -135 -77 -250.5t-228 -192.5z" />
    <glyph glyph-name="asterisk" unicode="*" horiz-adv-x="501" 
d="M219 360l8 136l6 -5l-120 -78l-32 55l142 71l-8 -18l-138 69l35 54l127 -81l-12 -8l-8 145h65l-9 -149l-11 11l127 81l32 -55l-137 -69l-2 19l139 -68l-36 -55l-122 78l11 3l8 -136h-65z" />
    <glyph glyph-name="plus" unicode="+" horiz-adv-x="707" 
d="M84 251v74h539v-74h-539zM309 26l3 582l85 -67l-3 -582z" />
    <glyph glyph-name="comma" unicode="," horiz-adv-x="345" 
d="M120 -171l-30 38q35 21 55.5 43.5t20.5 43.5q0 13 -6 23t-23 23q-14 12 -24 24t-10 29q0 24 16.5 37t41.5 13t45.5 -13t31.5 -36.5t11 -54.5q0 -27 -9 -51.5t-26.5 -46t-40.5 -40t-53 -32.5z" />
    <glyph glyph-name="hyphen" unicode="-" horiz-adv-x="480" 
d="M85 242v75h310v-75h-310z" />
    <glyph glyph-name="period" unicode="." horiz-adv-x="356" 
d="M178 -10q-32 0 -48.5 16t-16.5 46q0 26 17 44t48 18q32 0 48.5 -16.5t16.5 -45.5q0 -26 -17 -44t-48 -18z" />
    <glyph glyph-name="slash" unicode="/" horiz-adv-x="656" 
d="M76 -119l406 819h85l-405 -819h-86z" />
    <glyph glyph-name="zero" unicode="0" horiz-adv-x="699" 
d="M352 -10q-91 0 -154 44t-95.5 125t-32.5 191t32.5 191t95.5 125t154 44q89 0 151 -44t94.5 -125t32.5 -191t-32.5 -191t-94.5 -125t-151 -44zM352 63q95 0 147 75t52 212t-52 212t-147 75q-98 0 -151 -75t-53 -212t53 -212t151 -75z" />
    <glyph glyph-name="one" unicode="1" horiz-adv-x="523" 
d="M243 34v607l31 -15l-144 -87l-26 69l175 102h42v-676h-78zM125 0v76h307v-76h-307z" />
    <glyph glyph-name="two" unicode="2" horiz-adv-x="639" 
d="M117 0l-24 60l243 250q22 21 45 47t44 54t34 56t13 53q0 38 -16.5 63.5t-48.5 39t-76 13.5q-37 0 -74 -14.5t-68.5 -46t-53.5 -84.5l-60 38q23 58 62 98.5t90.5 61.5t111.5 21q63 0 111.5 -23.5t76 -65t27.5 -96.5q0 -29 -9.5 -57t-25.5 -54.5t-37 -52t-44 -51t-47 -50.5
l-207 -215l-10 30h402v-75h-459z" />
    <glyph glyph-name="three" unicode="3" horiz-adv-x="623" 
d="M304 -10q-84 0 -146 37t-110 111l63 45q26 -39 56 -65.5t65 -41t75 -14.5q48 0 88.5 19t64.5 53.5t24 82.5q0 45 -21.5 78t-57.5 51t-81 18q-19 0 -38 -3.5t-37.5 -11.5t-39.5 -23l-26 57l265 273l10 -29h-361v73h421l19 -49l-256 -258l-21 28q14 8 34 12.5t42 4.5
q47 0 88.5 -16.5t71.5 -46t47.5 -68.5t17.5 -85q0 -68 -34 -120.5t-91.5 -82t-131.5 -29.5z" />
    <glyph glyph-name="four" unicode="4" horiz-adv-x="683" 
d="M420 0v631l32 -5l-334 -391l-7 29h523v-74h-543l-37 74l374 436h68v-700h-76z" />
    <glyph glyph-name="five" unicode="5" horiz-adv-x="644" 
d="M301 -7q-73 0 -133.5 31.5t-100.5 85.5l46 56q43 -52 91 -75.5t98 -23.5q55 0 97.5 22.5t67.5 61t25 87.5q0 44 -23.5 80t-63.5 57t-91 21q-34 0 -65.5 -7t-58 -19t-50.5 -24l-44 57l41 297h394v-73h-353l24 18l-37 -244l-21 16q17 13 46 24.5t65 19t70 7.5
q69 0 123.5 -29t87 -80.5t32.5 -119.5q0 -70 -34.5 -125.5t-95 -88t-137.5 -32.5z" />
    <glyph glyph-name="six" unicode="6" horiz-adv-x="668" 
d="M336 -5q-54 0 -101.5 18t-82.5 51t-54.5 79t-19.5 100q0 32 9 67t26 72.5t40 77t51 78.5l118 168h83l4 -10l-139 -190q-27 -36 -50 -75t-42.5 -81t-35.5 -85l-25 64q18 31 42 56.5t53.5 45.5t65.5 30.5t76 10.5q66 0 119 -30.5t85 -82.5t32 -118q0 -68 -33 -124.5
t-90.5 -89t-130.5 -32.5zM333 68q49 0 90 21.5t65 59t24 85.5q0 44 -23 81.5t-63 60t-92 22.5q-53 0 -93 -22.5t-62.5 -59.5t-22.5 -81q0 -45 22.5 -83t62.5 -61t92 -23z" />
    <glyph glyph-name="seven" unicode="7" horiz-adv-x="578" 
d="M147 0l294 654l13 -27h-403v73h451l13 -60l-283 -640h-85z" />
    <glyph glyph-name="eight" unicode="8" horiz-adv-x="674" 
d="M337 -3q-73 0 -131 28t-91.5 75t-33.5 104q0 34 11 62t31.5 50t48.5 40t63 31l-7 -26q-26 7 -48 21.5t-38 34.5t-25 45t-9 53q0 51 30.5 93t82 67t116.5 25q63 0 115 -24.5t82 -67t30 -93.5q0 -29 -9 -54t-25 -45t-38 -33.5t-47 -21.5l-4 22q34 -11 61.5 -29.5t48 -42
t31.5 -51t11 -56.5q0 -58 -33.5 -104.5t-91.5 -74.5t-131 -28zM337 71q51 0 90.5 18t63.5 48t24 68t-24 67.5t-64 45.5t-90 16t-91 -16t-64.5 -45.5t-23.5 -67.5q0 -37 23.5 -67.5t64 -48.5t91.5 -18zM337 400q43 0 76.5 15t53 40.5t19.5 58.5q0 32 -19.5 57t-53.5 40
t-76 15q-44 0 -77.5 -15t-53.5 -40t-20 -56q0 -34 20.5 -60t54.5 -40.5t76 -14.5z" />
    <glyph glyph-name="nine" unicode="9" horiz-adv-x="640" 
d="M297 0l-4 10l226 424l5 -42q-19 -33 -43.5 -60.5t-53.5 -47t-61.5 -30.5t-69.5 -11q-63 0 -115 30.5t-83 81.5t-31 114q0 69 34 123.5t93 86.5t131 32q52 0 97 -18t79.5 -49.5t54 -74.5t19.5 -93q0 -31 -10 -67.5t-26 -75.5t-36.5 -80t-40.5 -80l-89 -173h-76zM318 317
q52 0 91.5 22t62 58t22.5 78q0 45 -22 82t-61.5 58.5t-91.5 21.5q-47 0 -86.5 -21t-62.5 -56.5t-23 -82.5q0 -43 21.5 -79.5t61 -58.5t88.5 -22z" />
    <glyph glyph-name="colon" unicode=":" horiz-adv-x="356" 
d="M178 -10q-32 0 -48.5 16t-16.5 46q0 26 17 44t48 18q32 0 48.5 -16.5t16.5 -45.5q0 -26 -17 -44t-48 -18zM178 409q-32 0 -48.5 16t-16.5 46q0 26 17 44t48 18q32 0 48.5 -16.5t16.5 -45.5q0 -26 -17 -44t-48 -18z" />
    <glyph glyph-name="semicolon" unicode=";" horiz-adv-x="377" 
d="M143 -171l-30 38q35 21 55.5 43.5t20.5 43.5q0 13 -6 23t-23 23q-14 12 -24 24t-10 29q0 24 16.5 37t41.5 13t45.5 -13t31.5 -36.5t11 -54.5q0 -27 -9 -51.5t-26.5 -46t-40.5 -40t-53 -32.5zM209 409q-32 0 -48.5 16t-16.5 46q0 26 17 44t48 18q32 0 48.5 -16.5
t16.5 -45.5q0 -26 -17 -44t-48 -18z" />
    <glyph glyph-name="less" unicode="&#x3c;" horiz-adv-x="604" 
d="M476 15l-408 204v66l408 204l35 -58l-407 -204l1 50l406 -204z" />
    <glyph glyph-name="equal" unicode="=" horiz-adv-x="678" 
d="M83 337v72h512v-72h-512zM83 153v72h512v-72h-512z" />
    <glyph glyph-name="greater" unicode="&#x3e;" horiz-adv-x="604" 
d="M127 15l-34 58l406 204v-50l-406 204l34 58l409 -204v-66z" />
    <glyph glyph-name="question" unicode="?" horiz-adv-x="631" 
d="M269 206l-17 137q39 9 72 21t60 27t45.5 33t28 40t9.5 46q0 36 -20 63t-53.5 41.5t-74.5 14.5q-58 0 -108 -27t-89 -82l-54 52q47 62 112.5 98t143.5 36q66 0 118 -26t82 -70t30 -99q0 -36 -16.5 -69t-45.5 -61t-67 -49t-81 -34l-14 -92h-61zM236 52q0 26 17.5 44
t48.5 18q32 0 49 -16.5t17 -45.5q0 -26 -17.5 -44t-48.5 -18q-32 0 -49 16t-17 46z" />
    <glyph glyph-name="at" unicode="@" horiz-adv-x="1100" 
d="M455 -170q-87 0 -158.5 28.5t-123.5 79t-80 120.5t-28 154q0 113 43.5 206.5t120.5 160.5t177.5 103t216.5 36q97 0 173 -25.5t129.5 -71.5t81.5 -107.5t28 -134.5q0 -74 -21.5 -133.5t-59.5 -102.5t-86 -65.5t-101 -22.5q-35 0 -59 13.5t-36 35t-12 49.5q0 14 4 31.5
t10 43.5l18 -14q-20 -48 -54.5 -84t-79 -55.5t-95.5 -19.5q-48 0 -87 22.5t-61 62.5t-22 95q0 50 18.5 99t53 88t82 62t104.5 23q43 0 77 -15.5t57 -43.5t33 -67l-23 -34l22 146h74l-54 -286q-5 -29 -0.5 -48t17.5 -29.5t33 -10.5q34 0 65.5 18t57 52t40.5 81t15 105
q0 84 -41 146.5t-118.5 98t-184.5 35.5t-196.5 -33t-153.5 -92t-100 -139.5t-36 -175.5q0 -73 23.5 -131.5t66 -100.5t102.5 -65t130 -23q52 0 90.5 8t73.5 22t77 34l28 -56q-41 -22 -84 -38t-90 -25.5t-97 -9.5zM482 123q47 0 86 20t67.5 55.5t39.5 80.5q4 14 6.5 26
t1.5 22q2 36 -14 61.5t-45 39.5t-66 14q-52 0 -93.5 -28t-67 -74t-25.5 -101q0 -52 30.5 -84t79.5 -32z" />
    <glyph glyph-name="A" unicode="A" horiz-adv-x="790" 
d="M53 0l297 700h92l295 -700h-86l-202 478q-9 24 -17.5 46.5t-17 44t-16.5 43.5l-16 44h22q-9 -26 -17 -48.5t-16.5 -43.5t-17.5 -43t-19 -48l-201 -473h-80zM177 189l31 76h369l26 -76h-426z" />
    <glyph glyph-name="B" unicode="B" horiz-adv-x="797" 
d="M137 0v700h322q69 0 117.5 -21t75.5 -60.5t27 -94.5q0 -57 -35 -98.5t-97 -57.5l1 18q48 -9 85.5 -33t60 -61.5t22.5 -85.5q0 -51 -19.5 -90t-52 -64.5t-75.5 -38.5t-93 -13h-339zM215 76h256q48 0 84 14.5t57.5 43.5t21.5 69t-22.5 67t-60.5 41t-85 14h-251v-249z
M215 401h248q39 0 69.5 14.5t48 39.5t17.5 58q0 53 -39 82t-105 29h-239v-223z" />
    <glyph glyph-name="C" unicode="C" horiz-adv-x="797" 
d="M454 -10q-80 0 -148 26.5t-119 75t-78.5 114t-27.5 144.5q0 77 28 141.5t78.5 112.5t118 74.5t145.5 26.5q55 0 108 -16t97.5 -42.5t72.5 -59.5l-51 -62q-28 32 -64.5 54.5t-78.5 35.5t-87 13q-59 0 -112 -20t-91.5 -57.5t-60.5 -88.5t-22 -112q0 -63 22.5 -115.5
t63 -89.5t94.5 -57.5t118 -20.5q46 0 87.5 12.5t75 33t57.5 46.5l39 -66q-25 -27 -67 -50.5t-93.5 -38t-104.5 -14.5z" />
    <glyph glyph-name="D" unicode="D" horiz-adv-x="867" 
d="M137 0v700h296q80 0 144.5 -26t111.5 -73.5t72 -111t25 -139.5t-25 -140t-71.5 -111t-111.5 -73t-145 -26h-296zM215 62l-9 14h222q63 0 114.5 20.5t87 57t55 86t19.5 110.5q0 60 -19.5 110t-55.5 86.5t-87 57t-114 20.5h-225l12 12v-574z" />
    <glyph glyph-name="E" unicode="E" horiz-adv-x="723" 
d="M137 0v700h480v-76h-402v-548h400v-76h-478zM176 322v76h385v-76h-385z" />
    <glyph glyph-name="F" unicode="F" horiz-adv-x="711" 
d="M137 0v700h78v-700h-78zM173 308v77h405v-77h-405zM176 624v76h449v-76h-449z" />
    <glyph glyph-name="G" unicode="G" horiz-adv-x="890" 
d="M470 -10q-82 0 -152.5 25.5t-123.5 73t-83 114t-30 146.5q0 76 29.5 141t82 113.5t123.5 75t153 26.5q60 0 115.5 -15.5t101 -41.5t71.5 -59l-50 -55q-30 28 -68.5 49t-82 33.5t-86.5 12.5q-65 0 -121 -21t-98 -58.5t-65 -89t-23 -111.5q0 -64 23.5 -115.5t67 -89
t99.5 -57.5t121 -20q54 0 102.5 14.5t84.5 40.5t56 60.5t19 73.5v31l18 -23h-282v77h344q1 -9 2 -18.5t1.5 -19t0.5 -16.5q0 -66 -27 -120t-74.5 -93.5t-111 -61.5t-137.5 -22z" />
    <glyph glyph-name="H" unicode="H" horiz-adv-x="875" 
d="M661 0v700h78v-700h-78zM137 0v700h78v-700h-78zM175 309v76h519v-76h-519z" />
    <glyph glyph-name="I" unicode="I" horiz-adv-x="594" 
d="M117 0v76h141v548h-141v76h360v-76h-141v-548h141v-76h-360z" />
    <glyph glyph-name="J" unicode="J" horiz-adv-x="728" 
d="M321 -10q-43 0 -79 12t-65.5 32t-51 45t-34.5 50l53 56q17 -29 36.5 -51.5t41.5 -37.5t47 -23t52 -8q50 0 88 23.5t58.5 64t20.5 90.5v381h-145v76h338v-76h-113v-387q0 -50 -17 -95t-49 -79.5t-78 -53.5t-103 -19z" />
    <glyph glyph-name="K" unicode="K" horiz-adv-x="835" 
d="M192 201l-1 94l454 405h111zM137 0v700h78v-700h-78zM659 0l-298 381l55 55l344 -436h-101z" />
    <glyph glyph-name="L" unicode="L" horiz-adv-x="681" 
d="M137 0v700h78v-624h392v-76h-470z" />
    <glyph glyph-name="M" unicode="M" horiz-adv-x="983" 
d="M137 0v700h77l294 -431l-33 1l298 430h73v-700h-78v323q0 87 3 159.5t11 145.5l13 -29l-279 -394h-53l-273 392l11 30q8 -69 11 -140t3 -164v-323h-78z" />
    <glyph glyph-name="N" unicode="N" horiz-adv-x="918" 
d="M137 0v700h74l516 -608l-11 -18q-4 19 -5.5 54t-3 77.5t-2.5 87t-1 84v66.5v257h78v-700h-77l-512 598l8 21q2 -29 3.5 -63t4 -69.5t4 -68.5t2 -59t0.5 -41v-318h-78z" />
    <glyph glyph-name="O" unicode="O" horiz-adv-x="913" 
d="M456 -10q-82 0 -150 26.5t-119 75t-78.5 114t-27.5 142.5t27.5 142.5t78.5 114.5t119 75.5t150 26.5t150.5 -26.5t119 -75.5t78.5 -114.5t28 -142.5q0 -76 -28 -141.5t-78.5 -114.5t-119 -75.5t-150.5 -26.5zM456 67q64 0 118.5 20.5t94 58.5t61 89.5t21.5 112.5
q0 62 -21.5 113.5t-61 89.5t-94 59t-118.5 21t-118.5 -21t-94 -59.5t-60.5 -90t-21 -112.5t21 -112t60.5 -89.5t94 -59t118.5 -20.5z" />
    <glyph glyph-name="P" unicode="P" horiz-adv-x="750" 
d="M137 0v700h324q58 0 104.5 -27t74 -74.5t27.5 -106.5q0 -63 -28.5 -112.5t-76 -78.5t-106.5 -29h-241v-272h-78zM215 348h241q36 0 65.5 19t46.5 51.5t17 74.5q0 38 -17 67.5t-46.5 46.5t-65.5 17h-241v-276z" />
    <glyph glyph-name="Q" unicode="Q" horiz-adv-x="913" 
d="M710 -103l-256 337l64 39l255 -335zM456 -10q-82 0 -150 26.5t-119 75t-78.5 114t-27.5 142.5t27.5 142.5t78.5 114.5t119 75.5t150 26.5t150.5 -26.5t119 -75.5t78.5 -114.5t28 -142.5q0 -76 -28 -141.5t-78.5 -114.5t-119 -75.5t-150.5 -26.5zM456 67q64 0 118.5 20.5
t94 58.5t61 89.5t21.5 112.5q0 62 -21.5 113.5t-61 89.5t-94 59t-118.5 21t-118.5 -21t-94 -59.5t-60.5 -90t-21 -112.5t21 -112t60.5 -89.5t94 -59t118.5 -20.5z" />
    <glyph glyph-name="R" unicode="R" horiz-adv-x="786" 
d="M137 0v700h318q62 0 112 -28t79 -76.5t29 -109.5q0 -60 -29.5 -108t-80.5 -76t-113 -28h-237v-274h-78zM614 0l-200 308l77 25l218 -333h-95zM215 350h237q42 0 73.5 17.5t49.5 48.5t18 70t-19.5 70.5t-54 49.5t-79.5 18h-225v-274z" />
    <glyph glyph-name="S" unicode="S" horiz-adv-x="732" 
d="M372 -10q-61 0 -113.5 15t-96.5 45t-79 74l52 62q53 -66 111.5 -94.5t129.5 -28.5q53 0 97 15t69.5 44t25.5 67q0 26 -12 44.5t-32.5 31.5t-47.5 22.5t-56 16t-59 12.5q-55 11 -100 26t-77.5 38t-49.5 55t-17 78q0 43 19.5 79t54.5 61.5t82 39.5t101 14q60 0 108 -14.5
t85 -42t64 -67.5l-53 -56q-25 34 -56 58.5t-68.5 37t-80.5 12.5q-50 0 -89.5 -15t-62.5 -41.5t-23 -61.5q0 -28 13 -48.5t38 -34.5t62.5 -24.5t83.5 -18.5q52 -10 98 -24t81.5 -35t55 -53.5t19.5 -78.5q0 -62 -34.5 -109.5t-96.5 -74t-146 -26.5z" />
    <glyph glyph-name="T" unicode="T" horiz-adv-x="653" 
d="M284 0v624h-228v76h542v-76h-236v-624h-78z" />
    <glyph glyph-name="U" unicode="U" horiz-adv-x="869" 
d="M433 -7q-89 0 -157 39t-106.5 107.5t-38.5 155.5v405h78v-399q0 -66 29.5 -118.5t80 -82.5t114.5 -30q67 0 118.5 30t81 82.5t29.5 118.5v399h75v-406q0 -86 -38.5 -154.5t-107 -107.5t-158.5 -39z" />
    <glyph glyph-name="V" unicode="V" horiz-adv-x="783" 
d="M345 0l-293 700h88l185 -445q11 -29 22 -55.5t21.5 -51.5t20 -50t18.5 -53h-28q13 38 26 72.5t26 68t29 72.5l182 442h89l-298 -700h-88z" />
    <glyph glyph-name="W" unicode="W" horiz-adv-x="1068" 
d="M278 0l-226 700h86l140 -451q9 -26 15.5 -49t12 -44t10.5 -42.5t10 -44.5h-19q12 41 22 69t20.5 55t23.5 59l120 290h74l128 -309q13 -30 24 -58t19.5 -52.5t12.5 -48.5l-19 -4q5 23 9.5 40.5t8.5 34.5t9 33.5t11 35t13 41.5l149 445h84l-239 -700h-64l-195 461l19 -3
l-192 -458h-67z" />
    <glyph glyph-name="X" unicode="X" horiz-adv-x="763" 
d="M610 0l-257 330l-296 370h101l240 -308l314 -392h-102zM52 0l291 378l47 -57l-243 -321h-95zM415 332l-44 55l234 313h96z" />
    <glyph glyph-name="Y" unicode="Y" horiz-adv-x="765" 
d="M354 0v331l10 -54l-318 423h100l258 -349l-19 1l241 348h93l-300 -424l12 63v-339h-77z" />
    <glyph glyph-name="Z" unicode="Z" horiz-adv-x="738" 
d="M76 0v60l483 585l19 -22h-476v77h553v-59l-482 -586l-20 22h513v-77h-590z" />
    <glyph glyph-name="bracketleft" unicode="[" horiz-adv-x="472" 
d="M113 -190v890h298v-66h-229l6 8v-778l-10 12h233v-66h-298z" />
    <glyph glyph-name="backslash" unicode="\" horiz-adv-x="641" 
d="M480 -107l-398 807h83l400 -807h-85z" />
    <glyph glyph-name="bracketright" unicode="]" horiz-adv-x="472" 
d="M61 -190v66h229l-6 -8v778l10 -12h-233v66h298v-890h-298z" />
    <glyph glyph-name="asciicircum" unicode="^" horiz-adv-x="696" 
d="M62 368l241 360h89l241 -360h-89l-205 306l18 1l-207 -307h-88z" />
    <glyph glyph-name="underscore" unicode="_" horiz-adv-x="778" 
d="M83 -144v66h612v-66h-612z" />
    <glyph glyph-name="grave" unicode="`" horiz-adv-x="500" 
d="M318 602l-163 97l48 63l143 -119z" />
    <glyph glyph-name="a" unicode="a" horiz-adv-x="760" 
d="M340 -10q-80 0 -141.5 35t-96 96.5t-34.5 140.5t36 140.5t98 96.5t141 35q49 0 90.5 -13t73 -36t51.5 -51.5t25 -58.5l-24 7l3 140h74v-522h-75v136l20 11q-6 -30 -27 -58t-54 -50.5t-74 -35.5t-86 -13zM356 62q60 0 107.5 25.5t74.5 71t27 103.5q0 57 -27 102t-74.5 72
t-107.5 27q-62 0 -109 -27t-74 -72t-27 -102q0 -58 26 -103t73.5 -71t110.5 -26z" />
    <glyph glyph-name="b" unicode="b" horiz-adv-x="765" 
d="M419 -10q-43 0 -82 12t-71 32.5t-54 47.5t-31 56l28 -4l-3 -133h-74v739h75v-343l-21 -7q10 29 31 55t52.5 46t70 31.5t81.5 11.5q77 0 138.5 -35t97.5 -96.5t36 -140.5q0 -78 -35.5 -139.5t-97.5 -97t-141 -35.5zM411 62q60 0 106.5 26.5t73.5 71.5t27 102
q0 59 -26.5 104t-73.5 71t-107 26q-62 0 -109.5 -26t-74.5 -71t-27 -103t27.5 -103.5t75 -71.5t108.5 -26z" />
    <glyph glyph-name="c" unicode="c" horiz-adv-x="664" 
d="M357 -10q-82 0 -146 35.5t-101.5 97t-37.5 139.5t37.5 139.5t101.5 97t147 35.5q75 0 138.5 -26.5t103.5 -72.5l-44 -58q-23 25 -54.5 44.5t-68.5 30.5t-76 11q-59 0 -106.5 -26t-74.5 -71.5t-27 -103.5t28 -103.5t75 -71.5t104 -26q42 0 78 10t66.5 28t54.5 40l43 -57
q-43 -40 -105.5 -66t-135.5 -26z" />
    <glyph glyph-name="d" unicode="d" horiz-adv-x="757" 
d="M341 -10q-79 0 -140.5 35.5t-96.5 97t-35 139.5q0 79 35.5 140.5t97.5 96.5t141 35q46 0 86.5 -12t73 -33.5t53.5 -49.5t28 -59l-24 8v352h75v-740h-74l-2 137l20 5q-6 -30 -27.5 -57t-53.5 -48.5t-72.5 -34t-84.5 -12.5zM354 60q61 0 108.5 26.5t74.5 72t27 104.5
q0 57 -26.5 102.5t-74 71.5t-109.5 26q-60 0 -106.5 -26t-73.5 -71t-27 -103t27 -104t73.5 -72.5t106.5 -26.5z" />
    <glyph glyph-name="e" unicode="e" horiz-adv-x="700" 
d="M368 -10q-87 0 -155.5 34t-106.5 95t-38 140q0 63 22 112.5t61.5 86.5t93 57t114.5 20q59 0 108 -18.5t85 -52.5t55 -80t17 -102l-1 -39h-494l-11 63h448l-18 -13v24q-2 36 -26 69.5t-66 55t-97 21.5q-62 0 -110.5 -21.5t-76 -65.5t-27.5 -112q0 -62 29 -107t81.5 -70
t125.5 -25q54 0 97 15t87 47l36 -56q-26 -21 -62 -39t-79 -28.5t-92 -10.5z" />
    <glyph glyph-name="f" unicode="f" horiz-adv-x="513" 
d="M189 0v579q0 46 20 81.5t57 56t86 20.5q38 0 68 -12t48 -31l-26 -62q-18 16 -41 25.5t-45 9.5q-33 0 -54 -11.5t-30.5 -31.5t-9.5 -45v-579h-33h-20h-20zM80 446v69h358v-69h-358z" />
    <glyph glyph-name="g" unicode="g" horiz-adv-x="768" 
d="M372 -230q-70 0 -125.5 18.5t-92.5 44.5l30 65q21 -15 50 -28t64.5 -21.5t75.5 -8.5q59 0 103 22.5t68 67.5t24 113v87l13 3q-12 -39 -46.5 -71.5t-84.5 -51.5t-107 -19q-79 0 -140 35t-96.5 96.5t-35.5 139.5q0 79 36.5 140t98.5 96.5t141 35.5q31 0 62.5 -7t60.5 -20
t53 -31t41 -40.5t23 -46.5l-21 3l2 130h76v-474q0 -70 -21 -121.5t-58 -86.5t-87 -52.5t-107 -17.5zM361 62q62 0 109.5 26t74.5 71t27 103q-1 59 -28 104.5t-74.5 71t-108.5 25.5t-108.5 -26t-75 -71.5t-27.5 -102.5q0 -58 27 -103.5t74.5 -71.5t109.5 -26z" />
    <glyph glyph-name="h" unicode="h" horiz-adv-x="744" 
d="M132 0v740h75v-348l-21 -13q11 42 44.5 77.5t81 56.5t97.5 21q68 0 113.5 -26.5t68 -75.5t22.5 -119v-313h-76v305q0 52 -18 87.5t-51.5 54t-79.5 17.5q-39 0 -72 -14t-57.5 -37t-38 -51.5t-13.5 -58.5v-303h-37h-21h-17z" />
    <glyph glyph-name="i" unicode="i" horiz-adv-x="363" 
d="M144 0v522h76v-522h-76zM181 637q-27 0 -42 14.5t-15 40.5q0 24 15.5 39.5t41.5 15.5q28 0 42.5 -14.5t14.5 -40.5q0 -24 -15 -39.5t-42 -15.5z" />
    <glyph glyph-name="j" unicode="j" horiz-adv-x="381" 
d="M56 -196l-29 64q52 1 84 20.5t47.5 57.5t15.5 92v484h75v-506q0 -65 -25 -112t-68 -73.5t-100 -26.5zM212 637q-27 0 -42 14.5t-15 40.5q0 24 15.5 39.5t41.5 15.5q28 0 42.5 -14.5t14.5 -40.5q0 -24 -15 -39.5t-42 -15.5z" />
    <glyph glyph-name="k" unicode="k" horiz-adv-x="692" 
d="M194 157l2 86l321 279h103zM132 0v740h73v-740h-73zM539 0l-245 274l52 51l291 -325h-98z" />
    <glyph glyph-name="l" unicode="l" horiz-adv-x="328" 
d="M126 0v740h75v-740h-75z" />
    <glyph glyph-name="m" unicode="m" horiz-adv-x="1113" 
d="M124 0v522h75l2 -133h-20q8 29 29 54.5t51 46t66.5 32t78.5 11.5q47 0 84.5 -15t63 -50.5t37.5 -92.5l-23 11l5 16q12 23 33 46t50.5 42t65 31t75.5 12q65 0 108 -26.5t64 -76t21 -119.5v-311h-76v303q0 52 -15 87t-45 53.5t-75 18.5q-39 0 -73 -13t-59 -36.5t-39 -53
t-14 -62.5v-297h-76v304q0 51 -16 86t-47.5 53.5t-77.5 18.5q-39 0 -71 -13.5t-56 -36.5t-37 -51.5t-13 -58.5v-302h-76z" />
    <glyph glyph-name="n" unicode="n" horiz-adv-x="744" 
d="M132 0v522h74l3 -125l-18 -3q14 36 45.5 67.5t77 52t95.5 20.5q67 0 112.5 -26.5t68.5 -75.5t23 -119v-313h-76v305q0 52 -18 87t-51.5 53.5t-78.5 17.5q-40 0 -73 -14t-57.5 -36.5t-38 -51t-13.5 -58.5v-303h-37h-19.5h-18.5z" />
    <glyph glyph-name="o" unicode="o" horiz-adv-x="743" 
d="M372 -10q-88 0 -155.5 35t-106 97t-38.5 141q0 78 38.5 139.5t106 96.5t155.5 35q87 0 154.5 -35t106 -96.5t38.5 -139.5q0 -79 -38.5 -140.5t-106 -97t-154.5 -35.5zM372 61q63 0 113.5 26.5t79 72t28.5 103.5t-28.5 103.5t-79 71t-113.5 25.5q-64 0 -114.5 -26
t-79.5 -71t-28 -103q-1 -58 28 -103.5t80 -72t114 -26.5z" />
    <glyph glyph-name="p" unicode="p" horiz-adv-x="770" 
d="M132 -220v742h75l2 -128l-15 -2q13 40 46.5 71.5t82 50.5t103.5 19q79 0 140 -35t96.5 -96.5t35.5 -140.5q0 -77 -34.5 -138t-96 -96.5t-140.5 -35.5q-57 0 -106.5 20t-83.5 52.5t-48 71.5h19v-355h-76zM415 63q61 0 107.5 25.5t74 70.5t26.5 102q0 59 -27 104
t-73.5 70.5t-106.5 25.5q-62 0 -110 -25.5t-75.5 -70.5t-27.5 -103t27.5 -102.5t75 -70.5t109.5 -26z" />
    <glyph glyph-name="q" unicode="q" horiz-adv-x="759" 
d="M561 -223v358l17 7q-7 -30 -28 -57t-53 -48.5t-72 -33.5t-83 -12q-80 0 -141.5 35t-96 96.5t-34.5 139.5q0 79 36 140t97.5 96.5t139.5 35.5q46 0 86.5 -12t72.5 -33.5t53.5 -49.5t27.5 -59l-25 6l3 137h75v-746h-75zM354 62q62 0 109.5 26t74.5 71.5t27 102.5
q-1 58 -27.5 103.5t-74 71t-109.5 25.5q-60 0 -106.5 -26t-74 -70.5t-27.5 -102.5t27 -103.5t73.5 -71.5t107.5 -26z" />
    <glyph glyph-name="r" unicode="r" horiz-adv-x="524" 
d="M132 0v522h75l2 -149l-14 9q13 42 42 76.5t68 55t84 20.5q25 0 48.5 -4.5t37.5 -12.5l-21 -82q-17 10 -38 14t-39 4q-40 0 -71.5 -14t-53.5 -37.5t-33 -53t-11 -61.5v-287h-76z" />
    <glyph glyph-name="s" unicode="s" horiz-adv-x="606" 
d="M312 -10q-77 0 -139.5 25t-100.5 70l53 48q34 -38 81.5 -57.5t105.5 -19.5q28 0 54 5t46 15t31.5 25.5t11.5 36.5q0 34 -40 56q-20 9 -49.5 18t-68.5 17q-60 14 -103 28.5t-68 36.5q-19 18 -28.5 40.5t-9.5 50.5q0 32 15.5 59.5t44.5 47.5t68 31t84 11q41 0 83.5 -10
t80 -29t63.5 -46l-44 -51q-24 20 -53 36.5t-61.5 25.5t-65.5 9q-27 0 -52.5 -5t-44 -15.5t-30 -25.5t-11.5 -35q-1 -16 6.5 -27.5t20.5 -20.5q19 -13 50.5 -22t76.5 -19q50 -10 88.5 -22t65.5 -30q28 -18 42.5 -43t14.5 -58q0 -47 -28 -82t-77 -54.5t-113 -19.5z" />
    <glyph glyph-name="t" unicode="t" horiz-adv-x="517" 
d="M209 0v671h76v-671h-76zM66 450v72h381v-72h-381z" />
    <glyph glyph-name="u" unicode="u" horiz-adv-x="731" 
d="M330 -10q-66 0 -112 27t-70.5 78.5t-24.5 124.5v302h76v-284q0 -57 17 -96.5t51 -59.5t83 -20q39 0 72.5 13t58 35.5t38.5 52.5t14 65v294h76v-522h-75l-3 116l13 6q-11 -34 -42 -64.5t-75.5 -49t-96.5 -18.5z" />
    <glyph glyph-name="v" unicode="v" horiz-adv-x="656" 
d="M292 0l-252 522h86l206 -442l-22 -11l223 453h83l-264 -522h-60z" />
    <glyph glyph-name="w" unicode="w" horiz-adv-x="866" 
d="M227 0l-187 522l83 1l143 -428l-24 2l162 348h53l163 -349l-25 -2l153 428h79l-193 -522h-44l-180 393l41 3l-178 -396h-46z" />
    <glyph glyph-name="x" unicode="x" horiz-adv-x="710" 
d="M539 0l-208 237l-11 12l-237 273h102l195 -230l10 -11l250 -281h-101zM71 0l240 278l48 -52l-190 -226h-98zM395 254l-45 53l183 215h98z" />
    <glyph glyph-name="y" unicode="y" horiz-adv-x="694" 
d="M218 -230l115 246l7 -70l-291 576h85l185 -372q18 -33 31 -63t21 -57l-25 6q10 23 21 49t23 55l170 382h86l-242 -521l-106 -231h-80z" />
    <glyph glyph-name="z" unicode="z" horiz-adv-x="562" 
d="M64 0v65l342 405l14 -15h-356v67h423v-64l-342 -405l-12 14h365v-67h-434z" />
    <glyph glyph-name="braceleft" unicode="{" horiz-adv-x="547" 
d="M462 -197q-50 9 -88.5 24t-66 37.5t-41.5 54.5t-14 75l1 93q1 63 -30.5 96.5t-90.5 34.5h-36v62h38q58 0 89 35.5t30 96.5l-1 94q1 80 50.5 125t159.5 65l14 -57q-53 -15 -85.5 -32t-48 -45t-15.5 -75l2 -87q1 -60 -27 -98.5t-84 -52.5l-1 3q57 -17 85 -55.5t27 -97.5
l-2 -87q0 -46 14.5 -74.5t47.5 -45t87 -32.5z" />
    <glyph glyph-name="bar" unicode="|" horiz-adv-x="335" 
d="M129 -193v933h77v-933h-77z" />
    <glyph glyph-name="braceright" unicode="}" horiz-adv-x="547" 
d="M84 -196l-14 57q55 15 87 32t47.5 45t14.5 75l-2 87q0 60 28 98.5t83 52.5l1 -3q-56 17 -84 55.5t-28 97.5l2 87q1 46 -13.5 74.5t-47 45.5t-88.5 32l14 57q51 -9 89.5 -24t66 -37.5t41 -54.5t13.5 -75l-1 -93q0 -63 31 -96.5t90 -34.5h36v-62h-38q-58 0 -88.5 -35.5
t-30.5 -96.5l1 -94q0 -80 -50 -125t-160 -65z" />
    <glyph glyph-name="asciitilde" unicode="~" horiz-adv-x="642" 
d="M445 259q-19 0 -44.5 6.5t-51 15.5t-44.5 16q-16 5 -35 11.5t-38 12t-33 5.5q-24 0 -39 -16.5t-15 -44.5l-64 -1q0 60 31 95t88 35q14 0 32.5 -4t38 -10t38 -11.5t32.5 -11.5q16 -6 35.5 -13t38.5 -12t34 -5q25 0 38 16.5t13 42.5h64q0 -36 -13.5 -65t-40 -45.5
t-65.5 -16.5z" />
    <glyph glyph-name="uni00A0" unicode="&#xa0;" horiz-adv-x="362" 
 />
    <glyph glyph-name="exclamdown" unicode="&#xa1;" horiz-adv-x="367" 
d="M202 289q9 -64 15 -135.5t9.5 -143.5t3.5 -137v-43h-97v43q0 67 3 140t9.5 144.5t14.5 131.5h42zM183 540q32 0 49 -16.5t17 -45.5q0 -26 -17 -43.5t-49 -17.5q-31 0 -48.5 16.5t-17.5 44.5q0 26 17.5 44t48.5 18z" />
    <glyph glyph-name="cent" unicode="&#xa2;" horiz-adv-x="677" 
d="M366 78q-82 0 -146 35.5t-101.5 97t-37.5 139.5t37.5 139.5t101.5 97t147 35.5q78 0 142 -27.5t104 -75.5l-43 -59q-24 27 -57 47.5t-70 32t-75 11.5q-60 0 -107.5 -26.5t-74.5 -72t-27 -102.5t27.5 -102.5t74 -72t103.5 -26.5q42 0 78 10t67.5 28.5t57.5 43.5l44 -56
q-43 -43 -106.5 -70t-138.5 -27zM326 0v98l4 35v438l-4 36v93h78v-94l-4 -31v-444l4 -34v-97h-78z" />
    <glyph glyph-name="sterling" unicode="&#xa3;" horiz-adv-x="742" 
d="M230 58l-65 19q16 9 28.5 26t20 43t7.5 55q0 16 -2 32t-5.5 34t-10 38.5t-14.5 46.5q-10 33 -16.5 57t-9.5 44.5t-3 38.5q0 64 30 111.5t84.5 74.5t129.5 27q78 0 131.5 -26t78.5 -67l-57 -48q-20 24 -44.5 38t-51.5 20.5t-56 6.5q-52 0 -89 -18t-56.5 -49t-19.5 -71
q0 -33 9.5 -68.5t21.5 -69.5q10 -31 20 -65.5t10 -63.5q0 -32 -8.5 -62t-24 -56t-38.5 -48zM522 -15q-31 0 -69.5 9t-73.5 19q-26 7 -50.5 13t-46 10.5t-39.5 4.5q-34 0 -69 -13t-65 -27l-32 61q36 24 81 38t97 14q33 0 66.5 -8t78.5 -23q32 -10 62.5 -18t59.5 -8
q30 0 57 13t51 30l42 -57q-30 -28 -69 -43t-81 -15zM85 324v70h454v-70h-454z" />
    <glyph glyph-name="currency" unicode="&#xa4;" horiz-adv-x="667" 
d="M335 118q-50 0 -91.5 24.5t-66 66.5t-24.5 93t24.5 92.5t66 66.5t91.5 25t91.5 -25t66 -67t24.5 -92q0 -51 -24.5 -93t-66 -66.5t-91.5 -24.5zM172 94l-53 53l85 85l53 -52zM204 377l-89 83l52 52l89 -84zM335 187q33 0 57.5 14.5t38 40.5t13.5 60t-13.5 60t-38 41
t-57.5 15q-32 0 -56.5 -15t-38.5 -41t-14 -60t14 -60t38.5 -40.5t56.5 -14.5zM498 98l-88 83l52 52l88 -82zM465 378l-52 52l86 87l52 -53z" />
    <glyph glyph-name="yen" unicode="&#xa5;" horiz-adv-x="765" 
d="M354 0v331l10 -54l-318 423h100l259 -349l-21 1l242 348h93l-300 -424l12 63v-339h-77zM190 99v71l418 -1v-70h-418zM190 243v71l418 -1v-71z" />
    <glyph glyph-name="brokenbar" unicode="&#xa6;" horiz-adv-x="336" 
d="M130 -202v400h77v-400h-77zM130 341v399h77v-399h-77z" />
    <glyph glyph-name="section" unicode="&#xa7;" horiz-adv-x="664" 
d="M400 138l-22 47q37 3 64 13.5t42.5 30.5t15.5 47q0 29 -20.5 47t-66.5 32l-162 46q-23 6 -47 18.5t-43.5 32t-31.5 45.5t-12 58q0 33 14 60.5t41 48t65.5 32.5t88.5 12q47 0 89 -10.5t77 -28.5t62 -40l-43 -60q-24 20 -54.5 34.5t-64.5 23t-69 8.5q-56 0 -91 -19.5
t-35 -58.5q0 -20 9.5 -35.5t29 -27.5t52.5 -22l144 -40q68 -18 106 -53.5t37 -96.5q0 -41 -21 -72.5t-60.5 -50t-93.5 -21.5zM345 -118q-49 0 -95.5 11t-85 30.5t-65.5 42.5l38 62q43 -34 97 -54.5t116 -20.5q55 0 89 20t34 58q0 20 -9 35t-27.5 27t-50.5 21l-165 48
q-59 16 -94 50.5t-35 95.5q0 40 21 71.5t60 50.5t93 21l21 -49q-32 -1 -59 -12t-43 -30t-16 -46t19 -47t60 -31l171 -51q38 -9 68.5 -29t48 -50t17.5 -70q0 -44 -24 -79t-70 -55t-114 -20z" />
    <glyph glyph-name="dieresis" unicode="&#xa8;" horiz-adv-x="500" 
d="M348 636q-27 0 -42 14.5t-15 39.5t15 40t42 15t42 -14.5t15 -40.5q0 -24 -15 -39t-42 -15zM153 635q-28 0 -43 14.5t-15 40.5q0 24 15.5 39.5t42.5 15.5t42 -14.5t15 -40.5q0 -24 -15.5 -39.5t-41.5 -15.5z" />
    <glyph glyph-name="copyright" unicode="&#xa9;" horiz-adv-x="861" 
d="M431 -11q-75 0 -140.5 27.5t-115.5 77.5t-77.5 115t-27.5 141t27.5 141t77.5 115t115.5 77.5t140.5 27.5q74 0 139.5 -27.5t115 -77.5t78 -115t28.5 -141t-28.5 -141t-78 -115t-115 -77.5t-139.5 -27.5zM445 142q-59 0 -107.5 26.5t-77.5 73.5t-29 108q0 57 28.5 104
t77 75t108.5 28q34 0 67 -11.5t62 -33.5l-29 -55q-13 9 -28.5 18t-33.5 14.5t-38 5.5q-42 0 -75.5 -20t-53 -53t-19.5 -72q0 -42 19.5 -75t53.5 -52t75 -19q28 0 54 9.5t51 26.5l28 -55q-31 -21 -65 -32t-68 -11zM431 52q62 0 116 23.5t95 64t64 94.5t23 116q0 63 -23 116.5
t-64 95t-95 64t-116 22.5t-116 -22.5t-94.5 -63.5t-64 -95t-23.5 -117q0 -62 23.5 -116t64 -94.5t94.5 -64t116 -23.5z" />
    <glyph glyph-name="ordfeminine" unicode="&#xaa;" horiz-adv-x="427" 
d="M188 391q-43 0 -74 22.5t-47 61t-16 87.5q0 45 18 81t50.5 57t75.5 21q52 0 83 -34.5t33 -94.5l-19 46v77h67v-314h-67v73l19 30q-3 -26 -19.5 -52t-42.5 -43.5t-61 -17.5zM202 442q28 0 49 14t33 39.5t12 59.5q0 53 -25 84t-69 31q-24 0 -42.5 -15t-29.5 -39.5
t-11 -53.5q0 -35 10 -62t28 -42.5t45 -15.5z" />
    <glyph glyph-name="guillemotleft" unicode="&#xab;" horiz-adv-x="633" 
d="M500 51l-192 206v4l191 208l54 -37l-162 -181l1 18l161 -180zM255 51l-192 206v4l191 208l54 -37l-162 -181l1 18l161 -180z" />
    <glyph glyph-name="logicalnot" unicode="&#xac;" horiz-adv-x="786" 
d="M622 117v223l19 -19h-558v78h620v-282h-81z" />
    <glyph glyph-name="uni00AD" unicode="&#xad;" horiz-adv-x="480" 
d="M85 242v75h310v-75h-310z" />
    <glyph glyph-name="registered" unicode="&#xae;" horiz-adv-x="586" 
d="M294 256q-64 0 -117.5 30.5t-84.5 82t-31 115.5q0 48 18 89t50 72.5t74.5 49t90.5 17.5q47 0 89 -18t74 -49t50 -72t18 -89t-18 -89t-49.5 -72.5t-73.5 -49t-90 -17.5zM295 308q49 0 89.5 23.5t65 63.5t24.5 89t-24.5 89t-65.5 64t-89 24q-51 0 -92 -24t-66 -64t-25 -89
t25 -89t66 -63.5t92 -23.5zM341 367l-44 100l44 14l51 -114h-51zM210 367v242h102q35 0 57 -21t22 -54q0 -34 -23.5 -55t-55.5 -21h-76l21 12v-103h-47zM257 487l-19 10h59q21 0 34.5 9.5t13.5 24.5q0 16 -12 25.5t-34 9.5h-64l22 11v-90z" />
    <glyph glyph-name="macron" unicode="&#xaf;" horiz-adv-x="440" 
d="M108 646v58h284v-58h-284z" />
    <glyph glyph-name="degree" unicode="&#xb0;" horiz-adv-x="532" 
d="M266 399q-44 0 -79.5 21t-56 56t-20.5 77q0 44 20.5 79.5t55.5 56t80 20.5t80 -21t55.5 -56t20.5 -78t-20.5 -78.5t-56 -56t-79.5 -20.5zM266 452q27 0 48.5 13.5t34.5 37t13 51.5t-13 51t-34.5 37t-48.5 14t-49 -13.5t-34.5 -37t-12.5 -52.5q0 -28 13 -51t34.5 -36.5
t48.5 -13.5z" />
    <glyph glyph-name="plusminus" unicode="&#xb1;" horiz-adv-x="674" 
d="M83 306v68h508v-68h-508zM83 21v69h508v-69h-508zM299 155v374h76v-374h-76z" />
    <glyph glyph-name="uni00B2" unicode="&#xb2;" horiz-adv-x="346" 
d="M67 418l-11 53l113 118q13 13 26.5 27.5t22.5 30.5t9 31q0 20 -13 33t-36 13q-24 0 -46.5 -16t-43.5 -46l-41 30q14 24 34.5 43.5t46 31.5t56.5 12q33 0 56 -13t36 -34.5t13 -49.5q0 -24 -13.5 -47.5t-31.5 -44t-34 -37.5l-91 -93l5 11h175v-53h-232z" />
    <glyph glyph-name="uni00B3" unicode="&#xb3;" horiz-adv-x="342" 
d="M168 412q-19 0 -38.5 4.5t-37.5 12t-32 17.5l27 44q23 -14 41 -19.5t34 -5.5q33 0 56 17t23 49q0 26 -20 42.5t-50 16.5q-16 0 -30.5 -4t-29.5 -10l-16 39l124 111l9 -7h-152v53h200l6 -52l-110 -95l-22 -1q10 6 20 9.5t17 3.5q51 0 81.5 -29t30.5 -76q0 -37 -18 -63.5
t-48 -41.5t-65 -15z" />
    <glyph glyph-name="acute" unicode="&#xb4;" horiz-adv-x="500" 
d="M182 602l-27 41l142 119l49 -63z" />
    <glyph glyph-name="uni00B5" unicode="&#xb5;" horiz-adv-x="697" 
d="M107 -157v679h78v-300q0 -51 15.5 -87t47.5 -54t79 -18q40 0 74 13.5t59 35.5t39 49.5t14 56.5v304h78v-522h-77l-2 118l17 9q-19 -41 -49.5 -72t-70.5 -47.5t-87 -16.5q-33 0 -62.5 10t-52.5 29t-36 44l13 10l1 -241h-78z" />
    <glyph glyph-name="paragraph" unicode="&#xb6;" horiz-adv-x="792" 
d="M325 0v314l24 -35h-52q-67 0 -115.5 26.5t-74.5 73t-26 107.5q0 66 29.5 113.5t86 74t137.5 26.5h321v-700h-84v670l23 -47h-235l50 44v-667h-84z" />
    <glyph glyph-name="periodcentered" unicode="&#xb7;" horiz-adv-x="356" 
d="M178 254q-32 0 -48.5 16t-16.5 46q0 26 17 44t48 18q32 0 48.5 -16.5t16.5 -45.5q0 -26 -17 -44t-48 -18z" />
    <glyph glyph-name="cedilla" unicode="&#xb8;" horiz-adv-x="500" 
d="M167 -237l-7 42q29 1 56 7.5t44.5 18.5t17.5 28q0 15 -15.5 24.5t-37.5 14t-41 4.5l-12 14l65 99h51l-43 -68q44 -9 70 -29t26 -55q0 -26 -16 -46t-42 -31.5t-56 -17t-60 -5.5z" />
    <glyph glyph-name="uni00B9" unicode="&#xb9;" horiz-adv-x="281" 
d="M137 430v295l9 -19l-66 -40l-26 49l105 62h35v-347h-28h-14h-15z" />
    <glyph glyph-name="ordmasculine" unicode="&#xba;" horiz-adv-x="434" 
d="M216 392q-43 0 -77 20.5t-54 56t-20 80.5q0 46 20 82.5t54 57.5t77 21t77.5 -21.5t55 -58t20.5 -81.5t-20 -80.5t-55 -56t-78 -20.5zM216 447q26 0 46 13t31 36t11 53q0 32 -11 55.5t-31 37t-46 13.5q-27 0 -46 -13.5t-29.5 -37t-10.5 -55.5q0 -30 11 -53t30.5 -36
t44.5 -13z" />
    <glyph glyph-name="guillemotright" unicode="&#xbb;" horiz-adv-x="636" 
d="M381 52l-53 37l161 181v-18l-161 180l53 38l192 -206v-4zM133 52l-53 37l161 181v-18l-161 180l53 38l192 -206v-4z" />
    <glyph glyph-name="onequarter" unicode="&#xbc;" horiz-adv-x="899" 
d="M168 359v295l9 -19l-66 -40l-26 49l105 62h35v-347h-28h-14h-15zM176 0l475 700h79l-476 -700h-78zM777 135h73v-53h-73v53zM601 106l-11 29h164l-22 -15v192l29 -10zM789 -1h-57v99l24 -16h-188l-12 50l180 224h53v-357z" />
    <glyph glyph-name="onehalf" unicode="&#xbd;" horiz-adv-x="926" 
d="M168 359v295l9 -19l-66 -40l-26 49l105 62h35v-347h-28h-14h-15zM169 0l475 700h79l-476 -700h-78zM634 0l-11 53l113 118q13 13 26.5 27.5t22.5 30.5t9 31q0 20 -13 33t-36 13q-24 0 -46.5 -16t-43.5 -46l-41 30q14 24 34.5 43.5t46 31.5t56.5 12q33 0 56 -13t36 -34.5
t13 -49.5q0 -24 -13.5 -47.5t-31.5 -44t-34 -37.5l-91 -93l5 11h175v-53h-232z" />
    <glyph glyph-name="threequarters" unicode="&#xbe;" horiz-adv-x="925" 
d="M156 342q-19 0 -38.5 4.5t-37.5 12t-32 17.5l27 44q23 -14 41 -19.5t34 -5.5q33 0 56 17t23 49q0 26 -20 42.5t-50 16.5q-16 0 -30.5 -4t-29.5 -10l-16 39l124 111l9 -7h-152v53h200l6 -52l-110 -95l-22 -1q10 6 20 9.5t17 3.5q51 0 81.5 -29t30.5 -76q0 -37 -18 -63.5
t-48 -41.5t-65 -15zM187 0l475 700h79l-476 -700h-78zM803 135h73v-53h-73v53zM627 106l-11 29h164l-22 -15v192l29 -10zM815 -1h-57v99l24 -16h-188l-12 50l180 224h53v-357z" />
    <glyph glyph-name="questiondown" unicode="&#xbf;" horiz-adv-x="631" 
d="M353 328l17 -137q-39 -9 -72 -21t-59.5 -27t-45 -33t-28.5 -40t-10 -46q0 -36 20 -63t54 -41.5t74 -14.5q59 0 108.5 27t88.5 82l54 -52q-47 -62 -112.5 -98t-143.5 -36q-67 0 -118.5 26t-81.5 70t-30 99q0 36 16.5 69t45.5 61t67 49t82 34l13 92h61zM386 482
q0 -26 -17.5 -44t-48.5 -18q-32 0 -49 16.5t-17 45.5q0 26 17.5 44t48.5 18q32 0 49 -16t17 -46z" />
    <glyph glyph-name="Agrave" unicode="&#xc0;" horiz-adv-x="790" 
d="M53 0l297 700h92l295 -700h-86l-202 478q-9 24 -17.5 46.5t-17 44t-16.5 43.5l-16 44h22q-9 -26 -17 -48.5t-16.5 -43.5t-17.5 -43t-19 -48l-201 -473h-80zM177 189l31 76h369l26 -76h-426zM465 757l-184 77l41 70l167 -105z" />
    <glyph glyph-name="Aacute" unicode="&#xc1;" horiz-adv-x="790" 
d="M53 0l297 700h92l295 -700h-86l-202 478q-9 24 -17.5 46.5t-17 44t-16.5 43.5l-16 44h22q-9 -26 -17 -48.5t-16.5 -43.5t-17.5 -43t-19 -48l-201 -473h-80zM177 189l31 76h369l26 -76h-426zM328 757l-23 42l167 105l41 -70z" />
    <glyph glyph-name="Acircumflex" unicode="&#xc2;" horiz-adv-x="790" 
d="M53 0l297 700h92l295 -700h-86l-202 478q-9 24 -17.5 46.5t-17 44t-16.5 43.5l-16 44h22q-9 -26 -17 -48.5t-16.5 -43.5t-17.5 -43t-19 -48l-201 -473h-80zM177 189l31 76h369l26 -76h-426zM272 760l-33 30l122 96h67l121 -96l-32 -30l-138 76h30z" />
    <glyph glyph-name="Atilde" unicode="&#xc3;" horiz-adv-x="790" 
d="M53 0l297 700h92l295 -700h-86l-202 478q-9 24 -17.5 46.5t-17 44t-16.5 43.5l-16 44h22q-9 -26 -17 -48.5t-16.5 -43.5t-17.5 -43t-19 -48l-201 -473h-80zM177 189l31 76h369l26 -76h-426zM466 774q-22 0 -44 8t-45 17q-14 6 -26 11t-23 5q-14 0 -24 -10.5t-10 -30.5
h-61q0 47 29 74t67 27q22 0 42 -7.5t42 -17.5q12 -5 25.5 -10t23.5 -5q14 0 24 10t9 29h61q0 -28 -11.5 -50.5t-31.5 -36t-47 -13.5z" />
    <glyph glyph-name="Adieresis" unicode="&#xc4;" horiz-adv-x="790" 
d="M53 0l297 700h92l295 -700h-86l-202 478q-9 24 -17.5 46.5t-17 44t-16.5 43.5l-16 44h22q-9 -26 -17 -48.5t-16.5 -43.5t-17.5 -43t-19 -48l-201 -473h-80zM177 189l31 76h369l26 -76h-426zM496 769q-28 0 -42.5 15t-14.5 40q0 22 14.5 38.5t42.5 16.5q29 0 43.5 -15
t14.5 -40q0 -22 -14.5 -38.5t-43.5 -16.5zM294 769q-29 0 -43.5 15t-14.5 40q0 22 14.5 38.5t43.5 16.5q28 0 42.5 -15t14.5 -40q0 -22 -14.5 -38.5t-42.5 -16.5z" />
    <glyph glyph-name="Aring" unicode="&#xc5;" horiz-adv-x="790" 
d="M53 0l297 700h92l295 -700h-86l-202 478q-9 24 -17.5 46.5t-17 44t-16.5 43.5l-16 44h22q-9 -26 -17 -48.5t-16.5 -43.5t-17.5 -43t-19 -48l-201 -473h-80zM177 189l31 76h369l26 -76h-426zM394 716q-29 0 -54 14.5t-40 38.5t-15 52q0 29 15 53t40 38.5t54 14.5t54 -14.5
t40.5 -38.5t15.5 -53q0 -28 -15.5 -52t-40.5 -38.5t-54 -14.5zM394 764q25 0 42.5 17t17.5 40q0 26 -17.5 41.5t-42.5 15.5t-42 -16t-17 -41q0 -23 17.5 -40t41.5 -17z" />
    <glyph glyph-name="AE" unicode="&#xc6;" horiz-adv-x="1135" 
d="M38 0l543 700h448v-73h-396v-236h345v-74h-345v-244h394v-73h-471v173h-311l57 73h254v352l27 -10l-456 -588h-89z" />
    <glyph glyph-name="Ccedilla" unicode="&#xc7;" horiz-adv-x="797" 
d="M454 -10q-80 0 -148 26.5t-119 75t-78.5 114t-27.5 144.5q0 77 28 141.5t78.5 112.5t118 74.5t145.5 26.5q55 0 108 -16t97.5 -42.5t72.5 -59.5l-51 -62q-28 32 -64.5 54.5t-78.5 35.5t-87 13q-59 0 -112 -20t-91.5 -57.5t-60.5 -88.5t-22 -112q0 -63 22.5 -115.5
t63 -89.5t94.5 -57.5t118 -20.5q46 0 87.5 12.5t75 33t57.5 46.5l39 -66q-25 -27 -67 -50.5t-93.5 -38t-104.5 -14.5zM354 -237l-7 42q30 1 56.5 7.5t44 18.5t17.5 28q0 15 -15.5 24.5t-37 14t-42.5 4.5l-10 14l64 99h51l-43 -68q44 -9 70 -29t26 -55q0 -26 -15.5 -46
t-41.5 -31.5t-56.5 -17t-60.5 -5.5z" />
    <glyph glyph-name="Egrave" unicode="&#xc8;" horiz-adv-x="723" 
d="M137 0v700h480v-76h-402v-548h400v-76h-478zM176 322v76h385v-76h-385zM458 757l-184 77l41 70l167 -105z" />
    <glyph glyph-name="Eacute" unicode="&#xc9;" horiz-adv-x="723" 
d="M137 0v700h480v-76h-402v-548h400v-76h-478zM176 322v76h385v-76h-385zM320 757l-23 42l167 105l41 -70z" />
    <glyph glyph-name="Ecircumflex" unicode="&#xca;" horiz-adv-x="723" 
d="M137 0v700h480v-76h-402v-548h400v-76h-478zM176 322v76h385v-76h-385zM264 760l-33 30l122 96h67l121 -96l-32 -30l-138 76h30z" />
    <glyph glyph-name="Edieresis" unicode="&#xcb;" horiz-adv-x="723" 
d="M137 0v700h480v-76h-402v-548h400v-76h-478zM176 322v76h385v-76h-385zM488 769q-28 0 -42.5 15t-14.5 40q0 22 14.5 38.5t42.5 16.5q29 0 43.5 -15t14.5 -40q0 -22 -14.5 -38.5t-43.5 -16.5zM286 769q-29 0 -43.5 15t-14.5 40q0 22 14.5 38.5t43.5 16.5q28 0 42.5 -15
t14.5 -40q0 -22 -14.5 -38.5t-42.5 -16.5z" />
    <glyph glyph-name="Igrave" unicode="&#xcc;" horiz-adv-x="594" 
d="M117 0v76h141v548h-141v76h360v-76h-141v-548h141v-76h-360zM368 757l-184 77l41 70l167 -105z" />
    <glyph glyph-name="Iacute" unicode="&#xcd;" horiz-adv-x="594" 
d="M117 0v76h141v548h-141v76h360v-76h-141v-548h141v-76h-360zM230 757l-23 42l167 105l41 -70z" />
    <glyph glyph-name="Icircumflex" unicode="&#xce;" horiz-adv-x="594" 
d="M117 0v76h141v548h-141v76h360v-76h-141v-548h141v-76h-360zM174 760l-33 30l122 96h67l121 -96l-32 -30l-138 76h30z" />
    <glyph glyph-name="Idieresis" unicode="&#xcf;" horiz-adv-x="594" 
d="M117 0v76h141v548h-141v76h360v-76h-141v-548h141v-76h-360zM398 769q-28 0 -42.5 15t-14.5 40q0 22 14.5 38.5t42.5 16.5q29 0 43.5 -15t14.5 -40q0 -22 -14.5 -38.5t-43.5 -16.5zM196 769q-29 0 -43.5 15t-14.5 40q0 22 14.5 38.5t43.5 16.5q28 0 42.5 -15t14.5 -40
q0 -22 -14.5 -38.5t-42.5 -16.5z" />
    <glyph glyph-name="Eth" unicode="&#xd0;" horiz-adv-x="867" 
d="M69 317v65h324v-65h-324zM137 0v700h296q80 0 144.5 -26t111.5 -73.5t72 -111t25 -139.5t-25 -140t-71.5 -111t-111.5 -73t-145 -26h-296zM215 62l-9 14h222q63 0 114.5 20.5t87 57t55 86t19.5 110.5q0 60 -19.5 110t-55.5 86.5t-87 57t-114 20.5h-225l12 12v-574z" />
    <glyph glyph-name="Ntilde" unicode="&#xd1;" horiz-adv-x="918" 
d="M137 0v700h74l516 -608l-11 -18q-4 19 -5.5 54t-3 77.5t-2.5 87t-1 84v66.5v257h78v-700h-77l-512 598l8 21q2 -29 3.5 -63t4 -69.5t4 -68.5t2 -59t0.5 -41v-318h-78zM531 774q-22 0 -44 8t-45 17q-14 6 -26 11t-23 5q-14 0 -24 -10.5t-10 -30.5h-61q0 47 29 74t67 27
q22 0 42 -7.5t42 -17.5q12 -5 25.5 -10t23.5 -5q14 0 24 10t9 29h61q0 -28 -11.5 -50.5t-31.5 -36t-47 -13.5z" />
    <glyph glyph-name="Ograve" unicode="&#xd2;" horiz-adv-x="913" 
d="M456 -10q-82 0 -150 26.5t-119 75t-78.5 114t-27.5 142.5t27.5 142.5t78.5 114.5t119 75.5t150 26.5t150.5 -26.5t119 -75.5t78.5 -114.5t28 -142.5q0 -76 -28 -141.5t-78.5 -114.5t-119 -75.5t-150.5 -26.5zM456 67q64 0 118.5 20.5t94 58.5t61 89.5t21.5 112.5
q0 62 -21.5 113.5t-61 89.5t-94 59t-118.5 21t-118.5 -21t-94 -59.5t-60.5 -90t-21 -112.5t21 -112t60.5 -89.5t94 -59t118.5 -20.5zM527 757l-184 77l41 70l167 -105z" />
    <glyph glyph-name="Oacute" unicode="&#xd3;" horiz-adv-x="913" 
d="M456 -10q-82 0 -150 26.5t-119 75t-78.5 114t-27.5 142.5t27.5 142.5t78.5 114.5t119 75.5t150 26.5t150.5 -26.5t119 -75.5t78.5 -114.5t28 -142.5q0 -76 -28 -141.5t-78.5 -114.5t-119 -75.5t-150.5 -26.5zM456 67q64 0 118.5 20.5t94 58.5t61 89.5t21.5 112.5
q0 62 -21.5 113.5t-61 89.5t-94 59t-118.5 21t-118.5 -21t-94 -59.5t-60.5 -90t-21 -112.5t21 -112t60.5 -89.5t94 -59t118.5 -20.5zM390 757l-23 42l167 105l41 -70z" />
    <glyph glyph-name="Ocircumflex" unicode="&#xd4;" horiz-adv-x="913" 
d="M456 -10q-82 0 -150 26.5t-119 75t-78.5 114t-27.5 142.5t27.5 142.5t78.5 114.5t119 75.5t150 26.5t150.5 -26.5t119 -75.5t78.5 -114.5t28 -142.5q0 -76 -28 -141.5t-78.5 -114.5t-119 -75.5t-150.5 -26.5zM456 67q64 0 118.5 20.5t94 58.5t61 89.5t21.5 112.5
q0 62 -21.5 113.5t-61 89.5t-94 59t-118.5 21t-118.5 -21t-94 -59.5t-60.5 -90t-21 -112.5t21 -112t60.5 -89.5t94 -59t118.5 -20.5zM334 760l-33 30l122 96h67l121 -96l-32 -30l-138 76h30z" />
    <glyph glyph-name="Otilde" unicode="&#xd5;" horiz-adv-x="913" 
d="M456 -10q-82 0 -150 26.5t-119 75t-78.5 114t-27.5 142.5t27.5 142.5t78.5 114.5t119 75.5t150 26.5t150.5 -26.5t119 -75.5t78.5 -114.5t28 -142.5q0 -76 -28 -141.5t-78.5 -114.5t-119 -75.5t-150.5 -26.5zM456 67q64 0 118.5 20.5t94 58.5t61 89.5t21.5 112.5
q0 62 -21.5 113.5t-61 89.5t-94 59t-118.5 21t-118.5 -21t-94 -59.5t-60.5 -90t-21 -112.5t21 -112t60.5 -89.5t94 -59t118.5 -20.5zM528 774q-22 0 -44 8t-45 17q-14 6 -26 11t-23 5q-14 0 -24 -10.5t-10 -30.5h-61q0 47 29 74t67 27q22 0 42 -7.5t42 -17.5q12 -5 25.5 -10
t23.5 -5q14 0 24 10t9 29h61q0 -28 -11.5 -50.5t-31.5 -36t-47 -13.5z" />
    <glyph glyph-name="Odieresis" unicode="&#xd6;" horiz-adv-x="913" 
d="M456 -10q-82 0 -150 26.5t-119 75t-78.5 114t-27.5 142.5t27.5 142.5t78.5 114.5t119 75.5t150 26.5t150.5 -26.5t119 -75.5t78.5 -114.5t28 -142.5q0 -76 -28 -141.5t-78.5 -114.5t-119 -75.5t-150.5 -26.5zM456 67q64 0 118.5 20.5t94 58.5t61 89.5t21.5 112.5
q0 62 -21.5 113.5t-61 89.5t-94 59t-118.5 21t-118.5 -21t-94 -59.5t-60.5 -90t-21 -112.5t21 -112t60.5 -89.5t94 -59t118.5 -20.5zM558 769q-28 0 -42.5 15t-14.5 40q0 22 14.5 38.5t42.5 16.5q29 0 43.5 -15t14.5 -40q0 -22 -14.5 -38.5t-43.5 -16.5zM356 769
q-29 0 -43.5 15t-14.5 40q0 22 14.5 38.5t43.5 16.5q28 0 42.5 -15t14.5 -40q0 -22 -14.5 -38.5t-42.5 -16.5z" />
    <glyph glyph-name="multiply" unicode="&#xd7;" horiz-adv-x="582" 
d="M458 63l-385 377l55 51l386 -375zM128 63l-51 54l380 372l51 -53z" />
    <glyph glyph-name="Oslash" unicode="&#xd8;" horiz-adv-x="917" 
d="M142 -31l-47 47l678 715l50 -45zM459 -10q-82 0 -150.5 26.5t-119 75t-78 114t-27.5 142.5t27.5 142.5t78 114.5t119 75.5t150.5 26.5t150.5 -26.5t119 -75.5t78.5 -114.5t28 -142.5q0 -76 -28 -141.5t-78.5 -114.5t-119 -75.5t-150.5 -26.5zM459 67q64 0 118.5 20.5
t94 58.5t61 89.5t21.5 112.5q0 62 -21.5 113.5t-61 89.5t-94 59t-118.5 21t-118 -21t-94 -59.5t-61 -90t-21 -112.5t21 -112t61 -89.5t94 -59t118 -20.5z" />
    <glyph glyph-name="Ugrave" unicode="&#xd9;" horiz-adv-x="869" 
d="M433 -7q-89 0 -157 39t-106.5 107.5t-38.5 155.5v405h78v-399q0 -66 29.5 -118.5t80 -82.5t114.5 -30q67 0 118.5 30t81 82.5t29.5 118.5v399h75v-406q0 -86 -38.5 -154.5t-107 -107.5t-158.5 -39zM505 757l-184 77l41 70l167 -105z" />
    <glyph glyph-name="Uacute" unicode="&#xda;" horiz-adv-x="869" 
d="M433 -7q-89 0 -157 39t-106.5 107.5t-38.5 155.5v405h78v-399q0 -66 29.5 -118.5t80 -82.5t114.5 -30q67 0 118.5 30t81 82.5t29.5 118.5v399h75v-406q0 -86 -38.5 -154.5t-107 -107.5t-158.5 -39zM368 757l-23 42l167 105l41 -70z" />
    <glyph glyph-name="Ucircumflex" unicode="&#xdb;" horiz-adv-x="869" 
d="M433 -7q-89 0 -157 39t-106.5 107.5t-38.5 155.5v405h78v-399q0 -66 29.5 -118.5t80 -82.5t114.5 -30q67 0 118.5 30t81 82.5t29.5 118.5v399h75v-406q0 -86 -38.5 -154.5t-107 -107.5t-158.5 -39zM312 760l-33 30l122 96h67l121 -96l-32 -30l-138 76h30z" />
    <glyph glyph-name="Udieresis" unicode="&#xdc;" horiz-adv-x="869" 
d="M433 -7q-89 0 -157 39t-106.5 107.5t-38.5 155.5v405h78v-399q0 -66 29.5 -118.5t80 -82.5t114.5 -30q67 0 118.5 30t81 82.5t29.5 118.5v399h75v-406q0 -86 -38.5 -154.5t-107 -107.5t-158.5 -39zM536 769q-28 0 -42.5 15t-14.5 40q0 22 14.5 38.5t42.5 16.5
q29 0 43.5 -15t14.5 -40q0 -22 -14.5 -38.5t-43.5 -16.5zM334 769q-29 0 -43.5 15t-14.5 40q0 22 14.5 38.5t43.5 16.5q28 0 42.5 -15t14.5 -40q0 -22 -14.5 -38.5t-42.5 -16.5z" />
    <glyph glyph-name="Yacute" unicode="&#xdd;" horiz-adv-x="765" 
d="M354 0v331l10 -54l-318 423h100l258 -349l-19 1l241 348h93l-300 -424l12 63v-339h-77zM316 757l-23 42l167 105l41 -70z" />
    <glyph glyph-name="Thorn" unicode="&#xde;" horiz-adv-x="745" 
d="M137 0v700h78v-137h232q64 0 111.5 -26t75 -72t27.5 -107q0 -58 -27.5 -105t-75 -74.5t-111.5 -27.5h-232v-151h-78zM215 229h236q39 0 67.5 17.5t44.5 46t16 65.5q0 36 -16.5 64.5t-45 45.5t-66.5 17h-236v-256z" />
    <glyph glyph-name="germandbls" unicode="&#xdf;" horiz-adv-x="793" 
d="M499 -10q-62 0 -109.5 21t-77.5 54l40 52q29 -26 67.5 -43.5t83.5 -17.5q61 0 98.5 38.5t37.5 96.5q0 38 -14 68t-43 54t-72 42t-101 31v50q34 8 63 20t50.5 27t33 34.5t11.5 41.5q0 46 -38 73.5t-106 27.5q-87 0 -135 -45t-48 -115v-500h-74v498q0 66 30.5 118.5
t88.5 82.5t140 30q69 0 119 -21t76 -57.5t26 -83.5q0 -38 -20.5 -69.5t-57.5 -53.5t-85 -32l2 22q53 -14 95.5 -36.5t73.5 -52t47 -66.5t16 -82q0 -59 -27.5 -105.5t-76 -74t-114.5 -27.5zM80 421v69h134v-69h-134z" />
    <glyph glyph-name="agrave" unicode="&#xe0;" horiz-adv-x="760" 
d="M340 -10q-80 0 -141.5 35t-96 96.5t-34.5 140.5t36 140.5t98 96.5t141 35q49 0 90.5 -13t73 -36t51.5 -51.5t25 -58.5l-24 7l3 140h74v-522h-75v136l20 11q-6 -30 -27 -58t-54 -50.5t-74 -35.5t-86 -13zM356 62q60 0 107.5 25.5t74.5 71t27 103.5q0 57 -27 102t-74.5 72
t-107.5 27q-62 0 -109 -27t-74 -72t-27 -102q0 -58 26 -103t73.5 -71t110.5 -26zM421 599l-163 97l48 63l143 -119z" />
    <glyph glyph-name="aacute" unicode="&#xe1;" horiz-adv-x="760" 
d="M340 -10q-80 0 -141.5 35t-96 96.5t-34.5 140.5t36 140.5t98 96.5t141 35q49 0 90.5 -13t73 -36t51.5 -51.5t25 -58.5l-24 7l3 140h74v-522h-75v136l20 11q-6 -30 -27 -58t-54 -50.5t-74 -35.5t-86 -13zM356 62q60 0 107.5 25.5t74.5 71t27 103.5q0 57 -27 102t-74.5 72
t-107.5 27q-62 0 -109 -27t-74 -72t-27 -102q0 -58 26 -103t73.5 -71t110.5 -26zM312 599l-27 41l142 119l49 -63z" />
    <glyph glyph-name="acircumflex" unicode="&#xe2;" horiz-adv-x="760" 
d="M340 -10q-80 0 -141.5 35t-96 96.5t-34.5 140.5t36 140.5t98 96.5t141 35q49 0 90.5 -13t73 -36t51.5 -51.5t25 -58.5l-24 7l3 140h74v-522h-75v136l20 11q-6 -30 -27 -58t-54 -50.5t-74 -35.5t-86 -13zM356 62q60 0 107.5 25.5t74.5 71t27 103.5q0 57 -27 102t-74.5 72
t-107.5 27q-62 0 -109 -27t-74 -72t-27 -102q0 -58 26 -103t73.5 -71t110.5 -26zM257 605l-33 28l112 107h74l112 -107l-33 -28l-131 85h30z" />
    <glyph glyph-name="atilde" unicode="&#xe3;" horiz-adv-x="760" 
d="M340 -10q-80 0 -141.5 35t-96 96.5t-34.5 140.5t36 140.5t98 96.5t141 35q49 0 90.5 -13t73 -36t51.5 -51.5t25 -58.5l-24 7l3 140h74v-522h-75v136l20 11q-6 -30 -27 -58t-54 -50.5t-74 -35.5t-86 -13zM356 62q60 0 107.5 25.5t74.5 71t27 103.5q0 57 -27 102t-74.5 72
t-107.5 27q-62 0 -109 -27t-74 -72t-27 -102q0 -58 26 -103t73.5 -71t110.5 -26zM431 613q-21 0 -36.5 9t-35.5 27q-14 13 -23.5 19t-19.5 6q-17 0 -29 -14.5t-16 -43.5l-54 7q4 45 32 76.5t72 31.5q19 0 34 -8t35 -26q15 -12 24 -19t20 -7q15 0 25.5 14t13.5 38l55 -7
q-2 -28 -14.5 -51.5t-33.5 -37.5t-49 -14z" />
    <glyph glyph-name="adieresis" unicode="&#xe4;" horiz-adv-x="760" 
d="M340 -10q-80 0 -141.5 35t-96 96.5t-34.5 140.5t36 140.5t98 96.5t141 35q49 0 90.5 -13t73 -36t51.5 -51.5t25 -58.5l-24 7l3 140h74v-522h-75v136l20 11q-6 -30 -27 -58t-54 -50.5t-74 -35.5t-86 -13zM356 62q60 0 107.5 25.5t74.5 71t27 103.5q0 57 -27 102t-74.5 72
t-107.5 27q-62 0 -109 -27t-74 -72t-27 -102q0 -58 26 -103t73.5 -71t110.5 -26zM470 633q-27 0 -42 14.5t-15 39.5t15 40t42 15t42 -14.5t15 -40.5q0 -24 -15 -39t-42 -15zM275 632q-28 0 -43 14.5t-15 40.5q0 24 15.5 39.5t42.5 15.5t42 -14.5t15 -40.5q0 -24 -15.5 -39.5
t-41.5 -15.5z" />
    <glyph glyph-name="aring" unicode="&#xe5;" horiz-adv-x="760" 
d="M340 -10q-80 0 -141.5 35t-96 96.5t-34.5 140.5t36 140.5t98 96.5t141 35q49 0 90.5 -13t73 -36t51.5 -51.5t25 -58.5l-24 7l3 140h74v-522h-75v136l20 11q-6 -30 -27 -58t-54 -50.5t-74 -35.5t-86 -13zM356 62q60 0 107.5 25.5t74.5 71t27 103.5q0 57 -27 102t-74.5 72
t-107.5 27q-62 0 -109 -27t-74 -72t-27 -102q0 -58 26 -103t73.5 -71t110.5 -26zM372 594q-27 0 -51.5 14t-39.5 37.5t-15 50.5q0 29 14.5 52t39 37.5t52.5 14.5q29 0 53.5 -14.5t39 -37.5t14.5 -52q0 -27 -14.5 -50.5t-39 -37.5t-53.5 -14zM372 642q24 0 41 16t17 38
q0 25 -17 40t-41 15q-25 0 -41 -15.5t-16 -39.5q0 -22 17 -38t40 -16z" />
    <glyph glyph-name="ae" unicode="&#xe6;" horiz-adv-x="1077" 
d="M274 -10q-61 0 -107.5 19.5t-72.5 55t-26 84.5q0 46 19.5 77.5t54 49.5t83 26.5t106.5 8.5h612l-18 -18v23q-2 39 -25 72t-63 54t-92 21q-60 0 -106.5 -21t-74 -65t-27.5 -113q0 -63 29.5 -108.5t83.5 -70.5t122 -25q52 0 94.5 14t86.5 48l37 -57q-25 -21 -61 -38
t-78 -27t-88 -10q-89 0 -156.5 34.5t-104.5 95t-37 139.5q0 65 21.5 116t60 86.5t89.5 53.5t109 18q76 0 133.5 -32t90 -88.5t32.5 -130.5l-1 -35h-682q-36 0 -67.5 -5t-56 -16t-38.5 -29t-14 -45q0 -29 17 -50t48 -32.5t71 -11.5q46 0 87.5 16t73 41.5t48.5 53.5l37 -51
q-22 -34 -61 -63t-87.5 -47t-101.5 -18zM465 274v78q0 25 -11 45.5t-31.5 35t-47.5 22t-60 7.5q-54 0 -100.5 -19t-87.5 -59l-48 52q35 32 72 54t78 32.5t88 10.5q45 0 83.5 -9t68.5 -28t47 -48.5t17 -68.5v-103z" />
    <glyph glyph-name="ccedilla" unicode="&#xe7;" horiz-adv-x="664" 
d="M357 -10q-82 0 -146 35.5t-101.5 97t-37.5 139.5t37.5 139.5t101.5 97t147 35.5q75 0 138.5 -26.5t103.5 -72.5l-44 -58q-23 25 -54.5 44.5t-68.5 30.5t-76 11q-59 0 -106.5 -26t-74.5 -71.5t-27 -103.5t28 -103.5t75 -71.5t104 -26q42 0 78 10t66.5 28t54.5 40l43 -57
q-43 -40 -105.5 -66t-135.5 -26zM262 -237l-7 42q29 1 56 7.5t44.5 18.5t17.5 28q0 15 -15.5 24.5t-37.5 14t-41 4.5l-12 14l65 99h51l-43 -68q44 -9 70 -29t26 -55q0 -26 -16 -46t-42 -31.5t-56 -17t-60 -5.5z" />
    <glyph glyph-name="egrave" unicode="&#xe8;" horiz-adv-x="700" 
d="M368 -10q-87 0 -155.5 34t-106.5 95t-38 140q0 63 22 112.5t61.5 86.5t93 57t114.5 20q59 0 108 -18.5t85 -52.5t55 -80t17 -102l-1 -39h-494l-11 63h448l-18 -13v24q-2 36 -26 69.5t-66 55t-97 21.5q-62 0 -110.5 -21.5t-76 -65.5t-27.5 -112q0 -62 29 -107t81.5 -70
t125.5 -25q54 0 97 15t87 47l36 -56q-26 -21 -62 -39t-79 -28.5t-92 -10.5zM407 599l-163 97l48 63l143 -119z" />
    <glyph glyph-name="eacute" unicode="&#xe9;" horiz-adv-x="700" 
d="M368 -10q-87 0 -155.5 34t-106.5 95t-38 140q0 63 22 112.5t61.5 86.5t93 57t114.5 20q59 0 108 -18.5t85 -52.5t55 -80t17 -102l-1 -39h-494l-11 63h448l-18 -13v24q-2 36 -26 69.5t-66 55t-97 21.5q-62 0 -110.5 -21.5t-76 -65.5t-27.5 -112q0 -62 29 -107t81.5 -70
t125.5 -25q54 0 97 15t87 47l36 -56q-26 -21 -62 -39t-79 -28.5t-92 -10.5zM298 599l-27 41l142 119l49 -63z" />
    <glyph glyph-name="ecircumflex" unicode="&#xea;" horiz-adv-x="700" 
d="M368 -10q-87 0 -155.5 34t-106.5 95t-38 140q0 63 22 112.5t61.5 86.5t93 57t114.5 20q59 0 108 -18.5t85 -52.5t55 -80t17 -102l-1 -39h-494l-11 63h448l-18 -13v24q-2 36 -26 69.5t-66 55t-97 21.5q-62 0 -110.5 -21.5t-76 -65.5t-27.5 -112q0 -62 29 -107t81.5 -70
t125.5 -25q54 0 97 15t87 47l36 -56q-26 -21 -62 -39t-79 -28.5t-92 -10.5zM243 605l-33 28l112 107h74l112 -107l-33 -28l-131 85h30z" />
    <glyph glyph-name="edieresis" unicode="&#xeb;" horiz-adv-x="700" 
d="M368 -10q-87 0 -155.5 34t-106.5 95t-38 140q0 63 22 112.5t61.5 86.5t93 57t114.5 20q59 0 108 -18.5t85 -52.5t55 -80t17 -102l-1 -39h-494l-11 63h448l-18 -13v24q-2 36 -26 69.5t-66 55t-97 21.5q-62 0 -110.5 -21.5t-76 -65.5t-27.5 -112q0 -62 29 -107t81.5 -70
t125.5 -25q54 0 97 15t87 47l36 -56q-26 -21 -62 -39t-79 -28.5t-92 -10.5zM456 633q-27 0 -42 14.5t-15 39.5t15 40t42 15t42 -14.5t15 -40.5q0 -24 -15 -39t-42 -15zM261 632q-28 0 -43 14.5t-15 40.5q0 24 15.5 39.5t42.5 15.5t42 -14.5t15 -40.5q0 -24 -15.5 -39.5
t-41.5 -15.5z" />
    <glyph glyph-name="igrave" unicode="&#xec;" horiz-adv-x="325" 
d="M124 0v522h76v-522h-76zM210 599l-163 97l48 63l143 -119z" />
    <glyph glyph-name="iacute" unicode="&#xed;" horiz-adv-x="325" 
d="M124 0v522h76v-522h-76zM101 599l-27 41l142 119l49 -63z" />
    <glyph glyph-name="icircumflex" unicode="&#xee;" horiz-adv-x="325" 
d="M124 0v522h76v-522h-76zM46 605l-33 28l112 107h74l112 -107l-33 -28l-131 85h30z" />
    <glyph glyph-name="idieresis" unicode="&#xef;" horiz-adv-x="325" 
d="M124 0v522h76v-522h-76zM259 633q-27 0 -42 14.5t-15 39.5t15 40t42 15t42 -14.5t15 -40.5q0 -24 -15 -39t-42 -15zM64 632q-28 0 -43 14.5t-15 40.5q0 24 15.5 39.5t42.5 15.5t42 -14.5t15 -40.5q0 -24 -15.5 -39.5t-41.5 -15.5z" />
    <glyph glyph-name="eth" unicode="&#xf0;" horiz-adv-x="698" 
d="M347 -9q-81 0 -143 35.5t-97 97t-35 139.5q0 55 21 103.5t57.5 84.5t86.5 56t107 20q60 0 107 -22t79 -60t47 -86l-33 3q-1 39 -15 78.5t-37.5 76t-56.5 68.5t-73 58t-86 43l35 53q49 -16 95 -46.5t86 -73.5t70 -96.5t47 -116.5t17 -132q0 -83 -36 -147t-99 -100
t-144 -36zM347 61q58 0 103.5 26.5t72.5 72t27 103.5q0 55 -27 99.5t-73.5 71t-106.5 26.5q-56 0 -100 -25.5t-69.5 -70.5t-25.5 -101q0 -58 26 -103.5t71.5 -72t101.5 -26.5zM246 548l-10 52l166 35l39 13l134 25l14 -53l-105 -18l-32 -12z" />
    <glyph glyph-name="ntilde" unicode="&#xf1;" horiz-adv-x="744" 
d="M132 0v522h74l3 -125l-18 -3q14 36 45.5 67.5t77 52t95.5 20.5q67 0 112.5 -26.5t68.5 -75.5t23 -119v-313h-76v305q0 52 -18 87t-51.5 53.5t-78.5 17.5q-40 0 -73 -14t-57.5 -36.5t-38 -51t-13.5 -58.5v-303h-37h-19.5h-18.5zM456 613q-21 0 -36.5 9t-35.5 27
q-14 13 -23.5 19t-19.5 6q-17 0 -29 -14.5t-16 -43.5l-54 7q4 45 32 76.5t72 31.5q19 0 34 -8t35 -26q15 -12 24 -19t20 -7q15 0 25.5 14t13.5 38l55 -7q-2 -28 -14.5 -51.5t-33.5 -37.5t-49 -14z" />
    <glyph glyph-name="ograve" unicode="&#xf2;" horiz-adv-x="743" 
d="M372 -10q-88 0 -155.5 35t-106 97t-38.5 141q0 78 38.5 139.5t106 96.5t155.5 35q87 0 154.5 -35t106 -96.5t38.5 -139.5q0 -79 -38.5 -140.5t-106 -97t-154.5 -35.5zM372 61q63 0 113.5 26.5t79 72t28.5 103.5t-28.5 103.5t-79 71t-113.5 25.5q-64 0 -114.5 -26
t-79.5 -71t-28 -103q-1 -58 28 -103.5t80 -72t114 -26.5zM421 599l-163 97l48 63l143 -119z" />
    <glyph glyph-name="oacute" unicode="&#xf3;" horiz-adv-x="743" 
d="M372 -10q-88 0 -155.5 35t-106 97t-38.5 141q0 78 38.5 139.5t106 96.5t155.5 35q87 0 154.5 -35t106 -96.5t38.5 -139.5q0 -79 -38.5 -140.5t-106 -97t-154.5 -35.5zM372 61q63 0 113.5 26.5t79 72t28.5 103.5t-28.5 103.5t-79 71t-113.5 25.5q-64 0 -114.5 -26
t-79.5 -71t-28 -103q-1 -58 28 -103.5t80 -72t114 -26.5zM311 599l-27 41l142 119l49 -63z" />
    <glyph glyph-name="ocircumflex" unicode="&#xf4;" horiz-adv-x="743" 
d="M372 -10q-88 0 -155.5 35t-106 97t-38.5 141q0 78 38.5 139.5t106 96.5t155.5 35q87 0 154.5 -35t106 -96.5t38.5 -139.5q0 -79 -38.5 -140.5t-106 -97t-154.5 -35.5zM372 61q63 0 113.5 26.5t79 72t28.5 103.5t-28.5 103.5t-79 71t-113.5 25.5q-64 0 -114.5 -26
t-79.5 -71t-28 -103q-1 -58 28 -103.5t80 -72t114 -26.5zM256 605l-33 28l112 107h74l112 -107l-33 -28l-131 85h30z" />
    <glyph glyph-name="otilde" unicode="&#xf5;" horiz-adv-x="743" 
d="M372 -10q-88 0 -155.5 35t-106 97t-38.5 141q0 78 38.5 139.5t106 96.5t155.5 35q87 0 154.5 -35t106 -96.5t38.5 -139.5q0 -79 -38.5 -140.5t-106 -97t-154.5 -35.5zM372 61q63 0 113.5 26.5t79 72t28.5 103.5t-28.5 103.5t-79 71t-113.5 25.5q-64 0 -114.5 -26
t-79.5 -71t-28 -103q-1 -58 28 -103.5t80 -72t114 -26.5zM430 613q-21 0 -36.5 9t-35.5 27q-14 13 -23.5 19t-19.5 6q-17 0 -29 -14.5t-16 -43.5l-54 7q4 45 32 76.5t72 31.5q19 0 34 -8t35 -26q15 -12 24 -19t20 -7q15 0 25.5 14t13.5 38l55 -7q-2 -28 -14.5 -51.5
t-33.5 -37.5t-49 -14z" />
    <glyph glyph-name="odieresis" unicode="&#xf6;" horiz-adv-x="743" 
d="M372 -10q-88 0 -155.5 35t-106 97t-38.5 141q0 78 38.5 139.5t106 96.5t155.5 35q87 0 154.5 -35t106 -96.5t38.5 -139.5q0 -79 -38.5 -140.5t-106 -97t-154.5 -35.5zM372 61q63 0 113.5 26.5t79 72t28.5 103.5t-28.5 103.5t-79 71t-113.5 25.5q-64 0 -114.5 -26
t-79.5 -71t-28 -103q-1 -58 28 -103.5t80 -72t114 -26.5zM469 633q-27 0 -42 14.5t-15 39.5t15 40t42 15t42 -14.5t15 -40.5q0 -24 -15 -39t-42 -15zM274 632q-28 0 -43 14.5t-15 40.5q0 24 15.5 39.5t42.5 15.5t42 -14.5t15 -40.5q0 -24 -15.5 -39.5t-41.5 -15.5z" />
    <glyph glyph-name="divide" unicode="&#xf7;" horiz-adv-x="706" 
d="M80 243v73h545v-73h-545zM350 49q-19 0 -36 6.5t-27 18.5t-10 30t10.5 30.5t26.5 18t36 5.5t36.5 -6t26 -18t9.5 -30t-10 -30.5t-26 -18.5t-36 -6zM351 392q-20 0 -36.5 6.5t-26.5 18t-10 29.5q0 19 10 31t26.5 18t36.5 6t36.5 -6t26 -18.5t9.5 -29.5q0 -18 -10 -30.5
t-26.5 -18.5t-35.5 -6z" />
    <glyph glyph-name="oslash" unicode="&#xf8;" horiz-adv-x="743" 
d="M135 -21l-46 39l518 523l46 -40zM372 -10q-88 0 -155.5 35t-106 97t-38.5 141q0 78 38.5 139.5t106 96.5t155.5 35t155.5 -35t105.5 -96.5t38 -139.5q0 -79 -38 -140.5t-105.5 -97t-155.5 -35.5zM372 61q64 0 114.5 26.5t79 72t27.5 103.5q1 58 -27.5 103.5t-79 71
t-114.5 25.5t-114 -26t-79.5 -71t-28.5 -103q-1 -58 28.5 -103.5t80 -72t113.5 -26.5z" />
    <glyph glyph-name="ugrave" unicode="&#xf9;" horiz-adv-x="731" 
d="M330 -10q-66 0 -112 27t-70.5 78.5t-24.5 124.5v302h76v-284q0 -57 17 -96.5t51 -59.5t83 -20q39 0 72.5 13t58 35.5t38.5 52.5t14 65v294h76v-522h-75l-3 116l13 6q-11 -34 -42 -64.5t-75.5 -49t-96.5 -18.5zM415 599l-163 97l48 63l143 -119z" />
    <glyph glyph-name="uacute" unicode="&#xfa;" horiz-adv-x="731" 
d="M330 -10q-66 0 -112 27t-70.5 78.5t-24.5 124.5v302h76v-284q0 -57 17 -96.5t51 -59.5t83 -20q39 0 72.5 13t58 35.5t38.5 52.5t14 65v294h76v-522h-75l-3 116l13 6q-11 -34 -42 -64.5t-75.5 -49t-96.5 -18.5zM305 599l-27 41l142 119l49 -63z" />
    <glyph glyph-name="ucircumflex" unicode="&#xfb;" horiz-adv-x="731" 
d="M330 -10q-66 0 -112 27t-70.5 78.5t-24.5 124.5v302h76v-284q0 -57 17 -96.5t51 -59.5t83 -20q39 0 72.5 13t58 35.5t38.5 52.5t14 65v294h76v-522h-75l-3 116l13 6q-11 -34 -42 -64.5t-75.5 -49t-96.5 -18.5zM250 605l-33 28l112 107h74l112 -107l-33 -28l-131 85h30z
" />
    <glyph glyph-name="udieresis" unicode="&#xfc;" horiz-adv-x="731" 
d="M330 -10q-66 0 -112 27t-70.5 78.5t-24.5 124.5v302h76v-284q0 -57 17 -96.5t51 -59.5t83 -20q39 0 72.5 13t58 35.5t38.5 52.5t14 65v294h76v-522h-75l-3 116l13 6q-11 -34 -42 -64.5t-75.5 -49t-96.5 -18.5zM464 633q-27 0 -42 14.5t-15 39.5t15 40t42 15t42 -14.5
t15 -40.5q0 -24 -15 -39t-42 -15zM269 632q-28 0 -43 14.5t-15 40.5q0 24 15.5 39.5t42.5 15.5t42 -14.5t15 -40.5q0 -24 -15.5 -39.5t-41.5 -15.5z" />
    <glyph glyph-name="yacute" unicode="&#xfd;" horiz-adv-x="694" 
d="M218 -230l115 246l7 -70l-291 576h85l185 -372q18 -33 31 -63t21 -57l-25 6q10 23 21 49t23 55l170 382h86l-242 -521l-106 -231h-80zM286 599l-27 41l142 119l49 -63z" />
    <glyph glyph-name="thorn" unicode="&#xfe;" horiz-adv-x="773" 
d="M132 -220v960h76v-345l-13 -2q10 37 43.5 68.5t82.5 51t105 19.5q58 0 108 -20t87.5 -56.5t58.5 -86t21 -108.5q0 -78 -36 -139t-98 -96.5t-140 -35.5q-58 0 -108 21t-84 53.5t-45 68.5h18v-353h-76zM415 62q62 0 109 26t74.5 71t27.5 102q0 58 -27.5 103t-74.5 71
t-109 26q-61 0 -109 -25.5t-75.5 -70.5t-27.5 -103t27.5 -103t75.5 -71t109 -26z" />
    <glyph glyph-name="ydieresis" unicode="&#xff;" horiz-adv-x="694" 
d="M218 -230l115 246l7 -70l-291 576h85l185 -372q18 -33 31 -63t21 -57l-25 6q10 23 21 49t23 55l170 382h86l-242 -521l-106 -231h-80zM444 633q-27 0 -42 14.5t-15 39.5t15 40t42 15t42 -14.5t15 -40.5q0 -24 -15 -39t-42 -15zM249 632q-28 0 -43 14.5t-15 40.5
q0 24 15.5 39.5t42.5 15.5t42 -14.5t15 -40.5q0 -24 -15.5 -39.5t-41.5 -15.5z" />
    <glyph glyph-name="Amacron" unicode="&#x100;" horiz-adv-x="790" 
d="M53 0l297 700h92l295 -700h-86l-202 478q-9 24 -17.5 46.5t-17 44t-16.5 43.5l-16 44h22q-9 -26 -17 -48.5t-16.5 -43.5t-17.5 -43t-19 -48l-201 -473h-80zM177 189l31 76h369l26 -76h-426zM241 794v60h307v-60h-307z" />
    <glyph glyph-name="amacron" unicode="&#x101;" horiz-adv-x="760" 
d="M340 -10q-80 0 -141.5 35t-96 96.5t-34.5 140.5t36 140.5t98 96.5t141 35q49 0 90.5 -13t73 -36t51.5 -51.5t25 -58.5l-24 7l3 140h74v-522h-75v136l20 11q-6 -30 -27 -58t-54 -50.5t-74 -35.5t-86 -13zM356 62q60 0 107.5 25.5t74.5 71t27 103.5q0 57 -27 102t-74.5 72
t-107.5 27q-62 0 -109 -27t-74 -72t-27 -102q0 -58 26 -103t73.5 -71t110.5 -26zM231 643v58h284v-58h-284z" />
    <glyph glyph-name="Abreve" unicode="&#x102;" horiz-adv-x="790" 
d="M53 0l297 700h92l295 -700h-86l-202 478q-9 24 -17.5 46.5t-17 44t-16.5 43.5l-16 44h22q-9 -26 -17 -48.5t-16.5 -43.5t-17.5 -43t-19 -48l-201 -473h-80zM177 189l31 76h369l26 -76h-426zM395 756q-38 0 -69.5 17t-52.5 45.5t-30 65.5l58 8q11 -37 36 -56.5t58 -19.5
t58 19.5t36 56.5l58 -8q-8 -37 -29.5 -65.5t-52.5 -45.5t-70 -17z" />
    <glyph glyph-name="abreve" unicode="&#x103;" horiz-adv-x="760" 
d="M340 -10q-80 0 -141.5 35t-96 96.5t-34.5 140.5t36 140.5t98 96.5t141 35q49 0 90.5 -13t73 -36t51.5 -51.5t25 -58.5l-24 7l3 140h74v-522h-75v136l20 11q-6 -30 -27 -58t-54 -50.5t-74 -35.5t-86 -13zM356 62q60 0 107.5 25.5t74.5 71t27 103.5q0 57 -27 102t-74.5 72
t-107.5 27q-62 0 -109 -27t-74 -72t-27 -102q0 -58 26 -103t73.5 -71t110.5 -26zM373 592q-59 0 -99 38.5t-53 104.5l58 8q12 -42 37 -66t57 -24t57 24t37 66l58 -8q-13 -66 -53 -104.5t-99 -38.5z" />
    <glyph glyph-name="Aogonek" unicode="&#x104;" horiz-adv-x="790" 
d="M53 0l297 700h92l295 -700h-86l-202 478q-9 24 -17.5 46.5t-17 44t-16.5 43.5l-16 44h22q-9 -26 -17 -48.5t-16.5 -43.5t-17.5 -43t-19 -48l-201 -473h-80zM177 189l31 76h369l26 -76h-426zM664 -211q-31 0 -56 13.5t-40.5 36t-15.5 51.5q0 27 12.5 49.5t34.5 40
t48.5 31.5t55.5 24l33 -35q-32 -11 -58.5 -28t-41.5 -35.5t-15 -40.5q0 -20 15 -33.5t37 -13.5q18 0 31 7.5t22 20.5l45 -32q-14 -24 -42 -40t-65 -16z" />
    <glyph glyph-name="aogonek" unicode="&#x105;" horiz-adv-x="760" 
d="M340 -10q-80 0 -141.5 35t-96 96.5t-34.5 140.5t36 140.5t98 96.5t141 35q49 0 90.5 -13t73 -36t51.5 -51.5t25 -58.5l-24 7l3 140h74v-522h-75v136l20 11q-6 -30 -27 -58t-54 -50.5t-74 -35.5t-86 -13zM356 62q60 0 107.5 25.5t74.5 71t27 103.5q0 57 -27 102t-74.5 72
t-107.5 27q-62 0 -109 -27t-74 -72t-27 -102q0 -58 26 -103t73.5 -71t110.5 -26zM553 -211q-26 0 -49 12.5t-37 34t-14 48.5t12 50t32 41t48 33.5t59 27.5l32 -36q-32 -12 -58.5 -28.5t-41.5 -36.5t-15 -43q0 -19 12 -31.5t31 -12.5q15 0 27.5 8t23.5 23l44 -32
q-8 -16 -23.5 -29t-35.5 -21t-47 -8z" />
    <glyph glyph-name="Cacute" unicode="&#x106;" horiz-adv-x="797" 
d="M454 -10q-80 0 -148 26.5t-119 75t-78.5 114t-27.5 144.5q0 77 28 141.5t78.5 112.5t118 74.5t145.5 26.5q55 0 108 -16t97.5 -42.5t72.5 -59.5l-51 -62q-28 32 -64.5 54.5t-78.5 35.5t-87 13q-59 0 -112 -20t-91.5 -57.5t-60.5 -88.5t-22 -112q0 -63 22.5 -115.5
t63 -89.5t94.5 -57.5t118 -20.5q46 0 87.5 12.5t75 33t57.5 46.5l39 -66q-25 -27 -67 -50.5t-93.5 -38t-104.5 -14.5zM384 757l-23 42l167 105l41 -70z" />
    <glyph glyph-name="cacute" unicode="&#x107;" horiz-adv-x="664" 
d="M357 -10q-82 0 -146 35.5t-101.5 97t-37.5 139.5t37.5 139.5t101.5 97t147 35.5q75 0 138.5 -26.5t103.5 -72.5l-44 -58q-23 25 -54.5 44.5t-68.5 30.5t-76 11q-59 0 -106.5 -26t-74.5 -71.5t-27 -103.5t28 -103.5t75 -71.5t104 -26q42 0 78 10t66.5 28t54.5 40l43 -57
q-43 -40 -105.5 -66t-135.5 -26zM297 599l-27 41l142 119l49 -63z" />
    <glyph glyph-name="Ccircumflex" unicode="&#x108;" horiz-adv-x="797" 
d="M454 -10q-80 0 -148 26.5t-119 75t-78.5 114t-27.5 144.5q0 77 28 141.5t78.5 112.5t118 74.5t145.5 26.5q55 0 108 -16t97.5 -42.5t72.5 -59.5l-51 -62q-28 32 -64.5 54.5t-78.5 35.5t-87 13q-59 0 -112 -20t-91.5 -57.5t-60.5 -88.5t-22 -112q0 -63 22.5 -115.5
t63 -89.5t94.5 -57.5t118 -20.5q46 0 87.5 12.5t75 33t57.5 46.5l39 -66q-25 -27 -67 -50.5t-93.5 -38t-104.5 -14.5zM328 760l-33 30l122 96h67l121 -96l-32 -30l-138 76h30z" />
    <glyph glyph-name="ccircumflex" unicode="&#x109;" horiz-adv-x="664" 
d="M357 -10q-82 0 -146 35.5t-101.5 97t-37.5 139.5t37.5 139.5t101.5 97t147 35.5q75 0 138.5 -26.5t103.5 -72.5l-44 -58q-23 25 -54.5 44.5t-68.5 30.5t-76 11q-59 0 -106.5 -26t-74.5 -71.5t-27 -103.5t28 -103.5t75 -71.5t104 -26q42 0 78 10t66.5 28t54.5 40l43 -57
q-43 -40 -105.5 -66t-135.5 -26zM242 605l-33 28l112 107h74l112 -107l-33 -28l-131 85h30z" />
    <glyph glyph-name="Cdotaccent" unicode="&#x10a;" horiz-adv-x="797" 
d="M454 -10q-80 0 -148 26.5t-119 75t-78.5 114t-27.5 144.5q0 77 28 141.5t78.5 112.5t118 74.5t145.5 26.5q55 0 108 -16t97.5 -42.5t72.5 -59.5l-51 -62q-28 32 -64.5 54.5t-78.5 35.5t-87 13q-59 0 -112 -20t-91.5 -57.5t-60.5 -88.5t-22 -112q0 -63 22.5 -115.5
t63 -89.5t94.5 -57.5t118 -20.5q46 0 87.5 12.5t75 33t57.5 46.5l39 -66q-25 -27 -67 -50.5t-93.5 -38t-104.5 -14.5zM450 769q-28 0 -42.5 15t-14.5 40q0 22 14.5 38.5t42.5 16.5t42.5 -15t14.5 -40q0 -22 -14.5 -38.5t-42.5 -16.5z" />
    <glyph glyph-name="cdotaccent" unicode="&#x10b;" horiz-adv-x="664" 
d="M357 -10q-82 0 -146 35.5t-101.5 97t-37.5 139.5t37.5 139.5t101.5 97t147 35.5q75 0 138.5 -26.5t103.5 -72.5l-44 -58q-23 25 -54.5 44.5t-68.5 30.5t-76 11q-59 0 -106.5 -26t-74.5 -71.5t-27 -103.5t28 -103.5t75 -71.5t104 -26q42 0 78 10t66.5 28t54.5 40l43 -57
q-43 -40 -105.5 -66t-135.5 -26zM358 637q-27 0 -42 14.5t-15 40.5q0 24 15 39t42 15t42 -14.5t15 -39.5t-15 -40t-42 -15z" />
    <glyph glyph-name="Ccaron" unicode="&#x10c;" horiz-adv-x="797" 
d="M454 -10q-80 0 -148 26.5t-119 75t-78.5 114t-27.5 144.5q0 77 28 141.5t78.5 112.5t118 74.5t145.5 26.5q55 0 108 -16t97.5 -42.5t72.5 -59.5l-51 -62q-28 32 -64.5 54.5t-78.5 35.5t-87 13q-59 0 -112 -20t-91.5 -57.5t-60.5 -88.5t-22 -112q0 -63 22.5 -115.5
t63 -89.5t94.5 -57.5t118 -20.5q46 0 87.5 12.5t75 33t57.5 46.5l39 -66q-25 -27 -67 -50.5t-93.5 -38t-104.5 -14.5zM413 762l-114 96l33 29l133 -75h-30l133 75l33 -29l-114 -96h-74z" />
    <glyph glyph-name="ccaron" unicode="&#x10d;" horiz-adv-x="664" 
d="M357 -10q-82 0 -146 35.5t-101.5 97t-37.5 139.5t37.5 139.5t101.5 97t147 35.5q75 0 138.5 -26.5t103.5 -72.5l-44 -58q-23 25 -54.5 44.5t-68.5 30.5t-76 11q-59 0 -106.5 -26t-74.5 -71.5t-27 -103.5t28 -103.5t75 -71.5t104 -26q42 0 78 10t66.5 28t54.5 40l43 -57
q-43 -40 -105.5 -66t-135.5 -26zM321 603l-107 107l33 29l126 -85h-30l126 85l33 -29l-107 -107h-74z" />
    <glyph glyph-name="Dcaron" unicode="&#x10e;" horiz-adv-x="867" 
d="M137 0v700h296q80 0 144.5 -26t111.5 -73.5t72 -111t25 -139.5t-25 -140t-71.5 -111t-111.5 -73t-145 -26h-296zM215 62l-9 14h222q63 0 114.5 20.5t87 57t55 86t19.5 110.5q0 60 -19.5 110t-55.5 86.5t-87 57t-114 20.5h-225l12 12v-574zM398 762l-114 96l33 29l133 -75
h-30l133 75l33 -29l-114 -96h-74z" />
    <glyph glyph-name="dcaron" unicode="&#x10f;" horiz-adv-x="760" 
d="M341 -10q-79 0 -140.5 35.5t-96.5 97t-35 139.5q0 79 35.5 140.5t97.5 96.5t141 35q46 0 86.5 -12t73 -33.5t53.5 -49.5t28 -59l-24 8v352h75v-740h-74l-2 137l20 5q-6 -30 -27.5 -57t-53.5 -48.5t-72.5 -34t-84.5 -12.5zM354 60q61 0 108.5 26.5t74.5 72t27 104.5
q0 57 -26.5 102.5t-74 71.5t-109.5 26q-60 0 -106.5 -26t-73.5 -71t-27 -103t27 -104t73.5 -72.5t106.5 -26.5zM714 561l-22 33q15 6 26.5 14t17.5 17.5t6 18.5q0 10 -5.5 13.5t-14.5 6.5q-12 4 -19 12t-7 23q0 18 15 29.5t37 11.5q28 0 47 -17.5t19 -50.5q0 -20 -8 -36.5
t-22 -30t-32 -24.5t-38 -20z" />
    <glyph glyph-name="Dcroat" unicode="&#x110;" horiz-adv-x="867" 
d="M69 317v65h324v-65h-324zM137 0v700h296q80 0 144.5 -26t111.5 -73.5t72 -111t25 -139.5t-25 -140t-71.5 -111t-111.5 -73t-145 -26h-296zM215 62l-9 14h222q63 0 114.5 20.5t87 57t55 86t19.5 110.5q0 60 -19.5 110t-55.5 86.5t-87 57t-114 20.5h-225l12 12v-574z" />
    <glyph glyph-name="dcroat" unicode="&#x111;" horiz-adv-x="757" 
d="M392 601v65h324v-65h-324zM341 -10q-79 0 -140.5 35.5t-96.5 97t-35 139.5q0 79 35.5 140.5t97.5 96.5t141 35q46 0 86.5 -12t73 -33.5t53.5 -49.5t28 -59l-24 8v352h75v-740h-74l-2 137l20 5q-6 -30 -27.5 -57t-53.5 -48.5t-72.5 -34t-84.5 -12.5zM354 60
q61 0 108.5 26.5t74.5 72t27 104.5q0 57 -26.5 102.5t-74 71.5t-109.5 26q-60 0 -106.5 -26t-73.5 -71t-27 -103t27 -104t73.5 -72.5t106.5 -26.5z" />
    <glyph glyph-name="Emacron" unicode="&#x112;" horiz-adv-x="723" 
d="M137 0v700h480v-76h-402v-548h400v-76h-478zM176 322v76h385v-76h-385zM233 794v60h307v-60h-307z" />
    <glyph glyph-name="emacron" unicode="&#x113;" horiz-adv-x="700" 
d="M368 -10q-87 0 -155.5 34t-106.5 95t-38 140q0 63 22 112.5t61.5 86.5t93 57t114.5 20q59 0 108 -18.5t85 -52.5t55 -80t17 -102l-1 -39h-494l-11 63h448l-18 -13v24q-2 36 -26 69.5t-66 55t-97 21.5q-62 0 -110.5 -21.5t-76 -65.5t-27.5 -112q0 -62 29 -107t81.5 -70
t125.5 -25q54 0 97 15t87 47l36 -56q-26 -21 -62 -39t-79 -28.5t-92 -10.5zM217 643v58h284v-58h-284z" />
    <glyph glyph-name="Ebreve" unicode="&#x114;" horiz-adv-x="723" 
d="M137 0v700h480v-76h-402v-548h400v-76h-478zM176 322v76h385v-76h-385zM387 756q-38 0 -69.5 17t-52.5 45.5t-30 65.5l58 8q11 -37 36 -56.5t58 -19.5t58 19.5t36 56.5l58 -8q-8 -37 -29.5 -65.5t-52.5 -45.5t-70 -17z" />
    <glyph glyph-name="ebreve" unicode="&#x115;" horiz-adv-x="700" 
d="M368 -10q-87 0 -155.5 34t-106.5 95t-38 140q0 63 22 112.5t61.5 86.5t93 57t114.5 20q59 0 108 -18.5t85 -52.5t55 -80t17 -102l-1 -39h-494l-11 63h448l-18 -13v24q-2 36 -26 69.5t-66 55t-97 21.5q-62 0 -110.5 -21.5t-76 -65.5t-27.5 -112q0 -62 29 -107t81.5 -70
t125.5 -25q54 0 97 15t87 47l36 -56q-26 -21 -62 -39t-79 -28.5t-92 -10.5zM359 592q-59 0 -99 38.5t-53 104.5l58 8q12 -42 37 -66t57 -24t57 24t37 66l58 -8q-13 -66 -53 -104.5t-99 -38.5z" />
    <glyph glyph-name="Edotaccent" unicode="&#x116;" horiz-adv-x="723" 
d="M137 0v700h480v-76h-402v-548h400v-76h-478zM176 322v76h385v-76h-385zM387 769q-28 0 -42.5 15t-14.5 40q0 22 14.5 38.5t42.5 16.5t42.5 -15t14.5 -40q0 -22 -14.5 -38.5t-42.5 -16.5z" />
    <glyph glyph-name="edotaccent" unicode="&#x117;" horiz-adv-x="700" 
d="M368 -10q-87 0 -155.5 34t-106.5 95t-38 140q0 63 22 112.5t61.5 86.5t93 57t114.5 20q59 0 108 -18.5t85 -52.5t55 -80t17 -102l-1 -39h-494l-11 63h448l-18 -13v24q-2 36 -26 69.5t-66 55t-97 21.5q-62 0 -110.5 -21.5t-76 -65.5t-27.5 -112q0 -62 29 -107t81.5 -70
t125.5 -25q54 0 97 15t87 47l36 -56q-26 -21 -62 -39t-79 -28.5t-92 -10.5zM359 637q-27 0 -42 14.5t-15 40.5q0 24 15 39t42 15t42 -14.5t15 -39.5t-15 -40t-42 -15z" />
    <glyph glyph-name="Eogonek" unicode="&#x118;" horiz-adv-x="723" 
d="M137 0v700h480v-76h-402v-548h400v-76h-478zM176 322v76h385v-76h-385zM504 -211q-31 0 -56 13.5t-40.5 36t-15.5 51.5q0 27 12.5 49.5t34.5 40t48.5 31.5t55.5 24l33 -35q-32 -11 -58.5 -28t-41.5 -35.5t-15 -40.5q0 -20 15 -33.5t37 -13.5q18 0 31 7.5t22 20.5l45 -32
q-14 -24 -42 -40t-65 -16z" />
    <glyph glyph-name="eogonek" unicode="&#x119;" horiz-adv-x="700" 
d="M468 -211q-47 0 -76 26.5t-29 68.5q0 39 22.5 71.5t62.5 60.5t91 54l23 -30q-63 -35 -97 -69.5t-34 -73.5q0 -23 12.5 -36t34.5 -13q14 0 26.5 7.5t25.5 23.5l44 -32q-11 -17 -26.5 -30t-35.5 -20.5t-44 -7.5zM368 -10q-87 0 -155.5 34t-106.5 95t-38 140q0 63 22 112.5
t61.5 86.5t93 57t114.5 20q59 0 108 -18.5t85 -52.5t55 -80t17 -102l-1 -39h-494l-11 63h448l-18 -13v24q-2 36 -26 69.5t-66 55t-97 21.5q-62 0 -110.5 -21.5t-76 -65.5t-27.5 -112q0 -62 29 -107t81.5 -70t125.5 -25q54 0 97 15t87 47l36 -56q-26 -21 -62 -39t-79 -28.5
t-92 -10.5z" />
    <glyph glyph-name="Ecaron" unicode="&#x11a;" horiz-adv-x="723" 
d="M137 0v700h480v-76h-402v-548h400v-76h-478zM176 322v76h385v-76h-385zM350 762l-114 96l33 29l133 -75h-30l133 75l33 -29l-114 -96h-74z" />
    <glyph glyph-name="ecaron" unicode="&#x11b;" horiz-adv-x="700" 
d="M368 -10q-87 0 -155.5 34t-106.5 95t-38 140q0 63 22 112.5t61.5 86.5t93 57t114.5 20q59 0 108 -18.5t85 -52.5t55 -80t17 -102l-1 -39h-494l-11 63h448l-18 -13v24q-2 36 -26 69.5t-66 55t-97 21.5q-62 0 -110.5 -21.5t-76 -65.5t-27.5 -112q0 -62 29 -107t81.5 -70
t125.5 -25q54 0 97 15t87 47l36 -56q-26 -21 -62 -39t-79 -28.5t-92 -10.5zM322 603l-107 107l33 29l126 -85h-30l126 85l33 -29l-107 -107h-74z" />
    <glyph glyph-name="Gcircumflex" unicode="&#x11c;" horiz-adv-x="890" 
d="M470 -10q-82 0 -152.5 25.5t-123.5 73t-83 114t-30 146.5q0 76 29.5 141t82 113.5t123.5 75t153 26.5q60 0 115.5 -15.5t101 -41.5t71.5 -59l-50 -55q-30 28 -68.5 49t-82 33.5t-86.5 12.5q-65 0 -121 -21t-98 -58.5t-65 -89t-23 -111.5q0 -64 23.5 -115.5t67 -89
t99.5 -57.5t121 -20q54 0 102.5 14.5t84.5 40.5t56 60.5t19 73.5v31l18 -23h-282v77h344q1 -9 2 -18.5t1.5 -19t0.5 -16.5q0 -66 -27 -120t-74.5 -93.5t-111 -61.5t-137.5 -22zM344 760l-33 30l122 96h67l121 -96l-32 -30l-138 76h30z" />
    <glyph glyph-name="gcircumflex" unicode="&#x11d;" horiz-adv-x="768" 
d="M372 -230q-70 0 -125.5 18.5t-92.5 44.5l30 65q21 -15 50 -28t64.5 -21.5t75.5 -8.5q59 0 103 22.5t68 67.5t24 113v87l13 3q-12 -39 -46.5 -71.5t-84.5 -51.5t-107 -19q-79 0 -140 35t-96.5 96.5t-35.5 139.5q0 79 36.5 140t98.5 96.5t141 35.5q31 0 62.5 -7t60.5 -20
t53 -31t41 -40.5t23 -46.5l-21 3l2 130h76v-474q0 -70 -21 -121.5t-58 -86.5t-87 -52.5t-107 -17.5zM361 62q62 0 109.5 26t74.5 71t27 103q-1 59 -28 104.5t-74.5 71t-108.5 25.5t-108.5 -26t-75 -71.5t-27.5 -102.5q0 -58 27 -103.5t74.5 -71.5t109.5 -26zM262 605l-33 28
l112 107h74l112 -107l-33 -28l-131 85h30z" />
    <glyph glyph-name="Gbreve" unicode="&#x11e;" horiz-adv-x="890" 
d="M470 -10q-82 0 -152.5 25.5t-123.5 73t-83 114t-30 146.5q0 76 29.5 141t82 113.5t123.5 75t153 26.5q60 0 115.5 -15.5t101 -41.5t71.5 -59l-50 -55q-30 28 -68.5 49t-82 33.5t-86.5 12.5q-65 0 -121 -21t-98 -58.5t-65 -89t-23 -111.5q0 -64 23.5 -115.5t67 -89
t99.5 -57.5t121 -20q54 0 102.5 14.5t84.5 40.5t56 60.5t19 73.5v31l18 -23h-282v77h344q1 -9 2 -18.5t1.5 -19t0.5 -16.5q0 -66 -27 -120t-74.5 -93.5t-111 -61.5t-137.5 -22zM466 756q-38 0 -69.5 17t-52.5 45.5t-30 65.5l58 8q11 -37 36 -56.5t58 -19.5t58 19.5t36 56.5
l58 -8q-8 -37 -29.5 -65.5t-52.5 -45.5t-70 -17z" />
    <glyph glyph-name="gbreve" unicode="&#x11f;" horiz-adv-x="768" 
d="M372 -230q-70 0 -125.5 18.5t-92.5 44.5l30 65q21 -15 50 -28t64.5 -21.5t75.5 -8.5q59 0 103 22.5t68 67.5t24 113v87l13 3q-12 -39 -46.5 -71.5t-84.5 -51.5t-107 -19q-79 0 -140 35t-96.5 96.5t-35.5 139.5q0 79 36.5 140t98.5 96.5t141 35.5q31 0 62.5 -7t60.5 -20
t53 -31t41 -40.5t23 -46.5l-21 3l2 130h76v-474q0 -70 -21 -121.5t-58 -86.5t-87 -52.5t-107 -17.5zM361 62q62 0 109.5 26t74.5 71t27 103q-1 59 -28 104.5t-74.5 71t-108.5 25.5t-108.5 -26t-75 -71.5t-27.5 -102.5q0 -58 27 -103.5t74.5 -71.5t109.5 -26zM378 592
q-59 0 -99 38.5t-53 104.5l58 8q12 -42 37 -66t57 -24t57 24t37 66l58 -8q-13 -66 -53 -104.5t-99 -38.5z" />
    <glyph glyph-name="Gdotaccent" unicode="&#x120;" horiz-adv-x="890" 
d="M470 -10q-82 0 -152.5 25.5t-123.5 73t-83 114t-30 146.5q0 76 29.5 141t82 113.5t123.5 75t153 26.5q60 0 115.5 -15.5t101 -41.5t71.5 -59l-50 -55q-30 28 -68.5 49t-82 33.5t-86.5 12.5q-65 0 -121 -21t-98 -58.5t-65 -89t-23 -111.5q0 -64 23.5 -115.5t67 -89
t99.5 -57.5t121 -20q54 0 102.5 14.5t84.5 40.5t56 60.5t19 73.5v31l18 -23h-282v77h344q1 -9 2 -18.5t1.5 -19t0.5 -16.5q0 -66 -27 -120t-74.5 -93.5t-111 -61.5t-137.5 -22zM466 769q-28 0 -42.5 15t-14.5 40q0 22 14.5 38.5t42.5 16.5t42.5 -15t14.5 -40
q0 -22 -14.5 -38.5t-42.5 -16.5z" />
    <glyph glyph-name="gdotaccent" unicode="&#x121;" horiz-adv-x="768" 
d="M372 -230q-70 0 -125.5 18.5t-92.5 44.5l30 65q21 -15 50 -28t64.5 -21.5t75.5 -8.5q59 0 103 22.5t68 67.5t24 113v87l13 3q-12 -39 -46.5 -71.5t-84.5 -51.5t-107 -19q-79 0 -140 35t-96.5 96.5t-35.5 139.5q0 79 36.5 140t98.5 96.5t141 35.5q31 0 62.5 -7t60.5 -20
t53 -31t41 -40.5t23 -46.5l-21 3l2 130h76v-474q0 -70 -21 -121.5t-58 -86.5t-87 -52.5t-107 -17.5zM361 62q62 0 109.5 26t74.5 71t27 103q-1 59 -28 104.5t-74.5 71t-108.5 25.5t-108.5 -26t-75 -71.5t-27.5 -102.5q0 -58 27 -103.5t74.5 -71.5t109.5 -26zM378 637
q-27 0 -42 14.5t-15 40.5q0 24 15 39t42 15t42 -14.5t15 -39.5t-15 -40t-42 -15z" />
    <glyph glyph-name="uni0122" unicode="&#x122;" horiz-adv-x="890" 
d="M470 -10q-82 0 -152.5 25.5t-123.5 73t-83 114t-30 146.5q0 76 29.5 141t82 113.5t123.5 75t153 26.5q60 0 115.5 -15.5t101 -41.5t71.5 -59l-50 -55q-30 28 -68.5 49t-82 33.5t-86.5 12.5q-65 0 -121 -21t-98 -58.5t-65 -89t-23 -111.5q0 -64 23.5 -115.5t67 -89
t99.5 -57.5t121 -20q54 0 102.5 14.5t84.5 40.5t56 60.5t19 73.5v31l18 -23h-282v77h344q1 -9 2 -18.5t1.5 -19t0.5 -16.5q0 -66 -27 -120t-74.5 -93.5t-111 -61.5t-137.5 -22zM407 -236l-22 33q15 7 26.5 15t17.5 17t6 18t-5.5 13t-14.5 7q-12 5 -19 13.5t-7 22.5
q0 18 14.5 29.5t35.5 11.5q29 0 48.5 -18t19.5 -51q0 -20 -8 -36.5t-22 -29.5t-32 -24.5t-38 -20.5z" />
    <glyph glyph-name="uni0123" unicode="&#x123;" horiz-adv-x="768" 
d="M372 -230q-70 0 -125.5 18.5t-92.5 44.5l30 65q21 -15 50 -28t64.5 -21.5t75.5 -8.5q59 0 103 22.5t68 67.5t24 113v87l13 3q-12 -39 -46.5 -71.5t-84.5 -51.5t-107 -19q-79 0 -140 35t-96.5 96.5t-35.5 139.5q0 79 36.5 140t98.5 96.5t141 35.5q31 0 62.5 -7t60.5 -20
t53 -31t41 -40.5t23 -46.5l-21 3l2 130h76v-474q0 -70 -21 -121.5t-58 -86.5t-87 -52.5t-107 -17.5zM361 62q62 0 109.5 26t74.5 71t27 103q-1 59 -28 104.5t-74.5 71t-108.5 25.5t-108.5 -26t-75 -71.5t-27.5 -102.5q0 -58 27 -103.5t74.5 -71.5t109.5 -26zM385 604
q-27 0 -47.5 17t-20.5 51q0 22 9 38.5t24 30t32.5 24t34.5 18.5l22 -33q-14 -6 -25.5 -14t-18 -17t-6.5 -19t6.5 -14t14.5 -7q10 -3 17.5 -11t7.5 -24q0 -19 -14.5 -29.5t-35.5 -10.5z" />
    <glyph glyph-name="Hcircumflex" unicode="&#x124;" horiz-adv-x="875" 
d="M661 0v700h78v-700h-78zM137 0v700h78v-700h-78zM175 309v76h519v-76h-519zM316 760l-33 30l122 96h67l121 -96l-32 -30l-138 76h30z" />
    <glyph glyph-name="hcircumflex" unicode="&#x125;" horiz-adv-x="744" 
d="M132 0v740h75v-348l-21 -13q11 42 44.5 77.5t81 56.5t97.5 21q68 0 113.5 -26.5t68 -75.5t22.5 -119v-313h-76v305q0 52 -18 87.5t-51.5 54t-79.5 17.5q-39 0 -72 -14t-57.5 -37t-38 -51.5t-13.5 -58.5v-303h-37h-21h-17zM248 800l-33 30l122 96h67l121 -96l-32 -30
l-138 76h30z" />
    <glyph glyph-name="Hbar" unicode="&#x126;" horiz-adv-x="950" 
d="M65 503v74h122l36 -5h501l27 5h134v-74h-131l-24 5h-510l-36 -5h-119zM697 0v700h78v-700h-78zM174 0v700h78v-700h-78zM211 309l1 76h518v-76h-519z" />
    <glyph glyph-name="hbar" unicode="&#x127;" horiz-adv-x="744" 
d="M42 605v65h324v-65h-324zM132 0v740h75v-348l-21 -13q11 42 44.5 77.5t81 56.5t97.5 21q68 0 113.5 -26.5t68 -75.5t22.5 -119v-313h-76v305q0 52 -18 87.5t-51.5 54t-79.5 17.5q-39 0 -72 -14t-57.5 -37t-38 -51.5t-13.5 -58.5v-303h-37h-21h-17z" />
    <glyph glyph-name="Itilde" unicode="&#x128;" horiz-adv-x="594" 
d="M117 0v76h141v548h-141v76h360v-76h-141v-548h141v-76h-360zM368 774q-22 0 -44 8t-45 17q-14 6 -26 11t-23 5q-14 0 -24 -10.5t-10 -30.5h-61q0 47 29 74t67 27q22 0 42 -7.5t42 -17.5q12 -5 25.5 -10t23.5 -5q14 0 24 10t9 29h61q0 -28 -11.5 -50.5t-31.5 -36
t-47 -13.5z" />
    <glyph glyph-name="itilde" unicode="&#x129;" horiz-adv-x="325" 
d="M124 0v522h76v-522h-76zM220 613q-21 0 -36.5 9t-35.5 27q-14 13 -23.5 19t-19.5 6q-17 0 -29 -14.5t-16 -43.5l-54 7q4 45 32 76.5t72 31.5q19 0 34 -8t35 -26q15 -12 24 -19t20 -7q15 0 25.5 14t13.5 38l55 -7q-2 -28 -14.5 -51.5t-33.5 -37.5t-49 -14z" />
    <glyph glyph-name="Imacron" unicode="&#x12a;" horiz-adv-x="594" 
d="M117 0v76h141v548h-141v76h360v-76h-141v-548h141v-76h-360zM143 794v60h307v-60h-307z" />
    <glyph glyph-name="imacron" unicode="&#x12b;" horiz-adv-x="325" 
d="M124 0v522h76v-522h-76zM20 643v58h284v-58h-284z" />
    <glyph glyph-name="Ibreve" unicode="&#x12c;" horiz-adv-x="594" 
d="M117 0v76h141v548h-141v76h360v-76h-141v-548h141v-76h-360zM297 756q-38 0 -69.5 17t-52.5 45.5t-30 65.5l58 8q11 -37 36 -56.5t58 -19.5t58 19.5t36 56.5l58 -8q-8 -37 -29.5 -65.5t-52.5 -45.5t-70 -17z" />
    <glyph glyph-name="ibreve" unicode="&#x12d;" horiz-adv-x="325" 
d="M124 0v522h76v-522h-76zM162 592q-59 0 -99 38.5t-53 104.5l58 8q12 -42 37 -66t57 -24t57 24t37 66l58 -8q-13 -66 -53 -104.5t-99 -38.5z" />
    <glyph glyph-name="Iogonek" unicode="&#x12e;" horiz-adv-x="594" 
d="M117 0v76h141v548h-141v76h360v-76h-141v-548h141v-76h-360zM307 -211q-31 0 -56 13.5t-40.5 36t-15.5 51.5q0 27 12.5 49.5t34.5 40t48.5 31.5t55.5 24l33 -35q-32 -11 -58.5 -28t-41.5 -35.5t-15 -40.5q0 -20 15 -33.5t37 -13.5q18 0 31 7.5t22 20.5l45 -32
q-14 -24 -42 -40t-65 -16z" />
    <glyph glyph-name="iogonek" unicode="&#x12f;" horiz-adv-x="325" 
d="M124 0v522h76v-522h-76zM162 637q-27 0 -42 14.5t-15 40.5q0 24 15 39t42 15t42 -14.5t15 -39.5t-15 -40t-42 -15zM117 -211q-26 0 -49 12.5t-37 34t-14 48.5t12 50t32 41t48 33.5t59 27.5l32 -36q-32 -12 -58.5 -28.5t-41.5 -36.5t-15 -43q0 -19 12 -31.5t31 -12.5
q15 0 27.5 8t23.5 23l44 -32q-8 -16 -23.5 -29t-35.5 -21t-47 -8z" />
    <glyph glyph-name="Idotaccent" unicode="&#x130;" horiz-adv-x="594" 
d="M117 0v76h141v548h-141v76h360v-76h-141v-548h141v-76h-360zM297 769q-28 0 -42.5 15t-14.5 40q0 22 14.5 38.5t42.5 16.5t42.5 -15t14.5 -40q0 -22 -14.5 -38.5t-42.5 -16.5z" />
    <glyph glyph-name="dotlessi" unicode="&#x131;" horiz-adv-x="325" 
d="M124 0v522h76v-522h-76z" />
    <glyph glyph-name="IJ" unicode="&#x132;" horiz-adv-x="1322" 
d="M117 0v76h141v548h-141v76h360v-76h-141v-548h141v-76h-360zM915 -10q-43 0 -79 12t-65.5 32t-51 45t-34.5 50l53 56q17 -29 36.5 -51.5t41.5 -37.5t47 -23t52 -8q50 0 88 23.5t58.5 64t20.5 90.5v381h-145v76h338v-76h-113v-387q0 -50 -17 -95t-49 -79.5t-78 -53.5
t-103 -19z" />
    <glyph glyph-name="ij" unicode="&#x133;" horiz-adv-x="744" 
d="M144 0v522h76v-522h-76zM181 637q-27 0 -42 14.5t-15 40.5q0 24 15.5 39.5t41.5 15.5q28 0 42.5 -14.5t14.5 -40.5q0 -24 -15 -39.5t-42 -15.5zM419 -196l-29 64q52 1 84 20.5t47.5 57.5t15.5 92v484h75v-506q0 -65 -25 -112t-68 -73.5t-100 -26.5zM575 637
q-27 0 -42 14.5t-15 40.5q0 24 15.5 39.5t41.5 15.5q28 0 42.5 -14.5t14.5 -40.5q0 -24 -15 -39.5t-42 -15.5z" />
    <glyph glyph-name="Jcircumflex" unicode="&#x134;" horiz-adv-x="728" 
d="M321 -10q-43 0 -79 12t-65.5 32t-51 45t-34.5 50l53 56q17 -29 36.5 -51.5t41.5 -37.5t47 -23t52 -8q50 0 88 23.5t58.5 64t20.5 90.5v381h-145v76h338v-76h-113v-387q0 -50 -17 -95t-49 -79.5t-78 -53.5t-103 -19zM395 760l-33 30l122 96h67l121 -96l-32 -30l-138 76h30
z" />
    <glyph glyph-name="jcircumflex" unicode="&#x135;" horiz-adv-x="385" 
d="M63 -196l-29 64q52 1 84 20.5t47.5 57.5t15.5 92v484h76v-506q0 -65 -25.5 -112t-68.5 -73.5t-100 -26.5zM104 605l-33 28l112 107h74l112 -107l-33 -28l-131 85h30z" />
    <glyph glyph-name="uni0136" unicode="&#x136;" horiz-adv-x="835" 
d="M192 201l-1 94l454 405h111zM137 0v700h78v-700h-78zM659 0l-298 381l55 55l344 -436h-101zM374 -236l-22 33q15 7 26.5 15t17.5 17t6 18t-5.5 13t-14.5 7q-12 5 -19 13.5t-7 22.5q0 18 14.5 29.5t35.5 11.5q29 0 48.5 -18t19.5 -51q0 -20 -8 -36.5t-22 -29.5t-32 -24.5
t-38 -20.5z" />
    <glyph glyph-name="uni0137" unicode="&#x137;" horiz-adv-x="692" 
d="M194 157l2 86l321 279h103zM132 0v740h73v-740h-73zM539 0l-245 274l52 51l291 -325h-98zM312 -206l-22 33q15 7 26.5 15t17.5 17t6 18q0 10 -5.5 14t-15.5 7q-11 4 -18 12.5t-7 22.5q0 19 14.5 30t35.5 11q29 0 48.5 -18t19.5 -51q0 -20 -8 -36.5t-22 -29.5t-32 -24.5
t-38 -20.5z" />
    <glyph glyph-name="kgreenlandic" unicode="&#x138;" horiz-adv-x="665" 
d="M191 158l-1 80l319 284h101zM132 0v522h75v-522h-75zM530 0l-241 280l52 42l284 -322h-95z" />
    <glyph glyph-name="Lacute" unicode="&#x139;" horiz-adv-x="681" 
d="M137 0v700h78v-624h392v-76h-470zM110 757l-23 42l167 105l41 -70z" />
    <glyph glyph-name="lacute" unicode="&#x13a;" horiz-adv-x="328" 
d="M126 0v740h75v-740h-75zM97 797l-23 42l167 105l41 -70z" />
    <glyph glyph-name="uni013B" unicode="&#x13b;" horiz-adv-x="681" 
d="M137 0v700h78v-624h392v-76h-470zM304 -236l-22 33q15 7 26.5 15t17.5 17t6 18t-5.5 13t-14.5 7q-12 5 -19 13.5t-7 22.5q0 18 14.5 29.5t35.5 11.5q29 0 48.5 -18t19.5 -51q0 -20 -8 -36.5t-22 -29.5t-32 -24.5t-38 -20.5z" />
    <glyph glyph-name="uni013C" unicode="&#x13c;" horiz-adv-x="328" 
d="M126 0v740h75v-740h-75zM125 -206l-22 33q15 7 26.5 15t17.5 17t6 18q0 10 -5.5 14t-15.5 7q-11 4 -18 12.5t-7 22.5q0 19 14.5 30t35.5 11q29 0 48.5 -18t19.5 -51q0 -20 -8 -36.5t-22 -29.5t-32 -24.5t-38 -20.5z" />
    <glyph glyph-name="Lcaron" unicode="&#x13d;" horiz-adv-x="681" 
d="M137 0v700h78v-624h392v-76h-470zM390 521l-22 33q15 6 26.5 14t17.5 17.5t6 18.5q0 10 -5.5 13.5t-14.5 6.5q-12 4 -19 12t-7 23q0 18 15 29.5t37 11.5q28 0 47 -17.5t19 -50.5q0 -20 -8 -36.5t-22 -30t-32 -24.5t-38 -20z" />
    <glyph glyph-name="lcaron" unicode="&#x13e;" horiz-adv-x="338" 
d="M126 0v740h75v-740h-75zM287 561l-22 33q15 6 26.5 14t17.5 17.5t6 18.5q0 10 -5.5 13.5t-14.5 6.5q-12 4 -19 12t-7 23q0 18 15 29.5t37 11.5q28 0 47 -17.5t19 -50.5q0 -20 -8 -36.5t-22 -30t-32 -24.5t-38 -20z" />
    <glyph glyph-name="Ldot" unicode="&#x13f;" horiz-adv-x="681" 
d="M137 0v700h78v-624h392v-76h-470zM519 305q-32 0 -48.5 16t-16.5 46q0 26 17 44t48 18q32 0 48.5 -16.5t16.5 -45.5q0 -26 -17 -44t-48 -18z" />
    <glyph glyph-name="ldot" unicode="&#x140;" horiz-adv-x="401" 
d="M126 0v740h75v-740h-75zM368 305q-32 0 -48.5 16t-16.5 46q0 26 17 44t48 18q32 0 48.5 -16.5t16.5 -45.5q0 -26 -17 -44t-48 -18z" />
    <glyph glyph-name="Lslash" unicode="&#x141;" horiz-adv-x="699" 
d="M47 260l-23 61l391 163l23 -65zM155 0v700h78v-624h392v-76h-470z" />
    <glyph glyph-name="lslash" unicode="&#x142;" horiz-adv-x="351" 
d="M40 291l-24 63l295 100l24 -62zM135 0v740h75v-740h-75z" />
    <glyph glyph-name="Nacute" unicode="&#x143;" horiz-adv-x="918" 
d="M137 0v700h74l516 -608l-11 -18q-4 19 -5.5 54t-3 77.5t-2.5 87t-1 84v66.5v257h78v-700h-77l-512 598l8 21q2 -29 3.5 -63t4 -69.5t4 -68.5t2 -59t0.5 -41v-318h-78zM393 757l-23 42l167 105l41 -70z" />
    <glyph glyph-name="nacute" unicode="&#x144;" horiz-adv-x="744" 
d="M132 0v522h74l3 -125l-18 -3q14 36 45.5 67.5t77 52t95.5 20.5q67 0 112.5 -26.5t68.5 -75.5t23 -119v-313h-76v305q0 52 -18 87t-51.5 53.5t-78.5 17.5q-40 0 -73 -14t-57.5 -36.5t-38 -51t-13.5 -58.5v-303h-37h-19.5h-18.5zM337 599l-27 41l142 119l49 -63z" />
    <glyph glyph-name="uni0145" unicode="&#x145;" horiz-adv-x="918" 
d="M137 0v700h74l516 -608l-11 -18q-4 19 -5.5 54t-3 77.5t-2.5 87t-1 84v66.5v257h78v-700h-77l-512 598l8 21q2 -29 3.5 -63t4 -69.5t4 -68.5t2 -59t0.5 -41v-318h-78zM421 -236l-22 33q15 7 26.5 15t17.5 17t6 18t-5.5 13t-14.5 7q-12 5 -19 13.5t-7 22.5q0 18 14.5 29.5
t35.5 11.5q29 0 48.5 -18t19.5 -51q0 -20 -8 -36.5t-22 -29.5t-32 -24.5t-38 -20.5z" />
    <glyph glyph-name="uni0146" unicode="&#x146;" horiz-adv-x="744" 
d="M132 0v522h74l3 -125l-18 -3q14 36 45.5 67.5t77 52t95.5 20.5q67 0 112.5 -26.5t68.5 -75.5t23 -119v-313h-76v305q0 52 -18 87t-51.5 53.5t-78.5 17.5q-40 0 -73 -14t-57.5 -36.5t-38 -51t-13.5 -58.5v-303h-37h-19.5h-18.5zM332 -206l-22 33q15 7 26.5 15t17.5 17
t6 18q0 10 -5.5 14t-15.5 7q-11 4 -18 12.5t-7 22.5q0 19 14.5 30t35.5 11q29 0 48.5 -18t19.5 -51q0 -20 -8 -36.5t-22 -29.5t-32 -24.5t-38 -20.5z" />
    <glyph glyph-name="Ncaron" unicode="&#x147;" horiz-adv-x="918" 
d="M137 0v700h74l516 -608l-11 -18q-4 19 -5.5 54t-3 77.5t-2.5 87t-1 84v66.5v257h78v-700h-77l-512 598l8 21q2 -29 3.5 -63t4 -69.5t4 -68.5t2 -59t0.5 -41v-318h-78zM423 762l-114 96l33 29l133 -75h-30l133 75l33 -29l-114 -96h-74z" />
    <glyph glyph-name="ncaron" unicode="&#x148;" horiz-adv-x="744" 
d="M132 0v522h74l3 -125l-18 -3q14 36 45.5 67.5t77 52t95.5 20.5q67 0 112.5 -26.5t68.5 -75.5t23 -119v-313h-76v305q0 52 -18 87t-51.5 53.5t-78.5 17.5q-40 0 -73 -14t-57.5 -36.5t-38 -51t-13.5 -58.5v-303h-37h-19.5h-18.5zM361 603l-107 107l33 29l126 -85h-30
l126 85l33 -29l-107 -107h-74z" />
    <glyph glyph-name="napostrophe" unicode="&#x149;" horiz-adv-x="783" 
d="M-17 434l24 266h96l-73 -266h-47zM171 0v522h74l3 -125l-18 -3q14 36 45.5 67.5t77 52t95.5 20.5q67 0 112.5 -26.5t68.5 -75.5t23 -119v-313h-76v305q0 52 -18 87t-51.5 53.5t-78.5 17.5q-40 0 -73 -14t-57.5 -36.5t-38 -51t-13.5 -58.5v-303h-37h-19.5h-18.5z" />
    <glyph glyph-name="Eng" unicode="&#x14a;" horiz-adv-x="918" 
d="M584 -196l-30 66q37 0 64.5 9t46 26.5t28.5 43t10 58.5v45l11 -62l-522 610l10 10q1 -21 3 -51t3.5 -61t3 -61.5t2.5 -54.5t1 -37v-345h-78v700h75l517 -609l-14 -9q-4 37 -5.5 84t-3 97t-2 97t-0.5 83v257h78v-691q0 -60 -25.5 -106.5t-70 -72.5t-102.5 -26z" />
    <glyph glyph-name="eng" unicode="&#x14b;" horiz-adv-x="744" 
d="M428 -196l-30 64q72 0 106 29t33 86v322q0 52 -18 87t-51.5 53t-78.5 18q-40 0 -73 -14t-57.5 -37t-38 -51t-13.5 -58v-303h-75v522h74l2 -96q16 27 47 52t70.5 40t83.5 15q67 0 112.5 -26t68.5 -75t23 -119v-351q0 -48 -24 -83.5t-66 -55t-95 -19.5z" />
    <glyph glyph-name="Omacron" unicode="&#x14c;" horiz-adv-x="913" 
d="M456 -10q-82 0 -150 26.5t-119 75t-78.5 114t-27.5 142.5t27.5 142.5t78.5 114.5t119 75.5t150 26.5t150.5 -26.5t119 -75.5t78.5 -114.5t28 -142.5q0 -76 -28 -141.5t-78.5 -114.5t-119 -75.5t-150.5 -26.5zM456 67q64 0 118.5 20.5t94 58.5t61 89.5t21.5 112.5
q0 62 -21.5 113.5t-61 89.5t-94 59t-118.5 21t-118.5 -21t-94 -59.5t-60.5 -90t-21 -112.5t21 -112t60.5 -89.5t94 -59t118.5 -20.5zM303 794v60h307v-60h-307z" />
    <glyph glyph-name="omacron" unicode="&#x14d;" horiz-adv-x="743" 
d="M372 -10q-88 0 -155.5 35t-106 97t-38.5 141q0 78 38.5 139.5t106 96.5t155.5 35q87 0 154.5 -35t106 -96.5t38.5 -139.5q0 -79 -38.5 -140.5t-106 -97t-154.5 -35.5zM372 61q63 0 113.5 26.5t79 72t28.5 103.5t-28.5 103.5t-79 71t-113.5 25.5q-64 0 -114.5 -26
t-79.5 -71t-28 -103q-1 -58 28 -103.5t80 -72t114 -26.5zM230 643v58h284v-58h-284z" />
    <glyph glyph-name="Obreve" unicode="&#x14e;" horiz-adv-x="913" 
d="M456 -10q-82 0 -150 26.5t-119 75t-78.5 114t-27.5 142.5t27.5 142.5t78.5 114.5t119 75.5t150 26.5t150.5 -26.5t119 -75.5t78.5 -114.5t28 -142.5q0 -76 -28 -141.5t-78.5 -114.5t-119 -75.5t-150.5 -26.5zM456 67q64 0 118.5 20.5t94 58.5t61 89.5t21.5 112.5
q0 62 -21.5 113.5t-61 89.5t-94 59t-118.5 21t-118.5 -21t-94 -59.5t-60.5 -90t-21 -112.5t21 -112t60.5 -89.5t94 -59t118.5 -20.5zM457 756q-38 0 -69.5 17t-52.5 45.5t-30 65.5l58 8q11 -37 36 -56.5t58 -19.5t58 19.5t36 56.5l58 -8q-8 -37 -29.5 -65.5t-52.5 -45.5
t-70 -17z" />
    <glyph glyph-name="obreve" unicode="&#x14f;" horiz-adv-x="743" 
d="M372 -10q-88 0 -155.5 35t-106 97t-38.5 141q0 78 38.5 139.5t106 96.5t155.5 35q87 0 154.5 -35t106 -96.5t38.5 -139.5q0 -79 -38.5 -140.5t-106 -97t-154.5 -35.5zM372 61q63 0 113.5 26.5t79 72t28.5 103.5t-28.5 103.5t-79 71t-113.5 25.5q-64 0 -114.5 -26
t-79.5 -71t-28 -103q-1 -58 28 -103.5t80 -72t114 -26.5zM372 592q-59 0 -99 38.5t-53 104.5l58 8q12 -42 37 -66t57 -24t57 24t37 66l58 -8q-13 -66 -53 -104.5t-99 -38.5z" />
    <glyph glyph-name="Ohungarumlaut" unicode="&#x150;" horiz-adv-x="913" 
d="M456 -10q-82 0 -150 26.5t-119 75t-78.5 114t-27.5 142.5t27.5 142.5t78.5 114.5t119 75.5t150 26.5t150.5 -26.5t119 -75.5t78.5 -114.5t28 -142.5q0 -76 -28 -141.5t-78.5 -114.5t-119 -75.5t-150.5 -26.5zM456 67q64 0 118.5 20.5t94 58.5t61 89.5t21.5 112.5
q0 62 -21.5 113.5t-61 89.5t-94 59t-118.5 21t-118.5 -21t-94 -59.5t-60.5 -90t-21 -112.5t21 -112t60.5 -89.5t94 -59t118.5 -20.5zM363 754l-27 40l141 119l50 -62zM537 754l-28 40l142 119l49 -62z" />
    <glyph glyph-name="ohungarumlaut" unicode="&#x151;" horiz-adv-x="743" 
d="M372 -10q-88 0 -155.5 35t-106 97t-38.5 141q0 78 38.5 139.5t106 96.5t155.5 35q87 0 154.5 -35t106 -96.5t38.5 -139.5q0 -79 -38.5 -140.5t-106 -97t-154.5 -35.5zM372 61q63 0 113.5 26.5t79 72t28.5 103.5t-28.5 103.5t-79 71t-113.5 25.5q-64 0 -114.5 -26
t-79.5 -71t-28 -103q-1 -58 28 -103.5t80 -72t114 -26.5zM390 599l-27 41l142 119l49 -63zM216 599l-27 41l143 119l48 -63z" />
    <glyph glyph-name="OE" unicode="&#x152;" horiz-adv-x="1196" 
d="M436 0q-80 0 -145.5 26t-112 73t-72 111t-25.5 140t26 139.5t74 111t115 73.5t149 26h644v-76h-401v-226h345v-76h-345v-246h399v-76h-651zM162 350q0 -59 19.5 -109.5t56 -87.5t87.5 -57t114 -20h171v548h-161q-66 0 -118.5 -20t-90.5 -57.5t-58 -87.5t-20 -109z" />
    <glyph glyph-name="oe" unicode="&#x153;" horiz-adv-x="1226" 
d="M372 -10q-88 0 -155.5 35t-106 97t-38.5 141q0 78 38.5 139.5t106 96.5t155.5 35q64 0 118 -19.5t93.5 -55t61.5 -82.5l-27 -1q24 50 62.5 84.5t91 54t111.5 19.5q58 0 108 -18t85.5 -52t55 -80t18.5 -102l-1 -39h-491l2 63h449l-36 -32v30q0 43 -24 79t-66.5 58
t-100.5 22q-44 0 -82.5 -11.5t-67.5 -35t-45.5 -60t-16.5 -85.5q0 -64 28.5 -111.5t81 -72.5t126.5 -25q54 0 97.5 15t87.5 47l35 -56q-27 -22 -62.5 -39.5t-78.5 -28t-91 -10.5q-66 0 -120 19.5t-94 54.5t-63 83h28q-22 -48 -62 -83t-93.5 -54.5t-117.5 -19.5zM372 61
q62 0 112 26t79.5 71t29.5 105q0 58 -28.5 103.5t-79 71t-113.5 25.5q-64 0 -114 -26t-79.5 -71t-28.5 -103q-1 -58 28.5 -103.5t80 -72t113.5 -26.5z" />
    <glyph glyph-name="Racute" unicode="&#x154;" horiz-adv-x="786" 
d="M137 0v700h318q62 0 112 -28t79 -76.5t29 -109.5q0 -60 -29.5 -108t-80.5 -76t-113 -28h-237v-274h-78zM614 0l-200 308l77 25l218 -333h-95zM215 350h237q42 0 73.5 17.5t49.5 48.5t18 70t-19.5 70.5t-54 49.5t-79.5 18h-225v-274zM304 754l-23 42l167 105l41 -70z" />
    <glyph glyph-name="racute" unicode="&#x155;" horiz-adv-x="524" 
d="M132 0v522h75l2 -149l-14 9q13 42 42 76.5t68 55t84 20.5q25 0 48.5 -4.5t37.5 -12.5l-21 -82q-17 10 -38 14t-39 4q-40 0 -71.5 -14t-53.5 -37.5t-33 -53t-11 -61.5v-287h-76zM249 599l-27 41l142 119l49 -63z" />
    <glyph glyph-name="uni0156" unicode="&#x156;" horiz-adv-x="786" 
d="M137 0v700h318q62 0 112 -28t79 -76.5t29 -109.5q0 -60 -29.5 -108t-80.5 -76t-113 -28h-237v-274h-78zM614 0l-200 308l77 25l218 -333h-95zM215 350h237q42 0 73.5 17.5t49.5 48.5t18 70t-19.5 70.5t-54 49.5t-79.5 18h-225v-274zM351 -236l-22 33q15 7 26.5 15
t17.5 17t6 18t-5.5 13t-14.5 7q-12 5 -19 13.5t-7 22.5q0 18 14.5 29.5t35.5 11.5q29 0 48.5 -18t19.5 -51q0 -20 -8 -36.5t-22 -29.5t-32 -24.5t-38 -20.5z" />
    <glyph glyph-name="uni0157" unicode="&#x157;" horiz-adv-x="524" 
d="M132 0v522h75l2 -149l-14 9q13 42 42 76.5t68 55t84 20.5q25 0 48.5 -4.5t37.5 -12.5l-21 -82q-17 10 -38 14t-39 4q-40 0 -71.5 -14t-53.5 -37.5t-33 -53t-11 -61.5v-287h-76zM132 -206l-22 33q15 7 26.5 15t17.5 17t6 18q0 10 -5.5 14t-15.5 7q-11 4 -18 12.5t-7 22.5
q0 19 14.5 30t35.5 11q29 0 48.5 -18t19.5 -51q0 -20 -8 -36.5t-22 -29.5t-32 -24.5t-38 -20.5z" />
    <glyph glyph-name="Rcaron" unicode="&#x158;" horiz-adv-x="786" 
d="M137 0v700h318q62 0 112 -28t79 -76.5t29 -109.5q0 -60 -29.5 -108t-80.5 -76t-113 -28h-237v-274h-78zM614 0l-200 308l77 25l218 -333h-95zM215 350h237q42 0 73.5 17.5t49.5 48.5t18 70t-19.5 70.5t-54 49.5t-79.5 18h-225v-274zM334 759l-114 96l33 29l133 -75h-30
l133 75l33 -29l-114 -96h-74z" />
    <glyph glyph-name="rcaron" unicode="&#x159;" horiz-adv-x="524" 
d="M132 0v522h75l2 -149l-14 9q13 42 42 76.5t68 55t84 20.5q25 0 48.5 -4.5t37.5 -12.5l-21 -82q-17 10 -38 14t-39 4q-40 0 -71.5 -14t-53.5 -37.5t-33 -53t-11 -61.5v-287h-76zM273 603l-107 107l33 29l126 -85h-30l126 85l33 -29l-107 -107h-74z" />
    <glyph glyph-name="Sacute" unicode="&#x15a;" horiz-adv-x="732" 
d="M372 -10q-61 0 -113.5 15t-96.5 45t-79 74l52 62q53 -66 111.5 -94.5t129.5 -28.5q53 0 97 15t69.5 44t25.5 67q0 26 -12 44.5t-32.5 31.5t-47.5 22.5t-56 16t-59 12.5q-55 11 -100 26t-77.5 38t-49.5 55t-17 78q0 43 19.5 79t54.5 61.5t82 39.5t101 14q60 0 108 -14.5
t85 -42t64 -67.5l-53 -56q-25 34 -56 58.5t-68.5 37t-80.5 12.5q-50 0 -89.5 -15t-62.5 -41.5t-23 -61.5q0 -28 13 -48.5t38 -34.5t62.5 -24.5t83.5 -18.5q52 -10 98 -24t81.5 -35t55 -53.5t19.5 -78.5q0 -62 -34.5 -109.5t-96.5 -74t-146 -26.5zM314 757l-23 42l167 105
l41 -70z" />
    <glyph glyph-name="sacute" unicode="&#x15b;" horiz-adv-x="606" 
d="M312 -10q-77 0 -139.5 25t-100.5 70l53 48q34 -38 81.5 -57.5t105.5 -19.5q28 0 54 5t46 15t31.5 25.5t11.5 36.5q0 34 -40 56q-20 9 -49.5 18t-68.5 17q-60 14 -103 28.5t-68 36.5q-19 18 -28.5 40.5t-9.5 50.5q0 32 15.5 59.5t44.5 47.5t68 31t84 11q41 0 83.5 -10
t80 -29t63.5 -46l-44 -51q-24 20 -53 36.5t-61.5 25.5t-65.5 9q-27 0 -52.5 -5t-44 -15.5t-30 -25.5t-11.5 -35q-1 -16 6.5 -27.5t20.5 -20.5q19 -13 50.5 -22t76.5 -19q50 -10 88.5 -22t65.5 -30q28 -18 42.5 -43t14.5 -58q0 -47 -28 -82t-77 -54.5t-113 -19.5zM243 599
l-27 41l142 119l49 -63z" />
    <glyph glyph-name="Scircumflex" unicode="&#x15c;" horiz-adv-x="732" 
d="M372 -10q-61 0 -113.5 15t-96.5 45t-79 74l52 62q53 -66 111.5 -94.5t129.5 -28.5q53 0 97 15t69.5 44t25.5 67q0 26 -12 44.5t-32.5 31.5t-47.5 22.5t-56 16t-59 12.5q-55 11 -100 26t-77.5 38t-49.5 55t-17 78q0 43 19.5 79t54.5 61.5t82 39.5t101 14q60 0 108 -14.5
t85 -42t64 -67.5l-53 -56q-25 34 -56 58.5t-68.5 37t-80.5 12.5q-50 0 -89.5 -15t-62.5 -41.5t-23 -61.5q0 -28 13 -48.5t38 -34.5t62.5 -24.5t83.5 -18.5q52 -10 98 -24t81.5 -35t55 -53.5t19.5 -78.5q0 -62 -34.5 -109.5t-96.5 -74t-146 -26.5zM258 760l-33 30l122 96h67
l121 -96l-32 -30l-138 76h30z" />
    <glyph glyph-name="scircumflex" unicode="&#x15d;" horiz-adv-x="606" 
d="M312 -10q-77 0 -139.5 25t-100.5 70l53 48q34 -38 81.5 -57.5t105.5 -19.5q28 0 54 5t46 15t31.5 25.5t11.5 36.5q0 34 -40 56q-20 9 -49.5 18t-68.5 17q-60 14 -103 28.5t-68 36.5q-19 18 -28.5 40.5t-9.5 50.5q0 32 15.5 59.5t44.5 47.5t68 31t84 11q41 0 83.5 -10
t80 -29t63.5 -46l-44 -51q-24 20 -53 36.5t-61.5 25.5t-65.5 9q-27 0 -52.5 -5t-44 -15.5t-30 -25.5t-11.5 -35q-1 -16 6.5 -27.5t20.5 -20.5q19 -13 50.5 -22t76.5 -19q50 -10 88.5 -22t65.5 -30q28 -18 42.5 -43t14.5 -58q0 -47 -28 -82t-77 -54.5t-113 -19.5zM188 605
l-33 28l112 107h74l112 -107l-33 -28l-131 85h30z" />
    <glyph glyph-name="Scedilla" unicode="&#x15e;" horiz-adv-x="732" 
d="M372 -10q-61 0 -113.5 15t-96.5 45t-79 74l52 62q53 -66 111.5 -94.5t129.5 -28.5q53 0 97 15t69.5 44t25.5 67q0 26 -12 44.5t-32.5 31.5t-47.5 22.5t-56 16t-59 12.5q-55 11 -100 26t-77.5 38t-49.5 55t-17 78q0 43 19.5 79t54.5 61.5t82 39.5t101 14q60 0 108 -14.5
t85 -42t64 -67.5l-53 -56q-25 34 -56 58.5t-68.5 37t-80.5 12.5q-50 0 -89.5 -15t-62.5 -41.5t-23 -61.5q0 -28 13 -48.5t38 -34.5t62.5 -24.5t83.5 -18.5q52 -10 98 -24t81.5 -35t55 -53.5t19.5 -78.5q0 -62 -34.5 -109.5t-96.5 -74t-146 -26.5zM308 -237l-7 42
q30 1 56.5 7.5t44 18.5t17.5 28q0 15 -15.5 24.5t-37 14t-42.5 4.5l-10 14l64 99h51l-43 -68q44 -9 70 -29t26 -55q0 -26 -15.5 -46t-41.5 -31.5t-56.5 -17t-60.5 -5.5z" />
    <glyph glyph-name="scedilla" unicode="&#x15f;" horiz-adv-x="606" 
d="M312 -10q-77 0 -139.5 25t-100.5 70l53 48q34 -38 81.5 -57.5t105.5 -19.5q28 0 54 5t46 15t31.5 25.5t11.5 36.5q0 34 -40 56q-20 9 -49.5 18t-68.5 17q-60 14 -103 28.5t-68 36.5q-19 18 -28.5 40.5t-9.5 50.5q0 32 15.5 59.5t44.5 47.5t68 31t84 11q41 0 83.5 -10
t80 -29t63.5 -46l-44 -51q-24 20 -53 36.5t-61.5 25.5t-65.5 9q-27 0 -52.5 -5t-44 -15.5t-30 -25.5t-11.5 -35q-1 -16 6.5 -27.5t20.5 -20.5q19 -13 50.5 -22t76.5 -19q50 -10 88.5 -22t65.5 -30q28 -18 42.5 -43t14.5 -58q0 -47 -28 -82t-77 -54.5t-113 -19.5zM221 -237
l-7 42q29 1 56 7.5t44.5 18.5t17.5 28q0 15 -15.5 24.5t-37.5 14t-41 4.5l-12 14l65 99h51l-43 -68q44 -9 70 -29t26 -55q0 -26 -16 -46t-42 -31.5t-56 -17t-60 -5.5z" />
    <glyph glyph-name="Scaron" unicode="&#x160;" horiz-adv-x="732" 
d="M372 -10q-61 0 -113.5 15t-96.5 45t-79 74l52 62q53 -66 111.5 -94.5t129.5 -28.5q53 0 97 15t69.5 44t25.5 67q0 26 -12 44.5t-32.5 31.5t-47.5 22.5t-56 16t-59 12.5q-55 11 -100 26t-77.5 38t-49.5 55t-17 78q0 43 19.5 79t54.5 61.5t82 39.5t101 14q60 0 108 -14.5
t85 -42t64 -67.5l-53 -56q-25 34 -56 58.5t-68.5 37t-80.5 12.5q-50 0 -89.5 -15t-62.5 -41.5t-23 -61.5q0 -28 13 -48.5t38 -34.5t62.5 -24.5t83.5 -18.5q52 -10 98 -24t81.5 -35t55 -53.5t19.5 -78.5q0 -62 -34.5 -109.5t-96.5 -74t-146 -26.5zM344 762l-114 96l33 29
l133 -75h-30l133 75l33 -29l-114 -96h-74z" />
    <glyph glyph-name="scaron" unicode="&#x161;" horiz-adv-x="606" 
d="M312 -10q-77 0 -139.5 25t-100.5 70l53 48q34 -38 81.5 -57.5t105.5 -19.5q28 0 54 5t46 15t31.5 25.5t11.5 36.5q0 34 -40 56q-20 9 -49.5 18t-68.5 17q-60 14 -103 28.5t-68 36.5q-19 18 -28.5 40.5t-9.5 50.5q0 32 15.5 59.5t44.5 47.5t68 31t84 11q41 0 83.5 -10
t80 -29t63.5 -46l-44 -51q-24 20 -53 36.5t-61.5 25.5t-65.5 9q-27 0 -52.5 -5t-44 -15.5t-30 -25.5t-11.5 -35q-1 -16 6.5 -27.5t20.5 -20.5q19 -13 50.5 -22t76.5 -19q50 -10 88.5 -22t65.5 -30q28 -18 42.5 -43t14.5 -58q0 -47 -28 -82t-77 -54.5t-113 -19.5zM267 603
l-107 107l33 29l126 -85h-30l126 85l33 -29l-107 -107h-74z" />
    <glyph glyph-name="uni0162" unicode="&#x162;" horiz-adv-x="653" 
d="M284 0v624h-228v76h542v-76h-236v-624h-78zM237 -237l-7 42q30 1 56.5 7.5t44 18.5t17.5 28q0 15 -15.5 24.5t-37 14t-42.5 4.5l-10 14l64 99h51l-43 -68q44 -9 70 -29t26 -55q0 -26 -15.5 -46t-41.5 -31.5t-56.5 -17t-60.5 -5.5z" />
    <glyph glyph-name="uni0163" unicode="&#x163;" horiz-adv-x="517" 
d="M209 0v671h76v-671h-76zM66 450v72h381v-72h-381zM159 -237l-7 42q29 1 56 7.5t44.5 18.5t17.5 28q0 15 -15.5 24.5t-37.5 14t-41 4.5l-12 14l65 99h51l-43 -68q44 -9 70 -29t26 -55q0 -26 -16 -46t-42 -31.5t-56 -17t-60 -5.5z" />
    <glyph glyph-name="Tcaron" unicode="&#x164;" horiz-adv-x="653" 
d="M284 0v624h-228v76h542v-76h-236v-624h-78zM290 762l-114 96l33 29l133 -75h-30l133 75l33 -29l-114 -96h-74z" />
    <glyph glyph-name="tcaron" unicode="&#x165;" horiz-adv-x="517" 
d="M209 0v671h76v-671h-76zM66 450v72h381v-72h-381zM357 583l-22 33q15 6 26.5 14t17.5 17.5t6 18.5q0 10 -5.5 13.5t-14.5 6.5q-12 4 -19 12t-7 23q0 18 15 29.5t37 11.5q28 0 47 -17.5t19 -50.5q0 -20 -8 -36.5t-22 -30t-32 -24.5t-38 -20z" />
    <glyph glyph-name="Tbar" unicode="&#x166;" horiz-adv-x="653" 
d="M164 318v66h324v-66h-324zM284 0v624h-228v76h542v-76h-236v-624h-78z" />
    <glyph glyph-name="tbar" unicode="&#x167;" horiz-adv-x="517" 
d="M92 229v65h324v-65h-324zM209 0v671h76v-671h-76zM66 450v72h381v-72h-381z" />
    <glyph glyph-name="Utilde" unicode="&#x168;" horiz-adv-x="869" 
d="M433 -7q-89 0 -157 39t-106.5 107.5t-38.5 155.5v405h78v-399q0 -66 29.5 -118.5t80 -82.5t114.5 -30q67 0 118.5 30t81 82.5t29.5 118.5v399h75v-406q0 -86 -38.5 -154.5t-107 -107.5t-158.5 -39zM506 774q-22 0 -44 8t-45 17q-14 6 -26 11t-23 5q-14 0 -24 -10.5
t-10 -30.5h-61q0 47 29 74t67 27q22 0 42 -7.5t42 -17.5q12 -5 25.5 -10t23.5 -5q14 0 24 10t9 29h61q0 -28 -11.5 -50.5t-31.5 -36t-47 -13.5z" />
    <glyph glyph-name="utilde" unicode="&#x169;" horiz-adv-x="731" 
d="M330 -10q-66 0 -112 27t-70.5 78.5t-24.5 124.5v302h76v-284q0 -57 17 -96.5t51 -59.5t83 -20q39 0 72.5 13t58 35.5t38.5 52.5t14 65v294h76v-522h-75l-3 116l13 6q-11 -34 -42 -64.5t-75.5 -49t-96.5 -18.5zM425 613q-21 0 -36.5 9t-35.5 27q-14 13 -23.5 19t-19.5 6
q-17 0 -29 -14.5t-16 -43.5l-54 7q4 45 32 76.5t72 31.5q19 0 34 -8t35 -26q15 -12 24 -19t20 -7q15 0 25.5 14t13.5 38l55 -7q-2 -28 -14.5 -51.5t-33.5 -37.5t-49 -14z" />
    <glyph glyph-name="Umacron" unicode="&#x16a;" horiz-adv-x="869" 
d="M433 -7q-89 0 -157 39t-106.5 107.5t-38.5 155.5v405h78v-399q0 -66 29.5 -118.5t80 -82.5t114.5 -30q67 0 118.5 30t81 82.5t29.5 118.5v399h75v-406q0 -86 -38.5 -154.5t-107 -107.5t-158.5 -39zM281 794v60h307v-60h-307z" />
    <glyph glyph-name="umacron" unicode="&#x16b;" horiz-adv-x="731" 
d="M330 -10q-66 0 -112 27t-70.5 78.5t-24.5 124.5v302h76v-284q0 -57 17 -96.5t51 -59.5t83 -20q39 0 72.5 13t58 35.5t38.5 52.5t14 65v294h76v-522h-75l-3 116l13 6q-11 -34 -42 -64.5t-75.5 -49t-96.5 -18.5zM224 643v58h284v-58h-284z" />
    <glyph glyph-name="Ubreve" unicode="&#x16c;" horiz-adv-x="869" 
d="M433 -7q-89 0 -157 39t-106.5 107.5t-38.5 155.5v405h78v-399q0 -66 29.5 -118.5t80 -82.5t114.5 -30q67 0 118.5 30t81 82.5t29.5 118.5v399h75v-406q0 -86 -38.5 -154.5t-107 -107.5t-158.5 -39zM435 756q-38 0 -69.5 17t-52.5 45.5t-30 65.5l58 8q11 -37 36 -56.5
t58 -19.5t58 19.5t36 56.5l58 -8q-8 -37 -29.5 -65.5t-52.5 -45.5t-70 -17z" />
    <glyph glyph-name="ubreve" unicode="&#x16d;" horiz-adv-x="731" 
d="M330 -10q-66 0 -112 27t-70.5 78.5t-24.5 124.5v302h76v-284q0 -57 17 -96.5t51 -59.5t83 -20q39 0 72.5 13t58 35.5t38.5 52.5t14 65v294h76v-522h-75l-3 116l13 6q-11 -34 -42 -64.5t-75.5 -49t-96.5 -18.5zM366 592q-59 0 -99 38.5t-53 104.5l58 8q12 -42 37 -66
t57 -24t57 24t37 66l58 -8q-13 -66 -53 -104.5t-99 -38.5z" />
    <glyph glyph-name="Uring" unicode="&#x16e;" horiz-adv-x="869" 
d="M433 -7q-89 0 -157 39t-106.5 107.5t-38.5 155.5v405h78v-399q0 -66 29.5 -118.5t80 -82.5t114.5 -30q67 0 118.5 30t81 82.5t29.5 118.5v399h75v-406q0 -86 -38.5 -154.5t-107 -107.5t-158.5 -39zM434 716q-29 0 -54 14.5t-40 38.5t-15 52q0 29 15 53t40 38.5t54 14.5
t54 -14.5t40.5 -38.5t15.5 -53q0 -28 -15.5 -52t-40.5 -38.5t-54 -14.5zM434 764q25 0 42.5 17t17.5 40q0 26 -17.5 41.5t-42.5 15.5t-42 -16t-17 -41q0 -23 17.5 -40t41.5 -17z" />
    <glyph glyph-name="uring" unicode="&#x16f;" horiz-adv-x="731" 
d="M330 -10q-66 0 -112 27t-70.5 78.5t-24.5 124.5v302h76v-284q0 -57 17 -96.5t51 -59.5t83 -20q39 0 72.5 13t58 35.5t38.5 52.5t14 65v294h76v-522h-75l-3 116l13 6q-11 -34 -42 -64.5t-75.5 -49t-96.5 -18.5zM365 594q-27 0 -51.5 14t-39.5 37.5t-15 50.5q0 29 14.5 52
t39 37.5t52.5 14.5q29 0 53.5 -14.5t39 -37.5t14.5 -52q0 -27 -14.5 -50.5t-39 -37.5t-53.5 -14zM365 642q24 0 41 16t17 38q0 25 -17 40t-41 15q-25 0 -41 -15.5t-16 -39.5q0 -22 17 -38t40 -16z" />
    <glyph glyph-name="Uhungarumlaut" unicode="&#x170;" horiz-adv-x="869" 
d="M433 -7q-89 0 -157 39t-106.5 107.5t-38.5 155.5v405h78v-399q0 -66 29.5 -118.5t80 -82.5t114.5 -30q67 0 118.5 30t81 82.5t29.5 118.5v399h75v-406q0 -86 -38.5 -154.5t-107 -107.5t-158.5 -39zM341 754l-27 40l141 119l50 -62zM515 754l-28 40l142 119l49 -62z" />
    <glyph glyph-name="uhungarumlaut" unicode="&#x171;" horiz-adv-x="731" 
d="M330 -10q-66 0 -112 27t-70.5 78.5t-24.5 124.5v302h76v-284q0 -57 17 -96.5t51 -59.5t83 -20q39 0 72.5 13t58 35.5t38.5 52.5t14 65v294h76v-522h-75l-3 116l13 6q-11 -34 -42 -64.5t-75.5 -49t-96.5 -18.5zM385 599l-27 41l142 119l49 -63zM211 599l-27 41l143 119
l48 -63z" />
    <glyph glyph-name="Uogonek" unicode="&#x172;" horiz-adv-x="869" 
d="M525 -211q-46 0 -79 29.5t-33 75.5q0 33 15.5 59.5t40 49t55 42.5t62.5 38l27 -35q-26 -15 -49.5 -31.5t-42 -34t-29 -37t-10.5 -41.5q0 -27 14.5 -41t37.5 -14q17 0 30.5 8t22.5 20l45 -32q-15 -23 -43 -39.5t-64 -16.5zM433 -7q-89 0 -157 39t-106.5 107.5t-38.5 155.5
v405h78v-399q0 -66 29.5 -118.5t80 -82.5t114.5 -30q67 0 118.5 30t81 82.5t29.5 118.5v399h75v-406q0 -86 -38.5 -154.5t-107 -107.5t-158.5 -39z" />
    <glyph glyph-name="uogonek" unicode="&#x173;" horiz-adv-x="731" 
d="M330 -10q-66 0 -112 27t-70.5 78.5t-24.5 124.5v302h76v-284q0 -57 17 -96.5t51 -59.5t83 -20q39 0 72.5 13t58 35.5t38.5 52.5t14 65v294h76v-522h-75l-3 116l13 6q-11 -34 -42 -64.5t-75.5 -49t-96.5 -18.5zM526 -211q-26 0 -49 12.5t-37 34t-14 48.5t12 50t32 41
t48 33.5t59 27.5l32 -36q-32 -12 -58.5 -28.5t-41.5 -36.5t-15 -43q0 -19 12 -31.5t31 -12.5q15 0 27.5 8t23.5 23l44 -32q-8 -16 -23.5 -29t-35.5 -21t-47 -8z" />
    <glyph glyph-name="Wcircumflex" unicode="&#x174;" horiz-adv-x="1068" 
d="M278 0l-226 700h86l140 -451q9 -26 15.5 -49t12 -44t10.5 -42.5t10 -44.5h-19q12 41 22 69t20.5 55t23.5 59l120 290h74l128 -309q13 -30 24 -58t19.5 -52.5t12.5 -48.5l-19 -4q5 23 9.5 40.5t8.5 34.5t9 33.5t11 35t13 41.5l149 445h84l-239 -700h-64l-195 461l19 -3
l-192 -458h-67zM411 760l-33 30l122 96h67l121 -96l-32 -30l-138 76h30z" />
    <glyph glyph-name="wcircumflex" unicode="&#x175;" horiz-adv-x="866" 
d="M227 0l-187 522l83 1l143 -428l-24 2l162 348h53l163 -349l-25 -2l153 428h79l-193 -522h-44l-180 393l41 3l-178 -396h-46zM317 605l-33 28l112 107h74l112 -107l-33 -28l-131 85h30z" />
    <glyph glyph-name="Ycircumflex" unicode="&#x176;" horiz-adv-x="765" 
d="M354 0v331l10 -54l-318 423h100l258 -349l-19 1l241 348h93l-300 -424l12 63v-339h-77zM260 760l-33 30l122 96h67l121 -96l-32 -30l-138 76h30z" />
    <glyph glyph-name="ycircumflex" unicode="&#x177;" horiz-adv-x="694" 
d="M218 -230l115 246l7 -70l-291 576h85l185 -372q18 -33 31 -63t21 -57l-25 6q10 23 21 49t23 55l170 382h86l-242 -521l-106 -231h-80zM231 605l-33 28l112 107h74l112 -107l-33 -28l-131 85h30z" />
    <glyph glyph-name="Ydieresis" unicode="&#x178;" horiz-adv-x="765" 
d="M354 0v331l10 -54l-318 423h100l258 -349l-19 1l241 348h93l-300 -424l12 63v-339h-77zM484 769q-28 0 -42.5 15t-14.5 40q0 22 14.5 38.5t42.5 16.5q29 0 43.5 -15t14.5 -40q0 -22 -14.5 -38.5t-43.5 -16.5zM282 769q-29 0 -43.5 15t-14.5 40q0 22 14.5 38.5t43.5 16.5
q28 0 42.5 -15t14.5 -40q0 -22 -14.5 -38.5t-42.5 -16.5z" />
    <glyph glyph-name="Zacute" unicode="&#x179;" horiz-adv-x="738" 
d="M76 0v60l483 585l19 -22h-476v77h553v-59l-482 -586l-20 22h513v-77h-590zM301 757l-23 42l167 105l41 -70z" />
    <glyph glyph-name="zacute" unicode="&#x17a;" horiz-adv-x="562" 
d="M64 0v65l342 405l14 -15h-356v67h423v-64l-342 -405l-12 14h365v-67h-434zM219 599l-27 41l142 119l49 -63z" />
    <glyph glyph-name="Zdotaccent" unicode="&#x17b;" horiz-adv-x="738" 
d="M76 0v60l483 585l19 -22h-476v77h553v-59l-482 -586l-20 22h513v-77h-590zM368 769q-28 0 -42.5 15t-14.5 40q0 22 14.5 38.5t42.5 16.5t42.5 -15t14.5 -40q0 -22 -14.5 -38.5t-42.5 -16.5z" />
    <glyph glyph-name="zdotaccent" unicode="&#x17c;" horiz-adv-x="562" 
d="M64 0v65l342 405l14 -15h-356v67h423v-64l-342 -405l-12 14h365v-67h-434zM280 637q-27 0 -42 14.5t-15 40.5q0 24 15 39t42 15t42 -14.5t15 -39.5t-15 -40t-42 -15z" />
    <glyph glyph-name="Zcaron" unicode="&#x17d;" horiz-adv-x="738" 
d="M76 0v60l483 585l19 -22h-476v77h553v-59l-482 -586l-20 22h513v-77h-590zM331 762l-114 96l33 29l133 -75h-30l133 75l33 -29l-114 -96h-74z" />
    <glyph glyph-name="zcaron" unicode="&#x17e;" horiz-adv-x="562" 
d="M64 0v65l342 405l14 -15h-356v67h423v-64l-342 -405l-12 14h365v-67h-434zM243 603l-107 107l33 29l126 -85h-30l126 85l33 -29l-107 -107h-74z" />
    <glyph glyph-name="uni018F" unicode="&#x18f;" horiz-adv-x="857" 
d="M425 -10q-68 0 -130 25t-109.5 70t-75.5 106.5t-29 135.5v56h650l4 -73h-574q4 -51 26.5 -96t58.5 -79.5t82.5 -53t97.5 -18.5q55 0 104.5 21.5t87 60t58 91t20.5 114.5q0 65 -21.5 117.5t-59 89.5t-88.5 57.5t-109 20.5q-43 0 -81.5 -10t-72.5 -29t-63 -47l-51 51
q35 36 76.5 60t89.5 35.5t103 11.5q74 0 138.5 -27t113.5 -76t77 -114.5t28 -141.5q0 -75 -27 -140t-75.5 -114t-112 -76.5t-136.5 -27.5z" />
    <glyph glyph-name="florin" unicode="&#x192;" horiz-adv-x="663" 
d="M133 -31q-30 0 -56.5 10t-42.5 22l25 59q20 -14 36 -19t37 -5q25 0 42 12.5t29 31.5t16 43l101 418q17 74 59.5 114t113.5 40q38 0 71 -10.5t63 -34.5l-26 -57q-29 17 -52 25.5t-43 8.5q-45 0 -70 -25.5t-39 -78.5l-99 -404q-19 -76 -59 -113t-106 -37zM120 378v68
l413 -1v-67h-413z" />
    <glyph glyph-name="uni019D" unicode="&#x19d;" horiz-adv-x="917" 
d="M22 -196l-29 66q76 2 109 45t33 123v662h75l515 -603l-16 -23q-3 36 -5.5 85.5t-4 102t-2 100.5t-0.5 81v257h83v-700h-77l-512 593l14 26q2 -24 4 -54.5t3.5 -63.5t3 -65.5t2.5 -62.5t1 -55v-302q0 -64 -25.5 -112t-70.5 -74t-101 -26z" />
    <glyph glyph-name="Ohorn" unicode="&#x1a0;" horiz-adv-x="913" 
d="M456 -10q-82 0 -150 26.5t-119 75t-78.5 114t-27.5 142.5t27.5 142.5t78.5 114.5t119 75.5t150 26.5q20 0 37.5 -1.5t33.5 -4.5q20 -2 38.5 -4t36.5 -2q41 0 67 12.5t39 38.5t13 65h69q0 -36 -9.5 -65.5t-29 -51t-48 -34.5t-68.5 -16l4 21q59 -29 102 -76t67 -108
t24 -133q0 -76 -28 -141.5t-78.5 -114.5t-119 -75.5t-150.5 -26.5zM456 67q64 0 118.5 20.5t94 58.5t61 89.5t21.5 112.5q0 62 -22 113.5t-61.5 89.5t-94 59t-117.5 21q-64 0 -118.5 -21t-94 -59.5t-60.5 -90t-21 -112.5t21 -112t60.5 -89.5t94 -59t118.5 -20.5z" />
    <glyph glyph-name="ohorn" unicode="&#x1a1;" horiz-adv-x="743" 
d="M372 -10q-88 0 -155.5 35t-106 97t-38.5 141q0 78 38.5 139.5t106 96.5t155.5 35q22 0 42 -2.5t39 -5.5q13 -3 24 -4.5t25 -1.5q46 0 67 26.5t21 84.5h64q0 -44 -12.5 -78.5t-39.5 -55.5t-72 -26l5 23q63 -34 99.5 -94.5t36.5 -136.5q0 -79 -38.5 -140.5t-106 -97
t-154.5 -35.5zM372 61q63 0 113.5 26.5t79 72t28.5 103.5t-28.5 103.5t-79 71t-113.5 25.5q-64 0 -114.5 -26t-79.5 -71t-28 -103q-1 -58 28 -103.5t80 -72t114 -26.5z" />
    <glyph glyph-name="Uhorn" unicode="&#x1af;" horiz-adv-x="859" 
d="M433 -7q-89 0 -157 39t-106.5 107.5t-38.5 155.5v405h78v-399q0 -66 29.5 -118.5t80 -82.5t114.5 -30q67 0 118.5 30t81 82.5t29.5 118.5v399h18q54 0 78.5 30t24.5 82h69q0 -47 -17 -83t-50 -56.5t-80 -24.5l32 37v-391q0 -86 -38.5 -154.5t-107 -107.5t-158.5 -39z" />
    <glyph glyph-name="uhorn" unicode="&#x1b0;" horiz-adv-x="718" 
d="M330 -10q-66 0 -112 27t-70.5 78.5t-24.5 124.5v302h76v-284q0 -57 17 -96.5t51 -59.5t83 -20q39 0 72.5 13t58 35.5t38.5 52.5t14 65v294q28 0 47 7t31.5 20t17.5 33.5t5 48.5h65q0 -42 -13 -76t-40 -54t-69 -24l32 36v-513h-75l-3 140l11 -21q-11 -33 -43 -62.5
t-75 -48t-94 -18.5z" />
    <glyph glyph-name="uni01C4" unicode="&#x1c4;" horiz-adv-x="1560" 
d="M137 0v700h296q80 0 144.5 -26t111.5 -73.5t72 -111t25 -139.5t-25 -140t-71.5 -111t-111.5 -73t-145 -26h-296zM215 62l-9 14h222q63 0 114.5 20.5t87 57t55 86t19.5 110.5q0 60 -19.5 110t-55.5 86.5t-87 57t-114 20.5h-225l12 12v-574zM898 0v60l483 585l19 -22h-476
v77h553v-59l-482 -586l-20 22h513v-77h-590zM1154 762l-114 96l33 29l133 -75h-30l133 75l33 -29l-114 -96h-74z" />
    <glyph glyph-name="uni01C5" unicode="&#x1c5;" horiz-adv-x="1428" 
d="M137 0v700h296q80 0 144.5 -26t111.5 -73.5t72 -111t25 -139.5t-25 -140t-71.5 -111t-111.5 -73t-145 -26h-296zM215 62l-9 14h222q63 0 114.5 20.5t87 57t55 86t19.5 110.5q0 60 -19.5 110t-55.5 86.5t-87 57t-114 20.5h-225l12 12v-574zM930 0v65l342 405l14 -15h-356
v67h423v-64l-342 -405l-12 14h365v-67h-434zM1110 603l-107 107l33 29l126 -85h-30l126 85l33 -29l-107 -107h-74z" />
    <glyph glyph-name="uni01C6" unicode="&#x1c6;" horiz-adv-x="1319" 
d="M341 -10q-79 0 -140.5 35.5t-96.5 97t-35 139.5q0 79 35.5 140.5t97.5 96.5t141 35q46 0 86.5 -12t73 -33.5t53.5 -49.5t28 -59l-24 8v352h75v-740h-74l-2 137l20 5q-6 -30 -27.5 -57t-53.5 -48.5t-72.5 -34t-84.5 -12.5zM354 60q61 0 108.5 26.5t74.5 72t27 104.5
q0 57 -26.5 102.5t-74 71.5t-109.5 26q-60 0 -106.5 -26t-73.5 -71t-27 -103t27 -104t73.5 -72.5t106.5 -26.5zM821 0v65l342 405l14 -15h-356v67h423v-64l-342 -405l-12 14h365v-67h-434zM1000 603l-107 107l33 29l126 -85h-30l126 85l33 -29l-107 -107h-74z" />
    <glyph glyph-name="uni01C7" unicode="&#x1c7;" horiz-adv-x="1408" 
d="M137 0v700h78v-624h392v-76h-470zM1002 -10q-43 0 -79 12t-65.5 32t-51 45t-34.5 50l53 56q17 -29 36.5 -51.5t41.5 -37.5t47 -23t52 -8q50 0 88 23.5t58.5 64t20.5 90.5v381h-145v76h338v-76h-113v-387q0 -50 -17 -95t-49 -79.5t-78 -53.5t-103 -19z" />
    <glyph glyph-name="uni01C8" unicode="&#x1c8;" horiz-adv-x="1060" 
d="M137 0v700h78v-624h392v-76h-470zM737 -196l-29 64q52 1 84 20.5t47.5 57.5t15.5 92v484h75v-506q0 -65 -25 -112t-68 -73.5t-100 -26.5zM893 637q-27 0 -42 14.5t-15 40.5q0 24 15.5 39.5t41.5 15.5q28 0 42.5 -14.5t14.5 -40.5q0 -24 -15 -39.5t-42 -15.5z" />
    <glyph glyph-name="uni01C9" unicode="&#x1c9;" horiz-adv-x="694" 
d="M126 0v740h75v-740h-75zM370 -196l-29 64q52 1 84 20.5t47.5 57.5t15.5 92v484h75v-506q0 -65 -25 -112t-68 -73.5t-100 -26.5zM526 637q-27 0 -42 14.5t-15 40.5q0 24 15.5 39.5t41.5 15.5q28 0 42.5 -14.5t14.5 -40.5q0 -24 -15 -39.5t-42 -15.5z" />
    <glyph glyph-name="uni01CA" unicode="&#x1ca;" horiz-adv-x="1646" 
d="M137 0v700h74l516 -608l-11 -18q-4 19 -5.5 54t-3 77.5t-2.5 87t-1 84v66.5v257h78v-700h-77l-512 598l8 21q2 -29 3.5 -63t4 -69.5t4 -68.5t2 -59t0.5 -41v-318h-78zM1239 -10q-43 0 -79 12t-65.5 32t-51 45t-34.5 50l53 56q17 -29 36.5 -51.5t41.5 -37.5t47 -23t52 -8
q50 0 88 23.5t58.5 64t20.5 90.5v381h-145v76h338v-76h-113v-387q0 -50 -17 -95t-49 -79.5t-78 -53.5t-103 -19z" />
    <glyph glyph-name="uni01CB" unicode="&#x1cb;" horiz-adv-x="1298" 
d="M137 0v700h74l516 -608l-11 -18q-4 19 -5.5 54t-3 77.5t-2.5 87t-1 84v66.5v257h78v-700h-77l-512 598l8 21q2 -29 3.5 -63t4 -69.5t4 -68.5t2 -59t0.5 -41v-318h-78zM974 -196l-29 64q52 1 84 20.5t47.5 57.5t15.5 92v484h75v-506q0 -65 -25 -112t-68 -73.5t-100 -26.5z
M1130 637q-27 0 -42 14.5t-15 40.5q0 24 15.5 39.5t41.5 15.5q28 0 42.5 -14.5t14.5 -40.5q0 -24 -15 -39.5t-42 -15.5z" />
    <glyph glyph-name="uni01CC" unicode="&#x1cc;" horiz-adv-x="1124" 
d="M132 0v522h74l3 -125l-18 -3q14 36 45.5 67.5t77 52t95.5 20.5q67 0 112.5 -26.5t68.5 -75.5t23 -119v-313h-76v305q0 52 -18 87t-51.5 53.5t-78.5 17.5q-40 0 -73 -14t-57.5 -36.5t-38 -51t-13.5 -58.5v-303h-37h-19.5h-18.5zM800 -196l-29 64q52 1 84 20.5t47.5 57.5
t15.5 92v484h75v-506q0 -65 -25 -112t-68 -73.5t-100 -26.5zM956 637q-27 0 -42 14.5t-15 40.5q0 24 15.5 39.5t41.5 15.5q28 0 42.5 -14.5t14.5 -40.5q0 -24 -15 -39.5t-42 -15.5z" />
    <glyph glyph-name="uni01CD" unicode="&#x1cd;" horiz-adv-x="790" 
d="M53 0l297 700h92l295 -700h-86l-202 478q-9 24 -17.5 46.5t-17 44t-16.5 43.5l-16 44h22q-9 -26 -17 -48.5t-16.5 -43.5t-17.5 -43t-19 -48l-201 -473h-80zM177 189l31 76h369l26 -76h-426zM358 762l-114 96l33 29l133 -75h-30l133 75l33 -29l-114 -96h-74z" />
    <glyph glyph-name="uni01CE" unicode="&#x1ce;" horiz-adv-x="760" 
d="M340 -10q-80 0 -141.5 35t-96 96.5t-34.5 140.5t36 140.5t98 96.5t141 35q49 0 90.5 -13t73 -36t51.5 -51.5t25 -58.5l-24 7l3 140h74v-522h-75v136l20 11q-6 -30 -27 -58t-54 -50.5t-74 -35.5t-86 -13zM356 62q60 0 107.5 25.5t74.5 71t27 103.5q0 57 -27 102t-74.5 72
t-107.5 27q-62 0 -109 -27t-74 -72t-27 -102q0 -58 26 -103t73.5 -71t110.5 -26zM336 603l-107 107l33 29l126 -85h-30l126 85l33 -29l-107 -107h-74z" />
    <glyph glyph-name="uni01CF" unicode="&#x1cf;" horiz-adv-x="594" 
d="M117 0v76h141v548h-141v76h360v-76h-141v-548h141v-76h-360zM260 762l-114 96l33 29l133 -75h-30l133 75l33 -29l-114 -96h-74z" />
    <glyph glyph-name="uni01D0" unicode="&#x1d0;" horiz-adv-x="325" 
d="M124 0v522h76v-522h-76zM125 603l-107 107l33 29l126 -85h-30l126 85l33 -29l-107 -107h-74z" />
    <glyph glyph-name="uni01D1" unicode="&#x1d1;" horiz-adv-x="913" 
d="M456 -10q-82 0 -150 26.5t-119 75t-78.5 114t-27.5 142.5t27.5 142.5t78.5 114.5t119 75.5t150 26.5t150.5 -26.5t119 -75.5t78.5 -114.5t28 -142.5q0 -76 -28 -141.5t-78.5 -114.5t-119 -75.5t-150.5 -26.5zM456 67q64 0 118.5 20.5t94 58.5t61 89.5t21.5 112.5
q0 62 -21.5 113.5t-61 89.5t-94 59t-118.5 21t-118.5 -21t-94 -59.5t-60.5 -90t-21 -112.5t21 -112t60.5 -89.5t94 -59t118.5 -20.5zM420 762l-114 96l33 29l133 -75h-30l133 75l33 -29l-114 -96h-74z" />
    <glyph glyph-name="uni01D2" unicode="&#x1d2;" horiz-adv-x="743" 
d="M372 -10q-88 0 -155.5 35t-106 97t-38.5 141q0 78 38.5 139.5t106 96.5t155.5 35q87 0 154.5 -35t106 -96.5t38.5 -139.5q0 -79 -38.5 -140.5t-106 -97t-154.5 -35.5zM372 61q63 0 113.5 26.5t79 72t28.5 103.5t-28.5 103.5t-79 71t-113.5 25.5q-64 0 -114.5 -26
t-79.5 -71t-28 -103q-1 -58 28 -103.5t80 -72t114 -26.5zM335 603l-107 107l33 29l126 -85h-30l126 85l33 -29l-107 -107h-74z" />
    <glyph glyph-name="uni01D3" unicode="&#x1d3;" horiz-adv-x="869" 
d="M433 -7q-89 0 -157 39t-106.5 107.5t-38.5 155.5v405h78v-399q0 -66 29.5 -118.5t80 -82.5t114.5 -30q67 0 118.5 30t81 82.5t29.5 118.5v399h75v-406q0 -86 -38.5 -154.5t-107 -107.5t-158.5 -39zM398 762l-114 96l33 29l133 -75h-30l133 75l33 -29l-114 -96h-74z" />
    <glyph glyph-name="uni01D4" unicode="&#x1d4;" horiz-adv-x="731" 
d="M330 -10q-66 0 -112 27t-70.5 78.5t-24.5 124.5v302h76v-284q0 -57 17 -96.5t51 -59.5t83 -20q39 0 72.5 13t58 35.5t38.5 52.5t14 65v294h76v-522h-75l-3 116l13 6q-11 -34 -42 -64.5t-75.5 -49t-96.5 -18.5zM329 603l-107 107l33 29l126 -85h-30l126 85l33 -29
l-107 -107h-74z" />
    <glyph glyph-name="Gcaron" unicode="&#x1e6;" horiz-adv-x="890" 
d="M470 -10q-82 0 -152.5 25.5t-123.5 73t-83 114t-30 146.5q0 76 29.5 141t82 113.5t123.5 75t153 26.5q60 0 115.5 -15.5t101 -41.5t71.5 -59l-50 -55q-30 28 -68.5 49t-82 33.5t-86.5 12.5q-65 0 -121 -21t-98 -58.5t-65 -89t-23 -111.5q0 -64 23.5 -115.5t67 -89
t99.5 -57.5t121 -20q54 0 102.5 14.5t84.5 40.5t56 60.5t19 73.5v31l18 -23h-282v77h344q1 -9 2 -18.5t1.5 -19t0.5 -16.5q0 -66 -27 -120t-74.5 -93.5t-111 -61.5t-137.5 -22zM429 762l-114 96l33 29l133 -75h-30l133 75l33 -29l-114 -96h-74z" />
    <glyph glyph-name="gcaron" unicode="&#x1e7;" horiz-adv-x="768" 
d="M372 -230q-70 0 -125.5 18.5t-92.5 44.5l30 65q21 -15 50 -28t64.5 -21.5t75.5 -8.5q59 0 103 22.5t68 67.5t24 113v87l13 3q-12 -39 -46.5 -71.5t-84.5 -51.5t-107 -19q-79 0 -140 35t-96.5 96.5t-35.5 139.5q0 79 36.5 140t98.5 96.5t141 35.5q31 0 62.5 -7t60.5 -20
t53 -31t41 -40.5t23 -46.5l-21 3l2 130h76v-474q0 -70 -21 -121.5t-58 -86.5t-87 -52.5t-107 -17.5zM361 62q62 0 109.5 26t74.5 71t27 103q-1 59 -28 104.5t-74.5 71t-108.5 25.5t-108.5 -26t-75 -71.5t-27.5 -102.5q0 -58 27 -103.5t74.5 -71.5t109.5 -26zM341 603
l-107 107l33 29l126 -85h-30l126 85l33 -29l-107 -107h-74z" />
    <glyph glyph-name="uni01EA" unicode="&#x1ea;" horiz-adv-x="913" 
d="M561 -211q-46 0 -79 29.5t-33 75.5q0 33 16 59.5t42.5 49t59 42.5t68.5 38l28 -36q-27 -16 -53 -32t-46.5 -34t-33 -37t-12.5 -42q0 -25 14.5 -39t37.5 -14q18 0 31 8t22 20l45 -32q-14 -23 -42.5 -39.5t-64.5 -16.5zM456 -10q-82 0 -150 26.5t-119 75t-78.5 114
t-27.5 142.5t27.5 142.5t78.5 114.5t119 75.5t150 26.5t150.5 -26.5t119 -75.5t78.5 -114.5t28 -142.5q0 -76 -28 -141.5t-78.5 -114.5t-119 -75.5t-150.5 -26.5zM456 67q64 0 118.5 20.5t94 58.5t61 89.5t21.5 112.5q0 62 -21.5 113.5t-61 89.5t-94 59t-118.5 21
t-118.5 -21t-94 -59.5t-60.5 -90t-21 -112.5t21 -112t60.5 -89.5t94 -59t118.5 -20.5z" />
    <glyph glyph-name="uni01EB" unicode="&#x1eb;" horiz-adv-x="743" 
d="M459 -211q-47 0 -75 26.5t-28 68.5q0 40 22.5 72t62 60.5t90.5 54.5l16 -33q-55 -34 -89 -67t-34 -74q0 -22 12 -35.5t33 -13.5q15 0 27 7.5t25 23.5l44 -32q-11 -17 -26.5 -30t-36 -20.5t-43.5 -7.5zM372 -10q-88 0 -155.5 35t-106 97t-38.5 141q0 78 38.5 139.5
t106 96.5t155.5 35q87 0 154.5 -35t106 -96.5t38.5 -139.5q0 -79 -38.5 -140.5t-106 -97t-154.5 -35.5zM372 61q63 0 113.5 26.5t79 72t28.5 103.5t-28.5 103.5t-79 71t-113.5 25.5q-64 0 -114.5 -26t-79.5 -71t-28 -103q-1 -58 28 -103.5t80 -72t114 -26.5z" />
    <glyph glyph-name="uni01F1" unicode="&#x1f1;" horiz-adv-x="1560" 
d="M137 0v700h296q80 0 144.5 -26t111.5 -73.5t72 -111t25 -139.5t-25 -140t-71.5 -111t-111.5 -73t-145 -26h-296zM215 62l-9 14h222q63 0 114.5 20.5t87 57t55 86t19.5 110.5q0 60 -19.5 110t-55.5 86.5t-87 57t-114 20.5h-225l12 12v-574zM898 0v60l483 585l19 -22h-476
v77h553v-59l-482 -586l-20 22h513v-77h-590z" />
    <glyph glyph-name="uni01F2" unicode="&#x1f2;" horiz-adv-x="1428" 
d="M137 0v700h296q80 0 144.5 -26t111.5 -73.5t72 -111t25 -139.5t-25 -140t-71.5 -111t-111.5 -73t-145 -26h-296zM215 62l-9 14h222q63 0 114.5 20.5t87 57t55 86t19.5 110.5q0 60 -19.5 110t-55.5 86.5t-87 57t-114 20.5h-225l12 12v-574zM930 0v65l342 405l14 -15h-356
v67h423v-64l-342 -405l-12 14h365v-67h-434z" />
    <glyph glyph-name="Aringacute" unicode="&#x1fa;" horiz-adv-x="790" 
d="M53 0l297 700h92l295 -700h-86l-202 478q-9 24 -17.5 46.5t-17 44t-16.5 43.5l-16 44h22q-9 -26 -17 -48.5t-16.5 -43.5t-17.5 -43t-19 -48l-201 -473h-80zM177 189l31 76h369l26 -76h-426zM394 716q-29 0 -54 14.5t-40 38.5t-15 52q0 29 15 53t40 38.5t54 14.5t54 -14.5
t40.5 -38.5t15.5 -53q0 -28 -15.5 -52t-40.5 -38.5t-54 -14.5zM394 764q25 0 42.5 17t17.5 40q0 26 -17.5 41.5t-42.5 15.5t-42 -16t-17 -41q0 -23 17.5 -40t41.5 -17zM327 956l-23 42l167 105l41 -70z" />
    <glyph glyph-name="aringacute" unicode="&#x1fb;" horiz-adv-x="760" 
d="M340 -10q-80 0 -141.5 35t-96 96.5t-34.5 140.5t36 140.5t98 96.5t141 35q49 0 90.5 -13t73 -36t51.5 -51.5t25 -58.5l-24 7l3 140h74v-522h-75v136l20 11q-6 -30 -27 -58t-54 -50.5t-74 -35.5t-86 -13zM356 62q60 0 107.5 25.5t74.5 71t27 103.5q0 57 -27 102t-74.5 72
t-107.5 27q-62 0 -109 -27t-74 -72t-27 -102q0 -58 26 -103t73.5 -71t110.5 -26zM372 594q-27 0 -51.5 14t-39.5 37.5t-15 50.5q0 29 14.5 52t39 37.5t52.5 14.5q29 0 53.5 -14.5t39 -37.5t14.5 -52q0 -27 -14.5 -50.5t-39 -37.5t-53.5 -14zM372 642q24 0 41 16t17 38
q0 25 -17 40t-41 15q-25 0 -41 -15.5t-16 -39.5q0 -22 17 -38t40 -16zM311 822l-27 41l142 119l49 -63z" />
    <glyph glyph-name="AEacute" unicode="&#x1fc;" horiz-adv-x="1135" 
d="M38 0l543 700h448v-73h-396v-236h345v-74h-345v-244h394v-73h-471v173h-311l57 73h254v352l27 -10l-456 -588h-89zM692 757l-23 42l167 105l41 -70z" />
    <glyph glyph-name="aeacute" unicode="&#x1fd;" horiz-adv-x="1077" 
d="M274 -10q-61 0 -107.5 19.5t-72.5 55t-26 84.5q0 46 19.5 77.5t54 49.5t83 26.5t106.5 8.5h612l-18 -18v23q-2 39 -25 72t-63 54t-92 21q-60 0 -106.5 -21t-74 -65t-27.5 -113q0 -63 29.5 -108.5t83.5 -70.5t122 -25q52 0 94.5 14t86.5 48l37 -57q-25 -21 -61 -38
t-78 -27t-88 -10q-89 0 -156.5 34.5t-104.5 95t-37 139.5q0 65 21.5 116t60 86.5t89.5 53.5t109 18q76 0 133.5 -32t90 -88.5t32.5 -130.5l-1 -35h-682q-36 0 -67.5 -5t-56 -16t-38.5 -29t-14 -45q0 -29 17 -50t48 -32.5t71 -11.5q46 0 87.5 16t73 41.5t48.5 53.5l37 -51
q-22 -34 -61 -63t-87.5 -47t-101.5 -18zM465 274v78q0 25 -11 45.5t-31.5 35t-47.5 22t-60 7.5q-54 0 -100.5 -19t-87.5 -59l-48 52q35 32 72 54t78 32.5t88 10.5q45 0 83.5 -9t68.5 -28t47 -48.5t17 -68.5v-103zM474 599l-27 41l142 119l49 -63z" />
    <glyph glyph-name="Oslashacute" unicode="&#x1fe;" horiz-adv-x="917" 
d="M142 -31l-47 47l678 715l50 -45zM459 -10q-82 0 -150.5 26.5t-119 75t-78 114t-27.5 142.5t27.5 142.5t78 114.5t119 75.5t150.5 26.5t150.5 -26.5t119 -75.5t78.5 -114.5t28 -142.5q0 -76 -28 -141.5t-78.5 -114.5t-119 -75.5t-150.5 -26.5zM459 67q64 0 118.5 20.5
t94 58.5t61 89.5t21.5 112.5q0 62 -21.5 113.5t-61 89.5t-94 59t-118.5 21t-118 -21t-94 -59.5t-61 -90t-21 -112.5t21 -112t61 -89.5t94 -59t118 -20.5zM392 757l-23 42l167 105l41 -70z" />
    <glyph glyph-name="oslashacute" unicode="&#x1ff;" horiz-adv-x="743" 
d="M135 -21l-46 39l518 523l46 -40zM372 -10q-88 0 -155.5 35t-106 97t-38.5 141q0 78 38.5 139.5t106 96.5t155.5 35t155.5 -35t105.5 -96.5t38 -139.5q0 -79 -38 -140.5t-105.5 -97t-155.5 -35.5zM372 61q64 0 114.5 26.5t79 72t27.5 103.5q1 58 -27.5 103.5t-79 71
t-114.5 25.5t-114 -26t-79.5 -71t-28.5 -103q-1 -58 28.5 -103.5t80 -72t113.5 -26.5zM311 599l-27 41l142 119l49 -63z" />
    <glyph glyph-name="uni0200" unicode="&#x200;" horiz-adv-x="790" 
d="M53 0l297 700h92l295 -700h-86l-202 478q-9 24 -17.5 46.5t-17 44t-16.5 43.5l-16 44h22q-9 -26 -17 -48.5t-16.5 -43.5t-17.5 -43t-19 -48l-201 -473h-80zM177 189l31 76h369l26 -76h-426zM490 749l-159 105l54 62l136 -126zM314 749l-159 105l55 62l135 -126z" />
    <glyph glyph-name="uni0201" unicode="&#x201;" horiz-adv-x="760" 
d="M340 -10q-80 0 -141.5 35t-96 96.5t-34.5 140.5t36 140.5t98 96.5t141 35q49 0 90.5 -13t73 -36t51.5 -51.5t25 -58.5l-24 7l3 140h74v-522h-75v136l20 11q-6 -30 -27 -58t-54 -50.5t-74 -35.5t-86 -13zM356 62q60 0 107.5 25.5t74.5 71t27 103.5q0 57 -27 102t-74.5 72
t-107.5 27q-62 0 -109 -27t-74 -72t-27 -102q0 -58 26 -103t73.5 -71t110.5 -26zM462 599l-164 97l48 63l143 -119zM288 599l-164 97l49 63l142 -119z" />
    <glyph glyph-name="uni0202" unicode="&#x202;" horiz-adv-x="790" 
d="M53 0l297 700h92l295 -700h-86l-202 478q-9 24 -17.5 46.5t-17 44t-16.5 43.5l-16 44h22q-9 -26 -17 -48.5t-16.5 -43.5t-17.5 -43t-19 -48l-201 -473h-80zM177 189l31 76h369l26 -76h-426zM301 756l-58 9q9 37 30 65.5t52.5 45t69.5 16.5q39 0 70 -16.5t52.5 -45
t29.5 -65.5l-58 -9q-11 37 -36 56.5t-58 19.5t-58 -19.5t-36 -56.5z" />
    <glyph glyph-name="uni0203" unicode="&#x203;" horiz-adv-x="760" 
d="M340 -10q-80 0 -141.5 35t-96 96.5t-34.5 140.5t36 140.5t98 96.5t141 35q49 0 90.5 -13t73 -36t51.5 -51.5t25 -58.5l-24 7l3 140h74v-522h-75v136l20 11q-6 -30 -27 -58t-54 -50.5t-74 -35.5t-86 -13zM356 62q60 0 107.5 25.5t74.5 71t27 103.5q0 57 -27 102t-74.5 72
t-107.5 27q-62 0 -109 -27t-74 -72t-27 -102q0 -58 26 -103t73.5 -71t110.5 -26zM279 602l-58 9q13 65 53 103.5t99 38.5t99 -38.5t53 -103.5l-58 -9q-12 42 -37 66.5t-57 24.5t-57 -24.5t-37 -66.5z" />
    <glyph glyph-name="uni0204" unicode="&#x204;" horiz-adv-x="723" 
d="M137 0v700h480v-76h-402v-548h400v-76h-478zM176 322v76h385v-76h-385zM481 749l-159 105l54 62l136 -126zM305 749l-159 105l55 62l135 -126z" />
    <glyph glyph-name="uni0205" unicode="&#x205;" horiz-adv-x="700" 
d="M368 -10q-87 0 -155.5 34t-106.5 95t-38 140q0 63 22 112.5t61.5 86.5t93 57t114.5 20q59 0 108 -18.5t85 -52.5t55 -80t17 -102l-1 -39h-494l-11 63h448l-18 -13v24q-2 36 -26 69.5t-66 55t-97 21.5q-62 0 -110.5 -21.5t-76 -65.5t-27.5 -112q0 -62 29 -107t81.5 -70
t125.5 -25q54 0 97 15t87 47l36 -56q-26 -21 -62 -39t-79 -28.5t-92 -10.5zM448 599l-164 97l48 63l143 -119zM274 599l-164 97l49 63l142 -119z" />
    <glyph glyph-name="uni0206" unicode="&#x206;" horiz-adv-x="723" 
d="M137 0v700h480v-76h-402v-548h400v-76h-478zM176 322v76h385v-76h-385zM293 756l-58 9q9 37 30 65.5t52.5 45t69.5 16.5q39 0 70 -16.5t52.5 -45t29.5 -65.5l-58 -9q-11 37 -36 56.5t-58 19.5t-58 -19.5t-36 -56.5z" />
    <glyph glyph-name="uni0207" unicode="&#x207;" horiz-adv-x="700" 
d="M368 -10q-87 0 -155.5 34t-106.5 95t-38 140q0 63 22 112.5t61.5 86.5t93 57t114.5 20q59 0 108 -18.5t85 -52.5t55 -80t17 -102l-1 -39h-494l-11 63h448l-18 -13v24q-2 36 -26 69.5t-66 55t-97 21.5q-62 0 -110.5 -21.5t-76 -65.5t-27.5 -112q0 -62 29 -107t81.5 -70
t125.5 -25q54 0 97 15t87 47l36 -56q-26 -21 -62 -39t-79 -28.5t-92 -10.5zM265 602l-58 9q13 65 53 103.5t99 38.5t99 -38.5t53 -103.5l-58 -9q-12 42 -37 66.5t-57 24.5t-57 -24.5t-37 -66.5z" />
    <glyph glyph-name="uni0208" unicode="&#x208;" horiz-adv-x="594" 
d="M117 0v76h141v548h-141v76h360v-76h-141v-548h141v-76h-360zM392 749l-159 105l54 62l136 -126zM216 749l-159 105l55 62l135 -126z" />
    <glyph glyph-name="uni0209" unicode="&#x209;" horiz-adv-x="325" 
d="M124 0v522h76v-522h-76zM251 599l-164 97l48 63l143 -119zM77 599l-164 97l49 63l142 -119z" />
    <glyph glyph-name="uni020A" unicode="&#x20a;" horiz-adv-x="594" 
d="M117 0v76h141v548h-141v76h360v-76h-141v-548h141v-76h-360zM203 756l-58 9q9 37 30 65.5t52.5 45t69.5 16.5q39 0 70 -16.5t52.5 -45t29.5 -65.5l-58 -9q-11 37 -36 56.5t-58 19.5t-58 -19.5t-36 -56.5z" />
    <glyph glyph-name="uni020B" unicode="&#x20b;" horiz-adv-x="325" 
d="M124 0v522h76v-522h-76zM68 602l-58 9q13 65 53 103.5t99 38.5t99 -38.5t53 -103.5l-58 -9q-12 42 -37 66.5t-57 24.5t-57 -24.5t-37 -66.5z" />
    <glyph glyph-name="uni020C" unicode="&#x20c;" horiz-adv-x="913" 
d="M456 -10q-82 0 -150 26.5t-119 75t-78.5 114t-27.5 142.5t27.5 142.5t78.5 114.5t119 75.5t150 26.5t150.5 -26.5t119 -75.5t78.5 -114.5t28 -142.5q0 -76 -28 -141.5t-78.5 -114.5t-119 -75.5t-150.5 -26.5zM456 67q64 0 118.5 20.5t94 58.5t61 89.5t21.5 112.5
q0 62 -21.5 113.5t-61 89.5t-94 59t-118.5 21t-118.5 -21t-94 -59.5t-60.5 -90t-21 -112.5t21 -112t60.5 -89.5t94 -59t118.5 -20.5zM552 749l-159 105l54 62l136 -126zM376 749l-159 105l55 62l135 -126z" />
    <glyph glyph-name="uni020D" unicode="&#x20d;" horiz-adv-x="743" 
d="M372 -10q-88 0 -155.5 35t-106 97t-38.5 141q0 78 38.5 139.5t106 96.5t155.5 35q87 0 154.5 -35t106 -96.5t38.5 -139.5q0 -79 -38.5 -140.5t-106 -97t-154.5 -35.5zM372 61q63 0 113.5 26.5t79 72t28.5 103.5t-28.5 103.5t-79 71t-113.5 25.5q-64 0 -114.5 -26
t-79.5 -71t-28 -103q-1 -58 28 -103.5t80 -72t114 -26.5zM461 599l-164 97l48 63l143 -119zM287 599l-164 97l49 63l142 -119z" />
    <glyph glyph-name="uni020E" unicode="&#x20e;" horiz-adv-x="913" 
d="M456 -10q-82 0 -150 26.5t-119 75t-78.5 114t-27.5 142.5t27.5 142.5t78.5 114.5t119 75.5t150 26.5t150.5 -26.5t119 -75.5t78.5 -114.5t28 -142.5q0 -76 -28 -141.5t-78.5 -114.5t-119 -75.5t-150.5 -26.5zM456 67q64 0 118.5 20.5t94 58.5t61 89.5t21.5 112.5
q0 62 -21.5 113.5t-61 89.5t-94 59t-118.5 21t-118.5 -21t-94 -59.5t-60.5 -90t-21 -112.5t21 -112t60.5 -89.5t94 -59t118.5 -20.5zM363 756l-58 9q9 37 30 65.5t52.5 45t69.5 16.5q39 0 70 -16.5t52.5 -45t29.5 -65.5l-58 -9q-11 37 -36 56.5t-58 19.5t-58 -19.5
t-36 -56.5z" />
    <glyph glyph-name="uni020F" unicode="&#x20f;" horiz-adv-x="743" 
d="M372 -10q-88 0 -155.5 35t-106 97t-38.5 141q0 78 38.5 139.5t106 96.5t155.5 35q87 0 154.5 -35t106 -96.5t38.5 -139.5q0 -79 -38.5 -140.5t-106 -97t-154.5 -35.5zM372 61q63 0 113.5 26.5t79 72t28.5 103.5t-28.5 103.5t-79 71t-113.5 25.5q-64 0 -114.5 -26
t-79.5 -71t-28 -103q-1 -58 28 -103.5t80 -72t114 -26.5zM278 602l-58 9q13 65 53 103.5t99 38.5t99 -38.5t53 -103.5l-58 -9q-12 42 -37 66.5t-57 24.5t-57 -24.5t-37 -66.5z" />
    <glyph glyph-name="uni0210" unicode="&#x210;" horiz-adv-x="786" 
d="M137 0v700h318q62 0 112 -28t79 -76.5t29 -109.5q0 -60 -29.5 -108t-80.5 -76t-113 -28h-237v-274h-78zM614 0l-200 308l77 25l218 -333h-95zM215 350h237q42 0 73.5 17.5t49.5 48.5t18 70t-19.5 70.5t-54 49.5t-79.5 18h-225v-274zM465 746l-159 105l54 62l136 -126z
M289 746l-159 105l55 62l135 -126z" />
    <glyph glyph-name="uni0211" unicode="&#x211;" horiz-adv-x="524" 
d="M132 0v522h75l2 -149l-14 9q13 42 42 76.5t68 55t84 20.5q25 0 48.5 -4.5t37.5 -12.5l-21 -82q-17 10 -38 14t-39 4q-40 0 -71.5 -14t-53.5 -37.5t-33 -53t-11 -61.5v-287h-76zM400 599l-164 97l48 63l143 -119zM226 599l-164 97l49 63l142 -119z" />
    <glyph glyph-name="uni0212" unicode="&#x212;" horiz-adv-x="786" 
d="M137 0v700h318q62 0 112 -28t79 -76.5t29 -109.5q0 -60 -29.5 -108t-80.5 -76t-113 -28h-237v-274h-78zM614 0l-200 308l77 25l218 -333h-95zM215 350h237q42 0 73.5 17.5t49.5 48.5t18 70t-19.5 70.5t-54 49.5t-79.5 18h-225v-274zM277 753l-58 9q9 37 30 65.5t52.5 45
t69.5 16.5q39 0 70 -16.5t52.5 -45t29.5 -65.5l-58 -9q-11 37 -36 56.5t-58 19.5t-58 -19.5t-36 -56.5z" />
    <glyph glyph-name="uni0213" unicode="&#x213;" horiz-adv-x="524" 
d="M132 0v522h75l2 -149l-14 9q13 42 42 76.5t68 55t84 20.5q25 0 48.5 -4.5t37.5 -12.5l-21 -82q-17 10 -38 14t-39 4q-40 0 -71.5 -14t-53.5 -37.5t-33 -53t-11 -61.5v-287h-76zM216 602l-58 9q13 65 53 103.5t99 38.5t99 -38.5t53 -103.5l-58 -9q-12 42 -37 66.5
t-57 24.5t-57 -24.5t-37 -66.5z" />
    <glyph glyph-name="uni0214" unicode="&#x214;" horiz-adv-x="869" 
d="M433 -7q-89 0 -157 39t-106.5 107.5t-38.5 155.5v405h78v-399q0 -66 29.5 -118.5t80 -82.5t114.5 -30q67 0 118.5 30t81 82.5t29.5 118.5v399h75v-406q0 -86 -38.5 -154.5t-107 -107.5t-158.5 -39zM530 749l-159 105l54 62l136 -126zM354 749l-159 105l55 62l135 -126z
" />
    <glyph glyph-name="uni0215" unicode="&#x215;" horiz-adv-x="731" 
d="M330 -10q-66 0 -112 27t-70.5 78.5t-24.5 124.5v302h76v-284q0 -57 17 -96.5t51 -59.5t83 -20q39 0 72.5 13t58 35.5t38.5 52.5t14 65v294h76v-522h-75l-3 116l13 6q-11 -34 -42 -64.5t-75.5 -49t-96.5 -18.5zM457 599l-164 97l48 63l143 -119zM283 599l-164 97l49 63
l142 -119z" />
    <glyph glyph-name="uni0216" unicode="&#x216;" horiz-adv-x="869" 
d="M433 -7q-89 0 -157 39t-106.5 107.5t-38.5 155.5v405h78v-399q0 -66 29.5 -118.5t80 -82.5t114.5 -30q67 0 118.5 30t81 82.5t29.5 118.5v399h75v-406q0 -86 -38.5 -154.5t-107 -107.5t-158.5 -39zM341 756l-58 9q9 37 30 65.5t52.5 45t69.5 16.5q39 0 70 -16.5t52.5 -45
t29.5 -65.5l-58 -9q-11 37 -36 56.5t-58 19.5t-58 -19.5t-36 -56.5z" />
    <glyph glyph-name="uni0217" unicode="&#x217;" horiz-adv-x="731" 
d="M330 -10q-66 0 -112 27t-70.5 78.5t-24.5 124.5v302h76v-284q0 -57 17 -96.5t51 -59.5t83 -20q39 0 72.5 13t58 35.5t38.5 52.5t14 65v294h76v-522h-75l-3 116l13 6q-11 -34 -42 -64.5t-75.5 -49t-96.5 -18.5zM272 602l-58 9q13 65 53 103.5t99 38.5t99 -38.5t53 -103.5
l-58 -9q-12 42 -37 66.5t-57 24.5t-57 -24.5t-37 -66.5z" />
    <glyph glyph-name="uni0218" unicode="&#x218;" horiz-adv-x="732" 
d="M372 -10q-61 0 -113.5 15t-96.5 45t-79 74l52 62q53 -66 111.5 -94.5t129.5 -28.5q53 0 97 15t69.5 44t25.5 67q0 26 -12 44.5t-32.5 31.5t-47.5 22.5t-56 16t-59 12.5q-55 11 -100 26t-77.5 38t-49.5 55t-17 78q0 43 19.5 79t54.5 61.5t82 39.5t101 14q60 0 108 -14.5
t85 -42t64 -67.5l-53 -56q-25 34 -56 58.5t-68.5 37t-80.5 12.5q-50 0 -89.5 -15t-62.5 -41.5t-23 -61.5q0 -28 13 -48.5t38 -34.5t62.5 -24.5t83.5 -18.5q52 -10 98 -24t81.5 -35t55 -53.5t19.5 -78.5q0 -62 -34.5 -109.5t-96.5 -74t-146 -26.5zM356 -236l-22 33
q15 7 26.5 15t17.5 17t6 18t-5.5 13t-14.5 7q-12 5 -19 13.5t-7 22.5q0 18 14.5 29.5t35.5 11.5q29 0 48.5 -18t19.5 -51q0 -20 -8 -36.5t-22 -29.5t-32 -24.5t-38 -20.5z" />
    <glyph glyph-name="uni0219" unicode="&#x219;" horiz-adv-x="606" 
d="M312 -10q-77 0 -139.5 25t-100.5 70l53 48q34 -38 81.5 -57.5t105.5 -19.5q28 0 54 5t46 15t31.5 25.5t11.5 36.5q0 34 -40 56q-20 9 -49.5 18t-68.5 17q-60 14 -103 28.5t-68 36.5q-19 18 -28.5 40.5t-9.5 50.5q0 32 15.5 59.5t44.5 47.5t68 31t84 11q41 0 83.5 -10
t80 -29t63.5 -46l-44 -51q-24 20 -53 36.5t-61.5 25.5t-65.5 9q-27 0 -52.5 -5t-44 -15.5t-30 -25.5t-11.5 -35q-1 -16 6.5 -27.5t20.5 -20.5q19 -13 50.5 -22t76.5 -19q50 -10 88.5 -22t65.5 -30q28 -18 42.5 -43t14.5 -58q0 -47 -28 -82t-77 -54.5t-113 -19.5zM275 -206
l-22 33q15 7 26.5 15t17.5 17t6 18q0 10 -5.5 14t-15.5 7q-11 4 -18 12.5t-7 22.5q0 19 14.5 30t35.5 11q29 0 48.5 -18t19.5 -51q0 -20 -8 -36.5t-22 -29.5t-32 -24.5t-38 -20.5z" />
    <glyph glyph-name="uni021A" unicode="&#x21a;" horiz-adv-x="653" 
d="M284 0v624h-228v76h542v-76h-236v-624h-78zM285 -236l-22 33q15 7 26.5 15t17.5 17t6 18t-5.5 13t-14.5 7q-12 5 -19 13.5t-7 22.5q0 18 14.5 29.5t35.5 11.5q29 0 48.5 -18t19.5 -51q0 -20 -8 -36.5t-22 -29.5t-32 -24.5t-38 -20.5z" />
    <glyph glyph-name="uni021B" unicode="&#x21b;" horiz-adv-x="517" 
d="M209 0v671h76v-671h-76zM66 450v72h381v-72h-381zM214 -206l-22 33q15 7 26.5 15t17.5 17t6 18q0 10 -5.5 14t-15.5 7q-11 4 -18 12.5t-7 22.5q0 19 14.5 30t35.5 11q29 0 48.5 -18t19.5 -51q0 -20 -8 -36.5t-22 -29.5t-32 -24.5t-38 -20.5z" />
    <glyph glyph-name="uni022A" unicode="&#x22a;" horiz-adv-x="913" 
d="M456 -10q-82 0 -150 26.5t-119 75t-78.5 114t-27.5 142.5t27.5 142.5t78.5 114.5t119 75.5t150 26.5t150.5 -26.5t119 -75.5t78.5 -114.5t28 -142.5q0 -76 -28 -141.5t-78.5 -114.5t-119 -75.5t-150.5 -26.5zM456 67q64 0 118.5 20.5t94 58.5t61 89.5t21.5 112.5
q0 62 -21.5 113.5t-61 89.5t-94 59t-118.5 21t-118.5 -21t-94 -59.5t-60.5 -90t-21 -112.5t21 -112t60.5 -89.5t94 -59t118.5 -20.5zM558 769q-28 0 -42.5 15t-14.5 40q0 22 14.5 38.5t42.5 16.5q29 0 43.5 -15t14.5 -40q0 -22 -14.5 -38.5t-43.5 -16.5zM356 769
q-29 0 -43.5 15t-14.5 40q0 22 14.5 38.5t43.5 16.5q28 0 42.5 -15t14.5 -40q0 -22 -14.5 -38.5t-42.5 -16.5zM303 936v60h307v-60h-307z" />
    <glyph glyph-name="uni022B" unicode="&#x22b;" horiz-adv-x="743" 
d="M372 -10q-88 0 -155.5 35t-106 97t-38.5 141q0 78 38.5 139.5t106 96.5t155.5 35q87 0 154.5 -35t106 -96.5t38.5 -139.5q0 -79 -38.5 -140.5t-106 -97t-154.5 -35.5zM372 61q63 0 113.5 26.5t79 72t28.5 103.5t-28.5 103.5t-79 71t-113.5 25.5q-64 0 -114.5 -26
t-79.5 -71t-28 -103q-1 -58 28 -103.5t80 -72t114 -26.5zM469 633q-27 0 -42 14.5t-15 39.5t15 40t42 15t42 -14.5t15 -40.5q0 -24 -15 -39t-42 -15zM274 632q-28 0 -43 14.5t-15 40.5q0 24 15.5 39.5t42.5 15.5t42 -14.5t15 -40.5q0 -24 -15.5 -39.5t-41.5 -15.5zM229 823
v58h284v-58h-284z" />
    <glyph glyph-name="uni022C" unicode="&#x22c;" horiz-adv-x="913" 
d="M456 -10q-82 0 -150 26.5t-119 75t-78.5 114t-27.5 142.5t27.5 142.5t78.5 114.5t119 75.5t150 26.5t150.5 -26.5t119 -75.5t78.5 -114.5t28 -142.5q0 -76 -28 -141.5t-78.5 -114.5t-119 -75.5t-150.5 -26.5zM456 67q64 0 118.5 20.5t94 58.5t61 89.5t21.5 112.5
q0 62 -21.5 113.5t-61 89.5t-94 59t-118.5 21t-118.5 -21t-94 -59.5t-60.5 -90t-21 -112.5t21 -112t60.5 -89.5t94 -59t118.5 -20.5zM528 774q-22 0 -44 8t-45 17q-14 6 -26 11t-23 5q-14 0 -24 -10.5t-10 -30.5h-61q0 47 29 74t67 27q22 0 42 -7.5t42 -17.5q12 -5 25.5 -10
t23.5 -5q14 0 24 10t9 29h61q0 -28 -11.5 -50.5t-31.5 -36t-47 -13.5zM303 936v60h307v-60h-307z" />
    <glyph glyph-name="uni022D" unicode="&#x22d;" horiz-adv-x="743" 
d="M372 -10q-88 0 -155.5 35t-106 97t-38.5 141q0 78 38.5 139.5t106 96.5t155.5 35q87 0 154.5 -35t106 -96.5t38.5 -139.5q0 -79 -38.5 -140.5t-106 -97t-154.5 -35.5zM372 61q63 0 113.5 26.5t79 72t28.5 103.5t-28.5 103.5t-79 71t-113.5 25.5q-64 0 -114.5 -26
t-79.5 -71t-28 -103q-1 -58 28 -103.5t80 -72t114 -26.5zM430 613q-21 0 -36.5 9t-35.5 27q-14 13 -23.5 19t-19.5 6q-17 0 -29 -14.5t-16 -43.5l-54 7q4 45 32 76.5t72 31.5q19 0 34 -8t35 -26q15 -12 24 -19t20 -7q15 0 25.5 14t13.5 38l55 -7q-2 -28 -14.5 -51.5
t-33.5 -37.5t-49 -14zM230 823v58h284v-58h-284z" />
    <glyph glyph-name="uni0230" unicode="&#x230;" horiz-adv-x="913" 
d="M456 -10q-82 0 -150 26.5t-119 75t-78.5 114t-27.5 142.5t27.5 142.5t78.5 114.5t119 75.5t150 26.5t150.5 -26.5t119 -75.5t78.5 -114.5t28 -142.5q0 -76 -28 -141.5t-78.5 -114.5t-119 -75.5t-150.5 -26.5zM456 67q64 0 118.5 20.5t94 58.5t61 89.5t21.5 112.5
q0 62 -21.5 113.5t-61 89.5t-94 59t-118.5 21t-118.5 -21t-94 -59.5t-60.5 -90t-21 -112.5t21 -112t60.5 -89.5t94 -59t118.5 -20.5zM457 769q-28 0 -42.5 15t-14.5 40q0 22 14.5 38.5t42.5 16.5t42.5 -15t14.5 -40q0 -22 -14.5 -38.5t-42.5 -16.5zM303 936v60h307v-60h-307
z" />
    <glyph glyph-name="uni0231" unicode="&#x231;" horiz-adv-x="743" 
d="M372 -10q-88 0 -155.5 35t-106 97t-38.5 141q0 78 38.5 139.5t106 96.5t155.5 35q87 0 154.5 -35t106 -96.5t38.5 -139.5q0 -79 -38.5 -140.5t-106 -97t-154.5 -35.5zM372 61q63 0 113.5 26.5t79 72t28.5 103.5t-28.5 103.5t-79 71t-113.5 25.5q-64 0 -114.5 -26
t-79.5 -71t-28 -103q-1 -58 28 -103.5t80 -72t114 -26.5zM372 637q-27 0 -42 14.5t-15 40.5q0 24 15 39t42 15t42 -14.5t15 -39.5t-15 -40t-42 -15zM230 823v58h284v-58h-284z" />
    <glyph glyph-name="uni0232" unicode="&#x232;" horiz-adv-x="765" 
d="M354 0v331l10 -54l-318 423h100l258 -349l-19 1l241 348h93l-300 -424l12 63v-339h-77zM229 794v60h307v-60h-307z" />
    <glyph glyph-name="uni0233" unicode="&#x233;" horiz-adv-x="694" 
d="M218 -230l115 246l7 -70l-291 576h85l185 -372q18 -33 31 -63t21 -57l-25 6q10 23 21 49t23 55l170 382h86l-242 -521l-106 -231h-80zM205 643v58h284v-58h-284z" />
    <glyph glyph-name="uni0237" unicode="&#x237;" horiz-adv-x="385" 
d="M63 -196l-29 64q52 1 84 20.5t47.5 57.5t15.5 92v484h76v-506q0 -65 -25.5 -112t-68.5 -73.5t-100 -26.5z" />
    <glyph glyph-name="uni0259" unicode="&#x259;" horiz-adv-x="699" 
d="M340 -12q-78 0 -138 32t-94 89t-34 131l1 40h495l11 -64h-449l19 14v-24q3 -37 26.5 -70.5t65.5 -54.5t97 -21q62 0 110.5 21.5t76 65.5t27.5 111q0 62 -29 107.5t-81.5 70t-125.5 24.5q-54 0 -97 -14.5t-88 -47.5l-35 56q27 23 62.5 40.5t78.5 27.5t91 10q89 0 157 -34
t106 -94.5t38 -140.5q0 -62 -22 -112t-61.5 -87t-93 -56.5t-114.5 -19.5z" />
    <glyph glyph-name="uni0272" unicode="&#x272;" horiz-adv-x="786" 
d="M56 -196l-29 64q35 0 62.5 6.5t46.5 22t28.5 40.5t9.5 63v522h75l3 -143l-13 23q15 35 46.5 64.5t74.5 48t92 18.5q67 0 112.5 -26t68 -75t22.5 -119v-313h-75v305q0 52 -18.5 87t-51.5 53t-79 18q-39 0 -72 -14t-58 -37t-38 -51t-13 -58v-341q0 -48 -24.5 -83.5
t-67.5 -55t-102 -19.5z" />
    <glyph glyph-name="uni02BB" unicode="&#x2bb;" horiz-adv-x="279" 
d="M166 483q-25 0 -46 13t-32.5 36.5t-11.5 54.5q0 26 9.5 49.5t27 45t41.5 39.5t53 32l30 -39q-36 -20 -57 -41.5t-21 -41.5q0 -14 7 -24.5t22 -21.5t25.5 -23t10.5 -28q0 -24 -16.5 -37.5t-41.5 -13.5z" />
    <glyph glyph-name="uni02BC" unicode="&#x2bc;" horiz-adv-x="265" 
d="M73 434l24 266h96l-73 -266h-47z" />
    <glyph glyph-name="uni02BE" unicode="&#x2be;" horiz-adv-x="218" 
d="M58 535v49q24 0 40.5 15.5t16.5 37.5q0 25 -17 39t-40 14l1 50q28 0 52.5 -14t39 -37.5t14.5 -51.5q0 -27 -15 -50.5t-39 -37.5t-53 -14z" />
    <glyph glyph-name="uni02BF" unicode="&#x2bf;" horiz-adv-x="232" 
d="M151 535q-25 0 -50 13t-41 36t-16 53q0 28 14.5 51.5t39 37.5t52.5 14l1 -50q-22 0 -39 -13t-17 -40q0 -22 16 -37.5t40 -15.5v-49z" />
    <glyph glyph-name="circumflex" unicode="&#x2c6;" horiz-adv-x="500" 
d="M134 608l-33 28l112 107h74l112 -107l-33 -28l-131 85h30z" />
    <glyph glyph-name="caron" unicode="&#x2c7;" horiz-adv-x="500" 
d="M213 606l-107 107l33 29l126 -85h-30l126 85l33 -29l-107 -107h-74z" />
    <glyph glyph-name="uni02C8" unicode="&#x2c8;" horiz-adv-x="231" 
d="M80 368v344h71v-344h-71z" />
    <glyph glyph-name="uni02CC" unicode="&#x2cc;" horiz-adv-x="230" 
d="M79 -147v344h73v-344h-73z" />
    <glyph glyph-name="breve" unicode="&#x2d8;" horiz-adv-x="382" 
d="M250 595q-59 0 -99 38.5t-53 104.5l58 8q12 -42 37 -66t57 -24t57 24t37 66l58 -8q-13 -66 -53 -104.5t-99 -38.5z" />
    <glyph glyph-name="dotaccent" unicode="&#x2d9;" horiz-adv-x="500" 
d="M250 640q-27 0 -42 14.5t-15 40.5q0 24 15 39t42 15t42 -14.5t15 -39.5t-15 -40t-42 -15z" />
    <glyph glyph-name="ring" unicode="&#x2da;" horiz-adv-x="500" 
d="M250 597q-27 0 -51.5 14t-39.5 37.5t-15 50.5q0 29 14.5 52t39 37.5t52.5 14.5q29 0 53.5 -14.5t39 -37.5t14.5 -52q0 -27 -14.5 -50.5t-39 -37.5t-53.5 -14zM250 645q24 0 41 16t17 38q0 25 -17 40t-41 15q-25 0 -41 -15.5t-16 -39.5q0 -22 17 -38t40 -16z" />
    <glyph glyph-name="ogonek" unicode="&#x2db;" horiz-adv-x="500" 
d="M247 -211q-26 0 -49 12.5t-37 34t-14 48.5t12 50t32 41t48 33.5t59 27.5l32 -36q-32 -12 -58.5 -28.5t-41.5 -36.5t-15 -43q0 -19 12 -31.5t31 -12.5q15 0 27.5 8t23.5 23l44 -32q-8 -16 -23.5 -29t-35.5 -21t-47 -8z" />
    <glyph glyph-name="tilde" unicode="&#x2dc;" horiz-adv-x="500" 
d="M309 616q-21 0 -36.5 9t-35.5 27q-14 13 -23.5 19t-19.5 6q-17 0 -29 -14.5t-16 -43.5l-54 7q4 45 32 76.5t72 31.5q19 0 34 -8t35 -26q15 -12 24 -19t20 -7q15 0 25.5 14t13.5 38l55 -7q-2 -28 -14.5 -51.5t-33.5 -37.5t-49 -14z" />
    <glyph glyph-name="hungarumlaut" unicode="&#x2dd;" horiz-adv-x="500" 
d="M269 602l-27 41l142 119l49 -63zM95 602l-27 41l143 119l48 -63z" />
    <glyph glyph-name="gravecomb" unicode="&#x300;" 
d="M318 602l-163 97l48 63l143 -119z" />
    <glyph glyph-name="acutecomb" unicode="&#x301;" 
d="M182 602l-27 41l142 119l49 -63z" />
    <glyph glyph-name="uni0302" unicode="&#x302;" 
d="M134 608l-33 28l112 107h74l112 -107l-33 -28l-131 85h30z" />
    <glyph glyph-name="tildecomb" unicode="&#x303;" 
d="M309 616q-21 0 -36.5 9t-35.5 27q-14 13 -23.5 19t-19.5 6q-17 0 -29 -14.5t-16 -43.5l-54 7q4 45 32 76.5t72 31.5q19 0 34 -8t35 -26q15 -12 24 -19t20 -7q15 0 25.5 14t13.5 38l55 -7q-2 -28 -14.5 -51.5t-33.5 -37.5t-49 -14z" />
    <glyph glyph-name="uni0304" unicode="&#x304;" 
d="M108 646v58h284v-58h-284z" />
    <glyph glyph-name="uni0306" unicode="&#x306;" 
d="M250 595q-59 0 -99 38.5t-53 104.5l58 8q12 -42 37 -66t57 -24t57 24t37 66l58 -8q-13 -66 -53 -104.5t-99 -38.5z" />
    <glyph glyph-name="uni0307" unicode="&#x307;" 
d="M250 640q-27 0 -42 14.5t-15 40.5q0 24 15 39t42 15t42 -14.5t15 -39.5t-15 -40t-42 -15z" />
    <glyph glyph-name="uni0308" unicode="&#x308;" 
d="M348 636q-27 0 -42 14.5t-15 39.5t15 40t42 15t42 -14.5t15 -40.5q0 -24 -15 -39t-42 -15zM153 635q-28 0 -43 14.5t-15 40.5q0 24 15.5 39.5t42.5 15.5t42 -14.5t15 -40.5q0 -24 -15.5 -39.5t-41.5 -15.5z" />
    <glyph glyph-name="hookabovecomb" unicode="&#x309;" 
d="M234 599q-5 8 -8 16.5t-3 15.5q0 8 5 18t21 21t24.5 18t8.5 15q0 11 -11.5 16t-28.5 5q-15 0 -34 -4.5t-37 -12.5l-15 50q22 11 46.5 16.5t44.5 5.5q49 0 73 -21t24 -49q0 -23 -12 -36t-26 -21t-22 -14t-8 -17q0 -2 0.5 -4.5t1.5 -6.5z" />
    <glyph glyph-name="uni030A" unicode="&#x30a;" 
d="M250 597q-27 0 -51.5 14t-39.5 37.5t-15 50.5q0 29 14.5 52t39 37.5t52.5 14.5q29 0 53.5 -14.5t39 -37.5t14.5 -52q0 -27 -14.5 -50.5t-39 -37.5t-53.5 -14zM250 645q24 0 41 16t17 38q0 25 -17 40t-41 15q-25 0 -41 -15.5t-16 -39.5q0 -22 17 -38t40 -16z" />
    <glyph glyph-name="uni030B" unicode="&#x30b;" 
d="M269 602l-27 41l142 119l49 -63zM95 602l-27 41l143 119l48 -63z" />
    <glyph glyph-name="uni030C" unicode="&#x30c;" 
d="M213 606l-107 107l33 29l126 -85h-30l126 85l33 -29l-107 -107h-74z" />
    <glyph glyph-name="uni030F" unicode="&#x30f;" 
d="M406 602l-164 97l48 63l143 -119zM232 602l-164 97l49 63l142 -119z" />
    <glyph glyph-name="uni0311" unicode="&#x311;" 
d="M156 605l-58 9q13 65 53 103.5t99 38.5t99 -38.5t53 -103.5l-58 -9q-12 42 -37 66.5t-57 24.5t-57 -24.5t-37 -66.5z" />
    <glyph glyph-name="uni0312" unicode="&#x312;" 
d="M257 607q-27 0 -47.5 17t-20.5 51q0 22 9 38.5t24 30t32.5 24t34.5 18.5l22 -33q-14 -6 -25.5 -14t-18 -17t-6.5 -19t6.5 -14t14.5 -7q10 -3 17.5 -11t7.5 -24q0 -19 -14.5 -29.5t-35.5 -10.5z" />
    <glyph glyph-name="uni031B" unicode="&#x31b;" 
d="M168 457l1 54q53 0 75.5 26.5t22.5 82.5h64q0 -47 -16.5 -84.5t-52.5 -58t-94 -20.5z" />
    <glyph glyph-name="dotbelowcomb" unicode="&#x323;" 
d="M250 -185q-28 0 -42.5 15t-14.5 39q0 23 14.5 39t42.5 16t42.5 -15t14.5 -40q0 -22 -14.5 -38t-42.5 -16z" />
    <glyph glyph-name="uni0324" unicode="&#x324;" 
d="M348 -185q-27 0 -42 14.5t-15 39.5t15 40t42 15t42 -14.5t15 -40.5q0 -24 -15 -39t-42 -15zM153 -186q-28 0 -43 14.5t-15 40.5q0 24 15.5 39t42.5 15t42 -14t15 -40q0 -25 -15.5 -40t-41.5 -15z" />
    <glyph glyph-name="uni0326" unicode="&#x326;" 
d="M211 -206l-22 33q15 7 26.5 15t17.5 17t6 18q0 10 -5.5 14t-15.5 7q-11 4 -18 12.5t-7 22.5q0 19 14.5 30t35.5 11q29 0 48.5 -18t19.5 -51q0 -20 -8 -36.5t-22 -29.5t-32 -24.5t-38 -20.5z" />
    <glyph glyph-name="uni0327" unicode="&#x327;" 
d="M167 -237l-7 42q29 1 56 7.5t44.5 18.5t17.5 28q0 15 -15.5 24.5t-37.5 14t-41 4.5l-12 14l65 99h51l-43 -68q44 -9 70 -29t26 -55q0 -26 -16 -46t-42 -31.5t-56 -17t-60 -5.5z" />
    <glyph glyph-name="uni0328" unicode="&#x328;" 
d="M247 -211q-26 0 -49 12.5t-37 34t-14 48.5t12 50t32 41t48 33.5t59 27.5l32 -36q-32 -12 -58.5 -28.5t-41.5 -36.5t-15 -43q0 -19 12 -31.5t31 -12.5q15 0 27.5 8t23.5 23l44 -32q-8 -16 -23.5 -29t-35.5 -21t-47 -8z" />
    <glyph glyph-name="uni032E" unicode="&#x32e;" 
d="M250 -216q-57 0 -98 38.5t-54 103.5l58 9q11 -40 36 -65.5t58 -25.5t58 25.5t36 65.5l58 -9q-13 -65 -54 -103.5t-98 -38.5z" />
    <glyph glyph-name="uni0331" unicode="&#x331;" 
d="M112 -161v61h277v-61h-277z" />
    <glyph glyph-name="uni0335" unicode="&#x335;" 
d="M88 267v65h324v-65h-324z" />
    <glyph glyph-name="uni0394" unicode="&#x394;" horiz-adv-x="765" 
d="M42 0l369 719l372 -719h-741zM147 45l-22 26h578l-26 -28l-275 536h20z" />
    <glyph glyph-name="uni03A9" unicode="&#x3a9;" horiz-adv-x="768" 
d="M63 0v76h216l-20 -36q-53 51 -95 110t-66.5 121t-24.5 125q0 67 26 124.5t72 99t108.5 64.5t134.5 23q74 0 136 -23t108 -65t71.5 -99t25.5 -124q0 -64 -24.5 -126.5t-66.5 -121t-95 -108.5l-18 36h214v-76h-266v56q17 18 31 35.5t27 33.5t26 33q26 32 47 68.5t33 78.5
t12 90q0 51 -19.5 95t-55 74.5t-83 48t-103.5 17.5q-55 0 -103 -17t-83 -48t-55 -75t-20 -95q0 -40 7.5 -73.5t22 -64.5t34.5 -64q12 -18 26 -37t29.5 -37.5t30 -35t24.5 -27.5v-56h-264z" />
    <glyph glyph-name="uni03BC" unicode="&#x3bc;" horiz-adv-x="631" 
d="M107 -157v679h78v-300q0 -51 15.5 -87t47.5 -54t79 -18q40 0 74 13.5t59 35.5t39 49.5t14 56.5v304h78v-522h-77l-2 118l17 9q-19 -41 -49.5 -72t-70.5 -47.5t-87 -16.5q-33 0 -62.5 10t-52.5 29t-36 44l13 10l1 -241h-78z" />
    <glyph glyph-name="pi" unicode="&#x3c0;" horiz-adv-x="766" 
d="M174 0v494l17 -43h-119v73h622v-73h-115l13 25v-476h-70v476l12 -25h-303l13 13v-464h-70z" />
    <glyph glyph-name="uni1E08" unicode="&#x1e08;" horiz-adv-x="797" 
d="M454 -10q-80 0 -148 26.5t-119 75t-78.5 114t-27.5 144.5q0 77 28 141.5t78.5 112.5t118 74.5t145.5 26.5q55 0 108 -16t97.5 -42.5t72.5 -59.5l-51 -62q-28 32 -64.5 54.5t-78.5 35.5t-87 13q-59 0 -112 -20t-91.5 -57.5t-60.5 -88.5t-22 -112q0 -63 22.5 -115.5
t63 -89.5t94.5 -57.5t118 -20.5q46 0 87.5 12.5t75 33t57.5 46.5l39 -66q-25 -27 -67 -50.5t-93.5 -38t-104.5 -14.5zM354 -237l-7 42q30 1 56.5 7.5t44 18.5t17.5 28q0 15 -15.5 24.5t-37 14t-42.5 4.5l-10 14l64 99h51l-43 -68q44 -9 70 -29t26 -55q0 -26 -15.5 -46
t-41.5 -31.5t-56.5 -17t-60.5 -5.5zM384 757l-23 42l167 105l41 -70z" />
    <glyph glyph-name="uni1E09" unicode="&#x1e09;" horiz-adv-x="664" 
d="M357 -10q-82 0 -146 35.5t-101.5 97t-37.5 139.5t37.5 139.5t101.5 97t147 35.5q75 0 138.5 -26.5t103.5 -72.5l-44 -58q-23 25 -54.5 44.5t-68.5 30.5t-76 11q-59 0 -106.5 -26t-74.5 -71.5t-27 -103.5t28 -103.5t75 -71.5t104 -26q42 0 78 10t66.5 28t54.5 40l43 -57
q-43 -40 -105.5 -66t-135.5 -26zM262 -237l-7 42q29 1 56 7.5t44.5 18.5t17.5 28q0 15 -15.5 24.5t-37.5 14t-41 4.5l-12 14l65 99h51l-43 -68q44 -9 70 -29t26 -55q0 -26 -16 -46t-42 -31.5t-56 -17t-60 -5.5zM297 599l-27 41l142 119l49 -63z" />
    <glyph glyph-name="uni1E0C" unicode="&#x1e0c;" horiz-adv-x="867" 
d="M137 0v700h296q80 0 144.5 -26t111.5 -73.5t72 -111t25 -139.5t-25 -140t-71.5 -111t-111.5 -73t-145 -26h-296zM215 62l-9 14h222q63 0 114.5 20.5t87 57t55 86t19.5 110.5q0 60 -19.5 110t-55.5 86.5t-87 57t-114 20.5h-225l12 12v-574zM435 -185q-28 0 -42.5 15
t-14.5 39q0 23 14.5 39t42.5 16t42.5 -15t14.5 -40q0 -22 -14.5 -38t-42.5 -16z" />
    <glyph glyph-name="uni1E0D" unicode="&#x1e0d;" horiz-adv-x="757" 
d="M341 -10q-79 0 -140.5 35.5t-96.5 97t-35 139.5q0 79 35.5 140.5t97.5 96.5t141 35q46 0 86.5 -12t73 -33.5t53.5 -49.5t28 -59l-24 8v352h75v-740h-74l-2 137l20 5q-6 -30 -27.5 -57t-53.5 -48.5t-72.5 -34t-84.5 -12.5zM354 60q61 0 108.5 26.5t74.5 72t27 104.5
q0 57 -26.5 102.5t-74 71.5t-109.5 26q-60 0 -106.5 -26t-73.5 -71t-27 -103t27 -104t73.5 -72.5t106.5 -26.5zM371 -185q-28 0 -42.5 15t-14.5 39q0 23 14.5 39t42.5 16t42.5 -15t14.5 -40q0 -22 -14.5 -38t-42.5 -16z" />
    <glyph glyph-name="uni1E0E" unicode="&#x1e0e;" horiz-adv-x="867" 
d="M137 0v700h296q80 0 144.5 -26t111.5 -73.5t72 -111t25 -139.5t-25 -140t-71.5 -111t-111.5 -73t-145 -26h-296zM215 62l-9 14h222q63 0 114.5 20.5t87 57t55 86t19.5 110.5q0 60 -19.5 110t-55.5 86.5t-87 57t-114 20.5h-225l12 12v-574zM296 -161v61h277v-61h-277z" />
    <glyph glyph-name="uni1E0F" unicode="&#x1e0f;" horiz-adv-x="757" 
d="M341 -10q-79 0 -140.5 35.5t-96.5 97t-35 139.5q0 79 35.5 140.5t97.5 96.5t141 35q46 0 86.5 -12t73 -33.5t53.5 -49.5t28 -59l-24 8v352h75v-740h-74l-2 137l20 5q-6 -30 -27.5 -57t-53.5 -48.5t-72.5 -34t-84.5 -12.5zM354 60q61 0 108.5 26.5t74.5 72t27 104.5
q0 57 -26.5 102.5t-74 71.5t-109.5 26q-60 0 -106.5 -26t-73.5 -71t-27 -103t27 -104t73.5 -72.5t106.5 -26.5zM232 -161v61h277v-61h-277z" />
    <glyph glyph-name="uni1E14" unicode="&#x1e14;" horiz-adv-x="723" 
d="M137 0v700h480v-76h-402v-548h400v-76h-478zM176 322v76h385v-76h-385zM233 794v60h307v-60h-307zM458 899l-184 77l41 70l167 -105z" />
    <glyph glyph-name="uni1E15" unicode="&#x1e15;" horiz-adv-x="700" 
d="M368 -10q-87 0 -155.5 34t-106.5 95t-38 140q0 63 22 112.5t61.5 86.5t93 57t114.5 20q59 0 108 -18.5t85 -52.5t55 -80t17 -102l-1 -39h-494l-11 63h448l-18 -13v24q-2 36 -26 69.5t-66 55t-97 21.5q-62 0 -110.5 -21.5t-76 -65.5t-27.5 -112q0 -62 29 -107t81.5 -70
t125.5 -25q54 0 97 15t87 47l36 -56q-26 -21 -62 -39t-79 -28.5t-92 -10.5zM376 728l-104 117l60 44l85 -133zM220 633v58h278v-58h-278z" />
    <glyph glyph-name="uni1E16" unicode="&#x1e16;" horiz-adv-x="723" 
d="M137 0v700h480v-76h-402v-548h400v-76h-478zM176 322v76h385v-76h-385zM233 794v60h307v-60h-307zM320 899l-23 42l167 105l41 -70z" />
    <glyph glyph-name="uni1E17" unicode="&#x1e17;" horiz-adv-x="700" 
d="M368 -10q-87 0 -155.5 34t-106.5 95t-38 140q0 63 22 112.5t61.5 86.5t93 57t114.5 20q59 0 108 -18.5t85 -52.5t55 -80t17 -102l-1 -39h-494l-11 63h448l-18 -13v24q-2 36 -26 69.5t-66 55t-97 21.5q-62 0 -110.5 -21.5t-76 -65.5t-27.5 -112q0 -62 29 -107t81.5 -70
t125.5 -25q54 0 97 15t87 47l36 -56q-26 -21 -62 -39t-79 -28.5t-92 -10.5zM220 633v58h278v-58h-278zM358 728l-41 28l85 133l60 -44z" />
    <glyph glyph-name="uni1E1C" unicode="&#x1e1c;" horiz-adv-x="723" 
d="M137 0v700h480v-76h-402v-548h400v-76h-478zM176 322v76h385v-76h-385zM273 -237l-7 42q30 1 56.5 7.5t44 18.5t17.5 28q0 15 -15.5 24.5t-37 14t-42.5 4.5l-10 14l64 99h51l-43 -68q44 -9 70 -29t26 -55q0 -26 -15.5 -46t-41.5 -31.5t-56.5 -17t-60.5 -5.5zM387 756
q-38 0 -69.5 17t-52.5 45.5t-30 65.5l58 8q11 -37 36 -56.5t58 -19.5t58 19.5t36 56.5l58 -8q-8 -37 -29.5 -65.5t-52.5 -45.5t-70 -17z" />
    <glyph glyph-name="uni1E1D" unicode="&#x1e1d;" horiz-adv-x="700" 
d="M368 -10q-87 0 -155.5 34t-106.5 95t-38 140q0 63 22 112.5t61.5 86.5t93 57t114.5 20q59 0 108 -18.5t85 -52.5t55 -80t17 -102l-1 -39h-494l-11 63h448l-18 -13v24q-2 36 -26 69.5t-66 55t-97 21.5q-62 0 -110.5 -21.5t-76 -65.5t-27.5 -112q0 -62 29 -107t81.5 -70
t125.5 -25q54 0 97 15t87 47l36 -56q-26 -21 -62 -39t-79 -28.5t-92 -10.5zM275 -237l-7 42q29 1 56 7.5t44.5 18.5t17.5 28q0 15 -15.5 24.5t-37.5 14t-41 4.5l-12 14l65 99h51l-43 -68q44 -9 70 -29t26 -55q0 -26 -16 -46t-42 -31.5t-56 -17t-60 -5.5zM359 592
q-59 0 -99 38.5t-53 104.5l58 8q12 -42 37 -66t57 -24t57 24t37 66l58 -8q-13 -66 -53 -104.5t-99 -38.5z" />
    <glyph glyph-name="uni1E20" unicode="&#x1e20;" horiz-adv-x="890" 
d="M470 -10q-82 0 -152.5 25.5t-123.5 73t-83 114t-30 146.5q0 76 29.5 141t82 113.5t123.5 75t153 26.5q60 0 115.5 -15.5t101 -41.5t71.5 -59l-50 -55q-30 28 -68.5 49t-82 33.5t-86.5 12.5q-65 0 -121 -21t-98 -58.5t-65 -89t-23 -111.5q0 -64 23.5 -115.5t67 -89
t99.5 -57.5t121 -20q54 0 102.5 14.5t84.5 40.5t56 60.5t19 73.5v31l18 -23h-282v77h344q1 -9 2 -18.5t1.5 -19t0.5 -16.5q0 -66 -27 -120t-74.5 -93.5t-111 -61.5t-137.5 -22zM313 794v60h307v-60h-307z" />
    <glyph glyph-name="uni1E21" unicode="&#x1e21;" horiz-adv-x="768" 
d="M372 -230q-70 0 -125.5 18.5t-92.5 44.5l30 65q21 -15 50 -28t64.5 -21.5t75.5 -8.5q59 0 103 22.5t68 67.5t24 113v87l13 3q-12 -39 -46.5 -71.5t-84.5 -51.5t-107 -19q-79 0 -140 35t-96.5 96.5t-35.5 139.5q0 79 36.5 140t98.5 96.5t141 35.5q31 0 62.5 -7t60.5 -20
t53 -31t41 -40.5t23 -46.5l-21 3l2 130h76v-474q0 -70 -21 -121.5t-58 -86.5t-87 -52.5t-107 -17.5zM361 62q62 0 109.5 26t74.5 71t27 103q-1 59 -28 104.5t-74.5 71t-108.5 25.5t-108.5 -26t-75 -71.5t-27.5 -102.5q0 -58 27 -103.5t74.5 -71.5t109.5 -26zM236 643v58h284
v-58h-284z" />
    <glyph glyph-name="uni1E24" unicode="&#x1e24;" horiz-adv-x="875" 
d="M661 0v700h78v-700h-78zM137 0v700h78v-700h-78zM175 309v76h519v-76h-519zM438 -185q-28 0 -42.5 15t-14.5 39q0 23 14.5 39t42.5 16t42.5 -15t14.5 -40q0 -22 -14.5 -38t-42.5 -16z" />
    <glyph glyph-name="uni1E25" unicode="&#x1e25;" horiz-adv-x="744" 
d="M132 0v740h75v-348l-21 -13q11 42 44.5 77.5t81 56.5t97.5 21q68 0 113.5 -26.5t68 -75.5t22.5 -119v-313h-76v305q0 52 -18 87.5t-51.5 54t-79.5 17.5q-39 0 -72 -14t-57.5 -37t-38 -51.5t-13.5 -58.5v-303h-37h-21h-17zM370 -185q-28 0 -42.5 15t-14.5 39q0 23 14.5 39
t42.5 16t42.5 -15t14.5 -40q0 -22 -14.5 -38t-42.5 -16z" />
    <glyph glyph-name="uni1E2A" unicode="&#x1e2a;" horiz-adv-x="875" 
d="M661 0v700h78v-700h-78zM137 0v700h78v-700h-78zM175 309v76h519v-76h-519zM438 -216q-57 0 -98 38.5t-54 103.5l58 9q11 -40 36 -65.5t58 -25.5t58 25.5t36 65.5l58 -9q-13 -65 -54 -103.5t-98 -38.5z" />
    <glyph glyph-name="uni1E2B" unicode="&#x1e2b;" horiz-adv-x="744" 
d="M132 0v740h75v-348l-21 -13q11 42 44.5 77.5t81 56.5t97.5 21q68 0 113.5 -26.5t68 -75.5t22.5 -119v-313h-76v305q0 52 -18 87.5t-51.5 54t-79.5 17.5q-39 0 -72 -14t-57.5 -37t-38 -51.5t-13.5 -58.5v-303h-37h-21h-17zM370 -216q-57 0 -98 38.5t-54 103.5l58 9
q11 -40 36 -65.5t58 -25.5t58 25.5t36 65.5l58 -9q-13 -65 -54 -103.5t-98 -38.5z" />
    <glyph glyph-name="uni1E2E" unicode="&#x1e2e;" horiz-adv-x="594" 
d="M117 0v76h141v548h-141v76h360v-76h-141v-548h141v-76h-360zM236 904l-23 42l167 106l40 -71zM196 769q-29 0 -43.5 15t-14.5 40q0 22 14.5 38.5t43.5 16.5q28 0 42.5 -15t14.5 -40q0 -22 -14.5 -38.5t-42.5 -16.5zM398 769q-28 0 -42.5 15t-14.5 40q0 22 14.5 38.5
t42.5 16.5q29 0 43.5 -15t14.5 -40q0 -22 -14.5 -38.5t-43.5 -16.5z" />
    <glyph glyph-name="uni1E2F" unicode="&#x1e2f;" horiz-adv-x="325" 
d="M124 0v522h76v-522h-76zM64 624q-27 0 -42 14.5t-15 39.5t15 40t42 15t42 -14.5t15 -40.5q0 -24 -15 -39t-42 -15zM259 624q-27 0 -42 14.5t-15 40.5q0 24 15.5 39.5t41.5 15.5q28 0 43 -14.5t15 -40.5q0 -24 -15.5 -39.5t-42.5 -15.5zM165 750l-41 27l70 140l75 -50z
" />
    <glyph glyph-name="uni1E36" unicode="&#x1e36;" horiz-adv-x="681" 
d="M137 0v700h78v-624h392v-76h-470zM343 -185q-28 0 -42.5 15t-14.5 39q0 23 14.5 39t42.5 16t42.5 -15t14.5 -40q0 -22 -14.5 -38t-42.5 -16z" />
    <glyph glyph-name="uni1E37" unicode="&#x1e37;" horiz-adv-x="328" 
d="M126 0v740h75v-740h-75zM164 -185q-28 0 -42.5 15t-14.5 39q0 23 14.5 39t42.5 16t42.5 -15t14.5 -40q0 -22 -14.5 -38t-42.5 -16z" />
    <glyph glyph-name="uni1E3A" unicode="&#x1e3a;" horiz-adv-x="681" 
d="M137 0v700h78v-624h392v-76h-470zM204 -161v61h277v-61h-277z" />
    <glyph glyph-name="uni1E3B" unicode="&#x1e3b;" horiz-adv-x="328" 
d="M126 0v740h75v-740h-75zM25 -161v61h277v-61h-277z" />
    <glyph glyph-name="uni1E42" unicode="&#x1e42;" horiz-adv-x="983" 
d="M137 0v700h77l294 -431l-33 1l298 430h73v-700h-78v323q0 87 3 159.5t11 145.5l13 -29l-279 -394h-53l-273 392l11 30q8 -69 11 -140t3 -164v-323h-78zM491 -185q-28 0 -42.5 15t-14.5 39q0 23 14.5 39t42.5 16t42.5 -15t14.5 -40q0 -22 -14.5 -38t-42.5 -16z" />
    <glyph glyph-name="uni1E43" unicode="&#x1e43;" horiz-adv-x="1113" 
d="M124 0v522h75l2 -133h-20q8 29 29 54.5t51 46t66.5 32t78.5 11.5q47 0 84.5 -15t63 -50.5t37.5 -92.5l-23 11l5 16q12 23 33 46t50.5 42t65 31t75.5 12q65 0 108 -26.5t64 -76t21 -119.5v-311h-76v303q0 52 -15 87t-45 53.5t-75 18.5q-39 0 -73 -13t-59 -36.5t-39 -53
t-14 -62.5v-297h-76v304q0 51 -16 86t-47.5 53.5t-77.5 18.5q-39 0 -71 -13.5t-56 -36.5t-37 -51.5t-13 -58.5v-302h-76zM556 -185q-28 0 -42.5 15t-14.5 39q0 23 14.5 39t42.5 16t42.5 -15t14.5 -40q0 -22 -14.5 -38t-42.5 -16z" />
    <glyph glyph-name="uni1E44" unicode="&#x1e44;" horiz-adv-x="918" 
d="M137 0v700h74l516 -608l-11 -18q-4 19 -5.5 54t-3 77.5t-2.5 87t-1 84v66.5v257h78v-700h-77l-512 598l8 21q2 -29 3.5 -63t4 -69.5t4 -68.5t2 -59t0.5 -41v-318h-78zM460 769q-28 0 -42.5 15t-14.5 40q0 22 14.5 38.5t42.5 16.5t42.5 -15t14.5 -40q0 -22 -14.5 -38.5
t-42.5 -16.5z" />
    <glyph glyph-name="uni1E45" unicode="&#x1e45;" horiz-adv-x="744" 
d="M132 0v522h74l3 -125l-18 -3q14 36 45.5 67.5t77 52t95.5 20.5q67 0 112.5 -26.5t68.5 -75.5t23 -119v-313h-76v305q0 52 -18 87t-51.5 53.5t-78.5 17.5q-40 0 -73 -14t-57.5 -36.5t-38 -51t-13.5 -58.5v-303h-37h-19.5h-18.5zM398 637q-27 0 -42 14.5t-15 40.5
q0 24 15 39t42 15t42 -14.5t15 -39.5t-15 -40t-42 -15z" />
    <glyph glyph-name="uni1E46" unicode="&#x1e46;" horiz-adv-x="918" 
d="M137 0v700h74l516 -608l-11 -18q-4 19 -5.5 54t-3 77.5t-2.5 87t-1 84v66.5v257h78v-700h-77l-512 598l8 21q2 -29 3.5 -63t4 -69.5t4 -68.5t2 -59t0.5 -41v-318h-78zM460 -185q-28 0 -42.5 15t-14.5 39q0 23 14.5 39t42.5 16t42.5 -15t14.5 -40q0 -22 -14.5 -38
t-42.5 -16z" />
    <glyph glyph-name="uni1E47" unicode="&#x1e47;" horiz-adv-x="744" 
d="M132 0v522h74l3 -125l-18 -3q14 36 45.5 67.5t77 52t95.5 20.5q67 0 112.5 -26.5t68.5 -75.5t23 -119v-313h-76v305q0 52 -18 87t-51.5 53.5t-78.5 17.5q-40 0 -73 -14t-57.5 -36.5t-38 -51t-13.5 -58.5v-303h-37h-19.5h-18.5zM371 -185q-28 0 -42.5 15t-14.5 39
q0 23 14.5 39t42.5 16t42.5 -15t14.5 -40q0 -22 -14.5 -38t-42.5 -16z" />
    <glyph glyph-name="uni1E48" unicode="&#x1e48;" horiz-adv-x="918" 
d="M137 0v700h74l516 -608l-11 -18q-4 19 -5.5 54t-3 77.5t-2.5 87t-1 84v66.5v257h78v-700h-77l-512 598l8 21q2 -29 3.5 -63t4 -69.5t4 -68.5t2 -59t0.5 -41v-318h-78zM321 -161v61h277v-61h-277z" />
    <glyph glyph-name="uni1E49" unicode="&#x1e49;" horiz-adv-x="744" 
d="M132 0v522h74l3 -125l-18 -3q14 36 45.5 67.5t77 52t95.5 20.5q67 0 112.5 -26.5t68.5 -75.5t23 -119v-313h-76v305q0 52 -18 87t-51.5 53.5t-78.5 17.5q-40 0 -73 -14t-57.5 -36.5t-38 -51t-13.5 -58.5v-303h-37h-19.5h-18.5zM233 -161v61h277v-61h-277z" />
    <glyph glyph-name="uni1E4C" unicode="&#x1e4c;" horiz-adv-x="913" 
d="M456 -10q-82 0 -150 26.5t-119 75t-78.5 114t-27.5 142.5t27.5 142.5t78.5 114.5t119 75.5t150 26.5t150.5 -26.5t119 -75.5t78.5 -114.5t28 -142.5q0 -76 -28 -141.5t-78.5 -114.5t-119 -75.5t-150.5 -26.5zM456 67q64 0 118.5 20.5t94 58.5t61 89.5t21.5 112.5
q0 62 -21.5 113.5t-61 89.5t-94 59t-118.5 21t-118.5 -21t-94 -59.5t-60.5 -90t-21 -112.5t21 -112t60.5 -89.5t94 -59t118.5 -20.5zM528 774q-22 0 -44 8t-45 17q-14 6 -26 11t-23 5q-14 0 -24 -10.5t-10 -30.5h-61q0 47 29 74t67 27q22 0 42 -7.5t42 -17.5q12 -5 25.5 -10
t23.5 -5q14 0 24 10t9 29h61q0 -28 -11.5 -50.5t-31.5 -36t-47 -13.5zM390 899l-23 42l167 105l41 -70z" />
    <glyph glyph-name="uni1E4D" unicode="&#x1e4d;" horiz-adv-x="743" 
d="M372 -10q-88 0 -155.5 35t-106 97t-38.5 141q0 78 38.5 139.5t106 96.5t155.5 35q87 0 154.5 -35t106 -96.5t38.5 -139.5q0 -79 -38.5 -140.5t-106 -97t-154.5 -35.5zM372 61q63 0 113.5 26.5t79 72t28.5 103.5t-28.5 103.5t-79 71t-113.5 25.5q-64 0 -114.5 -26
t-79.5 -71t-28 -103q-1 -58 28 -103.5t80 -72t114 -26.5zM431 613q-21 0 -36.5 9t-35.5 27q-14 13 -23.5 19t-19.5 6q-17 0 -29 -14.5t-16 -43.5l-54 7q4 45 32 76.5t72 31.5q19 0 34 -8t35 -26q15 -12 24 -19t20 -7q15 0 25.5 14t13.5 38l55 -7q-2 -28 -14.5 -51.5
t-33.5 -37.5t-49 -14zM385 748l-41 28l85 133l60 -44z" />
    <glyph glyph-name="uni1E4E" unicode="&#x1e4e;" horiz-adv-x="913" 
d="M456 -10q-82 0 -150 26.5t-119 75t-78.5 114t-27.5 142.5t27.5 142.5t78.5 114.5t119 75.5t150 26.5t150.5 -26.5t119 -75.5t78.5 -114.5t28 -142.5q0 -76 -28 -141.5t-78.5 -114.5t-119 -75.5t-150.5 -26.5zM456 67q64 0 118.5 20.5t94 58.5t61 89.5t21.5 112.5
q0 62 -21.5 113.5t-61 89.5t-94 59t-118.5 21t-118.5 -21t-94 -59.5t-60.5 -90t-21 -112.5t21 -112t60.5 -89.5t94 -59t118.5 -20.5zM528 774q-22 0 -44 8t-45 17q-14 6 -26 11t-23 5q-14 0 -24 -10.5t-10 -30.5h-61q0 47 29 74t67 27q22 0 42 -7.5t42 -17.5q12 -5 25.5 -10
t23.5 -5q14 0 24 10t9 29h61q0 -28 -11.5 -50.5t-31.5 -36t-47 -13.5zM558 911q-28 0 -42.5 15t-14.5 40q0 22 14.5 38.5t42.5 16.5q29 0 43.5 -15t14.5 -40q0 -22 -14.5 -38.5t-43.5 -16.5zM356 911q-29 0 -43.5 15t-14.5 40q0 22 14.5 38.5t43.5 16.5q28 0 42.5 -15
t14.5 -40q0 -22 -14.5 -38.5t-42.5 -16.5z" />
    <glyph glyph-name="uni1E4F" unicode="&#x1e4f;" horiz-adv-x="743" 
d="M372 -10q-88 0 -155.5 35t-106 97t-38.5 141q0 78 38.5 139.5t106 96.5t155.5 35q87 0 154.5 -35t106 -96.5t38.5 -139.5q0 -79 -38.5 -140.5t-106 -97t-154.5 -35.5zM372 61q63 0 113.5 26.5t79 72t28.5 103.5t-28.5 103.5t-79 71t-113.5 25.5q-64 0 -114.5 -26
t-79.5 -71t-28 -103q-1 -58 28 -103.5t80 -72t114 -26.5zM468 786q-27 0 -42 14.5t-15 40.5q0 24 15 39.5t42 15.5t42 -14.5t15 -40.5q0 -24 -15 -39.5t-42 -15.5zM273 786q-28 0 -43 14.5t-15 40.5q0 24 15.5 39t42.5 15t42 -14.5t15 -39.5t-15.5 -40t-41.5 -15zM429 613
q-21 0 -36.5 9t-35.5 27q-14 13 -23.5 19t-19.5 6q-17 0 -29 -14.5t-16 -43.5l-54 7q4 45 32 76.5t72 31.5q19 0 34 -8t35 -26q15 -12 24 -19t20 -7q15 0 25.5 14t13.5 38l55 -7q-2 -28 -14.5 -51.5t-33.5 -37.5t-49 -14z" />
    <glyph glyph-name="uni1E50" unicode="&#x1e50;" horiz-adv-x="913" 
d="M456 -10q-82 0 -150 26.5t-119 75t-78.5 114t-27.5 142.5t27.5 142.5t78.5 114.5t119 75.5t150 26.5t150.5 -26.5t119 -75.5t78.5 -114.5t28 -142.5q0 -76 -28 -141.5t-78.5 -114.5t-119 -75.5t-150.5 -26.5zM456 67q64 0 118.5 20.5t94 58.5t61 89.5t21.5 112.5
q0 62 -21.5 113.5t-61 89.5t-94 59t-118.5 21t-118.5 -21t-94 -59.5t-60.5 -90t-21 -112.5t21 -112t60.5 -89.5t94 -59t118.5 -20.5zM303 794v60h307v-60h-307zM527 899l-184 77l41 70l167 -105z" />
    <glyph glyph-name="uni1E51" unicode="&#x1e51;" horiz-adv-x="743" 
d="M372 -10q-88 0 -155.5 35t-106 97t-38.5 141q0 78 38.5 139.5t106 96.5t155.5 35q87 0 154.5 -35t106 -96.5t38.5 -139.5q0 -79 -38.5 -140.5t-106 -97t-154.5 -35.5zM372 61q63 0 113.5 26.5t79 72t28.5 103.5t-28.5 103.5t-79 71t-113.5 25.5q-64 0 -114.5 -26
t-79.5 -71t-28 -103q-1 -58 28 -103.5t80 -72t114 -26.5zM389 728l-104 117l60 44l85 -133zM233 633v58h278v-58h-278z" />
    <glyph glyph-name="uni1E52" unicode="&#x1e52;" horiz-adv-x="913" 
d="M456 -10q-82 0 -150 26.5t-119 75t-78.5 114t-27.5 142.5t27.5 142.5t78.5 114.5t119 75.5t150 26.5t150.5 -26.5t119 -75.5t78.5 -114.5t28 -142.5q0 -76 -28 -141.5t-78.5 -114.5t-119 -75.5t-150.5 -26.5zM456 67q64 0 118.5 20.5t94 58.5t61 89.5t21.5 112.5
q0 62 -21.5 113.5t-61 89.5t-94 59t-118.5 21t-118.5 -21t-94 -59.5t-60.5 -90t-21 -112.5t21 -112t60.5 -89.5t94 -59t118.5 -20.5zM303 794v60h307v-60h-307zM390 899l-23 42l167 105l41 -70z" />
    <glyph glyph-name="uni1E53" unicode="&#x1e53;" horiz-adv-x="743" 
d="M372 -10q-88 0 -155.5 35t-106 97t-38.5 141q0 78 38.5 139.5t106 96.5t155.5 35q87 0 154.5 -35t106 -96.5t38.5 -139.5q0 -79 -38.5 -140.5t-106 -97t-154.5 -35.5zM372 61q63 0 113.5 26.5t79 72t28.5 103.5t-28.5 103.5t-79 71t-113.5 25.5q-64 0 -114.5 -26
t-79.5 -71t-28 -103q-1 -58 28 -103.5t80 -72t114 -26.5zM233 633v58h278v-58h-278zM371 728l-41 28l85 133l60 -44z" />
    <glyph glyph-name="uni1E5A" unicode="&#x1e5a;" horiz-adv-x="786" 
d="M137 0v700h318q62 0 112 -28t79 -76.5t29 -109.5q0 -60 -29.5 -108t-80.5 -76t-113 -28h-237v-274h-78zM614 0l-200 308l77 25l218 -333h-95zM215 350h237q42 0 73.5 17.5t49.5 48.5t18 70t-19.5 70.5t-54 49.5t-79.5 18h-225v-274zM390 -185q-28 0 -42.5 15t-14.5 39
q0 23 14.5 39t42.5 16t42.5 -15t14.5 -40q0 -22 -14.5 -38t-42.5 -16z" />
    <glyph glyph-name="uni1E5B" unicode="&#x1e5b;" horiz-adv-x="524" 
d="M132 0v522h75l2 -149l-14 9q13 42 42 76.5t68 55t84 20.5q25 0 48.5 -4.5t37.5 -12.5l-21 -82q-17 10 -38 14t-39 4q-40 0 -71.5 -14t-53.5 -37.5t-33 -53t-11 -61.5v-287h-76zM171 -185q-28 0 -42.5 15t-14.5 39q0 23 14.5 39t42.5 16t42.5 -15t14.5 -40
q0 -22 -14.5 -38t-42.5 -16z" />
    <glyph glyph-name="uni1E5E" unicode="&#x1e5e;" horiz-adv-x="786" 
d="M137 0v700h318q62 0 112 -28t79 -76.5t29 -109.5q0 -60 -29.5 -108t-80.5 -76t-113 -28h-237v-274h-78zM614 0l-200 308l77 25l218 -333h-95zM215 350h237q42 0 73.5 17.5t49.5 48.5t18 70t-19.5 70.5t-54 49.5t-79.5 18h-225v-274zM252 -161v61h277v-61h-277z" />
    <glyph glyph-name="uni1E5F" unicode="&#x1e5f;" horiz-adv-x="524" 
d="M132 0v522h75l2 -149l-14 9q13 42 42 76.5t68 55t84 20.5q25 0 48.5 -4.5t37.5 -12.5l-21 -82q-17 10 -38 14t-39 4q-40 0 -71.5 -14t-53.5 -37.5t-33 -53t-11 -61.5v-287h-76zM32 -161v61h277v-61h-277z" />
    <glyph glyph-name="uni1E60" unicode="&#x1e60;" horiz-adv-x="732" 
d="M372 -10q-61 0 -113.5 15t-96.5 45t-79 74l52 62q53 -66 111.5 -94.5t129.5 -28.5q53 0 97 15t69.5 44t25.5 67q0 26 -12 44.5t-32.5 31.5t-47.5 22.5t-56 16t-59 12.5q-55 11 -100 26t-77.5 38t-49.5 55t-17 78q0 43 19.5 79t54.5 61.5t82 39.5t101 14q60 0 108 -14.5
t85 -42t64 -67.5l-53 -56q-25 34 -56 58.5t-68.5 37t-80.5 12.5q-50 0 -89.5 -15t-62.5 -41.5t-23 -61.5q0 -28 13 -48.5t38 -34.5t62.5 -24.5t83.5 -18.5q52 -10 98 -24t81.5 -35t55 -53.5t19.5 -78.5q0 -62 -34.5 -109.5t-96.5 -74t-146 -26.5zM381 769q-28 0 -42.5 15
t-14.5 40q0 22 14.5 38.5t42.5 16.5t42.5 -15t14.5 -40q0 -22 -14.5 -38.5t-42.5 -16.5z" />
    <glyph glyph-name="uni1E61" unicode="&#x1e61;" horiz-adv-x="606" 
d="M312 -10q-77 0 -139.5 25t-100.5 70l53 48q34 -38 81.5 -57.5t105.5 -19.5q28 0 54 5t46 15t31.5 25.5t11.5 36.5q0 34 -40 56q-20 9 -49.5 18t-68.5 17q-60 14 -103 28.5t-68 36.5q-19 18 -28.5 40.5t-9.5 50.5q0 32 15.5 59.5t44.5 47.5t68 31t84 11q41 0 83.5 -10
t80 -29t63.5 -46l-44 -51q-24 20 -53 36.5t-61.5 25.5t-65.5 9q-27 0 -52.5 -5t-44 -15.5t-30 -25.5t-11.5 -35q-1 -16 6.5 -27.5t20.5 -20.5q19 -13 50.5 -22t76.5 -19q50 -10 88.5 -22t65.5 -30q28 -18 42.5 -43t14.5 -58q0 -47 -28 -82t-77 -54.5t-113 -19.5zM304 637
q-27 0 -42 14.5t-15 40.5q0 24 15 39t42 15t42 -14.5t15 -39.5t-15 -40t-42 -15z" />
    <glyph glyph-name="uni1E62" unicode="&#x1e62;" horiz-adv-x="732" 
d="M372 -10q-61 0 -113.5 15t-96.5 45t-79 74l52 62q53 -66 111.5 -94.5t129.5 -28.5q53 0 97 15t69.5 44t25.5 67q0 26 -12 44.5t-32.5 31.5t-47.5 22.5t-56 16t-59 12.5q-55 11 -100 26t-77.5 38t-49.5 55t-17 78q0 43 19.5 79t54.5 61.5t82 39.5t101 14q60 0 108 -14.5
t85 -42t64 -67.5l-53 -56q-25 34 -56 58.5t-68.5 37t-80.5 12.5q-50 0 -89.5 -15t-62.5 -41.5t-23 -61.5q0 -28 13 -48.5t38 -34.5t62.5 -24.5t83.5 -18.5q52 -10 98 -24t81.5 -35t55 -53.5t19.5 -78.5q0 -62 -34.5 -109.5t-96.5 -74t-146 -26.5zM395 -185q-28 0 -42.5 15
t-14.5 39q0 23 14.5 39t42.5 16t42.5 -15t14.5 -40q0 -22 -14.5 -38t-42.5 -16z" />
    <glyph glyph-name="uni1E63" unicode="&#x1e63;" horiz-adv-x="606" 
d="M312 -10q-77 0 -139.5 25t-100.5 70l53 48q34 -38 81.5 -57.5t105.5 -19.5q28 0 54 5t46 15t31.5 25.5t11.5 36.5q0 34 -40 56q-20 9 -49.5 18t-68.5 17q-60 14 -103 28.5t-68 36.5q-19 18 -28.5 40.5t-9.5 50.5q0 32 15.5 59.5t44.5 47.5t68 31t84 11q41 0 83.5 -10
t80 -29t63.5 -46l-44 -51q-24 20 -53 36.5t-61.5 25.5t-65.5 9q-27 0 -52.5 -5t-44 -15.5t-30 -25.5t-11.5 -35q-1 -16 6.5 -27.5t20.5 -20.5q19 -13 50.5 -22t76.5 -19q50 -10 88.5 -22t65.5 -30q28 -18 42.5 -43t14.5 -58q0 -47 -28 -82t-77 -54.5t-113 -19.5zM314 -185
q-28 0 -42.5 15t-14.5 39q0 23 14.5 39t42.5 16t42.5 -15t14.5 -40q0 -22 -14.5 -38t-42.5 -16z" />
    <glyph glyph-name="uni1E64" unicode="&#x1e64;" horiz-adv-x="732" 
d="M372 -10q-61 0 -113.5 15t-96.5 45t-79 74l52 62q53 -66 111.5 -94.5t129.5 -28.5q53 0 97 15t69.5 44t25.5 67q0 26 -12 44.5t-32.5 31.5t-47.5 22.5t-56 16t-59 12.5q-55 11 -100 26t-77.5 38t-49.5 55t-17 78q0 43 19.5 79t54.5 61.5t82 39.5t101 14q60 0 108 -14.5
t85 -42t64 -67.5l-53 -56q-25 34 -56 58.5t-68.5 37t-80.5 12.5q-50 0 -89.5 -15t-62.5 -41.5t-23 -61.5q0 -28 13 -48.5t38 -34.5t62.5 -24.5t83.5 -18.5q52 -10 98 -24t81.5 -35t55 -53.5t19.5 -78.5q0 -62 -34.5 -109.5t-96.5 -74t-146 -26.5zM434 754l-41 28l84 133
l61 -43zM302 760q-27 0 -42 14t-15 40q0 25 15 40t42 15t42 -14.5t15 -40.5q0 -24 -15 -39t-42 -15z" />
    <glyph glyph-name="uni1E65" unicode="&#x1e65;" horiz-adv-x="606" 
d="M312 -10q-77 0 -139.5 25t-100.5 70l53 48q34 -38 81.5 -57.5t105.5 -19.5q28 0 54 5t46 15t31.5 25.5t11.5 36.5q0 34 -40 56q-20 9 -49.5 18t-68.5 17q-60 14 -103 28.5t-68 36.5q-19 18 -28.5 40.5t-9.5 50.5q0 32 15.5 59.5t44.5 47.5t68 31t84 11q41 0 83.5 -10
t80 -29t63.5 -46l-44 -51q-24 20 -53 36.5t-61.5 25.5t-65.5 9q-27 0 -52.5 -5t-44 -15.5t-30 -25.5t-11.5 -35q-1 -16 6.5 -27.5t20.5 -20.5q19 -13 50.5 -22t76.5 -19q50 -10 88.5 -22t65.5 -30q28 -18 42.5 -43t14.5 -58q0 -47 -28 -82t-77 -54.5t-113 -19.5zM357 621
l-41 28l84 133l61 -43zM225 627q-27 0 -42 14.5t-15 39.5t15 40t42 15t42 -14.5t15 -40.5q0 -24 -15 -39t-42 -15z" />
    <glyph glyph-name="uni1E66" unicode="&#x1e66;" horiz-adv-x="732" 
d="M372 -10q-61 0 -113.5 15t-96.5 45t-79 74l52 62q53 -66 111.5 -94.5t129.5 -28.5q53 0 97 15t69.5 44t25.5 67q0 26 -12 44.5t-32.5 31.5t-47.5 22.5t-56 16t-59 12.5q-55 11 -100 26t-77.5 38t-49.5 55t-17 78q0 43 19.5 79t54.5 61.5t82 39.5t101 14q60 0 108 -14.5
t85 -42t64 -67.5l-53 -56q-25 34 -56 58.5t-68.5 37t-80.5 12.5q-50 0 -89.5 -15t-62.5 -41.5t-23 -61.5q0 -28 13 -48.5t38 -34.5t62.5 -24.5t83.5 -18.5q52 -10 98 -24t81.5 -35t55 -53.5t19.5 -78.5q0 -62 -34.5 -109.5t-96.5 -74t-146 -26.5zM344 762l-114 96l33 29
l133 -75h-30l133 75l33 -29l-114 -96h-74zM381 911q-28 0 -42.5 15t-14.5 40q0 22 14.5 38.5t42.5 16.5t42.5 -15t14.5 -40q0 -22 -14.5 -38.5t-42.5 -16.5z" />
    <glyph glyph-name="uni1E67" unicode="&#x1e67;" horiz-adv-x="606" 
d="M312 -10q-77 0 -139.5 25t-100.5 70l53 48q34 -38 81.5 -57.5t105.5 -19.5q28 0 54 5t46 15t31.5 25.5t11.5 36.5q0 34 -40 56q-20 9 -49.5 18t-68.5 17q-60 14 -103 28.5t-68 36.5q-19 18 -28.5 40.5t-9.5 50.5q0 32 15.5 59.5t44.5 47.5t68 31t84 11q41 0 83.5 -10
t80 -29t63.5 -46l-44 -51q-24 20 -53 36.5t-61.5 25.5t-65.5 9q-27 0 -52.5 -5t-44 -15.5t-30 -25.5t-11.5 -35q-1 -16 6.5 -27.5t20.5 -20.5q19 -13 50.5 -22t76.5 -19q50 -10 88.5 -22t65.5 -30q28 -18 42.5 -43t14.5 -58q0 -47 -28 -82t-77 -54.5t-113 -19.5zM267 601
l-107 107l33 29l126 -86h-30l126 86l33 -29l-107 -107h-74zM304 749q-27 0 -42 14.5t-15 40.5q0 24 15 39t42 15t42 -14.5t15 -39.5t-15 -40t-42 -15z" />
    <glyph glyph-name="uni1E68" unicode="&#x1e68;" horiz-adv-x="732" 
d="M372 -10q-61 0 -113.5 15t-96.5 45t-79 74l52 62q53 -66 111.5 -94.5t129.5 -28.5q53 0 97 15t69.5 44t25.5 67q0 26 -12 44.5t-32.5 31.5t-47.5 22.5t-56 16t-59 12.5q-55 11 -100 26t-77.5 38t-49.5 55t-17 78q0 43 19.5 79t54.5 61.5t82 39.5t101 14q60 0 108 -14.5
t85 -42t64 -67.5l-53 -56q-25 34 -56 58.5t-68.5 37t-80.5 12.5q-50 0 -89.5 -15t-62.5 -41.5t-23 -61.5q0 -28 13 -48.5t38 -34.5t62.5 -24.5t83.5 -18.5q52 -10 98 -24t81.5 -35t55 -53.5t19.5 -78.5q0 -62 -34.5 -109.5t-96.5 -74t-146 -26.5zM395 -185q-28 0 -42.5 15
t-14.5 39q0 23 14.5 39t42.5 16t42.5 -15t14.5 -40q0 -22 -14.5 -38t-42.5 -16zM381 769q-28 0 -42.5 15t-14.5 40q0 22 14.5 38.5t42.5 16.5t42.5 -15t14.5 -40q0 -22 -14.5 -38.5t-42.5 -16.5z" />
    <glyph glyph-name="uni1E69" unicode="&#x1e69;" horiz-adv-x="606" 
d="M312 -10q-77 0 -139.5 25t-100.5 70l53 48q34 -38 81.5 -57.5t105.5 -19.5q28 0 54 5t46 15t31.5 25.5t11.5 36.5q0 34 -40 56q-20 9 -49.5 18t-68.5 17q-60 14 -103 28.5t-68 36.5q-19 18 -28.5 40.5t-9.5 50.5q0 32 15.5 59.5t44.5 47.5t68 31t84 11q41 0 83.5 -10
t80 -29t63.5 -46l-44 -51q-24 20 -53 36.5t-61.5 25.5t-65.5 9q-27 0 -52.5 -5t-44 -15.5t-30 -25.5t-11.5 -35q-1 -16 6.5 -27.5t20.5 -20.5q19 -13 50.5 -22t76.5 -19q50 -10 88.5 -22t65.5 -30q28 -18 42.5 -43t14.5 -58q0 -47 -28 -82t-77 -54.5t-113 -19.5zM314 -185
q-28 0 -42.5 15t-14.5 39q0 23 14.5 39t42.5 16t42.5 -15t14.5 -40q0 -22 -14.5 -38t-42.5 -16zM304 637q-27 0 -42 14.5t-15 40.5q0 24 15 39t42 15t42 -14.5t15 -39.5t-15 -40t-42 -15z" />
    <glyph glyph-name="uni1E6C" unicode="&#x1e6c;" horiz-adv-x="653" 
d="M284 0v624h-228v76h542v-76h-236v-624h-78zM324 -185q-28 0 -42.5 15t-14.5 39q0 23 14.5 39t42.5 16t42.5 -15t14.5 -40q0 -22 -14.5 -38t-42.5 -16z" />
    <glyph glyph-name="uni1E6D" unicode="&#x1e6d;" horiz-adv-x="517" 
d="M209 0v671h76v-671h-76zM66 450v72h381v-72h-381zM253 -185q-28 0 -42.5 15t-14.5 39q0 23 14.5 39t42.5 16t42.5 -15t14.5 -40q0 -22 -14.5 -38t-42.5 -16z" />
    <glyph glyph-name="uni1E6E" unicode="&#x1e6e;" horiz-adv-x="653" 
d="M284 0v624h-228v76h542v-76h-236v-624h-78zM186 -161v61h277v-61h-277z" />
    <glyph glyph-name="uni1E6F" unicode="&#x1e6f;" horiz-adv-x="517" 
d="M209 0v671h76v-671h-76zM66 450v72h381v-72h-381zM114 -161v61h277v-61h-277z" />
    <glyph glyph-name="uni1E78" unicode="&#x1e78;" horiz-adv-x="869" 
d="M433 -7q-89 0 -157 39t-106.5 107.5t-38.5 155.5v405h78v-399q0 -66 29.5 -118.5t80 -82.5t114.5 -30q67 0 118.5 30t81 82.5t29.5 118.5v399h75v-406q0 -86 -38.5 -154.5t-107 -107.5t-158.5 -39zM506 774q-22 0 -44 8t-45 17q-14 6 -26 11t-23 5q-14 0 -24 -10.5
t-10 -30.5h-61q0 47 29 74t67 27q22 0 42 -7.5t42 -17.5q12 -5 25.5 -10t23.5 -5q14 0 24 10t9 29h61q0 -28 -11.5 -50.5t-31.5 -36t-47 -13.5zM368 899l-23 42l167 105l41 -70z" />
    <glyph glyph-name="uni1E79" unicode="&#x1e79;" horiz-adv-x="731" 
d="M330 -10q-66 0 -112 27t-70.5 78.5t-24.5 124.5v302h76v-284q0 -57 17 -96.5t51 -59.5t83 -20q39 0 72.5 13t58 35.5t38.5 52.5t14 65v294h76v-522h-75l-3 116l13 6q-11 -34 -42 -64.5t-75.5 -49t-96.5 -18.5zM426 613q-21 0 -36.5 9t-35.5 27q-14 13 -23.5 19t-19.5 6
q-17 0 -29 -14.5t-16 -43.5l-54 7q4 45 32 76.5t72 31.5q19 0 34 -8t35 -26q15 -12 24 -19t20 -7q15 0 25.5 14t13.5 38l55 -7q-2 -28 -14.5 -51.5t-33.5 -37.5t-49 -14zM380 748l-41 28l85 133l60 -44z" />
    <glyph glyph-name="uni1E7A" unicode="&#x1e7a;" horiz-adv-x="869" 
d="M433 -7q-89 0 -157 39t-106.5 107.5t-38.5 155.5v405h78v-399q0 -66 29.5 -118.5t80 -82.5t114.5 -30q67 0 118.5 30t81 82.5t29.5 118.5v399h75v-406q0 -86 -38.5 -154.5t-107 -107.5t-158.5 -39zM281 794v60h307v-60h-307zM536 911q-28 0 -42.5 15t-14.5 40
q0 22 14.5 38.5t42.5 16.5q29 0 43.5 -15t14.5 -40q0 -22 -14.5 -38.5t-43.5 -16.5zM334 911q-29 0 -43.5 15t-14.5 40q0 22 14.5 38.5t43.5 16.5q28 0 42.5 -15t14.5 -40q0 -22 -14.5 -38.5t-42.5 -16.5z" />
    <glyph glyph-name="uni1E7B" unicode="&#x1e7b;" horiz-adv-x="731" 
d="M330 -10q-66 0 -112 27t-70.5 78.5t-24.5 124.5v302h76v-284q0 -57 17 -96.5t51 -59.5t83 -20q39 0 72.5 13t58 35.5t38.5 52.5t14 65v294h76v-522h-75l-3 116l13 6q-11 -34 -42 -64.5t-75.5 -49t-96.5 -18.5zM224 643v58h284v-58h-284zM464 774q-27 0 -42 14.5t-15 39.5
t15 40t42 15t42 -14.5t15 -40.5q0 -24 -15 -39t-42 -15zM269 773q-28 0 -43 14.5t-15 40.5q0 24 15.5 39.5t42.5 15.5t42 -14.5t15 -40.5q0 -24 -15.5 -39.5t-41.5 -15.5z" />
    <glyph glyph-name="Wgrave" unicode="&#x1e80;" horiz-adv-x="1068" 
d="M278 0l-226 700h86l140 -451q9 -26 15.5 -49t12 -44t10.5 -42.5t10 -44.5h-19q12 41 22 69t20.5 55t23.5 59l120 290h74l128 -309q13 -30 24 -58t19.5 -52.5t12.5 -48.5l-19 -4q5 23 9.5 40.5t8.5 34.5t9 33.5t11 35t13 41.5l149 445h84l-239 -700h-64l-195 461l19 -3
l-192 -458h-67zM605 757l-184 77l41 70l167 -105z" />
    <glyph glyph-name="wgrave" unicode="&#x1e81;" horiz-adv-x="866" 
d="M227 0l-187 522l83 1l143 -428l-24 2l162 348h53l163 -349l-25 -2l153 428h79l-193 -522h-44l-180 393l41 3l-178 -396h-46zM482 599l-163 97l48 63l143 -119z" />
    <glyph glyph-name="Wacute" unicode="&#x1e82;" horiz-adv-x="1068" 
d="M278 0l-226 700h86l140 -451q9 -26 15.5 -49t12 -44t10.5 -42.5t10 -44.5h-19q12 41 22 69t20.5 55t23.5 59l120 290h74l128 -309q13 -30 24 -58t19.5 -52.5t12.5 -48.5l-19 -4q5 23 9.5 40.5t8.5 34.5t9 33.5t11 35t13 41.5l149 445h84l-239 -700h-64l-195 461l19 -3
l-192 -458h-67zM467 757l-23 42l167 105l41 -70z" />
    <glyph glyph-name="wacute" unicode="&#x1e83;" horiz-adv-x="866" 
d="M227 0l-187 522l83 1l143 -428l-24 2l162 348h53l163 -349l-25 -2l153 428h79l-193 -522h-44l-180 393l41 3l-178 -396h-46zM373 599l-27 41l142 119l49 -63z" />
    <glyph glyph-name="Wdieresis" unicode="&#x1e84;" horiz-adv-x="1068" 
d="M278 0l-226 700h86l140 -451q9 -26 15.5 -49t12 -44t10.5 -42.5t10 -44.5h-19q12 41 22 69t20.5 55t23.5 59l120 290h74l128 -309q13 -30 24 -58t19.5 -52.5t12.5 -48.5l-19 -4q5 23 9.5 40.5t8.5 34.5t9 33.5t11 35t13 41.5l149 445h84l-239 -700h-64l-195 461l19 -3
l-192 -458h-67zM635 769q-28 0 -42.5 15t-14.5 40q0 22 14.5 38.5t42.5 16.5q29 0 43.5 -15t14.5 -40q0 -22 -14.5 -38.5t-43.5 -16.5zM433 769q-29 0 -43.5 15t-14.5 40q0 22 14.5 38.5t43.5 16.5q28 0 42.5 -15t14.5 -40q0 -22 -14.5 -38.5t-42.5 -16.5z" />
    <glyph glyph-name="wdieresis" unicode="&#x1e85;" horiz-adv-x="866" 
d="M227 0l-187 522l83 1l143 -428l-24 2l162 348h53l163 -349l-25 -2l153 428h79l-193 -522h-44l-180 393l41 3l-178 -396h-46zM531 633q-27 0 -42 14.5t-15 39.5t15 40t42 15t42 -14.5t15 -40.5q0 -24 -15 -39t-42 -15zM336 632q-28 0 -43 14.5t-15 40.5q0 24 15.5 39.5
t42.5 15.5t42 -14.5t15 -40.5q0 -24 -15.5 -39.5t-41.5 -15.5z" />
    <glyph glyph-name="uni1E8E" unicode="&#x1e8e;" horiz-adv-x="765" 
d="M354 0v331l10 -54l-318 423h100l258 -349l-19 1l241 348h93l-300 -424l12 63v-339h-77zM383 769q-28 0 -42.5 15t-14.5 40q0 22 14.5 38.5t42.5 16.5t42.5 -15t14.5 -40q0 -22 -14.5 -38.5t-42.5 -16.5z" />
    <glyph glyph-name="uni1E8F" unicode="&#x1e8f;" horiz-adv-x="694" 
d="M218 -230l115 246l7 -70l-291 576h85l185 -372q18 -33 31 -63t21 -57l-25 6q10 23 21 49t23 55l170 382h86l-242 -521l-106 -231h-80zM347 637q-27 0 -42 14.5t-15 40.5q0 24 15 39t42 15t42 -14.5t15 -39.5t-15 -40t-42 -15z" />
    <glyph glyph-name="uni1E92" unicode="&#x1e92;" horiz-adv-x="738" 
d="M76 0v60l483 585l19 -22h-476v77h553v-59l-482 -586l-20 22h513v-77h-590zM368 -185q-28 0 -42.5 15t-14.5 39q0 23 14.5 39t42.5 16t42.5 -15t14.5 -40q0 -22 -14.5 -38t-42.5 -16z" />
    <glyph glyph-name="uni1E93" unicode="&#x1e93;" horiz-adv-x="562" 
d="M64 0v65l342 405l14 -15h-356v67h423v-64l-342 -405l-12 14h365v-67h-434zM280 -185q-28 0 -42.5 15t-14.5 39q0 23 14.5 39t42.5 16t42.5 -15t14.5 -40q0 -22 -14.5 -38t-42.5 -16z" />
    <glyph glyph-name="uni1E97" unicode="&#x1e97;" horiz-adv-x="517" 
d="M209 0v671h76v-671h-76zM66 450v72h381v-72h-381zM344 723q-27 0 -42 14.5t-15 39.5t15 40t42 15t42 -14.5t15 -40.5q0 -24 -15 -39t-42 -15zM149 722q-28 0 -43 14.5t-15 40.5q0 24 15.5 39.5t42.5 15.5t42 -14.5t15 -40.5q0 -24 -15.5 -39.5t-41.5 -15.5z" />
    <glyph glyph-name="uni1E9E" unicode="&#x1e9e;" horiz-adv-x="886" 
d="M576 -10q-44 0 -85.5 10.5t-76.5 30.5t-62 47l49 60q35 -35 80.5 -55t94.5 -20q67 0 108 29.5t41 84.5q0 33 -19.5 56t-56.5 42t-90 44q-42 17 -72 40t-45.5 52.5t-15.5 67.5q0 36 16 66t46.5 51.5t71 34.5t88.5 15l17 -30q-36 15 -80 22t-95 7q-61 1 -111.5 -19.5
t-86.5 -60.5t-56 -99.5t-19 -138.5l-1 -327h-79l1 329q0 125 41.5 211t120 130.5t190.5 44.5q61 0 115.5 -10.5t117.5 -32.5l6 -59q-72 -11 -122 -26.5t-76.5 -39.5t-26.5 -58q0 -22 13 -40.5t38.5 -34t64.5 -32.5q53 -22 94.5 -47.5t65 -61.5t23.5 -93q0 -54 -29.5 -97
t-80.5 -68t-117 -25z" />
    <glyph glyph-name="uni1EA0" unicode="&#x1ea0;" horiz-adv-x="790" 
d="M53 0l297 700h92l295 -700h-86l-202 478q-9 24 -17.5 46.5t-17 44t-16.5 43.5l-16 44h22q-9 -26 -17 -48.5t-16.5 -43.5t-17.5 -43t-19 -48l-201 -473h-80zM177 189l31 76h369l26 -76h-426zM395 -185q-28 0 -42.5 15t-14.5 39q0 23 14.5 39t42.5 16t42.5 -15t14.5 -40
q0 -22 -14.5 -38t-42.5 -16z" />
    <glyph glyph-name="uni1EA1" unicode="&#x1ea1;" horiz-adv-x="760" 
d="M340 -10q-80 0 -141.5 35t-96 96.5t-34.5 140.5t36 140.5t98 96.5t141 35q49 0 90.5 -13t73 -36t51.5 -51.5t25 -58.5l-24 7l3 140h74v-522h-75v136l20 11q-6 -30 -27 -58t-54 -50.5t-74 -35.5t-86 -13zM356 62q60 0 107.5 25.5t74.5 71t27 103.5q0 57 -27 102t-74.5 72
t-107.5 27q-62 0 -109 -27t-74 -72t-27 -102q0 -58 26 -103t73.5 -71t110.5 -26zM371 -185q-28 0 -42.5 15t-14.5 39q0 23 14.5 39t42.5 16t42.5 -15t14.5 -40q0 -22 -14.5 -38t-42.5 -16z" />
    <glyph glyph-name="uni1EA2" unicode="&#x1ea2;" horiz-adv-x="790" 
d="M53 0l297 700h92l295 -700h-86l-202 478q-9 24 -17.5 46.5t-17 44t-16.5 43.5l-16 44h22q-9 -26 -17 -48.5t-16.5 -43.5t-17.5 -43t-19 -48l-201 -473h-80zM177 189l31 76h369l26 -76h-426zM378 763q-5 8 -8 16.5t-3 15.5q0 8 5 18t21 21t24.5 18t8.5 15q0 11 -11.5 16
t-28.5 5q-15 0 -34 -4.5t-37 -12.5l-15 50q22 11 46.5 16.5t44.5 5.5q49 0 73 -21t24 -49q0 -23 -12 -36t-26 -21t-22 -14t-8 -17q0 -2 0.5 -4.5t1.5 -6.5z" />
    <glyph glyph-name="uni1EA3" unicode="&#x1ea3;" horiz-adv-x="760" 
d="M340 -10q-80 0 -141.5 35t-96 96.5t-34.5 140.5t36 140.5t98 96.5t141 35q49 0 90.5 -13t73 -36t51.5 -51.5t25 -58.5l-24 7l3 140h74v-522h-75v136l20 11q-6 -30 -27 -58t-54 -50.5t-74 -35.5t-86 -13zM356 62q60 0 107.5 25.5t74.5 71t27 103.5q0 57 -27 102t-74.5 72
t-107.5 27q-62 0 -109 -27t-74 -72t-27 -102q0 -58 26 -103t73.5 -71t110.5 -26zM356 596q-5 8 -8 16.5t-3 15.5q0 8 5 18t21 21t24.5 18t8.5 15q0 11 -11.5 16t-28.5 5q-15 0 -34 -4.5t-37 -12.5l-15 50q22 11 46.5 16.5t44.5 5.5q49 0 73 -21t24 -49q0 -23 -12 -36
t-26 -21t-22 -14t-8 -17q0 -2 0.5 -4.5t1.5 -6.5z" />
    <glyph glyph-name="uni1EA4" unicode="&#x1ea4;" horiz-adv-x="790" 
d="M53 0l297 700h92l295 -700h-86l-202 478q-9 24 -17.5 46.5t-17 44t-16.5 43.5l-16 44h22q-9 -26 -17 -48.5t-16.5 -43.5t-17.5 -43t-19 -48l-201 -473h-80zM177 189l31 76h369l26 -76h-426zM271 760l-30 30l119 95h68l119 -95l-30 -30l-138 75h30zM544 868l-41 27l79 137
l71 -49z" />
    <glyph glyph-name="uni1EA5" unicode="&#x1ea5;" horiz-adv-x="760" 
d="M340 -10q-80 0 -141.5 35t-96 96.5t-34.5 140.5t36 140.5t98 96.5t141 35q49 0 90.5 -13t73 -36t51.5 -51.5t25 -58.5l-24 7l3 140h74v-522h-75v136l20 11q-6 -30 -27 -58t-54 -50.5t-74 -35.5t-86 -13zM356 62q60 0 107.5 25.5t74.5 71t27 103.5q0 57 -27 102t-74.5 72
t-107.5 27q-62 0 -109 -27t-74 -72t-27 -102q0 -58 26 -103t73.5 -71t110.5 -26zM257 605l-33 28l112 107h74l111 -107l-32 -28l-131 85h30zM530 732l-41 28l75 138l70 -48z" />
    <glyph glyph-name="uni1EA6" unicode="&#x1ea6;" horiz-adv-x="790" 
d="M53 0l297 700h92l295 -700h-86l-202 478q-9 24 -17.5 46.5t-17 44t-16.5 43.5l-16 44h22q-9 -26 -17 -48.5t-16.5 -43.5t-17.5 -43t-19 -48l-201 -473h-80zM177 189l31 76h369l26 -76h-426zM271 760l-30 30l119 100h68l119 -100l-30 -30l-138 80h30zM556 868l-111 116
l70 49l80 -136z" />
    <glyph glyph-name="uni1EA7" unicode="&#x1ea7;" horiz-adv-x="760" 
d="M340 -10q-80 0 -141.5 35t-96 96.5t-34.5 140.5t36 140.5t98 96.5t141 35q49 0 90.5 -13t73 -36t51.5 -51.5t25 -58.5l-24 7l3 140h74v-522h-75v136l20 11q-6 -30 -27 -58t-54 -50.5t-74 -35.5t-86 -13zM356 62q60 0 107.5 25.5t74.5 71t27 103.5q0 57 -27 102t-74.5 72
t-107.5 27q-62 0 -109 -27t-74 -72t-27 -102q0 -58 26 -103t73.5 -71t110.5 -26zM257 605l-33 28l112 107h73l112 -107l-32 -28l-131 85h30zM513 731l-106 118l71 49l74 -138z" />
    <glyph glyph-name="uni1EA8" unicode="&#x1ea8;" horiz-adv-x="790" 
d="M53 0l297 700h92l295 -700h-86l-202 478q-9 24 -17.5 46.5t-17 44t-16.5 43.5l-16 44h22q-9 -26 -17 -48.5t-16.5 -43.5t-17.5 -43t-19 -48l-201 -473h-80zM177 189l31 76h369l26 -76h-426zM272 760l-31 30l120 95h67l119 -95l-30 -30l-137 75h29zM531 874
q-4 6 -7.5 13.5t-3.5 14.5q0 8 6 16t24 20q15 9 22 16t7 12q0 10 -11 15t-26 5q-16 0 -34 -4.5t-35 -12.5l-15 50q21 11 44 16.5t44 5.5q48 0 71.5 -20t23.5 -47q0 -19 -11 -31.5t-26 -21.5q-14 -9 -22.5 -16t-8.5 -12q0 -2 0.5 -4t1.5 -4z" />
    <glyph glyph-name="uni1EA9" unicode="&#x1ea9;" horiz-adv-x="760" 
d="M340 -10q-80 0 -141.5 35t-96 96.5t-34.5 140.5t36 140.5t98 96.5t141 35q49 0 90.5 -13t73 -36t51.5 -51.5t25 -58.5l-24 7l3 140h74v-522h-75v136l20 11q-6 -30 -27 -58t-54 -50.5t-74 -35.5t-86 -13zM356 62q60 0 107.5 25.5t74.5 71t27 103.5q0 57 -27 102t-74.5 72
t-107.5 27q-62 0 -109 -27t-74 -72t-27 -102q0 -58 26 -103t73.5 -71t110.5 -26zM257 605l-33 28l112 107h74l112 -107l-33 -28l-131 85h30zM494 725q-5 8 -8 16.5t-3 15.5q0 8 5 18.5t21 20.5q16 11 24.5 18t8.5 15q0 11 -11.5 16t-28.5 5q-15 0 -34 -3.5t-38 -13.5l-14 50
q22 11 46.5 16.5t44.5 5.5q48 0 72.5 -21t24.5 -48q0 -24 -12 -37t-26 -21t-22 -14t-8 -17q0 -2 0.5 -4.5t1.5 -6.5z" />
    <glyph glyph-name="uni1EAA" unicode="&#x1eaa;" horiz-adv-x="790" 
d="M53 0l297 700h92l295 -700h-86l-202 478q-9 24 -17.5 46.5t-17 44t-16.5 43.5l-16 44h22q-9 -26 -17 -48.5t-16.5 -43.5t-17.5 -43t-19 -48l-201 -473h-80zM177 189l31 76h369l26 -76h-426zM272 760l-31 30l120 95h67l119 -95l-30 -30l-138 75h30zM468 944
q-23 0 -42.5 7.5t-36.5 14.5q-16 8 -30.5 13.5t-26.5 5.5t-22 -9t-12 -28l-57 5q1 38 26.5 64.5t60.5 26.5q21 0 37.5 -7t34.5 -15q14 -6 29.5 -12.5t28.5 -6.5q14 0 22.5 9.5t10.5 28.5l57 -5q-1 -28 -11 -48.5t-27.5 -32t-41.5 -11.5z" />
    <glyph glyph-name="uni1EAB" unicode="&#x1eab;" horiz-adv-x="760" 
d="M340 -10q-80 0 -141.5 35t-96 96.5t-34.5 140.5t36 140.5t98 96.5t141 35q49 0 90.5 -13t73 -36t51.5 -51.5t25 -58.5l-24 7l3 140h74v-522h-75v136l20 11q-6 -30 -27 -58t-54 -50.5t-74 -35.5t-86 -13zM356 62q60 0 107.5 25.5t74.5 71t27 103.5q0 57 -27 102t-74.5 72
t-107.5 27q-62 0 -109 -27t-74 -72t-27 -102q0 -58 26 -103t73.5 -71t110.5 -26zM256 605l-33 28l112 107h73l112 -107l-33 -28l-131 85h30zM443 801q-24 0 -42 9t-36 17l-24 12t-27 6t-26.5 -9.5t-15.5 -27.5l-54 7q4 37 30.5 63.5t60.5 26.5q22 0 38.5 -8.5t32.5 -16.5
q14 -7 27 -13t26 -6q15 0 25 10t13 27l55 -7q-2 -24 -12.5 -44.5t-28 -33t-42.5 -12.5z" />
    <glyph glyph-name="uni1EAC" unicode="&#x1eac;" horiz-adv-x="790" 
d="M53 0l297 700h92l295 -700h-86l-202 478q-9 24 -17.5 46.5t-17 44t-16.5 43.5l-16 44h22q-9 -26 -17 -48.5t-16.5 -43.5t-17.5 -43t-19 -48l-201 -473h-80zM177 189l31 76h369l26 -76h-426zM395 -185q-28 0 -42.5 15t-14.5 39q0 23 14.5 39t42.5 16t42.5 -15t14.5 -40
q0 -22 -14.5 -38t-42.5 -16zM272 760l-33 30l122 96h67l121 -96l-32 -30l-138 76h30z" />
    <glyph glyph-name="uni1EAD" unicode="&#x1ead;" horiz-adv-x="760" 
d="M340 -10q-80 0 -141.5 35t-96 96.5t-34.5 140.5t36 140.5t98 96.5t141 35q49 0 90.5 -13t73 -36t51.5 -51.5t25 -58.5l-24 7l3 140h74v-522h-75v136l20 11q-6 -30 -27 -58t-54 -50.5t-74 -35.5t-86 -13zM356 62q60 0 107.5 25.5t74.5 71t27 103.5q0 57 -27 102t-74.5 72
t-107.5 27q-62 0 -109 -27t-74 -72t-27 -102q0 -58 26 -103t73.5 -71t110.5 -26zM371 -185q-28 0 -42.5 15t-14.5 39q0 23 14.5 39t42.5 16t42.5 -15t14.5 -40q0 -22 -14.5 -38t-42.5 -16zM257 605l-33 28l112 107h74l112 -107l-33 -28l-131 85h30z" />
    <glyph glyph-name="uni1EAE" unicode="&#x1eae;" horiz-adv-x="790" 
d="M53 0l297 700h92l295 -700h-86l-202 478q-9 24 -17.5 46.5t-17 44t-16.5 43.5l-16 44h22q-9 -26 -17 -48.5t-16.5 -43.5t-17.5 -43t-19 -48l-201 -473h-80zM177 189l31 76h369l26 -76h-426zM395 756q-58 0 -98.5 33t-53.5 90l56 8q14 -39 38.5 -55.5t57.5 -16.5
t57.5 16.5t38.5 55.5l56 -8q-13 -57 -53.5 -90t-98.5 -33zM400 888l-39 29l80 136l70 -50z" />
    <glyph glyph-name="uni1EAF" unicode="&#x1eaf;" horiz-adv-x="760" 
d="M340 -10q-80 0 -141.5 35t-96 96.5t-34.5 140.5t36 140.5t98 96.5t141 35q49 0 90.5 -13t73 -36t51.5 -51.5t25 -58.5l-24 7l3 140h74v-522h-75v136l20 11q-6 -30 -27 -58t-54 -50.5t-74 -35.5t-86 -13zM356 62q60 0 107.5 25.5t74.5 71t27 103.5q0 57 -27 102t-74.5 72
t-107.5 27q-62 0 -109 -27t-74 -72t-27 -102q0 -58 26 -103t73.5 -71t110.5 -26zM373 592q-59 0 -99 33t-53 90l58 8q12 -32 37 -51t57 -19t57 19t37 51l58 -8q-13 -57 -53 -90t-99 -33zM377 747l-41 28l75 138l70 -48z" />
    <glyph glyph-name="uni1EB0" unicode="&#x1eb0;" horiz-adv-x="790" 
d="M53 0l297 700h92l295 -700h-86l-202 478q-9 24 -17.5 46.5t-17 44t-16.5 43.5l-16 44h22q-9 -26 -17 -48.5t-16.5 -43.5t-17.5 -43t-19 -48l-201 -473h-80zM177 189l31 76h369l26 -76h-426zM395 756q-58 0 -98.5 33t-53.5 90l56 8q14 -39 38.5 -55.5t57.5 -16.5
t57.5 16.5t38.5 55.5l56 -8q-13 -57 -53.5 -90t-98.5 -33zM393 888l-110 115l70 50l80 -136z" />
    <glyph glyph-name="uni1EB1" unicode="&#x1eb1;" horiz-adv-x="760" 
d="M340 -10q-80 0 -141.5 35t-96 96.5t-34.5 140.5t36 140.5t98 96.5t141 35q49 0 90.5 -13t73 -36t51.5 -51.5t25 -58.5l-24 7l3 140h74v-522h-75v136l20 11q-6 -30 -27 -58t-54 -50.5t-74 -35.5t-86 -13zM356 62q60 0 107.5 25.5t74.5 71t27 103.5q0 57 -27 102t-74.5 72
t-107.5 27q-62 0 -109 -27t-74 -72t-27 -102q0 -58 26 -103t73.5 -71t110.5 -26zM373 592q-59 0 -99 34t-53 94l58 8q12 -34 37 -54.5t57 -20.5t57 20.5t37 54.5l58 -8q-13 -60 -53 -94t-99 -34zM378 746l-106 118l70 49l75 -138z" />
    <glyph glyph-name="uni1EB2" unicode="&#x1eb2;" horiz-adv-x="790" 
d="M53 0l297 700h92l295 -700h-86l-202 478q-9 24 -17.5 46.5t-17 44t-16.5 43.5l-16 44h22q-9 -26 -17 -48.5t-16.5 -43.5t-17.5 -43t-19 -48l-201 -473h-80zM177 189l31 76h369l26 -76h-426zM395 756q-58 0 -98.5 33t-53.5 90l56 8q14 -39 38.5 -55.5t57.5 -16.5
t57.5 16.5t38.5 55.5l56 -8q-13 -57 -53.5 -90t-98.5 -33zM376 888q-4 6 -7.5 13t-3.5 14q0 9 6 17t24 20q15 10 22 16.5t7 12.5q0 10 -11 14.5t-26 4.5q-17 0 -34.5 -4.5t-34.5 -12.5l-15 50q21 10 44 16t44 6q48 0 71.5 -20t23.5 -47q0 -19 -11 -31.5t-26 -22.5
q-14 -9 -22.5 -15.5t-8.5 -12.5q0 -2 0.5 -3.5t1.5 -3.5z" />
    <glyph glyph-name="uni1EB3" unicode="&#x1eb3;" horiz-adv-x="760" 
d="M340 -10q-80 0 -141.5 35t-96 96.5t-34.5 140.5t36 140.5t98 96.5t141 35q49 0 90.5 -13t73 -36t51.5 -51.5t25 -58.5l-24 7l3 140h74v-522h-75v136l20 11q-6 -30 -27 -58t-54 -50.5t-74 -35.5t-86 -13zM356 62q60 0 107.5 25.5t74.5 71t27 103.5q0 57 -27 102t-74.5 72
t-107.5 27q-62 0 -109 -27t-74 -72t-27 -102q0 -58 26 -103t73.5 -71t110.5 -26zM373 592q-59 0 -99 34t-53 94l58 8q12 -34 37 -54.5t57 -20.5t57 20.5t37 54.5l58 -8q-13 -60 -53 -94t-99 -34zM353 742q-5 8 -8 16t-3 16t5 18t20 21q17 11 25 18t8 15q0 11 -11.5 16
t-28.5 5q-15 0 -34 -4.5t-37 -12.5l-15 50q22 11 46.5 16.5t45.5 5.5q48 0 72.5 -21t24.5 -49q0 -23 -12 -36t-26 -21t-22.5 -14t-8.5 -17q0 -2 0.5 -4.5t1.5 -6.5z" />
    <glyph glyph-name="uni1EB4" unicode="&#x1eb4;" horiz-adv-x="790" 
d="M53 0l297 700h92l295 -700h-86l-202 478q-9 24 -17.5 46.5t-17 44t-16.5 43.5l-16 44h22q-9 -26 -17 -48.5t-16.5 -43.5t-17.5 -43t-19 -48l-201 -473h-80zM177 189l31 76h369l26 -76h-426zM395 756q-58 0 -98.5 31.5t-53.5 86.5l56 8q14 -36 38.5 -51.5t57.5 -15.5
t57.5 15.5t38.5 51.5l56 -8q-13 -55 -53.5 -86.5t-98.5 -31.5zM469 944q-23 0 -42.5 7.5t-36.5 14.5q-16 8 -30.5 13.5t-26.5 5.5t-22 -9t-12 -28l-57 5q1 38 26.5 64.5t60.5 26.5q21 0 37.5 -7t34.5 -15q14 -6 29.5 -12.5t28.5 -6.5q14 0 22.5 9.5t10.5 28.5l57 -5
q-1 -28 -11 -48.5t-27.5 -32t-41.5 -11.5z" />
    <glyph glyph-name="uni1EB5" unicode="&#x1eb5;" horiz-adv-x="760" 
d="M340 -10q-80 0 -141.5 35t-96 96.5t-34.5 140.5t36 140.5t98 96.5t141 35q49 0 90.5 -13t73 -36t51.5 -51.5t25 -58.5l-24 7l3 140h74v-522h-75v136l20 11q-6 -30 -27 -58t-54 -50.5t-74 -35.5t-86 -13zM356 62q60 0 107.5 25.5t74.5 71t27 103.5q0 57 -27 102t-74.5 72
t-107.5 27q-62 0 -109 -27t-74 -72t-27 -102q0 -58 26 -103t73.5 -71t110.5 -26zM372 592q-58 0 -98 34t-53 94l58 8q11 -34 36 -54.5t57 -20.5q33 0 58 20.5t36 54.5l58 -8q-13 -60 -53 -94t-99 -34zM444 806q-24 0 -42 9t-36 17l-24 12t-27 6t-26.5 -10t-15.5 -27l-54 7
q4 37 30.5 63.5t60.5 26.5q22 0 38.5 -8.5t32.5 -16.5q14 -7 27 -13t26 -6q15 0 25 10t13 27l55 -7q-2 -24 -12.5 -44.5t-28 -33t-42.5 -12.5z" />
    <glyph glyph-name="uni1EB6" unicode="&#x1eb6;" horiz-adv-x="790" 
d="M53 0l297 700h92l295 -700h-86l-202 478q-9 24 -17.5 46.5t-17 44t-16.5 43.5l-16 44h22q-9 -26 -17 -48.5t-16.5 -43.5t-17.5 -43t-19 -48l-201 -473h-80zM177 189l31 76h369l26 -76h-426zM395 -185q-28 0 -42.5 15t-14.5 39q0 23 14.5 39t42.5 16t42.5 -15t14.5 -40
q0 -22 -14.5 -38t-42.5 -16zM395 756q-38 0 -69.5 17t-52.5 45.5t-30 65.5l58 8q11 -37 36 -56.5t58 -19.5t58 19.5t36 56.5l58 -8q-8 -37 -29.5 -65.5t-52.5 -45.5t-70 -17z" />
    <glyph glyph-name="uni1EB7" unicode="&#x1eb7;" horiz-adv-x="760" 
d="M340 -10q-80 0 -141.5 35t-96 96.5t-34.5 140.5t36 140.5t98 96.5t141 35q49 0 90.5 -13t73 -36t51.5 -51.5t25 -58.5l-24 7l3 140h74v-522h-75v136l20 11q-6 -30 -27 -58t-54 -50.5t-74 -35.5t-86 -13zM356 62q60 0 107.5 25.5t74.5 71t27 103.5q0 57 -27 102t-74.5 72
t-107.5 27q-62 0 -109 -27t-74 -72t-27 -102q0 -58 26 -103t73.5 -71t110.5 -26zM371 -185q-28 0 -42.5 15t-14.5 39q0 23 14.5 39t42.5 16t42.5 -15t14.5 -40q0 -22 -14.5 -38t-42.5 -16zM373 592q-59 0 -99 38.5t-53 104.5l58 8q12 -42 37 -66t57 -24t57 24t37 66l58 -8
q-13 -66 -53 -104.5t-99 -38.5z" />
    <glyph glyph-name="uni1EB8" unicode="&#x1eb8;" horiz-adv-x="723" 
d="M137 0v700h480v-76h-402v-548h400v-76h-478zM176 322v76h385v-76h-385zM362 -185q-28 0 -42.5 15t-14.5 39q0 23 14.5 39t42.5 16t42.5 -15t14.5 -40q0 -22 -14.5 -38t-42.5 -16z" />
    <glyph glyph-name="uni1EB9" unicode="&#x1eb9;" horiz-adv-x="700" 
d="M368 -10q-87 0 -155.5 34t-106.5 95t-38 140q0 63 22 112.5t61.5 86.5t93 57t114.5 20q59 0 108 -18.5t85 -52.5t55 -80t17 -102l-1 -39h-494l-11 63h448l-18 -13v24q-2 36 -26 69.5t-66 55t-97 21.5q-62 0 -110.5 -21.5t-76 -65.5t-27.5 -112q0 -62 29 -107t81.5 -70
t125.5 -25q54 0 97 15t87 47l36 -56q-26 -21 -62 -39t-79 -28.5t-92 -10.5zM368 -185q-28 0 -42.5 15t-14.5 39q0 23 14.5 39t42.5 16t42.5 -15t14.5 -40q0 -22 -14.5 -38t-42.5 -16z" />
    <glyph glyph-name="uni1EBA" unicode="&#x1eba;" horiz-adv-x="723" 
d="M137 0v700h480v-76h-402v-548h400v-76h-478zM176 322v76h385v-76h-385zM370 763q-5 8 -8 16.5t-3 15.5q0 8 5 18t21 21t24.5 18t8.5 15q0 11 -11.5 16t-28.5 5q-15 0 -34 -4.5t-37 -12.5l-15 50q22 11 46.5 16.5t44.5 5.5q49 0 73 -21t24 -49q0 -23 -12 -36t-26 -21
t-22 -14t-8 -17q0 -2 0.5 -4.5t1.5 -6.5z" />
    <glyph glyph-name="uni1EBB" unicode="&#x1ebb;" horiz-adv-x="700" 
d="M368 -10q-87 0 -155.5 34t-106.5 95t-38 140q0 63 22 112.5t61.5 86.5t93 57t114.5 20q59 0 108 -18.5t85 -52.5t55 -80t17 -102l-1 -39h-494l-11 63h448l-18 -13v24q-2 36 -26 69.5t-66 55t-97 21.5q-62 0 -110.5 -21.5t-76 -65.5t-27.5 -112q0 -62 29 -107t81.5 -70
t125.5 -25q54 0 97 15t87 47l36 -56q-26 -21 -62 -39t-79 -28.5t-92 -10.5zM342 596q-5 8 -8 16.5t-3 15.5q0 8 5 18t21 21t24.5 18t8.5 15q0 11 -11.5 16t-28.5 5q-15 0 -34 -4.5t-37 -12.5l-15 50q22 11 46.5 16.5t44.5 5.5q49 0 73 -21t24 -49q0 -23 -12 -36t-26 -21
t-22 -14t-8 -17q0 -2 0.5 -4.5t1.5 -6.5z" />
    <glyph glyph-name="uni1EBC" unicode="&#x1ebc;" horiz-adv-x="723" 
d="M137 0v700h480v-76h-402v-548h400v-76h-478zM176 322v76h385v-76h-385zM458 774q-22 0 -44 8t-45 17q-14 6 -26 11t-23 5q-14 0 -24 -10.5t-10 -30.5h-61q0 47 29 74t67 27q22 0 42 -7.5t42 -17.5q12 -5 25.5 -10t23.5 -5q14 0 24 10t9 29h61q0 -28 -11.5 -50.5
t-31.5 -36t-47 -13.5z" />
    <glyph glyph-name="uni1EBD" unicode="&#x1ebd;" horiz-adv-x="700" 
d="M368 -10q-87 0 -155.5 34t-106.5 95t-38 140q0 63 22 112.5t61.5 86.5t93 57t114.5 20q59 0 108 -18.5t85 -52.5t55 -80t17 -102l-1 -39h-494l-11 63h448l-18 -13v24q-2 36 -26 69.5t-66 55t-97 21.5q-62 0 -110.5 -21.5t-76 -65.5t-27.5 -112q0 -62 29 -107t81.5 -70
t125.5 -25q54 0 97 15t87 47l36 -56q-26 -21 -62 -39t-79 -28.5t-92 -10.5zM417 613q-21 0 -36.5 9t-35.5 27q-14 13 -23.5 19t-19.5 6q-17 0 -29 -14.5t-16 -43.5l-54 7q4 45 32 76.5t72 31.5q19 0 34 -8t35 -26q15 -12 24 -19t20 -7q15 0 25.5 14t13.5 38l55 -7
q-2 -28 -14.5 -51.5t-33.5 -37.5t-49 -14z" />
    <glyph glyph-name="uni1EBE" unicode="&#x1ebe;" horiz-adv-x="723" 
d="M137 0v700h480v-76h-402v-548h400v-76h-478zM176 322v76h385v-76h-385zM264 760l-30 30l119 95h68l119 -95l-30 -30l-138 75h30zM537 868l-41 27l79 137l71 -49z" />
    <glyph glyph-name="uni1EBF" unicode="&#x1ebf;" horiz-adv-x="700" 
d="M368 -10q-87 0 -155.5 34t-106.5 95t-38 140q0 63 22 112.5t61.5 86.5t93 57t114.5 20q59 0 108 -18.5t85 -52.5t55 -80t17 -102l-1 -39h-494l-11 63h448l-18 -13v24q-2 36 -26 69.5t-66 55t-97 21.5q-62 0 -110.5 -21.5t-76 -65.5t-27.5 -112q0 -62 29 -107t81.5 -70
t125.5 -25q54 0 97 15t87 47l36 -56q-26 -21 -62 -39t-79 -28.5t-92 -10.5zM243 605l-33 28l112 107h74l111 -107l-32 -28l-131 85h30zM516 732l-41 28l75 138l70 -48z" />
    <glyph glyph-name="uni1EC0" unicode="&#x1ec0;" horiz-adv-x="723" 
d="M137 0v700h480v-76h-402v-548h400v-76h-478zM176 322v76h385v-76h-385zM264 760l-30 30l119 100h68l119 -100l-30 -30l-138 80h30zM549 868l-111 116l70 49l80 -136z" />
    <glyph glyph-name="uni1EC1" unicode="&#x1ec1;" horiz-adv-x="700" 
d="M368 -10q-87 0 -155.5 34t-106.5 95t-38 140q0 63 22 112.5t61.5 86.5t93 57t114.5 20q59 0 108 -18.5t85 -52.5t55 -80t17 -102l-1 -39h-494l-11 63h448l-18 -13v24q-2 36 -26 69.5t-66 55t-97 21.5q-62 0 -110.5 -21.5t-76 -65.5t-27.5 -112q0 -62 29 -107t81.5 -70
t125.5 -25q54 0 97 15t87 47l36 -56q-26 -21 -62 -39t-79 -28.5t-92 -10.5zM243 605l-33 28l112 107h73l112 -107l-32 -28l-131 85h30zM499 731l-106 118l71 49l74 -138z" />
    </font>
</defs>
</svg>
