<svg width="60" height="60" viewBox="0 0 60 60" fill="none" xmlns="http://www.w3.org/2000/svg">
<circle opacity="0.2" cx="30" cy="30" r="30" fill="#39F329"/>
<path d="M30.5 40C36.0228 40 40.5 35.5228 40.5 30C40.5 24.4772 36.0228 20 30.5 20C24.9772 20 20.5 24.4772 20.5 30C20.5 35.5228 24.9772 40 30.5 40Z" stroke="#39F329" stroke-width="1.5" stroke-miterlimit="10" stroke-linecap="round" stroke-linejoin="round"/>
<path d="M30.4996 32.8799C29.5896 32.8799 28.8496 32.1399 28.8496 31.2299V28.7599C28.8496 27.8499 29.5896 27.1099 30.4996 27.1099C31.4096 27.1099 32.1496 27.8499 32.1496 28.7599V31.2299C32.1496 32.1399 31.4096 32.8799 30.4996 32.8799Z" stroke="#39F329" stroke-width="1.5" stroke-linecap="round"/>
<path d="M35.48 31.4702C35.28 34.0502 33.12 36.0702 30.5 36.0702C27.74 36.0702 25.5 33.8302 25.5 31.0702V28.9302C25.5 26.1702 27.74 23.9302 30.5 23.9302C33.09 23.9302 35.22 25.9002 35.47 28.4202" stroke="#39F329" stroke-width="1.5" stroke-linecap="round"/>
</svg>
