<svg width="74" height="74" viewBox="0 0 74 74" fill="none" xmlns="http://www.w3.org/2000/svg">
<g opacity="0.5">
<path d="M55.5 6.16675H18.5C13.3817 6.16675 9.25 10.2676 9.25 15.3242V48.9634C9.25 54.0201 13.3817 58.1209 18.5 58.1209H20.8433C23.31 58.1209 25.6533 59.0767 27.38 60.8034L32.6525 66.0143C35.0575 68.3884 38.9733 68.3884 41.3783 66.0143L46.6508 60.8034C48.3775 59.0767 50.7517 58.1209 53.1875 58.1209H55.5C60.6183 58.1209 64.75 54.0201 64.75 48.9634V15.3242C64.75 10.2676 60.6183 6.16675 55.5 6.16675ZM32.005 40.1143C33.2692 40.1143 34.3175 41.1626 34.3175 42.4268C34.3175 43.6909 33.2692 44.7393 32.005 44.7393H23.7417C22.385 44.7393 21.1208 44.0917 20.3192 42.9817C19.5483 41.9334 19.3633 40.6384 19.7333 39.4051C20.8125 36.1059 23.4642 34.3176 25.8075 32.7142C28.2742 31.0492 29.6617 30.0009 29.6617 28.2126C29.6617 26.6092 28.3667 25.3142 26.7633 25.3142C25.16 25.3142 23.8958 26.6401 23.8958 28.2434C23.8958 29.5076 22.8475 30.5559 21.5833 30.5559C20.3192 30.5559 19.2708 29.5076 19.2708 28.2434C19.2708 24.1117 22.6317 20.7201 26.7942 20.7201C30.9567 20.7201 34.3175 24.0809 34.3175 28.2434C34.3175 32.5909 31.0492 34.8109 28.4283 36.5992C26.7942 37.7092 25.2525 38.7576 24.4817 40.1451H32.005V40.1143ZM52.4167 40.3301H51.7692V42.4576C51.7692 43.7218 50.7208 44.7701 49.4567 44.7701C48.1925 44.7701 47.1442 43.7218 47.1442 42.4576V40.3301H41.1008C41.1008 40.3301 41.1008 40.3301 41.07 40.3301C39.5592 40.3301 38.1717 39.5284 37.4008 38.2334C36.63 36.9076 36.63 35.2734 37.4008 33.9784C39.4975 30.3709 41.9333 26.2701 44.1533 22.6934C45.14 21.1209 47.0208 20.4117 48.7783 20.9051C50.5358 21.4292 51.7692 23.0326 51.7383 24.8826V35.7359H52.4167C53.6808 35.7359 54.7292 36.7843 54.7292 38.0484C54.7292 39.3126 53.6808 40.3301 52.4167 40.3301Z" fill="#FF5400"/>
<path d="M47.1439 35.7049V26.6399C45.3247 29.5999 43.4439 32.7757 41.748 35.6741H47.1439V35.7049Z" fill="#FF5400"/>
</g>
</svg>
