<svg width="75" height="74" viewBox="0 0 75 74" fill="none" xmlns="http://www.w3.org/2000/svg">
<path d="M50.4195 6.16675H24.5812C13.3578 6.16675 6.66699 12.8576 6.66699 24.0809V49.8884C6.66699 61.1426 13.3578 67.8334 24.5812 67.8334H50.3887C61.612 67.8334 68.3028 61.1426 68.3028 49.9193V24.0809C68.3337 12.8576 61.6428 6.16675 50.4195 6.16675ZM26.6162 33.8551C27.5103 32.9609 28.9903 32.9609 29.8845 33.8551L35.1878 39.1584V20.0726C35.1878 18.8084 36.2362 17.7601 37.5003 17.7601C38.7645 17.7601 39.8128 18.8084 39.8128 20.0726V39.1584L45.1162 33.8551C46.0103 32.9609 47.4903 32.9609 48.3845 33.8551C49.2787 34.7492 49.2787 36.2292 48.3845 37.1234L39.1345 46.3734C38.9187 46.5893 38.672 46.7434 38.3945 46.8667C38.117 46.9901 37.8087 47.0518 37.5003 47.0518C37.192 47.0518 36.9145 46.9901 36.6062 46.8667C36.3287 46.7434 36.082 46.5893 35.8662 46.3734L26.6162 37.1234C25.722 36.2292 25.722 34.7801 26.6162 33.8551ZM56.7403 53.0951C50.5428 55.1609 44.037 56.2092 37.5003 56.2092C30.9637 56.2092 24.4578 55.1609 18.2603 53.0951C17.0578 52.6942 16.4103 51.3684 16.8112 50.1659C17.212 48.9634 18.507 48.2851 19.7403 48.7168C31.2103 52.5401 43.8212 52.5401 55.2912 48.7168C56.4937 48.3159 57.8195 48.9634 58.2203 50.1659C58.5903 51.3993 57.9428 52.6942 56.7403 53.0951Z" fill="#FF5400"/>
</svg>
