<svg width="74" height="74" viewBox="0 0 74 74" fill="none" xmlns="http://www.w3.org/2000/svg">
<g opacity="0.5">
<path d="M49.9195 6.16675H24.0812C12.8578 6.16675 6.16699 12.8576 6.16699 24.0809V49.8884C6.16699 61.1426 12.8578 67.8334 24.0812 67.8334H49.8887C61.112 67.8334 67.8028 61.1426 67.8028 49.9193V24.0809C67.8337 12.8576 61.1428 6.16675 49.9195 6.16675ZM26.1162 27.6884L35.3662 18.4384C35.582 18.2226 35.8287 18.0684 36.1062 17.9451C36.6612 17.6984 37.3087 17.6984 37.8637 17.9451C38.1412 18.0684 38.3878 18.2226 38.6037 18.4384L47.8537 27.6884C48.7478 28.5826 48.7478 30.0626 47.8537 30.9567C47.3912 31.4192 46.8053 31.6351 46.2195 31.6351C45.6337 31.6351 45.0478 31.4192 44.5853 30.9567L39.282 25.6534V44.7393C39.282 46.0034 38.2337 47.0518 36.9695 47.0518C35.7053 47.0518 34.657 46.0034 34.657 44.7393V25.6534L29.3537 30.9567C28.4595 31.8509 26.9795 31.8509 26.0853 30.9567C25.1912 30.0626 25.222 28.6134 26.1162 27.6884ZM56.2403 53.0951C50.0428 55.1609 43.537 56.2092 37.0003 56.2092C30.4637 56.2092 23.9578 55.1609 17.7603 53.0951C16.5578 52.6942 15.9103 51.3684 16.3112 50.1659C16.712 48.9634 18.0378 48.2851 19.2403 48.7168C30.7103 52.5401 43.3212 52.5401 54.7912 48.7168C55.9937 48.3159 57.3195 48.9634 57.7203 50.1659C58.0903 51.3993 57.4428 52.6942 56.2403 53.0951Z" fill="#FF5400"/>
</g>
</svg>
