<svg width="326" height="130" viewBox="0 0 326 130" fill="none" xmlns="http://www.w3.org/2000/svg">
<path fill-rule="evenodd" clip-rule="evenodd" d="M156.136 91.4872V65.3521H169.666C175.21 65.3521 179.89 63.5001 183.705 59.8473L184.62 58.9213C191.589 51.3586 191.131 39.5773 183.705 32.5805C179.992 28.8763 174.905 26.8699 169.666 26.9728H147.946V91.4872H156.136ZM156.136 57.4289V34.8952H169.872C172.823 34.8952 175.621 36.027 177.707 38.0849C182.133 42.4064 182.235 49.609 177.961 54.0849C175.875 56.2971 172.925 57.5318 169.872 57.4289H156.136ZM222.821 50.7924C219.311 47.5512 214.53 45.9049 208.477 45.9049C200.694 45.9049 194.845 48.7859 190.979 54.4965L198.202 59.0753C200.847 55.1653 204.459 53.2104 209.036 53.2104C211.936 53.2104 214.733 54.2907 216.921 56.2457C219.057 58.0978 220.278 60.7731 220.278 63.6026V65.5062C217.124 63.757 213.157 62.8309 208.273 62.8309C202.577 62.8309 197.999 64.1686 194.591 66.8952C191.183 69.6219 189.453 73.2232 189.453 77.802C189.351 81.9692 191.132 85.9306 194.285 88.6058C197.49 91.4869 201.559 92.9274 206.341 92.9274C211.987 92.9274 216.463 90.4065 219.871 85.3647H220.227V91.4869H228.06V64.2714C228.06 58.5608 226.331 54.0335 222.821 50.7924ZM200.594 83.358C198.915 82.1233 197.897 80.1169 197.897 77.9561C197.897 75.5381 199.017 73.5317 201.204 71.9368C203.443 70.342 206.241 69.5188 209.548 69.5188C214.126 69.4674 217.687 70.4963 220.231 72.5542C220.231 76.0526 218.857 79.0879 216.161 81.6603C213.719 84.1297 210.412 85.5188 206.953 85.5188C204.664 85.5702 202.425 84.7985 200.594 83.358ZM245.659 110.882L273.025 47.3452H264.124L251.458 79.0365H251.305L238.335 47.3452H229.433L247.389 88.6571L237.216 110.882H245.659Z" fill="#7D7D7D"/>
<path d="M127.863 59.6934C127.863 57.1725 127.66 54.6516 127.253 52.1821H92.7148V66.4329H112.502C111.688 71.0117 109.043 75.1274 105.177 77.6998V86.9602H116.978C123.895 80.5294 127.863 71.0117 127.863 59.6934Z" fill="#4285F4"/>
<path d="M92.7164 95.9118C102.584 95.9118 110.926 92.6192 116.979 86.9601L105.178 77.6996C101.872 79.9633 97.6504 81.2495 92.7164 81.2495C83.1536 81.2495 75.066 74.7157 72.1667 65.9697H60.0098V75.5389C66.2154 88.0405 78.8809 95.9118 92.7164 95.9118Z" fill="#34A853"/>
<path d="M72.1679 65.9695C70.6417 61.3907 70.6417 56.4003 72.1679 51.7701V42.2524H60.0091C54.7691 52.6962 54.7691 65.0434 60.0091 75.4871L72.1679 65.9695Z" fill="#FBBC04"/>
<path d="M92.7164 36.4905C97.9556 36.3876 102.991 38.3941 106.755 42.0468L117.234 31.4487C110.57 25.1722 101.821 21.7253 92.7164 21.8282C78.8809 21.8282 66.2154 29.751 60.0098 42.2526L72.1667 51.8217C75.066 43.0243 83.1536 36.4905 92.7164 36.4905Z" fill="#EA4335"/>
</svg>
