<svg width="326" height="130" viewBox="0 0 326 130" fill="none" xmlns="http://www.w3.org/2000/svg">
<path fill-rule="evenodd" clip-rule="evenodd" d="M95.7681 31.6017C93.2846 34.5516 89.311 36.8783 85.3375 36.5459C84.8408 32.5573 86.7862 28.3193 89.0627 25.7018C91.5462 22.6688 95.8923 20.5082 99.4105 20.342C99.8245 24.4969 98.2102 28.5686 95.7681 31.6017ZM99.3689 37.3354C95.8683 37.1331 92.6741 38.3921 90.094 39.4091C88.4337 40.0635 87.0277 40.6177 85.9581 40.6177C84.7577 40.6177 83.2937 40.0339 81.6499 39.3784C79.4961 38.5195 77.0336 37.5375 74.4513 37.5847C68.5323 37.6678 63.0273 41.0332 60.0057 46.3929C53.797 57.1124 58.3914 72.9839 64.3932 81.709C67.332 86.03 70.8502 90.7665 75.4861 90.6003C77.5256 90.5231 78.9927 89.8982 80.511 89.2515C82.2589 88.507 84.0748 87.7335 86.9101 87.7335C89.6471 87.7335 91.3836 88.4868 93.0504 89.2099C94.6354 89.8975 96.1574 90.5578 98.4169 90.5173C103.218 90.4342 106.24 86.1962 109.179 81.8752C112.35 77.2376 113.744 72.7115 113.955 72.0246C113.967 71.9853 113.976 71.9586 113.98 71.9451C113.975 71.9401 113.936 71.9221 113.867 71.8903C112.806 71.4031 104.703 67.6794 104.626 57.6941C104.548 49.3128 111.053 45.0664 112.077 44.3979C112.139 44.3572 112.181 44.3298 112.2 44.3155C108.061 38.1663 101.604 37.5016 99.3689 37.3354ZM132.606 90.0604V25.2865H156.82C169.321 25.2865 178.054 33.9286 178.054 46.5593C178.054 59.19 169.155 67.9151 156.489 67.9151H142.623V90.0604H132.606ZM142.622 33.762H154.171C162.863 33.762 167.83 38.4154 167.83 46.6004C167.83 54.7854 162.863 59.4804 154.129 59.4804H142.622V33.762ZM211.126 82.2903C208.477 87.3592 202.641 90.5584 196.35 90.5584C187.036 90.5584 180.538 84.9909 180.538 76.5982C180.538 68.2885 186.83 63.5105 198.461 62.8041L210.961 62.0563V58.4831C210.961 53.2065 207.525 50.3396 201.399 50.3396C196.35 50.3396 192.666 52.9572 191.921 56.9458H182.897C183.187 48.5531 191.051 42.4455 201.689 42.4455C213.154 42.4455 220.605 48.47 220.605 57.8183V90.0598H211.333V82.2903H211.126ZM199.039 82.8723C193.7 82.8723 190.306 80.2963 190.306 76.3492C190.306 72.2774 193.576 69.9092 199.826 69.5352L210.96 68.8289V72.4852C210.96 78.5512 205.828 82.8723 199.039 82.8723ZM251.358 92.5949C247.343 103.938 242.749 107.677 232.981 107.677C232.236 107.677 229.752 107.594 229.173 107.428V99.6581C229.793 99.7412 231.325 99.8243 232.111 99.8243C236.54 99.8243 239.024 97.9547 240.555 93.0935L241.466 90.2267L224.495 43.0693H234.967L246.764 81.3353H246.971L258.767 43.0693H268.95L251.358 92.5949Z" fill="#5C5C5C"/>
</svg>
