<svg width="334" height="134" viewBox="0 0 334 134" fill="none" xmlns="http://www.w3.org/2000/svg">
<path d="M255.027 4.22478L206.27 4.21216H206.256C206.218 4.21216 206.182 4.21847 206.145 4.21847C199.447 4.42276 191.104 9.77304 189.585 16.3704L166.527 117.979C165.008 124.638 169.14 130.056 175.79 130.156H227.012C233.559 129.833 239.924 124.544 241.417 118.022L264.476 16.4122C266.019 9.68628 261.788 4.22399 255.026 4.22399" fill="#01798A"/>
<path d="M166.527 117.979L189.585 16.3705C191.104 9.77316 199.447 4.42287 206.145 4.21858L186.758 4.20675L151.831 4.20044C145.114 4.3369 136.663 9.72504 135.145 16.3721L112.08 117.98C110.554 124.639 114.694 130.057 121.339 130.156H175.791C169.141 130.057 165.008 124.639 166.528 117.98" fill="#024381"/>
<path d="M112.08 117.979L135.145 16.3702C136.664 9.72393 145.115 4.33579 151.831 4.19854L107.087 4.1875C100.333 4.1875 91.6726 9.63717 90.1289 16.3702L67.0643 117.979C66.9242 118.599 66.8457 119.207 66.7998 119.801V121.685C67.2513 126.54 70.9738 130.074 76.3239 130.155H121.34C114.694 130.057 110.555 124.639 112.08 117.979Z" fill="#DD0228"/>
<path d="M152.774 78.238H153.621C154.398 78.238 154.922 77.9769 155.168 77.4626L157.368 74.1837H163.26L162.031 76.3402H169.096L168.2 79.6452H159.793C158.824 81.0957 157.632 81.7773 156.2 81.6968H151.821L152.773 78.238M151.805 82.9738H167.285L166.298 86.5643H160.073L159.123 90.0295H165.18L164.194 93.62H158.137L156.729 98.7407C156.381 99.5965 156.84 99.9815 158.096 99.8947H163.033L162.118 103.231H152.64C150.844 103.231 150.227 102.207 150.791 100.156L152.59 93.6215H148.719L149.703 90.031H153.575L154.524 86.5659H150.823L151.807 82.9754L151.805 82.9738ZM176.511 74.1577L176.268 76.2597C176.268 76.2597 179.187 74.0772 181.839 74.0772H191.637L187.89 87.5866C187.579 89.131 186.247 89.8985 183.893 89.8985H172.786L170.185 99.3844C170.035 99.8931 170.247 100.153 170.807 100.153H172.993L172.19 103.098H166.635C164.502 103.098 163.615 102.459 163.967 101.176L171.319 74.1569H176.512L176.511 74.1577ZM184.809 77.9769H176.063L175.017 81.6227C175.017 81.6227 176.473 80.5759 178.908 80.5381C181.335 80.5002 184.106 80.5381 184.106 80.5381L184.809 77.9769ZM181.639 86.4334C182.286 86.521 182.648 86.2662 182.691 85.6643L183.227 83.7429H174.468L173.733 86.4326H181.639V86.4334ZM175.732 90.7985H180.781L180.687 92.9747H182.031C182.71 92.9747 183.047 92.7578 183.047 92.3303L183.445 90.9231H187.642L187.082 92.9755C186.608 94.6864 185.352 95.5793 183.309 95.6668H180.619L180.607 99.3859C180.558 99.9823 181.098 100.285 182.212 100.285H184.739L183.924 103.23H177.86C176.16 103.311 175.326 102.505 175.344 100.793L175.732 90.7985ZM114.549 56.1601C113.864 59.5022 112.277 62.0688 109.815 63.8909C107.374 65.683 104.228 66.5814 100.374 66.5814C96.7469 66.5814 94.0888 65.6641 92.3923 63.8231C91.2154 62.5153 90.6309 60.8533 90.6309 58.8451C90.6309 58.0145 90.7307 57.1216 90.9295 56.1609L95.0353 36.4462H101.235L97.1865 55.9369C97.0708 56.4267 97.0146 56.9284 97.0186 57.4308C97.0122 58.4294 97.2609 59.2474 97.7646 59.8863C98.4988 60.8352 99.6908 61.3053 101.351 61.3053C103.259 61.3053 104.83 60.8407 106.051 59.9036C107.271 58.9737 108.068 57.6533 108.425 55.9361L112.488 36.4446H118.657L114.548 56.1609M140.588 48.4048H145.444L141.64 66.0001H136.793L140.588 48.4048ZM142.117 41.9944H147.016L146.1 46.2657H141.202L142.117 41.9944ZM149.743 64.6608C148.473 63.4516 147.831 61.8212 147.825 59.7506C147.825 59.3972 147.847 58.9942 147.894 58.554C147.941 58.1076 148 57.6738 148.084 57.2707C148.659 54.4122 149.886 52.1436 151.775 50.4691C153.662 48.789 155.937 47.9458 158.602 47.9458C160.784 47.9458 162.514 48.5539 163.782 49.7678C165.048 50.9897 165.682 52.6382 165.682 54.734C165.682 55.0929 165.655 55.5086 165.608 55.955C165.553 56.3951 165.486 56.8337 165.406 57.2699C164.843 60.0851 163.62 62.3291 161.731 63.9722C159.841 65.627 157.572 66.4513 154.927 66.4513C152.736 66.4513 151.011 65.8565 149.744 64.66M158.998 61.1759C159.854 60.2523 160.466 58.8506 160.841 56.9852C160.897 56.6933 160.947 56.3896 160.978 56.086C161.009 55.7886 161.021 55.5094 161.021 55.2554C161.021 54.17 160.744 53.3276 160.187 52.7321C159.634 52.131 158.847 51.8329 157.829 51.8329C156.484 51.8329 155.388 52.303 154.529 53.2463C153.663 54.1889 153.05 55.615 152.664 57.5121C152.611 57.8039 152.567 58.095 152.527 58.3805C152.496 58.6724 152.487 58.9445 152.493 59.1929C152.493 60.272 152.77 61.1026 153.327 61.6918C153.881 62.281 154.665 62.5721 155.696 62.5721C157.047 62.5721 158.142 62.1059 158.999 61.1767" fill="#B6B6B6"/>
<path d="M197.192 78.3867L198.362 74.2826H204.283L204.028 75.7892C204.028 75.7892 207.052 74.2826 209.231 74.2826H216.552L215.389 78.3867H214.237L208.715 97.7433H209.866L208.771 101.587H207.62L207.14 103.254H201.407L201.885 101.587H190.574L191.677 97.7433H192.81L198.338 78.3867H197.192M203.58 78.3867L202.074 83.6249C202.074 83.6249 204.652 82.639 206.874 82.3605C207.364 80.5321 208.006 78.3867 208.006 78.3867H203.58ZM201.376 86.0812L199.864 91.5687C199.864 91.5687 202.721 90.1671 204.682 90.0495C205.248 87.9285 205.815 86.082 205.815 86.082H201.377L201.376 86.0812ZM202.483 97.7433L203.616 93.7623H199.197L198.057 97.7433H202.483ZM216.801 74.0287H222.368L222.605 76.074C222.567 76.5946 222.879 76.843 223.538 76.843H224.522L223.527 80.3081H219.437C217.875 80.3886 217.072 79.7938 216.997 78.5105L216.802 74.0287H216.801ZM215.171 81.4629H233.199L232.141 85.1836H226.401L225.416 88.6424H231.151L230.086 92.3559H223.7L222.255 94.533H225.382L226.104 98.891C226.189 99.3248 226.576 99.5354 227.236 99.5354H228.207L227.187 103.124H223.75C221.969 103.212 221.049 102.616 220.973 101.333L220.145 97.352L217.3 101.587C216.628 102.784 215.594 103.341 214.2 103.254H208.952L209.972 99.664H211.61C212.282 99.664 212.842 99.3674 213.346 98.7647L217.799 92.3543H212.059L213.123 88.6408H219.348L220.338 85.182H214.107L215.171 81.4613M120.262 48.3973H124.642L124.141 50.9388L124.77 50.2131C126.19 48.7002 127.914 47.9501 129.949 47.9501C131.792 47.9501 133.121 48.4833 133.956 49.556C134.777 50.6288 135.002 52.1109 134.612 54.0134L132.199 66.0036H127.698L129.876 55.1358C130.1 54.0134 130.038 53.1765 129.692 52.637C129.351 52.0975 128.696 51.8317 127.753 51.8317C126.595 51.8317 125.621 52.1905 124.827 52.9044C124.03 53.6238 123.504 54.6223 123.245 55.8923L121.237 66.0044H116.727L120.261 48.3973M170.483 48.3973H174.867L174.369 50.9388L174.99 50.2131C176.411 48.7002 178.141 47.9501 180.17 47.9501C182.013 47.9501 183.344 48.4833 184.172 49.556C184.989 50.6288 185.224 52.1109 184.827 54.0134L182.423 66.0036H177.916L180.096 55.1358C180.32 54.0134 180.257 53.1765 179.914 52.637C179.56 52.0975 178.918 51.8317 177.979 51.8317C176.82 51.8317 175.85 52.1905 175.047 52.9044C174.25 53.6238 173.721 54.6223 173.472 55.8923L171.455 66.0044H166.951L170.483 48.3973ZM192.148 37.4854H204.873C207.319 37.4854 209.211 38.0375 210.512 39.1213C211.807 40.22 212.455 41.7937 212.455 43.8461V43.9084C212.455 44.2988 212.429 44.739 212.391 45.2162C212.327 45.7005 212.244 46.1824 212.143 46.6612C211.582 49.3762 210.282 51.5595 208.271 53.2144C206.253 54.8637 203.864 55.6943 201.112 55.6943H194.288L192.178 66.0044H186.27L192.148 37.4854ZM195.328 50.7352H200.987C202.462 50.7352 203.632 50.3937 204.487 49.7185C205.334 49.0362 205.894 47.995 206.204 46.5815C206.254 46.3205 206.285 46.0854 206.323 45.8685C206.342 45.6642 206.367 45.4591 206.367 45.2611C206.367 44.2499 206.006 43.5187 205.283 43.0596C204.561 42.5935 203.428 42.3718 201.86 42.3718H197.054L195.329 50.736M238.9 69.4096C237.031 73.3645 235.252 75.6701 234.206 76.7428C233.16 77.8038 231.086 80.2711 226.094 80.0849L226.524 77.0662C230.726 75.7766 232.998 69.9665 234.293 67.3942L232.749 48.4478L235.999 48.4044H238.725L239.019 60.2897L244.129 48.4044H249.303L238.9 69.4096ZM224.433 49.836L222.377 51.2432C220.23 49.5694 218.269 48.5338 214.485 50.2825C209.33 52.663 205.022 70.9224 219.216 64.908L220.025 65.8632L225.61 66.006L229.277 49.4148L224.433 49.836ZM221.257 58.9062C220.36 61.5415 218.356 63.2831 216.787 62.787C215.218 62.3035 214.657 59.7612 215.567 57.1204C216.464 54.4788 218.481 52.7435 220.037 53.2396C221.606 53.7231 222.171 56.2654 221.257 58.9062Z" fill="#B6B6B6"/>
</svg>
