<?xml version="1.0" standalone="no"?>
<!DOCTYPE svg PUBLIC "-//W3C//DTD SVG 1.1//EN" "http://www.w3.org/Graphics/SVG/1.1/DTD/svg11.dtd" >
<svg xmlns="http://www.w3.org/2000/svg" xmlns:xlink="http://www.w3.org/1999/xlink" version="1.1">
<metadata>
Created by FontForge 20201107 at Fri Jul 30 19:18:20 2021
 By 
Copyright 2019 The Lexend Project Authors (https://github.com/googlefonts/lexend)
</metadata>
<defs>
<font id="LexendExa-ExtraLight" horiz-adv-x="0" >
  <font-face 
    font-family="Lexend Exa ExtraLight"
    font-weight="250"
    font-stretch="normal"
    units-per-em="1000"
    panose-1="0 0 0 0 0 0 0 0 0 0"
    ascent="800"
    descent="-200"
    x-height="520"
    cap-height="700"
    bbox="-189 -231 1595 1095"
    underline-thickness="50"
    underline-position="-125"
    unicode-range="U+000D-FB02"
  />
<missing-glyph horiz-adv-x="584" 
d="M75 0q-35 0 -35 35v630q0 35 35 35h434q35 0 35 -35v-630q0 -35 -35 -35h-434zM75 30h413q3 0 4 2t-1 4l-415 599q-2 3 -4 2.5t-2 -4.5v-598q0 -5 5 -5zM508 65q2 -3 4 -2.5t2 4.5v598q0 5 -5 5h-414q-3 0 -4 -2t1 -4z" />
    <glyph glyph-name="fi" unicode="fi" horiz-adv-x="845" 
d="M192 0v597q0 40 17.5 70.5t51 49t78.5 18.5q36 0 64.5 -11t48.5 -31l-18 -43q-21 21 -47 30t-50 9q-34 0 -55 -12t-31 -33t-10 -48v-596h-18h-16.5h-14.5zM75 473v46h349v-46h-349zM646 0v520h50v-520h-50zM671 630q-22 0 -34 12t-12 33q0 20 12 32.5t34 12.5t34 -12
t12 -33q0 -20 -12 -32.5t-34 -12.5z" />
    <glyph glyph-name="fl" unicode="fl" horiz-adv-x="797" 
d="M192 0v597q0 40 17.5 70.5t51 49t78.5 18.5q36 0 64.5 -11t48.5 -31l-18 -43q-21 21 -47 30t-50 9q-34 0 -55 -12t-31 -33t-10 -48v-596h-18h-16.5h-14.5zM75 473v46h349v-46h-349zM623 0v740h50v-740h-50z" />
    <glyph glyph-name="f_f" unicode="ff" horiz-adv-x="998" 
d="M192 0v597q0 40 17.5 70.5t51 49t78.5 18.5q36 0 64.5 -11t48.5 -31l-18 -43q-21 21 -47 30t-50 9q-34 0 -55 -12t-31 -33t-10 -48v-596h-18h-16.5h-14.5zM75 473v46h349v-46h-349zM691 0v597q0 40 17.5 70.5t51 49t78.5 18.5q36 0 64.5 -11t48.5 -31l-18 -43
q-21 21 -47 30t-50 9q-34 0 -55 -12t-31 -33t-10 -48v-596h-18h-16.5h-14.5zM574 473v46h349v-46h-349z" />
    <glyph glyph-name="f_f_i" unicode="ffi" horiz-adv-x="1344" 
d="M192 0v597q0 40 17.5 70.5t51 49t78.5 18.5q36 0 64.5 -11t48.5 -31l-18 -43q-21 21 -47 30t-50 9q-34 0 -55 -12t-31 -33t-10 -48v-596h-18h-16.5h-14.5zM75 473v46h349v-46h-349zM691 0v597q0 40 17.5 70.5t51 49t78.5 18.5q36 0 64.5 -11t48.5 -31l-18 -43
q-21 21 -47 30t-50 9q-34 0 -55 -12t-31 -33t-10 -48v-596h-18h-16.5h-14.5zM574 473v46h349v-46h-349zM1145 0v520h50v-520h-50zM1170 630q-22 0 -34 12t-12 33q0 20 12 32.5t34 12.5t34 -12t12 -33q0 -20 -12 -32.5t-34 -12.5z" />
    <glyph glyph-name="f_f_l" unicode="ffl" horiz-adv-x="1295" 
d="M192 0v597q0 40 17.5 70.5t51 49t78.5 18.5q36 0 64.5 -11t48.5 -31l-18 -43q-21 21 -47 30t-50 9q-34 0 -55 -12t-31 -33t-10 -48v-596h-18h-16.5h-14.5zM75 473v46h349v-46h-349zM691 0v597q0 40 17.5 70.5t51 49t78.5 18.5q36 0 64.5 -11t48.5 -31l-18 -43
q-21 21 -47 30t-50 9q-34 0 -55 -12t-31 -33t-10 -48v-596h-18h-16.5h-14.5zM574 473v46h349v-46h-349zM1122 0v740h50v-740h-50z" />
    <glyph glyph-name=".notdef" horiz-adv-x="584" 
d="M75 0q-35 0 -35 35v630q0 35 35 35h434q35 0 35 -35v-630q0 -35 -35 -35h-434zM75 30h413q3 0 4 2t-1 4l-415 599q-2 3 -4 2.5t-2 -4.5v-598q0 -5 5 -5zM508 65q2 -3 4 -2.5t2 4.5v598q0 5 -5 5h-414q-3 0 -4 -2t1 -4z" />
    <glyph glyph-name=".null" 
 />
    <glyph glyph-name="nonmarkingreturn" horiz-adv-x="333" 
 />
    <glyph glyph-name="CR" unicode="&#xd;" horiz-adv-x="297" 
 />
    <glyph glyph-name="space" unicode=" " horiz-adv-x="362" 
 />
    <glyph glyph-name="exclam" unicode="!" horiz-adv-x="373" 
d="M178 241q-8 69 -12.5 144.5t-6 152t-1.5 145.5v17h64v-17q0 -71 -1.5 -149t-5.5 -153t-13 -140h-24zM188 -9q-24 0 -37 13t-13 36q0 21 13.5 35t36.5 14q24 0 37 -13t13 -36q0 -21 -13.5 -35t-36.5 -14z" />
    <glyph glyph-name="quotedbl" unicode="&#x22;" horiz-adv-x="463" 
d="M274 434l29 266h77l-67 -266h-39zM79 434l29 266h77l-67 -266h-39z" />
    <glyph glyph-name="numbersign" unicode="#" horiz-adv-x="787" 
d="M467 0l120 700h50l-118 -700h-52zM98 140l33 231h443l-32 -231h-444zM127 55l87 518h238l-86 -518h-239zM100 463v48h630v-48h-630z" />
    <glyph glyph-name="dollar" unicode="$" horiz-adv-x="717" 
d="M366 -10q-88 0 -162.5 33t-122.5 86l36 37q45 -46 106.5 -76t142.5 -30q62 0 111.5 18t77.5 52t28 79q0 28 -12 48t-32.5 34t-49 24.5t-63 18t-74.5 13.5q-78 13 -131.5 36t-81 60t-27.5 92q0 43 19 78t53.5 60.5t79.5 39.5t99 14q91 0 153 -29.5t99 -76.5l-36 -38
q-34 41 -87.5 67.5t-129.5 26.5q-55 0 -100 -18t-71.5 -49t-26.5 -73q0 -30 14 -51.5t40 -37t66.5 -26.5t95.5 -22q54 -9 100 -23.5t81 -35.5t54.5 -53t19.5 -78q0 -58 -33.5 -103.5t-94 -71t-141.5 -25.5zM334 -91v451l50 -32v-419h-50zM388 327l-50 33v422h50v-455z" />
    <glyph glyph-name="percent" unicode="%" horiz-adv-x="977" 
d="M215 0l474 700h58l-475 -700h-57zM230 305q-49 0 -86.5 26.5t-58 72t-20.5 102.5q0 58 20.5 104t58.5 72.5t87 26.5t86.5 -26.5t58 -72.5t20.5 -104q0 -56 -21.5 -101.5t-59 -72.5t-85.5 -27zM231 353q36 0 61.5 19t38.5 53.5t13 81.5t-13 82t-39 53.5t-62 18.5
q-35 0 -61 -19t-39 -54.5t-13 -81.5q0 -47 13.5 -81.5t39 -53t61.5 -18.5zM737 -12q-50 0 -87 26.5t-57.5 72t-20.5 102.5q0 58 20.5 104t58.5 72.5t87 26.5t86.5 -26.5t58 -72.5t20.5 -104q0 -56 -21.5 -101.5t-59 -72.5t-85.5 -27zM738 37q36 0 61.5 18.5t38.5 53t13 81.5
t-13.5 82t-39 53.5t-61.5 18.5q-35 0 -61 -19.5t-39 -54t-13 -81.5t13.5 -81.5t39 -52.5t61.5 -18z" />
    <glyph glyph-name="ampersand" unicode="&#x26;" horiz-adv-x="811" 
d="M653 0l-69 70l-24 27l-206 208q-38 39 -66 69t-48 54.5t-29 47.5t-9 51q0 49 27 89.5t77 65.5t115 25q56 0 100.5 -16.5t78.5 -46t52 -68.5l-40 -31q-32 62 -80 86.5t-108 24.5q-53 0 -90.5 -15t-57 -43t-19.5 -67q0 -25 13 -50t31.5 -47t38.5 -40.5t32 -31.5l231 -232
l23 -25l101 -105h-74zM371 -11q-91 0 -155 28.5t-98 79t-34 117.5q0 69 45.5 128t135.5 92l36 -38q-81 -23 -121 -70.5t-40 -106.5q0 -50 29 -90t82 -64t125 -24q52 0 101 18t87 54t63.5 90t32.5 127h60q-7 -67 -29 -122t-54.5 -96t-74 -68.5t-90 -41t-101.5 -13.5z" />
    <glyph glyph-name="quotesingle" unicode="'" horiz-adv-x="259" 
d="M79 434l29 266h72l-65 -266h-36z" />
    <glyph glyph-name="parenleft" unicode="(" horiz-adv-x="476" 
d="M357 -183q-152 78 -227 191.5t-75 249.5q0 135 75.5 249.5t226.5 191.5l28 -36q-137 -78 -207.5 -181.5t-70.5 -223.5q0 -121 71 -224t207 -181z" />
    <glyph glyph-name="parenright" unicode=")" horiz-adv-x="476" 
d="M119 -183l-28 36q137 78 207.5 181.5t70.5 223.5q0 121 -71 224t-207 181l28 36q152 -78 227 -191.5t75 -249.5q0 -135 -75.5 -249.5t-226.5 -191.5z" />
    <glyph glyph-name="asterisk" unicode="*" horiz-adv-x="506" 
d="M228 368l8 148l8 -6l-131 -78l-23 41l146 70l-4 -18l-144 70l24 41l137 -82l-13 -12l-8 158h48l-8 -155l-12 9l139 82l22 -41l-142 -69l-2 15l145 -68l-26 -40l-133 78l9 4l8 -147h-48z" />
    <glyph glyph-name="plus" unicode="+" horiz-adv-x="707" 
d="M89 265v52h529v-52h-529zM321 26l6 645l58 -130l-6 -645z" />
    <glyph glyph-name="comma" unicode="," horiz-adv-x="329" 
d="M119 -154l-20 27q30 18 46 37t16 41q0 13 -4 23.5t-20 22.5q-10 7 -18.5 17.5t-8.5 23.5q0 19 12.5 30t32.5 11q22 0 37.5 -10t24 -29.5t8.5 -45.5q0 -24 -6 -44t-20 -38t-33.5 -34.5t-46.5 -31.5z" />
    <glyph glyph-name="hyphen" unicode="-" horiz-adv-x="480" 
d="M87 247v51h306v-51h-306z" />
    <glyph glyph-name="period" unicode="." horiz-adv-x="356" 
d="M178 -10q-24 0 -36.5 13t-12.5 37q0 21 13 35.5t36 14.5q24 0 36.5 -13t12.5 -37q0 -21 -13 -35.5t-36 -14.5z" />
    <glyph glyph-name="slash" unicode="/" horiz-adv-x="659" 
d="M96 -107l400 807h58l-398 -807h-60z" />
    <glyph glyph-name="zero" unicode="0" horiz-adv-x="703" 
d="M354 -10q-92 0 -155 43t-95 124t-32 193t32 193t95 124t155 43q91 0 152.5 -43t93.5 -124t32 -193t-32 -193t-93.5 -124t-152.5 -43zM354 40q108 0 166.5 80.5t58.5 229.5t-58.5 229.5t-166.5 80.5q-110 0 -169.5 -80.5t-59.5 -229.5t59.5 -229.5t169.5 -80.5z" />
    <glyph glyph-name="one" unicode="1" horiz-adv-x="484" 
d="M232 20v643l25 -13l-137 -91l-19 48l165 103h16v-690h-50zM124 0v50h263v-50h-263z" />
    <glyph glyph-name="two" unicode="2" horiz-adv-x="639" 
d="M117 0l-16 39l261 271q21 20 44 46.5t45 56.5t35.5 60t13.5 58q0 42 -19.5 70.5t-57 43.5t-89.5 15q-41 0 -82 -13.5t-76.5 -47t-60.5 -95.5l-40 25q24 59 63 99.5t90 61t111 20.5q62 0 110.5 -22.5t76.5 -63t28 -93.5q0 -30 -10 -57.5t-26 -53t-36 -49t-40.5 -45.5
t-38.5 -43l-247 -259l-3 23h423v-47h-459z" />
    <glyph glyph-name="three" unicode="3" horiz-adv-x="623" 
d="M309 -10q-84 0 -148.5 36.5t-112.5 111.5l44 32q29 -44 62.5 -72.5t73 -43t83.5 -14.5q56 0 101 22.5t70.5 61t25.5 90.5q0 50 -24.5 89.5t-66 62t-93.5 22.5q-20 0 -39 -4t-38 -15t-42 -32l-20 41l294 301l11 -27h-383v48h401l18 -45l-262 -260l-17 19q18 12 36 18t44 6
q51 0 94 -17t73.5 -47t48.5 -70t18 -87q0 -66 -33 -118t-89.5 -80.5t-129.5 -28.5z" />
    <glyph glyph-name="four" unicode="4" horiz-adv-x="683" 
d="M446 0v661l23 -7l-380 -443l-10 29h555v-50h-543l-29 59l388 451h46v-700h-50z" />
    <glyph glyph-name="five" unicode="5" horiz-adv-x="644" 
d="M301 -7q-75 0 -134.5 31.5t-99.5 85.5l33 38q40 -55 93.5 -80t108.5 -25q63 0 111 27t76.5 72t28.5 101q0 50 -26 90t-71 64t-103 24q-39 0 -77.5 -10t-67.5 -23.5t-45 -24.5l-32 40l41 297h394v-47h-379l29 16l-40 -264l-20 4q22 15 54.5 29t71 22t76.5 8q69 0 124 -29
t88 -80.5t33 -119.5q0 -70 -34.5 -125.5t-95 -88t-137.5 -32.5z" />
    <glyph glyph-name="six" unicode="6" horiz-adv-x="683" 
d="M344 -10q-54 0 -101 18t-82 51t-54 79.5t-19 101.5q0 30 8.5 63t24 68t36.5 71.5t46 72.5l128 185h54l4 -10l-139 -194q-21 -27 -41 -60t-40.5 -74t-42.5 -92l-13 39q16 31 40 56.5t54 46.5t67 33t79 12q67 0 121.5 -30.5t86.5 -83t32 -119.5q0 -65 -33.5 -118.5
t-90 -84.5t-125.5 -31zM338 39q55 0 101.5 24t73.5 65.5t27 93.5q0 51 -25.5 93t-71.5 67t-105 25q-57 0 -101.5 -25.5t-70 -67t-25.5 -91.5q0 -49 25.5 -91.5t70 -67.5t101.5 -25z" />
    <glyph glyph-name="seven" unicode="7" horiz-adv-x="553" 
d="M142 0l299 674l13 -21h-422v47h441l12 -52l-287 -648h-56z" />
    <glyph glyph-name="eight" unicode="8" horiz-adv-x="674" 
d="M337 -3q-73 0 -131 27.5t-91.5 74.5t-33.5 105q0 33 12.5 61t35 51t54.5 41.5t71 31.5l-8 -24q-29 6 -53.5 20.5t-41.5 35t-27 47t-10 54.5q0 49 29 90t80 64.5t114 23.5t114 -23.5t80 -64.5t29 -90q0 -30 -10 -56t-27.5 -46.5t-42 -34.5t-50.5 -20l-5 20
q37 -10 67.5 -29t53 -43t35 -52t12.5 -57q0 -59 -33.5 -105.5t-91.5 -74t-131 -27.5zM337 47q59 0 104 20.5t72 56.5t27 80q0 43 -27 76t-72.5 51t-103.5 18q-57 0 -103.5 -18t-73.5 -51.5t-27 -75.5q0 -44 27 -80t73 -56.5t104 -20.5zM337 389q50 0 88 17t60.5 47t22.5 67
q0 38 -22.5 67t-61 46t-87.5 17t-87.5 -17t-61 -46t-22.5 -66q0 -39 23.5 -69t62 -46.5t85.5 -16.5z" />
    <glyph glyph-name="nine" unicode="9" horiz-adv-x="639" 
d="M328 0l-4 10l216 408l11 -8q-18 -37 -42.5 -68t-55.5 -52.5t-66.5 -34t-77.5 -12.5q-66 0 -120 31t-86 83.5t-32 118.5q0 67 34.5 119.5t92.5 83.5t129 31q53 0 97 -18t77.5 -49.5t53 -74.5t19.5 -94q0 -33 -12 -73.5t-29.5 -82.5t-37 -80t-34.5 -67l-86 -171h-47z
M325 293q58 0 102 25.5t69.5 67.5t25.5 91q0 50 -25 92t-69.5 67t-102.5 25q-54 0 -100.5 -24.5t-73.5 -65.5t-27 -93q0 -51 25.5 -93t71 -67t104.5 -25z" />
    <glyph glyph-name="colon" unicode=":" horiz-adv-x="356" 
d="M178 -10q-24 0 -36.5 13t-12.5 37q0 21 13 35.5t36 14.5q24 0 36.5 -13t12.5 -37q0 -21 -13 -35.5t-36 -14.5zM178 431q-24 0 -36.5 13t-12.5 37q0 21 13 35.5t36 14.5q24 0 36.5 -13t12.5 -37q0 -21 -13 -35.5t-36 -14.5z" />
    <glyph glyph-name="semicolon" unicode=";" horiz-adv-x="368" 
d="M149 -154l-20 27q30 18 46 37t16 41q0 13 -4 23.5t-20 22.5q-10 7 -18.5 17.5t-8.5 23.5q0 19 12.5 30t32.5 11q22 0 37.5 -10t24 -29.5t8.5 -45.5q0 -24 -6 -44t-20 -38t-33.5 -34.5t-46.5 -31.5zM209 431q-24 0 -36.5 13t-12.5 37q0 21 13 35.5t36 14.5q24 0 36.5 -13
t12.5 -37q0 -21 -13 -35.5t-36 -14.5z" />
    <glyph glyph-name="less" unicode="&#x3c;" horiz-adv-x="587" 
d="M474 25l-404 202v51l404 202l22 -39l-402 -202v27l402 -202z" />
    <glyph glyph-name="equal" unicode="=" horiz-adv-x="678" 
d="M88 343v49h502v-49h-502zM88 170v49h502v-49h-502z" />
    <glyph glyph-name="greater" unicode="&#x3e;" horiz-adv-x="587" 
d="M113 25l-22 39l402 202v-27l-402 202l22 39l404 -202v-51z" />
    <glyph glyph-name="question" unicode="?" horiz-adv-x="625" 
d="M277 201l-8 128q42 9 76 22.5t61 30t45 36t27 43t9 49.5q0 43 -21.5 74.5t-59 49t-84.5 17.5q-60 0 -114 -27t-99 -85l-35 34q47 61 110.5 95.5t139.5 34.5q63 0 112.5 -25.5t78 -69t28.5 -97.5q0 -38 -17 -72.5t-46 -62.5t-68 -48t-82 -32l-11 -95h-42zM253 40
q0 22 13.5 36.5t36.5 14.5q24 0 37 -13.5t13 -37.5q0 -21 -13.5 -35.5t-36.5 -14.5q-24 0 -37 13t-13 37z" />
    <glyph glyph-name="at" unicode="@" horiz-adv-x="1107" 
d="M460 -170q-86 0 -157 28.5t-123.5 79t-81 120.5t-28.5 154q0 111 42 203t117.5 160t173.5 105.5t212 37.5q98 0 176.5 -26t133 -72t83.5 -107.5t29 -135.5q0 -75 -22 -135t-59 -101.5t-83.5 -63.5t-96.5 -22q-32 0 -51.5 12t-28.5 32.5t-9 45.5q0 15 4 34.5t15 53.5
l18 -6q-20 -51 -56.5 -90t-85 -60.5t-105.5 -21.5q-51 0 -91 22.5t-63 63t-23 95.5q0 54 18.5 103t53 87t81 59.5t101.5 21.5q47 0 84.5 -15t64.5 -44t43 -73l-20 -6l19 124h48l-60 -298q-6 -30 -1.5 -51.5t18.5 -33t37 -11.5q37 0 72 19t64.5 56t46.5 87.5t17 112.5
q0 88 -45.5 155.5t-129 106t-198.5 38.5q-107 0 -198 -37t-156.5 -100.5t-102.5 -146t-37 -173.5q0 -75 25.5 -137.5t71 -108t108.5 -70.5t136 -25q52 0 93 9t78.5 24t78.5 35l20 -41q-31 -19 -75 -35.5t-95 -27t-101 -10.5zM486 102q54 0 98 21t75 61t46 93q3 14 5 24.5
t2 19.5q1 42 -19 74t-54.5 49.5t-78.5 17.5q-55 0 -102.5 -29t-76.5 -79t-29 -115q0 -61 36.5 -99t97.5 -38z" />
    <glyph glyph-name="A" unicode="A" horiz-adv-x="764" 
d="M53 0l296 700h69l293 -700h-57l-213 508q-13 35 -21.5 56.5t-15.5 38.5t-14 36.5t-17 48.5h16q-10 -34 -18 -55t-15.5 -38t-16 -38t-21.5 -55l-213 -502h-52zM172 207l21 50h381l16 -50h-418z" />
    <glyph glyph-name="B" unicode="B" horiz-adv-x="787" 
d="M142 0v700h317q62 0 108.5 -21.5t73.5 -61t27 -92.5q0 -59 -35.5 -102t-98.5 -59v17q50 -9 88 -32.5t60.5 -60t22.5 -83.5t-18.5 -85.5t-50 -65t-72 -40.5t-88.5 -14h-334zM192 50h276q51 -1 92 17t65.5 52t24.5 80q0 44 -25 76t-67 49t-95 17h-271v-291zM192 391h269
q47 0 81 16.5t53 45.5t19 67q0 60 -42 95t-116 35h-264v-259z" />
    <glyph glyph-name="C" unicode="C" horiz-adv-x="795" 
d="M466 -10q-83 0 -153.5 27t-122.5 75.5t-80 114t-28 144.5q0 77 27.5 141.5t77.5 112t118.5 74t148.5 26.5q52 0 104.5 -16t97.5 -42.5t74 -60.5l-34 -43q-24 34 -63 58.5t-85.5 39t-94.5 14.5q-68 0 -127 -22t-101 -63t-66 -97.5t-24 -121.5q0 -67 24.5 -124.5t69.5 -99
t104 -65t131 -23.5q48 0 92.5 13.5t80.5 35t58 49.5l25 -45q-26 -28 -67 -51t-89.5 -37t-97.5 -14z" />
    <glyph glyph-name="D" unicode="D" horiz-adv-x="863" 
d="M142 0v700h287q76 0 140 -26.5t111.5 -73t74 -110.5t26.5 -140t-26.5 -140.5t-74 -110.5t-111.5 -72.5t-140 -26.5h-287zM192 33l-14 17h246q65 0 120.5 22.5t96 63t63.5 94t23 120.5q0 66 -23 120t-63.5 94.5t-96 63t-120.5 22.5h-249l17 15v-632z" />
    <glyph glyph-name="E" unicode="E" horiz-adv-x="709" 
d="M142 0v700h463v-50h-413v-600h409v-50h-459zM167 336v50h381v-50h-381z" />
    <glyph glyph-name="F" unicode="F" horiz-adv-x="703" 
d="M142 0v700h50v-700h-50zM171 322v50h397v-50h-397zM172 650v50h445v-50h-445z" />
    <glyph glyph-name="G" unicode="G" horiz-adv-x="888" 
d="M475 -10q-84 0 -155.5 26t-125 73t-83 113.5t-29.5 145.5q0 77 29 142t81 113.5t122.5 75t153.5 26.5q58 0 113.5 -15.5t101 -41t72.5 -57.5l-31 -37q-28 29 -70 51t-90 36t-94 14q-71 0 -132 -23t-106.5 -64t-70.5 -97.5t-25 -122.5q0 -69 25.5 -125.5t72 -97.5t109 -63
t135.5 -22q61 0 114.5 17.5t93 48.5t62 71.5t21.5 85.5v44l20 -29h-313v50h341q1 -5 1.5 -15t1 -21t0.5 -18q0 -59 -27 -110.5t-74 -90.5t-109.5 -61t-134.5 -22z" />
    <glyph glyph-name="H" unicode="H" horiz-adv-x="867" 
d="M676 0v700h50v-700h-50zM142 0v700h50v-700h-50zM171 322v50h523v-50h-523z" />
    <glyph glyph-name="I" unicode="I" horiz-adv-x="562" 
d="M115 0v51h141v598h-141v51h332v-51h-141v-598h141v-51h-332z" />
    <glyph glyph-name="J" unicode="J" horiz-adv-x="719" 
d="M327 -10q-40 0 -74 11t-63 30t-51.5 44.5t-37.5 53.5l38 39q14 -30 35 -54t45.5 -40.5t52 -25.5t56.5 -9q55 0 97 26.5t65 72.5t23 102v409h-145v51h307v-51h-108v-412q0 -51 -16.5 -96t-48 -79t-76 -53t-99.5 -19z" />
    <glyph glyph-name="K" unicode="K" horiz-adv-x="805" 
d="M169 205l2 67l480 428h74zM142 0v700h50v-700h-50zM669 0l-310 395l35 36l340 -431h-65z" />
    <glyph glyph-name="L" unicode="L" horiz-adv-x="645" 
d="M142 0v700h50v-650h399v-50h-449z" />
    <glyph glyph-name="M" unicode="M" horiz-adv-x="977" 
d="M142 0v700h49l308 -454l-22 1l314 453h44v-700h-50v352q0 89 1.5 161t7.5 144l14 -19l-301 -430h-42l-293 428l11 21q6 -68 7.5 -139t1.5 -166v-352h-50z" />
    <glyph glyph-name="N" unicode="N" horiz-adv-x="912" 
d="M142 0v700h49l546 -640l-11 -27q-2 11 -2 49t-1 88.5t-1 101.5t-0.5 90.5t-0.5 54.5v283h50v-700h-52l-545 641l10 28q0 -15 0.5 -48t2 -74.5l3 -83t2 -74t0.5 -45.5v-344h-50z" />
    <glyph glyph-name="O" unicode="O" horiz-adv-x="915" 
d="M457 -10q-83 0 -151 26.5t-119 74.5t-78 113.5t-27 142.5t27 142.5t78 114t119 75t151 26.5q82 0 151 -26.5t119 -75t78 -114t28 -142.5t-28 -142.5t-78 -113.5t-119 -74.5t-151 -26.5zM457 40q70 0 129.5 22.5t103 64t67 97.5t23.5 123t-23.5 123.5t-67 97.5t-103 64
t-129.5 23t-129.5 -23t-102.5 -64.5t-66.5 -98t-23.5 -122.5q0 -67 23.5 -122.5t66.5 -97.5t102.5 -64.5t129.5 -22.5z" />
    <glyph glyph-name="P" unicode="P" horiz-adv-x="739" 
d="M142 0v700h314q58 0 102 -26t69.5 -71.5t25.5 -104.5q0 -64 -26 -113.5t-70.5 -77.5t-103.5 -28h-261v-279h-50zM192 329h266q42 0 74 21.5t49.5 60t17.5 89.5q0 44 -17.5 78t-49.5 53t-74 19h-266v-321z" />
    <glyph glyph-name="Q" unicode="Q" horiz-adv-x="915" 
d="M732 -96l-248 327l41 24l249 -326zM457 -10q-83 0 -151 26.5t-119 74.5t-78 113.5t-27 142.5t27 142.5t78 114t119 75t151 26.5q82 0 151 -26.5t119 -75t78 -114t28 -142.5t-28 -142.5t-78 -113.5t-119 -74.5t-151 -26.5zM457 40q70 0 129.5 22.5t103 64t67 97.5
t23.5 123t-23.5 123.5t-67 97.5t-103 64t-129.5 23t-129.5 -23t-102.5 -64.5t-66.5 -98t-23.5 -122.5q0 -67 23.5 -122.5t66.5 -97.5t102.5 -64.5t129.5 -22.5z" />
    <glyph glyph-name="R" unicode="R" horiz-adv-x="753" 
d="M142 0v700h296q63 0 112 -27.5t77 -74.5t28 -106q0 -62 -28 -108t-77.5 -72t-111.5 -26h-246v-286h-50zM628 0l-198 301l44 25l214 -326h-60zM192 336h246q49 0 86 19.5t57 54.5t20 80t-22 81.5t-60.5 57.5t-88.5 21h-238v-314z" />
    <glyph glyph-name="S" unicode="S" horiz-adv-x="717" 
d="M364 -10q-56 0 -107 15t-94.5 44.5t-77.5 72.5l34 39q50 -64 113 -92.5t133 -28.5q63 0 112.5 18.5t77.5 52.5t28 78q0 31 -13.5 52t-36 35t-51.5 24t-60 17l-62 14q-51 12 -95 25t-77.5 33t-51.5 49.5t-18 77.5q0 43 18.5 77.5t52.5 59.5t78.5 38.5t96.5 13.5
q60 0 105.5 -15.5t81 -43t63.5 -66.5l-35 -38q-26 36 -58 61.5t-71 38.5t-86 13q-55 0 -98.5 -17.5t-69.5 -48.5t-26 -72q0 -33 15.5 -55t44 -37t69.5 -25.5t90 -20.5q48 -9 92 -22t79 -33t55 -52.5t20 -82.5q0 -57 -34 -102.5t-95 -71t-142 -25.5z" />
    <glyph glyph-name="T" unicode="T" horiz-adv-x="625" 
d="M284 0v650h-233v50h523v-50h-240v-650h-50z" />
    <glyph glyph-name="U" unicode="U" horiz-adv-x="875" 
d="M435 -7q-87 0 -153.5 39t-103.5 107t-37 156v405h50v-399q0 -75 31.5 -133.5t86.5 -91.5t126 -33q74 0 130 33t88 91.5t32 133.5v399h49v-406q0 -87 -38 -155t-105 -107t-156 -39z" />
    <glyph glyph-name="V" unicode="V" horiz-adv-x="758" 
d="M341 0l-288 700h55l194 -466q14 -34 25 -61.5t21.5 -52.5t20 -51.5t20.5 -59.5h-28q18 50 32 86.5t27 69.5t31 75l200 460h55l-302 -700h-63z" />
    <glyph glyph-name="W" unicode="W" horiz-adv-x="1030" 
d="M268 0l-215 700h56l142 -473q10 -33 17 -56t12.5 -42t10.5 -41t12 -53h-6q11 39 21 65.5t22.5 56.5t29.5 75l113 275h51l132 -313q14 -34 26.5 -62.5t21 -51.5t10.5 -45h-8q6 22 11 41t9.5 38t10 38t12 39t13.5 43l152 466h54l-230 -700h-54l-198 470l26 -1l-195 -469
h-59z" />
    <glyph glyph-name="X" unicode="X" horiz-adv-x="733" 
d="M617 0l-273 344l-286 356h63l247 -308l313 -392h-64zM52 0l289 375l31 -37l-260 -338h-60zM383 338l-26 37l253 325h59z" />
    <glyph glyph-name="Y" unicode="Y" horiz-adv-x="751" 
d="M361 0v328l9 -49l-317 421h65l276 -370h-15l259 370h60l-302 -426l14 62v-336h-49z" />
    <glyph glyph-name="Z" unicode="Z" horiz-adv-x="727" 
d="M76 0v42l518 632l14 -24h-506v50h543v-41l-516 -633l-16 24h543v-50h-580z" />
    <glyph glyph-name="bracketleft" unicode="[" horiz-adv-x="445" 
d="M118 -190v890h283v-49h-238l6 8v-812l-10 12h242v-49h-283z" />
    <glyph glyph-name="backslash" unicode="\" horiz-adv-x="629" 
d="M479 -107l-398 807h57l400 -807h-59z" />
    <glyph glyph-name="bracketright" unicode="]" horiz-adv-x="445" 
d="M44 -190v49h238l-6 -8v812l10 -12h-242v49h283v-890h-283z" />
    <glyph glyph-name="asciicircum" unicode="^" horiz-adv-x="700" 
d="M70 368l243 360h73l243 -360h-59l-225 336h9l-226 -336h-58z" />
    <glyph glyph-name="underscore" unicode="_" horiz-adv-x="780" 
d="M84 -130v50h612v-50h-612z" />
    <glyph glyph-name="grave" unicode="`" horiz-adv-x="500" 
d="M317 598l-154 101l33 45l142 -115z" />
    <glyph glyph-name="a" unicode="a" horiz-adv-x="747" 
d="M343 -10q-84 0 -146 34.5t-97 95.5t-35 140t36.5 140.5t99 96.5t141.5 35q48 0 90.5 -13.5t76 -37.5t55.5 -53.5t28 -62.5l-21 11l5 144h47v-520h-49v138l18 21q-8 -34 -30.5 -64.5t-55.5 -54t-75 -37t-88 -13.5zM349 40q65 0 117 28.5t82 78t30 114.5q0 63 -29.5 113
t-81.5 79.5t-118 29.5q-68 0 -120 -29.5t-81.5 -79.5t-29.5 -113q0 -64 28.5 -114t80.5 -78.5t122 -28.5z" />
    <glyph glyph-name="b" unicode="b" horiz-adv-x="753" 
d="M412 -10q-45 0 -84.5 11.5t-72.5 33t-56.5 52.5t-35.5 66l22 -17l-5 -136h-48v740h50v-351l-18 -18q13 35 36 65.5t56 51.5t73 32.5t86 11.5q76 0 137 -35t97 -96.5t36 -140.5q0 -77 -35.5 -138t-97 -96.5t-140.5 -35.5zM407 40q67 0 117.5 29t79.5 79t29 113
q0 65 -29.5 114.5t-80.5 78.5t-115 29q-69 0 -121 -29t-81 -78.5t-29 -113.5q0 -65 30 -115t82 -78.5t118 -28.5z" />
    <glyph glyph-name="c" unicode="c" horiz-adv-x="656" 
d="M355 -10q-84 0 -148.5 35t-101.5 96t-37 140t37.5 140.5t102.5 96t150 34.5q71 0 132 -25t104 -69l-31 -42q-25 26 -57.5 45.5t-72 30t-83.5 10.5q-65 0 -117 -28.5t-81.5 -78.5t-29.5 -114q0 -65 30 -114.5t81.5 -78t113.5 -28.5q46 0 85.5 10.5t71 28.5t56.5 41l31 -42
q-44 -40 -104.5 -64t-131.5 -24z" />
    <glyph glyph-name="d" unicode="d" horiz-adv-x="749" 
d="M335 -10q-77 0 -137.5 35.5t-95.5 96.5t-35 139q0 79 35.5 140t97 96t138.5 35q46 0 85.5 -11.5t72 -32.5t56.5 -51.5t37 -66.5l-19 16v354h50v-740h-47l-5 140l20 13q-12 -36 -36 -66t-57 -52t-73.5 -33.5t-86.5 -11.5zM344 41q66 0 118 28.5t82 78t30 114.5
q0 63 -29 113t-81 78t-120 28q-65 0 -115.5 -28t-79.5 -77.5t-29 -113.5q0 -63 29 -113t79.5 -79t115.5 -29z" />
    <glyph glyph-name="e" unicode="e" horiz-adv-x="678" 
d="M357 -10q-86 0 -152.5 34t-103.5 95t-37 142q0 61 21.5 110t59.5 85.5t90 56t112 19.5t109 -17.5t83.5 -51t52.5 -79.5t16 -102l-1 -31h-503v46h476l-21 -14l-1 24q0 40 -24.5 80.5t-71.5 67.5t-116 27q-63 0 -115 -23.5t-83 -72t-31 -122.5q0 -68 30 -118t85.5 -77.5
t134.5 -27.5q53 0 98 13.5t96 50.5l23 -39q-26 -20 -59.5 -38t-75 -28t-92.5 -10z" />
    <glyph glyph-name="f" unicode="f" horiz-adv-x="499" 
d="M192 0v597q0 40 17.5 70.5t51 49t78.5 18.5q36 0 64.5 -11t48.5 -31l-18 -43q-21 21 -47 30t-50 9q-34 0 -55 -12t-31 -33t-10 -48v-596h-18h-16.5h-14.5zM75 473v46h349v-46h-349z" />
    <glyph glyph-name="g" unicode="g" horiz-adv-x="748" 
d="M361 -230q-70 0 -122.5 19.5t-89.5 43.5l22 48q22 -16 50.5 -29.5t64.5 -22.5t78 -9q63 0 110 24.5t73.5 75.5t26.5 129v90l15 12q-19 -48 -55 -84t-87 -56t-112 -20q-77 0 -137 35t-95 96t-35 139q0 79 36 140t97 96t138 35q33 0 66 -7.5t61.5 -20.5t52.5 -33t42 -45.5
t29 -56.5l-21 13l5 138h50v-472q0 -71 -20.5 -123t-56.5 -86t-84.5 -51.5t-101.5 -17.5zM346 41q67 0 118.5 28.5t81 78t29.5 113.5q0 65 -29.5 115t-81 78t-117.5 28q-65 0 -116 -28.5t-80.5 -78t-29.5 -113.5q0 -63 29 -113t79.5 -79t116.5 -29z" />
    <glyph glyph-name="h" unicode="h" horiz-adv-x="726" 
d="M132 0v740h50v-356l-16 -18q11 48 45 85.5t81.5 59t96.5 21.5q69 0 114.5 -26t67.5 -75.5t22 -119.5v-311h-50v306q0 58 -19 97t-55.5 60.5t-88.5 20.5q-42 0 -78 -15t-63 -41t-42 -58t-15 -66v-304h-25h-11.5h-13.5z" />
    <glyph glyph-name="i" unicode="i" horiz-adv-x="346" 
d="M147 0v520h50v-520h-50zM172 630q-22 0 -34 12t-12 33q0 20 12 32.5t34 12.5t34 -12t12 -33q0 -20 -12 -32.5t-34 -12.5z" />
    <glyph glyph-name="j" unicode="j" horiz-adv-x="363" 
d="M55 -195l-20 45q53 2 84.5 21.5t46.5 58t15 94.5v496h50v-516q0 -61 -23 -105t-62 -68.5t-91 -25.5zM205 630q-22 0 -34 12t-12 33q0 20 12 32.5t34 12.5t34 -12t12 -33q0 -20 -12 -32.5t-34 -12.5z" />
    <glyph glyph-name="k" unicode="k" horiz-adv-x="664" 
d="M171 162l2 62l342 296h68zM132 0v740h49v-740h-49zM544 0l-261 291l34 37l293 -328h-66z" />
    <glyph glyph-name="l" unicode="l" horiz-adv-x="298" 
d="M124 0v740h50v-740h-50z" />
    <glyph glyph-name="m" unicode="m" horiz-adv-x="1103" 
d="M125 0v520h48l5 -139l-15 5q10 32 31.5 58.5t51.5 46.5t66 30.5t79 10.5q44 0 81 -14t63 -51.5t41 -102.5l-21 16l4 15q11 24 31.5 48.5t50 44.5t66.5 32t80 12q62 0 104.5 -26t64.5 -75.5t22 -119.5v-311h-50v306q0 58 -17.5 97.5t-51 60t-81.5 20.5q-43 0 -80 -15
t-64 -41t-42.5 -58t-15.5 -67v-303h-50v306q0 58 -18 97.5t-52 60t-83 20.5q-44 0 -79.5 -15t-62 -41.5t-41.5 -58t-15 -65.5v-304h-50z" />
    <glyph glyph-name="n" unicode="n" horiz-adv-x="726" 
d="M132 0v520h48l5 -126l-10 1q13 35 44.5 66.5t77 51t97.5 19.5q64 0 109 -26t67.5 -75.5t22.5 -119.5v-311h-50v306q0 58 -19.5 97t-55.5 60t-86 21q-44 0 -80 -15.5t-63.5 -41.5t-42 -57.5t-14.5 -65.5v-304h-25h-8h-17z" />
    <glyph glyph-name="o" unicode="o" horiz-adv-x="735" 
d="M368 -10q-88 0 -155.5 35t-106 97t-38.5 141q0 78 38.5 139t106 95.5t155.5 34.5q87 0 154.5 -34.5t106 -95.5t38.5 -139q0 -79 -38.5 -140.5t-106 -97t-154.5 -35.5zM368 40q70 0 126 29t88 79t32 115q0 63 -32 113t-88 78t-126 28q-72 0 -128 -28t-87.5 -77.5
t-31.5 -113.5q0 -65 31.5 -115t88 -79t127.5 -29z" />
    <glyph glyph-name="p" unicode="p" horiz-adv-x="759" 
d="M132 -220v740h48l5 -136l-14 -12q18 49 53.5 84.5t86 55.5t109.5 20q77 0 138 -35t97 -96.5t36 -140.5q0 -77 -34.5 -138t-96.5 -96t-141 -35q-60 0 -109.5 20.5t-84.5 56t-54 83.5l11 -12v-359h-50zM412 41q66 0 117 28.5t80.5 78t28.5 112.5q0 65 -29.5 115t-80.5 78.5
t-116 28.5q-68 0 -121 -28.5t-82.5 -78t-30.5 -114.5q0 -64 30 -113.5t82.5 -78t121.5 -28.5z" />
    <glyph glyph-name="q" unicode="q" horiz-adv-x="749" 
d="M575 -221v357l15 17q-13 -36 -37 -65.5t-56.5 -51t-73 -33.5t-85.5 -12q-79 0 -140 35t-95.5 96t-34.5 139q0 79 36.5 140t97.5 96t138 35q46 0 86 -11t72 -32.5t56 -52t36 -67.5l-20 13l5 138h50v-741h-50zM347 41q68 0 120.5 28.5t82 78.5t29.5 113q-1 64 -30.5 114.5
t-81.5 78.5t-120 28q-65 0 -115.5 -28.5t-80 -77.5t-29.5 -114q0 -63 28.5 -113t79 -79t117.5 -29z" />
    <glyph glyph-name="r" unicode="r" horiz-adv-x="496" 
d="M132 0v520h48l5 -126l-11 -6q14 40 41 72.5t64.5 52t85.5 19.5q25 0 48 -4.5t39 -11.5l-16 -56q-17 10 -37.5 13.5t-36.5 3.5q-46 0 -79.5 -15t-56 -41.5t-33.5 -59t-11 -66.5v-295h-50z" />
    <glyph glyph-name="s" unicode="s" horiz-adv-x="606" 
d="M310 -10q-79 0 -141 27t-97 68l38 35q32 -40 84 -60.5t114 -20.5q35 0 65.5 6t53 17t35.5 29.5t13 42.5q0 40 -45 66q-22 11 -54.5 21.5t-76.5 19.5q-60 15 -103 27.5t-68 32.5q-19 16 -28.5 37t-9.5 47q0 32 15 59t43.5 47t65.5 30.5t83 10.5q41 0 83.5 -10.5t80 -29.5
t64.5 -45l-33 -38q-24 22 -53.5 39.5t-65 27.5t-74.5 10q-31 0 -59.5 -6.5t-49.5 -20t-34 -31.5t-13 -40q-1 -19 7 -31.5t23 -22.5q21 -14 55 -23.5t84 -20.5q47 -10 84 -20t63 -24q34 -19 51.5 -45t17.5 -61q0 -45 -27.5 -78.5t-76.5 -52.5t-114 -19z" />
    <glyph glyph-name="t" unicode="t" horiz-adv-x="505" 
d="M218 0v671h50v-671h-50zM66 474v46h371v-46h-371z" />
    <glyph glyph-name="u" unicode="u" horiz-adv-x="708" 
d="M334 -10q-71 0 -117.5 26t-70 76t-23.5 124v304h50v-299q0 -60 18 -100.5t54 -60.5t88 -20q43 0 80.5 15t64.5 40t43 57t16 68v300h50v-520h-48l-5 121h7q-10 -33 -41.5 -63t-75 -49t-90.5 -19z" />
    <glyph glyph-name="v" unicode="v" horiz-adv-x="623" 
d="M284 0l-251 520h59l219 -469l-20 -14l242 483h57l-266 -520h-40z" />
    <glyph glyph-name="w" unicode="w" horiz-adv-x="837" 
d="M223 0l-190 520h59l156 -454l-24 2l175 381h35l177 -381l-28 -2l166 454h55l-194 -520h-19l-193 423l41 2l-194 -425h-22z" />
    <glyph glyph-name="x" unicode="x" horiz-adv-x="688" 
d="M548 0l-220 247l-5 6l-235 267h68l207 -240l3 -3l250 -277h-68zM72 0l248 282l32 -36l-214 -246h-66zM370 256l-32 36l208 228h66z" />
    <glyph glyph-name="y" unicode="y" horiz-adv-x="665" 
d="M219 -230l111 247l11 -59l-291 562h53l208 -398q17 -31 29 -59t22 -54l-29 15q10 20 18 38.5t16 36.5l195 421h53l-237 -516l-108 -234h-51z" />
    <glyph glyph-name="z" unicode="z" horiz-adv-x="543" 
d="M58 0v46l358 444l21 -18h-379v48h409v-46l-362 -449l-15 23h393v-48h-425z" />
    <glyph glyph-name="braceleft" unicode="{" horiz-adv-x="544" 
d="M458 -193q-49 8 -85.5 23.5t-62.5 38t-39 53.5t-13 72l1 93q1 68 -31.5 104t-92.5 37h-30v43h32q59 0 91 38t31 103l-1 92q1 81 49.5 125t150.5 63l10 -41q-60 -17 -94 -35t-49 -48t-15 -81l2 -86q1 -59 -24.5 -99t-80.5 -54l-1 3q55 -16 81 -55.5t25 -98.5l-2 -85
q0 -50 14 -81t49 -49t94 -35z" />
    <glyph glyph-name="bar" unicode="|" horiz-adv-x="334" 
d="M142 -193v933h50v-933h-50z" />
    <glyph glyph-name="braceright" unicode="}" horiz-adv-x="544" 
d="M85 -192l-10 41q62 17 96 35t48.5 48.5t13.5 80.5l-2 86q0 59 25.5 99t79.5 54l1 -3q-54 16 -80 55.5t-26 98.5l2 85q1 50 -13 81t-48 49.5t-96 34.5l9 40q50 -8 86.5 -23.5t62.5 -38t38.5 -53.5t12.5 -72l-1 -93q0 -68 32 -104t92 -37h30v-43h-32q-59 0 -90.5 -38
t-31.5 -103l1 -92q0 -81 -49 -125t-151 -63z" />
    <glyph glyph-name="asciitilde" unicode="~" horiz-adv-x="642" 
d="M453 271q-20 0 -47.5 7t-54.5 15.5t-46 14.5q-14 4 -33 10t-39.5 12t-35.5 6q-27 0 -42 -16.5t-14 -43.5l-48 -1q0 51 26 79.5t73 28.5q13 0 33 -4t41.5 -10t41 -11.5t32.5 -9.5q15 -5 35 -11.5t41 -12t39 -5.5q25 0 38.5 16.5t14.5 42.5l47 1q0 -32 -12 -56t-34.5 -38
t-55.5 -14z" />
    <glyph glyph-name="uni00A0" unicode="&#xa0;" horiz-adv-x="362" 
 />
    <glyph glyph-name="exclamdown" unicode="&#xa1;" horiz-adv-x="373" 
d="M198 289q9 -68 13 -144t5.5 -152.5t1.5 -145.5v-17h-64l1 17q0 71 1 149t6 153.5t12 139.5h24zM188 539q24 0 37 -13t13 -36q0 -21 -13 -35t-37 -14q-23 0 -36.5 13t-13.5 36q0 21 13.5 35t36.5 14z" />
    <glyph glyph-name="cent" unicode="&#xa2;" horiz-adv-x="681" 
d="M372 79q-83 0 -147 35t-101.5 95.5t-37.5 138.5q0 79 37.5 140.5t102 96.5t149.5 35q76 0 138.5 -27t105.5 -75l-30 -42q-27 30 -61.5 50.5t-74.5 32t-83 11.5q-66 0 -118 -29t-82 -79t-29 -114q-1 -62 29 -112t80.5 -78.5t112.5 -28.5q46 0 85 10t73 29t63 48l32 -40
q-45 -45 -107 -71t-137 -26zM346 0v88l1 34v456l-1 29v93h52v-94l-1 -28v-456l1 -35v-87h-52z" />
    <glyph glyph-name="sterling" unicode="&#xa3;" horiz-adv-x="742" 
d="M221 62l-49 18q17 9 30 26t21 42t8 53q0 16 -2 32t-5.5 34t-10 38.5t-14.5 46.5q-11 34 -17.5 59t-9 46t-2.5 40q0 61 28.5 106t81 71t124.5 26q75 0 127 -25.5t77 -66.5l-42 -36q-21 29 -48 44.5t-55.5 22t-56.5 6.5q-58 0 -98.5 -19.5t-62.5 -53t-22 -76.5
q0 -35 9.5 -71t21.5 -72q10 -30 20 -65.5t10 -63.5q0 -31 -6.5 -61t-20.5 -56t-36 -45zM527 -10q-34 0 -72 9t-76 19q-31 9 -56 15t-46 10.5t-40 4.5q-32 0 -64.5 -14t-60.5 -27l-24 46q34 21 75 34.5t92 13.5q30 0 64 -8.5t81 -23.5q36 -12 66 -19t61 -7q28 0 54 13t49 30
l33 -45q-29 -25 -64 -38t-72 -13zM90 331v51h444v-51h-444z" />
    <glyph glyph-name="currency" unicode="&#xa4;" horiz-adv-x="671" 
d="M335 118q-50 0 -91.5 24.5t-66 66.5t-24.5 93t24.5 92.5t66 66.5t91.5 25t91.5 -25t66 -67t24.5 -92q0 -51 -24.5 -93t-66 -66.5t-91.5 -24.5zM159 106l-35 36l78 73l36 -35zM204 393l-80 75l35 36l81 -76zM335 165q40 0 70 17.5t47 48.5t17 71t-17 70.5t-47 48.5t-70 18
t-70 -18t-47 -48.5t-17 -70.5t17 -71t47 -48.5t70 -17.5zM512 106l-80 75l36 35l79 -74zM467 393l-36 35l81 76l35 -36z" />
    <glyph glyph-name="yen" unicode="&#xa5;" horiz-adv-x="751" 
d="M361 0v328l9 -49l-317 421h65l277 -370h-17l260 370h60l-302 -426l14 62v-336h-49zM190 114v50h394v-50h-394zM190 256v50h394v-50h-394z" />
    <glyph glyph-name="brokenbar" unicode="&#xa6;" horiz-adv-x="331" 
d="M141 -202v400h50v-400h-50zM141 341v399h50v-399h-50z" />
    <glyph glyph-name="section" unicode="&#xa7;" horiz-adv-x="661" 
d="M392 152l-18 32q37 4 67.5 16t48.5 34.5t18 54.5q0 30 -19.5 50t-73.5 39l-170 56q-22 7 -42.5 19.5t-37 30.5t-26 40t-9.5 46q0 28 13 52t38 42.5t61 29t81 10.5q47 0 88 -10.5t74 -27t57 -32.5l-26 -44q-24 18 -55 33t-66.5 24.5t-74.5 9.5q-62 0 -98.5 -22t-36.5 -64
q0 -24 10 -41t30 -30t51 -23l156 -52q54 -17 91 -47.5t37 -87.5q0 -38 -20 -68t-58.5 -48t-89.5 -22zM346 -90q-52 0 -96 10.5t-79 29t-59 37.5l25 40q41 -32 94.5 -50.5t119.5 -18.5q59 0 94.5 22t35.5 64q0 24 -9 41t-27.5 30.5t-50.5 24.5l-182 62q-40 12 -73 41.5
t-33 86.5q0 39 23 68t62 45.5t89 20.5l19 -32q-38 -3 -70 -14.5t-52 -33t-20 -53.5q0 -24 14.5 -46t53.5 -34l208 -72q28 -8 52 -26.5t38 -46t14 -61.5q0 -38 -23 -68.5t-65.5 -48.5t-102.5 -18z" />
    <glyph glyph-name="dieresis" unicode="&#xa8;" horiz-adv-x="500" 
d="M346 626q-22 0 -34 12t-12 33q0 20 12 32.5t34 12.5t34 -12t12 -33q0 -20 -12 -32.5t-34 -12.5zM155 625q-22 0 -34 12t-12 33q0 20 12 32.5t34 12.5t34 -12t12 -33q0 -20 -12 -32.5t-34 -12.5z" />
    <glyph glyph-name="copyright" unicode="&#xa9;" horiz-adv-x="861" 
d="M431 -11q-75 0 -140.5 27.5t-115.5 77.5t-77.5 115t-27.5 141t27.5 141t77.5 115t115.5 77.5t140.5 27.5t140 -27.5t115 -77.5t78 -115t28 -141t-28 -141t-78 -115t-115 -77.5t-140 -27.5zM441 142q-59 0 -107.5 26.5t-77.5 73.5t-29 108q0 57 28.5 104t77 75t108.5 28
q34 0 67 -11.5t62 -33.5l-21 -37q-9 7 -25 16t-37 15t-46 6q-46 0 -83.5 -22.5t-60 -59.5t-22.5 -80q0 -46 22 -83t60 -58.5t84 -21.5q33 0 60.5 8.5t52.5 25.5l20 -36q-31 -21 -65 -32t-68 -11zM431 38q65 0 121.5 24.5t99.5 67t67 99t24 121.5q0 67 -24 122.5t-67 99
t-99.5 67t-121.5 23.5t-121.5 -23.5t-99 -66.5t-67 -99.5t-24.5 -122.5t24.5 -122t67 -98.5t99 -67t121.5 -24.5z" />
    <glyph glyph-name="ordfeminine" unicode="&#xaa;" horiz-adv-x="427" 
d="M197 391q-45 0 -77.5 22.5t-49 61t-16.5 87.5q0 45 17.5 81t50.5 57t79 21q56 0 90.5 -35.5t38.5 -93.5l-23 36v87h42v-314h-42v73l23 23q-6 -25 -23.5 -49.5t-45 -40.5t-64.5 -16zM198 428q34 0 59 15.5t39 44t14 67.5q0 60 -29.5 94.5t-82.5 34.5q-28 0 -51 -16.5
t-36.5 -44.5t-13.5 -61q0 -39 12 -69.5t34.5 -47.5t54.5 -17z" />
    <glyph glyph-name="guillemotleft" unicode="&#xab;" horiz-adv-x="623" 
d="M506 52l-196 206v4l196 206l41 -27l-178 -190v18l177 -189zM271 52l-196 206v4l196 206l41 -27l-178 -190v18l177 -189z" />
    <glyph glyph-name="logicalnot" unicode="&#xac;" horiz-adv-x="786" 
d="M647 117v242l19 -15h-578v50h610v-277h-51z" />
    <glyph glyph-name="uni00AD" unicode="&#xad;" horiz-adv-x="480" 
d="M87 247v51h306v-51h-306z" />
    <glyph glyph-name="registered" unicode="&#xae;" horiz-adv-x="592" 
d="M294 254q-64 0 -118 31t-85.5 83t-31.5 116q0 48 18.5 89.5t50.5 73.5t75 49.5t91 17.5t90.5 -18t74.5 -49.5t50.5 -73t18.5 -89.5t-18 -89.5t-50.5 -73.5t-75 -49.5t-90.5 -17.5zM295 294q53 0 96.5 25.5t70 68.5t26.5 96t-26.5 96t-70.5 68.5t-96 25.5q-54 0 -98 -25.5
t-71 -68.5t-27 -96t27 -96t71 -68.5t98 -25.5zM356 367l-51 100l35 14l58 -114h-42zM213 367v244h95q38 0 61 -22t23 -55q0 -35 -24.5 -56.5t-60.5 -21.5h-80l25 14v-103h-39zM252 479l-23 13h69q25 0 40.5 11.5t15.5 29.5q0 19 -14 30.5t-40 11.5h-74l26 14v-110z" />
    <glyph glyph-name="macron" unicode="&#xaf;" horiz-adv-x="440" 
d="M112 649v43h276v-43h-276z" />
    <glyph glyph-name="degree" unicode="&#xb0;" horiz-adv-x="532" 
d="M266 399q-43 0 -78.5 20.5t-56.5 56t-21 77.5q0 45 21 80t56 55.5t79 20.5q45 0 79.5 -20.5t55.5 -55.5t21 -79q0 -43 -21 -78.5t-56 -56t-79 -20.5zM266 438q30 0 55 15.5t40 42t15 58.5q0 33 -15 58.5t-39.5 41.5t-55.5 16t-56 -15.5t-39.5 -42t-14.5 -59.5
q0 -32 15 -58t40 -41.5t55 -15.5z" />
    <glyph glyph-name="plusminus" unicode="&#xb1;" horiz-adv-x="682" 
d="M88 326v48h506v-48h-506zM88 42v48h506v-48h-506zM315 167v358h50v-358h-50z" />
    <glyph glyph-name="uni00B2" unicode="&#xb2;" horiz-adv-x="346" 
d="M69 418l-13 37l126 135q17 18 30.5 33.5t22 31t8.5 30.5q0 24 -16.5 39t-43.5 15q-31 0 -56 -19t-45 -51l-31 22q15 25 34.5 44.5t44.5 31.5t55 12q31 0 53.5 -12.5t35 -33t12.5 -47.5q0 -21 -11.5 -43t-27.5 -41.5t-33 -36.5l-112 -119l5 12h195v-40h-233z" />
    <glyph glyph-name="uni00B3" unicode="&#xb3;" horiz-adv-x="342" 
d="M171 412q-19 0 -38.5 4.5t-37.5 12t-32 17.5l21 34q26 -16 45 -21.5t36 -5.5q39 0 66 20t27 57q0 32 -24 52t-58 20q-18 0 -32 -4t-32 -12l-10 23l144 132v-8h-173v39h213l5 -38l-120 -109l-30 -7q15 9 26.5 13.5t21.5 4.5q49 0 80.5 -29t31.5 -76q0 -37 -18 -63
t-47.5 -41t-64.5 -15z" />
    <glyph glyph-name="acute" unicode="&#xb4;" horiz-adv-x="500" 
d="M184 598l-21 31l142 115l33 -45z" />
    <glyph glyph-name="uni00B5" unicode="&#xb5;" horiz-adv-x="685" 
d="M106 -157v677h53v-304q0 -59 17.5 -98t53 -58t85.5 -19q44 0 82 15t66 38t43.5 52t15.5 57v317h53v-520h-51l-4 129l16 7q-21 -44 -54 -76.5t-74.5 -50.5t-87.5 -18q-44 0 -78 13.5t-60 37.5t-44 55l19 7l1 -261h-52z" />
    <glyph glyph-name="paragraph" unicode="&#xb6;" horiz-adv-x="745" 
d="M343 0v314l24 -35h-69q-67 0 -115.5 26.5t-74.5 73t-26 107.5q0 66 29.5 113.5t86 74t137.5 26.5h268v-700h-53v680l28 -27h-229l47 28v-681h-53z" />
    <glyph glyph-name="periodcentered" unicode="&#xb7;" horiz-adv-x="356" 
d="M178 254q-24 0 -36.5 13t-12.5 37q0 21 13 35.5t36 14.5q24 0 36.5 -13t12.5 -37q0 -21 -13 -35.5t-36 -14.5z" />
    <glyph glyph-name="cedilla" unicode="&#xb8;" horiz-adv-x="500" 
d="M174 -230l-7 34q32 1 59.5 7t44 18t16.5 29q0 16 -14 26.5t-35.5 15t-44.5 4.5l-12 14l59 88h44l-43 -65q43 -8 68 -26.5t25 -49.5q0 -27 -14.5 -46t-38.5 -29t-51.5 -15t-55.5 -5z" />
    <glyph glyph-name="uni00B9" unicode="&#xb9;" horiz-adv-x="281" 
d="M147 431v315l12 -21l-81 -47l-18 33l112 66h16v-346h-20h-10h-11z" />
    <glyph glyph-name="ordmasculine" unicode="&#xba;" horiz-adv-x="434" 
d="M216 392q-42 0 -75 20.5t-52 56t-19 80.5q0 46 19 82.5t52 57.5t75 21t75.5 -21.5t53 -58t19.5 -81.5t-19.5 -80.5t-53 -56t-75.5 -20.5zM216 432q31 0 55 15t37 41t13 61q0 36 -13 63.5t-37 42.5t-55 15q-32 0 -55 -15t-35.5 -42.5t-12.5 -63.5q0 -35 13 -61t36.5 -41
t53.5 -15z" />
    <glyph glyph-name="guillemotright" unicode="&#xbb;" horiz-adv-x="636" 
d="M363 53l-40 27l178 190v-18l-177 189l39 28l198 -206v-4zM115 53l-40 27l178 190v-18l-177 189l39 28l198 -206v-4z" />
    <glyph glyph-name="onequarter" unicode="&#xbc;" horiz-adv-x="893" 
d="M184 359v315l12 -21l-81 -47l-18 33l112 66h16v-346h-20h-10h-11zM189 0l474 700h60l-475 -700h-59zM774 121h70v-38h-70v38zM589 98l-5 23h175l-16 -10v228l28 -10zM783 0h-40v97l22 -14h-206l-8 33l192 240h40v-356z" />
    <glyph glyph-name="onehalf" unicode="&#xbd;" horiz-adv-x="941" 
d="M184 359v315l12 -21l-81 -47l-18 33l112 66h16v-346h-20h-10h-11zM186 0l474 700h60l-475 -700h-59zM647 0l-13 37l126 135q17 18 30.5 33.5t22 31t8.5 30.5q0 24 -16.5 39t-43.5 15q-31 0 -56 -19t-45 -51l-31 22q15 25 34.5 44.5t44.5 31.5t55 12q31 0 53.5 -12.5
t35 -33t12.5 -47.5q0 -21 -11.5 -43t-27.5 -41.5t-33 -36.5l-112 -119l5 12h195v-40h-233z" />
    <glyph glyph-name="threequarters" unicode="&#xbe;" horiz-adv-x="934" 
d="M156 342q-19 0 -38.5 4.5t-37.5 12t-32 17.5l21 34q26 -16 45 -21.5t36 -5.5q39 0 66 20t27 57q0 32 -24 52t-58 20q-18 0 -32 -4t-32 -12l-10 23l144 132v-8h-173v39h213l5 -38l-120 -109l-30 -7q15 9 26.5 13.5t21.5 4.5q49 0 80.5 -29t31.5 -76q0 -37 -18 -63
t-47.5 -41t-64.5 -15zM202 0l474 700h60l-475 -700h-59zM815 121h70v-38h-70v38zM630 98l-5 23h175l-16 -10v228l28 -10zM824 0h-40v97l22 -14h-206l-8 33l192 240h40v-356z" />
    <glyph glyph-name="questiondown" unicode="&#xbf;" horiz-adv-x="625" 
d="M340 333l8 -128q-42 -9 -76 -22.5t-60.5 -30t-44.5 -36t-27.5 -43t-9.5 -49.5q0 -43 21.5 -74.5t59.5 -49t84 -17.5q61 0 114.5 27t98.5 85l35 -34q-46 -61 -110 -95.5t-139 -34.5q-64 0 -113.5 25.5t-78 69t-28.5 97.5q0 38 17 72.5t46 62.5t68 48t83 32l10 95h42z
M364 494q0 -22 -13.5 -36.5t-36.5 -14.5q-24 0 -37 13.5t-13 37.5q0 21 14 35.5t36 14.5q24 0 37 -13t13 -37z" />
    <glyph glyph-name="Agrave" unicode="&#xc0;" horiz-adv-x="764" 
d="M53 0l296 700h69l293 -700h-57l-213 508q-13 35 -21.5 56.5t-15.5 38.5t-14 36.5t-17 48.5h16q-10 -34 -18 -55t-15.5 -38t-16 -38t-21.5 -55l-213 -502h-52zM172 207l21 50h381l16 -50h-418zM445 759l-168 79l34 52l152 -98z" />
    <glyph glyph-name="Aacute" unicode="&#xc1;" horiz-adv-x="764" 
d="M53 0l296 700h69l293 -700h-57l-213 508q-13 35 -21.5 56.5t-15.5 38.5t-14 36.5t-17 48.5h16q-10 -34 -18 -55t-15.5 -38t-16 -38t-21.5 -55l-213 -502h-52zM172 207l21 50h381l16 -50h-418zM320 759l-18 33l152 98l34 -52z" />
    <glyph glyph-name="Acircumflex" unicode="&#xc2;" horiz-adv-x="764" 
d="M53 0l296 700h69l293 -700h-57l-213 508q-13 35 -21.5 56.5t-15.5 38.5t-14 36.5t-17 48.5h16q-10 -34 -18 -55t-15.5 -38t-16 -38t-21.5 -55l-213 -502h-52zM172 207l21 50h381l16 -50h-418zM260 765l-28 25l119 91h62l119 -91l-28 -25l-137 85h30z" />
    <glyph glyph-name="Atilde" unicode="&#xc3;" horiz-adv-x="764" 
d="M53 0l296 700h69l293 -700h-57l-213 508q-13 35 -21.5 56.5t-15.5 38.5t-14 36.5t-17 48.5h16q-10 -34 -18 -55t-15.5 -38t-16 -38t-21.5 -55l-213 -502h-52zM172 207l21 50h381l16 -50h-418zM452 779q-22 0 -43 8.5t-44 18.5q-12 5 -24.5 11t-23.5 6q-15 0 -26 -11
t-11 -32h-46q0 41 23 65t56 24q22 0 42.5 -8t44.5 -19q11 -5 24 -11t24 -6q15 0 26 10.5t11 32.5h46q0 -27 -10.5 -47t-28.5 -31t-40 -11z" />
    <glyph glyph-name="Adieresis" unicode="&#xc4;" horiz-adv-x="764" 
d="M53 0l296 700h69l293 -700h-57l-213 508q-13 35 -21.5 56.5t-15.5 38.5t-14 36.5t-17 48.5h16q-10 -34 -18 -55t-15.5 -38t-16 -38t-21.5 -55l-213 -502h-52zM172 207l21 50h381l16 -50h-418zM482 779q-22 0 -34 12t-12 33q0 20 12 32.5t34 12.5t34 -12t12 -33
q0 -20 -12 -32.5t-34 -12.5zM282 779q-22 0 -34 12t-12 33q0 20 12 32.5t34 12.5t34 -12t12 -33q0 -20 -12 -32.5t-34 -12.5z" />
    <glyph glyph-name="Aring" unicode="&#xc5;" horiz-adv-x="764" 
d="M53 0l296 700h69l293 -700h-57l-213 508q-13 35 -21.5 56.5t-15.5 38.5t-14 36.5t-17 48.5h16q-10 -34 -18 -55t-15.5 -38t-16 -38t-21.5 -55l-213 -502h-52zM172 207l21 50h381l16 -50h-418zM381 720q-29 0 -54 14.5t-40 38.5t-15 52q0 29 15 53t40 38.5t54 14.5
t54 -14.5t40.5 -38.5t15.5 -53q0 -28 -15.5 -52t-40.5 -38.5t-54 -14.5zM381 759q29 0 49.5 19.5t20.5 46.5q0 30 -20.5 48.5t-49.5 18.5q-30 0 -49.5 -19t-19.5 -48q0 -27 20.5 -46.5t48.5 -19.5z" />
    <glyph glyph-name="AE" unicode="&#xc6;" horiz-adv-x="1122" 
d="M36 0l543 700h439v-51h-410v-266h353v-52h-353v-280h406v-51h-457v191h-324l39 52h285v385l26 -9l-484 -619h-63z" />
    <glyph glyph-name="Ccedilla" unicode="&#xc7;" horiz-adv-x="795" 
d="M466 -10q-83 0 -153.5 27t-122.5 75.5t-80 114t-28 144.5q0 77 27.5 141.5t77.5 112t118.5 74t148.5 26.5q52 0 104.5 -16t97.5 -42.5t74 -60.5l-34 -43q-24 34 -63 58.5t-85.5 39t-94.5 14.5q-68 0 -127 -22t-101 -63t-66 -97.5t-24 -121.5q0 -67 24.5 -124.5t69.5 -99
t104 -65t131 -23.5q48 0 92.5 13.5t80.5 35t58 49.5l25 -45q-26 -28 -67 -51t-89.5 -37t-97.5 -14zM363 -230l-7 34q32 1 59.5 7t44 18t16.5 29q0 16 -13.5 26.5t-35 15t-46.5 4.5l-10 14l58 88h44l-43 -65q42 -8 67.5 -26.5t25.5 -49.5q0 -27 -14.5 -46t-38 -29t-51.5 -15
t-56 -5z" />
    <glyph glyph-name="Egrave" unicode="&#xc8;" horiz-adv-x="709" 
d="M142 0v700h463v-50h-413v-600h409v-50h-459zM167 336v50h381v-50h-381zM448 759l-168 79l34 52l152 -98z" />
    <glyph glyph-name="Eacute" unicode="&#xc9;" horiz-adv-x="709" 
d="M142 0v700h463v-50h-413v-600h409v-50h-459zM167 336v50h381v-50h-381zM323 759l-18 33l152 98l34 -52z" />
    <glyph glyph-name="Ecircumflex" unicode="&#xca;" horiz-adv-x="709" 
d="M142 0v700h463v-50h-413v-600h409v-50h-459zM167 336v50h381v-50h-381zM263 765l-28 25l119 91h62l119 -91l-28 -25l-137 85h30z" />
    <glyph glyph-name="Edieresis" unicode="&#xcb;" horiz-adv-x="709" 
d="M142 0v700h463v-50h-413v-600h409v-50h-459zM167 336v50h381v-50h-381zM485 779q-22 0 -34 12t-12 33q0 20 12 32.5t34 12.5t34 -12t12 -33q0 -20 -12 -32.5t-34 -12.5zM285 779q-22 0 -34 12t-12 33q0 20 12 32.5t34 12.5t34 -12t12 -33q0 -20 -12 -32.5t-34 -12.5z" />
    <glyph glyph-name="Igrave" unicode="&#xcc;" horiz-adv-x="562" 
d="M115 0v51h141v598h-141v51h332v-51h-141v-598h141v-51h-332zM344 759l-168 79l34 52l152 -98z" />
    <glyph glyph-name="Iacute" unicode="&#xcd;" horiz-adv-x="562" 
d="M115 0v51h141v598h-141v51h332v-51h-141v-598h141v-51h-332zM219 759l-18 33l152 98l34 -52z" />
    <glyph glyph-name="Icircumflex" unicode="&#xce;" horiz-adv-x="562" 
d="M115 0v51h141v598h-141v51h332v-51h-141v-598h141v-51h-332zM159 765l-28 25l119 91h62l119 -91l-28 -25l-137 85h30z" />
    <glyph glyph-name="Idieresis" unicode="&#xcf;" horiz-adv-x="562" 
d="M115 0v51h141v598h-141v51h332v-51h-141v-598h141v-51h-332zM381 779q-22 0 -34 12t-12 33q0 20 12 32.5t34 12.5t34 -12t12 -33q0 -20 -12 -32.5t-34 -12.5zM181 779q-22 0 -34 12t-12 33q0 20 12 32.5t34 12.5t34 -12t12 -33q0 -20 -12 -32.5t-34 -12.5z" />
    <glyph glyph-name="Eth" unicode="&#xd0;" horiz-adv-x="863" 
d="M68 328v43h324v-43h-324zM142 0v700h287q76 0 140 -26.5t111.5 -73t74 -110.5t26.5 -140t-26.5 -140.5t-74 -110.5t-111.5 -72.5t-140 -26.5h-287zM192 33l-14 17h246q65 0 120.5 22.5t96 63t63.5 94t23 120.5q0 66 -23 120t-63.5 94.5t-96 63t-120.5 22.5h-249l17 15
v-632z" />
    <glyph glyph-name="Ntilde" unicode="&#xd1;" horiz-adv-x="912" 
d="M142 0v700h49l546 -640l-11 -27q-2 11 -2 49t-1 88.5t-1 101.5t-0.5 90.5t-0.5 54.5v283h50v-700h-52l-545 641l10 28q0 -15 0.5 -48t2 -74.5l3 -83t2 -74t0.5 -45.5v-344h-50zM527 779q-22 0 -43 8.5t-44 18.5q-12 5 -24.5 11t-23.5 6q-15 0 -26 -11t-11 -32h-46
q0 41 23 65t56 24q22 0 42.5 -8t44.5 -19q11 -5 24 -11t24 -6q15 0 26 10.5t11 32.5h46q0 -27 -10.5 -47t-28.5 -31t-40 -11z" />
    <glyph glyph-name="Ograve" unicode="&#xd2;" horiz-adv-x="915" 
d="M457 -10q-83 0 -151 26.5t-119 74.5t-78 113.5t-27 142.5t27 142.5t78 114t119 75t151 26.5q82 0 151 -26.5t119 -75t78 -114t28 -142.5t-28 -142.5t-78 -113.5t-119 -74.5t-151 -26.5zM457 40q70 0 129.5 22.5t103 64t67 97.5t23.5 123t-23.5 123.5t-67 97.5t-103 64
t-129.5 23t-129.5 -23t-102.5 -64.5t-66.5 -98t-23.5 -122.5q0 -67 23.5 -122.5t66.5 -97.5t102.5 -64.5t129.5 -22.5zM521 759l-168 79l34 52l152 -98z" />
    <glyph glyph-name="Oacute" unicode="&#xd3;" horiz-adv-x="915" 
d="M457 -10q-83 0 -151 26.5t-119 74.5t-78 113.5t-27 142.5t27 142.5t78 114t119 75t151 26.5q82 0 151 -26.5t119 -75t78 -114t28 -142.5t-28 -142.5t-78 -113.5t-119 -74.5t-151 -26.5zM457 40q70 0 129.5 22.5t103 64t67 97.5t23.5 123t-23.5 123.5t-67 97.5t-103 64
t-129.5 23t-129.5 -23t-102.5 -64.5t-66.5 -98t-23.5 -122.5q0 -67 23.5 -122.5t66.5 -97.5t102.5 -64.5t129.5 -22.5zM396 759l-18 33l152 98l34 -52z" />
    <glyph glyph-name="Ocircumflex" unicode="&#xd4;" horiz-adv-x="915" 
d="M457 -10q-83 0 -151 26.5t-119 74.5t-78 113.5t-27 142.5t27 142.5t78 114t119 75t151 26.5q82 0 151 -26.5t119 -75t78 -114t28 -142.5t-28 -142.5t-78 -113.5t-119 -74.5t-151 -26.5zM457 40q70 0 129.5 22.5t103 64t67 97.5t23.5 123t-23.5 123.5t-67 97.5t-103 64
t-129.5 23t-129.5 -23t-102.5 -64.5t-66.5 -98t-23.5 -122.5q0 -67 23.5 -122.5t66.5 -97.5t102.5 -64.5t129.5 -22.5zM336 765l-28 25l119 91h62l119 -91l-28 -25l-137 85h30z" />
    <glyph glyph-name="Otilde" unicode="&#xd5;" horiz-adv-x="915" 
d="M457 -10q-83 0 -151 26.5t-119 74.5t-78 113.5t-27 142.5t27 142.5t78 114t119 75t151 26.5q82 0 151 -26.5t119 -75t78 -114t28 -142.5t-28 -142.5t-78 -113.5t-119 -74.5t-151 -26.5zM457 40q70 0 129.5 22.5t103 64t67 97.5t23.5 123t-23.5 123.5t-67 97.5t-103 64
t-129.5 23t-129.5 -23t-102.5 -64.5t-66.5 -98t-23.5 -122.5q0 -67 23.5 -122.5t66.5 -97.5t102.5 -64.5t129.5 -22.5zM528 779q-22 0 -43 8.5t-44 18.5q-12 5 -24.5 11t-23.5 6q-15 0 -26 -11t-11 -32h-46q0 41 23 65t56 24q22 0 42.5 -8t44.5 -19q11 -5 24 -11t24 -6
q15 0 26 10.5t11 32.5h46q0 -27 -10.5 -47t-28.5 -31t-40 -11z" />
    <glyph glyph-name="Odieresis" unicode="&#xd6;" horiz-adv-x="915" 
d="M457 -10q-83 0 -151 26.5t-119 74.5t-78 113.5t-27 142.5t27 142.5t78 114t119 75t151 26.5q82 0 151 -26.5t119 -75t78 -114t28 -142.5t-28 -142.5t-78 -113.5t-119 -74.5t-151 -26.5zM457 40q70 0 129.5 22.5t103 64t67 97.5t23.5 123t-23.5 123.5t-67 97.5t-103 64
t-129.5 23t-129.5 -23t-102.5 -64.5t-66.5 -98t-23.5 -122.5q0 -67 23.5 -122.5t66.5 -97.5t102.5 -64.5t129.5 -22.5zM558 779q-22 0 -34 12t-12 33q0 20 12 32.5t34 12.5t34 -12t12 -33q0 -20 -12 -32.5t-34 -12.5zM358 779q-22 0 -34 12t-12 33q0 20 12 32.5t34 12.5
t34 -12t12 -33q0 -20 -12 -32.5t-34 -12.5z" />
    <glyph glyph-name="multiply" unicode="&#xd7;" horiz-adv-x="569" 
d="M458 76l-381 366l38 37l382 -365zM115 80l-37 37l378 362l37 -37z" />
    <glyph glyph-name="Oslash" unicode="&#xd8;" horiz-adv-x="920" 
d="M136 -30l-33 35l678 718l34 -35zM459 -10q-83 0 -151.5 26.5t-119 74.5t-77.5 113.5t-27 142.5t27 142.5t77.5 114t119 75t151.5 26.5q82 0 151 -26.5t119 -75t78 -114t28 -142.5t-28 -142.5t-78 -113.5t-119 -74.5t-151 -26.5zM459 40q70 0 129.5 22.5t102.5 64t67 97.5
t24 123t-24 123.5t-67 97.5t-102.5 64t-129.5 23q-71 0 -130 -23t-102 -64.5t-66.5 -98t-23.5 -122.5q0 -67 23.5 -122.5t66.5 -97.5t102 -64.5t130 -22.5z" />
    <glyph glyph-name="Ugrave" unicode="&#xd9;" horiz-adv-x="875" 
d="M435 -7q-87 0 -153.5 39t-103.5 107t-37 156v405h50v-399q0 -75 31.5 -133.5t86.5 -91.5t126 -33q74 0 130 33t88 91.5t32 133.5v399h49v-406q0 -87 -38 -155t-105 -107t-156 -39zM501 759l-168 79l34 52l152 -98z" />
    <glyph glyph-name="Uacute" unicode="&#xda;" horiz-adv-x="875" 
d="M435 -7q-87 0 -153.5 39t-103.5 107t-37 156v405h50v-399q0 -75 31.5 -133.5t86.5 -91.5t126 -33q74 0 130 33t88 91.5t32 133.5v399h49v-406q0 -87 -38 -155t-105 -107t-156 -39zM376 759l-18 33l152 98l34 -52z" />
    <glyph glyph-name="Ucircumflex" unicode="&#xdb;" horiz-adv-x="875" 
d="M435 -7q-87 0 -153.5 39t-103.5 107t-37 156v405h50v-399q0 -75 31.5 -133.5t86.5 -91.5t126 -33q74 0 130 33t88 91.5t32 133.5v399h49v-406q0 -87 -38 -155t-105 -107t-156 -39zM316 765l-28 25l119 91h62l119 -91l-28 -25l-137 85h30z" />
    <glyph glyph-name="Udieresis" unicode="&#xdc;" horiz-adv-x="875" 
d="M435 -7q-87 0 -153.5 39t-103.5 107t-37 156v405h50v-399q0 -75 31.5 -133.5t86.5 -91.5t126 -33q74 0 130 33t88 91.5t32 133.5v399h49v-406q0 -87 -38 -155t-105 -107t-156 -39zM538 779q-22 0 -34 12t-12 33q0 20 12 32.5t34 12.5t34 -12t12 -33q0 -20 -12 -32.5
t-34 -12.5zM338 779q-22 0 -34 12t-12 33q0 20 12 32.5t34 12.5t34 -12t12 -33q0 -20 -12 -32.5t-34 -12.5z" />
    <glyph glyph-name="Yacute" unicode="&#xdd;" horiz-adv-x="751" 
d="M361 0v328l9 -49l-317 421h65l276 -370h-15l259 370h60l-302 -426l14 62v-336h-49zM314 759l-18 33l152 98l34 -52z" />
    <glyph glyph-name="Thorn" unicode="&#xde;" horiz-adv-x="723" 
d="M142 0v700h50v-147h239q62 0 108 -25t72 -68.5t26 -101.5q0 -57 -26 -101t-72 -70t-109 -26h-238v-161h-50zM192 215h243q47 0 80 18.5t50.5 50.5t17.5 74q0 40 -18 72t-51 50.5t-79 18.5h-243v-284z" />
    <glyph glyph-name="germandbls" unicode="&#xdf;" horiz-adv-x="778" 
d="M483 -10q-66 0 -118 24t-82 58l32 41q28 -29 72.5 -51.5t100.5 -22.5q72 0 115 43.5t43 106.5q0 38 -15.5 68.5t-47.5 56t-80 46t-113 35.5v35q42 6 76 17.5t57.5 27t35.5 38t12 48.5q0 52 -42 83.5t-117 31.5q-99 0 -152.5 -50.5t-53.5 -127.5v-498h-51v496
q0 66 30 117.5t87.5 81.5t138.5 30q66 0 115 -20t75 -56t26 -81q0 -46 -24.5 -81.5t-68 -57.5t-100.5 -27l6 24q64 -16 112 -38.5t81.5 -51.5t50 -65.5t16.5 -81.5q0 -55 -26.5 -100t-74.5 -72t-116 -27zM75 436v47h117v-47h-117z" />
    <glyph glyph-name="agrave" unicode="&#xe0;" horiz-adv-x="747" 
d="M343 -10q-84 0 -146 34.5t-97 95.5t-35 140t36.5 140.5t99 96.5t141.5 35q48 0 90.5 -13.5t76 -37.5t55.5 -53.5t28 -62.5l-21 11l5 144h47v-520h-49v138l18 21q-8 -34 -30.5 -64.5t-55.5 -54t-75 -37t-88 -13.5zM349 40q65 0 117 28.5t82 78t30 114.5q0 63 -29.5 113
t-81.5 79.5t-118 29.5q-68 0 -120 -29.5t-81.5 -79.5t-29.5 -113q0 -64 28.5 -114t80.5 -78.5t122 -28.5zM412 593l-154 101l33 45l142 -115z" />
    <glyph glyph-name="aacute" unicode="&#xe1;" horiz-adv-x="747" 
d="M343 -10q-84 0 -146 34.5t-97 95.5t-35 140t36.5 140.5t99 96.5t141.5 35q48 0 90.5 -13.5t76 -37.5t55.5 -53.5t28 -62.5l-21 11l5 144h47v-520h-49v138l18 21q-8 -34 -30.5 -64.5t-55.5 -54t-75 -37t-88 -13.5zM349 40q65 0 117 28.5t82 78t30 114.5q0 63 -29.5 113
t-81.5 79.5t-118 29.5q-68 0 -120 -29.5t-81.5 -79.5t-29.5 -113q0 -64 28.5 -114t80.5 -78.5t122 -28.5zM312 593l-21 31l142 115l33 -45z" />
    <glyph glyph-name="acircumflex" unicode="&#xe2;" horiz-adv-x="747" 
d="M343 -10q-84 0 -146 34.5t-97 95.5t-35 140t36.5 140.5t99 96.5t141.5 35q48 0 90.5 -13.5t76 -37.5t55.5 -53.5t28 -62.5l-21 11l5 144h47v-520h-49v138l18 21q-8 -34 -30.5 -64.5t-55.5 -54t-75 -37t-88 -13.5zM349 40q65 0 117 28.5t82 78t30 114.5q0 63 -29.5 113
t-81.5 79.5t-118 29.5q-68 0 -120 -29.5t-81.5 -79.5t-29.5 -113q0 -64 28.5 -114t80.5 -78.5t122 -28.5zM256 603l-28 25l109 101h62l109 -101l-28 -25l-127 97h30z" />
    <glyph glyph-name="atilde" unicode="&#xe3;" horiz-adv-x="747" 
d="M343 -10q-84 0 -146 34.5t-97 95.5t-35 140t36.5 140.5t99 96.5t141.5 35q48 0 90.5 -13.5t76 -37.5t55.5 -53.5t28 -62.5l-21 11l5 144h47v-520h-49v138l18 21q-8 -34 -30.5 -64.5t-55.5 -54t-75 -37t-88 -13.5zM349 40q65 0 117 28.5t82 78t30 114.5q0 63 -29.5 113
t-81.5 79.5t-118 29.5q-68 0 -120 -29.5t-81.5 -79.5t-29.5 -113q0 -64 28.5 -114t80.5 -78.5t122 -28.5zM433 612q-21 0 -39 9.5t-42 33.5q-10 10 -19 15t-21 5q-21 0 -34.5 -14.5t-17.5 -42.5l-41 4q5 42 31.5 69t66.5 27q19 0 35 -8t40 -31q10 -10 19.5 -17t23.5 -7
q16 0 27 14t13 33l43 -4q-3 -24 -14 -43.5t-29 -31t-42 -11.5z" />
    <glyph glyph-name="adieresis" unicode="&#xe4;" horiz-adv-x="747" 
d="M343 -10q-84 0 -146 34.5t-97 95.5t-35 140t36.5 140.5t99 96.5t141.5 35q48 0 90.5 -13.5t76 -37.5t55.5 -53.5t28 -62.5l-21 11l5 144h47v-520h-49v138l18 21q-8 -34 -30.5 -64.5t-55.5 -54t-75 -37t-88 -13.5zM349 40q65 0 117 28.5t82 78t30 114.5q0 63 -29.5 113
t-81.5 79.5t-118 29.5q-68 0 -120 -29.5t-81.5 -79.5t-29.5 -113q0 -64 28.5 -114t80.5 -78.5t122 -28.5zM463 621q-22 0 -34 12t-12 33q0 20 12 32.5t34 12.5t34 -12t12 -33q0 -20 -12 -32.5t-34 -12.5zM272 620q-22 0 -34 12t-12 33q0 20 12 32.5t34 12.5t34 -12t12 -33
q0 -20 -12 -32.5t-34 -12.5z" />
    <glyph glyph-name="aring" unicode="&#xe5;" horiz-adv-x="747" 
d="M343 -10q-84 0 -146 34.5t-97 95.5t-35 140t36.5 140.5t99 96.5t141.5 35q48 0 90.5 -13.5t76 -37.5t55.5 -53.5t28 -62.5l-21 11l5 144h47v-520h-49v138l18 21q-8 -34 -30.5 -64.5t-55.5 -54t-75 -37t-88 -13.5zM349 40q65 0 117 28.5t82 78t30 114.5q0 63 -29.5 113
t-81.5 79.5t-118 29.5q-68 0 -120 -29.5t-81.5 -79.5t-29.5 -113q0 -64 28.5 -114t80.5 -78.5t122 -28.5zM367 585q-27 0 -51 14t-38.5 37t-14.5 49q0 28 14.5 50.5t38 36.5t51.5 14t52 -14t38.5 -36.5t14.5 -50.5q0 -26 -14.5 -49t-38.5 -37t-52 -14zM367 624q27 0 46 18
t19 43q0 28 -19 45t-46 17q-28 0 -46 -17.5t-18 -44.5q0 -25 19 -43t45 -18z" />
    <glyph glyph-name="ae" unicode="&#xe6;" horiz-adv-x="1069" 
d="M270 -10q-62 0 -108 19.5t-71.5 55t-25.5 84.5q0 44 19 74t53.5 47t83 25.5t105.5 8.5h645l-22 -20v23q1 42 -22 81.5t-67.5 66.5t-108.5 27q-63 0 -113.5 -24t-80 -72t-29.5 -122q0 -69 29 -119.5t84.5 -78t131.5 -27.5q48 0 92 13.5t96 51.5l24 -39q-26 -21 -59.5 -38
t-73.5 -27t-88 -10q-85 0 -150.5 34.5t-102 95.5t-36.5 141q0 67 20.5 117.5t58.5 84.5t88.5 51t109.5 17q76 0 131 -31t85.5 -87t30.5 -130l-1 -26h-685q-40 0 -75.5 -5.5t-62.5 -18t-42 -32.5t-15 -49q0 -35 19 -60t54.5 -38.5t82.5 -13.5q48 0 92 16.5t78.5 44.5t54.5 60
l32 -36q-23 -38 -64.5 -68.5t-92.5 -48.5t-104 -18zM475 289v67q0 29 -10.5 52t-32 40t-52.5 25t-73 8q-58 0 -107 -21t-95 -62l-34 36q37 32 75 54t78 32.5t85 10.5t82.5 -10t66 -29.5t45 -50t16.5 -71.5v-81h-44z" />
    <glyph glyph-name="ccedilla" unicode="&#xe7;" horiz-adv-x="656" 
d="M355 -10q-84 0 -148.5 35t-101.5 96t-37 140t37.5 140.5t102.5 96t150 34.5q71 0 132 -25t104 -69l-31 -42q-25 26 -57.5 45.5t-72 30t-83.5 10.5q-65 0 -117 -28.5t-81.5 -78.5t-29.5 -114q0 -65 30 -114.5t81.5 -78t113.5 -28.5q46 0 85.5 10.5t71 28.5t56.5 41l31 -42
q-44 -40 -104.5 -64t-131.5 -24zM260 -230l-7 34q32 1 59.5 7t44 18t16.5 29q0 16 -14 26.5t-35.5 15t-44.5 4.5l-12 14l59 88h44l-43 -65q43 -8 68 -26.5t25 -49.5q0 -27 -14.5 -46t-38.5 -29t-51.5 -15t-55.5 -5z" />
    <glyph glyph-name="egrave" unicode="&#xe8;" horiz-adv-x="678" 
d="M357 -10q-86 0 -152.5 34t-103.5 95t-37 142q0 61 21.5 110t59.5 85.5t90 56t112 19.5t109 -17.5t83.5 -51t52.5 -79.5t16 -102l-1 -31h-503v46h476l-21 -14l-1 24q0 40 -24.5 80.5t-71.5 67.5t-116 27q-63 0 -115 -23.5t-83 -72t-31 -122.5q0 -68 30 -118t85.5 -77.5
t134.5 -27.5q53 0 98 13.5t96 50.5l23 -39q-26 -20 -59.5 -38t-75 -28t-92.5 -10zM391 593l-154 101l33 45l142 -115z" />
    <glyph glyph-name="eacute" unicode="&#xe9;" horiz-adv-x="678" 
d="M357 -10q-86 0 -152.5 34t-103.5 95t-37 142q0 61 21.5 110t59.5 85.5t90 56t112 19.5t109 -17.5t83.5 -51t52.5 -79.5t16 -102l-1 -31h-503v46h476l-21 -14l-1 24q0 40 -24.5 80.5t-71.5 67.5t-116 27q-63 0 -115 -23.5t-83 -72t-31 -122.5q0 -68 30 -118t85.5 -77.5
t134.5 -27.5q53 0 98 13.5t96 50.5l23 -39q-26 -20 -59.5 -38t-75 -28t-92.5 -10zM290 593l-21 31l142 115l33 -45z" />
    <glyph glyph-name="ecircumflex" unicode="&#xea;" horiz-adv-x="678" 
d="M357 -10q-86 0 -152.5 34t-103.5 95t-37 142q0 61 21.5 110t59.5 85.5t90 56t112 19.5t109 -17.5t83.5 -51t52.5 -79.5t16 -102l-1 -31h-503v46h476l-21 -14l-1 24q0 40 -24.5 80.5t-71.5 67.5t-116 27q-63 0 -115 -23.5t-83 -72t-31 -122.5q0 -68 30 -118t85.5 -77.5
t134.5 -27.5q53 0 98 13.5t96 50.5l23 -39q-26 -20 -59.5 -38t-75 -28t-92.5 -10zM234 603l-28 25l109 101h62l109 -101l-28 -25l-127 97h30z" />
    <glyph glyph-name="edieresis" unicode="&#xeb;" horiz-adv-x="678" 
d="M357 -10q-86 0 -152.5 34t-103.5 95t-37 142q0 61 21.5 110t59.5 85.5t90 56t112 19.5t109 -17.5t83.5 -51t52.5 -79.5t16 -102l-1 -31h-503v46h476l-21 -14l-1 24q0 40 -24.5 80.5t-71.5 67.5t-116 27q-63 0 -115 -23.5t-83 -72t-31 -122.5q0 -68 30 -118t85.5 -77.5
t134.5 -27.5q53 0 98 13.5t96 50.5l23 -39q-26 -20 -59.5 -38t-75 -28t-92.5 -10zM441 621q-22 0 -34 12t-12 33q0 20 12 32.5t34 12.5t34 -12t12 -33q0 -20 -12 -32.5t-34 -12.5zM250 620q-22 0 -34 12t-12 33q0 20 12 32.5t34 12.5t34 -12t12 -33q0 -20 -12 -32.5
t-34 -12.5z" />
    <glyph glyph-name="igrave" unicode="&#xec;" horiz-adv-x="304" 
d="M126 0v520h50v-520h-50zM196 593l-154 101l33 45l142 -115z" />
    <glyph glyph-name="iacute" unicode="&#xed;" horiz-adv-x="304" 
d="M126 0v520h50v-520h-50zM96 593l-21 31l142 115l33 -45z" />
    <glyph glyph-name="icircumflex" unicode="&#xee;" horiz-adv-x="304" 
d="M126 0v520h50v-520h-50zM40 603l-28 25l109 101h62l109 -101l-28 -25l-127 97h30z" />
    <glyph glyph-name="idieresis" unicode="&#xef;" horiz-adv-x="304" 
d="M126 0v520h50v-520h-50zM247 621q-22 0 -34 12t-12 33q0 20 12 32.5t34 12.5t34 -12t12 -33q0 -20 -12 -32.5t-34 -12.5zM56 620q-22 0 -34 12t-12 33q0 20 12 32.5t34 12.5t34 -12t12 -33q0 -20 -12 -32.5t-34 -12.5z" />
    <glyph glyph-name="eth" unicode="&#xf0;" horiz-adv-x="691" 
d="M344 -10q-81 0 -143.5 35t-97.5 97t-35 141q0 57 21 105.5t58 83.5t88.5 55t112.5 20t109.5 -21.5t83 -57.5t51.5 -79l-21 -6q-2 36 -18 77.5t-43 82t-62.5 76t-77.5 63.5t-88 42l25 35q50 -16 96 -47t86 -74t70 -97.5t47 -118.5t17 -135q0 -81 -36 -143.5t-99 -98
t-144 -35.5zM344 39q65 0 115.5 29t80 79.5t29.5 115.5q0 63 -30 113t-81 78t-118 28q-64 0 -113 -28t-77.5 -78t-28.5 -113q0 -65 29 -115.5t79.5 -79.5t114.5 -29zM244 559l-8 41l186 39l24 6l123 26l11 -41l-99 -19l-22 -6z" />
    <glyph glyph-name="ntilde" unicode="&#xf1;" horiz-adv-x="726" 
d="M132 0v520h48l5 -126l-10 1q13 35 44.5 66.5t77 51t97.5 19.5q64 0 109 -26t67.5 -75.5t22.5 -119.5v-311h-50v306q0 58 -19.5 97t-55.5 60t-86 21q-44 0 -80 -15.5t-63.5 -41.5t-42 -57.5t-14.5 -65.5v-304h-25h-8h-17zM454 612q-21 0 -39 9.5t-42 33.5q-10 10 -19 15
t-21 5q-21 0 -34.5 -14.5t-17.5 -42.5l-41 4q5 42 31.5 69t66.5 27q19 0 35 -8t40 -31q10 -10 19.5 -17t23.5 -7q16 0 27 14t13 33l43 -4q-3 -24 -14 -43.5t-29 -31t-42 -11.5z" />
    <glyph glyph-name="ograve" unicode="&#xf2;" horiz-adv-x="735" 
d="M368 -10q-88 0 -155.5 35t-106 97t-38.5 141q0 78 38.5 139t106 95.5t155.5 34.5q87 0 154.5 -34.5t106 -95.5t38.5 -139q0 -79 -38.5 -140.5t-106 -97t-154.5 -35.5zM368 40q70 0 126 29t88 79t32 115q0 63 -32 113t-88 78t-126 28q-72 0 -128 -28t-87.5 -77.5
t-31.5 -113.5q0 -65 31.5 -115t88 -79t127.5 -29zM413 593l-154 101l33 45l142 -115z" />
    <glyph glyph-name="oacute" unicode="&#xf3;" horiz-adv-x="735" 
d="M368 -10q-88 0 -155.5 35t-106 97t-38.5 141q0 78 38.5 139t106 95.5t155.5 34.5q87 0 154.5 -34.5t106 -95.5t38.5 -139q0 -79 -38.5 -140.5t-106 -97t-154.5 -35.5zM368 40q70 0 126 29t88 79t32 115q0 63 -32 113t-88 78t-126 28q-72 0 -128 -28t-87.5 -77.5
t-31.5 -113.5q0 -65 31.5 -115t88 -79t127.5 -29zM312 593l-21 31l142 115l33 -45z" />
    <glyph glyph-name="ocircumflex" unicode="&#xf4;" horiz-adv-x="735" 
d="M368 -10q-88 0 -155.5 35t-106 97t-38.5 141q0 78 38.5 139t106 95.5t155.5 34.5q87 0 154.5 -34.5t106 -95.5t38.5 -139q0 -79 -38.5 -140.5t-106 -97t-154.5 -35.5zM368 40q70 0 126 29t88 79t32 115q0 63 -32 113t-88 78t-126 28q-72 0 -128 -28t-87.5 -77.5
t-31.5 -113.5q0 -65 31.5 -115t88 -79t127.5 -29zM256 603l-28 25l109 101h62l109 -101l-28 -25l-127 97h30z" />
    <glyph glyph-name="otilde" unicode="&#xf5;" horiz-adv-x="735" 
d="M368 -10q-88 0 -155.5 35t-106 97t-38.5 141q0 78 38.5 139t106 95.5t155.5 34.5q87 0 154.5 -34.5t106 -95.5t38.5 -139q0 -79 -38.5 -140.5t-106 -97t-154.5 -35.5zM368 40q70 0 126 29t88 79t32 115q0 63 -32 113t-88 78t-126 28q-72 0 -128 -28t-87.5 -77.5
t-31.5 -113.5q0 -65 31.5 -115t88 -79t127.5 -29zM433 612q-21 0 -39 9.5t-42 33.5q-10 10 -19 15t-21 5q-21 0 -34.5 -14.5t-17.5 -42.5l-41 4q5 42 31.5 69t66.5 27q19 0 35 -8t40 -31q10 -10 19.5 -17t23.5 -7q16 0 27 14t13 33l43 -4q-3 -24 -14 -43.5t-29 -31
t-42 -11.5z" />
    <glyph glyph-name="odieresis" unicode="&#xf6;" horiz-adv-x="735" 
d="M368 -10q-88 0 -155.5 35t-106 97t-38.5 141q0 78 38.5 139t106 95.5t155.5 34.5q87 0 154.5 -34.5t106 -95.5t38.5 -139q0 -79 -38.5 -140.5t-106 -97t-154.5 -35.5zM368 40q70 0 126 29t88 79t32 115q0 63 -32 113t-88 78t-126 28q-72 0 -128 -28t-87.5 -77.5
t-31.5 -113.5q0 -65 31.5 -115t88 -79t127.5 -29zM463 621q-22 0 -34 12t-12 33q0 20 12 32.5t34 12.5t34 -12t12 -33q0 -20 -12 -32.5t-34 -12.5zM272 620q-22 0 -34 12t-12 33q0 20 12 32.5t34 12.5t34 -12t12 -33q0 -20 -12 -32.5t-34 -12.5z" />
    <glyph glyph-name="divide" unicode="&#xf7;" horiz-adv-x="703" 
d="M82 270v50h537v-50h-537zM351 81q-17 0 -29.5 5t-20 14.5t-7.5 25.5q0 15 7.5 25.5t19.5 15t30 4.5t30.5 -5t19.5 -14.5t7 -25.5q0 -14 -7.5 -25t-19.5 -15.5t-30 -4.5zM352 405q-17 0 -29.5 5t-20 14.5t-7.5 25.5t7.5 26t19.5 14.5t30 4.5t30.5 -5t19.5 -14.5t7 -24.5
t-7 -25.5t-19.5 -15.5t-30.5 -5z" />
    <glyph glyph-name="oslash" unicode="&#xf8;" horiz-adv-x="735" 
d="M124 -16l-31 28l523 529l31 -29zM368 -10q-88 0 -155.5 35t-106 97t-38.5 141q0 78 38.5 139t106 95.5t155.5 34.5t155.5 -34.5t105.5 -95.5t38 -139q0 -79 -38 -140.5t-105.5 -97t-155.5 -35.5zM368 40q71 0 127 29t88 79t31 115q1 63 -31 113t-88 78t-127 28
q-72 0 -127.5 -28t-87.5 -77.5t-32 -113.5q0 -65 32 -115t88 -79t127 -29z" />
    <glyph glyph-name="ugrave" unicode="&#xf9;" horiz-adv-x="708" 
d="M334 -10q-71 0 -117.5 26t-70 76t-23.5 124v304h50v-299q0 -60 18 -100.5t54 -60.5t88 -20q43 0 80.5 15t64.5 40t43 57t16 68v300h50v-520h-48l-5 121h7q-10 -33 -41.5 -63t-75 -49t-90.5 -19zM400 593l-154 101l33 45l142 -115z" />
    <glyph glyph-name="uacute" unicode="&#xfa;" horiz-adv-x="708" 
d="M334 -10q-71 0 -117.5 26t-70 76t-23.5 124v304h50v-299q0 -60 18 -100.5t54 -60.5t88 -20q43 0 80.5 15t64.5 40t43 57t16 68v300h50v-520h-48l-5 121h7q-10 -33 -41.5 -63t-75 -49t-90.5 -19zM299 593l-21 31l142 115l33 -45z" />
    <glyph glyph-name="ucircumflex" unicode="&#xfb;" horiz-adv-x="708" 
d="M334 -10q-71 0 -117.5 26t-70 76t-23.5 124v304h50v-299q0 -60 18 -100.5t54 -60.5t88 -20q43 0 80.5 15t64.5 40t43 57t16 68v300h50v-520h-48l-5 121h7q-10 -33 -41.5 -63t-75 -49t-90.5 -19zM243 603l-28 25l109 101h62l109 -101l-28 -25l-127 97h30z" />
    <glyph glyph-name="udieresis" unicode="&#xfc;" horiz-adv-x="708" 
d="M334 -10q-71 0 -117.5 26t-70 76t-23.5 124v304h50v-299q0 -60 18 -100.5t54 -60.5t88 -20q43 0 80.5 15t64.5 40t43 57t16 68v300h50v-520h-48l-5 121h7q-10 -33 -41.5 -63t-75 -49t-90.5 -19zM450 621q-22 0 -34 12t-12 33q0 20 12 32.5t34 12.5t34 -12t12 -33
q0 -20 -12 -32.5t-34 -12.5zM259 620q-22 0 -34 12t-12 33q0 20 12 32.5t34 12.5t34 -12t12 -33q0 -20 -12 -32.5t-34 -12.5z" />
    <glyph glyph-name="yacute" unicode="&#xfd;" horiz-adv-x="665" 
d="M219 -230l111 247l11 -59l-291 562h53l208 -398q17 -31 29 -59t22 -54l-29 15q10 20 18 38.5t16 36.5l195 421h53l-237 -516l-108 -234h-51zM276 593l-21 31l142 115l33 -45z" />
    <glyph glyph-name="thorn" unicode="&#xfe;" horiz-adv-x="764" 
d="M132 -220v960h50v-355l-10 -12q14 44 49 79.5t86 57t112 21.5q58 0 108 -20t88 -56.5t59.5 -86t21.5 -108.5q0 -78 -36.5 -139t-99 -96t-141.5 -35q-62 0 -113 22t-85.5 57.5t-48.5 78.5l10 -13v-355h-50zM411 40q69 0 121 28.5t81.5 78.5t29.5 113q0 64 -30 114
t-82 78.5t-120 28.5q-67 0 -120 -28.5t-83 -78t-30 -113.5q0 -65 30.5 -114.5t83 -78t119.5 -28.5z" />
    <glyph glyph-name="ydieresis" unicode="&#xff;" horiz-adv-x="665" 
d="M219 -230l111 247l11 -59l-291 562h53l208 -398q17 -31 29 -59t22 -54l-29 15q10 20 18 38.5t16 36.5l195 421h53l-237 -516l-108 -234h-51zM427 621q-22 0 -34 12t-12 33q0 20 12 32.5t34 12.5t34 -12t12 -33q0 -20 -12 -32.5t-34 -12.5zM236 620q-22 0 -34 12t-12 33
q0 20 12 32.5t34 12.5t34 -12t12 -33q0 -20 -12 -32.5t-34 -12.5z" />
    <glyph glyph-name="Amacron" unicode="&#x100;" horiz-adv-x="764" 
d="M53 0l296 700h69l293 -700h-57l-213 508q-13 35 -21.5 56.5t-15.5 38.5t-14 36.5t-17 48.5h16q-10 -34 -18 -55t-15.5 -38t-16 -38t-21.5 -55l-213 -502h-52zM172 207l21 50h381l16 -50h-418zM240 801v46h284v-46h-284z" />
    <glyph glyph-name="amacron" unicode="&#x101;" horiz-adv-x="747" 
d="M343 -10q-84 0 -146 34.5t-97 95.5t-35 140t36.5 140.5t99 96.5t141.5 35q48 0 90.5 -13.5t76 -37.5t55.5 -53.5t28 -62.5l-21 11l5 144h47v-520h-49v138l18 21q-8 -34 -30.5 -64.5t-55.5 -54t-75 -37t-88 -13.5zM349 40q65 0 117 28.5t82 78t30 114.5q0 63 -29.5 113
t-81.5 79.5t-118 29.5q-68 0 -120 -29.5t-81.5 -79.5t-29.5 -113q0 -64 28.5 -114t80.5 -78.5t122 -28.5zM230 644v43h276v-43h-276z" />
    <glyph glyph-name="Abreve" unicode="&#x102;" horiz-adv-x="764" 
d="M53 0l296 700h69l293 -700h-57l-213 508q-13 35 -21.5 56.5t-15.5 38.5t-14 36.5t-17 48.5h16q-10 -34 -18 -55t-15.5 -38t-16 -38t-21.5 -55l-213 -502h-52zM172 207l21 50h381l16 -50h-418zM382 761q-36 0 -65 15t-49 42.5t-28 64.5l43 5q10 -48 37.5 -67t61.5 -19
t61.5 19t37.5 67l43 -5q-8 -37 -28 -64.5t-49 -42.5t-65 -15z" />
    <glyph glyph-name="abreve" unicode="&#x103;" horiz-adv-x="747" 
d="M343 -10q-84 0 -146 34.5t-97 95.5t-35 140t36.5 140.5t99 96.5t141.5 35q48 0 90.5 -13.5t76 -37.5t55.5 -53.5t28 -62.5l-21 11l5 144h47v-520h-49v138l18 21q-8 -34 -30.5 -64.5t-55.5 -54t-75 -37t-88 -13.5zM349 40q65 0 117 28.5t82 78t30 114.5q0 63 -29.5 113
t-81.5 79.5t-118 29.5q-68 0 -120 -29.5t-81.5 -79.5t-29.5 -113q0 -64 28.5 -114t80.5 -78.5t122 -28.5zM368 596q-54 0 -92 35.5t-50 96.5l43 5q10 -45 37.5 -70.5t61.5 -25.5t61.5 25.5t37.5 70.5l43 -5q-12 -61 -50 -96.5t-92 -35.5z" />
    <glyph glyph-name="Aogonek" unicode="&#x104;" horiz-adv-x="764" 
d="M53 0l296 700h69l293 -700h-57l-213 508q-13 35 -21.5 56.5t-15.5 38.5t-14 36.5t-17 48.5h16q-10 -34 -18 -55t-15.5 -38t-16 -38t-21.5 -55l-213 -502h-52zM172 207l21 50h381l16 -50h-418zM651 -221q-32 0 -57.5 13t-41.5 35.5t-16 51.5q0 27 13.5 48.5t35.5 38.5
t48 31t51 26l27 -23q-35 -15 -63.5 -34t-46 -40t-17.5 -45q0 -25 20 -42t49 -17q23 0 40.5 9t28.5 23l33 -24q-18 -24 -43 -37.5t-61 -13.5z" />
    <glyph glyph-name="aogonek" unicode="&#x105;" horiz-adv-x="747" 
d="M343 -10q-84 0 -146 34.5t-97 95.5t-35 140t36.5 140.5t99 96.5t141.5 35q48 0 90.5 -13.5t76 -37.5t55.5 -53.5t28 -62.5l-21 11l5 144h47v-520h-49v138l18 21q-8 -34 -30.5 -64.5t-55.5 -54t-75 -37t-88 -13.5zM349 40q65 0 117 28.5t82 78t30 114.5q0 63 -29.5 113
t-81.5 79.5t-118 29.5q-68 0 -120 -29.5t-81.5 -79.5t-29.5 -113q0 -64 28.5 -114t80.5 -78.5t122 -28.5zM548 -221q-25 0 -46 11t-33.5 31t-12.5 45q0 28 11 51.5t30 42.5t44.5 36t55.5 31l26 -28q-36 -16 -63 -35.5t-42.5 -42t-15.5 -48.5q0 -22 14.5 -37t36.5 -15
q19 0 34.5 8.5t30.5 27.5l33 -24q-11 -17 -26 -29t-34 -18.5t-43 -6.5z" />
    <glyph glyph-name="Cacute" unicode="&#x106;" horiz-adv-x="795" 
d="M466 -10q-83 0 -153.5 27t-122.5 75.5t-80 114t-28 144.5q0 77 27.5 141.5t77.5 112t118.5 74t148.5 26.5q52 0 104.5 -16t97.5 -42.5t74 -60.5l-34 -43q-24 34 -63 58.5t-85.5 39t-94.5 14.5q-68 0 -127 -22t-101 -63t-66 -97.5t-24 -121.5q0 -67 24.5 -124.5t69.5 -99
t104 -65t131 -23.5q48 0 92.5 13.5t80.5 35t58 49.5l25 -45q-26 -28 -67 -51t-89.5 -37t-97.5 -14zM392 759l-18 33l152 98l34 -52z" />
    <glyph glyph-name="cacute" unicode="&#x107;" horiz-adv-x="656" 
d="M355 -10q-84 0 -148.5 35t-101.5 96t-37 140t37.5 140.5t102.5 96t150 34.5q71 0 132 -25t104 -69l-31 -42q-25 26 -57.5 45.5t-72 30t-83.5 10.5q-65 0 -117 -28.5t-81.5 -78.5t-29.5 -114q0 -65 30 -114.5t81.5 -78t113.5 -28.5q46 0 85.5 10.5t71 28.5t56.5 41l31 -42
q-44 -40 -104.5 -64t-131.5 -24zM301 593l-21 31l142 115l33 -45z" />
    <glyph glyph-name="Ccircumflex" unicode="&#x108;" horiz-adv-x="795" 
d="M466 -10q-83 0 -153.5 27t-122.5 75.5t-80 114t-28 144.5q0 77 27.5 141.5t77.5 112t118.5 74t148.5 26.5q52 0 104.5 -16t97.5 -42.5t74 -60.5l-34 -43q-24 34 -63 58.5t-85.5 39t-94.5 14.5q-68 0 -127 -22t-101 -63t-66 -97.5t-24 -121.5q0 -67 24.5 -124.5t69.5 -99
t104 -65t131 -23.5q48 0 92.5 13.5t80.5 35t58 49.5l25 -45q-26 -28 -67 -51t-89.5 -37t-97.5 -14zM332 765l-28 25l119 91h62l119 -91l-28 -25l-137 85h30z" />
    <glyph glyph-name="ccircumflex" unicode="&#x109;" horiz-adv-x="656" 
d="M355 -10q-84 0 -148.5 35t-101.5 96t-37 140t37.5 140.5t102.5 96t150 34.5q71 0 132 -25t104 -69l-31 -42q-25 26 -57.5 45.5t-72 30t-83.5 10.5q-65 0 -117 -28.5t-81.5 -78.5t-29.5 -114q0 -65 30 -114.5t81.5 -78t113.5 -28.5q46 0 85.5 10.5t71 28.5t56.5 41l31 -42
q-44 -40 -104.5 -64t-131.5 -24zM245 603l-28 25l109 101h62l109 -101l-28 -25l-127 97h30z" />
    <glyph glyph-name="Cdotaccent" unicode="&#x10a;" horiz-adv-x="795" 
d="M466 -10q-83 0 -153.5 27t-122.5 75.5t-80 114t-28 144.5q0 77 27.5 141.5t77.5 112t118.5 74t148.5 26.5q52 0 104.5 -16t97.5 -42.5t74 -60.5l-34 -43q-24 34 -63 58.5t-85.5 39t-94.5 14.5q-68 0 -127 -22t-101 -63t-66 -97.5t-24 -121.5q0 -67 24.5 -124.5t69.5 -99
t104 -65t131 -23.5q48 0 92.5 13.5t80.5 35t58 49.5l25 -45q-26 -28 -67 -51t-89.5 -37t-97.5 -14zM454 779q-22 0 -34 12t-12 33q0 20 12 32.5t34 12.5t34 -12t12 -33q0 -20 -12 -32.5t-34 -12.5z" />
    <glyph glyph-name="cdotaccent" unicode="&#x10b;" horiz-adv-x="656" 
d="M355 -10q-84 0 -148.5 35t-101.5 96t-37 140t37.5 140.5t102.5 96t150 34.5q71 0 132 -25t104 -69l-31 -42q-25 26 -57.5 45.5t-72 30t-83.5 10.5q-65 0 -117 -28.5t-81.5 -78.5t-29.5 -114q0 -65 30 -114.5t81.5 -78t113.5 -28.5q46 0 85.5 10.5t71 28.5t56.5 41l31 -42
q-44 -40 -104.5 -64t-131.5 -24zM357 630q-22 0 -34 12t-12 33q0 20 12 32.5t34 12.5t34 -12t12 -33q0 -20 -12 -32.5t-34 -12.5z" />
    <glyph glyph-name="Ccaron" unicode="&#x10c;" horiz-adv-x="795" 
d="M466 -10q-83 0 -153.5 27t-122.5 75.5t-80 114t-28 144.5q0 77 27.5 141.5t77.5 112t118.5 74t148.5 26.5q52 0 104.5 -16t97.5 -42.5t74 -60.5l-34 -43q-24 34 -63 58.5t-85.5 39t-94.5 14.5q-68 0 -127 -22t-101 -63t-66 -97.5t-24 -121.5q0 -67 24.5 -124.5t69.5 -99
t104 -65t131 -23.5q48 0 92.5 13.5t80.5 35t58 49.5l25 -45q-26 -28 -67 -51t-89.5 -37t-97.5 -14zM423 766l-109 91l28 25l127 -87h-30l127 87l28 -25l-109 -91h-62z" />
    <glyph glyph-name="ccaron" unicode="&#x10d;" horiz-adv-x="656" 
d="M355 -10q-84 0 -148.5 35t-101.5 96t-37 140t37.5 140.5t102.5 96t150 34.5q71 0 132 -25t104 -69l-31 -42q-25 26 -57.5 45.5t-72 30t-83.5 10.5q-65 0 -117 -28.5t-81.5 -78.5t-29.5 -114q0 -65 30 -114.5t81.5 -78t113.5 -28.5q46 0 85.5 10.5t71 28.5t56.5 41l31 -42
q-44 -40 -104.5 -64t-131.5 -24zM326 601l-109 101l28 25l127 -97h-30l127 97l28 -25l-109 -101h-62z" />
    <glyph glyph-name="Dcaron" unicode="&#x10e;" horiz-adv-x="863" 
d="M142 0v700h287q76 0 140 -26.5t111.5 -73t74 -110.5t26.5 -140t-26.5 -140.5t-74 -110.5t-111.5 -72.5t-140 -26.5h-287zM192 33l-14 17h246q65 0 120.5 22.5t96 63t63.5 94t23 120.5q0 66 -23 120t-63.5 94.5t-96 63t-120.5 22.5h-249l17 15v-632zM402 766l-109 91
l28 25l127 -87h-30l127 87l28 -25l-109 -91h-62z" />
    <glyph glyph-name="dcaron" unicode="&#x10f;" horiz-adv-x="743" 
d="M335 -10q-77 0 -137.5 35.5t-95.5 96.5t-35 139q0 79 35.5 140t97 96t138.5 35q46 0 85.5 -11.5t72 -32.5t56.5 -51.5t37 -66.5l-19 16v354h50v-740h-47l-5 140l20 13q-12 -36 -36 -66t-57 -52t-73.5 -33.5t-86.5 -11.5zM344 41q66 0 118 28.5t82 78t30 114.5
q0 63 -29 113t-81 78t-120 28q-65 0 -115.5 -28t-79.5 -77.5t-29 -113.5q0 -63 29 -113t79.5 -79t115.5 -29zM696 578l-21 24q15 9 26 17t16 16t5 16q0 12 -6.5 15.5t-15.5 7.5q-9 3 -15.5 11.5t-6.5 20.5q0 14 11.5 24t28.5 10q24 0 39.5 -16t15.5 -45q0 -17 -5 -31.5
t-15.5 -26t-25 -22t-31.5 -21.5z" />
    <glyph glyph-name="Dcroat" unicode="&#x110;" horiz-adv-x="863" 
d="M68 328v43h324v-43h-324zM142 0v700h287q76 0 140 -26.5t111.5 -73t74 -110.5t26.5 -140t-26.5 -140.5t-74 -110.5t-111.5 -72.5t-140 -26.5h-287zM192 33l-14 17h246q65 0 120.5 22.5t96 63t63.5 94t23 120.5q0 66 -23 120t-63.5 94.5t-96 63t-120.5 22.5h-249l17 15
v-632z" />
    <glyph glyph-name="dcroat" unicode="&#x111;" horiz-adv-x="749" 
d="M383 612v43h324v-43h-324zM335 -10q-77 0 -137.5 35.5t-95.5 96.5t-35 139q0 79 35.5 140t97 96t138.5 35q46 0 85.5 -11.5t72 -32.5t56.5 -51.5t37 -66.5l-19 16v354h50v-740h-47l-5 140l20 13q-12 -36 -36 -66t-57 -52t-73.5 -33.5t-86.5 -11.5zM344 41q66 0 118 28.5
t82 78t30 114.5q0 63 -29 113t-81 78t-120 28q-65 0 -115.5 -28t-79.5 -77.5t-29 -113.5q0 -63 29 -113t79.5 -79t115.5 -29z" />
    <glyph glyph-name="Emacron" unicode="&#x112;" horiz-adv-x="709" 
d="M142 0v700h463v-50h-413v-600h409v-50h-459zM167 336v50h381v-50h-381zM243 801v46h284v-46h-284z" />
    <glyph glyph-name="emacron" unicode="&#x113;" horiz-adv-x="678" 
d="M357 -10q-86 0 -152.5 34t-103.5 95t-37 142q0 61 21.5 110t59.5 85.5t90 56t112 19.5t109 -17.5t83.5 -51t52.5 -79.5t16 -102l-1 -31h-503v46h476l-21 -14l-1 24q0 40 -24.5 80.5t-71.5 67.5t-116 27q-63 0 -115 -23.5t-83 -72t-31 -122.5q0 -68 30 -118t85.5 -77.5
t134.5 -27.5q53 0 98 13.5t96 50.5l23 -39q-26 -20 -59.5 -38t-75 -28t-92.5 -10zM208 644v43h276v-43h-276z" />
    <glyph glyph-name="Ebreve" unicode="&#x114;" horiz-adv-x="709" 
d="M142 0v700h463v-50h-413v-600h409v-50h-459zM167 336v50h381v-50h-381zM385 761q-36 0 -65 15t-49 42.5t-28 64.5l43 5q10 -48 37.5 -67t61.5 -19t61.5 19t37.5 67l43 -5q-8 -37 -28 -64.5t-49 -42.5t-65 -15z" />
    <glyph glyph-name="ebreve" unicode="&#x115;" horiz-adv-x="678" 
d="M357 -10q-86 0 -152.5 34t-103.5 95t-37 142q0 61 21.5 110t59.5 85.5t90 56t112 19.5t109 -17.5t83.5 -51t52.5 -79.5t16 -102l-1 -31h-503v46h476l-21 -14l-1 24q0 40 -24.5 80.5t-71.5 67.5t-116 27q-63 0 -115 -23.5t-83 -72t-31 -122.5q0 -68 30 -118t85.5 -77.5
t134.5 -27.5q53 0 98 13.5t96 50.5l23 -39q-26 -20 -59.5 -38t-75 -28t-92.5 -10zM346 596q-54 0 -92 35.5t-50 96.5l43 5q10 -45 37.5 -70.5t61.5 -25.5t61.5 25.5t37.5 70.5l43 -5q-12 -61 -50 -96.5t-92 -35.5z" />
    <glyph glyph-name="Edotaccent" unicode="&#x116;" horiz-adv-x="709" 
d="M142 0v700h463v-50h-413v-600h409v-50h-459zM167 336v50h381v-50h-381zM385 779q-22 0 -34 12t-12 33q0 20 12 32.5t34 12.5t34 -12t12 -33q0 -20 -12 -32.5t-34 -12.5z" />
    <glyph glyph-name="edotaccent" unicode="&#x117;" horiz-adv-x="678" 
d="M357 -10q-86 0 -152.5 34t-103.5 95t-37 142q0 61 21.5 110t59.5 85.5t90 56t112 19.5t109 -17.5t83.5 -51t52.5 -79.5t16 -102l-1 -31h-503v46h476l-21 -14l-1 24q0 40 -24.5 80.5t-71.5 67.5t-116 27q-63 0 -115 -23.5t-83 -72t-31 -122.5q0 -68 30 -118t85.5 -77.5
t134.5 -27.5q53 0 98 13.5t96 50.5l23 -39q-26 -20 -59.5 -38t-75 -28t-92.5 -10zM346 630q-22 0 -34 12t-12 33q0 20 12 32.5t34 12.5t34 -12t12 -33q0 -20 -12 -32.5t-34 -12.5z" />
    <glyph glyph-name="Eogonek" unicode="&#x118;" horiz-adv-x="709" 
d="M142 0v700h463v-50h-413v-600h409v-50h-459zM167 336v50h381v-50h-381zM500 -221q-32 0 -57.5 13t-41.5 35.5t-16 51.5q0 27 13.5 48.5t35.5 38.5t48 31t51 26l27 -23q-35 -15 -63.5 -34t-46 -40t-17.5 -45q0 -25 20 -42t49 -17q23 0 40.5 9t28.5 23l33 -24
q-18 -24 -43 -37.5t-61 -13.5z" />
    <glyph glyph-name="eogonek" unicode="&#x119;" horiz-adv-x="678" 
d="M456 -221q-39 0 -67 24t-28 67q0 34 17.5 66t52.5 62.5t83 59.5l25 -25q-61 -35 -96.5 -74t-35.5 -82q0 -26 14.5 -41t39.5 -15q15 0 30 8t32 28l33 -24q-12 -18 -27.5 -30t-33 -18t-39.5 -6zM357 -10q-86 0 -152.5 34t-103.5 95t-37 142q0 61 21.5 110t59.5 85.5t90 56
t112 19.5t109 -17.5t83.5 -51t52.5 -79.5t16 -102l-1 -31h-503v46h476l-21 -14l-1 24q0 40 -24.5 80.5t-71.5 67.5t-116 27q-63 0 -115 -23.5t-83 -72t-31 -122.5q0 -68 30 -118t85.5 -77.5t134.5 -27.5q53 0 98 13.5t96 50.5l23 -39q-26 -20 -59.5 -38t-75 -28t-92.5 -10z
" />
    <glyph glyph-name="Ecaron" unicode="&#x11a;" horiz-adv-x="709" 
d="M142 0v700h463v-50h-413v-600h409v-50h-459zM167 336v50h381v-50h-381zM354 766l-109 91l28 25l127 -87h-30l127 87l28 -25l-109 -91h-62z" />
    <glyph glyph-name="ecaron" unicode="&#x11b;" horiz-adv-x="678" 
d="M357 -10q-86 0 -152.5 34t-103.5 95t-37 142q0 61 21.5 110t59.5 85.5t90 56t112 19.5t109 -17.5t83.5 -51t52.5 -79.5t16 -102l-1 -31h-503v46h476l-21 -14l-1 24q0 40 -24.5 80.5t-71.5 67.5t-116 27q-63 0 -115 -23.5t-83 -72t-31 -122.5q0 -68 30 -118t85.5 -77.5
t134.5 -27.5q53 0 98 13.5t96 50.5l23 -39q-26 -20 -59.5 -38t-75 -28t-92.5 -10zM315 601l-109 101l28 25l127 -97h-30l127 97l28 -25l-109 -101h-62z" />
    <glyph glyph-name="Gcircumflex" unicode="&#x11c;" horiz-adv-x="888" 
d="M475 -10q-84 0 -155.5 26t-125 73t-83 113.5t-29.5 145.5q0 77 29 142t81 113.5t122.5 75t153.5 26.5q58 0 113.5 -15.5t101 -41t72.5 -57.5l-31 -37q-28 29 -70 51t-90 36t-94 14q-71 0 -132 -23t-106.5 -64t-70.5 -97.5t-25 -122.5q0 -69 25.5 -125.5t72 -97.5t109 -63
t135.5 -22q61 0 114.5 17.5t93 48.5t62 71.5t21.5 85.5v44l20 -29h-313v50h341q1 -5 1.5 -15t1 -21t0.5 -18q0 -59 -27 -110.5t-74 -90.5t-109.5 -61t-134.5 -22zM345 765l-28 25l119 91h62l119 -91l-28 -25l-137 85h30z" />
    <glyph glyph-name="gcircumflex" unicode="&#x11d;" horiz-adv-x="748" 
d="M361 -230q-70 0 -122.5 19.5t-89.5 43.5l22 48q22 -16 50.5 -29.5t64.5 -22.5t78 -9q63 0 110 24.5t73.5 75.5t26.5 129v90l15 12q-19 -48 -55 -84t-87 -56t-112 -20q-77 0 -137 35t-95 96t-35 139q0 79 36 140t97 96t138 35q33 0 66 -7.5t61.5 -20.5t52.5 -33t42 -45.5
t29 -56.5l-21 13l5 138h50v-472q0 -71 -20.5 -123t-56.5 -86t-84.5 -51.5t-101.5 -17.5zM346 41q67 0 118.5 28.5t81 78t29.5 113.5q0 65 -29.5 115t-81 78t-117.5 28q-65 0 -116 -28.5t-80.5 -78t-29.5 -113.5q0 -63 29 -113t79.5 -79t116.5 -29zM257 603l-28 25l109 101
h62l109 -101l-28 -25l-127 97h30z" />
    <glyph glyph-name="Gbreve" unicode="&#x11e;" horiz-adv-x="888" 
d="M475 -10q-84 0 -155.5 26t-125 73t-83 113.5t-29.5 145.5q0 77 29 142t81 113.5t122.5 75t153.5 26.5q58 0 113.5 -15.5t101 -41t72.5 -57.5l-31 -37q-28 29 -70 51t-90 36t-94 14q-71 0 -132 -23t-106.5 -64t-70.5 -97.5t-25 -122.5q0 -69 25.5 -125.5t72 -97.5t109 -63
t135.5 -22q61 0 114.5 17.5t93 48.5t62 71.5t21.5 85.5v44l20 -29h-313v50h341q1 -5 1.5 -15t1 -21t0.5 -18q0 -59 -27 -110.5t-74 -90.5t-109.5 -61t-134.5 -22zM466 761q-36 0 -65 15t-49 42.5t-28 64.5l43 5q10 -48 37.5 -67t61.5 -19t61.5 19t37.5 67l43 -5
q-8 -37 -28 -64.5t-49 -42.5t-65 -15z" />
    <glyph glyph-name="gbreve" unicode="&#x11f;" horiz-adv-x="748" 
d="M361 -230q-70 0 -122.5 19.5t-89.5 43.5l22 48q22 -16 50.5 -29.5t64.5 -22.5t78 -9q63 0 110 24.5t73.5 75.5t26.5 129v90l15 12q-19 -48 -55 -84t-87 -56t-112 -20q-77 0 -137 35t-95 96t-35 139q0 79 36 140t97 96t138 35q33 0 66 -7.5t61.5 -20.5t52.5 -33t42 -45.5
t29 -56.5l-21 13l5 138h50v-472q0 -71 -20.5 -123t-56.5 -86t-84.5 -51.5t-101.5 -17.5zM346 41q67 0 118.5 28.5t81 78t29.5 113.5q0 65 -29.5 115t-81 78t-117.5 28q-65 0 -116 -28.5t-80.5 -78t-29.5 -113.5q0 -63 29 -113t79.5 -79t116.5 -29zM369 596q-54 0 -92 35.5
t-50 96.5l43 5q10 -45 37.5 -70.5t61.5 -25.5t61.5 25.5t37.5 70.5l43 -5q-12 -61 -50 -96.5t-92 -35.5z" />
    <glyph glyph-name="Gdotaccent" unicode="&#x120;" horiz-adv-x="888" 
d="M475 -10q-84 0 -155.5 26t-125 73t-83 113.5t-29.5 145.5q0 77 29 142t81 113.5t122.5 75t153.5 26.5q58 0 113.5 -15.5t101 -41t72.5 -57.5l-31 -37q-28 29 -70 51t-90 36t-94 14q-71 0 -132 -23t-106.5 -64t-70.5 -97.5t-25 -122.5q0 -69 25.5 -125.5t72 -97.5t109 -63
t135.5 -22q61 0 114.5 17.5t93 48.5t62 71.5t21.5 85.5v44l20 -29h-313v50h341q1 -5 1.5 -15t1 -21t0.5 -18q0 -59 -27 -110.5t-74 -90.5t-109.5 -61t-134.5 -22zM466 779q-22 0 -34 12t-12 33q0 20 12 32.5t34 12.5t34 -12t12 -33q0 -20 -12 -32.5t-34 -12.5z" />
    <glyph glyph-name="gdotaccent" unicode="&#x121;" horiz-adv-x="748" 
d="M361 -230q-70 0 -122.5 19.5t-89.5 43.5l22 48q22 -16 50.5 -29.5t64.5 -22.5t78 -9q63 0 110 24.5t73.5 75.5t26.5 129v90l15 12q-19 -48 -55 -84t-87 -56t-112 -20q-77 0 -137 35t-95 96t-35 139q0 79 36 140t97 96t138 35q33 0 66 -7.5t61.5 -20.5t52.5 -33t42 -45.5
t29 -56.5l-21 13l5 138h50v-472q0 -71 -20.5 -123t-56.5 -86t-84.5 -51.5t-101.5 -17.5zM346 41q67 0 118.5 28.5t81 78t29.5 113.5q0 65 -29.5 115t-81 78t-117.5 28q-65 0 -116 -28.5t-80.5 -78t-29.5 -113.5q0 -63 29 -113t79.5 -79t116.5 -29zM369 630q-22 0 -34 12
t-12 33q0 20 12 32.5t34 12.5t34 -12t12 -33q0 -20 -12 -32.5t-34 -12.5z" />
    <glyph glyph-name="uni0122" unicode="&#x122;" horiz-adv-x="888" 
d="M475 -10q-84 0 -155.5 26t-125 73t-83 113.5t-29.5 145.5q0 77 29 142t81 113.5t122.5 75t153.5 26.5q58 0 113.5 -15.5t101 -41t72.5 -57.5l-31 -37q-28 29 -70 51t-90 36t-94 14q-71 0 -132 -23t-106.5 -64t-70.5 -97.5t-25 -122.5q0 -69 25.5 -125.5t72 -97.5t109 -63
t135.5 -22q61 0 114.5 17.5t93 48.5t62 71.5t21.5 85.5v44l20 -29h-313v50h341q1 -5 1.5 -15t1 -21t0.5 -18q0 -59 -27 -110.5t-74 -90.5t-109.5 -61t-134.5 -22zM417 -229l-21 24q16 10 26.5 18t15.5 15.5t5 15.5q0 10 -7 14.5t-15 8.5q-9 4 -15.5 12.5t-6.5 20.5
q0 14 10.5 23.5t25.5 9.5q27 0 43 -16t16 -45q0 -17 -5 -31.5t-15.5 -25.5t-24.5 -22t-32 -22z" />
    <glyph glyph-name="uni0123" unicode="&#x123;" horiz-adv-x="748" 
d="M361 -230q-70 0 -122.5 19.5t-89.5 43.5l22 48q22 -16 50.5 -29.5t64.5 -22.5t78 -9q63 0 110 24.5t73.5 75.5t26.5 129v90l15 12q-19 -48 -55 -84t-87 -56t-112 -20q-77 0 -137 35t-95 96t-35 139q0 79 36 140t97 96t138 35q33 0 66 -7.5t61.5 -20.5t52.5 -33t42 -45.5
t29 -56.5l-21 13l5 138h50v-472q0 -71 -20.5 -123t-56.5 -86t-84.5 -51.5t-101.5 -17.5zM346 41q67 0 118.5 28.5t81 78t29.5 113.5q0 65 -29.5 115t-81 78t-117.5 28q-65 0 -116 -28.5t-80.5 -78t-29.5 -113.5q0 -63 29 -113t79.5 -79t116.5 -29zM379 602q-28 0 -43.5 16.5
t-15.5 44.5q0 17 4.5 30.5t14 25t24 22.5t34.5 23l21 -24q-16 -10 -26.5 -18t-15.5 -15t-5 -16q0 -10 6.5 -14.5t15.5 -8.5q10 -4 16 -13t6 -20q0 -14 -10.5 -23.5t-25.5 -9.5z" />
    <glyph glyph-name="Hcircumflex" unicode="&#x124;" horiz-adv-x="867" 
d="M676 0v700h50v-700h-50zM142 0v700h50v-700h-50zM171 322v50h523v-50h-523zM312 765l-28 25l119 91h62l119 -91l-28 -25l-137 85h30z" />
    <glyph glyph-name="hcircumflex" unicode="&#x125;" horiz-adv-x="726" 
d="M132 0v740h50v-356l-16 -18q11 48 45 85.5t81.5 59t96.5 21.5q69 0 114.5 -26t67.5 -75.5t22 -119.5v-311h-50v306q0 58 -19 97t-55.5 60.5t-88.5 20.5q-42 0 -78 -15t-63 -41t-42 -58t-15 -66v-304h-25h-11.5h-13.5zM239 805l-28 25l119 91h62l119 -91l-28 -25l-137 85
h30z" />
    <glyph glyph-name="Hbar" unicode="&#x126;" horiz-adv-x="876" 
d="M39 536v46h113h26h523h18h117v-46h-113h-23h-517h-30h-114zM679 0v700h50v-700h-50zM145 0v700h50v-700h-50zM174 322l1 50h522v-50h-523z" />
    <glyph glyph-name="hbar" unicode="&#x127;" horiz-adv-x="726" 
d="M35 616v43h324v-43h-324zM132 0v740h50v-356l-16 -18q11 48 45 85.5t81.5 59t96.5 21.5q69 0 114.5 -26t67.5 -75.5t22 -119.5v-311h-50v306q0 58 -19 97t-55.5 60.5t-88.5 20.5q-42 0 -78 -15t-63 -41t-42 -58t-15 -66v-304h-25h-11.5h-13.5z" />
    <glyph glyph-name="Itilde" unicode="&#x128;" horiz-adv-x="562" 
d="M115 0v51h141v598h-141v51h332v-51h-141v-598h141v-51h-332zM351 779q-22 0 -43 8.5t-44 18.5q-12 5 -24.5 11t-23.5 6q-15 0 -26 -11t-11 -32h-46q0 41 23 65t56 24q22 0 42.5 -8t44.5 -19q11 -5 24 -11t24 -6q15 0 26 10.5t11 32.5h46q0 -27 -10.5 -47t-28.5 -31
t-40 -11z" />
    <glyph glyph-name="itilde" unicode="&#x129;" horiz-adv-x="304" 
d="M126 0v520h50v-520h-50zM217 612q-21 0 -39 9.5t-42 33.5q-10 10 -19 15t-21 5q-21 0 -34.5 -14.5t-17.5 -42.5l-41 4q5 42 31.5 69t66.5 27q19 0 35 -8t40 -31q10 -10 19.5 -17t23.5 -7q16 0 27 14t13 33l43 -4q-3 -24 -14 -43.5t-29 -31t-42 -11.5z" />
    <glyph glyph-name="Imacron" unicode="&#x12a;" horiz-adv-x="562" 
d="M115 0v51h141v598h-141v51h332v-51h-141v-598h141v-51h-332zM139 801v46h284v-46h-284z" />
    <glyph glyph-name="imacron" unicode="&#x12b;" horiz-adv-x="304" 
d="M126 0v520h50v-520h-50zM14 644v43h276v-43h-276z" />
    <glyph glyph-name="Ibreve" unicode="&#x12c;" horiz-adv-x="562" 
d="M115 0v51h141v598h-141v51h332v-51h-141v-598h141v-51h-332zM281 761q-36 0 -65 15t-49 42.5t-28 64.5l43 5q10 -48 37.5 -67t61.5 -19t61.5 19t37.5 67l43 -5q-8 -37 -28 -64.5t-49 -42.5t-65 -15z" />
    <glyph glyph-name="ibreve" unicode="&#x12d;" horiz-adv-x="304" 
d="M126 0v520h50v-520h-50zM152 596q-54 0 -92 35.5t-50 96.5l43 5q10 -45 37.5 -70.5t61.5 -25.5t61.5 25.5t37.5 70.5l43 -5q-12 -61 -50 -96.5t-92 -35.5z" />
    <glyph glyph-name="Iogonek" unicode="&#x12e;" horiz-adv-x="562" 
d="M115 0v51h141v598h-141v51h332v-51h-141v-598h141v-51h-332zM288 -221q-32 0 -57.5 13t-41.5 35.5t-16 51.5q0 27 13.5 48.5t35.5 38.5t48 31t51 26l27 -23q-35 -15 -63.5 -34t-46 -40t-17.5 -45q0 -25 20 -42t49 -17q23 0 40.5 9t28.5 23l33 -24q-18 -24 -43 -37.5
t-61 -13.5z" />
    <glyph glyph-name="iogonek" unicode="&#x12f;" horiz-adv-x="304" 
d="M126 0v520h50v-520h-50zM152 630q-22 0 -34 12t-12 33q0 20 12 32.5t34 12.5t34 -12t12 -33q0 -20 -12 -32.5t-34 -12.5zM101 -220q-25 0 -46 11t-33.5 31t-12.5 45q0 28 11 51.5t30 42.5t44.5 36t55.5 31l26 -28q-36 -16 -63 -35.5t-42.5 -42t-15.5 -48.5
q0 -22 14.5 -37t36.5 -15q19 0 34.5 8.5t30.5 27.5l33 -24q-11 -17 -26 -29t-34 -18.5t-43 -6.5z" />
    <glyph glyph-name="Idotaccent" unicode="&#x130;" horiz-adv-x="562" 
d="M115 0v51h141v598h-141v51h332v-51h-141v-598h141v-51h-332zM281 779q-22 0 -34 12t-12 33q0 20 12 32.5t34 12.5t34 -12t12 -33q0 -20 -12 -32.5t-34 -12.5z" />
    <glyph glyph-name="dotlessi" unicode="&#x131;" horiz-adv-x="304" 
d="M126 0v520h50v-520h-50z" />
    <glyph glyph-name="IJ" unicode="&#x132;" horiz-adv-x="1281" 
d="M115 0v51h141v598h-141v51h332v-51h-141v-598h141v-51h-332zM889 -10q-40 0 -74 11t-63 30t-51.5 44.5t-37.5 53.5l38 39q14 -30 35 -54t45.5 -40.5t52 -25.5t56.5 -9q55 0 97 26.5t65 72.5t23 102v409h-145v51h307v-51h-108v-412q0 -51 -16.5 -96t-48 -79t-76 -53
t-99.5 -19z" />
    <glyph glyph-name="ij" unicode="&#x133;" horiz-adv-x="709" 
d="M147 0v520h50v-520h-50zM172 630q-22 0 -34 12t-12 33q0 20 12 32.5t34 12.5t34 -12t12 -33q0 -20 -12 -32.5t-34 -12.5zM401 -195l-20 45q53 2 84.5 21.5t46.5 58t15 94.5v496h50v-516q0 -61 -23 -105t-62 -68.5t-91 -25.5zM551 630q-22 0 -34 12t-12 33q0 20 12 32.5
t34 12.5t34 -12t12 -33q0 -20 -12 -32.5t-34 -12.5z" />
    <glyph glyph-name="Jcircumflex" unicode="&#x134;" horiz-adv-x="719" 
d="M327 -10q-40 0 -74 11t-63 30t-51.5 44.5t-37.5 53.5l38 39q14 -30 35 -54t45.5 -40.5t52 -25.5t56.5 -9q55 0 97 26.5t65 72.5t23 102v409h-145v51h307v-51h-108v-412q0 -51 -16.5 -96t-48 -79t-76 -53t-99.5 -19zM403 765l-28 25l119 91h62l119 -91l-28 -25l-137 85h30
z" />
    <glyph glyph-name="jcircumflex" unicode="&#x135;" horiz-adv-x="374" 
d="M70 -195l-21 45q53 2 85 21.5t47 58t15 94.5v496h50v-516q0 -61 -23 -105t-62 -68.5t-91 -25.5zM110 603l-28 25l109 101h62l109 -101l-28 -25l-127 97h30z" />
    <glyph glyph-name="uni0136" unicode="&#x136;" horiz-adv-x="805" 
d="M169 205l2 67l480 428h74zM142 0v700h50v-700h-50zM669 0l-310 395l35 36l340 -431h-65zM369 -229l-21 24q16 10 26.5 18t15.5 15.5t5 15.5q0 10 -7 14.5t-15 8.5q-9 4 -15.5 12.5t-6.5 20.5q0 14 10.5 23.5t25.5 9.5q27 0 43 -16t16 -45q0 -17 -5 -31.5t-15.5 -25.5
t-24.5 -22t-32 -22z" />
    <glyph glyph-name="uni0137" unicode="&#x137;" horiz-adv-x="664" 
d="M171 162l2 62l342 296h68zM132 0v740h49v-740h-49zM544 0l-261 291l34 37l293 -328h-66zM309 -172l-21 24q16 10 26.5 18t15 15.5t4.5 15.5q0 11 -6.5 15.5t-14.5 7.5q-9 5 -15.5 13.5t-6.5 19.5q0 15 11 24t25 9q27 0 43 -15.5t16 -45.5q0 -18 -5.5 -32.5t-15.5 -25.5
t-24.5 -21.5t-31.5 -21.5z" />
    <glyph glyph-name="kgreenlandic" unicode="&#x138;" horiz-adv-x="636" 
d="M164 165v61l341 294h72zM132 0v520h52v-520h-52zM537 0l-260 285l34 37l292 -322h-66z" />
    <glyph glyph-name="Lacute" unicode="&#x139;" horiz-adv-x="645" 
d="M142 0v700h50v-650h399v-50h-449zM106 759l-18 33l152 98l34 -52z" />
    <glyph glyph-name="lacute" unicode="&#x13a;" horiz-adv-x="298" 
d="M124 0v740h50v-740h-50zM87 799l-18 33l152 98l34 -52z" />
    <glyph glyph-name="uni013B" unicode="&#x13b;" horiz-adv-x="645" 
d="M142 0v700h50v-650h399v-50h-449zM297 -229l-21 24q16 10 26.5 18t15.5 15.5t5 15.5q0 10 -7 14.5t-15 8.5q-9 4 -15.5 12.5t-6.5 20.5q0 14 10.5 23.5t25.5 9.5q27 0 43 -16t16 -45q0 -17 -5 -31.5t-15.5 -25.5t-24.5 -22t-32 -22z" />
    <glyph glyph-name="uni013C" unicode="&#x13c;" horiz-adv-x="298" 
d="M124 0v740h50v-740h-50zM121 -172l-21 24q16 10 26.5 18t15 15.5t4.5 15.5q0 11 -6.5 15.5t-14.5 7.5q-9 5 -15.5 13.5t-6.5 19.5q0 15 11 24t25 9q27 0 43 -15.5t16 -45.5q0 -18 -5.5 -32.5t-15.5 -25.5t-24.5 -21.5t-31.5 -21.5z" />
    <glyph glyph-name="Lcaron" unicode="&#x13d;" horiz-adv-x="645" 
d="M142 0v700h50v-650h399v-50h-449zM381 538l-21 24q15 9 26 17t16 16t5 16q0 12 -6.5 15.5t-15.5 7.5q-9 3 -15.5 11.5t-6.5 20.5q0 14 11.5 24t28.5 10q24 0 39.5 -16t15.5 -45q0 -17 -5 -31.5t-15.5 -26t-25 -22t-31.5 -21.5z" />
    <glyph glyph-name="lcaron" unicode="&#x13e;" horiz-adv-x="306" 
d="M124 0v740h50v-740h-50zM258 578l-21 24q15 9 26 17t16 16t5 16q0 12 -6.5 15.5t-15.5 7.5q-9 3 -15.5 11.5t-6.5 20.5q0 14 11.5 24t28.5 10q24 0 39.5 -16t15.5 -45q0 -17 -5 -31.5t-15.5 -26t-25 -22t-31.5 -21.5z" />
    <glyph glyph-name="Ldot" unicode="&#x13f;" horiz-adv-x="645" 
d="M142 0v700h50v-650h399v-50h-449zM494 310q-24 0 -36.5 13t-12.5 37q0 21 13 35.5t36 14.5q24 0 36.5 -13t12.5 -37q0 -21 -13 -35.5t-36 -14.5z" />
    <glyph glyph-name="ldot" unicode="&#x140;" horiz-adv-x="357" 
d="M124 0v740h50v-740h-50zM332 310q-24 0 -36.5 13t-12.5 37q0 21 13 35.5t36 14.5q24 0 36.5 -13t12.5 -37q0 -21 -13 -35.5t-36 -14.5z" />
    <glyph glyph-name="Lslash" unicode="&#x141;" horiz-adv-x="648" 
d="M26 275l-16 44l382 159l16 -45zM145 0v700h50v-650h399v-50h-449z" />
    <glyph glyph-name="lslash" unicode="&#x142;" horiz-adv-x="342" 
d="M26 289l-17 44l307 104l16 -45zM141 0v740h50v-740h-50z" />
    <glyph glyph-name="Nacute" unicode="&#x143;" horiz-adv-x="912" 
d="M142 0v700h49l546 -640l-11 -27q-2 11 -2 49t-1 88.5t-1 101.5t-0.5 90.5t-0.5 54.5v283h50v-700h-52l-545 641l10 28q0 -15 0.5 -48t2 -74.5l3 -83t2 -74t0.5 -45.5v-344h-50zM395 759l-18 33l152 98l34 -52z" />
    <glyph glyph-name="nacute" unicode="&#x144;" horiz-adv-x="726" 
d="M132 0v520h48l5 -126l-10 1q13 35 44.5 66.5t77 51t97.5 19.5q64 0 109 -26t67.5 -75.5t22.5 -119.5v-311h-50v306q0 58 -19.5 97t-55.5 60t-86 21q-44 0 -80 -15.5t-63.5 -41.5t-42 -57.5t-14.5 -65.5v-304h-25h-8h-17zM334 593l-21 31l142 115l33 -45z" />
    <glyph glyph-name="uni0145" unicode="&#x145;" horiz-adv-x="912" 
d="M142 0v700h49l546 -640l-11 -27q-2 11 -2 49t-1 88.5t-1 101.5t-0.5 90.5t-0.5 54.5v283h50v-700h-52l-545 641l10 28q0 -15 0.5 -48t2 -74.5l3 -83t2 -74t0.5 -45.5v-344h-50zM429 -229l-21 24q16 10 26.5 18t15.5 15.5t5 15.5q0 10 -7 14.5t-15 8.5q-9 4 -15.5 12.5
t-6.5 20.5q0 14 10.5 23.5t25.5 9.5q27 0 43 -16t16 -45q0 -17 -5 -31.5t-15.5 -25.5t-24.5 -22t-32 -22z" />
    <glyph glyph-name="uni0146" unicode="&#x146;" horiz-adv-x="726" 
d="M132 0v520h48l5 -126l-10 1q13 35 44.5 66.5t77 51t97.5 19.5q64 0 109 -26t67.5 -75.5t22.5 -119.5v-311h-50v306q0 58 -19.5 97t-55.5 60t-86 21q-44 0 -80 -15.5t-63.5 -41.5t-42 -57.5t-14.5 -65.5v-304h-25h-8h-17zM334 -172l-21 24q16 10 26.5 18t15 15.5t4.5 15.5
q0 11 -6.5 15.5t-14.5 7.5q-9 5 -15.5 13.5t-6.5 19.5q0 15 11 24t25 9q27 0 43 -15.5t16 -45.5q0 -18 -5.5 -32.5t-15.5 -25.5t-24.5 -21.5t-31.5 -21.5z" />
    <glyph glyph-name="Ncaron" unicode="&#x147;" horiz-adv-x="912" 
d="M142 0v700h49l546 -640l-11 -27q-2 11 -2 49t-1 88.5t-1 101.5t-0.5 90.5t-0.5 54.5v283h50v-700h-52l-545 641l10 28q0 -15 0.5 -48t2 -74.5l3 -83t2 -74t0.5 -45.5v-344h-50zM426 766l-109 91l28 25l127 -87h-30l127 87l28 -25l-109 -91h-62z" />
    <glyph glyph-name="ncaron" unicode="&#x148;" horiz-adv-x="726" 
d="M132 0v520h48l5 -126l-10 1q13 35 44.5 66.5t77 51t97.5 19.5q64 0 109 -26t67.5 -75.5t22.5 -119.5v-311h-50v306q0 58 -19.5 97t-55.5 60t-86 21q-44 0 -80 -15.5t-63.5 -41.5t-42 -57.5t-14.5 -65.5v-304h-25h-8h-17zM358 601l-109 101l28 25l127 -97h-30l127 97
l28 -25l-109 -101h-62z" />
    <glyph glyph-name="napostrophe" unicode="&#x149;" horiz-adv-x="763" 
d="M-8 434l29 266h72l-65 -266h-36zM169 0v520h48l5 -126l-10 1q13 35 44.5 66.5t77 51t97.5 19.5q64 0 109 -26t67.5 -75.5t22.5 -119.5v-311h-50v306q0 58 -19.5 97t-55.5 60t-86 21q-44 0 -80 -15.5t-63.5 -41.5t-42 -57.5t-14.5 -65.5v-304h-25h-8h-17z" />
    <glyph glyph-name="Eng" unicode="&#x14a;" horiz-adv-x="912" 
d="M593 -195l-20 45q38 0 65.5 9t46 27.5t27.5 45.5t9 61v38l16 -51l-565 665l13 6q0 -11 1 -37.5t1.5 -58.5t1.5 -65t1.5 -58t1.5 -37v-395h-50v700h50l549 -643l-16 -8q-2 40 -2.5 92t-1 107t-0.5 100.5v68.5v283h50v-709q0 -52 -22.5 -94.5t-62.5 -67t-93 -24.5z" />
    <glyph glyph-name="eng" unicode="&#x14b;" horiz-adv-x="726" 
d="M429 -195l-20 45q71 0 103 28.5t31 89.5v338q0 58 -19.5 96.5t-55.5 59t-86 21.5q-44 0 -80 -15.5t-63.5 -41t-42 -57t-14.5 -65.5v-304h-50v520h48l4 -105q13 28 44.5 55t74.5 44t91 17q64 0 109 -26t67.5 -75t22.5 -119v-363q0 -44 -21 -76t-58 -49.5t-85 -17.5z" />
    <glyph glyph-name="Omacron" unicode="&#x14c;" horiz-adv-x="915" 
d="M457 -10q-83 0 -151 26.5t-119 74.5t-78 113.5t-27 142.5t27 142.5t78 114t119 75t151 26.5q82 0 151 -26.5t119 -75t78 -114t28 -142.5t-28 -142.5t-78 -113.5t-119 -74.5t-151 -26.5zM457 40q70 0 129.5 22.5t103 64t67 97.5t23.5 123t-23.5 123.5t-67 97.5t-103 64
t-129.5 23t-129.5 -23t-102.5 -64.5t-66.5 -98t-23.5 -122.5q0 -67 23.5 -122.5t66.5 -97.5t102.5 -64.5t129.5 -22.5zM316 801v46h284v-46h-284z" />
    <glyph glyph-name="omacron" unicode="&#x14d;" horiz-adv-x="735" 
d="M368 -10q-88 0 -155.5 35t-106 97t-38.5 141q0 78 38.5 139t106 95.5t155.5 34.5q87 0 154.5 -34.5t106 -95.5t38.5 -139q0 -79 -38.5 -140.5t-106 -97t-154.5 -35.5zM368 40q70 0 126 29t88 79t32 115q0 63 -32 113t-88 78t-126 28q-72 0 -128 -28t-87.5 -77.5
t-31.5 -113.5q0 -65 31.5 -115t88 -79t127.5 -29zM230 644v43h276v-43h-276z" />
    <glyph glyph-name="Obreve" unicode="&#x14e;" horiz-adv-x="915" 
d="M457 -10q-83 0 -151 26.5t-119 74.5t-78 113.5t-27 142.5t27 142.5t78 114t119 75t151 26.5q82 0 151 -26.5t119 -75t78 -114t28 -142.5t-28 -142.5t-78 -113.5t-119 -74.5t-151 -26.5zM457 40q70 0 129.5 22.5t103 64t67 97.5t23.5 123t-23.5 123.5t-67 97.5t-103 64
t-129.5 23t-129.5 -23t-102.5 -64.5t-66.5 -98t-23.5 -122.5q0 -67 23.5 -122.5t66.5 -97.5t102.5 -64.5t129.5 -22.5zM458 761q-36 0 -65 15t-49 42.5t-28 64.5l43 5q10 -48 37.5 -67t61.5 -19t61.5 19t37.5 67l43 -5q-8 -37 -28 -64.5t-49 -42.5t-65 -15z" />
    <glyph glyph-name="obreve" unicode="&#x14f;" horiz-adv-x="735" 
d="M368 -10q-88 0 -155.5 35t-106 97t-38.5 141q0 78 38.5 139t106 95.5t155.5 34.5q87 0 154.5 -34.5t106 -95.5t38.5 -139q0 -79 -38.5 -140.5t-106 -97t-154.5 -35.5zM368 40q70 0 126 29t88 79t32 115q0 63 -32 113t-88 78t-126 28q-72 0 -128 -28t-87.5 -77.5
t-31.5 -113.5q0 -65 31.5 -115t88 -79t127.5 -29zM368 596q-54 0 -92 35.5t-50 96.5l43 5q10 -45 37.5 -70.5t61.5 -25.5t61.5 25.5t37.5 70.5l43 -5q-12 -61 -50 -96.5t-92 -35.5z" />
    <glyph glyph-name="Ohungarumlaut" unicode="&#x150;" horiz-adv-x="915" 
d="M457 -10q-83 0 -151 26.5t-119 74.5t-78 113.5t-27 142.5t27 142.5t78 114t119 75t151 26.5q82 0 151 -26.5t119 -75t78 -114t28 -142.5t-28 -142.5t-78 -113.5t-119 -74.5t-151 -26.5zM457 40q70 0 129.5 22.5t103 64t67 97.5t23.5 123t-23.5 123.5t-67 97.5t-103 64
t-129.5 23t-129.5 -23t-102.5 -64.5t-66.5 -98t-23.5 -122.5q0 -67 23.5 -122.5t66.5 -97.5t102.5 -64.5t129.5 -22.5zM380 757l-18 33l151 102l29 -48zM530 757l-18 33l151 102l29 -48z" />
    <glyph glyph-name="ohungarumlaut" unicode="&#x151;" horiz-adv-x="735" 
d="M368 -10q-88 0 -155.5 35t-106 97t-38.5 141q0 78 38.5 139t106 95.5t155.5 34.5q87 0 154.5 -34.5t106 -95.5t38.5 -139q0 -79 -38.5 -140.5t-106 -97t-154.5 -35.5zM368 40q70 0 126 29t88 79t32 115q0 63 -32 113t-88 78t-126 28q-72 0 -128 -28t-87.5 -77.5
t-31.5 -113.5q0 -65 31.5 -115t88 -79t127.5 -29zM377 593l-21 31l142 115l33 -45zM227 593l-21 31l142 115l33 -45z" />
    <glyph glyph-name="OE" unicode="&#x152;" horiz-adv-x="1187" 
d="M436 0q-76 0 -141 26.5t-112.5 72.5t-74 110.5t-26.5 140.5t26.5 140t74.5 110.5t112.5 73t140.5 26.5h647v-50h-413v-264h356v-50h-356v-286h409v-50h-643zM135 350q0 -65 23 -119.5t64 -95.5t96.5 -63t121.5 -22h180v600h-180q-67 0 -122 -22t-96 -63t-64 -95.5
t-23 -119.5z" />
    <glyph glyph-name="oe" unicode="&#x153;" horiz-adv-x="1228" 
d="M368 -10q-88 0 -155.5 35t-106 97t-38.5 141q0 78 38.5 139t106 95.5t155.5 34.5q69 0 126.5 -22t97.5 -62t59 -92l-22 -1q19 54 57 93.5t93 61.5t119 22q59 0 108 -17.5t83.5 -51t52.5 -79.5t16 -102l-1 -31h-501l2 46h477l-27 -26v29q0 43 -24 85t-70 69.5t-117 27.5
q-44 0 -86 -11.5t-74 -36.5t-50.5 -64.5t-18.5 -92.5q0 -76 30 -129t85.5 -80t133.5 -27q52 0 98 13.5t96 50.5l23 -39q-27 -21 -60 -38.5t-74.5 -27.5t-92.5 -10q-69 0 -125 22.5t-95.5 62t-58.5 93.5l23 -1q-19 -53 -59.5 -93t-97.5 -62t-126 -22zM368 40q70 0 125.5 28.5
t88 78.5t32.5 116q0 64 -32 113.5t-88 77.5t-126 28q-72 0 -127.5 -28t-87.5 -77.5t-32 -113.5q-1 -65 31.5 -115t88.5 -79t127 -29z" />
    <glyph glyph-name="Racute" unicode="&#x154;" horiz-adv-x="753" 
d="M142 0v700h296q63 0 112 -27.5t77 -74.5t28 -106q0 -62 -28 -108t-77.5 -72t-111.5 -26h-246v-286h-50zM628 0l-198 301l44 25l214 -326h-60zM192 336h246q49 0 86 19.5t57 54.5t20 80t-22 81.5t-60.5 57.5t-88.5 21h-238v-314zM302 758l-18 33l152 98l34 -52z" />
    <glyph glyph-name="racute" unicode="&#x155;" horiz-adv-x="496" 
d="M132 0v520h48l5 -126l-11 -6q14 40 41 72.5t64.5 52t85.5 19.5q25 0 48 -4.5t39 -11.5l-16 -56q-17 10 -37.5 13.5t-36.5 3.5q-46 0 -79.5 -15t-56 -41.5t-33.5 -59t-11 -66.5v-295h-50zM240 593l-21 31l142 115l33 -45z" />
    <glyph glyph-name="uni0156" unicode="&#x156;" horiz-adv-x="753" 
d="M142 0v700h296q63 0 112 -27.5t77 -74.5t28 -106q0 -62 -28 -108t-77.5 -72t-111.5 -26h-246v-286h-50zM628 0l-198 301l44 25l214 -326h-60zM192 336h246q49 0 86 19.5t57 54.5t20 80t-22 81.5t-60.5 57.5t-88.5 21h-238v-314zM346 -229l-21 24q16 10 26.5 18t15.5 15.5
t5 15.5q0 10 -7 14.5t-15 8.5q-9 4 -15.5 12.5t-6.5 20.5q0 14 10.5 23.5t25.5 9.5q27 0 43 -16t16 -45q0 -17 -5 -31.5t-15.5 -25.5t-24.5 -22t-32 -22z" />
    <glyph glyph-name="uni0157" unicode="&#x157;" horiz-adv-x="496" 
d="M132 0v520h48l5 -126l-11 -6q14 40 41 72.5t64.5 52t85.5 19.5q25 0 48 -4.5t39 -11.5l-16 -56q-17 10 -37.5 13.5t-36.5 3.5q-46 0 -79.5 -15t-56 -41.5t-33.5 -59t-11 -66.5v-295h-50zM131 -172l-21 24q16 10 26.5 18t15 15.5t4.5 15.5q0 11 -6.5 15.5t-14.5 7.5
q-9 5 -15.5 13.5t-6.5 19.5q0 15 11 24t25 9q27 0 43 -15.5t16 -45.5q0 -18 -5.5 -32.5t-15.5 -25.5t-24.5 -21.5t-31.5 -21.5z" />
    <glyph glyph-name="Rcaron" unicode="&#x158;" horiz-adv-x="753" 
d="M142 0v700h296q63 0 112 -27.5t77 -74.5t28 -106q0 -62 -28 -108t-77.5 -72t-111.5 -26h-246v-286h-50zM628 0l-198 301l44 25l214 -326h-60zM192 336h246q49 0 86 19.5t57 54.5t20 80t-22 81.5t-60.5 57.5t-88.5 21h-238v-314zM333 765l-109 91l28 25l127 -87h-30
l127 87l28 -25l-109 -91h-62z" />
    <glyph glyph-name="rcaron" unicode="&#x159;" horiz-adv-x="496" 
d="M132 0v520h48l5 -126l-11 -6q14 40 41 72.5t64.5 52t85.5 19.5q25 0 48 -4.5t39 -11.5l-16 -56q-17 10 -37.5 13.5t-36.5 3.5q-46 0 -79.5 -15t-56 -41.5t-33.5 -59t-11 -66.5v-295h-50zM265 601l-109 101l28 25l127 -97h-30l127 97l28 -25l-109 -101h-62z" />
    <glyph glyph-name="Sacute" unicode="&#x15a;" horiz-adv-x="717" 
d="M364 -10q-56 0 -107 15t-94.5 44.5t-77.5 72.5l34 39q50 -64 113 -92.5t133 -28.5q63 0 112.5 18.5t77.5 52.5t28 78q0 31 -13.5 52t-36 35t-51.5 24t-60 17l-62 14q-51 12 -95 25t-77.5 33t-51.5 49.5t-18 77.5q0 43 18.5 77.5t52.5 59.5t78.5 38.5t96.5 13.5
q60 0 105.5 -15.5t81 -43t63.5 -66.5l-35 -38q-26 36 -58 61.5t-71 38.5t-86 13q-55 0 -98.5 -17.5t-69.5 -48.5t-26 -72q0 -33 15.5 -55t44 -37t69.5 -25.5t90 -20.5q48 -9 92 -22t79 -33t55 -52.5t20 -82.5q0 -57 -34 -102.5t-95 -71t-142 -25.5zM310 759l-18 33l152 98
l34 -52z" />
    <glyph glyph-name="sacute" unicode="&#x15b;" horiz-adv-x="606" 
d="M310 -10q-79 0 -141 27t-97 68l38 35q32 -40 84 -60.5t114 -20.5q35 0 65.5 6t53 17t35.5 29.5t13 42.5q0 40 -45 66q-22 11 -54.5 21.5t-76.5 19.5q-60 15 -103 27.5t-68 32.5q-19 16 -28.5 37t-9.5 47q0 32 15 59t43.5 47t65.5 30.5t83 10.5q41 0 83.5 -10.5t80 -29.5
t64.5 -45l-33 -38q-24 22 -53.5 39.5t-65 27.5t-74.5 10q-31 0 -59.5 -6.5t-49.5 -20t-34 -31.5t-13 -40q-1 -19 7 -31.5t23 -22.5q21 -14 55 -23.5t84 -20.5q47 -10 84 -20t63 -24q34 -19 51.5 -45t17.5 -61q0 -45 -27.5 -78.5t-76.5 -52.5t-114 -19zM248 593l-21 31
l142 115l33 -45z" />
    <glyph glyph-name="Scircumflex" unicode="&#x15c;" horiz-adv-x="717" 
d="M364 -10q-56 0 -107 15t-94.5 44.5t-77.5 72.5l34 39q50 -64 113 -92.5t133 -28.5q63 0 112.5 18.5t77.5 52.5t28 78q0 31 -13.5 52t-36 35t-51.5 24t-60 17l-62 14q-51 12 -95 25t-77.5 33t-51.5 49.5t-18 77.5q0 43 18.5 77.5t52.5 59.5t78.5 38.5t96.5 13.5
q60 0 105.5 -15.5t81 -43t63.5 -66.5l-35 -38q-26 36 -58 61.5t-71 38.5t-86 13q-55 0 -98.5 -17.5t-69.5 -48.5t-26 -72q0 -33 15.5 -55t44 -37t69.5 -25.5t90 -20.5q48 -9 92 -22t79 -33t55 -52.5t20 -82.5q0 -57 -34 -102.5t-95 -71t-142 -25.5zM249 765l-28 25l119 91
h62l119 -91l-28 -25l-137 85h30z" />
    <glyph glyph-name="scircumflex" unicode="&#x15d;" horiz-adv-x="606" 
d="M310 -10q-79 0 -141 27t-97 68l38 35q32 -40 84 -60.5t114 -20.5q35 0 65.5 6t53 17t35.5 29.5t13 42.5q0 40 -45 66q-22 11 -54.5 21.5t-76.5 19.5q-60 15 -103 27.5t-68 32.5q-19 16 -28.5 37t-9.5 47q0 32 15 59t43.5 47t65.5 30.5t83 10.5q41 0 83.5 -10.5t80 -29.5
t64.5 -45l-33 -38q-24 22 -53.5 39.5t-65 27.5t-74.5 10q-31 0 -59.5 -6.5t-49.5 -20t-34 -31.5t-13 -40q-1 -19 7 -31.5t23 -22.5q21 -14 55 -23.5t84 -20.5q47 -10 84 -20t63 -24q34 -19 51.5 -45t17.5 -61q0 -45 -27.5 -78.5t-76.5 -52.5t-114 -19zM192 603l-28 25
l109 101h62l109 -101l-28 -25l-127 97h30z" />
    <glyph glyph-name="Scedilla" unicode="&#x15e;" horiz-adv-x="717" 
d="M364 -10q-56 0 -107 15t-94.5 44.5t-77.5 72.5l34 39q50 -64 113 -92.5t133 -28.5q63 0 112.5 18.5t77.5 52.5t28 78q0 31 -13.5 52t-36 35t-51.5 24t-60 17l-62 14q-51 12 -95 25t-77.5 33t-51.5 49.5t-18 77.5q0 43 18.5 77.5t52.5 59.5t78.5 38.5t96.5 13.5
q60 0 105.5 -15.5t81 -43t63.5 -66.5l-35 -38q-26 36 -58 61.5t-71 38.5t-86 13q-55 0 -98.5 -17.5t-69.5 -48.5t-26 -72q0 -33 15.5 -55t44 -37t69.5 -25.5t90 -20.5q48 -9 92 -22t79 -33t55 -52.5t20 -82.5q0 -57 -34 -102.5t-95 -71t-142 -25.5zM304 -230l-7 34
q32 1 59.5 7t44 18t16.5 29q0 16 -13.5 26.5t-35 15t-46.5 4.5l-10 14l58 88h44l-43 -65q42 -8 67.5 -26.5t25.5 -49.5q0 -27 -14.5 -46t-38 -29t-51.5 -15t-56 -5z" />
    <glyph glyph-name="scedilla" unicode="&#x15f;" horiz-adv-x="606" 
d="M310 -10q-79 0 -141 27t-97 68l38 35q32 -40 84 -60.5t114 -20.5q35 0 65.5 6t53 17t35.5 29.5t13 42.5q0 40 -45 66q-22 11 -54.5 21.5t-76.5 19.5q-60 15 -103 27.5t-68 32.5q-19 16 -28.5 37t-9.5 47q0 32 15 59t43.5 47t65.5 30.5t83 10.5q41 0 83.5 -10.5t80 -29.5
t64.5 -45l-33 -38q-24 22 -53.5 39.5t-65 27.5t-74.5 10q-31 0 -59.5 -6.5t-49.5 -20t-34 -31.5t-13 -40q-1 -19 7 -31.5t23 -22.5q21 -14 55 -23.5t84 -20.5q47 -10 84 -20t63 -24q34 -19 51.5 -45t17.5 -61q0 -45 -27.5 -78.5t-76.5 -52.5t-114 -19zM220 -230l-7 34
q32 1 59.5 7t44 18t16.5 29q0 16 -14 26.5t-35.5 15t-44.5 4.5l-12 14l59 88h44l-43 -65q43 -8 68 -26.5t25 -49.5q0 -27 -14.5 -46t-38.5 -29t-51.5 -15t-55.5 -5z" />
    <glyph glyph-name="Scaron" unicode="&#x160;" horiz-adv-x="717" 
d="M364 -10q-56 0 -107 15t-94.5 44.5t-77.5 72.5l34 39q50 -64 113 -92.5t133 -28.5q63 0 112.5 18.5t77.5 52.5t28 78q0 31 -13.5 52t-36 35t-51.5 24t-60 17l-62 14q-51 12 -95 25t-77.5 33t-51.5 49.5t-18 77.5q0 43 18.5 77.5t52.5 59.5t78.5 38.5t96.5 13.5
q60 0 105.5 -15.5t81 -43t63.5 -66.5l-35 -38q-26 36 -58 61.5t-71 38.5t-86 13q-55 0 -98.5 -17.5t-69.5 -48.5t-26 -72q0 -33 15.5 -55t44 -37t69.5 -25.5t90 -20.5q48 -9 92 -22t79 -33t55 -52.5t20 -82.5q0 -57 -34 -102.5t-95 -71t-142 -25.5zM340 766l-109 91l28 25
l127 -87h-30l127 87l28 -25l-109 -91h-62z" />
    <glyph glyph-name="scaron" unicode="&#x161;" horiz-adv-x="606" 
d="M310 -10q-79 0 -141 27t-97 68l38 35q32 -40 84 -60.5t114 -20.5q35 0 65.5 6t53 17t35.5 29.5t13 42.5q0 40 -45 66q-22 11 -54.5 21.5t-76.5 19.5q-60 15 -103 27.5t-68 32.5q-19 16 -28.5 37t-9.5 47q0 32 15 59t43.5 47t65.5 30.5t83 10.5q41 0 83.5 -10.5t80 -29.5
t64.5 -45l-33 -38q-24 22 -53.5 39.5t-65 27.5t-74.5 10q-31 0 -59.5 -6.5t-49.5 -20t-34 -31.5t-13 -40q-1 -19 7 -31.5t23 -22.5q21 -14 55 -23.5t84 -20.5q47 -10 84 -20t63 -24q34 -19 51.5 -45t17.5 -61q0 -45 -27.5 -78.5t-76.5 -52.5t-114 -19zM273 601l-109 101
l28 25l127 -97h-30l127 97l28 -25l-109 -101h-62z" />
    <glyph glyph-name="uni0162" unicode="&#x162;" horiz-adv-x="625" 
d="M284 0v650h-233v50h523v-50h-240v-650h-50zM224 -230l-7 34q32 1 59.5 7t44 18t16.5 29q0 16 -13.5 26.5t-35 15t-46.5 4.5l-10 14l58 88h44l-43 -65q42 -8 67.5 -26.5t25.5 -49.5q0 -27 -14.5 -46t-38 -29t-51.5 -15t-56 -5z" />
    <glyph glyph-name="uni0163" unicode="&#x163;" horiz-adv-x="505" 
d="M218 0v671h50v-671h-50zM66 474v46h371v-46h-371zM155 -230l-7 34q32 1 59.5 7t44 18t16.5 29q0 16 -14 26.5t-35.5 15t-44.5 4.5l-12 14l59 88h44l-43 -65q43 -8 68 -26.5t25 -49.5q0 -27 -14.5 -46t-38.5 -29t-51.5 -15t-55.5 -5z" />
    <glyph glyph-name="Tcaron" unicode="&#x164;" horiz-adv-x="625" 
d="M284 0v650h-233v50h523v-50h-240v-650h-50zM282 766l-109 91l28 25l127 -87h-30l127 87l28 -25l-109 -91h-62z" />
    <glyph glyph-name="tcaron" unicode="&#x165;" horiz-adv-x="505" 
d="M218 0v671h50v-671h-50zM66 474v46h371v-46h-371zM337 578l-21 24q15 9 26 17t16 16t5 16q0 12 -6.5 15.5t-15.5 7.5q-9 3 -15.5 11.5t-6.5 20.5q0 14 11.5 24t28.5 10q24 0 39.5 -16t15.5 -45q0 -17 -5 -31.5t-15.5 -26t-25 -22t-31.5 -21.5z" />
    <glyph glyph-name="Tbar" unicode="&#x166;" horiz-adv-x="625" 
d="M150 329v44h324v-44h-324zM284 0v650h-233v50h523v-50h-240v-650h-50z" />
    <glyph glyph-name="tbar" unicode="&#x167;" horiz-adv-x="505" 
d="M86 238v43h324v-43h-324zM218 0v671h50v-671h-50zM66 474v46h371v-46h-371z" />
    <glyph glyph-name="Utilde" unicode="&#x168;" horiz-adv-x="875" 
d="M435 -7q-87 0 -153.5 39t-103.5 107t-37 156v405h50v-399q0 -75 31.5 -133.5t86.5 -91.5t126 -33q74 0 130 33t88 91.5t32 133.5v399h49v-406q0 -87 -38 -155t-105 -107t-156 -39zM508 779q-22 0 -43 8.5t-44 18.5q-12 5 -24.5 11t-23.5 6q-15 0 -26 -11t-11 -32h-46
q0 41 23 65t56 24q22 0 42.5 -8t44.5 -19q11 -5 24 -11t24 -6q15 0 26 10.5t11 32.5h46q0 -27 -10.5 -47t-28.5 -31t-40 -11z" />
    <glyph glyph-name="utilde" unicode="&#x169;" horiz-adv-x="708" 
d="M334 -10q-71 0 -117.5 26t-70 76t-23.5 124v304h50v-299q0 -60 18 -100.5t54 -60.5t88 -20q43 0 80.5 15t64.5 40t43 57t16 68v300h50v-520h-48l-5 121h7q-10 -33 -41.5 -63t-75 -49t-90.5 -19zM420 612q-21 0 -39 9.5t-42 33.5q-10 10 -19 15t-21 5q-21 0 -34.5 -14.5
t-17.5 -42.5l-41 4q5 42 31.5 69t66.5 27q19 0 35 -8t40 -31q10 -10 19.5 -17t23.5 -7q16 0 27 14t13 33l43 -4q-3 -24 -14 -43.5t-29 -31t-42 -11.5z" />
    <glyph glyph-name="Umacron" unicode="&#x16a;" horiz-adv-x="875" 
d="M435 -7q-87 0 -153.5 39t-103.5 107t-37 156v405h50v-399q0 -75 31.5 -133.5t86.5 -91.5t126 -33q74 0 130 33t88 91.5t32 133.5v399h49v-406q0 -87 -38 -155t-105 -107t-156 -39zM296 801v46h284v-46h-284z" />
    <glyph glyph-name="umacron" unicode="&#x16b;" horiz-adv-x="708" 
d="M334 -10q-71 0 -117.5 26t-70 76t-23.5 124v304h50v-299q0 -60 18 -100.5t54 -60.5t88 -20q43 0 80.5 15t64.5 40t43 57t16 68v300h50v-520h-48l-5 121h7q-10 -33 -41.5 -63t-75 -49t-90.5 -19zM217 644v43h276v-43h-276z" />
    <glyph glyph-name="Ubreve" unicode="&#x16c;" horiz-adv-x="875" 
d="M435 -7q-87 0 -153.5 39t-103.5 107t-37 156v405h50v-399q0 -75 31.5 -133.5t86.5 -91.5t126 -33q74 0 130 33t88 91.5t32 133.5v399h49v-406q0 -87 -38 -155t-105 -107t-156 -39zM438 761q-36 0 -65 15t-49 42.5t-28 64.5l43 5q10 -48 37.5 -67t61.5 -19t61.5 19
t37.5 67l43 -5q-8 -37 -28 -64.5t-49 -42.5t-65 -15z" />
    <glyph glyph-name="ubreve" unicode="&#x16d;" horiz-adv-x="708" 
d="M334 -10q-71 0 -117.5 26t-70 76t-23.5 124v304h50v-299q0 -60 18 -100.5t54 -60.5t88 -20q43 0 80.5 15t64.5 40t43 57t16 68v300h50v-520h-48l-5 121h7q-10 -33 -41.5 -63t-75 -49t-90.5 -19zM355 596q-54 0 -92 35.5t-50 96.5l43 5q10 -45 37.5 -70.5t61.5 -25.5
t61.5 25.5t37.5 70.5l43 -5q-12 -61 -50 -96.5t-92 -35.5z" />
    <glyph glyph-name="Uring" unicode="&#x16e;" horiz-adv-x="875" 
d="M435 -7q-87 0 -153.5 39t-103.5 107t-37 156v405h50v-399q0 -75 31.5 -133.5t86.5 -91.5t126 -33q74 0 130 33t88 91.5t32 133.5v399h49v-406q0 -87 -38 -155t-105 -107t-156 -39zM437 720q-29 0 -54 14.5t-40 38.5t-15 52q0 29 15 53t40 38.5t54 14.5t54 -14.5
t40.5 -38.5t15.5 -53q0 -28 -15.5 -52t-40.5 -38.5t-54 -14.5zM437 759q29 0 49.5 19.5t20.5 46.5q0 30 -20.5 48.5t-49.5 18.5q-30 0 -49.5 -19t-19.5 -48q0 -27 20.5 -46.5t48.5 -19.5z" />
    <glyph glyph-name="uring" unicode="&#x16f;" horiz-adv-x="708" 
d="M334 -10q-71 0 -117.5 26t-70 76t-23.5 124v304h50v-299q0 -60 18 -100.5t54 -60.5t88 -20q43 0 80.5 15t64.5 40t43 57t16 68v300h50v-520h-48l-5 121h7q-10 -33 -41.5 -63t-75 -49t-90.5 -19zM354 585q-27 0 -51 14t-38.5 37t-14.5 49q0 28 14.5 50.5t38 36.5t51.5 14
t52 -14t38.5 -36.5t14.5 -50.5q0 -26 -14.5 -49t-38.5 -37t-52 -14zM354 624q27 0 46 18t19 43q0 28 -19 45t-46 17q-28 0 -46 -17.5t-18 -44.5q0 -25 19 -43t45 -18z" />
    <glyph glyph-name="Uhungarumlaut" unicode="&#x170;" horiz-adv-x="875" 
d="M435 -7q-87 0 -153.5 39t-103.5 107t-37 156v405h50v-399q0 -75 31.5 -133.5t86.5 -91.5t126 -33q74 0 130 33t88 91.5t32 133.5v399h49v-406q0 -87 -38 -155t-105 -107t-156 -39zM360 757l-18 33l151 102l29 -48zM510 757l-18 33l151 102l29 -48z" />
    <glyph glyph-name="uhungarumlaut" unicode="&#x171;" horiz-adv-x="708" 
d="M334 -10q-71 0 -117.5 26t-70 76t-23.5 124v304h50v-299q0 -60 18 -100.5t54 -60.5t88 -20q43 0 80.5 15t64.5 40t43 57t16 68v300h50v-520h-48l-5 121h7q-10 -33 -41.5 -63t-75 -49t-90.5 -19zM364 593l-21 31l142 115l33 -45zM214 593l-21 31l142 115l33 -45z" />
    <glyph glyph-name="Uogonek" unicode="&#x172;" horiz-adv-x="875" 
d="M543 -221q-48 0 -81.5 31t-33.5 77q0 33 14 58.5t37.5 47.5t54.5 43.5t67 42.5l24 -22q-30 -19 -56.5 -38t-47.5 -38.5t-33 -41.5t-12 -48q0 -33 20 -51t49 -18q22 0 39.5 9t29.5 23l33 -24q-20 -24 -44.5 -37.5t-59.5 -13.5zM435 -7q-87 0 -153.5 39t-103.5 107t-37 156
v405h50v-399q0 -75 31.5 -133.5t86.5 -91.5t126 -33q74 0 130 33t88 91.5t32 133.5v399h49v-406q0 -87 -38 -155t-105 -107t-156 -39z" />
    <glyph glyph-name="uogonek" unicode="&#x173;" horiz-adv-x="708" 
d="M334 -10q-71 0 -117.5 26t-70 76t-23.5 124v304h50v-299q0 -60 18 -100.5t54 -60.5t88 -20q43 0 80.5 15t64.5 40t43 57t16 68v300h50v-520h-48l-5 121h7q-10 -33 -41.5 -63t-75 -49t-90.5 -19zM512 -220q-25 0 -46 11t-33.5 31t-12.5 45q0 28 11 51.5t30 42.5t44.5 36
t55.5 31l26 -28q-36 -16 -63 -35.5t-42.5 -42t-15.5 -48.5q0 -22 14.5 -37t36.5 -15q19 0 34.5 8.5t30.5 27.5l33 -24q-11 -17 -26 -29t-34 -18.5t-43 -6.5z" />
    <glyph glyph-name="Wcircumflex" unicode="&#x174;" horiz-adv-x="1030" 
d="M268 0l-215 700h56l142 -473q10 -33 17 -56t12.5 -42t10.5 -41t12 -53h-6q11 39 21 65.5t22.5 56.5t29.5 75l113 275h51l132 -313q14 -34 26.5 -62.5t21 -51.5t10.5 -45h-8q6 22 11 41t9.5 38t10 38t12 39t13.5 43l152 466h54l-230 -700h-54l-198 470l26 -1l-195 -469
h-59zM393 765l-28 25l119 91h62l119 -91l-28 -25l-137 85h30z" />
    <glyph glyph-name="wcircumflex" unicode="&#x175;" horiz-adv-x="837" 
d="M223 0l-190 520h59l156 -454l-24 2l175 381h35l177 -381l-28 -2l166 454h55l-194 -520h-19l-193 423l41 2l-194 -425h-22zM307 603l-28 25l109 101h62l109 -101l-28 -25l-127 97h30z" />
    <glyph glyph-name="Ycircumflex" unicode="&#x176;" horiz-adv-x="751" 
d="M361 0v328l9 -49l-317 421h65l276 -370h-15l259 370h60l-302 -426l14 62v-336h-49zM254 765l-28 25l119 91h62l119 -91l-28 -25l-137 85h30z" />
    <glyph glyph-name="ycircumflex" unicode="&#x177;" horiz-adv-x="665" 
d="M219 -230l111 247l11 -59l-291 562h53l208 -398q17 -31 29 -59t22 -54l-29 15q10 20 18 38.5t16 36.5l195 421h53l-237 -516l-108 -234h-51zM220 603l-28 25l109 101h62l109 -101l-28 -25l-127 97h30z" />
    <glyph glyph-name="Ydieresis" unicode="&#x178;" horiz-adv-x="751" 
d="M361 0v328l9 -49l-317 421h65l276 -370h-15l259 370h60l-302 -426l14 62v-336h-49zM476 779q-22 0 -34 12t-12 33q0 20 12 32.5t34 12.5t34 -12t12 -33q0 -20 -12 -32.5t-34 -12.5zM276 779q-22 0 -34 12t-12 33q0 20 12 32.5t34 12.5t34 -12t12 -33q0 -20 -12 -32.5
t-34 -12.5z" />
    <glyph glyph-name="Zacute" unicode="&#x179;" horiz-adv-x="727" 
d="M76 0v42l518 632l14 -24h-506v50h543v-41l-516 -633l-16 24h543v-50h-580zM301 759l-18 33l152 98l34 -52z" />
    <glyph glyph-name="zacute" unicode="&#x17a;" horiz-adv-x="543" 
d="M58 0v46l358 444l21 -18h-379v48h409v-46l-362 -449l-15 23h393v-48h-425zM215 593l-21 31l142 115l33 -45z" />
    <glyph glyph-name="Zdotaccent" unicode="&#x17b;" horiz-adv-x="727" 
d="M76 0v42l518 632l14 -24h-506v50h543v-41l-516 -633l-16 24h543v-50h-580zM363 779q-22 0 -34 12t-12 33q0 20 12 32.5t34 12.5t34 -12t12 -33q0 -20 -12 -32.5t-34 -12.5z" />
    <glyph glyph-name="zdotaccent" unicode="&#x17c;" horiz-adv-x="543" 
d="M58 0v46l358 444l21 -18h-379v48h409v-46l-362 -449l-15 23h393v-48h-425zM271 630q-22 0 -34 12t-12 33q0 20 12 32.5t34 12.5t34 -12t12 -33q0 -20 -12 -32.5t-34 -12.5z" />
    <glyph glyph-name="Zcaron" unicode="&#x17d;" horiz-adv-x="727" 
d="M76 0v42l518 632l14 -24h-506v50h543v-41l-516 -633l-16 24h543v-50h-580zM332 766l-109 91l28 25l127 -87h-30l127 87l28 -25l-109 -91h-62z" />
    <glyph glyph-name="zcaron" unicode="&#x17e;" horiz-adv-x="543" 
d="M58 0v46l358 444l21 -18h-379v48h409v-46l-362 -449l-15 23h393v-48h-425zM240 601l-109 101l28 25l127 -97h-30l127 97l28 -25l-109 -101h-62z" />
    <glyph glyph-name="uni018F" unicode="&#x18f;" horiz-adv-x="858" 
d="M423 -10q-70 0 -132.5 26t-109 73t-73 110.5t-26.5 140.5v34h661v-50h-607q1 -58 24.5 -110t62.5 -91t91 -61t110 -22q60 0 114 24t95.5 66t65 98.5t23.5 120.5q0 67 -25 123.5t-67 97t-98.5 63t-119.5 22.5q-45 0 -85 -11t-75.5 -31t-64.5 -50l-35 37q32 35 73 58t88 35
t100 12q77 0 142.5 -27t115.5 -75t77.5 -114t27.5 -143q0 -75 -27 -139.5t-75.5 -113t-112.5 -76t-138 -27.5z" />
    <glyph glyph-name="florin" unicode="&#x192;" horiz-adv-x="663" 
d="M134 -31q-31 0 -57.5 10t-42.5 22l20 46q24 -18 41.5 -24.5t39.5 -6.5q31 0 50.5 14.5t32 36.5t16.5 46l100 428q17 74 56 114t106 40q37 0 68.5 -11t60.5 -34l-22 -45q-32 20 -56 30.5t-46 10.5q-48 0 -74 -29t-42 -93l-97 -405q-18 -77 -55.5 -113.5t-98.5 -36.5z
M127 399v48h409v-48h-409z" />
    <glyph glyph-name="uni019D" unicode="&#x19d;" horiz-adv-x="919" 
d="M24 -195l-20 46q78 3 111 46.5t33 126.5v676h50l545 -638l-14 -29q-1 38 -2 95.5t-1.5 117t-0.5 106.5t-1 65v283h53v-700h-52l-545 638l13 31q1 -17 2 -45t2 -62.5t2 -72t1.5 -75t0.5 -70.5v-340q0 -60 -23 -105t-63 -69t-91 -25z" />
    <glyph glyph-name="Ohorn" unicode="&#x1a0;" horiz-adv-x="915" 
d="M457 -10q-83 0 -151 26.5t-119 74.5t-78 113.5t-27 142.5t27 142.5t78 114t119 75t151 26.5q14 0 28.5 -1t29.5 -3q23 -2 43.5 -4t40.5 -2q48 0 78 12.5t44 38t14 63.5h48q0 -35 -10.5 -62t-32.5 -45.5t-52.5 -30t-72.5 -13.5l-1 19q68 -27 116.5 -75t75.5 -113t27 -142
t-28 -142.5t-78 -113.5t-119 -74.5t-151 -26.5zM457 40q70 0 129.5 22.5t103 64t67 97.5t23.5 123t-24 123.5t-68 97.5t-103.5 64t-127.5 23q-70 0 -129.5 -23t-102.5 -64.5t-66.5 -98t-23.5 -122.5q0 -67 23.5 -122.5t66.5 -97.5t102.5 -64.5t129.5 -22.5z" />
    <glyph glyph-name="ohorn" unicode="&#x1a1;" horiz-adv-x="735" 
d="M368 -10q-88 0 -155.5 35t-106 97t-38.5 141q0 78 38.5 139t106 95.5t155.5 34.5q20 0 39.5 -2t39.5 -5q15 -3 27 -4.5t28 -1.5q48 0 70 24t22 81h48q0 -43 -14 -74t-42.5 -48.5t-71.5 -20.5l3 20q70 -32 110 -95t40 -143q0 -79 -38.5 -140.5t-106 -97t-154.5 -35.5z
M368 40q70 0 126 29t88 79t32 115q0 63 -32 113t-88 78.5t-126 27.5q-72 0 -128 -28t-87.5 -77.5t-31.5 -113.5q0 -65 31.5 -115t88 -79t127.5 -29z" />
    <glyph glyph-name="Uhorn" unicode="&#x1af;" horiz-adv-x="856" 
d="M435 -7q-87 0 -153.5 39t-103.5 107t-37 156v405h50v-399q0 -75 31.5 -133.5t86.5 -91.5t126 -33q74 0 130 33t88 91.5t32 133.5v399h6q56 0 84 29t28 81h48q0 -44 -18.5 -75.5t-52.5 -49t-81 -20.5l35 28v-399q0 -87 -38 -155t-105 -107t-156 -39z" />
    <glyph glyph-name="uhorn" unicode="&#x1b0;" horiz-adv-x="684" 
d="M334 -10q-71 0 -117.5 26t-70 76t-23.5 124v304h50v-299q0 -60 18 -100.5t54 -60.5t88 -20q43 0 80.5 15t64.5 40t43 57t16 68v300q26 0 44.5 6t30.5 18.5t18 32t6 47.5h48q0 -43 -15.5 -74.5t-44.5 -48.5t-69 -17l32 23v-507h-48l-6 148l10 -19q-8 -35 -40.5 -67
t-76 -52t-92.5 -20z" />
    <glyph glyph-name="uni01C4" unicode="&#x1c4;" horiz-adv-x="1545" 
d="M142 0v700h287q76 0 140 -26.5t111.5 -73t74 -110.5t26.5 -140t-26.5 -140.5t-74 -110.5t-111.5 -72.5t-140 -26.5h-287zM192 33l-14 17h246q65 0 120.5 22.5t96 63t63.5 94t23 120.5q0 66 -23 120t-63.5 94.5t-96 63t-120.5 22.5h-249l17 15v-632zM894 0v42l518 632
l14 -24h-506v50h543v-41l-516 -633l-16 24h543v-50h-580zM1150 766l-109 91l28 25l127 -87h-30l127 87l28 -25l-109 -91h-62z" />
    <glyph glyph-name="uni01C5" unicode="&#x1c5;" horiz-adv-x="1405" 
d="M142 0v700h287q76 0 140 -26.5t111.5 -73t74 -110.5t26.5 -140t-26.5 -140.5t-74 -110.5t-111.5 -72.5t-140 -26.5h-287zM192 33l-14 17h246q65 0 120.5 22.5t96 63t63.5 94t23 120.5q0 66 -23 120t-63.5 94.5t-96 63t-120.5 22.5h-249l17 15v-632zM920 0v46l358 444
l21 -18h-379v48h409v-46l-362 -449l-15 23h393v-48h-425zM1102 601l-109 101l28 25l127 -97h-30l127 97l28 -25l-109 -101h-62z" />
    <glyph glyph-name="uni01C6" unicode="&#x1c6;" horiz-adv-x="1292" 
d="M335 -10q-77 0 -137.5 35.5t-95.5 96.5t-35 139q0 79 35.5 140t97 96t138.5 35q46 0 85.5 -11.5t72 -32.5t56.5 -51.5t37 -66.5l-19 16v354h50v-740h-47l-5 140l20 13q-12 -36 -36 -66t-57 -52t-73.5 -33.5t-86.5 -11.5zM344 41q66 0 118 28.5t82 78t30 114.5
q0 63 -29 113t-81 78t-120 28q-65 0 -115.5 -28t-79.5 -77.5t-29 -113.5q0 -63 29 -113t79.5 -79t115.5 -29zM807 0v46l358 444l21 -18h-379v48h409v-46l-362 -449l-15 23h393v-48h-425zM989 601l-109 101l28 25l127 -97h-30l127 97l28 -25l-109 -101h-62z" />
    <glyph glyph-name="uni01C7" unicode="&#x1c7;" horiz-adv-x="1363" 
d="M142 0v700h50v-650h399v-50h-449zM972 -10q-40 0 -74 11t-63 30t-51.5 44.5t-37.5 53.5l38 39q14 -30 35 -54t45.5 -40.5t52 -25.5t56.5 -9q55 0 97 26.5t65 72.5t23 102v409h-145v51h307v-51h-108v-412q0 -51 -16.5 -96t-48 -79t-76 -53t-99.5 -19z" />
    <glyph glyph-name="uni01C8" unicode="&#x1c8;" horiz-adv-x="1007" 
d="M142 0v700h50v-650h399v-50h-449zM700 -195l-20 45q53 2 84.5 21.5t46.5 58t15 94.5v496h50v-516q0 -61 -23 -105t-62 -68.5t-91 -25.5zM850 630q-22 0 -34 12t-12 33q0 20 12 32.5t34 12.5t34 -12t12 -33q0 -20 -12 -32.5t-34 -12.5z" />
    <glyph glyph-name="uni01C9" unicode="&#x1c9;" horiz-adv-x="646" 
d="M124 0v740h50v-740h-50zM339 -195l-20 45q53 2 84.5 21.5t46.5 58t15 94.5v496h50v-516q0 -61 -23 -105t-62 -68.5t-91 -25.5zM489 630q-22 0 -34 12t-12 33q0 20 12 32.5t34 12.5t34 -12t12 -33q0 -20 -12 -32.5t-34 -12.5z" />
    <glyph glyph-name="uni01CA" unicode="&#x1ca;" horiz-adv-x="1631" 
d="M142 0v700h49l546 -640l-11 -27q-2 11 -2 49t-1 88.5t-1 101.5t-0.5 90.5t-0.5 54.5v283h50v-700h-52l-545 641l10 28q0 -15 0.5 -48t2 -74.5l3 -83t2 -74t0.5 -45.5v-344h-50zM1239 -10q-40 0 -74 11t-63 30t-51.5 44.5t-37.5 53.5l38 39q14 -30 35 -54t45.5 -40.5
t52 -25.5t56.5 -9q55 0 97 26.5t65 72.5t23 102v409h-145v51h307v-51h-108v-412q0 -51 -16.5 -96t-48 -79t-76 -53t-99.5 -19z" />
    <glyph glyph-name="uni01CB" unicode="&#x1cb;" horiz-adv-x="1275" 
d="M142 0v700h49l546 -640l-11 -27q-2 11 -2 49t-1 88.5t-1 101.5t-0.5 90.5t-0.5 54.5v283h50v-700h-52l-545 641l10 28q0 -15 0.5 -48t2 -74.5l3 -83t2 -74t0.5 -45.5v-344h-50zM967 -195l-20 45q53 2 84.5 21.5t46.5 58t15 94.5v496h50v-516q0 -61 -23 -105t-62 -68.5
t-91 -25.5zM1117 630q-22 0 -34 12t-12 33q0 20 12 32.5t34 12.5t34 -12t12 -33q0 -20 -12 -32.5t-34 -12.5z" />
    <glyph glyph-name="uni01CC" unicode="&#x1cc;" horiz-adv-x="1089" 
d="M132 0v520h48l5 -126l-10 1q13 35 44.5 66.5t77 51t97.5 19.5q64 0 109 -26t67.5 -75.5t22.5 -119.5v-311h-50v306q0 58 -19.5 97t-55.5 60t-86 21q-44 0 -80 -15.5t-63.5 -41.5t-42 -57.5t-14.5 -65.5v-304h-25h-8h-17zM781 -195l-20 45q53 2 84.5 21.5t46.5 58t15 94.5
v496h50v-516q0 -61 -23 -105t-62 -68.5t-91 -25.5zM931 630q-22 0 -34 12t-12 33q0 20 12 32.5t34 12.5t34 -12t12 -33q0 -20 -12 -32.5t-34 -12.5z" />
    <glyph glyph-name="uni01CD" unicode="&#x1cd;" horiz-adv-x="764" 
d="M53 0l296 700h69l293 -700h-57l-213 508q-13 35 -21.5 56.5t-15.5 38.5t-14 36.5t-17 48.5h16q-10 -34 -18 -55t-15.5 -38t-16 -38t-21.5 -55l-213 -502h-52zM172 207l21 50h381l16 -50h-418zM351 766l-109 91l28 25l127 -87h-30l127 87l28 -25l-109 -91h-62z" />
    <glyph glyph-name="uni01CE" unicode="&#x1ce;" horiz-adv-x="747" 
d="M343 -10q-84 0 -146 34.5t-97 95.5t-35 140t36.5 140.5t99 96.5t141.5 35q48 0 90.5 -13.5t76 -37.5t55.5 -53.5t28 -62.5l-21 11l5 144h47v-520h-49v138l18 21q-8 -34 -30.5 -64.5t-55.5 -54t-75 -37t-88 -13.5zM349 40q65 0 117 28.5t82 78t30 114.5q0 63 -29.5 113
t-81.5 79.5t-118 29.5q-68 0 -120 -29.5t-81.5 -79.5t-29.5 -113q0 -64 28.5 -114t80.5 -78.5t122 -28.5zM337 601l-109 101l28 25l127 -97h-30l127 97l28 -25l-109 -101h-62z" />
    <glyph glyph-name="uni01CF" unicode="&#x1cf;" horiz-adv-x="562" 
d="M115 0v51h141v598h-141v51h332v-51h-141v-598h141v-51h-332zM250 766l-109 91l28 25l127 -87h-30l127 87l28 -25l-109 -91h-62z" />
    <glyph glyph-name="uni01D0" unicode="&#x1d0;" horiz-adv-x="304" 
d="M126 0v520h50v-520h-50zM121 601l-109 101l28 25l127 -97h-30l127 97l28 -25l-109 -101h-62z" />
    <glyph glyph-name="uni01D1" unicode="&#x1d1;" horiz-adv-x="915" 
d="M457 -10q-83 0 -151 26.5t-119 74.5t-78 113.5t-27 142.5t27 142.5t78 114t119 75t151 26.5q82 0 151 -26.5t119 -75t78 -114t28 -142.5t-28 -142.5t-78 -113.5t-119 -74.5t-151 -26.5zM457 40q70 0 129.5 22.5t103 64t67 97.5t23.5 123t-23.5 123.5t-67 97.5t-103 64
t-129.5 23t-129.5 -23t-102.5 -64.5t-66.5 -98t-23.5 -122.5q0 -67 23.5 -122.5t66.5 -97.5t102.5 -64.5t129.5 -22.5zM427 766l-109 91l28 25l127 -87h-30l127 87l28 -25l-109 -91h-62z" />
    <glyph glyph-name="uni01D2" unicode="&#x1d2;" horiz-adv-x="735" 
d="M368 -10q-88 0 -155.5 35t-106 97t-38.5 141q0 78 38.5 139t106 95.5t155.5 34.5q87 0 154.5 -34.5t106 -95.5t38.5 -139q0 -79 -38.5 -140.5t-106 -97t-154.5 -35.5zM368 40q70 0 126 29t88 79t32 115q0 63 -32 113t-88 78t-126 28q-72 0 -128 -28t-87.5 -77.5
t-31.5 -113.5q0 -65 31.5 -115t88 -79t127.5 -29zM337 601l-109 101l28 25l127 -97h-30l127 97l28 -25l-109 -101h-62z" />
    <glyph glyph-name="uni01D3" unicode="&#x1d3;" horiz-adv-x="875" 
d="M435 -7q-87 0 -153.5 39t-103.5 107t-37 156v405h50v-399q0 -75 31.5 -133.5t86.5 -91.5t126 -33q74 0 130 33t88 91.5t32 133.5v399h49v-406q0 -87 -38 -155t-105 -107t-156 -39zM407 766l-109 91l28 25l127 -87h-30l127 87l28 -25l-109 -91h-62z" />
    <glyph glyph-name="uni01D4" unicode="&#x1d4;" horiz-adv-x="708" 
d="M334 -10q-71 0 -117.5 26t-70 76t-23.5 124v304h50v-299q0 -60 18 -100.5t54 -60.5t88 -20q43 0 80.5 15t64.5 40t43 57t16 68v300h50v-520h-48l-5 121h7q-10 -33 -41.5 -63t-75 -49t-90.5 -19zM324 601l-109 101l28 25l127 -97h-30l127 97l28 -25l-109 -101h-62z" />
    <glyph glyph-name="Gcaron" unicode="&#x1e6;" horiz-adv-x="888" 
d="M475 -10q-84 0 -155.5 26t-125 73t-83 113.5t-29.5 145.5q0 77 29 142t81 113.5t122.5 75t153.5 26.5q58 0 113.5 -15.5t101 -41t72.5 -57.5l-31 -37q-28 29 -70 51t-90 36t-94 14q-71 0 -132 -23t-106.5 -64t-70.5 -97.5t-25 -122.5q0 -69 25.5 -125.5t72 -97.5t109 -63
t135.5 -22q61 0 114.5 17.5t93 48.5t62 71.5t21.5 85.5v44l20 -29h-313v50h341q1 -5 1.5 -15t1 -21t0.5 -18q0 -59 -27 -110.5t-74 -90.5t-109.5 -61t-134.5 -22zM435 766l-109 91l28 25l127 -87h-30l127 87l28 -25l-109 -91h-62z" />
    <glyph glyph-name="gcaron" unicode="&#x1e7;" horiz-adv-x="748" 
d="M361 -230q-70 0 -122.5 19.5t-89.5 43.5l22 48q22 -16 50.5 -29.5t64.5 -22.5t78 -9q63 0 110 24.5t73.5 75.5t26.5 129v90l15 12q-19 -48 -55 -84t-87 -56t-112 -20q-77 0 -137 35t-95 96t-35 139q0 79 36 140t97 96t138 35q33 0 66 -7.5t61.5 -20.5t52.5 -33t42 -45.5
t29 -56.5l-21 13l5 138h50v-472q0 -71 -20.5 -123t-56.5 -86t-84.5 -51.5t-101.5 -17.5zM346 41q67 0 118.5 28.5t81 78t29.5 113.5q0 65 -29.5 115t-81 78t-117.5 28q-65 0 -116 -28.5t-80.5 -78t-29.5 -113.5q0 -63 29 -113t79.5 -79t116.5 -29zM338 601l-109 101l28 25
l127 -97h-30l127 97l28 -25l-109 -101h-62z" />
    <glyph glyph-name="uni01EA" unicode="&#x1ea;" horiz-adv-x="915" 
d="M586 -221q-47 0 -81 31t-34 77q0 33 14.5 58.5t39 47.5t57 43.5t70.5 42.5l25 -25q-30 -19 -58.5 -36.5t-50.5 -37.5t-35.5 -41.5t-13.5 -47.5q0 -33 20 -51t49 -18q23 0 40.5 9t28.5 23l33 -24q-18 -24 -43.5 -37.5t-60.5 -13.5zM457 -10q-83 0 -151 26.5t-119 74.5
t-78 113.5t-27 142.5t27 142.5t78 114t119 75t151 26.5q82 0 151 -26.5t119 -75t78 -114t28 -142.5t-28 -142.5t-78 -113.5t-119 -74.5t-151 -26.5zM457 40q70 0 129.5 22.5t103 64t67 97.5t23.5 123t-23.5 123.5t-67 97.5t-103 64t-129.5 23t-129.5 -23t-102.5 -64.5
t-66.5 -98t-23.5 -122.5q0 -67 23.5 -122.5t66.5 -97.5t102.5 -64.5t129.5 -22.5z" />
    <glyph glyph-name="uni01EB" unicode="&#x1eb;" horiz-adv-x="735" 
d="M455 -221q-40 0 -68 24t-28 66q0 35 18.5 66.5t54 63.5t85.5 62l24 -25q-62 -38 -99 -77t-37 -82q0 -27 15 -41.5t40 -14.5q16 0 31 8t32 28l33 -24q-12 -18 -27.5 -30t-33.5 -18t-40 -6zM368 -10q-88 0 -155.5 35t-106 97t-38.5 141q0 78 38.5 139t106 95.5t155.5 34.5
q87 0 154.5 -34.5t106 -95.5t38.5 -139q0 -79 -38.5 -140.5t-106 -97t-154.5 -35.5zM368 40q70 0 126 29t88 79t32 115q0 63 -32 113t-88 78t-126 28q-72 0 -128 -28t-87.5 -77.5t-31.5 -113.5q0 -65 31.5 -115t88 -79t127.5 -29z" />
    <glyph glyph-name="uni01F1" unicode="&#x1f1;" horiz-adv-x="1545" 
d="M142 0v700h287q76 0 140 -26.5t111.5 -73t74 -110.5t26.5 -140t-26.5 -140.5t-74 -110.5t-111.5 -72.5t-140 -26.5h-287zM192 33l-14 17h246q65 0 120.5 22.5t96 63t63.5 94t23 120.5q0 66 -23 120t-63.5 94.5t-96 63t-120.5 22.5h-249l17 15v-632zM894 0v42l518 632
l14 -24h-506v50h543v-41l-516 -633l-16 24h543v-50h-580z" />
    <glyph glyph-name="uni01F2" unicode="&#x1f2;" horiz-adv-x="1405" 
d="M142 0v700h287q76 0 140 -26.5t111.5 -73t74 -110.5t26.5 -140t-26.5 -140.5t-74 -110.5t-111.5 -72.5t-140 -26.5h-287zM192 33l-14 17h246q65 0 120.5 22.5t96 63t63.5 94t23 120.5q0 66 -23 120t-63.5 94.5t-96 63t-120.5 22.5h-249l17 15v-632zM920 0v46l358 444
l21 -18h-379v48h409v-46l-362 -449l-15 23h393v-48h-425z" />
    <glyph glyph-name="Aringacute" unicode="&#x1fa;" horiz-adv-x="764" 
d="M53 0l296 700h69l293 -700h-57l-213 508q-13 35 -21.5 56.5t-15.5 38.5t-14 36.5t-17 48.5h16q-10 -34 -18 -55t-15.5 -38t-16 -38t-21.5 -55l-213 -502h-52zM172 207l21 50h381l16 -50h-418zM381 720q-29 0 -54 14.5t-40 38.5t-15 52q0 29 15 53t40 38.5t54 14.5
t54 -14.5t40.5 -38.5t15.5 -53q0 -28 -15.5 -52t-40.5 -38.5t-54 -14.5zM381 759q29 0 49.5 19.5t20.5 46.5q0 30 -20.5 48.5t-49.5 18.5q-30 0 -49.5 -19t-19.5 -48q0 -27 20.5 -46.5t48.5 -19.5zM319 964l-18 33l152 98l34 -52z" />
    <glyph glyph-name="aringacute" unicode="&#x1fb;" horiz-adv-x="747" 
d="M343 -10q-84 0 -146 34.5t-97 95.5t-35 140t36.5 140.5t99 96.5t141.5 35q48 0 90.5 -13.5t76 -37.5t55.5 -53.5t28 -62.5l-21 11l5 144h47v-520h-49v138l18 21q-8 -34 -30.5 -64.5t-55.5 -54t-75 -37t-88 -13.5zM349 40q65 0 117 28.5t82 78t30 114.5q0 63 -29.5 113
t-81.5 79.5t-118 29.5q-68 0 -120 -29.5t-81.5 -79.5t-29.5 -113q0 -64 28.5 -114t80.5 -78.5t122 -28.5zM367 585q-27 0 -51 14t-38.5 37t-14.5 49q0 28 14.5 50.5t38 36.5t51.5 14t52 -14t38.5 -36.5t14.5 -50.5q0 -26 -14.5 -49t-38.5 -37t-52 -14zM367 624q27 0 46 18
t19 43q0 28 -19 45t-46 17q-28 0 -46 -17.5t-18 -44.5q0 -25 19 -43t45 -18zM311 805l-21 31l142 115l33 -45z" />
    <glyph glyph-name="AEacute" unicode="&#x1fc;" horiz-adv-x="1122" 
d="M36 0l543 700h439v-51h-410v-266h353v-52h-353v-280h406v-51h-457v191h-324l39 52h285v385l26 -9l-484 -619h-63zM692 759l-18 33l152 98l34 -52z" />
    <glyph glyph-name="aeacute" unicode="&#x1fd;" horiz-adv-x="1069" 
d="M270 -10q-62 0 -108 19.5t-71.5 55t-25.5 84.5q0 44 19 74t53.5 47t83 25.5t105.5 8.5h645l-22 -20v23q1 42 -22 81.5t-67.5 66.5t-108.5 27q-63 0 -113.5 -24t-80 -72t-29.5 -122q0 -69 29 -119.5t84.5 -78t131.5 -27.5q48 0 92 13.5t96 51.5l24 -39q-26 -21 -59.5 -38
t-73.5 -27t-88 -10q-85 0 -150.5 34.5t-102 95.5t-36.5 141q0 67 20.5 117.5t58.5 84.5t88.5 51t109.5 17q76 0 131 -31t85.5 -87t30.5 -130l-1 -26h-685q-40 0 -75.5 -5.5t-62.5 -18t-42 -32.5t-15 -49q0 -35 19 -60t54.5 -38.5t82.5 -13.5q48 0 92 16.5t78.5 44.5t54.5 60
l32 -36q-23 -38 -64.5 -68.5t-92.5 -48.5t-104 -18zM475 289v67q0 29 -10.5 52t-32 40t-52.5 25t-73 8q-58 0 -107 -21t-95 -62l-34 36q37 32 75 54t78 32.5t85 10.5t82.5 -10t66 -29.5t45 -50t16.5 -71.5v-81h-44zM474 593l-21 31l142 115l33 -45z" />
    <glyph glyph-name="Oslashacute" unicode="&#x1fe;" horiz-adv-x="920" 
d="M136 -30l-33 35l678 718l34 -35zM459 -10q-83 0 -151.5 26.5t-119 74.5t-77.5 113.5t-27 142.5t27 142.5t77.5 114t119 75t151.5 26.5q82 0 151 -26.5t119 -75t78 -114t28 -142.5t-28 -142.5t-78 -113.5t-119 -74.5t-151 -26.5zM459 40q70 0 129.5 22.5t102.5 64t67 97.5
t24 123t-24 123.5t-67 97.5t-102.5 64t-129.5 23q-71 0 -130 -23t-102 -64.5t-66.5 -98t-23.5 -122.5q0 -67 23.5 -122.5t66.5 -97.5t102 -64.5t130 -22.5zM399 759l-18 33l152 98l34 -52z" />
    <glyph glyph-name="oslashacute" unicode="&#x1ff;" horiz-adv-x="735" 
d="M124 -16l-31 28l523 529l31 -29zM368 -10q-88 0 -155.5 35t-106 97t-38.5 141q0 78 38.5 139t106 95.5t155.5 34.5t155.5 -34.5t105.5 -95.5t38 -139q0 -79 -38 -140.5t-105.5 -97t-155.5 -35.5zM368 40q71 0 127 29t88 79t31 115q1 63 -31 113t-88 78t-127 28
q-72 0 -127.5 -28t-87.5 -77.5t-32 -113.5q0 -65 32 -115t88 -79t127 -29zM312 593l-21 31l142 115l33 -45z" />
    <glyph glyph-name="uni0200" unicode="&#x200;" horiz-adv-x="764" 
d="M53 0l296 700h69l293 -700h-57l-213 508q-13 35 -21.5 56.5t-15.5 38.5t-14 36.5t-17 48.5h16q-10 -34 -18 -55t-15.5 -38t-16 -38t-21.5 -55l-213 -502h-52zM172 207l21 50h381l16 -50h-418zM468 749l-154 101l38 49l140 -117zM314 749l-154 101l38 49l140 -117z" />
    <glyph glyph-name="uni0201" unicode="&#x201;" horiz-adv-x="747" 
d="M343 -10q-84 0 -146 34.5t-97 95.5t-35 140t36.5 140.5t99 96.5t141.5 35q48 0 90.5 -13.5t76 -37.5t55.5 -53.5t28 -62.5l-21 11l5 144h47v-520h-49v138l18 21q-8 -34 -30.5 -64.5t-55.5 -54t-75 -37t-88 -13.5zM349 40q65 0 117 28.5t82 78t30 114.5q0 63 -29.5 113
t-81.5 79.5t-118 29.5q-68 0 -120 -29.5t-81.5 -79.5t-29.5 -113q0 -64 28.5 -114t80.5 -78.5t122 -28.5zM442 593l-154 101l33 45l142 -115zM292 593l-154 101l33 45l142 -115z" />
    <glyph glyph-name="uni0202" unicode="&#x202;" horiz-adv-x="764" 
d="M53 0l296 700h69l293 -700h-57l-213 508q-13 35 -21.5 56.5t-15.5 38.5t-14 36.5t-17 48.5h16q-10 -34 -18 -55t-15.5 -38t-16 -38t-21.5 -55l-213 -502h-52zM172 207l21 50h381l16 -50h-418zM283 761l-43 5q8 38 28 65t49 42t65 15t65 -15t49 -42t28 -65l-43 -5
q-10 48 -37.5 67t-61.5 19t-61.5 -19t-37.5 -67z" />
    <glyph glyph-name="uni0203" unicode="&#x203;" horiz-adv-x="747" 
d="M343 -10q-84 0 -146 34.5t-97 95.5t-35 140t36.5 140.5t99 96.5t141.5 35q48 0 90.5 -13.5t76 -37.5t55.5 -53.5t28 -62.5l-21 11l5 144h47v-520h-49v138l18 21q-8 -34 -30.5 -64.5t-55.5 -54t-75 -37t-88 -13.5zM349 40q65 0 117 28.5t82 78t30 114.5q0 63 -29.5 113
t-81.5 79.5t-118 29.5q-68 0 -120 -29.5t-81.5 -79.5t-29.5 -113q0 -64 28.5 -114t80.5 -78.5t122 -28.5zM269 606l-43 5q12 61 50 96.5t92 35.5t92 -35.5t50 -96.5l-43 -5q-10 45 -37.5 70.5t-61.5 25.5t-61.5 -25.5t-37.5 -70.5z" />
    <glyph glyph-name="uni0204" unicode="&#x204;" horiz-adv-x="709" 
d="M142 0v700h463v-50h-413v-600h409v-50h-459zM167 336v50h381v-50h-381zM470 749l-154 101l38 49l140 -117zM316 749l-154 101l38 49l140 -117z" />
    <glyph glyph-name="uni0205" unicode="&#x205;" horiz-adv-x="678" 
d="M357 -10q-86 0 -152.5 34t-103.5 95t-37 142q0 61 21.5 110t59.5 85.5t90 56t112 19.5t109 -17.5t83.5 -51t52.5 -79.5t16 -102l-1 -31h-503v46h476l-21 -14l-1 24q0 40 -24.5 80.5t-71.5 67.5t-116 27q-63 0 -115 -23.5t-83 -72t-31 -122.5q0 -68 30 -118t85.5 -77.5
t134.5 -27.5q53 0 98 13.5t96 50.5l23 -39q-26 -20 -59.5 -38t-75 -28t-92.5 -10zM420 593l-154 101l33 45l142 -115zM270 593l-154 101l33 45l142 -115z" />
    <glyph glyph-name="uni0206" unicode="&#x206;" horiz-adv-x="709" 
d="M142 0v700h463v-50h-413v-600h409v-50h-459zM167 336v50h381v-50h-381zM286 761l-43 5q8 38 28 65t49 42t65 15t65 -15t49 -42t28 -65l-43 -5q-10 48 -37.5 67t-61.5 19t-61.5 -19t-37.5 -67z" />
    <glyph glyph-name="uni0207" unicode="&#x207;" horiz-adv-x="678" 
d="M357 -10q-86 0 -152.5 34t-103.5 95t-37 142q0 61 21.5 110t59.5 85.5t90 56t112 19.5t109 -17.5t83.5 -51t52.5 -79.5t16 -102l-1 -31h-503v46h476l-21 -14l-1 24q0 40 -24.5 80.5t-71.5 67.5t-116 27q-63 0 -115 -23.5t-83 -72t-31 -122.5q0 -68 30 -118t85.5 -77.5
t134.5 -27.5q53 0 98 13.5t96 50.5l23 -39q-26 -20 -59.5 -38t-75 -28t-92.5 -10zM247 606l-43 5q12 61 50 96.5t92 35.5t92 -35.5t50 -96.5l-43 -5q-10 45 -37.5 70.5t-61.5 25.5t-61.5 -25.5t-37.5 -70.5z" />
    <glyph glyph-name="uni0208" unicode="&#x208;" horiz-adv-x="562" 
d="M115 0v51h141v598h-141v51h332v-51h-141v-598h141v-51h-332zM367 749l-154 101l38 49l140 -117zM213 749l-154 101l38 49l140 -117z" />
    <glyph glyph-name="uni0209" unicode="&#x209;" horiz-adv-x="304" 
d="M126 0v520h50v-520h-50zM225 593l-154 101l33 45l142 -115zM75 593l-154 101l33 45l142 -115z" />
    <glyph glyph-name="uni020A" unicode="&#x20a;" horiz-adv-x="562" 
d="M115 0v51h141v598h-141v51h332v-51h-141v-598h141v-51h-332zM182 761l-43 5q8 38 28 65t49 42t65 15t65 -15t49 -42t28 -65l-43 -5q-10 48 -37.5 67t-61.5 19t-61.5 -19t-37.5 -67z" />
    <glyph glyph-name="uni020B" unicode="&#x20b;" horiz-adv-x="304" 
d="M126 0v520h50v-520h-50zM53 606l-43 5q12 61 50 96.5t92 35.5t92 -35.5t50 -96.5l-43 -5q-10 45 -37.5 70.5t-61.5 25.5t-61.5 -25.5t-37.5 -70.5z" />
    <glyph glyph-name="uni020C" unicode="&#x20c;" horiz-adv-x="915" 
d="M457 -10q-83 0 -151 26.5t-119 74.5t-78 113.5t-27 142.5t27 142.5t78 114t119 75t151 26.5q82 0 151 -26.5t119 -75t78 -114t28 -142.5t-28 -142.5t-78 -113.5t-119 -74.5t-151 -26.5zM457 40q70 0 129.5 22.5t103 64t67 97.5t23.5 123t-23.5 123.5t-67 97.5t-103 64
t-129.5 23t-129.5 -23t-102.5 -64.5t-66.5 -98t-23.5 -122.5q0 -67 23.5 -122.5t66.5 -97.5t102.5 -64.5t129.5 -22.5zM544 749l-154 101l38 49l140 -117zM390 749l-154 101l38 49l140 -117z" />
    <glyph glyph-name="uni020D" unicode="&#x20d;" horiz-adv-x="735" 
d="M368 -10q-88 0 -155.5 35t-106 97t-38.5 141q0 78 38.5 139t106 95.5t155.5 34.5q87 0 154.5 -34.5t106 -95.5t38.5 -139q0 -79 -38.5 -140.5t-106 -97t-154.5 -35.5zM368 40q70 0 126 29t88 79t32 115q0 63 -32 113t-88 78t-126 28q-72 0 -128 -28t-87.5 -77.5
t-31.5 -113.5q0 -65 31.5 -115t88 -79t127.5 -29zM442 593l-154 101l33 45l142 -115zM292 593l-154 101l33 45l142 -115z" />
    <glyph glyph-name="uni020E" unicode="&#x20e;" horiz-adv-x="915" 
d="M457 -10q-83 0 -151 26.5t-119 74.5t-78 113.5t-27 142.5t27 142.5t78 114t119 75t151 26.5q82 0 151 -26.5t119 -75t78 -114t28 -142.5t-28 -142.5t-78 -113.5t-119 -74.5t-151 -26.5zM457 40q70 0 129.5 22.5t103 64t67 97.5t23.5 123t-23.5 123.5t-67 97.5t-103 64
t-129.5 23t-129.5 -23t-102.5 -64.5t-66.5 -98t-23.5 -122.5q0 -67 23.5 -122.5t66.5 -97.5t102.5 -64.5t129.5 -22.5zM359 761l-43 5q8 38 28 65t49 42t65 15t65 -15t49 -42t28 -65l-43 -5q-10 48 -37.5 67t-61.5 19t-61.5 -19t-37.5 -67z" />
    <glyph glyph-name="uni020F" unicode="&#x20f;" horiz-adv-x="735" 
d="M368 -10q-88 0 -155.5 35t-106 97t-38.5 141q0 78 38.5 139t106 95.5t155.5 34.5q87 0 154.5 -34.5t106 -95.5t38.5 -139q0 -79 -38.5 -140.5t-106 -97t-154.5 -35.5zM368 40q70 0 126 29t88 79t32 115q0 63 -32 113t-88 78t-126 28q-72 0 -128 -28t-87.5 -77.5
t-31.5 -113.5q0 -65 31.5 -115t88 -79t127.5 -29zM269 606l-43 5q12 61 50 96.5t92 35.5t92 -35.5t50 -96.5l-43 -5q-10 45 -37.5 70.5t-61.5 25.5t-61.5 -25.5t-37.5 -70.5z" />
    <glyph glyph-name="uni0210" unicode="&#x210;" horiz-adv-x="753" 
d="M142 0v700h296q63 0 112 -27.5t77 -74.5t28 -106q0 -62 -28 -108t-77.5 -72t-111.5 -26h-246v-286h-50zM628 0l-198 301l44 25l214 -326h-60zM192 336h246q49 0 86 19.5t57 54.5t20 80t-22 81.5t-60.5 57.5t-88.5 21h-238v-314zM449 748l-154 101l38 49l140 -117z
M295 748l-154 101l38 49l140 -117z" />
    <glyph glyph-name="uni0211" unicode="&#x211;" horiz-adv-x="496" 
d="M132 0v520h48l5 -126l-11 -6q14 40 41 72.5t64.5 52t85.5 19.5q25 0 48 -4.5t39 -11.5l-16 -56q-17 10 -37.5 13.5t-36.5 3.5q-46 0 -79.5 -15t-56 -41.5t-33.5 -59t-11 -66.5v-295h-50zM370 593l-154 101l33 45l142 -115zM220 593l-154 101l33 45l142 -115z" />
    <glyph glyph-name="uni0212" unicode="&#x212;" horiz-adv-x="753" 
d="M142 0v700h296q63 0 112 -27.5t77 -74.5t28 -106q0 -62 -28 -108t-77.5 -72t-111.5 -26h-246v-286h-50zM628 0l-198 301l44 25l214 -326h-60zM192 336h246q49 0 86 19.5t57 54.5t20 80t-22 81.5t-60.5 57.5t-88.5 21h-238v-314zM265 760l-43 5q8 38 28 65t49 42t65 15
t65 -15t49 -42t28 -65l-43 -5q-10 48 -37.5 67t-61.5 19t-61.5 -19t-37.5 -67z" />
    <glyph glyph-name="uni0213" unicode="&#x213;" horiz-adv-x="496" 
d="M132 0v520h48l5 -126l-11 -6q14 40 41 72.5t64.5 52t85.5 19.5q25 0 48 -4.5t39 -11.5l-16 -56q-17 10 -37.5 13.5t-36.5 3.5q-46 0 -79.5 -15t-56 -41.5t-33.5 -59t-11 -66.5v-295h-50zM197 606l-43 5q12 61 50 96.5t92 35.5t92 -35.5t50 -96.5l-43 -5
q-10 45 -37.5 70.5t-61.5 25.5t-61.5 -25.5t-37.5 -70.5z" />
    <glyph glyph-name="uni0214" unicode="&#x214;" horiz-adv-x="875" 
d="M435 -7q-87 0 -153.5 39t-103.5 107t-37 156v405h50v-399q0 -75 31.5 -133.5t86.5 -91.5t126 -33q74 0 130 33t88 91.5t32 133.5v399h49v-406q0 -87 -38 -155t-105 -107t-156 -39zM524 749l-154 101l38 49l140 -117zM370 749l-154 101l38 49l140 -117z" />
    <glyph glyph-name="uni0215" unicode="&#x215;" horiz-adv-x="708" 
d="M334 -10q-71 0 -117.5 26t-70 76t-23.5 124v304h50v-299q0 -60 18 -100.5t54 -60.5t88 -20q43 0 80.5 15t64.5 40t43 57t16 68v300h50v-520h-48l-5 121h7q-10 -33 -41.5 -63t-75 -49t-90.5 -19zM430 593l-154 101l33 45l142 -115zM280 593l-154 101l33 45l142 -115z" />
    <glyph glyph-name="uni0216" unicode="&#x216;" horiz-adv-x="875" 
d="M435 -7q-87 0 -153.5 39t-103.5 107t-37 156v405h50v-399q0 -75 31.5 -133.5t86.5 -91.5t126 -33q74 0 130 33t88 91.5t32 133.5v399h49v-406q0 -87 -38 -155t-105 -107t-156 -39zM339 761l-43 5q8 38 28 65t49 42t65 15t65 -15t49 -42t28 -65l-43 -5q-10 48 -37.5 67
t-61.5 19t-61.5 -19t-37.5 -67z" />
    <glyph glyph-name="uni0217" unicode="&#x217;" horiz-adv-x="708" 
d="M334 -10q-71 0 -117.5 26t-70 76t-23.5 124v304h50v-299q0 -60 18 -100.5t54 -60.5t88 -20q43 0 80.5 15t64.5 40t43 57t16 68v300h50v-520h-48l-5 121h7q-10 -33 -41.5 -63t-75 -49t-90.5 -19zM256 606l-43 5q12 61 50 96.5t92 35.5t92 -35.5t50 -96.5l-43 -5
q-10 45 -37.5 70.5t-61.5 25.5t-61.5 -25.5t-37.5 -70.5z" />
    <glyph glyph-name="uni0218" unicode="&#x218;" horiz-adv-x="717" 
d="M364 -10q-56 0 -107 15t-94.5 44.5t-77.5 72.5l34 39q50 -64 113 -92.5t133 -28.5q63 0 112.5 18.5t77.5 52.5t28 78q0 31 -13.5 52t-36 35t-51.5 24t-60 17l-62 14q-51 12 -95 25t-77.5 33t-51.5 49.5t-18 77.5q0 43 18.5 77.5t52.5 59.5t78.5 38.5t96.5 13.5
q60 0 105.5 -15.5t81 -43t63.5 -66.5l-35 -38q-26 36 -58 61.5t-71 38.5t-86 13q-55 0 -98.5 -17.5t-69.5 -48.5t-26 -72q0 -33 15.5 -55t44 -37t69.5 -25.5t90 -20.5q48 -9 92 -22t79 -33t55 -52.5t20 -82.5q0 -57 -34 -102.5t-95 -71t-142 -25.5zM360 -229l-21 24
q16 10 26.5 18t15.5 15.5t5 15.5q0 10 -7 14.5t-15 8.5q-9 4 -15.5 12.5t-6.5 20.5q0 14 10.5 23.5t25.5 9.5q27 0 43 -16t16 -45q0 -17 -5 -31.5t-15.5 -25.5t-24.5 -22t-32 -22z" />
    <glyph glyph-name="uni0219" unicode="&#x219;" horiz-adv-x="606" 
d="M310 -10q-79 0 -141 27t-97 68l38 35q32 -40 84 -60.5t114 -20.5q35 0 65.5 6t53 17t35.5 29.5t13 42.5q0 40 -45 66q-22 11 -54.5 21.5t-76.5 19.5q-60 15 -103 27.5t-68 32.5q-19 16 -28.5 37t-9.5 47q0 32 15 59t43.5 47t65.5 30.5t83 10.5q41 0 83.5 -10.5t80 -29.5
t64.5 -45l-33 -38q-24 22 -53.5 39.5t-65 27.5t-74.5 10q-31 0 -59.5 -6.5t-49.5 -20t-34 -31.5t-13 -40q-1 -19 7 -31.5t23 -22.5q21 -14 55 -23.5t84 -20.5q47 -10 84 -20t63 -24q34 -19 51.5 -45t17.5 -61q0 -45 -27.5 -78.5t-76.5 -52.5t-114 -19zM283 -172l-21 24
q16 10 26.5 18t15 15.5t4.5 15.5q0 11 -6.5 15.5t-14.5 7.5q-9 5 -15.5 13.5t-6.5 19.5q0 15 11 24t25 9q27 0 43 -15.5t16 -45.5q0 -18 -5.5 -32.5t-15.5 -25.5t-24.5 -21.5t-31.5 -21.5z" />
    <glyph glyph-name="uni021A" unicode="&#x21a;" horiz-adv-x="625" 
d="M284 0v650h-233v50h523v-50h-240v-650h-50zM280 -229l-21 24q16 10 26.5 18t15.5 15.5t5 15.5q0 10 -7 14.5t-15 8.5q-9 4 -15.5 12.5t-6.5 20.5q0 14 10.5 23.5t25.5 9.5q27 0 43 -16t16 -45q0 -17 -5 -31.5t-15.5 -25.5t-24.5 -22t-32 -22z" />
    <glyph glyph-name="uni021B" unicode="&#x21b;" horiz-adv-x="505" 
d="M218 0v671h50v-671h-50zM66 474v46h371v-46h-371zM219 -172l-21 24q16 10 26.5 18t15 15.5t4.5 15.5q0 11 -6.5 15.5t-14.5 7.5q-9 5 -15.5 13.5t-6.5 19.5q0 15 11 24t25 9q27 0 43 -15.5t16 -45.5q0 -18 -5.5 -32.5t-15.5 -25.5t-24.5 -21.5t-31.5 -21.5z" />
    <glyph glyph-name="uni022A" unicode="&#x22a;" horiz-adv-x="915" 
d="M457 -10q-83 0 -151 26.5t-119 74.5t-78 113.5t-27 142.5t27 142.5t78 114t119 75t151 26.5q82 0 151 -26.5t119 -75t78 -114t28 -142.5t-28 -142.5t-78 -113.5t-119 -74.5t-151 -26.5zM457 40q70 0 129.5 22.5t103 64t67 97.5t23.5 123t-23.5 123.5t-67 97.5t-103 64
t-129.5 23t-129.5 -23t-102.5 -64.5t-66.5 -98t-23.5 -122.5q0 -67 23.5 -122.5t66.5 -97.5t102.5 -64.5t129.5 -22.5zM558 779q-22 0 -34 12t-12 33q0 20 12 32.5t34 12.5t34 -12t12 -33q0 -20 -12 -32.5t-34 -12.5zM358 779q-22 0 -34 12t-12 33q0 20 12 32.5t34 12.5
t34 -12t12 -33q0 -20 -12 -32.5t-34 -12.5zM316 936v46h284v-46h-284z" />
    <glyph glyph-name="uni022B" unicode="&#x22b;" horiz-adv-x="735" 
d="M368 -10q-88 0 -155.5 35t-106 97t-38.5 141q0 78 38.5 139t106 95.5t155.5 34.5q87 0 154.5 -34.5t106 -95.5t38.5 -139q0 -79 -38.5 -140.5t-106 -97t-154.5 -35.5zM368 40q70 0 126 29t88 79t32 115q0 63 -32 113t-88 78t-126 28q-72 0 -128 -28t-87.5 -77.5
t-31.5 -113.5q0 -65 31.5 -115t88 -79t127.5 -29zM463 621q-22 0 -34 12t-12 33q0 20 12 32.5t34 12.5t34 -12t12 -33q0 -20 -12 -32.5t-34 -12.5zM272 620q-22 0 -34 12t-12 33q0 20 12 32.5t34 12.5t34 -12t12 -33q0 -20 -12 -32.5t-34 -12.5zM229 819v43h276v-43h-276z
" />
    <glyph glyph-name="uni022C" unicode="&#x22c;" horiz-adv-x="915" 
d="M457 -10q-83 0 -151 26.5t-119 74.5t-78 113.5t-27 142.5t27 142.5t78 114t119 75t151 26.5q82 0 151 -26.5t119 -75t78 -114t28 -142.5t-28 -142.5t-78 -113.5t-119 -74.5t-151 -26.5zM457 40q70 0 129.5 22.5t103 64t67 97.5t23.5 123t-23.5 123.5t-67 97.5t-103 64
t-129.5 23t-129.5 -23t-102.5 -64.5t-66.5 -98t-23.5 -122.5q0 -67 23.5 -122.5t66.5 -97.5t102.5 -64.5t129.5 -22.5zM528 779q-22 0 -43 8.5t-44 18.5q-12 5 -24.5 11t-23.5 6q-15 0 -26 -11t-11 -32h-46q0 41 23 65t56 24q22 0 42.5 -8t44.5 -19q11 -5 24 -11t24 -6
q15 0 26 10.5t11 32.5h46q0 -27 -10.5 -47t-28.5 -31t-40 -11zM316 936v46h284v-46h-284z" />
    <glyph glyph-name="uni022D" unicode="&#x22d;" horiz-adv-x="735" 
d="M368 -10q-88 0 -155.5 35t-106 97t-38.5 141q0 78 38.5 139t106 95.5t155.5 34.5q87 0 154.5 -34.5t106 -95.5t38.5 -139q0 -79 -38.5 -140.5t-106 -97t-154.5 -35.5zM368 40q70 0 126 29t88 79t32 115q0 63 -32 113t-88 78t-126 28q-72 0 -128 -28t-87.5 -77.5
t-31.5 -113.5q0 -65 31.5 -115t88 -79t127.5 -29zM433 612q-21 0 -39 9.5t-42 33.5q-10 10 -19 15t-21 5q-21 0 -34.5 -14.5t-17.5 -42.5l-41 4q5 42 31.5 69t66.5 27q19 0 35 -8t40 -31q10 -10 19.5 -17t23.5 -7q16 0 27 14t13 33l43 -4q-3 -24 -14 -43.5t-29 -31
t-42 -11.5zM230 819v43h276v-43h-276z" />
    <glyph glyph-name="uni0230" unicode="&#x230;" horiz-adv-x="915" 
d="M457 -10q-83 0 -151 26.5t-119 74.5t-78 113.5t-27 142.5t27 142.5t78 114t119 75t151 26.5q82 0 151 -26.5t119 -75t78 -114t28 -142.5t-28 -142.5t-78 -113.5t-119 -74.5t-151 -26.5zM457 40q70 0 129.5 22.5t103 64t67 97.5t23.5 123t-23.5 123.5t-67 97.5t-103 64
t-129.5 23t-129.5 -23t-102.5 -64.5t-66.5 -98t-23.5 -122.5q0 -67 23.5 -122.5t66.5 -97.5t102.5 -64.5t129.5 -22.5zM458 779q-22 0 -34 12t-12 33q0 20 12 32.5t34 12.5t34 -12t12 -33q0 -20 -12 -32.5t-34 -12.5zM316 936v46h284v-46h-284z" />
    <glyph glyph-name="uni0231" unicode="&#x231;" horiz-adv-x="735" 
d="M368 -10q-88 0 -155.5 35t-106 97t-38.5 141q0 78 38.5 139t106 95.5t155.5 34.5q87 0 154.5 -34.5t106 -95.5t38.5 -139q0 -79 -38.5 -140.5t-106 -97t-154.5 -35.5zM368 40q70 0 126 29t88 79t32 115q0 63 -32 113t-88 78t-126 28q-72 0 -128 -28t-87.5 -77.5
t-31.5 -113.5q0 -65 31.5 -115t88 -79t127.5 -29zM368 630q-22 0 -34 12t-12 33q0 20 12 32.5t34 12.5t34 -12t12 -33q0 -20 -12 -32.5t-34 -12.5zM230 819v43h276v-43h-276z" />
    <glyph glyph-name="uni0232" unicode="&#x232;" horiz-adv-x="751" 
d="M361 0v328l9 -49l-317 421h65l276 -370h-15l259 370h60l-302 -426l14 62v-336h-49zM234 801v46h284v-46h-284z" />
    <glyph glyph-name="uni0233" unicode="&#x233;" horiz-adv-x="665" 
d="M219 -230l111 247l11 -59l-291 562h53l208 -398q17 -31 29 -59t22 -54l-29 15q10 20 18 38.5t16 36.5l195 421h53l-237 -516l-108 -234h-51zM194 644v43h276v-43h-276z" />
    <glyph glyph-name="uni0237" unicode="&#x237;" horiz-adv-x="374" 
d="M70 -195l-21 45q53 2 85 21.5t47 58t15 94.5v496h50v-516q0 -61 -23 -105t-62 -68.5t-91 -25.5z" />
    <glyph glyph-name="uni0259" unicode="&#x259;" horiz-adv-x="675" 
d="M328 -12q-80 0 -138.5 31t-90.5 88t-32 131l1 31h504v-46h-477l22 14v-24q1 -41 24.5 -81t71.5 -67t116 -27q63 0 115 23.5t83 72.5t31 122q0 68 -30 118.5t-85.5 77.5t-134.5 27q-52 0 -97.5 -13.5t-96.5 -50.5l-23 39q27 22 60 39t75 27t93 10q87 0 152.5 -34
t102.5 -95t37 -142q0 -60 -21.5 -109.5t-59.5 -86t-90 -56t-112 -19.5z" />
    <glyph glyph-name="uni0272" unicode="&#x272;" horiz-adv-x="772" 
d="M56 -195l-21 45q40 0 67 6.5t44 24t24.5 46.5t7.5 73v520h48l6 -152l-11 23q11 37 43 68.5t77.5 51.5t98.5 20q65 0 109.5 -25.5t67 -75t22.5 -119.5v-311h-50v306q0 57 -19.5 96t-55.5 59.5t-86 21.5q-44 0 -80 -15.5t-63.5 -41t-42 -57t-14.5 -65.5v-356
q0 -43 -21 -75.5t-59 -50t-92 -17.5z" />
    <glyph glyph-name="uni02BB" unicode="&#x2bb;" horiz-adv-x="278" 
d="M159 516q-21 0 -36.5 10t-24 29.5t-8.5 44.5t6.5 45t19.5 38.5t32.5 35.5t47.5 32l19 -27q-29 -18 -45 -37.5t-16 -41.5q0 -12 3.5 -22.5t21.5 -24.5q8 -6 16.5 -16.5t8.5 -23.5q0 -19 -12.5 -30.5t-32.5 -11.5z" />
    <glyph glyph-name="uni02BC" unicode="&#x2bc;" horiz-adv-x="259" 
d="M79 434l29 266h72l-65 -266h-36z" />
    <glyph glyph-name="uni02BE" unicode="&#x2be;" horiz-adv-x="215" 
d="M55 539v39q27 0 46 18t19 43q0 29 -19.5 45.5t-45.5 16.5v39q28 0 52 -14t38.5 -37t14.5 -50t-14.5 -49.5t-38.5 -36.5t-52 -14z" />
    <glyph glyph-name="uni02BF" unicode="&#x2bf;" horiz-adv-x="243" 
d="M160 539q-26 0 -50 13t-39.5 35.5t-15.5 51.5q0 27 14.5 50t38.5 37t52 14v-39q-25 0 -45 -16t-20 -46q0 -25 19 -43t46 -18v-39z" />
    <glyph glyph-name="circumflex" unicode="&#x2c6;" horiz-adv-x="500" 
d="M138 608l-28 25l109 101h62l109 -101l-28 -25l-127 97h30z" />
    <glyph glyph-name="caron" unicode="&#x2c7;" horiz-adv-x="500" 
d="M219 606l-109 101l28 25l127 -97h-30l127 97l28 -25l-109 -101h-62z" />
    <glyph glyph-name="uni02C8" unicode="&#x2c8;" horiz-adv-x="230" 
d="M92 368v344h47v-344h-47z" />
    <glyph glyph-name="uni02CC" unicode="&#x2cc;" horiz-adv-x="230" 
d="M90 -147v344h50v-344h-50z" />
    <glyph glyph-name="breve" unicode="&#x2d8;" horiz-adv-x="364" 
d="M250 601q-54 0 -92 35.5t-50 96.5l43 5q10 -45 37.5 -70.5t61.5 -25.5t61.5 25.5t37.5 70.5l43 -5q-12 -61 -50 -96.5t-92 -35.5z" />
    <glyph glyph-name="dotaccent" unicode="&#x2d9;" horiz-adv-x="500" 
d="M250 635q-22 0 -34 12t-12 33q0 20 12 32.5t34 12.5t34 -12t12 -33q0 -20 -12 -32.5t-34 -12.5z" />
    <glyph glyph-name="ring" unicode="&#x2da;" horiz-adv-x="500" 
d="M250 590q-27 0 -51 14t-38.5 37t-14.5 49q0 28 14.5 50.5t38 36.5t51.5 14t52 -14t38.5 -36.5t14.5 -50.5q0 -26 -14.5 -49t-38.5 -37t-52 -14zM250 629q27 0 46 18t19 43q0 28 -19 45t-46 17q-28 0 -46 -17.5t-18 -44.5q0 -25 19 -43t45 -18z" />
    <glyph glyph-name="ogonek" unicode="&#x2db;" horiz-adv-x="500" 
d="M245 -221q-25 0 -46 11t-33.5 31t-12.5 45q0 28 11 51.5t30 42.5t44.5 36t55.5 31l26 -28q-36 -16 -63 -35.5t-42.5 -42t-15.5 -48.5q0 -22 14.5 -37t36.5 -15q19 0 34.5 8.5t30.5 27.5l33 -24q-11 -17 -26 -29t-34 -18.5t-43 -6.5z" />
    <glyph glyph-name="tilde" unicode="&#x2dc;" horiz-adv-x="500" 
d="M315 617q-21 0 -39 9.5t-42 33.5q-10 10 -19 15t-21 5q-21 0 -34.5 -14.5t-17.5 -42.5l-41 4q5 42 31.5 69t66.5 27q19 0 35 -8t40 -31q10 -10 19.5 -17t23.5 -7q16 0 27 14t13 33l43 -4q-3 -24 -14 -43.5t-29 -31t-42 -11.5z" />
    <glyph glyph-name="hungarumlaut" unicode="&#x2dd;" horiz-adv-x="500" 
d="M259 598l-21 31l142 115l33 -45zM109 598l-21 31l142 115l33 -45z" />
    <glyph glyph-name="gravecomb" unicode="&#x300;" 
d="M317 598l-154 101l33 45l142 -115z" />
    <glyph glyph-name="acutecomb" unicode="&#x301;" 
d="M184 598l-21 31l142 115l33 -45z" />
    <glyph glyph-name="uni0302" unicode="&#x302;" 
d="M138 608l-28 25l109 101h62l109 -101l-28 -25l-127 97h30z" />
    <glyph glyph-name="tildecomb" unicode="&#x303;" 
d="M315 617q-21 0 -39 9.5t-42 33.5q-10 10 -19 15t-21 5q-21 0 -34.5 -14.5t-17.5 -42.5l-41 4q5 42 31.5 69t66.5 27q19 0 35 -8t40 -31q10 -10 19.5 -17t23.5 -7q16 0 27 14t13 33l43 -4q-3 -24 -14 -43.5t-29 -31t-42 -11.5z" />
    <glyph glyph-name="uni0304" unicode="&#x304;" 
d="M112 649v43h276v-43h-276z" />
    <glyph glyph-name="uni0306" unicode="&#x306;" 
d="M250 601q-54 0 -92 35.5t-50 96.5l43 5q10 -45 37.5 -70.5t61.5 -25.5t61.5 25.5t37.5 70.5l43 -5q-12 -61 -50 -96.5t-92 -35.5z" />
    <glyph glyph-name="uni0307" unicode="&#x307;" 
d="M250 635q-22 0 -34 12t-12 33q0 20 12 32.5t34 12.5t34 -12t12 -33q0 -20 -12 -32.5t-34 -12.5z" />
    <glyph glyph-name="uni0308" unicode="&#x308;" 
d="M346 626q-22 0 -34 12t-12 33q0 20 12 32.5t34 12.5t34 -12t12 -33q0 -20 -12 -32.5t-34 -12.5zM155 625q-22 0 -34 12t-12 33q0 20 12 32.5t34 12.5t34 -12t12 -33q0 -20 -12 -32.5t-34 -12.5z" />
    <glyph glyph-name="hookabovecomb" unicode="&#x309;" 
d="M240 605q-3 5 -5 12.5t-2 13.5q0 7 4.5 16.5t19.5 19.5q16 11 26 19t10 17q0 13 -14.5 19t-34.5 6q-15 0 -33.5 -4t-38.5 -12l-13 37q22 10 47 15.5t46 5.5q44 0 66.5 -19.5t22.5 -43.5q0 -22 -12.5 -33.5t-26.5 -20.5q-10 -7 -18 -13t-8 -17v-3t1 -6z" />
    <glyph glyph-name="uni030A" unicode="&#x30a;" 
d="M250 590q-27 0 -51 14t-38.5 37t-14.5 49q0 28 14.5 50.5t38 36.5t51.5 14t52 -14t38.5 -36.5t14.5 -50.5q0 -26 -14.5 -49t-38.5 -37t-52 -14zM250 629q27 0 46 18t19 43q0 28 -19 45t-46 17q-28 0 -46 -17.5t-18 -44.5q0 -25 19 -43t45 -18z" />
    <glyph glyph-name="uni030B" unicode="&#x30b;" 
d="M259 598l-21 31l142 115l33 -45zM109 598l-21 31l142 115l33 -45z" />
    <glyph glyph-name="uni030C" unicode="&#x30c;" 
d="M219 606l-109 101l28 25l127 -97h-30l127 97l28 -25l-109 -101h-62z" />
    <glyph glyph-name="uni030F" unicode="&#x30f;" 
d="M392 598l-154 101l33 45l142 -115zM242 598l-154 101l33 45l142 -115z" />
    <glyph glyph-name="uni0311" unicode="&#x311;" 
d="M151 611l-43 5q12 61 50 96.5t92 35.5t92 -35.5t50 -96.5l-43 -5q-10 45 -37.5 70.5t-61.5 25.5t-61.5 -25.5t-37.5 -70.5z" />
    <glyph glyph-name="uni0312" unicode="&#x312;" 
d="M260 607q-28 0 -43.5 16.5t-15.5 44.5q0 17 4.5 30.5t14 25t24 22.5t34.5 23l21 -24q-16 -10 -26.5 -18t-15.5 -15t-5 -16q0 -10 6.5 -14.5t15.5 -8.5q10 -4 16 -13t6 -20q0 -14 -10.5 -23.5t-25.5 -9.5z" />
    <glyph glyph-name="uni031B" unicode="&#x31b;" 
d="M176 480l2 40q50 0 73.5 25t23.5 79h48q0 -43 -16.5 -75.5t-49 -50t-81.5 -18.5z" />
    <glyph glyph-name="dotbelowcomb" unicode="&#x323;" 
d="M250 -166q-23 0 -34.5 12.5t-11.5 32.5q0 18 11.5 31.5t34.5 13.5t34.5 -12.5t11.5 -32.5q0 -18 -11.5 -31.5t-34.5 -13.5z" />
    <glyph glyph-name="uni0324" unicode="&#x324;" 
d="M346 -166q-22 0 -34 12t-12 33q0 20 12 32.5t34 12.5t34 -12t12 -33q0 -20 -12 -32.5t-34 -12.5zM155 -167q-22 0 -34 12t-12 33q0 20 12 32.5t34 12.5t34 -12t12 -33q0 -20 -12 -32.5t-34 -12.5z" />
    <glyph glyph-name="uni0326" unicode="&#x326;" 
d="M222 -172l-21 24q16 10 26.5 18t15 15.5t4.5 15.5q0 11 -6.5 15.5t-14.5 7.5q-9 5 -15.5 13.5t-6.5 19.5q0 15 11 24t25 9q27 0 43 -15.5t16 -45.5q0 -18 -5.5 -32.5t-15.5 -25.5t-24.5 -21.5t-31.5 -21.5z" />
    <glyph glyph-name="uni0327" unicode="&#x327;" 
d="M174 -230l-7 34q32 1 59.5 7t44 18t16.5 29q0 16 -14 26.5t-35.5 15t-44.5 4.5l-12 14l59 88h44l-43 -65q43 -8 68 -26.5t25 -49.5q0 -27 -14.5 -46t-38.5 -29t-51.5 -15t-55.5 -5z" />
    <glyph glyph-name="uni0328" unicode="&#x328;" 
d="M245 -221q-25 0 -46 11t-33.5 31t-12.5 45q0 28 11 51.5t30 42.5t44.5 36t55.5 31l26 -28q-36 -16 -63 -35.5t-42.5 -42t-15.5 -48.5q0 -22 14.5 -37t36.5 -15q19 0 34.5 8.5t30.5 27.5l33 -24q-11 -17 -26 -29t-34 -18.5t-43 -6.5z" />
    <glyph glyph-name="uni032E" unicode="&#x32e;" 
d="M250 -200q-54 0 -92 36t-50 96l43 5q9 -42 36 -69t63 -27t63 27t36 69l43 -5q-12 -60 -50 -96t-92 -36z" />
    <glyph glyph-name="uni0331" unicode="&#x331;" 
d="M113 -145v48h274v-48h-274z" />
    <glyph glyph-name="uni0335" unicode="&#x335;" 
d="M88 279v43h324v-43h-324z" />
    <glyph glyph-name="uni0394" unicode="&#x394;" horiz-adv-x="765" 
d="M39 0l371 718l372 -718h-743zM114 27l-15 26h622l-13 -26l-308 598h22z" />
    <glyph glyph-name="uni03A9" unicode="&#x3a9;" horiz-adv-x="768" 
d="M63 0v50h236l-17 -34q-60 58 -107 121t-74.5 128t-27.5 131q0 67 25.5 124t72 98.5t108.5 64t135 22.5q74 0 136 -23t108.5 -64.5t71.5 -98t25 -123.5t-27 -133t-74.5 -128t-107.5 -119l-19 34h238v-50h-250v56q8 7 16.5 17t19.5 23.5t28 30.5q32 36 59 77t44 89t17 102
q0 57 -21.5 105t-59.5 81.5t-90.5 52.5t-113.5 19q-60 0 -112.5 -19t-90.5 -52.5t-60 -81.5t-22 -105q0 -30 5 -57t15.5 -54.5t28.5 -59.5q10 -19 27.5 -42t38 -47.5t39 -45.5t30.5 -33v-56h-250z" />
    <glyph glyph-name="uni03BC" unicode="&#x3bc;" horiz-adv-x="614" 
d="M106 -157v677h53v-304q0 -59 17.5 -98t53 -58t85.5 -19q44 0 82 15t66 38t43.5 52t15.5 57v317h53v-520h-51l-4 129l16 7q-21 -44 -54 -76.5t-74.5 -50.5t-87.5 -18q-44 0 -78 13.5t-60 37.5t-44 55l19 7l1 -261h-52z" />
    <glyph glyph-name="pi" unicode="&#x3c0;" horiz-adv-x="766" 
d="M174 0v511l17 -35h-119v46h622v-46h-119l17 35v-511h-50v490l14 -14h-345l13 13v-489h-50z" />
    <glyph glyph-name="uni1E08" unicode="&#x1e08;" horiz-adv-x="795" 
d="M466 -10q-83 0 -153.5 27t-122.5 75.5t-80 114t-28 144.5q0 77 27.5 141.5t77.5 112t118.5 74t148.5 26.5q52 0 104.5 -16t97.5 -42.5t74 -60.5l-34 -43q-24 34 -63 58.5t-85.5 39t-94.5 14.5q-68 0 -127 -22t-101 -63t-66 -97.5t-24 -121.5q0 -67 24.5 -124.5t69.5 -99
t104 -65t131 -23.5q48 0 92.5 13.5t80.5 35t58 49.5l25 -45q-26 -28 -67 -51t-89.5 -37t-97.5 -14zM363 -230l-7 34q32 1 59.5 7t44 18t16.5 29q0 16 -13.5 26.5t-35 15t-46.5 4.5l-10 14l58 88h44l-43 -65q42 -8 67.5 -26.5t25.5 -49.5q0 -27 -14.5 -46t-38 -29t-51.5 -15
t-56 -5zM392 759l-18 33l152 98l34 -52z" />
    <glyph glyph-name="uni1E09" unicode="&#x1e09;" horiz-adv-x="656" 
d="M355 -10q-84 0 -148.5 35t-101.5 96t-37 140t37.5 140.5t102.5 96t150 34.5q71 0 132 -25t104 -69l-31 -42q-25 26 -57.5 45.5t-72 30t-83.5 10.5q-65 0 -117 -28.5t-81.5 -78.5t-29.5 -114q0 -65 30 -114.5t81.5 -78t113.5 -28.5q46 0 85.5 10.5t71 28.5t56.5 41l31 -42
q-44 -40 -104.5 -64t-131.5 -24zM260 -230l-7 34q32 1 59.5 7t44 18t16.5 29q0 16 -14 26.5t-35.5 15t-44.5 4.5l-12 14l59 88h44l-43 -65q43 -8 68 -26.5t25 -49.5q0 -27 -14.5 -46t-38.5 -29t-51.5 -15t-55.5 -5zM301 593l-21 31l142 115l33 -45z" />
    <glyph glyph-name="uni1E0C" unicode="&#x1e0c;" horiz-adv-x="863" 
d="M142 0v700h287q76 0 140 -26.5t111.5 -73t74 -110.5t26.5 -140t-26.5 -140.5t-74 -110.5t-111.5 -72.5t-140 -26.5h-287zM192 33l-14 17h246q65 0 120.5 22.5t96 63t63.5 94t23 120.5q0 66 -23 120t-63.5 94.5t-96 63t-120.5 22.5h-249l17 15v-632zM433 -166
q-23 0 -34.5 12.5t-11.5 32.5q0 18 11.5 31.5t34.5 13.5t34.5 -12.5t11.5 -32.5q0 -18 -11.5 -31.5t-34.5 -13.5z" />
    <glyph glyph-name="uni1E0D" unicode="&#x1e0d;" horiz-adv-x="749" 
d="M335 -10q-77 0 -137.5 35.5t-95.5 96.5t-35 139q0 79 35.5 140t97 96t138.5 35q46 0 85.5 -11.5t72 -32.5t56.5 -51.5t37 -66.5l-19 16v354h50v-740h-47l-5 140l20 13q-12 -36 -36 -66t-57 -52t-73.5 -33.5t-86.5 -11.5zM344 41q66 0 118 28.5t82 78t30 114.5
q0 63 -29 113t-81 78t-120 28q-65 0 -115.5 -28t-79.5 -77.5t-29 -113.5q0 -63 29 -113t79.5 -79t115.5 -29zM365 -166q-23 0 -34.5 12.5t-11.5 32.5q0 18 11.5 31.5t34.5 13.5t34.5 -12.5t11.5 -32.5q0 -18 -11.5 -31.5t-34.5 -13.5z" />
    <glyph glyph-name="uni1E0E" unicode="&#x1e0e;" horiz-adv-x="863" 
d="M142 0v700h287q76 0 140 -26.5t111.5 -73t74 -110.5t26.5 -140t-26.5 -140.5t-74 -110.5t-111.5 -72.5t-140 -26.5h-287zM192 33l-14 17h246q65 0 120.5 22.5t96 63t63.5 94t23 120.5q0 66 -23 120t-63.5 94.5t-96 63t-120.5 22.5h-249l17 15v-632zM296 -145v48h274v-48
h-274z" />
    <glyph glyph-name="uni1E0F" unicode="&#x1e0f;" horiz-adv-x="749" 
d="M335 -10q-77 0 -137.5 35.5t-95.5 96.5t-35 139q0 79 35.5 140t97 96t138.5 35q46 0 85.5 -11.5t72 -32.5t56.5 -51.5t37 -66.5l-19 16v354h50v-740h-47l-5 140l20 13q-12 -36 -36 -66t-57 -52t-73.5 -33.5t-86.5 -11.5zM344 41q66 0 118 28.5t82 78t30 114.5
q0 63 -29 113t-81 78t-120 28q-65 0 -115.5 -28t-79.5 -77.5t-29 -113.5q0 -63 29 -113t79.5 -79t115.5 -29zM228 -145v48h274v-48h-274z" />
    <glyph glyph-name="uni1E14" unicode="&#x1e14;" horiz-adv-x="709" 
d="M142 0v700h463v-50h-413v-600h409v-50h-459zM167 336v50h381v-50h-381zM243 801v46h284v-46h-284zM448 894l-168 79l34 52l152 -98z" />
    <glyph glyph-name="uni1E15" unicode="&#x1e15;" horiz-adv-x="678" 
d="M357 -10q-86 0 -152.5 34t-103.5 95t-37 142q0 61 21.5 110t59.5 85.5t90 56t112 19.5t109 -17.5t83.5 -51t52.5 -79.5t16 -102l-1 -31h-503v46h476l-21 -14l-1 24q0 40 -24.5 80.5t-71.5 67.5t-116 27q-63 0 -115 -23.5t-83 -72t-31 -122.5q0 -68 30 -118t85.5 -77.5
t134.5 -27.5q53 0 98 13.5t96 50.5l23 -39q-26 -20 -59.5 -38t-75 -28t-92.5 -10zM365 711l-92 115l45 31l78 -126zM209 634v43h274v-43h-274z" />
    <glyph glyph-name="uni1E16" unicode="&#x1e16;" horiz-adv-x="709" 
d="M142 0v700h463v-50h-413v-600h409v-50h-459zM167 336v50h381v-50h-381zM243 801v46h284v-46h-284zM323 894l-18 33l152 98l34 -52z" />
    <glyph glyph-name="uni1E17" unicode="&#x1e17;" horiz-adv-x="678" 
d="M357 -10q-86 0 -152.5 34t-103.5 95t-37 142q0 61 21.5 110t59.5 85.5t90 56t112 19.5t109 -17.5t83.5 -51t52.5 -79.5t16 -102l-1 -31h-503v46h476l-21 -14l-1 24q0 40 -24.5 80.5t-71.5 67.5t-116 27q-63 0 -115 -23.5t-83 -72t-31 -122.5q0 -68 30 -118t85.5 -77.5
t134.5 -27.5q53 0 98 13.5t96 50.5l23 -39q-26 -20 -59.5 -38t-75 -28t-92.5 -10zM209 634v43h274v-43h-274zM344 711l-31 20l78 126l45 -31z" />
    <glyph glyph-name="uni1E1C" unicode="&#x1e1c;" horiz-adv-x="709" 
d="M142 0v700h463v-50h-413v-600h409v-50h-459zM167 336v50h381v-50h-381zM270 -230l-7 34q32 1 59.5 7t44 18t16.5 29q0 16 -13.5 26.5t-35 15t-46.5 4.5l-10 14l58 88h44l-43 -65q42 -8 67.5 -26.5t25.5 -49.5q0 -27 -14.5 -46t-38 -29t-51.5 -15t-56 -5zM385 761
q-36 0 -65 15t-49 42.5t-28 64.5l43 5q10 -48 37.5 -67t61.5 -19t61.5 19t37.5 67l43 -5q-8 -37 -28 -64.5t-49 -42.5t-65 -15z" />
    <glyph glyph-name="uni1E1D" unicode="&#x1e1d;" horiz-adv-x="678" 
d="M357 -10q-86 0 -152.5 34t-103.5 95t-37 142q0 61 21.5 110t59.5 85.5t90 56t112 19.5t109 -17.5t83.5 -51t52.5 -79.5t16 -102l-1 -31h-503v46h476l-21 -14l-1 24q0 40 -24.5 80.5t-71.5 67.5t-116 27q-63 0 -115 -23.5t-83 -72t-31 -122.5q0 -68 30 -118t85.5 -77.5
t134.5 -27.5q53 0 98 13.5t96 50.5l23 -39q-26 -20 -59.5 -38t-75 -28t-92.5 -10zM265 -230l-7 34q32 1 59.5 7t44 18t16.5 29q0 16 -14 26.5t-35.5 15t-44.5 4.5l-12 14l59 88h44l-43 -65q43 -8 68 -26.5t25 -49.5q0 -27 -14.5 -46t-38.5 -29t-51.5 -15t-55.5 -5zM346 596
q-54 0 -92 35.5t-50 96.5l43 5q10 -45 37.5 -70.5t61.5 -25.5t61.5 25.5t37.5 70.5l43 -5q-12 -61 -50 -96.5t-92 -35.5z" />
    <glyph glyph-name="uni1E20" unicode="&#x1e20;" horiz-adv-x="888" 
d="M475 -10q-84 0 -155.5 26t-125 73t-83 113.5t-29.5 145.5q0 77 29 142t81 113.5t122.5 75t153.5 26.5q58 0 113.5 -15.5t101 -41t72.5 -57.5l-31 -37q-28 29 -70 51t-90 36t-94 14q-71 0 -132 -23t-106.5 -64t-70.5 -97.5t-25 -122.5q0 -69 25.5 -125.5t72 -97.5t109 -63
t135.5 -22q61 0 114.5 17.5t93 48.5t62 71.5t21.5 85.5v44l20 -29h-313v50h341q1 -5 1.5 -15t1 -21t0.5 -18q0 -59 -27 -110.5t-74 -90.5t-109.5 -61t-134.5 -22zM325 801v46h284v-46h-284z" />
    <glyph glyph-name="uni1E21" unicode="&#x1e21;" horiz-adv-x="748" 
d="M361 -230q-70 0 -122.5 19.5t-89.5 43.5l22 48q22 -16 50.5 -29.5t64.5 -22.5t78 -9q63 0 110 24.5t73.5 75.5t26.5 129v90l15 12q-19 -48 -55 -84t-87 -56t-112 -20q-77 0 -137 35t-95 96t-35 139q0 79 36 140t97 96t138 35q33 0 66 -7.5t61.5 -20.5t52.5 -33t42 -45.5
t29 -56.5l-21 13l5 138h50v-472q0 -71 -20.5 -123t-56.5 -86t-84.5 -51.5t-101.5 -17.5zM346 41q67 0 118.5 28.5t81 78t29.5 113.5q0 65 -29.5 115t-81 78t-117.5 28q-65 0 -116 -28.5t-80.5 -78t-29.5 -113.5q0 -63 29 -113t79.5 -79t116.5 -29zM231 644v43h276v-43h-276z
" />
    <glyph glyph-name="uni1E24" unicode="&#x1e24;" horiz-adv-x="867" 
d="M676 0v700h50v-700h-50zM142 0v700h50v-700h-50zM171 322v50h523v-50h-523zM434 -166q-23 0 -34.5 12.5t-11.5 32.5q0 18 11.5 31.5t34.5 13.5t34.5 -12.5t11.5 -32.5q0 -18 -11.5 -31.5t-34.5 -13.5z" />
    <glyph glyph-name="uni1E25" unicode="&#x1e25;" horiz-adv-x="726" 
d="M132 0v740h50v-356l-16 -18q11 48 45 85.5t81.5 59t96.5 21.5q69 0 114.5 -26t67.5 -75.5t22 -119.5v-311h-50v306q0 58 -19 97t-55.5 60.5t-88.5 20.5q-42 0 -78 -15t-63 -41t-42 -58t-15 -66v-304h-25h-11.5h-13.5zM361 -166q-23 0 -34.5 12.5t-11.5 32.5
q0 18 11.5 31.5t34.5 13.5t34.5 -12.5t11.5 -32.5q0 -18 -11.5 -31.5t-34.5 -13.5z" />
    <glyph glyph-name="uni1E2A" unicode="&#x1e2a;" horiz-adv-x="867" 
d="M676 0v700h50v-700h-50zM142 0v700h50v-700h-50zM171 322v50h523v-50h-523zM434 -200q-54 0 -92 36t-50 96l43 5q9 -42 36 -69t63 -27t63 27t36 69l43 -5q-12 -60 -50 -96t-92 -36z" />
    <glyph glyph-name="uni1E2B" unicode="&#x1e2b;" horiz-adv-x="726" 
d="M132 0v740h50v-356l-16 -18q11 48 45 85.5t81.5 59t96.5 21.5q69 0 114.5 -26t67.5 -75.5t22 -119.5v-311h-50v306q0 58 -19 97t-55.5 60.5t-88.5 20.5q-42 0 -78 -15t-63 -41t-42 -58t-15 -66v-304h-25h-11.5h-13.5zM361 -200q-54 0 -92 36t-50 96l43 5q9 -42 36 -69
t63 -27t63 27t36 69l43 -5q-12 -60 -50 -96t-92 -36z" />
    <glyph glyph-name="uni1E2E" unicode="&#x1e2e;" horiz-adv-x="562" 
d="M115 0v51h141v598h-141v51h332v-51h-141v-598h141v-51h-332zM226 894l-18 33l152 98l34 -52zM181 779q-22 0 -34 12t-12 33q0 20 12 32.5t34 12.5t34 -12t12 -33q0 -20 -12 -32.5t-34 -12.5zM381 779q-22 0 -34 12t-12 33q0 20 12 32.5t34 12.5t34 -12t12 -33
q0 -20 -12 -32.5t-34 -12.5z" />
    <glyph glyph-name="uni1E2F" unicode="&#x1e2f;" horiz-adv-x="304" 
d="M126 0v520h50v-520h-50zM56 614q-22 0 -34 12t-12 33q0 20 12 32.5t34 12.5t34 -12t12 -33q0 -20 -12 -32.5t-34 -12.5zM247 615q-22 0 -34 12t-12 33q0 20 12 32.5t34 12.5t34 -12t12 -33q0 -20 -12 -32.5t-34 -12.5zM150 721l-31 20l59 134l64 -39z" />
    <glyph glyph-name="uni1E36" unicode="&#x1e36;" horiz-adv-x="645" 
d="M142 0v700h50v-650h399v-50h-449zM325 -166q-23 0 -34.5 12.5t-11.5 32.5q0 18 11.5 31.5t34.5 13.5t34.5 -12.5t11.5 -32.5q0 -18 -11.5 -31.5t-34.5 -13.5z" />
    <glyph glyph-name="uni1E37" unicode="&#x1e37;" horiz-adv-x="298" 
d="M124 0v740h50v-740h-50zM149 -166q-23 0 -34.5 12.5t-11.5 32.5q0 18 11.5 31.5t34.5 13.5t34.5 -12.5t11.5 -32.5q0 -18 -11.5 -31.5t-34.5 -13.5z" />
    <glyph glyph-name="uni1E3A" unicode="&#x1e3a;" horiz-adv-x="645" 
d="M142 0v700h50v-650h399v-50h-449zM188 -145v48h274v-48h-274z" />
    <glyph glyph-name="uni1E3B" unicode="&#x1e3b;" horiz-adv-x="298" 
d="M124 0v740h50v-740h-50zM12 -145v48h274v-48h-274z" />
    <glyph glyph-name="uni1E42" unicode="&#x1e42;" horiz-adv-x="977" 
d="M142 0v700h49l308 -454l-22 1l314 453h44v-700h-50v352q0 89 1.5 161t7.5 144l14 -19l-301 -430h-42l-293 428l11 21q6 -68 7.5 -139t1.5 -166v-352h-50zM488 -166q-23 0 -34.5 12.5t-11.5 32.5q0 18 11.5 31.5t34.5 13.5t34.5 -12.5t11.5 -32.5q0 -18 -11.5 -31.5
t-34.5 -13.5z" />
    <glyph glyph-name="uni1E43" unicode="&#x1e43;" horiz-adv-x="1103" 
d="M125 0v520h48l5 -139l-15 5q10 32 31.5 58.5t51.5 46.5t66 30.5t79 10.5q44 0 81 -14t63 -51.5t41 -102.5l-21 16l4 15q11 24 31.5 48.5t50 44.5t66.5 32t80 12q62 0 104.5 -26t64.5 -75.5t22 -119.5v-311h-50v306q0 58 -17.5 97.5t-51 60t-81.5 20.5q-43 0 -80 -15
t-64 -41t-42.5 -58t-15.5 -67v-303h-50v306q0 58 -18 97.5t-52 60t-83 20.5q-44 0 -79.5 -15t-62 -41.5t-41.5 -58t-15 -65.5v-304h-50zM551 -166q-23 0 -34.5 12.5t-11.5 32.5q0 18 11.5 31.5t34.5 13.5t34.5 -12.5t11.5 -32.5q0 -18 -11.5 -31.5t-34.5 -13.5z" />
    <glyph glyph-name="uni1E44" unicode="&#x1e44;" horiz-adv-x="912" 
d="M142 0v700h49l546 -640l-11 -27q-2 11 -2 49t-1 88.5t-1 101.5t-0.5 90.5t-0.5 54.5v283h50v-700h-52l-545 641l10 28q0 -15 0.5 -48t2 -74.5l3 -83t2 -74t0.5 -45.5v-344h-50zM457 779q-22 0 -34 12t-12 33q0 20 12 32.5t34 12.5t34 -12t12 -33q0 -20 -12 -32.5
t-34 -12.5z" />
    <glyph glyph-name="uni1E45" unicode="&#x1e45;" horiz-adv-x="726" 
d="M132 0v520h48l5 -126l-10 1q13 35 44.5 66.5t77 51t97.5 19.5q64 0 109 -26t67.5 -75.5t22.5 -119.5v-311h-50v306q0 58 -19.5 97t-55.5 60t-86 21q-44 0 -80 -15.5t-63.5 -41.5t-42 -57.5t-14.5 -65.5v-304h-25h-8h-17zM389 630q-22 0 -34 12t-12 33q0 20 12 32.5
t34 12.5t34 -12t12 -33q0 -20 -12 -32.5t-34 -12.5z" />
    <glyph glyph-name="uni1E46" unicode="&#x1e46;" horiz-adv-x="912" 
d="M142 0v700h49l546 -640l-11 -27q-2 11 -2 49t-1 88.5t-1 101.5t-0.5 90.5t-0.5 54.5v283h50v-700h-52l-545 641l10 28q0 -15 0.5 -48t2 -74.5l3 -83t2 -74t0.5 -45.5v-344h-50zM457 -166q-23 0 -34.5 12.5t-11.5 32.5q0 18 11.5 31.5t34.5 13.5t34.5 -12.5t11.5 -32.5
q0 -18 -11.5 -31.5t-34.5 -13.5z" />
    <glyph glyph-name="uni1E47" unicode="&#x1e47;" horiz-adv-x="726" 
d="M132 0v520h48l5 -126l-10 1q13 35 44.5 66.5t77 51t97.5 19.5q64 0 109 -26t67.5 -75.5t22.5 -119.5v-311h-50v306q0 58 -19.5 97t-55.5 60t-86 21q-44 0 -80 -15.5t-63.5 -41.5t-42 -57.5t-14.5 -65.5v-304h-25h-8h-17zM362 -166q-23 0 -34.5 12.5t-11.5 32.5
q0 18 11.5 31.5t34.5 13.5t34.5 -12.5t11.5 -32.5q0 -18 -11.5 -31.5t-34.5 -13.5z" />
    <glyph glyph-name="uni1E48" unicode="&#x1e48;" horiz-adv-x="912" 
d="M142 0v700h49l546 -640l-11 -27q-2 11 -2 49t-1 88.5t-1 101.5t-0.5 90.5t-0.5 54.5v283h50v-700h-52l-545 641l10 28q0 -15 0.5 -48t2 -74.5l3 -83t2 -74t0.5 -45.5v-344h-50zM320 -145v48h274v-48h-274z" />
    <glyph glyph-name="uni1E49" unicode="&#x1e49;" horiz-adv-x="726" 
d="M132 0v520h48l5 -126l-10 1q13 35 44.5 66.5t77 51t97.5 19.5q64 0 109 -26t67.5 -75.5t22.5 -119.5v-311h-50v306q0 58 -19.5 97t-55.5 60t-86 21q-44 0 -80 -15.5t-63.5 -41.5t-42 -57.5t-14.5 -65.5v-304h-25h-8h-17zM225 -145v48h274v-48h-274z" />
    <glyph glyph-name="uni1E4C" unicode="&#x1e4c;" horiz-adv-x="915" 
d="M457 -10q-83 0 -151 26.5t-119 74.5t-78 113.5t-27 142.5t27 142.5t78 114t119 75t151 26.5q82 0 151 -26.5t119 -75t78 -114t28 -142.5t-28 -142.5t-78 -113.5t-119 -74.5t-151 -26.5zM457 40q70 0 129.5 22.5t103 64t67 97.5t23.5 123t-23.5 123.5t-67 97.5t-103 64
t-129.5 23t-129.5 -23t-102.5 -64.5t-66.5 -98t-23.5 -122.5q0 -67 23.5 -122.5t66.5 -97.5t102.5 -64.5t129.5 -22.5zM528 779q-22 0 -43 8.5t-44 18.5q-12 5 -24.5 11t-23.5 6q-15 0 -26 -11t-11 -32h-46q0 41 23 65t56 24q22 0 42.5 -8t44.5 -19q11 -5 24 -11t24 -6
q15 0 26 10.5t11 32.5h46q0 -27 -10.5 -47t-28.5 -31t-40 -11zM396 894l-18 33l152 98l34 -52z" />
    <glyph glyph-name="uni1E4D" unicode="&#x1e4d;" horiz-adv-x="735" 
d="M368 -10q-88 0 -155.5 35t-106 97t-38.5 141q0 78 38.5 139t106 95.5t155.5 34.5q87 0 154.5 -34.5t106 -95.5t38.5 -139q0 -79 -38.5 -140.5t-106 -97t-154.5 -35.5zM368 40q70 0 126 29t88 79t32 115q0 63 -32 113t-88 78t-126 28q-72 0 -128 -28t-87.5 -77.5
t-31.5 -113.5q0 -65 31.5 -115t88 -79t127.5 -29zM434 612q-21 0 -39 9.5t-42 33.5q-10 10 -19 15t-21 5q-21 0 -34.5 -14.5t-17.5 -42.5l-41 4q5 42 31.5 69t66.5 27q19 0 35 -8t40 -31q10 -10 19.5 -17t23.5 -7q16 0 27 14t13 33l43 -4q-3 -24 -14 -43.5t-29 -31
t-42 -11.5zM383 731l-31 20l78 126l45 -31z" />
    <glyph glyph-name="uni1E4E" unicode="&#x1e4e;" horiz-adv-x="915" 
d="M457 -10q-83 0 -151 26.5t-119 74.5t-78 113.5t-27 142.5t27 142.5t78 114t119 75t151 26.5q82 0 151 -26.5t119 -75t78 -114t28 -142.5t-28 -142.5t-78 -113.5t-119 -74.5t-151 -26.5zM457 40q70 0 129.5 22.5t103 64t67 97.5t23.5 123t-23.5 123.5t-67 97.5t-103 64
t-129.5 23t-129.5 -23t-102.5 -64.5t-66.5 -98t-23.5 -122.5q0 -67 23.5 -122.5t66.5 -97.5t102.5 -64.5t129.5 -22.5zM528 779q-22 0 -43 8.5t-44 18.5q-12 5 -24.5 11t-23.5 6q-15 0 -26 -11t-11 -32h-46q0 41 23 65t56 24q22 0 42.5 -8t44.5 -19q11 -5 24 -11t24 -6
q15 0 26 10.5t11 32.5h46q0 -27 -10.5 -47t-28.5 -31t-40 -11zM558 914q-22 0 -34 12t-12 33q0 20 12 32.5t34 12.5t34 -12t12 -33q0 -20 -12 -32.5t-34 -12.5zM358 914q-22 0 -34 12t-12 33q0 20 12 32.5t34 12.5t34 -12t12 -33q0 -20 -12 -32.5t-34 -12.5z" />
    <glyph glyph-name="uni1E4F" unicode="&#x1e4f;" horiz-adv-x="735" 
d="M368 -10q-88 0 -155.5 35t-106 97t-38.5 141q0 78 38.5 139t106 95.5t155.5 34.5q87 0 154.5 -34.5t106 -95.5t38.5 -139q0 -79 -38.5 -140.5t-106 -97t-154.5 -35.5zM368 40q70 0 126 29t88 79t32 115q0 63 -32 113t-88 78t-126 28q-72 0 -128 -28t-87.5 -77.5
t-31.5 -113.5q0 -65 31.5 -115t88 -79t127.5 -29zM461 774q-22 0 -34 12t-12 33q0 20 12 32.5t34 12.5t34 -12t12 -33q0 -20 -12 -32.5t-34 -12.5zM270 773q-22 0 -34 12t-12 33q0 20 12 32.5t34 12.5t34 -12t12 -33q0 -20 -12 -32.5t-34 -12.5zM431 612q-21 0 -39 9.5
t-42 33.5q-10 10 -19 15t-21 5q-21 0 -34.5 -14.5t-17.5 -42.5l-41 4q5 42 31.5 69t66.5 27q19 0 35 -8t40 -31q10 -10 19.5 -17t23.5 -7q16 0 27 14t13 33l43 -4q-3 -24 -14 -43.5t-29 -31t-42 -11.5z" />
    <glyph glyph-name="uni1E50" unicode="&#x1e50;" horiz-adv-x="915" 
d="M457 -10q-83 0 -151 26.5t-119 74.5t-78 113.5t-27 142.5t27 142.5t78 114t119 75t151 26.5q82 0 151 -26.5t119 -75t78 -114t28 -142.5t-28 -142.5t-78 -113.5t-119 -74.5t-151 -26.5zM457 40q70 0 129.5 22.5t103 64t67 97.5t23.5 123t-23.5 123.5t-67 97.5t-103 64
t-129.5 23t-129.5 -23t-102.5 -64.5t-66.5 -98t-23.5 -122.5q0 -67 23.5 -122.5t66.5 -97.5t102.5 -64.5t129.5 -22.5zM316 801v46h284v-46h-284zM521 894l-168 79l34 52l152 -98z" />
    <glyph glyph-name="uni1E51" unicode="&#x1e51;" horiz-adv-x="735" 
d="M368 -10q-88 0 -155.5 35t-106 97t-38.5 141q0 78 38.5 139t106 95.5t155.5 34.5q87 0 154.5 -34.5t106 -95.5t38.5 -139q0 -79 -38.5 -140.5t-106 -97t-154.5 -35.5zM368 40q70 0 126 29t88 79t32 115q0 63 -32 113t-88 78t-126 28q-72 0 -128 -28t-87.5 -77.5
t-31.5 -113.5q0 -65 31.5 -115t88 -79t127.5 -29zM387 711l-92 115l45 31l78 -126zM231 634v43h274v-43h-274z" />
    <glyph glyph-name="uni1E52" unicode="&#x1e52;" horiz-adv-x="915" 
d="M457 -10q-83 0 -151 26.5t-119 74.5t-78 113.5t-27 142.5t27 142.5t78 114t119 75t151 26.5q82 0 151 -26.5t119 -75t78 -114t28 -142.5t-28 -142.5t-78 -113.5t-119 -74.5t-151 -26.5zM457 40q70 0 129.5 22.5t103 64t67 97.5t23.5 123t-23.5 123.5t-67 97.5t-103 64
t-129.5 23t-129.5 -23t-102.5 -64.5t-66.5 -98t-23.5 -122.5q0 -67 23.5 -122.5t66.5 -97.5t102.5 -64.5t129.5 -22.5zM316 801v46h284v-46h-284zM396 894l-18 33l152 98l34 -52z" />
    <glyph glyph-name="uni1E53" unicode="&#x1e53;" horiz-adv-x="735" 
d="M368 -10q-88 0 -155.5 35t-106 97t-38.5 141q0 78 38.5 139t106 95.5t155.5 34.5q87 0 154.5 -34.5t106 -95.5t38.5 -139q0 -79 -38.5 -140.5t-106 -97t-154.5 -35.5zM368 40q70 0 126 29t88 79t32 115q0 63 -32 113t-88 78t-126 28q-72 0 -128 -28t-87.5 -77.5
t-31.5 -113.5q0 -65 31.5 -115t88 -79t127.5 -29zM231 634v43h274v-43h-274zM366 711l-31 20l78 126l45 -31z" />
    <glyph glyph-name="uni1E5A" unicode="&#x1e5a;" horiz-adv-x="753" 
d="M142 0v700h296q63 0 112 -27.5t77 -74.5t28 -106q0 -62 -28 -108t-77.5 -72t-111.5 -26h-246v-286h-50zM628 0l-198 301l44 25l214 -326h-60zM192 336h246q49 0 86 19.5t57 54.5t20 80t-22 81.5t-60.5 57.5t-88.5 21h-238v-314zM374 -166q-23 0 -34.5 12.5t-11.5 32.5
q0 18 11.5 31.5t34.5 13.5t34.5 -12.5t11.5 -32.5q0 -18 -11.5 -31.5t-34.5 -13.5z" />
    <glyph glyph-name="uni1E5B" unicode="&#x1e5b;" horiz-adv-x="496" 
d="M132 0v520h48l5 -126l-11 -6q14 40 41 72.5t64.5 52t85.5 19.5q25 0 48 -4.5t39 -11.5l-16 -56q-17 10 -37.5 13.5t-36.5 3.5q-46 0 -79.5 -15t-56 -41.5t-33.5 -59t-11 -66.5v-295h-50zM159 -166q-23 0 -34.5 12.5t-11.5 32.5q0 18 11.5 31.5t34.5 13.5t34.5 -12.5
t11.5 -32.5q0 -18 -11.5 -31.5t-34.5 -13.5z" />
    <glyph glyph-name="uni1E5E" unicode="&#x1e5e;" horiz-adv-x="753" 
d="M142 0v700h296q63 0 112 -27.5t77 -74.5t28 -106q0 -62 -28 -108t-77.5 -72t-111.5 -26h-246v-286h-50zM628 0l-198 301l44 25l214 -326h-60zM192 336h246q49 0 86 19.5t57 54.5t20 80t-22 81.5t-60.5 57.5t-88.5 21h-238v-314zM237 -145v48h274v-48h-274z" />
    <glyph glyph-name="uni1E5F" unicode="&#x1e5f;" horiz-adv-x="496" 
d="M132 0v520h48l5 -126l-11 -6q14 40 41 72.5t64.5 52t85.5 19.5q25 0 48 -4.5t39 -11.5l-16 -56q-17 10 -37.5 13.5t-36.5 3.5q-46 0 -79.5 -15t-56 -41.5t-33.5 -59t-11 -66.5v-295h-50zM22 -145v48h274v-48h-274z" />
    <glyph glyph-name="uni1E60" unicode="&#x1e60;" horiz-adv-x="717" 
d="M364 -10q-56 0 -107 15t-94.5 44.5t-77.5 72.5l34 39q50 -64 113 -92.5t133 -28.5q63 0 112.5 18.5t77.5 52.5t28 78q0 31 -13.5 52t-36 35t-51.5 24t-60 17l-62 14q-51 12 -95 25t-77.5 33t-51.5 49.5t-18 77.5q0 43 18.5 77.5t52.5 59.5t78.5 38.5t96.5 13.5
q60 0 105.5 -15.5t81 -43t63.5 -66.5l-35 -38q-26 36 -58 61.5t-71 38.5t-86 13q-55 0 -98.5 -17.5t-69.5 -48.5t-26 -72q0 -33 15.5 -55t44 -37t69.5 -25.5t90 -20.5q48 -9 92 -22t79 -33t55 -52.5t20 -82.5q0 -57 -34 -102.5t-95 -71t-142 -25.5zM371 779q-22 0 -34 12
t-12 33q0 20 12 32.5t34 12.5t34 -12t12 -33q0 -20 -12 -32.5t-34 -12.5z" />
    <glyph glyph-name="uni1E61" unicode="&#x1e61;" horiz-adv-x="606" 
d="M310 -10q-79 0 -141 27t-97 68l38 35q32 -40 84 -60.5t114 -20.5q35 0 65.5 6t53 17t35.5 29.5t13 42.5q0 40 -45 66q-22 11 -54.5 21.5t-76.5 19.5q-60 15 -103 27.5t-68 32.5q-19 16 -28.5 37t-9.5 47q0 32 15 59t43.5 47t65.5 30.5t83 10.5q41 0 83.5 -10.5t80 -29.5
t64.5 -45l-33 -38q-24 22 -53.5 39.5t-65 27.5t-74.5 10q-31 0 -59.5 -6.5t-49.5 -20t-34 -31.5t-13 -40q-1 -19 7 -31.5t23 -22.5q21 -14 55 -23.5t84 -20.5q47 -10 84 -20t63 -24q34 -19 51.5 -45t17.5 -61q0 -45 -27.5 -78.5t-76.5 -52.5t-114 -19zM304 630q-22 0 -34 12
t-12 33q0 20 12 32.5t34 12.5t34 -12t12 -33q0 -20 -12 -32.5t-34 -12.5z" />
    <glyph glyph-name="uni1E62" unicode="&#x1e62;" horiz-adv-x="717" 
d="M364 -10q-56 0 -107 15t-94.5 44.5t-77.5 72.5l34 39q50 -64 113 -92.5t133 -28.5q63 0 112.5 18.5t77.5 52.5t28 78q0 31 -13.5 52t-36 35t-51.5 24t-60 17l-62 14q-51 12 -95 25t-77.5 33t-51.5 49.5t-18 77.5q0 43 18.5 77.5t52.5 59.5t78.5 38.5t96.5 13.5
q60 0 105.5 -15.5t81 -43t63.5 -66.5l-35 -38q-26 36 -58 61.5t-71 38.5t-86 13q-55 0 -98.5 -17.5t-69.5 -48.5t-26 -72q0 -33 15.5 -55t44 -37t69.5 -25.5t90 -20.5q48 -9 92 -22t79 -33t55 -52.5t20 -82.5q0 -57 -34 -102.5t-95 -71t-142 -25.5zM388 -166
q-23 0 -34.5 12.5t-11.5 32.5q0 18 11.5 31.5t34.5 13.5t34.5 -12.5t11.5 -32.5q0 -18 -11.5 -31.5t-34.5 -13.5z" />
    <glyph glyph-name="uni1E63" unicode="&#x1e63;" horiz-adv-x="606" 
d="M310 -10q-79 0 -141 27t-97 68l38 35q32 -40 84 -60.5t114 -20.5q35 0 65.5 6t53 17t35.5 29.5t13 42.5q0 40 -45 66q-22 11 -54.5 21.5t-76.5 19.5q-60 15 -103 27.5t-68 32.5q-19 16 -28.5 37t-9.5 47q0 32 15 59t43.5 47t65.5 30.5t83 10.5q41 0 83.5 -10.5t80 -29.5
t64.5 -45l-33 -38q-24 22 -53.5 39.5t-65 27.5t-74.5 10q-31 0 -59.5 -6.5t-49.5 -20t-34 -31.5t-13 -40q-1 -19 7 -31.5t23 -22.5q21 -14 55 -23.5t84 -20.5q47 -10 84 -20t63 -24q34 -19 51.5 -45t17.5 -61q0 -45 -27.5 -78.5t-76.5 -52.5t-114 -19zM311 -166
q-23 0 -34.5 12.5t-11.5 32.5q0 18 11.5 31.5t34.5 13.5t34.5 -12.5t11.5 -32.5q0 -18 -11.5 -31.5t-34.5 -13.5z" />
    <glyph glyph-name="uni1E64" unicode="&#x1e64;" horiz-adv-x="717" 
d="M364 -10q-56 0 -107 15t-94.5 44.5t-77.5 72.5l34 39q50 -64 113 -92.5t133 -28.5q63 0 112.5 18.5t77.5 52.5t28 78q0 31 -13.5 52t-36 35t-51.5 24t-60 17l-62 14q-51 12 -95 25t-77.5 33t-51.5 49.5t-18 77.5q0 43 18.5 77.5t52.5 59.5t78.5 38.5t96.5 13.5
q60 0 105.5 -15.5t81 -43t63.5 -66.5l-35 -38q-26 36 -58 61.5t-71 38.5t-86 13q-55 0 -98.5 -17.5t-69.5 -48.5t-26 -72q0 -33 15.5 -55t44 -37t69.5 -25.5t90 -20.5q48 -9 92 -22t79 -33t55 -52.5t20 -82.5q0 -57 -34 -102.5t-95 -71t-142 -25.5zM408 757l-31 20l78 126
l45 -31zM297 760q-22 0 -34 12t-12 33q0 20 12 32.5t34 12.5t34 -12t12 -33q0 -20 -12 -32.5t-34 -12.5z" />
    <glyph glyph-name="uni1E65" unicode="&#x1e65;" horiz-adv-x="606" 
d="M310 -10q-79 0 -141 27t-97 68l38 35q32 -40 84 -60.5t114 -20.5q35 0 65.5 6t53 17t35.5 29.5t13 42.5q0 40 -45 66q-22 11 -54.5 21.5t-76.5 19.5q-60 15 -103 27.5t-68 32.5q-19 16 -28.5 37t-9.5 47q0 32 15 59t43.5 47t65.5 30.5t83 10.5q41 0 83.5 -10.5t80 -29.5
t64.5 -45l-33 -38q-24 22 -53.5 39.5t-65 27.5t-74.5 10q-31 0 -59.5 -6.5t-49.5 -20t-34 -31.5t-13 -40q-1 -19 7 -31.5t23 -22.5q21 -14 55 -23.5t84 -20.5q47 -10 84 -20t63 -24q34 -19 51.5 -45t17.5 -61q0 -45 -27.5 -78.5t-76.5 -52.5t-114 -19zM341 617l-31 20
l78 126l45 -31zM230 620q-22 0 -34 12t-12 33q0 20 12 32.5t34 12.5t34 -12t12 -33q0 -20 -12 -32.5t-34 -12.5z" />
    <glyph glyph-name="uni1E66" unicode="&#x1e66;" horiz-adv-x="717" 
d="M364 -10q-56 0 -107 15t-94.5 44.5t-77.5 72.5l34 39q50 -64 113 -92.5t133 -28.5q63 0 112.5 18.5t77.5 52.5t28 78q0 31 -13.5 52t-36 35t-51.5 24t-60 17l-62 14q-51 12 -95 25t-77.5 33t-51.5 49.5t-18 77.5q0 43 18.5 77.5t52.5 59.5t78.5 38.5t96.5 13.5
q60 0 105.5 -15.5t81 -43t63.5 -66.5l-35 -38q-26 36 -58 61.5t-71 38.5t-86 13q-55 0 -98.5 -17.5t-69.5 -48.5t-26 -72q0 -33 15.5 -55t44 -37t69.5 -25.5t90 -20.5q48 -9 92 -22t79 -33t55 -52.5t20 -82.5q0 -57 -34 -102.5t-95 -71t-142 -25.5zM340 766l-109 91l28 25
l127 -87h-30l127 87l28 -25l-109 -91h-62zM371 914q-22 0 -34 12t-12 33q0 20 12 32.5t34 12.5t34 -12t12 -33q0 -20 -12 -32.5t-34 -12.5z" />
    <glyph glyph-name="uni1E67" unicode="&#x1e67;" horiz-adv-x="606" 
d="M310 -10q-79 0 -141 27t-97 68l38 35q32 -40 84 -60.5t114 -20.5q35 0 65.5 6t53 17t35.5 29.5t13 42.5q0 40 -45 66q-22 11 -54.5 21.5t-76.5 19.5q-60 15 -103 27.5t-68 32.5q-19 16 -28.5 37t-9.5 47q0 32 15 59t43.5 47t65.5 30.5t83 10.5q41 0 83.5 -10.5t80 -29.5
t64.5 -45l-33 -38q-24 22 -53.5 39.5t-65 27.5t-74.5 10q-31 0 -59.5 -6.5t-49.5 -20t-34 -31.5t-13 -40q-1 -19 7 -31.5t23 -22.5q21 -14 55 -23.5t84 -20.5q47 -10 84 -20t63 -24q34 -19 51.5 -45t17.5 -61q0 -45 -27.5 -78.5t-76.5 -52.5t-114 -19zM273 600l-109 101
l28 25l127 -97h-30l127 97l28 -25l-109 -101h-62zM304 734q-22 0 -34 12t-12 33q0 20 12 32.5t34 12.5t34 -12t12 -33q0 -20 -12 -32.5t-34 -12.5z" />
    <glyph glyph-name="uni1E68" unicode="&#x1e68;" horiz-adv-x="717" 
d="M364 -10q-56 0 -107 15t-94.5 44.5t-77.5 72.5l34 39q50 -64 113 -92.5t133 -28.5q63 0 112.5 18.5t77.5 52.5t28 78q0 31 -13.5 52t-36 35t-51.5 24t-60 17l-62 14q-51 12 -95 25t-77.5 33t-51.5 49.5t-18 77.5q0 43 18.5 77.5t52.5 59.5t78.5 38.5t96.5 13.5
q60 0 105.5 -15.5t81 -43t63.5 -66.5l-35 -38q-26 36 -58 61.5t-71 38.5t-86 13q-55 0 -98.5 -17.5t-69.5 -48.5t-26 -72q0 -33 15.5 -55t44 -37t69.5 -25.5t90 -20.5q48 -9 92 -22t79 -33t55 -52.5t20 -82.5q0 -57 -34 -102.5t-95 -71t-142 -25.5zM388 -166
q-23 0 -34.5 12.5t-11.5 32.5q0 18 11.5 31.5t34.5 13.5t34.5 -12.5t11.5 -32.5q0 -18 -11.5 -31.5t-34.5 -13.5zM371 779q-22 0 -34 12t-12 33q0 20 12 32.5t34 12.5t34 -12t12 -33q0 -20 -12 -32.5t-34 -12.5z" />
    <glyph glyph-name="uni1E69" unicode="&#x1e69;" horiz-adv-x="606" 
d="M310 -10q-79 0 -141 27t-97 68l38 35q32 -40 84 -60.5t114 -20.5q35 0 65.5 6t53 17t35.5 29.5t13 42.5q0 40 -45 66q-22 11 -54.5 21.5t-76.5 19.5q-60 15 -103 27.5t-68 32.5q-19 16 -28.5 37t-9.5 47q0 32 15 59t43.5 47t65.5 30.5t83 10.5q41 0 83.5 -10.5t80 -29.5
t64.5 -45l-33 -38q-24 22 -53.5 39.5t-65 27.5t-74.5 10q-31 0 -59.5 -6.5t-49.5 -20t-34 -31.5t-13 -40q-1 -19 7 -31.5t23 -22.5q21 -14 55 -23.5t84 -20.5q47 -10 84 -20t63 -24q34 -19 51.5 -45t17.5 -61q0 -45 -27.5 -78.5t-76.5 -52.5t-114 -19zM311 -166
q-23 0 -34.5 12.5t-11.5 32.5q0 18 11.5 31.5t34.5 13.5t34.5 -12.5t11.5 -32.5q0 -18 -11.5 -31.5t-34.5 -13.5zM304 630q-22 0 -34 12t-12 33q0 20 12 32.5t34 12.5t34 -12t12 -33q0 -20 -12 -32.5t-34 -12.5z" />
    <glyph glyph-name="uni1E6C" unicode="&#x1e6c;" horiz-adv-x="625" 
d="M284 0v650h-233v50h523v-50h-240v-650h-50zM308 -166q-23 0 -34.5 12.5t-11.5 32.5q0 18 11.5 31.5t34.5 13.5t34.5 -12.5t11.5 -32.5q0 -18 -11.5 -31.5t-34.5 -13.5z" />
    <glyph glyph-name="uni1E6D" unicode="&#x1e6d;" horiz-adv-x="505" 
d="M218 0v671h50v-671h-50zM66 474v46h371v-46h-371zM247 -166q-23 0 -34.5 12.5t-11.5 32.5q0 18 11.5 31.5t34.5 13.5t34.5 -12.5t11.5 -32.5q0 -18 -11.5 -31.5t-34.5 -13.5z" />
    <glyph glyph-name="uni1E6E" unicode="&#x1e6e;" horiz-adv-x="625" 
d="M284 0v650h-233v50h523v-50h-240v-650h-50zM171 -145v48h274v-48h-274z" />
    <glyph glyph-name="uni1E6F" unicode="&#x1e6f;" horiz-adv-x="505" 
d="M218 0v671h50v-671h-50zM66 474v46h371v-46h-371zM110 -145v48h274v-48h-274z" />
    <glyph glyph-name="uni1E78" unicode="&#x1e78;" horiz-adv-x="875" 
d="M435 -7q-87 0 -153.5 39t-103.5 107t-37 156v405h50v-399q0 -75 31.5 -133.5t86.5 -91.5t126 -33q74 0 130 33t88 91.5t32 133.5v399h49v-406q0 -87 -38 -155t-105 -107t-156 -39zM508 779q-22 0 -43 8.5t-44 18.5q-12 5 -24.5 11t-23.5 6q-15 0 -26 -11t-11 -32h-46
q0 41 23 65t56 24q22 0 42.5 -8t44.5 -19q11 -5 24 -11t24 -6q15 0 26 10.5t11 32.5h46q0 -27 -10.5 -47t-28.5 -31t-40 -11zM376 894l-18 33l152 98l34 -52z" />
    <glyph glyph-name="uni1E79" unicode="&#x1e79;" horiz-adv-x="708" 
d="M334 -10q-71 0 -117.5 26t-70 76t-23.5 124v304h50v-299q0 -60 18 -100.5t54 -60.5t88 -20q43 0 80.5 15t64.5 40t43 57t16 68v300h50v-520h-48l-5 121h7q-10 -33 -41.5 -63t-75 -49t-90.5 -19zM421 612q-21 0 -39 9.5t-42 33.5q-10 10 -19 15t-21 5q-21 0 -34.5 -14.5
t-17.5 -42.5l-41 4q5 42 31.5 69t66.5 27q19 0 35 -8t40 -31q10 -10 19.5 -17t23.5 -7q16 0 27 14t13 33l43 -4q-3 -24 -14 -43.5t-29 -31t-42 -11.5zM370 731l-31 20l78 126l45 -31z" />
    <glyph glyph-name="uni1E7A" unicode="&#x1e7a;" horiz-adv-x="875" 
d="M435 -7q-87 0 -153.5 39t-103.5 107t-37 156v405h50v-399q0 -75 31.5 -133.5t86.5 -91.5t126 -33q74 0 130 33t88 91.5t32 133.5v399h49v-406q0 -87 -38 -155t-105 -107t-156 -39zM296 801v46h284v-46h-284zM538 914q-22 0 -34 12t-12 33q0 20 12 32.5t34 12.5t34 -12
t12 -33q0 -20 -12 -32.5t-34 -12.5zM338 914q-22 0 -34 12t-12 33q0 20 12 32.5t34 12.5t34 -12t12 -33q0 -20 -12 -32.5t-34 -12.5z" />
    <glyph glyph-name="uni1E7B" unicode="&#x1e7b;" horiz-adv-x="708" 
d="M334 -10q-71 0 -117.5 26t-70 76t-23.5 124v304h50v-299q0 -60 18 -100.5t54 -60.5t88 -20q43 0 80.5 15t64.5 40t43 57t16 68v300h50v-520h-48l-5 121h7q-10 -33 -41.5 -63t-75 -49t-90.5 -19zM217 644v43h276v-43h-276zM450 766q-22 0 -34 12t-12 33q0 20 12 32.5
t34 12.5t34 -12t12 -33q0 -20 -12 -32.5t-34 -12.5zM259 765q-22 0 -34 12t-12 33q0 20 12 32.5t34 12.5t34 -12t12 -33q0 -20 -12 -32.5t-34 -12.5z" />
    <glyph glyph-name="Wgrave" unicode="&#x1e80;" horiz-adv-x="1030" 
d="M268 0l-215 700h56l142 -473q10 -33 17 -56t12.5 -42t10.5 -41t12 -53h-6q11 39 21 65.5t22.5 56.5t29.5 75l113 275h51l132 -313q14 -34 26.5 -62.5t21 -51.5t10.5 -45h-8q6 22 11 41t9.5 38t10 38t12 39t13.5 43l152 466h54l-230 -700h-54l-198 470l26 -1l-195 -469
h-59zM578 759l-168 79l34 52l152 -98z" />
    <glyph glyph-name="wgrave" unicode="&#x1e81;" horiz-adv-x="837" 
d="M223 0l-190 520h59l156 -454l-24 2l175 381h35l177 -381l-28 -2l166 454h55l-194 -520h-19l-193 423l41 2l-194 -425h-22zM464 593l-154 101l33 45l142 -115z" />
    <glyph glyph-name="Wacute" unicode="&#x1e82;" horiz-adv-x="1030" 
d="M268 0l-215 700h56l142 -473q10 -33 17 -56t12.5 -42t10.5 -41t12 -53h-6q11 39 21 65.5t22.5 56.5t29.5 75l113 275h51l132 -313q14 -34 26.5 -62.5t21 -51.5t10.5 -45h-8q6 22 11 41t9.5 38t10 38t12 39t13.5 43l152 466h54l-230 -700h-54l-198 470l26 -1l-195 -469
h-59zM454 759l-18 33l152 98l34 -52z" />
    <glyph glyph-name="wacute" unicode="&#x1e83;" horiz-adv-x="837" 
d="M223 0l-190 520h59l156 -454l-24 2l175 381h35l177 -381l-28 -2l166 454h55l-194 -520h-19l-193 423l41 2l-194 -425h-22zM363 593l-21 31l142 115l33 -45z" />
    <glyph glyph-name="Wdieresis" unicode="&#x1e84;" horiz-adv-x="1030" 
d="M268 0l-215 700h56l142 -473q10 -33 17 -56t12.5 -42t10.5 -41t12 -53h-6q11 39 21 65.5t22.5 56.5t29.5 75l113 275h51l132 -313q14 -34 26.5 -62.5t21 -51.5t10.5 -45h-8q6 22 11 41t9.5 38t10 38t12 39t13.5 43l152 466h54l-230 -700h-54l-198 470l26 -1l-195 -469
h-59zM615 779q-22 0 -34 12t-12 33q0 20 12 32.5t34 12.5t34 -12t12 -33q0 -20 -12 -32.5t-34 -12.5zM415 779q-22 0 -34 12t-12 33q0 20 12 32.5t34 12.5t34 -12t12 -33q0 -20 -12 -32.5t-34 -12.5z" />
    <glyph glyph-name="wdieresis" unicode="&#x1e85;" horiz-adv-x="837" 
d="M223 0l-190 520h59l156 -454l-24 2l175 381h35l177 -381l-28 -2l166 454h55l-194 -520h-19l-193 423l41 2l-194 -425h-22zM514 621q-22 0 -34 12t-12 33q0 20 12 32.5t34 12.5t34 -12t12 -33q0 -20 -12 -32.5t-34 -12.5zM323 620q-22 0 -34 12t-12 33q0 20 12 32.5
t34 12.5t34 -12t12 -33q0 -20 -12 -32.5t-34 -12.5z" />
    <glyph glyph-name="uni1E8E" unicode="&#x1e8e;" horiz-adv-x="751" 
d="M361 0v328l9 -49l-317 421h65l276 -370h-15l259 370h60l-302 -426l14 62v-336h-49zM376 779q-22 0 -34 12t-12 33q0 20 12 32.5t34 12.5t34 -12t12 -33q0 -20 -12 -32.5t-34 -12.5z" />
    <glyph glyph-name="uni1E8F" unicode="&#x1e8f;" horiz-adv-x="665" 
d="M219 -230l111 247l11 -59l-291 562h53l208 -398q17 -31 29 -59t22 -54l-29 15q10 20 18 38.5t16 36.5l195 421h53l-237 -516l-108 -234h-51zM332 630q-22 0 -34 12t-12 33q0 20 12 32.5t34 12.5t34 -12t12 -33q0 -20 -12 -32.5t-34 -12.5z" />
    <glyph glyph-name="uni1E92" unicode="&#x1e92;" horiz-adv-x="727" 
d="M76 0v42l518 632l14 -24h-506v50h543v-41l-516 -633l-16 24h543v-50h-580zM363 -166q-23 0 -34.5 12.5t-11.5 32.5q0 18 11.5 31.5t34.5 13.5t34.5 -12.5t11.5 -32.5q0 -18 -11.5 -31.5t-34.5 -13.5z" />
    <glyph glyph-name="uni1E93" unicode="&#x1e93;" horiz-adv-x="543" 
d="M58 0v46l358 444l21 -18h-379v48h409v-46l-362 -449l-15 23h393v-48h-425zM271 -166q-23 0 -34.5 12.5t-11.5 32.5q0 18 11.5 31.5t34.5 13.5t34.5 -12.5t11.5 -32.5q0 -18 -11.5 -31.5t-34.5 -13.5z" />
    <glyph glyph-name="uni1E97" unicode="&#x1e97;" horiz-adv-x="505" 
d="M218 0v671h50v-671h-50zM66 474v46h371v-46h-371zM335 713q-22 0 -34 12t-12 33q0 20 12 32.5t34 12.5t34 -12t12 -33q0 -20 -12 -32.5t-34 -12.5zM144 712q-22 0 -34 12t-12 33q0 20 12 32.5t34 12.5t34 -12t12 -33q0 -20 -12 -32.5t-34 -12.5z" />
    <glyph glyph-name="uni1E9E" unicode="&#x1e9e;" horiz-adv-x="879" 
d="M571 -10q-45 0 -87 10.5t-78 30t-63 46.5l33 43q40 -40 90.5 -60t104.5 -20q78 0 125.5 37t47.5 104q0 41 -22.5 69t-64 50t-97.5 47q-36 14 -62.5 35.5t-40.5 49t-14 61.5q0 30 14.5 56.5t44 46.5t68.5 33t87 16l3 -22q-42 19 -81.5 26t-90.5 7q-69 0 -124 -20.5
t-93 -59.5t-58.5 -97.5t-19.5 -136.5v-342h-51v343q0 121 39.5 201.5t118 120.5t194.5 40q55 0 105 -11t115 -34l5 -44q-75 -11 -124.5 -27t-74.5 -39t-25 -59q0 -22 11.5 -40.5t35.5 -34t63 -31.5q54 -23 97.5 -50t69 -65t25.5 -93q0 -56 -29 -97.5t-80 -65.5t-117 -24z
" />
    <glyph glyph-name="uni1EA0" unicode="&#x1ea0;" horiz-adv-x="764" 
d="M53 0l296 700h69l293 -700h-57l-213 508q-13 35 -21.5 56.5t-15.5 38.5t-14 36.5t-17 48.5h16q-10 -34 -18 -55t-15.5 -38t-16 -38t-21.5 -55l-213 -502h-52zM172 207l21 50h381l16 -50h-418zM382 -166q-23 0 -34.5 12.5t-11.5 32.5q0 18 11.5 31.5t34.5 13.5t34.5 -12.5
t11.5 -32.5q0 -18 -11.5 -31.5t-34.5 -13.5z" />
    <glyph glyph-name="uni1EA1" unicode="&#x1ea1;" horiz-adv-x="747" 
d="M343 -10q-84 0 -146 34.5t-97 95.5t-35 140t36.5 140.5t99 96.5t141.5 35q48 0 90.5 -13.5t76 -37.5t55.5 -53.5t28 -62.5l-21 11l5 144h47v-520h-49v138l18 21q-8 -34 -30.5 -64.5t-55.5 -54t-75 -37t-88 -13.5zM349 40q65 0 117 28.5t82 78t30 114.5q0 63 -29.5 113
t-81.5 79.5t-118 29.5q-68 0 -120 -29.5t-81.5 -79.5t-29.5 -113q0 -64 28.5 -114t80.5 -78.5t122 -28.5zM365 -166q-23 0 -34.5 12.5t-11.5 32.5q0 18 11.5 31.5t34.5 13.5t34.5 -12.5t11.5 -32.5q0 -18 -11.5 -31.5t-34.5 -13.5z" />
    <glyph glyph-name="uni1EA2" unicode="&#x1ea2;" horiz-adv-x="764" 
d="M53 0l296 700h69l293 -700h-57l-213 508q-13 35 -21.5 56.5t-15.5 38.5t-14 36.5t-17 48.5h16q-10 -34 -18 -55t-15.5 -38t-16 -38t-21.5 -55l-213 -502h-52zM172 207l21 50h381l16 -50h-418zM372 768q-3 5 -5 12.5t-2 13.5q0 7 4.5 16.5t19.5 19.5q16 11 26 19t10 17
q0 13 -14.5 19t-34.5 6q-15 0 -33.5 -4t-38.5 -12l-13 37q22 10 47 15.5t46 5.5q44 0 66.5 -19.5t22.5 -43.5q0 -22 -12.5 -33.5t-26.5 -20.5q-10 -7 -18 -13t-8 -17v-3t1 -6z" />
    <glyph glyph-name="uni1EA3" unicode="&#x1ea3;" horiz-adv-x="747" 
d="M343 -10q-84 0 -146 34.5t-97 95.5t-35 140t36.5 140.5t99 96.5t141.5 35q48 0 90.5 -13.5t76 -37.5t55.5 -53.5t28 -62.5l-21 11l5 144h47v-520h-49v138l18 21q-8 -34 -30.5 -64.5t-55.5 -54t-75 -37t-88 -13.5zM349 40q65 0 117 28.5t82 78t30 114.5q0 63 -29.5 113
t-81.5 79.5t-118 29.5q-68 0 -120 -29.5t-81.5 -79.5t-29.5 -113q0 -64 28.5 -114t80.5 -78.5t122 -28.5zM358 600q-3 5 -5 12.5t-2 13.5q0 7 4.5 16.5t19.5 19.5q16 11 26 19t10 17q0 13 -14.5 19t-34.5 6q-15 0 -33.5 -4t-38.5 -12l-13 37q22 10 47 15.5t46 5.5
q44 0 66.5 -19.5t22.5 -43.5q0 -22 -12.5 -33.5t-26.5 -20.5q-10 -7 -18 -13t-8 -17v-3t1 -6z" />
    <glyph glyph-name="uni1EA4" unicode="&#x1ea4;" horiz-adv-x="764" 
d="M53 0l296 700h69l293 -700h-57l-213 508q-13 35 -21.5 56.5t-15.5 38.5t-14 36.5t-17 48.5h16q-10 -34 -18 -55t-15.5 -38t-16 -38t-21.5 -55l-213 -502h-52zM172 207l21 50h381l16 -50h-418zM260 765l-28 25l119 91h62l119 -91l-28 -25l-137 85h30zM520 871l-31 20
l77 127l56 -36z" />
    <glyph glyph-name="uni1EA5" unicode="&#x1ea5;" horiz-adv-x="747" 
d="M343 -10q-84 0 -146 34.5t-97 95.5t-35 140t36.5 140.5t99 96.5t141.5 35q48 0 90.5 -13.5t76 -37.5t55.5 -53.5t28 -62.5l-21 11l5 144h47v-520h-49v138l18 21q-8 -34 -30.5 -64.5t-55.5 -54t-75 -37t-88 -13.5zM349 40q65 0 117 28.5t82 78t30 114.5q0 63 -29.5 113
t-81.5 79.5t-118 29.5q-68 0 -120 -29.5t-81.5 -79.5t-29.5 -113q0 -64 28.5 -114t80.5 -78.5t122 -28.5zM257 603l-28 25l109 101h62l109 -101l-28 -25l-127 97h30zM517 721l-31 20l68 130l55 -35z" />
    <glyph glyph-name="uni1EA6" unicode="&#x1ea6;" horiz-adv-x="764" 
d="M53 0l296 700h69l293 -700h-57l-213 508q-13 35 -21.5 56.5t-15.5 38.5t-14 36.5t-17 48.5h16q-10 -34 -18 -55t-15.5 -38t-16 -38t-21.5 -55l-213 -502h-52zM172 207l21 50h381l16 -50h-418zM260 765l-28 25l119 101h62l119 -101l-28 -25l-137 95h30zM541 871l-102 111
l56 36l77 -127z" />
    <glyph glyph-name="uni1EA7" unicode="&#x1ea7;" horiz-adv-x="747" 
d="M343 -10q-84 0 -146 34.5t-97 95.5t-35 140t36.5 140.5t99 96.5t141.5 35q48 0 90.5 -13.5t76 -37.5t55.5 -53.5t28 -62.5l-21 11l5 144h47v-520h-49v138l18 21q-8 -34 -30.5 -64.5t-55.5 -54t-75 -37t-88 -13.5zM349 40q65 0 117 28.5t82 78t30 114.5q0 63 -29.5 113
t-81.5 79.5t-118 29.5q-68 0 -120 -29.5t-81.5 -79.5t-29.5 -113q0 -64 28.5 -114t80.5 -78.5t122 -28.5zM256 603l-28 25l109 101h62l109 -101l-28 -25l-127 97h30zM497 721l-92 115l56 36l67 -131z" />
    <glyph glyph-name="uni1EA8" unicode="&#x1ea8;" horiz-adv-x="764" 
d="M53 0l296 700h69l293 -700h-57l-213 508q-13 35 -21.5 56.5t-15.5 38.5t-14 36.5t-17 48.5h16q-10 -34 -18 -55t-15.5 -38t-16 -38t-21.5 -55l-213 -502h-52zM172 207l21 50h381l16 -50h-418zM260 765l-28 25l119 91h62l119 -91l-28 -25l-137 85h30zM521 884
q-3 5 -5 10.5t-2 10.5q0 8 7.5 14.5t25.5 18.5q14 9 20.5 16.5t6.5 14.5q0 11 -13 17t-30 6t-34 -4t-34 -12l-13 37q20 10 42.5 15.5t43.5 5.5q44 0 65 -17.5t21 -40.5q0 -17 -10 -29.5t-27 -23.5q-10 -7 -19 -13.5t-9 -11.5v-2t1 -3z" />
    <glyph glyph-name="uni1EA9" unicode="&#x1ea9;" horiz-adv-x="747" 
d="M343 -10q-84 0 -146 34.5t-97 95.5t-35 140t36.5 140.5t99 96.5t141.5 35q48 0 90.5 -13.5t76 -37.5t55.5 -53.5t28 -62.5l-21 11l5 144h47v-520h-49v138l18 21q-8 -34 -30.5 -64.5t-55.5 -54t-75 -37t-88 -13.5zM349 40q65 0 117 28.5t82 78t30 114.5q0 63 -29.5 113
t-81.5 79.5t-118 29.5q-68 0 -120 -29.5t-81.5 -79.5t-29.5 -113q0 -64 28.5 -114t80.5 -78.5t122 -28.5zM255 603l-28 25l109 101h62l109 -101l-28 -25l-127 97h30zM467 720q-3 5 -5 12.5t-2 13.5q0 7 4.5 16.5t19.5 19.5q16 11 26 19t10 17q0 13 -14.5 19t-34.5 6
q-15 0 -33.5 -4t-38.5 -12l-13 37q22 10 47 15.5t46 5.5q44 0 66.5 -19.5t22.5 -43.5q0 -22 -12.5 -33.5t-26.5 -20.5q-10 -7 -18 -13t-8 -17v-3t1 -6z" />
    <glyph glyph-name="uni1EAA" unicode="&#x1eaa;" horiz-adv-x="764" 
d="M53 0l296 700h69l293 -700h-57l-213 508q-13 35 -21.5 56.5t-15.5 38.5t-14 36.5t-17 48.5h16q-10 -34 -18 -55t-15.5 -38t-16 -38t-21.5 -55l-213 -502h-52zM172 207l21 50h381l16 -50h-418zM260 765l-28 25l119 91h62l119 -91l-28 -25l-137 85h30zM452 950q-22 0 -40 8
t-35 15q-16 8 -32 14.5t-31 6.5q-11 0 -21 -8.5t-10 -29.5h-46q0 36 22.5 59t53.5 23q21 0 37 -7t33 -15q16 -7 33 -14.5t32 -7.5q14 0 24 9.5t10 28.5h46q0 -27 -10.5 -45.5t-27.5 -27.5t-38 -9z" />
    <glyph glyph-name="uni1EAB" unicode="&#x1eab;" horiz-adv-x="747" 
d="M343 -10q-84 0 -146 34.5t-97 95.5t-35 140t36.5 140.5t99 96.5t141.5 35q48 0 90.5 -13.5t76 -37.5t55.5 -53.5t28 -62.5l-21 11l5 144h47v-520h-49v138l18 21q-8 -34 -30.5 -64.5t-55.5 -54t-75 -37t-88 -13.5zM349 40q65 0 117 28.5t82 78t30 114.5q0 63 -29.5 113
t-81.5 79.5t-118 29.5q-68 0 -120 -29.5t-81.5 -79.5t-29.5 -113q0 -64 28.5 -114t80.5 -78.5t122 -28.5zM255 603l-28 25l109 101h62l109 -101l-28 -25l-127 97h30zM435 797q-20 0 -37.5 8.5t-34.5 17.5q-13 7 -25.5 13.5t-29.5 6.5q-16 0 -29 -9.5t-17 -27.5l-41 4
q5 33 30 54.5t57 21.5q21 0 36 -7.5t29 -15.5q15 -8 29 -15.5t30 -7.5t27 11t13 26l43 -4q-3 -21 -14 -38t-27.5 -27.5t-38.5 -10.5z" />
    <glyph glyph-name="uni1EAC" unicode="&#x1eac;" horiz-adv-x="764" 
d="M53 0l296 700h69l293 -700h-57l-213 508q-13 35 -21.5 56.5t-15.5 38.5t-14 36.5t-17 48.5h16q-10 -34 -18 -55t-15.5 -38t-16 -38t-21.5 -55l-213 -502h-52zM172 207l21 50h381l16 -50h-418zM382 -166q-23 0 -34.5 12.5t-11.5 32.5q0 18 11.5 31.5t34.5 13.5t34.5 -12.5
t11.5 -32.5q0 -18 -11.5 -31.5t-34.5 -13.5zM260 765l-28 25l119 91h62l119 -91l-28 -25l-137 85h30z" />
    <glyph glyph-name="uni1EAD" unicode="&#x1ead;" horiz-adv-x="747" 
d="M343 -10q-84 0 -146 34.5t-97 95.5t-35 140t36.5 140.5t99 96.5t141.5 35q48 0 90.5 -13.5t76 -37.5t55.5 -53.5t28 -62.5l-21 11l5 144h47v-520h-49v138l18 21q-8 -34 -30.5 -64.5t-55.5 -54t-75 -37t-88 -13.5zM349 40q65 0 117 28.5t82 78t30 114.5q0 63 -29.5 113
t-81.5 79.5t-118 29.5q-68 0 -120 -29.5t-81.5 -79.5t-29.5 -113q0 -64 28.5 -114t80.5 -78.5t122 -28.5zM365 -166q-23 0 -34.5 12.5t-11.5 32.5q0 18 11.5 31.5t34.5 13.5t34.5 -12.5t11.5 -32.5q0 -18 -11.5 -31.5t-34.5 -13.5zM256 603l-28 25l109 101h62l109 -101
l-28 -25l-127 97h30z" />
    <glyph glyph-name="uni1EAE" unicode="&#x1eae;" horiz-adv-x="764" 
d="M53 0l296 700h69l293 -700h-57l-213 508q-13 35 -21.5 56.5t-15.5 38.5t-14 36.5t-17 48.5h16q-10 -34 -18 -55t-15.5 -38t-16 -38t-21.5 -55l-213 -502h-52zM172 207l21 50h381l16 -50h-418zM382 761q-54 0 -92 30t-50 82l43 5q13 -42 39 -59t60 -17t60 17t39 59l43 -5
q-12 -52 -50 -82t-92 -30zM387 891l-31 20l77 127l54 -37z" />
    <glyph glyph-name="uni1EAF" unicode="&#x1eaf;" horiz-adv-x="747" 
d="M343 -10q-84 0 -146 34.5t-97 95.5t-35 140t36.5 140.5t99 96.5t141.5 35q48 0 90.5 -13.5t76 -37.5t55.5 -53.5t28 -62.5l-21 11l5 144h47v-520h-49v138l18 21q-8 -34 -30.5 -64.5t-55.5 -54t-75 -37t-88 -13.5zM349 40q65 0 117 28.5t82 78t30 114.5q0 63 -29.5 113
t-81.5 79.5t-118 29.5q-68 0 -120 -29.5t-81.5 -79.5t-29.5 -113q0 -64 28.5 -114t80.5 -78.5t122 -28.5zM368 596q-54 0 -92 30t-50 82l43 5q10 -35 37.5 -55.5t61.5 -20.5t61.5 20.5t37.5 55.5l43 -5q-12 -52 -50 -82t-92 -30zM369 741l-31 20l68 130l55 -35z" />
    <glyph glyph-name="uni1EB0" unicode="&#x1eb0;" horiz-adv-x="764" 
d="M53 0l296 700h69l293 -700h-57l-213 508q-13 35 -21.5 56.5t-15.5 38.5t-14 36.5t-17 48.5h16q-10 -34 -18 -55t-15.5 -38t-16 -38t-21.5 -55l-213 -502h-52zM172 207l21 50h381l16 -50h-418zM382 761q-54 0 -92 30t-50 82l43 5q13 -42 39 -59t60 -17t60 17t39 59l43 -5
q-12 -52 -50 -82t-92 -30zM380 891l-101 110l55 37l77 -127z" />
    <glyph glyph-name="uni1EB1" unicode="&#x1eb1;" horiz-adv-x="747" 
d="M343 -10q-84 0 -146 34.5t-97 95.5t-35 140t36.5 140.5t99 96.5t141.5 35q48 0 90.5 -13.5t76 -37.5t55.5 -53.5t28 -62.5l-21 11l5 144h47v-520h-49v138l18 21q-8 -34 -30.5 -64.5t-55.5 -54t-75 -37t-88 -13.5zM349 40q65 0 117 28.5t82 78t30 114.5q0 63 -29.5 113
t-81.5 79.5t-118 29.5q-68 0 -120 -29.5t-81.5 -79.5t-29.5 -113q0 -64 28.5 -114t80.5 -78.5t122 -28.5zM368 596q-54 0 -92 30t-50 82l43 5q10 -35 37.5 -55.5t61.5 -20.5t61.5 20.5t37.5 55.5l43 -5q-12 -52 -50 -82t-92 -30zM374 741l-92 115l56 36l67 -131z" />
    <glyph glyph-name="uni1EB2" unicode="&#x1eb2;" horiz-adv-x="764" 
d="M53 0l296 700h69l293 -700h-57l-213 508q-13 35 -21.5 56.5t-15.5 38.5t-14 36.5t-17 48.5h16q-10 -34 -18 -55t-15.5 -38t-16 -38t-21.5 -55l-213 -502h-52zM172 207l21 50h381l16 -50h-418zM382 761q-54 0 -92 30t-50 82l43 5q13 -42 39 -59t60 -17t60 17t39 59l43 -5
q-12 -52 -50 -82t-92 -30zM364 890q-3 5 -5 10.5t-2 10.5q0 8 7.5 15.5t25.5 19.5q14 9 20.5 16.5t6.5 14.5q0 11 -13 16t-30 5t-34 -4t-34 -12l-13 37q20 10 42.5 15.5t43.5 5.5q44 0 65 -17.5t21 -40.5q0 -17 -10 -29.5t-27 -23.5q-10 -7 -19 -13.5t-9 -11.5v-2t1 -3z" />
    <glyph glyph-name="uni1EB3" unicode="&#x1eb3;" horiz-adv-x="747" 
d="M343 -10q-84 0 -146 34.5t-97 95.5t-35 140t36.5 140.5t99 96.5t141.5 35q48 0 90.5 -13.5t76 -37.5t55.5 -53.5t28 -62.5l-21 11l5 144h47v-520h-49v138l18 21q-8 -34 -30.5 -64.5t-55.5 -54t-75 -37t-88 -13.5zM349 40q65 0 117 28.5t82 78t30 114.5q0 63 -29.5 113
t-81.5 79.5t-118 29.5q-68 0 -120 -29.5t-81.5 -79.5t-29.5 -113q0 -64 28.5 -114t80.5 -78.5t122 -28.5zM368 596q-54 0 -92 30t-50 82l43 5q10 -35 37.5 -55.5t61.5 -20.5t61.5 20.5t37.5 55.5l43 -5q-12 -52 -50 -82t-92 -30zM350 730q-3 5 -5 12.5t-2 13.5q0 7 4.5 16.5
t19.5 19.5q16 11 26 19t10 17q0 13 -14.5 19t-34.5 6q-15 0 -33.5 -4t-38.5 -12l-13 37q22 10 47 15.5t46 5.5q44 0 66.5 -19.5t22.5 -43.5q0 -22 -12.5 -33.5t-26.5 -20.5q-10 -7 -18 -13t-8 -17v-3t1 -6z" />
    <glyph glyph-name="uni1EB4" unicode="&#x1eb4;" horiz-adv-x="764" 
d="M53 0l296 700h69l293 -700h-57l-213 508q-13 35 -21.5 56.5t-15.5 38.5t-14 36.5t-17 48.5h16q-10 -34 -18 -55t-15.5 -38t-16 -38t-21.5 -55l-213 -502h-52zM172 207l21 50h381l16 -50h-418zM382 761q-54 0 -92 30t-50 82l43 5q13 -42 39 -59t60 -17t60 17t39 59l43 -5
q-12 -52 -50 -82t-92 -30zM452 950q-22 0 -40 8t-35 15q-16 8 -32 14.5t-31 6.5q-11 0 -21 -8.5t-10 -29.5h-46q0 36 22.5 59t53.5 23q21 0 37 -7t33 -15q16 -7 33 -14.5t32 -7.5q14 0 24 9.5t10 28.5h46q0 -27 -10.5 -45.5t-27.5 -27.5t-38 -9z" />
    <glyph glyph-name="uni1EB5" unicode="&#x1eb5;" horiz-adv-x="747" 
d="M343 -10q-84 0 -146 34.5t-97 95.5t-35 140t36.5 140.5t99 96.5t141.5 35q48 0 90.5 -13.5t76 -37.5t55.5 -53.5t28 -62.5l-21 11l5 144h47v-520h-49v138l18 21q-8 -34 -30.5 -64.5t-55.5 -54t-75 -37t-88 -13.5zM349 40q65 0 117 28.5t82 78t30 114.5q0 63 -29.5 113
t-81.5 79.5t-118 29.5q-68 0 -120 -29.5t-81.5 -79.5t-29.5 -113q0 -64 28.5 -114t80.5 -78.5t122 -28.5zM367 596q-54 0 -92 30t-50 82l43 5q10 -35 37.5 -55.5t61.5 -20.5t61.5 20.5t37.5 55.5l43 -5q-12 -52 -50 -82t-92 -30zM435 797q-20 0 -37.5 8.5t-34.5 17.5
q-13 7 -25.5 13.5t-29.5 6.5q-16 0 -29 -9.5t-17 -27.5l-41 4q5 33 30 54.5t57 21.5q21 0 36 -7.5t29 -15.5q15 -8 29 -15.5t30 -7.5t27 11t13 26l43 -4q-3 -21 -14 -38t-27.5 -27.5t-38.5 -10.5z" />
    <glyph glyph-name="uni1EB6" unicode="&#x1eb6;" horiz-adv-x="764" 
d="M53 0l296 700h69l293 -700h-57l-213 508q-13 35 -21.5 56.5t-15.5 38.5t-14 36.5t-17 48.5h16q-10 -34 -18 -55t-15.5 -38t-16 -38t-21.5 -55l-213 -502h-52zM172 207l21 50h381l16 -50h-418zM382 -166q-23 0 -34.5 12.5t-11.5 32.5q0 18 11.5 31.5t34.5 13.5t34.5 -12.5
t11.5 -32.5q0 -18 -11.5 -31.5t-34.5 -13.5zM382 761q-36 0 -65 15t-49 42.5t-28 64.5l43 5q10 -48 37.5 -67t61.5 -19t61.5 19t37.5 67l43 -5q-8 -37 -28 -64.5t-49 -42.5t-65 -15z" />
    <glyph glyph-name="uni1EB7" unicode="&#x1eb7;" horiz-adv-x="747" 
d="M343 -10q-84 0 -146 34.5t-97 95.5t-35 140t36.5 140.5t99 96.5t141.5 35q48 0 90.5 -13.5t76 -37.5t55.5 -53.5t28 -62.5l-21 11l5 144h47v-520h-49v138l18 21q-8 -34 -30.5 -64.5t-55.5 -54t-75 -37t-88 -13.5zM349 40q65 0 117 28.5t82 78t30 114.5q0 63 -29.5 113
t-81.5 79.5t-118 29.5q-68 0 -120 -29.5t-81.5 -79.5t-29.5 -113q0 -64 28.5 -114t80.5 -78.5t122 -28.5zM365 -166q-23 0 -34.5 12.5t-11.5 32.5q0 18 11.5 31.5t34.5 13.5t34.5 -12.5t11.5 -32.5q0 -18 -11.5 -31.5t-34.5 -13.5zM368 596q-54 0 -92 35.5t-50 96.5l43 5
q10 -45 37.5 -70.5t61.5 -25.5t61.5 25.5t37.5 70.5l43 -5q-12 -61 -50 -96.5t-92 -35.5z" />
    <glyph glyph-name="uni1EB8" unicode="&#x1eb8;" horiz-adv-x="709" 
d="M142 0v700h463v-50h-413v-600h409v-50h-459zM167 336v50h381v-50h-381zM355 -166q-23 0 -34.5 12.5t-11.5 32.5q0 18 11.5 31.5t34.5 13.5t34.5 -12.5t11.5 -32.5q0 -18 -11.5 -31.5t-34.5 -13.5z" />
    <glyph glyph-name="uni1EB9" unicode="&#x1eb9;" horiz-adv-x="678" 
d="M357 -10q-86 0 -152.5 34t-103.5 95t-37 142q0 61 21.5 110t59.5 85.5t90 56t112 19.5t109 -17.5t83.5 -51t52.5 -79.5t16 -102l-1 -31h-503v46h476l-21 -14l-1 24q0 40 -24.5 80.5t-71.5 67.5t-116 27q-63 0 -115 -23.5t-83 -72t-31 -122.5q0 -68 30 -118t85.5 -77.5
t134.5 -27.5q53 0 98 13.5t96 50.5l23 -39q-26 -20 -59.5 -38t-75 -28t-92.5 -10zM357 -166q-23 0 -34.5 12.5t-11.5 32.5q0 18 11.5 31.5t34.5 13.5t34.5 -12.5t11.5 -32.5q0 -18 -11.5 -31.5t-34.5 -13.5z" />
    <glyph glyph-name="uni1EBA" unicode="&#x1eba;" horiz-adv-x="709" 
d="M142 0v700h463v-50h-413v-600h409v-50h-459zM167 336v50h381v-50h-381zM375 768q-3 5 -5 12.5t-2 13.5q0 7 4.5 16.5t19.5 19.5q16 11 26 19t10 17q0 13 -14.5 19t-34.5 6q-15 0 -33.5 -4t-38.5 -12l-13 37q22 10 47 15.5t46 5.5q44 0 66.5 -19.5t22.5 -43.5
q0 -22 -12.5 -33.5t-26.5 -20.5q-10 -7 -18 -13t-8 -17v-3t1 -6z" />
    <glyph glyph-name="uni1EBB" unicode="&#x1ebb;" horiz-adv-x="678" 
d="M357 -10q-86 0 -152.5 34t-103.5 95t-37 142q0 61 21.5 110t59.5 85.5t90 56t112 19.5t109 -17.5t83.5 -51t52.5 -79.5t16 -102l-1 -31h-503v46h476l-21 -14l-1 24q0 40 -24.5 80.5t-71.5 67.5t-116 27q-63 0 -115 -23.5t-83 -72t-31 -122.5q0 -68 30 -118t85.5 -77.5
t134.5 -27.5q53 0 98 13.5t96 50.5l23 -39q-26 -20 -59.5 -38t-75 -28t-92.5 -10zM336 600q-3 5 -5 12.5t-2 13.5q0 7 4.5 16.5t19.5 19.5q16 11 26 19t10 17q0 13 -14.5 19t-34.5 6q-15 0 -33.5 -4t-38.5 -12l-13 37q22 10 47 15.5t46 5.5q44 0 66.5 -19.5t22.5 -43.5
q0 -22 -12.5 -33.5t-26.5 -20.5q-10 -7 -18 -13t-8 -17v-3t1 -6z" />
    <glyph glyph-name="uni1EBC" unicode="&#x1ebc;" horiz-adv-x="709" 
d="M142 0v700h463v-50h-413v-600h409v-50h-459zM167 336v50h381v-50h-381zM455 779q-22 0 -43 8.5t-44 18.5q-12 5 -24.5 11t-23.5 6q-15 0 -26 -11t-11 -32h-46q0 41 23 65t56 24q22 0 42.5 -8t44.5 -19q11 -5 24 -11t24 -6q15 0 26 10.5t11 32.5h46q0 -27 -10.5 -47
t-28.5 -31t-40 -11z" />
    <glyph glyph-name="uni1EBD" unicode="&#x1ebd;" horiz-adv-x="678" 
d="M357 -10q-86 0 -152.5 34t-103.5 95t-37 142q0 61 21.5 110t59.5 85.5t90 56t112 19.5t109 -17.5t83.5 -51t52.5 -79.5t16 -102l-1 -31h-503v46h476l-21 -14l-1 24q0 40 -24.5 80.5t-71.5 67.5t-116 27q-63 0 -115 -23.5t-83 -72t-31 -122.5q0 -68 30 -118t85.5 -77.5
t134.5 -27.5q53 0 98 13.5t96 50.5l23 -39q-26 -20 -59.5 -38t-75 -28t-92.5 -10zM411 612q-21 0 -39 9.5t-42 33.5q-10 10 -19 15t-21 5q-21 0 -34.5 -14.5t-17.5 -42.5l-41 4q5 42 31.5 69t66.5 27q19 0 35 -8t40 -31q10 -10 19.5 -17t23.5 -7q16 0 27 14t13 33l43 -4
q-3 -24 -14 -43.5t-29 -31t-42 -11.5z" />
    <glyph glyph-name="uni1EBE" unicode="&#x1ebe;" horiz-adv-x="709" 
d="M142 0v700h463v-50h-413v-600h409v-50h-459zM167 336v50h381v-50h-381zM263 765l-28 25l119 91h62l119 -91l-28 -25l-137 85h30zM523 871l-31 20l77 127l56 -36z" />
    <glyph glyph-name="uni1EBF" unicode="&#x1ebf;" horiz-adv-x="678" 
d="M357 -10q-86 0 -152.5 34t-103.5 95t-37 142q0 61 21.5 110t59.5 85.5t90 56t112 19.5t109 -17.5t83.5 -51t52.5 -79.5t16 -102l-1 -31h-503v46h476l-21 -14l-1 24q0 40 -24.5 80.5t-71.5 67.5t-116 27q-63 0 -115 -23.5t-83 -72t-31 -122.5q0 -68 30 -118t85.5 -77.5
t134.5 -27.5q53 0 98 13.5t96 50.5l23 -39q-26 -20 -59.5 -38t-75 -28t-92.5 -10zM235 603l-28 25l109 101h62l109 -101l-28 -25l-127 97h30zM495 721l-31 20l68 130l55 -35z" />
    <glyph glyph-name="uni1EC0" unicode="&#x1ec0;" horiz-adv-x="709" 
d="M142 0v700h463v-50h-413v-600h409v-50h-459zM167 336v50h381v-50h-381zM263 765l-28 25l119 101h62l119 -101l-28 -25l-137 95h30zM544 871l-102 111l56 36l77 -127z" />
    <glyph glyph-name="uni1EC1" unicode="&#x1ec1;" horiz-adv-x="678" 
d="M357 -10q-86 0 -152.5 34t-103.5 95t-37 142q0 61 21.5 110t59.5 85.5t90 56t112 19.5t109 -17.5t83.5 -51t52.5 -79.5t16 -102l-1 -31h-503v46h476l-21 -14l-1 24q0 40 -24.5 80.5t-71.5 67.5t-116 27q-63 0 -115 -23.5t-83 -72t-31 -122.5q0 -68 30 -118t85.5 -77.5
t134.5 -27.5q53 0 98 13.5t96 50.5l23 -39q-26 -20 -59.5 -38t-75 -28t-92.5 -10zM234 603l-28 25l109 101h62l109 -101l-28 -25l-127 97h30zM475 721l-92 115l56 36l67 -131z" />
    <glyph glyph-name="uni1EC2" unicode="&#x1ec2;" horiz-adv-x="709" 
d="M142 0v700h463v-50h-413v-600h409v-50h-459zM167 336v50h381v-50h-381zM263 765l-28 25l119 91h62l119 -91l-28 -25l-137 85h30zM524 884q-3 5 -5 10.5t-2 10.5q0 8 7.5 14.5t25.5 18.5q14 9 20.5 16.5t6.5 14.5q0 11 -13 17t-30 6t-34 -4t-34 -12l-13 37
q20 10 42.5 15.5t43.5 5.5q44 0 65 -17.5t21 -40.5q0 -17 -10 -29.5t-27 -23.5q-10 -7 -19 -13.5t-9 -11.5v-2t1 -3z" />
    </font>
</defs>
</svg>
