<?xml version="1.0" standalone="no"?>
<!DOCTYPE svg PUBLIC "-//W3C//DTD SVG 1.1//EN" "http://www.w3.org/Graphics/SVG/1.1/DTD/svg11.dtd" >
<svg xmlns="http://www.w3.org/2000/svg" xmlns:xlink="http://www.w3.org/1999/xlink" version="1.1">
<metadata>
Created by FontForge 20201107 at Fri Jul 30 19:18:20 2021
 By 
Copyright 2019 The Lexend Project Authors (https://github.com/googlefonts/lexend)
</metadata>
<defs>
<font id="LexendExa-Medium" horiz-adv-x="0" >
  <font-face 
    font-family="Lexend Exa Medium"
    font-weight="500"
    font-stretch="normal"
    units-per-em="1000"
    panose-1="0 0 0 0 0 0 0 0 0 0"
    ascent="800"
    descent="-200"
    x-height="527"
    cap-height="700"
    bbox="-239 -261 1761 1125"
    underline-thickness="50"
    underline-position="-125"
    unicode-range="U+000D-FB02"
  />
<missing-glyph horiz-adv-x="584" 
d="M75 0q-35 0 -35 35v630q0 35 35 35h434q35 0 35 -35v-630q0 -35 -35 -35h-434zM75 30h413q3 0 4 2t-1 4l-415 599q-2 3 -4 2.5t-2 -4.5v-598q0 -5 5 -5zM508 65q2 -3 4 -2.5t2 4.5v598q0 5 -5 5h-414q-3 0 -4 -2t1 -4z" />
    <glyph glyph-name="fi" unicode="fi" horiz-adv-x="926" 
d="M176 0v553q0 54 24 96.5t66.5 66.5t98.5 24q43 0 75.5 -12.5t52.5 -30.5l-38 -96q-15 11 -34.5 19.5t-38.5 8.5q-30 0 -49 -10t-28 -28t-9 -41v-550h-60h-31h-29zM78 404v108h381v-108h-381zM667 0v527h123v-527h-123zM727 643q-37 0 -57.5 18.5t-20.5 52.5q0 32 21 52
t57 20q37 0 58 -18.5t21 -53.5q0 -31 -21.5 -51t-57.5 -20z" />
    <glyph glyph-name="fl" unicode="fl" horiz-adv-x="907" 
d="M176 0v553q0 54 24 96.5t66.5 66.5t98.5 24q43 0 75.5 -12.5t52.5 -30.5l-38 -96q-15 11 -34.5 19.5t-38.5 8.5q-30 0 -49 -10t-28 -28t-9 -41v-550h-60h-31h-29zM78 404v108h381v-108h-381zM655 0v740h124v-740h-124z" />
    <glyph glyph-name="f_f" unicode="ff" horiz-adv-x="1056" 
d="M176 0v553q0 54 24 96.5t66.5 66.5t98.5 24q43 0 75.5 -12.5t52.5 -30.5l-38 -96q-15 11 -34.5 19.5t-38.5 8.5q-30 0 -49 -10t-28 -28t-9 -41v-550h-60h-31h-29zM78 404v108h381v-108h-381zM704 0v553q0 54 24 96.5t66.5 66.5t98.5 24q43 0 75.5 -12.5t52.5 -30.5
l-38 -96q-15 11 -34.5 19.5t-38.5 8.5q-30 0 -49 -10t-28 -28t-9 -41v-550h-60h-31h-29zM606 404v108h381v-108h-381z" />
    <glyph glyph-name="f_f_i" unicode="ffi" horiz-adv-x="1454" 
d="M176 0v553q0 54 24 96.5t66.5 66.5t98.5 24q43 0 75.5 -12.5t52.5 -30.5l-38 -96q-15 11 -34.5 19.5t-38.5 8.5q-30 0 -49 -10t-28 -28t-9 -41v-550h-60h-31h-29zM78 404v108h381v-108h-381zM704 0v553q0 54 24 96.5t66.5 66.5t98.5 24q43 0 75.5 -12.5t52.5 -30.5
l-38 -96q-15 11 -34.5 19.5t-38.5 8.5q-30 0 -49 -10t-28 -28t-9 -41v-550h-60h-31h-29zM606 404v108h381v-108h-381zM1195 0v527h123v-527h-123zM1255 643q-37 0 -57.5 18.5t-20.5 52.5q0 32 21 52t57 20q37 0 58 -18.5t21 -53.5q0 -31 -21.5 -51t-57.5 -20z" />
    <glyph glyph-name="f_f_l" unicode="ffl" horiz-adv-x="1434" 
d="M176 0v553q0 54 24 96.5t66.5 66.5t98.5 24q43 0 75.5 -12.5t52.5 -30.5l-38 -96q-15 11 -34.5 19.5t-38.5 8.5q-30 0 -49 -10t-28 -28t-9 -41v-550h-60h-31h-29zM78 404v108h381v-108h-381zM704 0v553q0 54 24 96.5t66.5 66.5t98.5 24q43 0 75.5 -12.5t52.5 -30.5
l-38 -96q-15 11 -34.5 19.5t-38.5 8.5q-30 0 -49 -10t-28 -28t-9 -41v-550h-60h-31h-29zM606 404v108h381v-108h-381zM1183 0v740h124v-740h-124z" />
    <glyph glyph-name=".notdef" horiz-adv-x="584" 
d="M75 0q-35 0 -35 35v630q0 35 35 35h434q35 0 35 -35v-630q0 -35 -35 -35h-434zM75 30h413q3 0 4 2t-1 4l-415 599q-2 3 -4 2.5t-2 -4.5v-598q0 -5 5 -5zM508 65q2 -3 4 -2.5t2 4.5v598q0 5 -5 5h-414q-3 0 -4 -2t1 -4z" />
    <glyph glyph-name=".null" 
 />
    <glyph glyph-name="nonmarkingreturn" horiz-adv-x="333" 
 />
    <glyph glyph-name="CR" unicode="&#xd;" horiz-adv-x="297" 
 />
    <glyph glyph-name="space" unicode=" " horiz-adv-x="376" 
 />
    <glyph glyph-name="exclam" unicode="!" horiz-adv-x="387" 
d="M156 246q-10 59 -19 124.5t-15 132.5t-6 128v73h154v-73q0 -62 -5 -129.5t-14 -133t-21 -122.5h-74zM192 -11q-44 0 -66.5 21.5t-22.5 58.5q0 33 23 56.5t66 23.5q44 0 66.5 -21t22.5 -59q0 -33 -23 -56.5t-66 -23.5z" />
    <glyph glyph-name="quotedbl" unicode="&#x22;" horiz-adv-x="517" 
d="M295 432l19 268h145l-82 -268h-82zM69 432l18 268h146l-82 -268h-82z" />
    <glyph glyph-name="numbersign" unicode="#" horiz-adv-x="801" 
d="M437 0l120 700h113l-120 -700h-113zM61 159v105h647v-105h-647zM145 0l120 700h112l-120 -700h-112zM99 439v105h646v-105h-646z" />
    <glyph glyph-name="dollar" unicode="$" horiz-adv-x="752" 
d="M382 -10q-99 0 -176 32t-133 98l75 103q55 -62 111.5 -91t128.5 -29q39 0 74 10.5t56 31t21 49.5q0 20 -11 34.5t-30 24.5t-43 18t-49 13t-49 9q-81 14 -137 41t-85 69.5t-29 102.5q0 46 21.5 84t59.5 65t88 42t108 15q92 0 162 -29.5t115 -87.5l-72 -92q-38 45 -90 70
t-115 25q-42 0 -74 -10t-50.5 -28.5t-18.5 -45.5q0 -22 12 -38t33 -28t52 -20t67 -14q57 -9 106.5 -24.5t86 -38.5t56.5 -56.5t20 -80.5q0 -69 -36.5 -119.5t-102 -77.5t-152.5 -27zM313 -91l4 458l95 -33l4 -425h-103zM447 334l-95 33l-4 417h103z" />
    <glyph glyph-name="percent" unicode="%" horiz-adv-x="1013" 
d="M200 0l471 700h121l-477 -700h-115zM233 305q-51 0 -90.5 27t-61 73t-21.5 103q0 59 21.5 105t61 73t91.5 27q51 0 90.5 -27t61 -73t21.5 -105q0 -57 -22.5 -102.5t-62 -73t-89.5 -27.5zM234 396q21 0 36 14.5t23 39.5t8 58q0 34 -8 59.5t-23 39.5t-37 14
q-21 0 -36.5 -14.5t-23.5 -40t-8 -58.5q0 -34 8 -59t23.5 -39t37.5 -14zM772 -12q-52 0 -91 27t-61 73t-22 103q0 59 21.5 105t61.5 73t91 27q52 0 91 -27t60.5 -73t21.5 -105q0 -57 -22.5 -103t-61.5 -73t-89 -27zM772 79q21 0 36.5 14.5t23.5 39.5t8 58t-8.5 58.5
t-23.5 40t-36 14.5q-22 0 -37.5 -14.5t-23.5 -40t-8 -58.5q0 -34 8.5 -59t23.5 -39t37 -14z" />
    <glyph glyph-name="ampersand" unicode="&#x26;" horiz-adv-x="865" 
d="M648 0l-79 84l-37 35l-175 177q-31 30 -58.5 60.5t-50 60.5t-35 59.5t-12.5 57.5q0 47 27.5 88t79 66.5t120.5 25.5q58 0 105 -18t81 -48.5t51 -70.5l-93 -67q-25 49 -61.5 71t-78.5 22q-28 0 -49 -8t-33.5 -23t-12.5 -38q0 -19 13 -42t31.5 -46.5t39.5 -44.5t37 -38
l165 -162l39 -41l150 -160h-164zM371 -12q-88 0 -152.5 30.5t-99.5 81.5t-35 111q0 73 45 131.5t135 91.5l79 -82q-67 -16 -96.5 -47.5t-29.5 -78.5q0 -35 18.5 -63.5t55.5 -45t94 -16.5q40 0 80 14.5t73 44t54.5 73.5t24.5 102h121q-4 -66 -27 -121t-58 -97t-80 -70.5
t-96 -43.5t-106 -15z" />
    <glyph glyph-name="quotesingle" unicode="'" horiz-adv-x="287" 
d="M69 432l18 268h138l-82 -268h-74z" />
    <glyph glyph-name="parenleft" unicode="(" horiz-adv-x="500" 
d="M378 -186q-152 77 -229 192t-77 252q0 136 77.5 251t229.5 193l67 -76q-125 -70 -186 -164.5t-61 -203.5t61 -203.5t186 -164.5z" />
    <glyph glyph-name="parenright" unicode=")" horiz-adv-x="500" 
d="M121 -186l-67 76q125 70 186.5 164.5t61.5 203.5t-61.5 203.5t-186.5 164.5l68 76q152 -77 229 -192t77 -252q0 -136 -77.5 -251.5t-229.5 -192.5z" />
    <glyph glyph-name="asterisk" unicode="*" horiz-adv-x="515" 
d="M211 343l11 131l8 -6l-116 -82l-47 79l146 71l-12 -18l-139 70l51 79l126 -90l-17 -4l-11 140h97l-11 -149l-13 13l122 88l46 -80l-140 -71l-2 22l142 -68l-52 -79l-116 83l14 2l10 -131h-97z" />
    <glyph glyph-name="plus" unicode="+" horiz-adv-x="709" 
d="M78 231v109h554v-109h-554zM293 23v522h121v-522h-121z" />
    <glyph glyph-name="comma" unicode="," horiz-adv-x="370" 
d="M121 -196l-45 53q42 23 68 50t26 47q0 13 -7.5 23t-25.5 23q-21 17 -33.5 31.5t-12.5 36.5q0 32 23 49t57 17q30 0 56 -17t41 -46t15 -67q0 -31 -13 -61.5t-36 -57t-51.5 -47.5t-61.5 -34z" />
    <glyph glyph-name="hyphen" unicode="-" horiz-adv-x="499" 
d="M81 229v116h337v-116h-337z" />
    <glyph glyph-name="period" unicode="." horiz-adv-x="366" 
d="M183 -11q-44 0 -66.5 21.5t-22.5 58.5q0 33 23 56.5t66 23.5q44 0 66.5 -21t22.5 -59q0 -33 -23 -56.5t-66 -23.5z" />
    <glyph glyph-name="slash" unicode="/" horiz-adv-x="666" 
d="M51 -135l414 835h134l-412 -835h-136z" />
    <glyph glyph-name="zero" unicode="0" horiz-adv-x="718" 
d="M361 -10q-94 0 -160 44.5t-100.5 125.5t-34.5 190t34.5 190t100.5 125.5t160 44.5q93 0 158 -44.5t99.5 -125.5t34.5 -190t-34.5 -190t-99.5 -125.5t-158 -44.5zM361 104q79 0 123 64.5t44 181.5q0 118 -44 183t-123 65q-81 0 -126 -65t-45 -183q0 -117 45 -181.5
t126 -64.5z" />
    <glyph glyph-name="one" unicode="1" horiz-adv-x="587" 
d="M252 49v568l38 -37l-155 -81l-33 112l189 99h90v-661h-129zM119 0v120h386v-120h-386z" />
    <glyph glyph-name="two" unicode="2" horiz-adv-x="639" 
d="M107 0l-34 85l217 220q24 22 47.5 47.5t44.5 51.5t34 51.5t13 48.5q0 27 -12.5 47.5t-36 31t-56.5 10.5q-30 0 -60 -14t-56 -41.5t-45 -68.5l-97 59q23 55 63.5 96.5t93.5 64.5t116 23q65 0 114 -25t77.5 -68.5t28.5 -101.5q0 -28 -9 -55.5t-24.5 -55t-37 -55.5
t-47.5 -57t-55 -59l-168 -167l-16 52h382v-120h-477z" />
    <glyph glyph-name="three" unicode="3" horiz-adv-x="645" 
d="M312 -10q-88 0 -151.5 38t-111.5 114l98 68q21 -33 46.5 -57t55 -38t66.5 -14t70.5 14t54 41.5t20.5 67.5q0 37 -18 61t-47 36t-64 12q-17 0 -35 -3t-35 -8t-36 -12l-35 81l219 224l18 -30l-335 2v115h451l24 -61l-250 -254l-30 45q10 4 31.5 7t41.5 3q44 0 85 -16
t71.5 -45t48.5 -68t18 -84q0 -71 -36.5 -124.5t-97.5 -84t-137 -30.5z" />
    <glyph glyph-name="four" unicode="4" horiz-adv-x="698" 
d="M391 0v600l64 -3l-294 -345l-8 35h498v-112h-555l-54 103l364 424h110v-702h-125z" />
    <glyph glyph-name="five" unicode="5" horiz-adv-x="654" 
d="M310 -7q-76 0 -139.5 31.5t-106.5 86.5l71 85q44 -46 86 -67t87 -21q44 0 77.5 16.5t53.5 45t20 66.5q0 36 -19.5 64t-52.5 45t-74 17q-29 0 -54 -5t-49 -14.5t-52 -23.5l-62 82l41 301h403v-115h-330l28 32l-33 -222l-36 26q14 12 42 23t61.5 18t65.5 7
q69 0 123.5 -29.5t87 -82t32.5 -121.5t-35.5 -124.5t-97 -88t-138.5 -32.5z" />
    <glyph glyph-name="six" unicode="6" horiz-adv-x="659" 
d="M331 0q-55 0 -103.5 19t-84.5 52t-56.5 78.5t-20.5 99.5q0 37 9.5 74.5t28 76t43 78.5t53.5 81l109 153h133l4 -10l-147 -196q-31 -43 -56.5 -85t-44 -82.5t-28.5 -78.5l-43 79q16 32 40.5 59.5t55.5 48t67 31.5t76 11q63 0 115.5 -30.5t84 -82.5t31.5 -116
q0 -73 -33.5 -132t-93.5 -93.5t-139 -34.5zM332 114q40 0 73.5 16.5t52.5 47t19 71.5q0 33 -18.5 63t-51 48.5t-74.5 18.5q-44 0 -77 -18t-51 -47t-18 -65q0 -37 18 -68t50.5 -49t76.5 -18z" />
    <glyph glyph-name="seven" unicode="7" horiz-adv-x="608" 
d="M142 0l287 634l24 -49h-386v117h469l15 -73l-274 -629h-135z" />
    <glyph glyph-name="eight" unicode="8" horiz-adv-x="680" 
d="M339 -3q-75 0 -135 28t-94.5 76t-34.5 106q0 37 11 66t31 50.5t46.5 38.5t58.5 29l-8 -36q-24 11 -45 25.5t-36.5 34.5t-24.5 44t-9 52q0 54 32.5 98t87 69.5t120.5 25.5q67 0 121.5 -25.5t86.5 -69.5t32 -98q0 -29 -9 -53.5t-24.5 -43.5t-37 -33.5t-44.5 -25.5l-5 32
q32 -11 58.5 -28t46 -40t30.5 -51.5t11 -60.5q0 -59 -35 -106.5t-95 -75.5t-136 -28zM339 109q41 0 72 13.5t49.5 36t18.5 52.5q0 31 -18 54t-50 36t-72 13q-39 0 -71 -13t-50.5 -36t-18.5 -54q0 -29 18.5 -52t50 -36.5t71.5 -13.5zM339 421q34 0 60.5 11.5t42 31.5t15.5 46
q0 25 -15 44t-42 30.5t-61 11.5t-61 -11.5t-42 -30.5t-15 -44q0 -26 15.5 -46t42.5 -31.5t60 -11.5z" />
    <glyph glyph-name="nine" unicode="9" horiz-adv-x="650" 
d="M257 0l-4 10l240 442l8 -71q-18 -31 -41.5 -57t-52.5 -45t-60 -29.5t-65 -10.5q-60 0 -110 30.5t-80 81t-30 110.5q0 72 35.5 129t95.5 90.5t135 33.5q53 0 100.5 -18.5t83 -51t56 -75.5t20.5 -92q0 -32 -8.5 -66t-23.5 -71.5t-35.5 -78.5t-44.5 -87l-93 -174h-126z
M317 351q43 0 75.5 17t50 44.5t17.5 60.5q0 35 -17.5 64t-49 46t-74.5 17q-37 0 -67.5 -16t-48.5 -44t-18 -67q0 -31 17 -59t47.5 -45.5t67.5 -17.5z" />
    <glyph glyph-name="colon" unicode=":" horiz-adv-x="366" 
d="M183 -10q-44 0 -66.5 21.5t-22.5 58.5q0 33 23 56.5t66 23.5q44 0 66.5 -21t22.5 -59q0 -33 -23 -56.5t-66 -23.5zM183 377q-44 0 -66.5 21.5t-22.5 58.5q0 33 23 56.5t66 23.5q44 0 66.5 -21t22.5 -59q0 -33 -23 -56.5t-66 -23.5z" />
    <glyph glyph-name="semicolon" unicode=";" horiz-adv-x="395" 
d="M139 -196l-45 53q42 23 68 50t26 47q0 13 -7.5 23t-25.5 23q-21 17 -33.5 31.5t-12.5 36.5q0 32 23 49t57 17q30 0 56 -17t41 -46t15 -67q0 -31 -13 -61.5t-36 -57t-51.5 -47.5t-61.5 -34zM210 377q-44 0 -66.5 21.5t-22.5 58.5q0 33 23 56.5t66 23.5q44 0 66.5 -21
t22.5 -59q0 -33 -23 -56.5t-66 -23.5z" />
    <glyph glyph-name="less" unicode="&#x3c;" horiz-adv-x="622" 
d="M486 -2l-423 212v87l423 212l54 -97l-404 -196v75l404 -196z" />
    <glyph glyph-name="equal" unicode="=" horiz-adv-x="698" 
d="M84 329v110h530v-110h-530zM84 124v109h530v-109h-530z" />
    <glyph glyph-name="greater" unicode="&#x3e;" horiz-adv-x="623" 
d="M140 -2l-54 97l404 196v-75l-404 196l54 97l423 -212v-87z" />
    <glyph glyph-name="question" unicode="?" horiz-adv-x="647" 
d="M261 221l-28 144q32 7 62.5 16.5t56.5 22t45.5 28t29.5 34.5t10 40q0 27 -15.5 46t-42 28.5t-56.5 9.5q-53 0 -97.5 -26.5t-76.5 -76.5l-87 83q48 66 116.5 103.5t151.5 37.5q70 0 125.5 -26t87.5 -71.5t32 -102.5q0 -35 -16.5 -69t-46.5 -62.5t-69 -50.5t-83 -36
l-15 -72h-84zM218 69q0 33 23.5 56.5t66.5 23.5t66 -21t23 -59q0 -33 -23.5 -56.5t-65.5 -23.5q-44 0 -67 21.5t-23 58.5z" />
    <glyph glyph-name="at" unicode="@" horiz-adv-x="1093" 
d="M450 -170q-88 0 -160 28.5t-123.5 79t-79 120.5t-27.5 153q0 117 44.5 211t123.5 160t182.5 101t221.5 35q95 0 169 -25.5t126 -71t79 -107t27 -134.5q0 -72 -21.5 -132t-60 -104t-88.5 -67.5t-106 -23.5q-40 0 -69 14.5t-45.5 38.5t-16.5 54q0 15 3 30.5t5 31.5l22 -22
q-21 -45 -53.5 -78t-72.5 -51t-83 -18q-48 0 -86 22.5t-59.5 62.5t-21.5 95q0 48 18.5 97t53.5 90t83.5 66t106.5 25q40 0 70.5 -16t49 -43.5t22.5 -63.5l-30 -53l27 161h116l-50 -277q-4 -26 0 -42t16 -24t29 -8q29 0 56 16t48 47t33.5 73.5t12.5 93.5q0 80 -37 138
t-108 90t-170 32q-106 0 -194 -29t-150 -83t-96.5 -132.5t-34.5 -177.5q0 -70 21.5 -124.5t60.5 -93t95 -59t124 -20.5q51 0 87 6.5t69 19.5t75 34l37 -73q-52 -25 -94.5 -41t-84.5 -24t-92 -8zM482 157q36 0 68 16.5t56 46t32 63.5q4 15 6 27.5t2 23.5q2 26 -8.5 44
t-31 27.5t-50.5 9.5q-44 0 -78 -25.5t-53.5 -65t-19.5 -82.5q0 -39 22 -62t55 -23z" />
    <glyph glyph-name="A" unicode="A" horiz-adv-x="815" 
d="M43 0l301 700h129l299 -700h-137l-180 422q-6 16 -14.5 39t-18 48.5t-18 49t-13.5 39.5l29 1q-6 -21 -14.5 -44.5t-17.5 -47t-18 -46t-16 -42.5l-180 -419h-131zM178 156l47 113h357l37 -113h-441z" />
    <glyph glyph-name="B" unicode="B" horiz-adv-x="814" 
d="M128 0v700h334q77 0 129.5 -20t80 -59.5t27.5 -95.5q0 -57 -33.5 -97.5t-95.5 -55.5l2 19q46 -10 83 -34t59 -61.5t22 -87.5q0 -55 -20.5 -95t-56.5 -64.5t-82 -36.5t-99 -12h-350zM255 117h221q40 0 68.5 10.5t44.5 32t16 52.5q0 32 -18.5 52t-49 29.5t-66.5 9.5h-216
v-186zM255 415h205q31 0 55.5 11t38.5 30t14 44q0 41 -32 62t-86 21h-195v-168z" />
    <glyph glyph-name="C" unicode="C" horiz-adv-x="805" 
d="M451 -10q-80 0 -148 26t-118.5 74t-78.5 114.5t-28 146.5q0 77 29.5 142t81 113.5t120 75.5t146.5 27q58 0 111.5 -16t98 -42t73.5 -58l-80 -98q-29 28 -61 47.5t-68.5 30.5t-77.5 11q-47 0 -91 -16.5t-77 -47.5t-52.5 -74t-19.5 -96q0 -55 19.5 -98.5t54.5 -74t81 -47
t99 -16.5q44 0 81 12t67 30.5t55 40.5l63 -104q-26 -25 -69.5 -49t-98.5 -39t-112 -15z" />
    <glyph glyph-name="D" unicode="D" horiz-adv-x="881" 
d="M128 0v700h313q84 0 150.5 -26t114 -74t72 -111.5t24.5 -138.5q0 -76 -24.5 -140t-71.5 -111t-114 -73t-151 -26h-313zM258 101l-10 19h188q57 0 100.5 17t72.5 48t44 72.5t15 92.5q0 50 -15 92t-44.5 73t-72.5 48t-100 17h-191l13 17v-496z" />
    <glyph glyph-name="E" unicode="E" horiz-adv-x="749" 
d="M128 0v700h514v-118h-386v-464h390v-118h-518zM192 300v116h399v-116h-399z" />
    <glyph glyph-name="F" unicode="F" horiz-adv-x="726" 
d="M128 0v700h130v-700h-130zM183 283v118h414v-118h-414zM188 580v120h452v-120h-452z" />
    <glyph glyph-name="G" unicode="G" horiz-adv-x="897" 
d="M465 -10q-82 0 -152.5 25.5t-123 73t-82 114t-29.5 148.5q0 76 29.5 141.5t83.5 114t126.5 75.5t156.5 27q64 0 120.5 -16t101 -43t72.5 -59l-82 -88q-30 26 -63.5 44.5t-71 29.5t-78.5 11q-55 0 -102.5 -18t-82.5 -50t-55 -75t-20 -94q0 -55 20.5 -99.5t57 -76t83.5 -48
t100 -16.5q45 0 84.5 11t69.5 30.5t46.5 46.5t15.5 58v19l18 -24h-241v115h353q2 -13 3 -25.5t1.5 -23t0.5 -17.5q0 -73 -27 -130.5t-75.5 -97.5t-114 -61.5t-143.5 -21.5z" />
    <glyph glyph-name="H" unicode="H" horiz-adv-x="891" 
d="M633 0v700h130v-700h-130zM128 0v700h130v-700h-130zM182 286v122h514v-122h-514z" />
    <glyph glyph-name="I" unicode="I" horiz-adv-x="655" 
d="M120 0v118h143v464h-143v118h416v-118h-143v-464h143v-118h-416z" />
    <glyph glyph-name="J" unicode="J" horiz-adv-x="746" 
d="M316 -10q-48 0 -87 13t-69 33.5t-50.5 45t-33.5 47.5l81 83q16 -24 33 -43.5t34.5 -32t39 -19.5t45.5 -7q41 0 71.5 18.5t47 50.5t16.5 71v330h-147v120h393v-120h-118v-343q0 -51 -18 -95.5t-51.5 -79t-81 -53.5t-105.5 -19z" />
    <glyph glyph-name="K" unicode="K" horiz-adv-x="870" 
d="M225 194l-17 130l419 376h171zM128 0v700h130v-700h-130zM639 0l-281 361l87 86l356 -447h-162z" />
    <glyph glyph-name="L" unicode="L" horiz-adv-x="722" 
d="M128 0v700h130v-580h379v-120h-509z" />
    <glyph glyph-name="M" unicode="M" horiz-adv-x="994" 
d="M128 0v700h123l280 -407l-67 1l283 406h119v-700h-129v267q0 87 4.5 159.5t15.5 145.5l15 -45l-244 -337h-66l-239 336l14 46q11 -71 15.5 -142.5t4.5 -162.5v-267h-129z" />
    <glyph glyph-name="N" unicode="N" horiz-adv-x="929" 
d="M128 0v700h121l462 -547l-18 -4q-5 30 -8 61.5t-5.5 64.5t-4 68t-2 71.5t-0.5 75.5v210h129v-700h-123l-464 539l22 7q3 -41 6 -74t6 -60.5t4.5 -51t2.5 -46t1 -43.5v-271h-129z" />
    <glyph glyph-name="O" unicode="O" horiz-adv-x="921" 
d="M460 -10q-83 0 -152.5 27t-121.5 76t-80 115t-28 143t28 143t80 115t121.5 76t152.5 27t153 -27t121 -76.5t79.5 -115t28.5 -142.5q0 -76 -28.5 -142t-79.5 -115.5t-121 -76.5t-153 -27zM460 114q55 0 100.5 17.5t79 50t52 75.5t18.5 94t-18.5 94t-52 75.5t-79 50
t-100.5 17.5q-54 0 -100 -17.5t-79.5 -50t-51.5 -75.5t-18 -94t18 -94t51.5 -75.5t79.5 -50t100 -17.5z" />
    <glyph glyph-name="P" unicode="P" horiz-adv-x="772" 
d="M128 0v700h340q62 0 112.5 -29t81 -79t30.5 -112q0 -64 -31.5 -115.5t-84 -82t-116.5 -30.5h-202v-252h-130zM258 372h190q29 0 54 14.5t40 38.5t15 54q0 29 -15 51.5t-40 36t-54 13.5h-190v-208z" />
    <glyph glyph-name="Q" unicode="Q" horiz-adv-x="921" 
d="M687 -110l-266 352l101 65l263 -349zM460 -10q-83 0 -152.5 27t-121.5 76t-80 115t-28 143t28 143t80 115t121.5 76t152.5 27t153 -27t121 -76.5t79.5 -115t28.5 -142.5q0 -76 -28.5 -142t-79.5 -115.5t-121 -76.5t-153 -27zM460 114q55 0 100.5 17.5t79 50t52 75.5
t18.5 94t-18.5 94t-52 75.5t-79 50t-100.5 17.5q-54 0 -100 -17.5t-79.5 -50t-51.5 -75.5t-18 -94t18 -94t51.5 -75.5t79.5 -50t100 -17.5z" />
    <glyph glyph-name="R" unicode="R" horiz-adv-x="823" 
d="M128 0v700h346q65 0 118 -29t83.5 -79t30.5 -113q0 -62 -32 -113t-86 -81t-120 -30h-213v-255h-127zM584 0l-202 316l136 25l222 -342zM255 368h209q31 0 55.5 14.5t39 39t14.5 54.5q0 31 -16 55t-44 38t-64 14h-194v-215z" />
    <glyph glyph-name="S" unicode="S" horiz-adv-x="752" 
d="M383 -10q-69 0 -126.5 15.5t-103 45.5t-83.5 73l80 100q58 -67 115 -94t125 -27q39 0 73 10t55 30.5t21 49.5q0 19 -10 33.5t-27.5 25t-41 18.5t-49.5 13.5t-54 9.5q-60 10 -107 27t-79 43.5t-48.5 61.5t-16.5 81t21.5 84t60 65t89 42t108.5 15q65 0 116.5 -14t90.5 -41
t66 -64l-82 -88q-24 31 -54 51.5t-65.5 31t-73.5 10.5q-42 0 -73.5 -10t-50 -29t-18.5 -46q0 -21 11.5 -37t33 -28t52 -20t67.5 -14q57 -10 106 -25t85.5 -38t56.5 -56.5t20 -80.5q0 -69 -36.5 -119.5t-101.5 -77.5t-152 -27z" />
    <glyph glyph-name="T" unicode="T" horiz-adv-x="712" 
d="M288 0v580h-228v120h592v-120h-234v-580h-130z" />
    <glyph glyph-name="U" unicode="U" horiz-adv-x="871" 
d="M435 -6q-93 0 -164 39t-111.5 107.5t-40.5 154.5v406h131v-399q0 -54 25 -96t67 -67t93 -25q55 0 98 25t68 67t25 96v399h126v-406q0 -86 -40.5 -154.5t-111.5 -107.5t-165 -39z" />
    <glyph glyph-name="V" unicode="V" horiz-adv-x="809" 
d="M341 0l-297 700h142l164 -398q9 -24 19.5 -49l21 -50t19 -49.5t16.5 -48.5h-31q9 29 21 61.5t25 66t27 68.5l153 399h144l-296 -700h-128z" />
    <glyph glyph-name="W" unicode="W" horiz-adv-x="1107" 
d="M276 0l-232 700h138l129 -402q7 -21 13 -44.5t11.5 -48t10 -46t8.5 -37.5l-33 1q11 40 20 70t17.5 56t17.5 49l120 292h113l117 -291q11 -29 21.5 -58.5t18.5 -57t12 -53.5l-29 -5q4 21 7 37.5t6.5 32.5t7.5 32t10 34t12 40l136 399h135l-245 -700h-94l-185 439l16 -4
l-180 -435h-99z" />
    <glyph glyph-name="X" unicode="X" horiz-adv-x="803" 
d="M594 0l-241 315l-306 385h166l234 -307l314 -393h-167zM42 0l294 381l89 -79l-225 -302h-158zM466 325l-88 76l214 299h158z" />
    <glyph glyph-name="Y" unicode="Y" horiz-adv-x="790" 
d="M340 0v335l12 -61l-320 426h160l239 -327l-46 2l223 325h150l-299 -421l11 64v-343h-130z" />
    <glyph glyph-name="Z" unicode="Z" horiz-adv-x="758" 
d="M76 0v91l437 522l41 -36h-452v123h571v-90l-436 -523l-41 34h488v-121h-608z" />
    <glyph glyph-name="bracketleft" unicode="[" horiz-adv-x="510" 
d="M108 -190v890h327v-106h-210l6 8v-698l-10 12h214v-106h-327z" />
    <glyph glyph-name="backslash" unicode="\" horiz-adv-x="663" 
d="M471 -107l-398 807h132l400 -807h-134z" />
    <glyph glyph-name="bracketright" unicode="]" horiz-adv-x="510" 
d="M75 -190v106h211l-6 -8v698l10 -12h-215v106h327v-890h-327z" />
    <glyph glyph-name="asciicircum" unicode="^" horiz-adv-x="696" 
d="M47 366l242 363h117l242 -363h-138l-186 279l49 3l-190 -282h-136z" />
    <glyph glyph-name="underscore" unicode="_" horiz-adv-x="775" 
d="M77 -171v102h620v-102h-620z" />
    <glyph glyph-name="grave" unicode="`" horiz-adv-x="500" 
d="M323 598l-185 100l68 90l156 -131z" />
    <glyph glyph-name="a" unicode="a" horiz-adv-x="782" 
d="M334 -10q-77 0 -136.5 35.5t-94 97.5t-34.5 142q0 79 35 141t96.5 97t140.5 35q47 0 86.5 -12t69 -33.5t47.5 -47t22 -53.5l-29 3v132h123v-527h-124v134l27 -1q-5 -25 -24.5 -50.5t-51 -46t-70.5 -33.5t-83 -13zM367 99q51 0 90.5 21t61.5 58.5t22 86.5q0 47 -22 84
t-61.5 58.5t-90.5 21.5q-52 0 -91 -21.5t-60.5 -58.5t-21.5 -84q0 -49 21.5 -86.5t60.5 -58.5t91 -21z" />
    <glyph glyph-name="b" unicode="b" horiz-adv-x="786" 
d="M440 -10q-41 0 -79.5 11.5t-69 30.5t-51 42.5t-25.5 44.5l37 9l-4 -126h-119v738h124v-335l-30 6q6 23 25 45t49 40.5t67 30t77 11.5q77 0 138 -35t97 -97t36 -141q0 -80 -35.5 -142t-96.5 -97.5t-140 -35.5zM418 99q52 0 91 21.5t61 59t22 85.5t-22 85t-61 58t-91 21
q-51 0 -90.5 -21t-61.5 -58t-22 -85t22 -85.5t61.5 -59t90.5 -21.5z" />
    <glyph glyph-name="c" unicode="c" horiz-adv-x="677" 
d="M365 -10q-84 0 -149 36t-103 98t-38 140t38 140t102.5 98t147.5 36q79 0 145.5 -26.5t105.5 -73.5l-68 -88q-20 22 -48.5 40t-61 28.5t-64.5 10.5q-51 0 -90.5 -21.5t-61.5 -59t-22 -84.5t23 -84t62.5 -59t88.5 -22q37 0 68 9.5t58 25t48 35.5l67 -87
q-43 -39 -107.5 -65.5t-140.5 -26.5z" />
    <glyph glyph-name="d" unicode="d" horiz-adv-x="773" 
d="M340 -10q-79 0 -140 35.5t-95.5 97t-34.5 141.5q0 79 35 141t97 97.5t141 35.5q46 0 86.5 -12.5t72 -33t49.5 -45.5t20 -51l-33 -4v348h123v-740h-119l-3 132l24 -5q-1 -25 -20 -48.5t-49.5 -43.5t-70.5 -32.5t-83 -12.5zM368 96q51 0 90.5 22t61.5 59.5t22 86.5
q0 48 -22 86t-61.5 59t-90.5 21t-90.5 -21t-61.5 -59t-22 -86q0 -49 22 -86.5t61.5 -59.5t90.5 -22z" />
    <glyph glyph-name="e" unicode="e" horiz-adv-x="724" 
d="M383 -10q-92 0 -163 35t-110.5 95.5t-39.5 138.5q0 64 23 115t63.5 88t95.5 57t119 20q58 0 108.5 -19.5t88 -54t58 -82t19.5 -104.5l-1 -47h-483l-23 86h403l-16 -15v22q-4 31 -26 54.5t-55.5 37.5t-72.5 14q-55 0 -96 -17.5t-63.5 -53.5t-22.5 -92q0 -51 26.5 -88.5
t74 -58.5t110.5 -21q54 0 93 14.5t72 39.5l58 -85q-29 -23 -68 -41t-83 -28t-89 -10z" />
    <glyph glyph-name="f" unicode="f" horiz-adv-x="528" 
d="M176 0v553q0 54 24 96.5t66.5 66.5t98.5 24q43 0 75.5 -12.5t52.5 -30.5l-38 -96q-15 11 -34.5 19.5t-38.5 8.5q-30 0 -49 -10t-28 -28t-9 -41v-550h-60h-31h-29zM78 404v108h381v-108h-381z" />
    <glyph glyph-name="g" unicode="g" horiz-adv-x="798" 
d="M387 -230q-73 0 -135 18.5t-100 46.5l43 93q21 -13 49.5 -24.5t63 -19t72.5 -7.5q54 0 92.5 18.5t59.5 56t21 91.5v81l18 -7q-7 -30 -39.5 -58t-80.5 -46t-102 -18q-80 0 -141.5 35t-97 95.5t-35.5 139.5t36 140.5t99 97t144 35.5q27 0 57.5 -6.5t59 -18.5t52.5 -28
t39 -34.5t18 -37.5l-26 -8l2 122h120v-475q0 -70 -21.5 -122t-60.5 -88t-92 -54t-115 -18zM380 100q53 0 93 21t62 58t22 85q0 49 -22.5 86.5t-62 58.5t-92.5 21t-93.5 -21.5t-64 -59t-23.5 -85.5q0 -47 23.5 -84.5t64 -58.5t93.5 -21z" />
    <glyph glyph-name="h" unicode="h" horiz-adv-x="774" 
d="M129 0v740h123v-337l-31 -10q11 38 43.5 70.5t79.5 53.5t99 21q68 0 114 -27t68.5 -76t22.5 -117v-318h-123v302q0 42 -15 70.5t-43.5 43.5t-66.5 14q-32 0 -59 -11t-47 -29.5t-30.5 -41.5t-10.5 -48v-300h-62h-38.5h-23.5z" />
    <glyph glyph-name="i" unicode="i" horiz-adv-x="398" 
d="M139 0v527h123v-527h-123zM199 643q-37 0 -57.5 18.5t-20.5 52.5q0 32 21 52t57 20q37 0 58 -18.5t21 -53.5q0 -31 -21.5 -51t-57.5 -20z" />
    <glyph glyph-name="j" unicode="j" horiz-adv-x="418" 
d="M62 -201l-47 99q54 0 86.5 19t48 56.5t15.5 93.5v460h123v-489q0 -76 -28.5 -129.5t-79 -81.5t-118.5 -28zM228 642q-37 0 -57.5 19t-20.5 53q0 31 21 51t57 20q38 0 58.5 -18.5t20.5 -52.5q0 -32 -21 -52t-58 -20z" />
    <glyph glyph-name="k" unicode="k" horiz-adv-x="740" 
d="M238 149l-18 115l297 263h167zM129 0v740h120v-740h-120zM533 0l-224 259l85 74l292 -333h-153z" />
    <glyph glyph-name="l" unicode="l" horiz-adv-x="379" 
d="M127 0v740h124v-740h-124z" />
    <glyph glyph-name="m" unicode="m" horiz-adv-x="1138" 
d="M122 0v527h121l2 -122h-28q10 24 30.5 47.5t49.5 42t64 30t75 11.5q47 0 85 -14.5t63 -46.5t35 -81l-27 6l8 16q13 22 35 43t51 38.5t63 28t69 10.5q71 0 115.5 -27t65 -77t20.5 -118v-314h-124v302q0 40 -11.5 68t-36 42.5t-62.5 14.5q-32 0 -60.5 -10.5t-49.5 -29.5
t-32.5 -43.5t-11.5 -52.5v-291h-124v303q0 39 -13 66.5t-39 42.5t-66 15q-31 0 -57 -11t-45.5 -29.5t-30 -40.5t-10.5 -46v-300h-124z" />
    <glyph glyph-name="n" unicode="n" horiz-adv-x="774" 
d="M129 0v527h120l3 -124l-31 -9q14 37 46 69.5t77 53.5t96 21q68 0 115 -26.5t70 -76t23 -117.5v-318h-123v303q0 41 -15 69t-43.5 43t-66.5 14q-32 0 -59 -11t-47 -29.5t-30.5 -41t-10.5 -46.5v-301h-62h-38.5h-23.5z" />
    <glyph glyph-name="o" unicode="o" horiz-adv-x="762" 
d="M381 -10q-89 0 -158 35.5t-108.5 97.5t-39.5 141t39.5 141t108.5 97.5t158 35.5t158 -35.5t108.5 -97.5t39.5 -141t-39.5 -141t-108.5 -97.5t-158 -35.5zM381 99q51 0 92.5 22t65 59t23.5 84q0 48 -23.5 85.5t-65 58.5t-92.5 21q-50 0 -92 -21.5t-66 -58.5t-23 -85
q-1 -47 23 -84t66 -59t92 -22z" />
    <glyph glyph-name="p" unicode="p" horiz-adv-x="791" 
d="M129 -220v747h121l3 -120l-22 9q7 30 38.5 57.5t78.5 45t99 17.5q80 0 140 -35t94.5 -96t34.5 -141q0 -79 -34 -140.5t-95 -97t-139 -35.5q-55 0 -103 19t-80.5 48t-40.5 59l30 14v-351h-125zM423 100q52 0 90.5 21t61 58t22.5 85t-22 84.5t-60.5 57.5t-91.5 21
q-51 0 -90.5 -20.5t-61.5 -57.5t-22 -85t22 -85t61.5 -58t90.5 -21z" />
    <glyph glyph-name="q" unicode="q" horiz-adv-x="779" 
d="M535 -224v358l25 -6q-1 -24 -19.5 -48t-49.5 -44.5t-69.5 -33t-80.5 -12.5q-80 0 -141.5 35.5t-95.5 97.5t-34 141q0 80 35 141.5t96 97t140 35.5q46 0 86.5 -12t72 -32.5t49.5 -45.5t19 -50l-32 -3l2 133h120v-752h-123zM366 99q51 0 90.5 21t61 58.5t21.5 85.5
t-21.5 85.5t-61 58.5t-90.5 21q-52 0 -91 -21.5t-61.5 -58.5t-22.5 -85t22.5 -85.5t61.5 -58.5t91 -21z" />
    <glyph glyph-name="r" unicode="r" horiz-adv-x="571" 
d="M129 0v527h121l3 -178l-25 24q13 46 44.5 83.5t72.5 59.5t85 22q25 0 49 -5t38 -13l-33 -133q-16 10 -38.5 15.5t-45.5 5.5q-32 0 -59 -11.5t-46.5 -31t-30.5 -44t-11 -52.5v-269h-124z" />
    <glyph glyph-name="s" unicode="s" horiz-adv-x="616" 
d="M319 -10q-80 0 -144.5 23.5t-107.5 71.5l80 71q34 -35 79 -52.5t97 -17.5q19 0 38 3.5t34.5 10.5t24 18.5t8.5 26.5q0 26 -30 40q-18 6 -44 13.5t-60 14.5q-58 12 -100.5 28t-68.5 39q-21 19 -32 44.5t-11 57.5q0 35 17.5 64t49 49.5t73 31.5t88.5 11q43 0 87 -9.5
t82.5 -27.5t65.5 -46l-66 -77q-22 18 -51 32.5t-60 23.5t-58 9q-20 0 -40 -3.5t-34.5 -10t-23 -17t-8.5 -25.5q-1 -11 5.5 -20.5t16.5 -17.5q16 -10 44.5 -18t69.5 -17q55 -11 96.5 -26.5t68.5 -36.5q21 -17 32 -40.5t11 -53.5q0 -50 -30.5 -87.5t-81.5 -58.5t-117 -21z" />
    <glyph glyph-name="t" unicode="t" horiz-adv-x="535" 
d="M192 0v673h123v-673h-123zM64 413v114h398v-114h-398z" />
    <glyph glyph-name="u" unicode="u" horiz-adv-x="768" 
d="M326 -10q-62 0 -108 28t-71.5 81t-25.5 127v301h123v-271q0 -51 14.5 -85.5t44 -52.5t72.5 -18q31 0 57.5 10t46.5 28.5t31.5 44t11.5 56.5v288h123v-527h-120l-2 110l22 12q-12 -35 -43 -65t-75.5 -48.5t-100.5 -18.5z" />
    <glyph glyph-name="v" unicode="v" horiz-adv-x="704" 
d="M299 0l-253 527h138l182 -411l-30 -7l191 418h134l-262 -527h-100z" />
    <glyph glyph-name="w" unicode="w" horiz-adv-x="912" 
d="M231 0l-185 527l130 1l120 -383l-22 2l137 302h84l141 -303l-22 -2l128 383h127l-191 -527h-89l-156 346l40 3l-154 -349h-88z" />
    <glyph glyph-name="x" unicode="x" horiz-adv-x="750" 
d="M521 0l-178 214l-26 32l-237 281h162l164 -204l26 -33l248 -290h-159zM71 0l233 283l77 -79l-155 -204h-155zM436 244l-72 82l149 201h155z" />
    <glyph glyph-name="y" unicode="y" horiz-adv-x="740" 
d="M208 -230l127 259l-1 -81l-288 579h143l149 -321q17 -32 30 -63t20 -59l-25 -6q11 26 24.5 58.5t28.5 69.5l135 321h143l-253 -529l-105 -228h-128z" />
    <glyph glyph-name="z" unicode="z" horiz-adv-x="605" 
d="M70 0v88l328 362l7 -25h-335v102h459v-88l-321 -355l-10 18h338v-102h-466z" />
    <glyph glyph-name="braceleft" unicode="{" horiz-adv-x="555" 
d="M465 -202q-53 9 -94.5 24t-71 37.5t-45.5 55.5t-16 78l1 95q1 55 -28.5 82.5t-84.5 28.5h-42v100h44q55 0 83.5 30t27.5 83l-1 95q0 81 53.5 127.5t173.5 67.5l24 -91q-43 -11 -72.5 -25t-45 -38t-15.5 -65l2 -85q1 -59 -32.5 -97t-99.5 -54l-1 7q67 -18 100.5 -56
t32.5 -96l-2 -85q0 -40 14.5 -63t44.5 -36.5t74 -26.5z" />
    <glyph glyph-name="bar" unicode="|" horiz-adv-x="368" 
d="M122 -193v933h124v-933h-124z" />
    <glyph glyph-name="braceright" unicode="}" horiz-adv-x="555" 
d="M89 -202l-24 91q45 11 74.5 25t44.5 38t14 65l-2 85q0 59 33.5 97t99.5 54v-7q-66 18 -99.5 56t-33.5 96l2 85q1 40 -13.5 63t-44 37t-75.5 26l24 93q54 -9 95.5 -24t71.5 -37.5t45 -55.5t15 -78l-1 -95q0 -55 29 -82.5t84 -28.5h42v-100h-44q-55 0 -83 -30t-28 -83
l1 -95q1 -81 -52.5 -127.5t-174.5 -67.5z" />
    <glyph glyph-name="asciitilde" unicode="~" horiz-adv-x="659" 
d="M446 238q-19 0 -41.5 6t-46 14.5t-42.5 17.5q-19 7 -37.5 14t-35.5 12t-29 5q-22 0 -37.5 -17t-14.5 -47l-97 -2q0 81 38.5 127t112.5 46q15 0 32 -3.5t34.5 -9t34 -11.5t30.5 -13q17 -7 35.5 -14.5t35 -12.5t29.5 -5q24 0 37.5 17.5t12.5 46.5l96 -1q0 -49 -16.5 -87.5
t-49.5 -60.5t-81 -22z" />
    <glyph glyph-name="uni00A0" unicode="&#xa0;" horiz-adv-x="376" 
 />
    <glyph glyph-name="exclamdown" unicode="&#xa1;" horiz-adv-x="387" 
d="M227 284q11 -58 19.5 -124t14.5 -133t6 -128v-73h-154v73q0 62 5.5 129.5t15 133.5t19.5 122h74zM191 541q44 0 66.5 -21.5t22.5 -58.5q0 -33 -23 -56.5t-66 -23.5q-44 0 -66.5 21t-22.5 59q0 33 23.5 56.5t65.5 23.5z" />
    <glyph glyph-name="cent" unicode="&#xa2;" horiz-adv-x="683" 
d="M368 78q-83 0 -148 36t-103.5 98t-38.5 140t38.5 140t103.5 98t148 36q80 0 146.5 -26.5t104.5 -73.5l-68 -88q-20 22 -48.5 40t-61 28.5t-65.5 10.5q-51 0 -91 -21.5t-62 -59t-22 -84.5t23.5 -84t63 -59t89.5 -22q37 0 68.5 9.5t58 25t47.5 35.5l68 -87
q-43 -39 -108 -65.5t-143 -26.5zM314 0v108l14 37v415l-14 46v96h113v-97l-12 -37v-426l12 -35v-107h-113z" />
    <glyph glyph-name="sterling" unicode="&#xa3;" horiz-adv-x="752" 
d="M236 53l-82 21q15 9 28 27t21 44t8 54q0 16 -2.5 33.5t-7 37t-11 39.5t-13.5 43q-10 31 -16.5 54.5t-9.5 43t-3 37.5q0 68 32 118t91 78.5t139 28.5q83 0 139.5 -26.5t81.5 -68.5l-90 -74q-17 17 -37 29t-44 18t-52 6q-43 0 -73.5 -14.5t-46.5 -40t-16 -59.5
q0 -31 9.5 -64.5t20.5 -64.5q10 -33 19.5 -66t9.5 -61q0 -34 -12 -63.5t-33 -56.5t-50 -53zM525 -21q-32 0 -71.5 9.5t-71.5 18.5q-21 6 -44.5 12t-45.5 10.5t-41 4.5q-36 0 -73 -13t-69 -29l-46 92q40 29 89.5 44.5t104.5 15.5q37 0 70 -7.5t76 -21.5q29 -9 60 -17.5
t60 -8.5t57 12.5t54 30.5l59 -85q-32 -33 -77 -50.5t-91 -17.5zM80 309v95h470v-95h-470z" />
    <glyph glyph-name="currency" unicode="&#xa4;" horiz-adv-x="666" 
d="M336 114q-54 0 -98 25t-69.5 68t-25.5 96t25.5 96t69.5 68.5t98 25.5t97.5 -25.5t69 -68.5t25.5 -96t-25.5 -96t-69 -68t-97.5 -25zM186 74l-81 81l90 95l80 -82zM191 363l-93 88l80 81l94 -90zM336 216q24 0 41.5 11.5t27.5 31t10 44.5q0 26 -10 46t-27.5 31t-41.5 11
q-23 0 -41 -11t-28 -31t-10 -46q0 -25 10 -44.5t28 -31t41 -11.5zM486 81l-94 89l80 81l95 -90zM476 362l-81 80l92 97l81 -80z" />
    <glyph glyph-name="yen" unicode="&#xa5;" horiz-adv-x="790" 
d="M340 0v335l12 -61l-320 426h160l239 -327l-46 2l223 325h150l-299 -421l11 64v-343h-130zM189 96v87l452 -2v-87zM189 236v86l452 -1v-87z" />
    <glyph glyph-name="brokenbar" unicode="&#xa6;" horiz-adv-x="372" 
d="M124 -202v398h125v-398h-125zM124 343v397h125v-397h-125z" />
    <glyph glyph-name="section" unicode="&#xa7;" horiz-adv-x="677" 
d="M418 124l-37 68q33 1 55 10t34 25t12 36q0 27 -21 42t-56 24l-137 33q-31 7 -60.5 21t-53.5 35.5t-38.5 52t-14.5 70.5q0 36 14.5 67t43.5 54.5t72.5 37t102.5 13.5q50 0 96.5 -10.5t86 -30.5t67.5 -49l-69 -86q-27 24 -58 38.5t-63.5 22t-62.5 7.5q-46 0 -75.5 -15.5
t-29.5 -46.5q0 -15 9 -28t28 -23.5t52 -18.5l128 -30q82 -21 121 -62t38 -105q-2 -43 -23 -76.5t-62 -52.5t-99 -23zM344 -151q-51 0 -101 11.5t-92.5 33t-72.5 48.5l63 90q47 -37 100 -56.5t105 -19.5q48 0 77.5 15t29.5 46q0 15 -9.5 26.5t-29.5 22t-52 17.5l-135 33
q-79 21 -117 61t-38 104q0 41 20.5 75t59.5 55.5t98 24.5l35 -71q-27 -1 -47 -10t-31 -24t-11 -36q0 -28 22 -44.5t61 -26.5l123 -29q54 -13 94 -35t61.5 -55t21.5 -79q0 -50 -26 -90t-78 -63.5t-131 -23.5z" />
    <glyph glyph-name="dieresis" unicode="&#xa8;" horiz-adv-x="500" 
d="M357 639q-36 0 -55.5 19t-19.5 54q0 32 20 52t55 20q36 0 56 -19t20 -53q0 -32 -20.5 -52.5t-55.5 -20.5zM143 639q-36 0 -55.5 19t-19.5 54q0 32 20 52t55 20q36 0 55.5 -19t19.5 -53q0 -32 -20 -52.5t-55 -20.5z" />
    <glyph glyph-name="copyright" unicode="&#xa9;" horiz-adv-x="863" 
d="M432 -15q-76 0 -142.5 28t-117 78.5t-78 116t-27.5 142.5t27.5 142.5t78 116t117 78.5t142.5 28q74 0 140.5 -28t116.5 -78.5t79 -116t29 -142.5t-29 -142.5t-79 -116t-116 -78.5t-141 -28zM449 142q-59 0 -107.5 26.5t-77.5 73.5t-29 108q0 57 28.5 104t77 75t108.5 28
q34 0 67.5 -12t63.5 -34l-41 -86q-16 11 -30.5 19t-28 12.5t-27.5 4.5q-33 0 -58.5 -15t-40 -40t-14.5 -56q0 -33 14.5 -58.5t40.5 -39.5t58 -14q21 0 44 9t45 26l42 -87q-32 -22 -66.5 -33t-68.5 -11zM432 63q58 0 110.5 22.5t92 61.5t62 91t22.5 112q0 61 -22.5 112.5
t-62 91t-92 61.5t-110.5 22q-60 0 -112.5 -22t-91.5 -61.5t-61 -91t-22 -112.5q0 -60 22 -112t61 -91t91.5 -61.5t112.5 -22.5z" />
    <glyph glyph-name="ordfeminine" unicode="&#xaa;" horiz-adv-x="436" 
d="M176 391q-40 0 -68.5 22.5t-43 61t-14.5 87.5q0 45 17.5 81t48.5 57t72 21q50 0 77 -32.5t27 -94.5l-17 54v67h101v-314h-101v73l17 36q0 -28 -14.5 -55.5t-40.5 -45.5t-61 -18zM211 466q20 0 35.5 11t24 31.5t8.5 47.5q0 42 -18.5 66t-50.5 24q-16 0 -29.5 -11.5
t-21.5 -31t-8 -42.5q0 -27 7 -49t20 -34t33 -12z" />
    <glyph glyph-name="guillemotleft" unicode="&#xab;" horiz-adv-x="665" 
d="M505 42l-192 213v6l191 218l77 -56l-144 -176l1 27l144 -177zM243 42l-192 213v6l191 218l77 -56l-144 -176l1 27l144 -177z" />
    <glyph glyph-name="logicalnot" unicode="&#xac;" horiz-adv-x="786" 
d="M582 113v206l35 -33h-542v122h636v-295h-129z" />
    <glyph glyph-name="uni00AD" unicode="&#xad;" horiz-adv-x="501" 
d="M83 229v116h337v-116h-337z" />
    <glyph glyph-name="registered" unicode="&#xae;" horiz-adv-x="580" 
d="M293 251q-65 0 -119.5 31t-86.5 84t-32 118q0 49 18.5 91.5t51.5 74t76 49.5t92 18q48 0 91 -18t75 -50t50.5 -74t18.5 -91t-18.5 -91.5t-50.5 -74t-74.5 -49.5t-91.5 -18zM294 314q48 0 86 22.5t61.5 61.5t23.5 86t-23.5 86t-62 62t-85.5 23q-49 0 -88.5 -23t-64 -62
t-24.5 -86t24.5 -86t64 -61.5t88.5 -22.5zM326 367l-37 96l59 15l48 -111h-70zM201 367v239h114q35 0 56.5 -20.5t21.5 -52.5q0 -35 -23.5 -55t-54.5 -20h-65l16 10v-101h-65zM266 495l-15 7h44q16 0 25.5 7t9.5 18q0 12 -8.5 18.5t-24.5 6.5h-48l17 8v-65z" />
    <glyph glyph-name="macron" unicode="&#xaf;" horiz-adv-x="437" 
d="M96 639v84h308v-84h-308z" />
    <glyph glyph-name="degree" unicode="&#xb0;" horiz-adv-x="532" 
d="M266 397q-45 0 -81.5 21.5t-57.5 57t-21 77.5q0 45 21 80.5t57 56.5t82 21t82 -21t57 -56.5t21 -79.5t-21 -79.5t-57.5 -56.5t-81.5 -21zM266 474q21 0 37.5 11t26.5 29t10 40t-10 39.5t-26.5 28.5t-37.5 11t-38 -10.5t-26.5 -28.5t-9.5 -41q0 -22 10 -39.5t26.5 -28.5
t37.5 -11z" />
    <glyph glyph-name="plusminus" unicode="&#xb1;" horiz-adv-x="687" 
d="M84 295v104h518v-104h-518zM85 -3v106h518v-106h-518zM283 157v392h120v-392h-120z" />
    <glyph glyph-name="uni00B2" unicode="&#xb2;" horiz-adv-x="353" 
d="M63 418l-10 75l100 94q11 9 24.5 22t23.5 29.5t10 31.5t-8.5 24.5t-24.5 9.5q-19 0 -38 -13.5t-38 -39.5l-61 45q16 25 37.5 45t48.5 32t60 12q37 0 63 -14.5t39.5 -37.5t13.5 -53q0 -31 -16.5 -57.5t-39.5 -49t-44 -38.5l-63 -57l4 15h165v-75h-246z" />
    <glyph glyph-name="uni00B3" unicode="&#xb3;" horiz-adv-x="347" 
d="M169 412q-22 0 -43 4t-40 11.5t-37 18.5l38 63q19 -11 36 -16.5t34 -5.5q24 0 41.5 13t17.5 36q0 18 -14.5 29.5t-39.5 11.5q-15 0 -29.5 -3.5t-26.5 -7.5l-22 58l116 92l15 -14h-141v76h197l8 -73l-106 -83l-11 7q6 3 15.5 6t16.5 3q50 0 79.5 -29t29.5 -76
q0 -37 -19 -64t-49.5 -42t-65.5 -15z" />
    <glyph glyph-name="acute" unicode="&#xb4;" horiz-adv-x="500" 
d="M177 598l-39 59l156 130l68 -89z" />
    <glyph glyph-name="uni00B5" unicode="&#xb5;" horiz-adv-x="729" 
d="M106 -159v686h127v-299q0 -38 12 -66.5t38.5 -44.5t67.5 -16q32 0 59.5 10.5t47 29t31 42t11.5 50.5v294h127v-527h-124l-2 102l21 13q-18 -38 -45.5 -66t-65.5 -43.5t-88 -15.5q-19 0 -39.5 5t-38 16t-24.5 25l10 27l2 -222h-127z" />
    <glyph glyph-name="paragraph" unicode="&#xb6;" horiz-adv-x="860" 
d="M306 0v314l33 -37h-45q-67 0 -115.5 26.5t-74.5 73.5t-26 108q0 66 29.5 114t86 74.5t137.5 26.5h401v-700h-137v660l29 -70h-245l64 62v-652h-137z" />
    <glyph glyph-name="periodcentered" unicode="&#xb7;" horiz-adv-x="366" 
d="M183 253q-44 0 -66.5 21.5t-22.5 58.5q0 33 23 56.5t66 23.5q44 0 66.5 -21t22.5 -59q0 -33 -23 -56.5t-66 -23.5z" />
    <glyph glyph-name="cedilla" unicode="&#xb8;" horiz-adv-x="500" 
d="M156 -245l-7 60q24 0 49.5 6t42.5 17t17 24q0 14 -15 22t-35.5 12.5t-35.5 4.5l-14 14l70 109h67l-44 -69q48 -9 74.5 -32.5t26.5 -61.5q0 -28 -18 -48.5t-47.5 -33.5t-63.5 -19t-67 -5z" />
    <glyph glyph-name="uni00B9" unicode="&#xb9;" horiz-adv-x="284" 
d="M122 429v281l10 -26l-54 -34l-39 72l105 62h67v-355h-44h-21h-24z" />
    <glyph glyph-name="ordmasculine" unicode="&#xba;" horiz-adv-x="450" 
d="M224 392q-46 0 -82 20.5t-57 56.5t-21 81q0 46 21 83t57 58t82 21t82.5 -21.5t58 -58t21.5 -82.5q0 -45 -21 -80.5t-58 -56.5t-83 -21zM224 468q20 0 34 10.5t22 29.5t8 43q0 26 -8 45t-22 29.5t-34 10.5q-19 0 -33 -11t-22 -30t-8 -44q0 -24 7.5 -43t22 -29.5
t33.5 -10.5z" />
    <glyph glyph-name="guillemotright" unicode="&#xbb;" horiz-adv-x="660" 
d="M418 42l-77 56l144 176l-1 -27l-144 177l77 55l193 -213v-6zM161 42l-77 56l144 176l-1 -27l-144 177l77 55l193 -213v-6z" />
    <glyph glyph-name="onequarter" unicode="&#xbc;" horiz-adv-x="916" 
d="M144 359v281l10 -26l-54 -34l-39 72l105 62h67v-355h-44h-21h-24zM154 0l476 700h116l-477 -700h-115zM794 153h76v-76h-76v76zM621 119l-16 34h154l-35 -26v157l29 -11zM810 -2h-92v102l33 -23h-176l-18 73l172 211h81v-363z" />
    <glyph glyph-name="onehalf" unicode="&#xbd;" horiz-adv-x="917" 
d="M144 359v281l10 -26l-54 -34l-39 72l105 62h67v-355h-44h-21h-24zM142 0l476 700h116l-477 -700h-115zM615 0l-10 75l100 94q11 9 24.5 22t23.5 29.5t10 31.5t-8.5 24.5t-24.5 9.5q-19 0 -38 -13.5t-38 -39.5l-61 45q16 25 37.5 45t48.5 32t60 12q37 0 63 -14.5
t39.5 -37.5t13.5 -53q0 -31 -16.5 -57.5t-39.5 -49t-44 -38.5l-63 -57l4 15h165v-75h-246z" />
    <glyph glyph-name="threequarters" unicode="&#xbe;" horiz-adv-x="943" 
d="M169 342q-22 0 -43 4t-40 11.5t-37 18.5l38 63q19 -11 36 -16.5t34 -5.5q24 0 41.5 13t17.5 36q0 18 -14.5 29.5t-39.5 11.5q-15 0 -29.5 -3.5t-26.5 -7.5l-22 58l116 92l15 -14h-141v76h197l8 -73l-106 -83l-11 7q6 3 15.5 6t16.5 3q50 0 79.5 -29t29.5 -76
q0 -37 -19 -64t-49.5 -42t-65.5 -15zM177 0l476 700h116l-477 -700h-115zM821 153h76v-76h-76v76zM648 119l-16 34h154l-35 -26v157l29 -11zM837 -2h-92v102l33 -23h-176l-18 73l172 211h81v-363z" />
    <glyph glyph-name="questiondown" unicode="&#xbf;" horiz-adv-x="647" 
d="M376 313l28 -144q-33 -7 -63 -16.5t-56 -22t-45 -28t-30 -34.5t-11 -40q0 -27 16 -46t42 -28.5t57 -9.5q54 0 97.5 26.5t76.5 76.5l87 -83q-48 -66 -117 -103.5t-150 -37.5q-71 0 -126.5 26t-87.5 71.5t-32 102.5q0 36 16.5 69.5t46.5 62t68.5 50.5t83.5 36l14 72h85z
M418 465q0 -33 -23.5 -56.5t-65.5 -23.5q-44 0 -66.5 21t-22.5 59q0 33 23.5 56.5t65.5 23.5q44 0 66.5 -21.5t22.5 -58.5z" />
    <glyph glyph-name="Agrave" unicode="&#xc0;" horiz-adv-x="815" 
d="M43 0l301 700h129l299 -700h-137l-180 422q-6 16 -14.5 39t-18 48.5t-18 49t-13.5 39.5l29 1q-6 -21 -14.5 -44.5t-17.5 -47t-18 -46t-16 -42.5l-180 -419h-131zM178 156l47 113h357l37 -113h-441zM494 752l-211 77l52 99l192 -113z" />
    <glyph glyph-name="Aacute" unicode="&#xc1;" horiz-adv-x="815" 
d="M43 0l301 700h129l299 -700h-137l-180 422q-6 16 -14.5 39t-18 48.5t-18 49t-13.5 39.5l29 1q-6 -21 -14.5 -44.5t-17.5 -47t-18 -46t-16 -42.5l-180 -419h-131zM178 156l47 113h357l37 -113h-441zM328 752l-31 63l192 113l50 -99z" />
    <glyph glyph-name="Acircumflex" unicode="&#xc2;" horiz-adv-x="815" 
d="M43 0l301 700h129l299 -700h-137l-180 422q-6 16 -14.5 39t-18 48.5t-18 49t-13.5 39.5l29 1q-6 -21 -14.5 -44.5t-17.5 -47t-18 -46t-16 -42.5l-180 -419h-131zM178 156l47 113h357l37 -113h-441zM280 755l-41 42l128 103h79l128 -103l-41 -42l-141 67h29z" />
    <glyph glyph-name="Atilde" unicode="&#xc3;" horiz-adv-x="815" 
d="M43 0l301 700h129l299 -700h-137l-180 422q-6 16 -14.5 39t-18 48.5t-18 49t-13.5 39.5l29 1q-6 -21 -14.5 -44.5t-17.5 -47t-18 -46t-16 -42.5l-180 -419h-131zM178 156l47 113h357l37 -113h-441zM482 768q-22 0 -44.5 7t-44.5 16q-17 7 -29 11t-22 4q-14 0 -22 -9.5
t-8 -28.5h-85q0 58 35 90.5t83 32.5q20 0 39.5 -6t40.5 -16q15 -6 27.5 -10t21.5 -4q14 0 21.5 10t6.5 26h84q0 -32 -12.5 -60.5t-36 -45.5t-55.5 -17z" />
    <glyph glyph-name="Adieresis" unicode="&#xc4;" horiz-adv-x="815" 
d="M43 0l301 700h129l299 -700h-137l-180 422q-6 16 -14.5 39t-18 48.5t-18 49t-13.5 39.5l29 1q-6 -21 -14.5 -44.5t-17.5 -47t-18 -46t-16 -42.5l-180 -419h-131zM178 156l47 113h357l37 -113h-441zM517 757q-38 0 -57 19.5t-19 52.5q0 29 19 50.5t57 21.5q37 0 56 -19.5
t19 -52.5q0 -29 -19 -50.5t-56 -21.5zM297 757q-37 0 -56 19.5t-19 52.5q0 29 19 50.5t56 21.5q38 0 57 -19.5t19 -52.5q0 -29 -19 -50.5t-57 -21.5z" />
    <glyph glyph-name="Aring" unicode="&#xc5;" horiz-adv-x="815" 
d="M43 0l301 700h129l299 -700h-137l-180 422q-6 16 -14.5 39t-18 48.5t-18 49t-13.5 39.5l29 1q-6 -21 -14.5 -44.5t-17.5 -47t-18 -46t-16 -42.5l-180 -419h-131zM178 156l47 113h357l37 -113h-441zM406 702q-30 0 -57 15.5t-43.5 41t-16.5 55.5q0 32 16.5 57.5t43.5 41
t57 15.5q31 0 58 -15.5t43.5 -41t16.5 -57.5q0 -30 -16.5 -55.5t-43.5 -41t-58 -15.5zM406 770q20 0 33.5 12.5t13.5 31.5q0 21 -14 33t-33 12t-32.5 -12.5t-13.5 -32.5q0 -19 13.5 -31.5t32.5 -12.5z" />
    <glyph glyph-name="AE" unicode="&#xc6;" horiz-adv-x="1188" 
d="M35 0l544 700h505v-114h-381v-179h336v-112h-336v-181h381v-114h-506v149h-301l85 112h216v304l27 -10l-426 -555h-144z" />
    <glyph glyph-name="Ccedilla" unicode="&#xc7;" horiz-adv-x="805" 
d="M451 -10q-80 0 -148 26t-118.5 74t-78.5 114.5t-28 146.5q0 77 29.5 142t81 113.5t120 75.5t146.5 27q58 0 111.5 -16t98 -42t73.5 -58l-80 -98q-29 28 -61 47.5t-68.5 30.5t-77.5 11q-47 0 -91 -16.5t-77 -47.5t-52.5 -74t-19.5 -96q0 -55 19.5 -98.5t54.5 -74t81 -47
t99 -16.5q44 0 81 12t67 30.5t55 40.5l63 -104q-26 -25 -69.5 -49t-98.5 -39t-112 -15zM350 -245l-8 60q25 0 50 6t42.5 17t17.5 24q0 14 -15 22t-35.5 12.5t-36.5 4.5l-13 14l70 109h67l-44 -69q47 -9 74 -32.5t27 -61.5q0 -28 -18 -48.5t-47 -33.5t-63.5 -19t-67.5 -5z
" />
    <glyph glyph-name="Egrave" unicode="&#xc8;" horiz-adv-x="749" 
d="M128 0v700h514v-118h-386v-464h390v-118h-518zM192 300v116h399v-116h-399zM482 752l-211 77l52 99l192 -113z" />
    <glyph glyph-name="Eacute" unicode="&#xc9;" horiz-adv-x="749" 
d="M128 0v700h514v-118h-386v-464h390v-118h-518zM192 300v116h399v-116h-399zM317 752l-31 63l192 113l50 -99z" />
    <glyph glyph-name="Ecircumflex" unicode="&#xca;" horiz-adv-x="749" 
d="M128 0v700h514v-118h-386v-464h390v-118h-518zM192 300v116h399v-116h-399zM269 755l-41 42l128 103h79l128 -103l-41 -42l-141 67h29z" />
    <glyph glyph-name="Edieresis" unicode="&#xcb;" horiz-adv-x="749" 
d="M128 0v700h514v-118h-386v-464h390v-118h-518zM192 300v116h399v-116h-399zM505 757q-38 0 -57 19.5t-19 52.5q0 29 19 50.5t57 21.5q37 0 56 -19.5t19 -52.5q0 -29 -19 -50.5t-56 -21.5zM285 757q-37 0 -56 19.5t-19 52.5q0 29 19 50.5t56 21.5q38 0 57 -19.5t19 -52.5
q0 -29 -19 -50.5t-57 -21.5z" />
    <glyph glyph-name="Igrave" unicode="&#xcc;" horiz-adv-x="655" 
d="M120 0v118h143v464h-143v118h416v-118h-143v-464h143v-118h-416zM415 752l-211 77l52 99l192 -113z" />
    <glyph glyph-name="Iacute" unicode="&#xcd;" horiz-adv-x="655" 
d="M120 0v118h143v464h-143v118h416v-118h-143v-464h143v-118h-416zM249 752l-31 63l192 113l50 -99z" />
    <glyph glyph-name="Icircumflex" unicode="&#xce;" horiz-adv-x="655" 
d="M120 0v118h143v464h-143v118h416v-118h-143v-464h143v-118h-416zM201 755l-41 42l128 103h79l128 -103l-41 -42l-141 67h29z" />
    <glyph glyph-name="Idieresis" unicode="&#xcf;" horiz-adv-x="655" 
d="M120 0v118h143v464h-143v118h416v-118h-143v-464h143v-118h-416zM437 757q-38 0 -57 19.5t-19 52.5q0 29 19 50.5t57 21.5q37 0 56 -19.5t19 -52.5q0 -29 -19 -50.5t-56 -21.5zM217 757q-37 0 -56 19.5t-19 52.5q0 29 19 50.5t56 21.5q38 0 57 -19.5t19 -52.5
q0 -29 -19 -50.5t-57 -21.5z" />
    <glyph glyph-name="Eth" unicode="&#xd0;" horiz-adv-x="881" 
d="M64 301v98h344v-98h-344zM128 0v700h313q84 0 150.5 -26t114 -74t72 -111.5t24.5 -138.5q0 -76 -24.5 -140t-71.5 -111t-114 -73t-151 -26h-313zM258 101l-10 19h188q57 0 100.5 17t72.5 48t44 72.5t15 92.5q0 50 -15 92t-44.5 73t-72.5 48t-100 17h-191l13 17v-496z" />
    <glyph glyph-name="Ntilde" unicode="&#xd1;" horiz-adv-x="929" 
d="M128 0v700h121l462 -547l-18 -4q-5 30 -8 61.5t-5.5 64.5t-4 68t-2 71.5t-0.5 75.5v210h129v-700h-123l-464 539l22 7q3 -41 6 -74t6 -60.5t4.5 -51t2.5 -46t1 -43.5v-271h-129zM540 768q-22 0 -44.5 7t-44.5 16q-17 7 -29 11t-22 4q-14 0 -22 -9.5t-8 -28.5h-85
q0 58 35 90.5t83 32.5q20 0 39.5 -6t40.5 -16q15 -6 27.5 -10t21.5 -4q14 0 21.5 10t6.5 26h84q0 -32 -12.5 -60.5t-36 -45.5t-55.5 -17z" />
    <glyph glyph-name="Ograve" unicode="&#xd2;" horiz-adv-x="921" 
d="M460 -10q-83 0 -152.5 27t-121.5 76t-80 115t-28 143t28 143t80 115t121.5 76t152.5 27t153 -27t121 -76.5t79.5 -115t28.5 -142.5q0 -76 -28.5 -142t-79.5 -115.5t-121 -76.5t-153 -27zM460 114q55 0 100.5 17.5t79 50t52 75.5t18.5 94t-18.5 94t-52 75.5t-79 50
t-100.5 17.5q-54 0 -100 -17.5t-79.5 -50t-51.5 -75.5t-18 -94t18 -94t51.5 -75.5t79.5 -50t100 -17.5zM547 752l-211 77l52 99l192 -113z" />
    <glyph glyph-name="Oacute" unicode="&#xd3;" horiz-adv-x="921" 
d="M460 -10q-83 0 -152.5 27t-121.5 76t-80 115t-28 143t28 143t80 115t121.5 76t152.5 27t153 -27t121 -76.5t79.5 -115t28.5 -142.5q0 -76 -28.5 -142t-79.5 -115.5t-121 -76.5t-153 -27zM460 114q55 0 100.5 17.5t79 50t52 75.5t18.5 94t-18.5 94t-52 75.5t-79 50
t-100.5 17.5q-54 0 -100 -17.5t-79.5 -50t-51.5 -75.5t-18 -94t18 -94t51.5 -75.5t79.5 -50t100 -17.5zM382 752l-31 63l192 113l50 -99z" />
    <glyph glyph-name="Ocircumflex" unicode="&#xd4;" horiz-adv-x="921" 
d="M460 -10q-83 0 -152.5 27t-121.5 76t-80 115t-28 143t28 143t80 115t121.5 76t152.5 27t153 -27t121 -76.5t79.5 -115t28.5 -142.5q0 -76 -28.5 -142t-79.5 -115.5t-121 -76.5t-153 -27zM460 114q55 0 100.5 17.5t79 50t52 75.5t18.5 94t-18.5 94t-52 75.5t-79 50
t-100.5 17.5q-54 0 -100 -17.5t-79.5 -50t-51.5 -75.5t-18 -94t18 -94t51.5 -75.5t79.5 -50t100 -17.5zM333 755l-41 42l128 103h79l128 -103l-41 -42l-141 67h29z" />
    <glyph glyph-name="Otilde" unicode="&#xd5;" horiz-adv-x="921" 
d="M460 -10q-83 0 -152.5 27t-121.5 76t-80 115t-28 143t28 143t80 115t121.5 76t152.5 27t153 -27t121 -76.5t79.5 -115t28.5 -142.5q0 -76 -28.5 -142t-79.5 -115.5t-121 -76.5t-153 -27zM460 114q55 0 100.5 17.5t79 50t52 75.5t18.5 94t-18.5 94t-52 75.5t-79 50
t-100.5 17.5q-54 0 -100 -17.5t-79.5 -50t-51.5 -75.5t-18 -94t18 -94t51.5 -75.5t79.5 -50t100 -17.5zM535 768q-22 0 -44.5 7t-44.5 16q-17 7 -29 11t-22 4q-14 0 -22 -9.5t-8 -28.5h-85q0 58 35 90.5t83 32.5q20 0 39.5 -6t40.5 -16q15 -6 27.5 -10t21.5 -4q14 0 21.5 10
t6.5 26h84q0 -32 -12.5 -60.5t-36 -45.5t-55.5 -17z" />
    <glyph glyph-name="Odieresis" unicode="&#xd6;" horiz-adv-x="921" 
d="M460 -10q-83 0 -152.5 27t-121.5 76t-80 115t-28 143t28 143t80 115t121.5 76t152.5 27t153 -27t121 -76.5t79.5 -115t28.5 -142.5q0 -76 -28.5 -142t-79.5 -115.5t-121 -76.5t-153 -27zM460 114q55 0 100.5 17.5t79 50t52 75.5t18.5 94t-18.5 94t-52 75.5t-79 50
t-100.5 17.5q-54 0 -100 -17.5t-79.5 -50t-51.5 -75.5t-18 -94t18 -94t51.5 -75.5t79.5 -50t100 -17.5zM570 757q-38 0 -57 19.5t-19 52.5q0 29 19 50.5t57 21.5q37 0 56 -19.5t19 -52.5q0 -29 -19 -50.5t-56 -21.5zM350 757q-37 0 -56 19.5t-19 52.5q0 29 19 50.5t56 21.5
q38 0 57 -19.5t19 -52.5q0 -29 -19 -50.5t-57 -21.5z" />
    <glyph glyph-name="multiply" unicode="&#xd7;" horiz-adv-x="613" 
d="M464 40l-394 392l84 81l394 -392zM155 37l-79 84l386 388l79 -83z" />
    <glyph glyph-name="Oslash" unicode="&#xd8;" horiz-adv-x="927" 
d="M155 -33l-62 61l677 711l67 -55zM466 -10q-84 0 -153.5 27t-121.5 76t-79.5 115t-27.5 143t27.5 143t79.5 115t121.5 76t152.5 27t153 -27t121.5 -76.5t79.5 -115t28 -142.5q0 -76 -28 -142t-79.5 -115.5t-121.5 -76.5t-152 -27zM465 114q55 0 100.5 17.5t79 50t52 75.5
t18.5 94t-18.5 94t-52 75.5t-79 50t-100.5 17.5q-54 0 -99.5 -17.5t-79.5 -50t-52 -75.5t-18 -94t18 -94t52 -75.5t79.5 -50t99.5 -17.5z" />
    <glyph glyph-name="Ugrave" unicode="&#xd9;" horiz-adv-x="871" 
d="M435 -6q-93 0 -164 39t-111.5 107.5t-40.5 154.5v406h131v-399q0 -54 25 -96t67 -67t93 -25q55 0 98 25t68 67t25 96v399h126v-406q0 -86 -40.5 -154.5t-111.5 -107.5t-165 -39zM522 752l-211 77l52 99l192 -113z" />
    <glyph glyph-name="Uacute" unicode="&#xda;" horiz-adv-x="871" 
d="M435 -6q-93 0 -164 39t-111.5 107.5t-40.5 154.5v406h131v-399q0 -54 25 -96t67 -67t93 -25q55 0 98 25t68 67t25 96v399h126v-406q0 -86 -40.5 -154.5t-111.5 -107.5t-165 -39zM357 752l-31 63l192 113l50 -99z" />
    <glyph glyph-name="Ucircumflex" unicode="&#xdb;" horiz-adv-x="871" 
d="M435 -6q-93 0 -164 39t-111.5 107.5t-40.5 154.5v406h131v-399q0 -54 25 -96t67 -67t93 -25q55 0 98 25t68 67t25 96v399h126v-406q0 -86 -40.5 -154.5t-111.5 -107.5t-165 -39zM309 755l-41 42l128 103h79l128 -103l-41 -42l-141 67h29z" />
    <glyph glyph-name="Udieresis" unicode="&#xdc;" horiz-adv-x="871" 
d="M435 -6q-93 0 -164 39t-111.5 107.5t-40.5 154.5v406h131v-399q0 -54 25 -96t67 -67t93 -25q55 0 98 25t68 67t25 96v399h126v-406q0 -86 -40.5 -154.5t-111.5 -107.5t-165 -39zM545 757q-38 0 -57 19.5t-19 52.5q0 29 19 50.5t57 21.5q37 0 56 -19.5t19 -52.5
q0 -29 -19 -50.5t-56 -21.5zM325 757q-37 0 -56 19.5t-19 52.5q0 29 19 50.5t56 21.5q38 0 57 -19.5t19 -52.5q0 -29 -19 -50.5t-57 -21.5z" />
    <glyph glyph-name="Yacute" unicode="&#xdd;" horiz-adv-x="790" 
d="M340 0v335l12 -61l-320 426h160l239 -327l-46 2l223 325h150l-299 -421l11 64v-343h-130zM316 752l-31 63l192 113l50 -99z" />
    <glyph glyph-name="Thorn" unicode="&#xde;" horiz-adv-x="778" 
d="M128 0v700h130v-122h209q68 0 119.5 -27.5t81.5 -77t30 -115.5q0 -62 -30 -113t-81.5 -81t-119.5 -30h-209v-134h-130zM258 255h206q27 0 49.5 13.5t36 37t13.5 52.5t-13.5 51.5t-36 35.5t-49.5 13h-206v-203z" />
    <glyph glyph-name="germandbls" unicode="&#xdf;" horiz-adv-x="811" 
d="M517 -10q-55 0 -96.5 16t-70.5 45l52 83q29 -21 57.5 -31.5t57.5 -10.5q45 0 73 29t28 74q0 35 -12.5 62t-37.5 47.5t-59.5 35t-78.5 24.5v72q22 9 43 20.5t38.5 25t28 29t10.5 33.5q0 37 -31 58.5t-85 21.5q-69 0 -107 -35t-38 -93v-496h-121v499q0 68 31.5 121
t92.5 83.5t146 30.5q72 0 125 -22t82 -60.5t29 -88.5q0 -32 -17.5 -61.5t-48 -53.5t-69.5 -38l-2 31q43 -12 80 -34t66 -51.5t45 -67.5t16 -83q0 -62 -30 -110.5t-81 -76.5t-116 -28zM78 390v109h159v-109h-159z" />
    <glyph glyph-name="agrave" unicode="&#xe0;" horiz-adv-x="782" 
d="M334 -10q-77 0 -136.5 35.5t-94 97.5t-34.5 142q0 79 35 141t96.5 97t140.5 35q47 0 86.5 -12t69 -33.5t47.5 -47t22 -53.5l-29 3v132h123v-527h-124v134l27 -1q-5 -25 -24.5 -50.5t-51 -46t-70.5 -33.5t-83 -13zM367 99q51 0 90.5 21t61.5 58.5t22 86.5q0 47 -22 84
t-61.5 58.5t-90.5 21.5q-52 0 -91 -21.5t-60.5 -58.5t-21.5 -84q0 -49 21.5 -86.5t60.5 -58.5t91 -21zM439 600l-185 100l68 90l156 -131z" />
    <glyph glyph-name="aacute" unicode="&#xe1;" horiz-adv-x="782" 
d="M334 -10q-77 0 -136.5 35.5t-94 97.5t-34.5 142q0 79 35 141t96.5 97t140.5 35q47 0 86.5 -12t69 -33.5t47.5 -47t22 -53.5l-29 3v132h123v-527h-124v134l27 -1q-5 -25 -24.5 -50.5t-51 -46t-70.5 -33.5t-83 -13zM367 99q51 0 90.5 21t61.5 58.5t22 86.5q0 47 -22 84
t-61.5 58.5t-90.5 21.5q-52 0 -91 -21.5t-60.5 -58.5t-21.5 -84q0 -49 21.5 -86.5t60.5 -58.5t91 -21zM313 600l-39 59l156 130l68 -89z" />
    <glyph glyph-name="acircumflex" unicode="&#xe2;" horiz-adv-x="782" 
d="M334 -10q-77 0 -136.5 35.5t-94 97.5t-34.5 142q0 79 35 141t96.5 97t140.5 35q47 0 86.5 -12t69 -33.5t47.5 -47t22 -53.5l-29 3v132h123v-527h-124v134l27 -1q-5 -25 -24.5 -50.5t-51 -46t-70.5 -33.5t-83 -13zM367 99q51 0 90.5 21t61.5 58.5t22 86.5q0 47 -22 84
t-61.5 58.5t-90.5 21.5q-52 0 -91 -21.5t-60.5 -58.5t-21.5 -84q0 -49 21.5 -86.5t60.5 -58.5t91 -21zM258 605l-45 39l125 119h90l125 -119l-45 -39l-140 77h30z" />
    <glyph glyph-name="atilde" unicode="&#xe3;" horiz-adv-x="782" 
d="M334 -10q-77 0 -136.5 35.5t-94 97.5t-34.5 142q0 79 35 141t96.5 97t140.5 35q47 0 86.5 -12t69 -33.5t47.5 -47t22 -53.5l-29 3v132h123v-527h-124v134l27 -1q-5 -25 -24.5 -50.5t-51 -46t-70.5 -33.5t-83 -13zM367 99q51 0 90.5 21t61.5 58.5t22 86.5q0 47 -22 84
t-61.5 58.5t-90.5 21.5q-52 0 -91 -21.5t-60.5 -58.5t-21.5 -84q0 -49 21.5 -86.5t60.5 -58.5t91 -21zM440 615q-19 0 -34 7t-33 21q-18 16 -28 22t-18 6q-13 0 -23.5 -13.5t-14.5 -41.5l-75 11q1 52 31 89t81 37q19 0 33.5 -7t32.5 -20q18 -14 27.5 -21t18.5 -7
q14 0 24 13.5t13 40.5l76 -11q-1 -33 -15 -62.5t-38.5 -46.5t-57.5 -17z" />
    <glyph glyph-name="adieresis" unicode="&#xe4;" horiz-adv-x="782" 
d="M334 -10q-77 0 -136.5 35.5t-94 97.5t-34.5 142q0 79 35 141t96.5 97t140.5 35q47 0 86.5 -12t69 -33.5t47.5 -47t22 -53.5l-29 3v132h123v-527h-124v134l27 -1q-5 -25 -24.5 -50.5t-51 -46t-70.5 -33.5t-83 -13zM367 99q51 0 90.5 21t61.5 58.5t22 86.5q0 47 -22 84
t-61.5 58.5t-90.5 21.5q-52 0 -91 -21.5t-60.5 -58.5t-21.5 -84q0 -49 21.5 -86.5t60.5 -58.5t91 -21zM489 641q-36 0 -55.5 19t-19.5 54q0 32 20 52t55 20q36 0 56 -19t20 -53q0 -32 -20.5 -52.5t-55.5 -20.5zM275 641q-36 0 -55.5 19t-19.5 54q0 32 20 52t55 20
q36 0 55.5 -19t19.5 -53q0 -32 -20 -52.5t-55 -20.5z" />
    <glyph glyph-name="aring" unicode="&#xe5;" horiz-adv-x="782" 
d="M334 -10q-77 0 -136.5 35.5t-94 97.5t-34.5 142q0 79 35 141t96.5 97t140.5 35q47 0 86.5 -12t69 -33.5t47.5 -47t22 -53.5l-29 3v132h123v-527h-124v134l27 -1q-5 -25 -24.5 -50.5t-51 -46t-70.5 -33.5t-83 -13zM367 99q51 0 90.5 21t61.5 58.5t22 86.5q0 47 -22 84
t-61.5 58.5t-90.5 21.5q-52 0 -91 -21.5t-60.5 -58.5t-21.5 -84q0 -49 21.5 -86.5t60.5 -58.5t91 -21zM382 604q-29 0 -55 15t-42 40t-16 54q0 30 15.5 55t41.5 40t56 15q31 0 57 -15t41.5 -40t15.5 -55q0 -29 -15.5 -54t-41.5 -40t-57 -15zM382 670q19 0 32.5 12.5
t13.5 30.5q0 19 -13.5 31t-32.5 12t-32 -12t-13 -31q0 -18 13.5 -30.5t31.5 -12.5z" />
    <glyph glyph-name="ae" unicode="&#xe6;" horiz-adv-x="1086" 
d="M276 -10q-60 0 -106.5 19t-73.5 54.5t-27 85.5q0 47 20 80t55 53t83.5 28.5t106.5 8.5h566l-13 -17v23q-3 32 -24.5 55.5t-54 37.5t-69.5 14q-53 0 -93.5 -16.5t-63.5 -52.5t-23 -95q0 -53 29 -91t78 -59t109 -21q53 0 92 14t72 41l57 -87q-26 -21 -64.5 -38.5t-82 -27
t-87.5 -9.5q-94 0 -165 34.5t-109.5 95.5t-38.5 139q0 63 23 114t63 88t92.5 57t110.5 20q77 -1 138 -34t96.5 -91.5t35.5 -134.5l-1 -45h-680q-26 0 -51.5 -4t-45 -13t-31 -23t-11.5 -35q0 -22 14 -37.5t37.5 -23t53.5 -7.5q41 0 76.5 13.5t61.5 34.5t39 42l46 -73
q-21 -29 -57 -56t-82.5 -44t-100.5 -17zM448 254v86q0 20 -10.5 37t-28.5 29t-40 18t-45 6q-47 0 -88 -16t-76 -52l-72 78q31 29 68.5 51.5t81.5 34.5t96 12q45 0 85 -9t72 -28.5t49.5 -49t17.5 -70.5v-122z" />
    <glyph glyph-name="ccedilla" unicode="&#xe7;" horiz-adv-x="677" 
d="M365 -10q-84 0 -149 36t-103 98t-38 140t38 140t102.5 98t147.5 36q79 0 145.5 -26.5t105.5 -73.5l-68 -88q-20 22 -48.5 40t-61 28.5t-64.5 10.5q-51 0 -90.5 -21.5t-61.5 -59t-22 -84.5t23 -84t62.5 -59t88.5 -22q37 0 68 9.5t58 25t48 35.5l67 -87
q-43 -39 -107.5 -65.5t-140.5 -26.5zM266 -245l-7 60q24 0 49.5 6t42.5 17t17 24q0 14 -15 22t-35.5 12.5t-35.5 4.5l-14 14l70 109h67l-44 -69q48 -9 74.5 -32.5t26.5 -61.5q0 -28 -18 -48.5t-47.5 -33.5t-63.5 -19t-67 -5z" />
    <glyph glyph-name="egrave" unicode="&#xe8;" horiz-adv-x="724" 
d="M383 -10q-92 0 -163 35t-110.5 95.5t-39.5 138.5q0 64 23 115t63.5 88t95.5 57t119 20q58 0 108.5 -19.5t88 -54t58 -82t19.5 -104.5l-1 -47h-483l-23 86h403l-16 -15v22q-4 31 -26 54.5t-55.5 37.5t-72.5 14q-55 0 -96 -17.5t-63.5 -53.5t-22.5 -92q0 -51 26.5 -88.5
t74 -58.5t110.5 -21q54 0 93 14.5t72 39.5l58 -85q-29 -23 -68 -41t-83 -28t-89 -10zM427 600l-185 100l68 90l156 -131z" />
    <glyph glyph-name="eacute" unicode="&#xe9;" horiz-adv-x="724" 
d="M383 -10q-92 0 -163 35t-110.5 95.5t-39.5 138.5q0 64 23 115t63.5 88t95.5 57t119 20q58 0 108.5 -19.5t88 -54t58 -82t19.5 -104.5l-1 -47h-483l-23 86h403l-16 -15v22q-4 31 -26 54.5t-55.5 37.5t-72.5 14q-55 0 -96 -17.5t-63.5 -53.5t-22.5 -92q0 -51 26.5 -88.5
t74 -58.5t110.5 -21q54 0 93 14.5t72 39.5l58 -85q-29 -23 -68 -41t-83 -28t-89 -10zM301 600l-39 59l156 130l68 -89z" />
    <glyph glyph-name="ecircumflex" unicode="&#xea;" horiz-adv-x="724" 
d="M383 -10q-92 0 -163 35t-110.5 95.5t-39.5 138.5q0 64 23 115t63.5 88t95.5 57t119 20q58 0 108.5 -19.5t88 -54t58 -82t19.5 -104.5l-1 -47h-483l-23 86h403l-16 -15v22q-4 31 -26 54.5t-55.5 37.5t-72.5 14q-55 0 -96 -17.5t-63.5 -53.5t-22.5 -92q0 -51 26.5 -88.5
t74 -58.5t110.5 -21q54 0 93 14.5t72 39.5l58 -85q-29 -23 -68 -41t-83 -28t-89 -10zM246 605l-45 39l125 119h90l125 -119l-45 -39l-140 77h30z" />
    <glyph glyph-name="edieresis" unicode="&#xeb;" horiz-adv-x="724" 
d="M383 -10q-92 0 -163 35t-110.5 95.5t-39.5 138.5q0 64 23 115t63.5 88t95.5 57t119 20q58 0 108.5 -19.5t88 -54t58 -82t19.5 -104.5l-1 -47h-483l-23 86h403l-16 -15v22q-4 31 -26 54.5t-55.5 37.5t-72.5 14q-55 0 -96 -17.5t-63.5 -53.5t-22.5 -92q0 -51 26.5 -88.5
t74 -58.5t110.5 -21q54 0 93 14.5t72 39.5l58 -85q-29 -23 -68 -41t-83 -28t-89 -10zM477 641q-36 0 -55.5 19t-19.5 54q0 32 20 52t55 20q36 0 56 -19t20 -53q0 -32 -20.5 -52.5t-55.5 -20.5zM263 641q-36 0 -55.5 19t-19.5 54q0 32 20 52t55 20q36 0 55.5 -19t19.5 -53
q0 -32 -20 -52.5t-55 -20.5z" />
    <glyph glyph-name="igrave" unicode="&#xec;" horiz-adv-x="365" 
d="M121 0v527h123v-527h-123zM238 600l-185 100l68 90l156 -131z" />
    <glyph glyph-name="iacute" unicode="&#xed;" horiz-adv-x="365" 
d="M121 0v527h123v-527h-123zM112 600l-39 59l156 130l68 -89z" />
    <glyph glyph-name="icircumflex" unicode="&#xee;" horiz-adv-x="365" 
d="M121 0v527h123v-527h-123zM56 605l-45 39l125 119h90l125 -119l-45 -39l-140 77h30z" />
    <glyph glyph-name="idieresis" unicode="&#xef;" horiz-adv-x="365" 
d="M121 0v527h123v-527h-123zM288 641q-36 0 -55.5 19t-19.5 54q0 32 20 52t55 20q36 0 56 -19t20 -53q0 -32 -20.5 -52.5t-55.5 -20.5zM74 641q-36 0 -55.5 19t-19.5 54q0 32 20 52t55 20q36 0 55.5 -19t19.5 -53q0 -32 -20 -52.5t-55 -20.5z" />
    <glyph glyph-name="eth" unicode="&#xf0;" horiz-adv-x="716" 
d="M355 -7q-83 0 -146.5 35.5t-98.5 96t-35 135.5q0 55 21.5 102.5t58 83.5t86 57t103.5 21q60 0 105 -22.5t74 -62t39 -91.5l-57 13q-1 41 -12 78t-30.5 69t-47.5 59t-64.5 50.5t-80.5 42.5l48 82q50 -16 97.5 -46.5t88.5 -73t71.5 -95.5t48 -114.5t17.5 -128.5
q0 -87 -37 -152.5t-101.5 -102t-147.5 -36.5zM356 99q46 0 83.5 21.5t60 58.5t22.5 83q0 44 -22.5 80t-61 58t-86.5 22q-45 0 -80.5 -21t-57 -57.5t-21.5 -81.5q0 -46 22 -83t59 -58.5t82 -21.5zM247 532l-14 65l150 31l56 23l146 26l18 -66l-113 -19l-41 -19z" />
    <glyph glyph-name="ntilde" unicode="&#xf1;" horiz-adv-x="774" 
d="M129 0v527h120l3 -124l-31 -9q14 37 46 69.5t77 53.5t96 21q68 0 115 -26.5t70 -76t23 -117.5v-318h-123v303q0 41 -15 69t-43.5 43t-66.5 14q-32 0 -59 -11t-47 -29.5t-30.5 -41t-10.5 -46.5v-301h-62h-38.5h-23.5zM471 615q-19 0 -34 7t-33 21q-18 16 -28 22t-18 6
q-13 0 -23.5 -13.5t-14.5 -41.5l-75 11q1 52 31 89t81 37q19 0 33.5 -7t32.5 -20q18 -14 27.5 -21t18.5 -7q14 0 24 13.5t13 40.5l76 -11q-1 -33 -15 -62.5t-38.5 -46.5t-57.5 -17z" />
    <glyph glyph-name="ograve" unicode="&#xf2;" horiz-adv-x="762" 
d="M381 -10q-89 0 -158 35.5t-108.5 97.5t-39.5 141t39.5 141t108.5 97.5t158 35.5t158 -35.5t108.5 -97.5t39.5 -141t-39.5 -141t-108.5 -97.5t-158 -35.5zM381 99q51 0 92.5 22t65 59t23.5 84q0 48 -23.5 85.5t-65 58.5t-92.5 21q-50 0 -92 -21.5t-66 -58.5t-23 -85
q-1 -47 23 -84t66 -59t92 -22zM437 600l-185 100l68 90l156 -131z" />
    <glyph glyph-name="oacute" unicode="&#xf3;" horiz-adv-x="762" 
d="M381 -10q-89 0 -158 35.5t-108.5 97.5t-39.5 141t39.5 141t108.5 97.5t158 35.5t158 -35.5t108.5 -97.5t39.5 -141t-39.5 -141t-108.5 -97.5t-158 -35.5zM381 99q51 0 92.5 22t65 59t23.5 84q0 48 -23.5 85.5t-65 58.5t-92.5 21q-50 0 -92 -21.5t-66 -58.5t-23 -85
q-1 -47 23 -84t66 -59t92 -22zM311 600l-39 59l156 130l68 -89z" />
    <glyph glyph-name="ocircumflex" unicode="&#xf4;" horiz-adv-x="762" 
d="M381 -10q-89 0 -158 35.5t-108.5 97.5t-39.5 141t39.5 141t108.5 97.5t158 35.5t158 -35.5t108.5 -97.5t39.5 -141t-39.5 -141t-108.5 -97.5t-158 -35.5zM381 99q51 0 92.5 22t65 59t23.5 84q0 48 -23.5 85.5t-65 58.5t-92.5 21q-50 0 -92 -21.5t-66 -58.5t-23 -85
q-1 -47 23 -84t66 -59t92 -22zM256 605l-45 39l125 119h90l125 -119l-45 -39l-140 77h30z" />
    <glyph glyph-name="otilde" unicode="&#xf5;" horiz-adv-x="762" 
d="M381 -10q-89 0 -158 35.5t-108.5 97.5t-39.5 141t39.5 141t108.5 97.5t158 35.5t158 -35.5t108.5 -97.5t39.5 -141t-39.5 -141t-108.5 -97.5t-158 -35.5zM381 99q51 0 92.5 22t65 59t23.5 84q0 48 -23.5 85.5t-65 58.5t-92.5 21q-50 0 -92 -21.5t-66 -58.5t-23 -85
q-1 -47 23 -84t66 -59t92 -22zM438 615q-19 0 -34 7t-33 21q-18 16 -28 22t-18 6q-13 0 -23.5 -13.5t-14.5 -41.5l-75 11q1 52 31 89t81 37q19 0 33.5 -7t32.5 -20q18 -14 27.5 -21t18.5 -7q14 0 24 13.5t13 40.5l76 -11q-1 -33 -15 -62.5t-38.5 -46.5t-57.5 -17z" />
    <glyph glyph-name="odieresis" unicode="&#xf6;" horiz-adv-x="762" 
d="M381 -10q-89 0 -158 35.5t-108.5 97.5t-39.5 141t39.5 141t108.5 97.5t158 35.5t158 -35.5t108.5 -97.5t39.5 -141t-39.5 -141t-108.5 -97.5t-158 -35.5zM381 99q51 0 92.5 22t65 59t23.5 84q0 48 -23.5 85.5t-65 58.5t-92.5 21q-50 0 -92 -21.5t-66 -58.5t-23 -85
q-1 -47 23 -84t66 -59t92 -22zM488 641q-36 0 -55.5 19t-19.5 54q0 32 20 52t55 20q36 0 56 -19t20 -53q0 -32 -20.5 -52.5t-55.5 -20.5zM274 641q-36 0 -55.5 19t-19.5 54q0 32 20 52t55 20q36 0 55.5 -19t19.5 -53q0 -32 -20 -52.5t-55 -20.5z" />
    <glyph glyph-name="divide" unicode="&#xf7;" horiz-adv-x="709" 
d="M76 210v110h558v-110h-558zM350 1q-25 0 -48 8.5t-37 24.5t-14 39q0 24 14.5 40.5t37 24.5t47.5 8q26 0 48.5 -8.5t36 -24.5t13.5 -40q0 -23 -14 -39t-36.5 -24.5t-47.5 -8.5zM350 381q-25 0 -48 8.5t-37 24.5t-14 39q0 24 14.5 40t37 24.5t47.5 8.5q26 0 48.5 -9t36 -25
t13.5 -38q0 -24 -14 -40t-36.5 -24.5t-47.5 -8.5z" />
    <glyph glyph-name="oslash" unicode="&#xf8;" horiz-adv-x="760" 
d="M151 -27l-63 52l516 521l63 -53zM381 -10q-89 0 -158 35.5t-108.5 97.5t-39.5 141t39.5 141t108.5 97.5t158 35.5q90 0 159 -35.5t108 -97.5t39 -141t-39 -141t-108 -97.5t-159 -35.5zM381 99q52 0 93.5 22t65 59t22.5 84q1 48 -22.5 85.5t-65 58.5t-93.5 21
q-50 0 -91.5 -21.5t-66 -58.5t-23.5 -85q-1 -47 23.5 -84t66 -59t91.5 -22z" />
    <glyph glyph-name="ugrave" unicode="&#xf9;" horiz-adv-x="768" 
d="M326 -10q-62 0 -108 28t-71.5 81t-25.5 127v301h123v-271q0 -51 14.5 -85.5t44 -52.5t72.5 -18q31 0 57.5 10t46.5 28.5t31.5 44t11.5 56.5v288h123v-527h-120l-2 110l22 12q-12 -35 -43 -65t-75.5 -48.5t-100.5 -18.5zM441 600l-185 100l68 90l156 -131z" />
    <glyph glyph-name="uacute" unicode="&#xfa;" horiz-adv-x="768" 
d="M326 -10q-62 0 -108 28t-71.5 81t-25.5 127v301h123v-271q0 -51 14.5 -85.5t44 -52.5t72.5 -18q31 0 57.5 10t46.5 28.5t31.5 44t11.5 56.5v288h123v-527h-120l-2 110l22 12q-12 -35 -43 -65t-75.5 -48.5t-100.5 -18.5zM315 600l-39 59l156 130l68 -89z" />
    <glyph glyph-name="ucircumflex" unicode="&#xfb;" horiz-adv-x="768" 
d="M326 -10q-62 0 -108 28t-71.5 81t-25.5 127v301h123v-271q0 -51 14.5 -85.5t44 -52.5t72.5 -18q31 0 57.5 10t46.5 28.5t31.5 44t11.5 56.5v288h123v-527h-120l-2 110l22 12q-12 -35 -43 -65t-75.5 -48.5t-100.5 -18.5zM260 605l-45 39l125 119h90l125 -119l-45 -39
l-140 77h30z" />
    <glyph glyph-name="udieresis" unicode="&#xfc;" horiz-adv-x="768" 
d="M326 -10q-62 0 -108 28t-71.5 81t-25.5 127v301h123v-271q0 -51 14.5 -85.5t44 -52.5t72.5 -18q31 0 57.5 10t46.5 28.5t31.5 44t11.5 56.5v288h123v-527h-120l-2 110l22 12q-12 -35 -43 -65t-75.5 -48.5t-100.5 -18.5zM492 641q-36 0 -55.5 19t-19.5 54q0 32 20 52
t55 20q36 0 56 -19t20 -53q0 -32 -20.5 -52.5t-55.5 -20.5zM278 641q-36 0 -55.5 19t-19.5 54q0 32 20 52t55 20q36 0 55.5 -19t19.5 -53q0 -32 -20 -52.5t-55 -20.5z" />
    <glyph glyph-name="yacute" unicode="&#xfd;" horiz-adv-x="740" 
d="M208 -230l127 259l-1 -81l-288 579h143l149 -321q17 -32 30 -63t20 -59l-25 -6q11 26 24.5 58.5t28.5 69.5l135 321h143l-253 -529l-105 -228h-128zM299 600l-39 59l156 130l68 -89z" />
    <glyph glyph-name="thorn" unicode="&#xfe;" horiz-adv-x="791" 
d="M129 -220v960h125v-333l-23 9q7 30 38.5 57.5t78.5 45t99 17.5q58 0 107 -20t85.5 -56.5t56.5 -86t20 -109.5q0 -79 -35 -140.5t-95.5 -97t-137.5 -35.5q-55 0 -103 19t-80.5 48t-40.5 59l30 14v-351h-125zM423 100q52 0 90.5 21t61 58t22.5 85t-22 84.5t-60.5 57.5
t-91.5 21q-51 0 -90.5 -20.5t-61.5 -57.5t-22 -85t22 -85t61.5 -58t90.5 -21z" />
    <glyph glyph-name="ydieresis" unicode="&#xff;" horiz-adv-x="740" 
d="M208 -230l127 259l-1 -81l-288 579h143l149 -321q17 -32 30 -63t20 -59l-25 -6q11 26 24.5 58.5t28.5 69.5l135 321h143l-253 -529l-105 -228h-128zM476 641q-36 0 -55.5 19t-19.5 54q0 32 20 52t55 20q36 0 56 -19t20 -53q0 -32 -20.5 -52.5t-55.5 -20.5zM262 641
q-36 0 -55.5 19t-19.5 54q0 32 20 52t55 20q36 0 55.5 -19t19.5 -53q0 -32 -20 -52.5t-55 -20.5z" />
    <glyph glyph-name="Amacron" unicode="&#x100;" horiz-adv-x="815" 
d="M43 0l301 700h129l299 -700h-137l-180 422q-6 16 -14.5 39t-18 48.5t-18 49t-13.5 39.5l29 1q-6 -21 -14.5 -44.5t-17.5 -47t-18 -46t-16 -42.5l-180 -419h-131zM178 156l47 113h357l37 -113h-441zM236 788v84h341v-84h-341z" />
    <glyph glyph-name="amacron" unicode="&#x101;" horiz-adv-x="782" 
d="M334 -10q-77 0 -136.5 35.5t-94 97.5t-34.5 142q0 79 35 141t96.5 97t140.5 35q47 0 86.5 -12t69 -33.5t47.5 -47t22 -53.5l-29 3v132h123v-527h-124v134l27 -1q-5 -25 -24.5 -50.5t-51 -46t-70.5 -33.5t-83 -13zM367 99q51 0 90.5 21t61.5 58.5t22 86.5q0 47 -22 84
t-61.5 58.5t-90.5 21.5q-52 0 -91 -21.5t-60.5 -58.5t-21.5 -84q0 -49 21.5 -86.5t60.5 -58.5t91 -21zM229 641v84h308v-84h-308z" />
    <glyph glyph-name="Abreve" unicode="&#x102;" horiz-adv-x="815" 
d="M43 0l301 700h129l299 -700h-137l-180 422q-6 16 -14.5 39t-18 48.5t-18 49t-13.5 39.5l29 1q-6 -21 -14.5 -44.5t-17.5 -47t-18 -46t-16 -42.5l-180 -419h-131zM178 156l47 113h357l37 -113h-441zM407 753q-42 0 -77 19t-58.5 50.5t-32.5 70.5l84 12q11 -25 33 -44
t51 -19t51 19t33 44l84 -12q-8 -39 -32 -70.5t-58.5 -50.5t-77.5 -19z" />
    <glyph glyph-name="abreve" unicode="&#x103;" horiz-adv-x="782" 
d="M334 -10q-77 0 -136.5 35.5t-94 97.5t-34.5 142q0 79 35 141t96.5 97t140.5 35q47 0 86.5 -12t69 -33.5t47.5 -47t22 -53.5l-29 3v132h123v-527h-124v134l27 -1q-5 -25 -24.5 -50.5t-51 -46t-70.5 -33.5t-83 -13zM367 99q51 0 90.5 21t61.5 58.5t22 86.5q0 47 -22 84
t-61.5 58.5t-90.5 21.5q-52 0 -91 -21.5t-60.5 -58.5t-21.5 -84q0 -49 21.5 -86.5t60.5 -58.5t91 -21zM383 593q-66 0 -110 42t-58 114l84 12q12 -36 34 -57.5t50 -21.5t50 21.5t34 57.5l84 -12q-14 -72 -58 -114t-110 -42z" />
    <glyph glyph-name="Aogonek" unicode="&#x104;" horiz-adv-x="815" 
d="M43 0l301 700h129l299 -700h-137l-180 422q-6 16 -14.5 39t-18 48.5t-18 49t-13.5 39.5l29 1q-6 -21 -14.5 -44.5t-17.5 -47t-18 -46t-16 -42.5l-180 -419h-131zM178 156l47 113h357l37 -113h-441zM672 -204q-31 0 -56.5 13.5t-41 37t-15.5 53.5q0 26 11.5 49.5
t33.5 42.5t51 33t63 23l38 -48q-28 -7 -51 -20.5t-35.5 -29.5t-12.5 -34q0 -15 8.5 -24.5t23.5 -9.5q11 0 19.5 6.5t15.5 18.5l61 -44q-11 -27 -42 -47t-71 -20z" />
    <glyph glyph-name="aogonek" unicode="&#x105;" horiz-adv-x="782" 
d="M334 -10q-77 0 -136.5 35.5t-94 97.5t-34.5 142q0 79 35 141t96.5 97t140.5 35q47 0 86.5 -12t69 -33.5t47.5 -47t22 -53.5l-29 3v132h123v-527h-124v134l27 -1q-5 -25 -24.5 -50.5t-51 -46t-70.5 -33.5t-83 -13zM367 99q51 0 90.5 21t61.5 58.5t22 86.5q0 47 -22 84
t-61.5 58.5t-90.5 21.5q-52 0 -91 -21.5t-60.5 -58.5t-21.5 -84q0 -49 21.5 -86.5t60.5 -58.5t91 -21zM558 -204q-30 0 -56 14.5t-41.5 38.5t-15.5 53q0 27 12 49.5t33.5 40t52.5 31t67 23.5l39 -46q-28 -6 -52.5 -19t-39 -30t-14.5 -35q0 -15 9 -24.5t23 -9.5q11 0 19.5 7
t15.5 18l61 -44q-7 -16 -23.5 -31.5t-39 -25.5t-50.5 -10z" />
    <glyph glyph-name="Cacute" unicode="&#x106;" horiz-adv-x="805" 
d="M451 -10q-80 0 -148 26t-118.5 74t-78.5 114.5t-28 146.5q0 77 29.5 142t81 113.5t120 75.5t146.5 27q58 0 111.5 -16t98 -42t73.5 -58l-80 -98q-29 28 -61 47.5t-68.5 30.5t-77.5 11q-47 0 -91 -16.5t-77 -47.5t-52.5 -74t-19.5 -96q0 -55 19.5 -98.5t54.5 -74t81 -47
t99 -16.5q44 0 81 12t67 30.5t55 40.5l63 -104q-26 -25 -69.5 -49t-98.5 -39t-112 -15zM376 752l-31 63l192 113l50 -99z" />
    <glyph glyph-name="cacute" unicode="&#x107;" horiz-adv-x="677" 
d="M365 -10q-84 0 -149 36t-103 98t-38 140t38 140t102.5 98t147.5 36q79 0 145.5 -26.5t105.5 -73.5l-68 -88q-20 22 -48.5 40t-61 28.5t-64.5 10.5q-51 0 -90.5 -21.5t-61.5 -59t-22 -84.5t23 -84t62.5 -59t88.5 -22q37 0 68 9.5t58 25t48 35.5l67 -87
q-43 -39 -107.5 -65.5t-140.5 -26.5zM293 600l-39 59l156 130l68 -89z" />
    <glyph glyph-name="Ccircumflex" unicode="&#x108;" horiz-adv-x="805" 
d="M451 -10q-80 0 -148 26t-118.5 74t-78.5 114.5t-28 146.5q0 77 29.5 142t81 113.5t120 75.5t146.5 27q58 0 111.5 -16t98 -42t73.5 -58l-80 -98q-29 28 -61 47.5t-68.5 30.5t-77.5 11q-47 0 -91 -16.5t-77 -47.5t-52.5 -74t-19.5 -96q0 -55 19.5 -98.5t54.5 -74t81 -47
t99 -16.5q44 0 81 12t67 30.5t55 40.5l63 -104q-26 -25 -69.5 -49t-98.5 -39t-112 -15zM328 755l-41 42l128 103h79l128 -103l-41 -42l-141 67h29z" />
    <glyph glyph-name="ccircumflex" unicode="&#x109;" horiz-adv-x="677" 
d="M365 -10q-84 0 -149 36t-103 98t-38 140t38 140t102.5 98t147.5 36q79 0 145.5 -26.5t105.5 -73.5l-68 -88q-20 22 -48.5 40t-61 28.5t-64.5 10.5q-51 0 -90.5 -21.5t-61.5 -59t-22 -84.5t23 -84t62.5 -59t88.5 -22q37 0 68 9.5t58 25t48 35.5l67 -87
q-43 -39 -107.5 -65.5t-140.5 -26.5zM238 605l-45 39l125 119h90l125 -119l-45 -39l-140 77h30z" />
    <glyph glyph-name="Cdotaccent" unicode="&#x10a;" horiz-adv-x="805" 
d="M451 -10q-80 0 -148 26t-118.5 74t-78.5 114.5t-28 146.5q0 77 29.5 142t81 113.5t120 75.5t146.5 27q58 0 111.5 -16t98 -42t73.5 -58l-80 -98q-29 28 -61 47.5t-68.5 30.5t-77.5 11q-47 0 -91 -16.5t-77 -47.5t-52.5 -74t-19.5 -96q0 -55 19.5 -98.5t54.5 -74t81 -47
t99 -16.5q44 0 81 12t67 30.5t55 40.5l63 -104q-26 -25 -69.5 -49t-98.5 -39t-112 -15zM454 758q-39 0 -58.5 19.5t-19.5 51.5q0 29 19.5 50.5t58.5 21.5t58.5 -19.5t19.5 -52.5q0 -28 -19.5 -49.5t-58.5 -21.5z" />
    <glyph glyph-name="cdotaccent" unicode="&#x10b;" horiz-adv-x="677" 
d="M365 -10q-84 0 -149 36t-103 98t-38 140t38 140t102.5 98t147.5 36q79 0 145.5 -26.5t105.5 -73.5l-68 -88q-20 22 -48.5 40t-61 28.5t-64.5 10.5q-51 0 -90.5 -21.5t-61.5 -59t-22 -84.5t23 -84t62.5 -59t88.5 -22q37 0 68 9.5t58 25t48 35.5l67 -87
q-43 -39 -107.5 -65.5t-140.5 -26.5zM363 642q-37 0 -57.5 19t-20.5 53q0 31 21 51t57 20q37 0 57.5 -18.5t20.5 -52.5q0 -32 -21 -52t-57 -20z" />
    <glyph glyph-name="Ccaron" unicode="&#x10c;" horiz-adv-x="805" 
d="M451 -10q-80 0 -148 26t-118.5 74t-78.5 114.5t-28 146.5q0 77 29.5 142t81 113.5t120 75.5t146.5 27q58 0 111.5 -16t98 -42t73.5 -58l-80 -98q-29 28 -61 47.5t-68.5 30.5t-77.5 11q-47 0 -91 -16.5t-77 -47.5t-52.5 -74t-19.5 -96q0 -55 19.5 -98.5t54.5 -74t81 -47
t99 -16.5q44 0 81 12t67 30.5t55 40.5l63 -104q-26 -25 -69.5 -49t-98.5 -39t-112 -15zM409 756l-125 105l42 41l143 -66h-30l143 66l42 -41l-125 -105h-90z" />
    <glyph glyph-name="ccaron" unicode="&#x10d;" horiz-adv-x="677" 
d="M365 -10q-84 0 -149 36t-103 98t-38 140t38 140t102.5 98t147.5 36q79 0 145.5 -26.5t105.5 -73.5l-68 -88q-20 22 -48.5 40t-61 28.5t-64.5 10.5q-51 0 -90.5 -21.5t-61.5 -59t-22 -84.5t23 -84t62.5 -59t88.5 -22q37 0 68 9.5t58 25t48 35.5l67 -87
q-43 -39 -107.5 -65.5t-140.5 -26.5zM318 607l-117 119l45 39l132 -78h-30l132 78l45 -39l-117 -119h-90z" />
    <glyph glyph-name="Dcaron" unicode="&#x10e;" horiz-adv-x="881" 
d="M128 0v700h313q84 0 150.5 -26t114 -74t72 -111.5t24.5 -138.5q0 -76 -24.5 -140t-71.5 -111t-114 -73t-151 -26h-313zM258 101l-10 19h188q57 0 100.5 17t72.5 48t44 72.5t15 92.5q0 50 -15 92t-44.5 73t-72.5 48t-100 17h-191l13 17v-496zM396 756l-125 105l42 41
l143 -66h-30l143 66l42 -41l-125 -105h-90z" />
    <glyph glyph-name="dcaron" unicode="&#x10f;" horiz-adv-x="813" 
d="M340 -10q-79 0 -140 35.5t-95.5 97t-34.5 141.5q0 79 35 141t97 97.5t141 35.5q46 0 86.5 -12.5t72 -33t49.5 -45.5t20 -51l-33 -4v348h123v-740h-119l-3 132l24 -5q-1 -25 -20 -48.5t-49.5 -43.5t-70.5 -32.5t-83 -12.5zM368 96q51 0 90.5 22t61.5 59.5t22 86.5
q0 48 -22 86t-61.5 59t-90.5 21t-90.5 -21t-61.5 -59t-22 -86q0 -49 22 -86.5t61.5 -59.5t90.5 -22zM751 522l-30 47q14 3 28.5 11.5t23.5 20t9 22.5q0 7 -5 11t-16 8q-16 5 -24.5 14.5t-8.5 28.5q0 26 20 40.5t51 14.5q34 0 60 -21.5t26 -62.5q0 -25 -11.5 -46t-30.5 -38
t-42.5 -29.5t-49.5 -20.5z" />
    <glyph glyph-name="Dcroat" unicode="&#x110;" horiz-adv-x="881" 
d="M64 301v98h344v-98h-344zM128 0v700h313q84 0 150.5 -26t114 -74t72 -111.5t24.5 -138.5q0 -76 -24.5 -140t-71.5 -111t-114 -73t-151 -26h-313zM258 101l-10 19h188q57 0 100.5 17t72.5 48t44 72.5t15 92.5q0 50 -15 92t-44.5 73t-72.5 48t-100 17h-191l13 17v-496z" />
    <glyph glyph-name="dcroat" unicode="&#x111;" horiz-adv-x="773" 
d="M385 585v98h344v-98h-344zM340 -10q-79 0 -140 35.5t-95.5 97t-34.5 141.5q0 79 35 141t97 97.5t141 35.5q46 0 86.5 -12.5t72 -33t49.5 -45.5t20 -51l-33 -4v348h123v-740h-119l-3 132l24 -5q-1 -25 -20 -48.5t-49.5 -43.5t-70.5 -32.5t-83 -12.5zM368 96q51 0 90.5 22
t61.5 59.5t22 86.5q0 48 -22 86t-61.5 59t-90.5 21t-90.5 -21t-61.5 -59t-22 -86q0 -49 22 -86.5t61.5 -59.5t90.5 -22z" />
    <glyph glyph-name="Emacron" unicode="&#x112;" horiz-adv-x="749" 
d="M128 0v700h514v-118h-386v-464h390v-118h-518zM192 300v116h399v-116h-399zM224 788v84h341v-84h-341z" />
    <glyph glyph-name="emacron" unicode="&#x113;" horiz-adv-x="724" 
d="M383 -10q-92 0 -163 35t-110.5 95.5t-39.5 138.5q0 64 23 115t63.5 88t95.5 57t119 20q58 0 108.5 -19.5t88 -54t58 -82t19.5 -104.5l-1 -47h-483l-23 86h403l-16 -15v22q-4 31 -26 54.5t-55.5 37.5t-72.5 14q-55 0 -96 -17.5t-63.5 -53.5t-22.5 -92q0 -51 26.5 -88.5
t74 -58.5t110.5 -21q54 0 93 14.5t72 39.5l58 -85q-29 -23 -68 -41t-83 -28t-89 -10zM217 641v84h308v-84h-308z" />
    <glyph glyph-name="Ebreve" unicode="&#x114;" horiz-adv-x="749" 
d="M128 0v700h514v-118h-386v-464h390v-118h-518zM192 300v116h399v-116h-399zM395 753q-42 0 -77 19t-58.5 50.5t-32.5 70.5l84 12q11 -25 33 -44t51 -19t51 19t33 44l84 -12q-8 -39 -32 -70.5t-58.5 -50.5t-77.5 -19z" />
    <glyph glyph-name="ebreve" unicode="&#x115;" horiz-adv-x="724" 
d="M383 -10q-92 0 -163 35t-110.5 95.5t-39.5 138.5q0 64 23 115t63.5 88t95.5 57t119 20q58 0 108.5 -19.5t88 -54t58 -82t19.5 -104.5l-1 -47h-483l-23 86h403l-16 -15v22q-4 31 -26 54.5t-55.5 37.5t-72.5 14q-55 0 -96 -17.5t-63.5 -53.5t-22.5 -92q0 -51 26.5 -88.5
t74 -58.5t110.5 -21q54 0 93 14.5t72 39.5l58 -85q-29 -23 -68 -41t-83 -28t-89 -10zM371 593q-66 0 -110 42t-58 114l84 12q12 -36 34 -57.5t50 -21.5t50 21.5t34 57.5l84 -12q-14 -72 -58 -114t-110 -42z" />
    <glyph glyph-name="Edotaccent" unicode="&#x116;" horiz-adv-x="749" 
d="M128 0v700h514v-118h-386v-464h390v-118h-518zM192 300v116h399v-116h-399zM395 758q-39 0 -58.5 19.5t-19.5 51.5q0 29 19.5 50.5t58.5 21.5t58.5 -19.5t19.5 -52.5q0 -28 -19.5 -49.5t-58.5 -21.5z" />
    <glyph glyph-name="edotaccent" unicode="&#x117;" horiz-adv-x="724" 
d="M383 -10q-92 0 -163 35t-110.5 95.5t-39.5 138.5q0 64 23 115t63.5 88t95.5 57t119 20q58 0 108.5 -19.5t88 -54t58 -82t19.5 -104.5l-1 -47h-483l-23 86h403l-16 -15v22q-4 31 -26 54.5t-55.5 37.5t-72.5 14q-55 0 -96 -17.5t-63.5 -53.5t-22.5 -92q0 -51 26.5 -88.5
t74 -58.5t110.5 -21q54 0 93 14.5t72 39.5l58 -85q-29 -23 -68 -41t-83 -28t-89 -10zM371 642q-37 0 -57.5 19t-20.5 53q0 31 21 51t57 20q37 0 57.5 -18.5t20.5 -52.5q0 -32 -21 -52t-57 -20z" />
    <glyph glyph-name="Eogonek" unicode="&#x118;" horiz-adv-x="749" 
d="M128 0v700h514v-118h-386v-464h390v-118h-518zM192 300v116h399v-116h-399zM523 -204q-31 0 -56.5 13.5t-41 37t-15.5 53.5q0 26 11.5 49.5t33.5 42.5t51 33t63 23l38 -48q-28 -7 -51 -20.5t-35.5 -29.5t-12.5 -34q0 -15 8.5 -24.5t23.5 -9.5q11 0 19.5 6.5t15.5 18.5
l61 -44q-11 -27 -42 -47t-71 -20z" />
    <glyph glyph-name="eogonek" unicode="&#x119;" horiz-adv-x="724" 
d="M477 -202q-54 0 -84.5 30.5t-30.5 71.5q0 44 27 77t73.5 59t103.5 50l23 -40q-63 -33 -96 -62t-33 -62q0 -17 9.5 -27t24.5 -10q14 0 23 6t18 18l61 -44q-10 -17 -27 -32.5t-40.5 -25t-51.5 -9.5zM383 -10q-92 0 -163 35t-110.5 95.5t-39.5 138.5q0 64 23 115t63.5 88
t95.5 57t119 20q58 0 108.5 -19.5t88 -54t58 -82t19.5 -104.5l-1 -47h-483l-23 86h403l-16 -15v22q-4 31 -26 54.5t-55.5 37.5t-72.5 14q-55 0 -96 -17.5t-63.5 -53.5t-22.5 -92q0 -51 26.5 -88.5t74 -58.5t110.5 -21q54 0 93 14.5t72 39.5l58 -85q-29 -23 -68 -41t-83 -28
t-89 -10z" />
    <glyph glyph-name="Ecaron" unicode="&#x11a;" horiz-adv-x="749" 
d="M128 0v700h514v-118h-386v-464h390v-118h-518zM192 300v116h399v-116h-399zM350 756l-125 105l42 41l143 -66h-30l143 66l42 -41l-125 -105h-90z" />
    <glyph glyph-name="ecaron" unicode="&#x11b;" horiz-adv-x="724" 
d="M383 -10q-92 0 -163 35t-110.5 95.5t-39.5 138.5q0 64 23 115t63.5 88t95.5 57t119 20q58 0 108.5 -19.5t88 -54t58 -82t19.5 -104.5l-1 -47h-483l-23 86h403l-16 -15v22q-4 31 -26 54.5t-55.5 37.5t-72.5 14q-55 0 -96 -17.5t-63.5 -53.5t-22.5 -92q0 -51 26.5 -88.5
t74 -58.5t110.5 -21q54 0 93 14.5t72 39.5l58 -85q-29 -23 -68 -41t-83 -28t-89 -10zM326 607l-117 119l45 39l132 -78h-30l132 78l45 -39l-117 -119h-90z" />
    <glyph glyph-name="Gcircumflex" unicode="&#x11c;" horiz-adv-x="897" 
d="M465 -10q-82 0 -152.5 25.5t-123 73t-82 114t-29.5 148.5q0 76 29.5 141.5t83.5 114t126.5 75.5t156.5 27q64 0 120.5 -16t101 -43t72.5 -59l-82 -88q-30 26 -63.5 44.5t-71 29.5t-78.5 11q-55 0 -102.5 -18t-82.5 -50t-55 -75t-20 -94q0 -55 20.5 -99.5t57 -76t83.5 -48
t100 -16.5q45 0 84.5 11t69.5 30.5t46.5 46.5t15.5 58v19l18 -24h-241v115h353q2 -13 3 -25.5t1.5 -23t0.5 -17.5q0 -73 -27 -130.5t-75.5 -97.5t-114 -61.5t-143.5 -21.5zM341 755l-41 42l128 103h79l128 -103l-41 -42l-141 67h29z" />
    <glyph glyph-name="gcircumflex" unicode="&#x11d;" horiz-adv-x="798" 
d="M387 -230q-73 0 -135 18.5t-100 46.5l43 93q21 -13 49.5 -24.5t63 -19t72.5 -7.5q54 0 92.5 18.5t59.5 56t21 91.5v81l18 -7q-7 -30 -39.5 -58t-80.5 -46t-102 -18q-80 0 -141.5 35t-97 95.5t-35.5 139.5t36 140.5t99 97t144 35.5q27 0 57.5 -6.5t59 -18.5t52.5 -28
t39 -34.5t18 -37.5l-26 -8l2 122h120v-475q0 -70 -21.5 -122t-60.5 -88t-92 -54t-115 -18zM380 100q53 0 93 21t62 58t22 85q0 49 -22.5 86.5t-62 58.5t-92.5 21t-93.5 -21.5t-64 -59t-23.5 -85.5q0 -47 23.5 -84.5t64 -58.5t93.5 -21zM267 605l-45 39l125 119h90l125 -119
l-45 -39l-140 77h30z" />
    <glyph glyph-name="Gbreve" unicode="&#x11e;" horiz-adv-x="897" 
d="M465 -10q-82 0 -152.5 25.5t-123 73t-82 114t-29.5 148.5q0 76 29.5 141.5t83.5 114t126.5 75.5t156.5 27q64 0 120.5 -16t101 -43t72.5 -59l-82 -88q-30 26 -63.5 44.5t-71 29.5t-78.5 11q-55 0 -102.5 -18t-82.5 -50t-55 -75t-20 -94q0 -55 20.5 -99.5t57 -76t83.5 -48
t100 -16.5q45 0 84.5 11t69.5 30.5t46.5 46.5t15.5 58v19l18 -24h-241v115h353q2 -13 3 -25.5t1.5 -23t0.5 -17.5q0 -73 -27 -130.5t-75.5 -97.5t-114 -61.5t-143.5 -21.5zM468 753q-42 0 -77 19t-58.5 50.5t-32.5 70.5l84 12q11 -25 33 -44t51 -19t51 19t33 44l84 -12
q-8 -39 -32 -70.5t-58.5 -50.5t-77.5 -19z" />
    <glyph glyph-name="gbreve" unicode="&#x11f;" horiz-adv-x="798" 
d="M387 -230q-73 0 -135 18.5t-100 46.5l43 93q21 -13 49.5 -24.5t63 -19t72.5 -7.5q54 0 92.5 18.5t59.5 56t21 91.5v81l18 -7q-7 -30 -39.5 -58t-80.5 -46t-102 -18q-80 0 -141.5 35t-97 95.5t-35.5 139.5t36 140.5t99 97t144 35.5q27 0 57.5 -6.5t59 -18.5t52.5 -28
t39 -34.5t18 -37.5l-26 -8l2 122h120v-475q0 -70 -21.5 -122t-60.5 -88t-92 -54t-115 -18zM380 100q53 0 93 21t62 58t22 85q0 49 -22.5 86.5t-62 58.5t-92.5 21t-93.5 -21.5t-64 -59t-23.5 -85.5q0 -47 23.5 -84.5t64 -58.5t93.5 -21zM392 593q-66 0 -110 42t-58 114l84 12
q12 -36 34 -57.5t50 -21.5t50 21.5t34 57.5l84 -12q-14 -72 -58 -114t-110 -42z" />
    <glyph glyph-name="Gdotaccent" unicode="&#x120;" horiz-adv-x="897" 
d="M465 -10q-82 0 -152.5 25.5t-123 73t-82 114t-29.5 148.5q0 76 29.5 141.5t83.5 114t126.5 75.5t156.5 27q64 0 120.5 -16t101 -43t72.5 -59l-82 -88q-30 26 -63.5 44.5t-71 29.5t-78.5 11q-55 0 -102.5 -18t-82.5 -50t-55 -75t-20 -94q0 -55 20.5 -99.5t57 -76t83.5 -48
t100 -16.5q45 0 84.5 11t69.5 30.5t46.5 46.5t15.5 58v19l18 -24h-241v115h353q2 -13 3 -25.5t1.5 -23t0.5 -17.5q0 -73 -27 -130.5t-75.5 -97.5t-114 -61.5t-143.5 -21.5zM468 758q-39 0 -58.5 19.5t-19.5 51.5q0 29 19.5 50.5t58.5 21.5t58.5 -19.5t19.5 -52.5
q0 -28 -19.5 -49.5t-58.5 -21.5z" />
    <glyph glyph-name="gdotaccent" unicode="&#x121;" horiz-adv-x="798" 
d="M387 -230q-73 0 -135 18.5t-100 46.5l43 93q21 -13 49.5 -24.5t63 -19t72.5 -7.5q54 0 92.5 18.5t59.5 56t21 91.5v81l18 -7q-7 -30 -39.5 -58t-80.5 -46t-102 -18q-80 0 -141.5 35t-97 95.5t-35.5 139.5t36 140.5t99 97t144 35.5q27 0 57.5 -6.5t59 -18.5t52.5 -28
t39 -34.5t18 -37.5l-26 -8l2 122h120v-475q0 -70 -21.5 -122t-60.5 -88t-92 -54t-115 -18zM380 100q53 0 93 21t62 58t22 85q0 49 -22.5 86.5t-62 58.5t-92.5 21t-93.5 -21.5t-64 -59t-23.5 -85.5q0 -47 23.5 -84.5t64 -58.5t93.5 -21zM392 642q-37 0 -57.5 19t-20.5 53
q0 31 21 51t57 20q37 0 57.5 -18.5t20.5 -52.5q0 -32 -21 -52t-57 -20z" />
    <glyph glyph-name="uni0122" unicode="&#x122;" horiz-adv-x="897" 
d="M465 -10q-82 0 -152.5 25.5t-123 73t-82 114t-29.5 148.5q0 76 29.5 141.5t83.5 114t126.5 75.5t156.5 27q64 0 120.5 -16t101 -43t72.5 -59l-82 -88q-30 26 -63.5 44.5t-71 29.5t-78.5 11q-55 0 -102.5 -18t-82.5 -50t-55 -75t-20 -94q0 -55 20.5 -99.5t57 -76t83.5 -48
t100 -16.5q45 0 84.5 11t69.5 30.5t46.5 46.5t15.5 58v19l18 -24h-241v115h353q2 -13 3 -25.5t1.5 -23t0.5 -17.5q0 -73 -27 -130.5t-75.5 -97.5t-114 -61.5t-143.5 -21.5zM398 -261l-30 47q14 4 28.5 12t23.5 19.5t9 22.5q0 7 -5 11t-16 8q-16 6 -24.5 15.5t-8.5 27.5
q0 27 20 41t51 14q34 0 60 -21.5t26 -62.5q0 -25 -11.5 -46t-30.5 -37.5t-42.5 -29.5t-49.5 -21z" />
    <glyph glyph-name="uni0123" unicode="&#x123;" horiz-adv-x="798" 
d="M387 -230q-73 0 -135 18.5t-100 46.5l43 93q21 -13 49.5 -24.5t63 -19t72.5 -7.5q54 0 92.5 18.5t59.5 56t21 91.5v81l18 -7q-7 -30 -39.5 -58t-80.5 -46t-102 -18q-80 0 -141.5 35t-97 95.5t-35.5 139.5t36 140.5t99 97t144 35.5q27 0 57.5 -6.5t59 -18.5t52.5 -28
t39 -34.5t18 -37.5l-26 -8l2 122h120v-475q0 -70 -21.5 -122t-60.5 -88t-92 -54t-115 -18zM380 100q53 0 93 21t62 58t22 85q0 49 -22.5 86.5t-62 58.5t-92.5 21t-93.5 -21.5t-64 -59t-23.5 -85.5q0 -47 23.5 -84.5t64 -58.5t93.5 -21zM395 602q-31 0 -58 20.5t-27 64.5
q0 27 13.5 49t34.5 38.5t44.5 28t41.5 17.5l30 -46q-13 -3 -27.5 -11.5t-24 -20t-9.5 -22.5q0 -10 6.5 -13.5t15.5 -6.5q13 -5 22.5 -13t9.5 -30q0 -27 -21 -41t-51 -14z" />
    <glyph glyph-name="Hcircumflex" unicode="&#x124;" horiz-adv-x="891" 
d="M633 0v700h130v-700h-130zM128 0v700h130v-700h-130zM182 286v122h514v-122h-514zM319 755l-41 42l128 103h79l128 -103l-41 -42l-141 67h29z" />
    <glyph glyph-name="hcircumflex" unicode="&#x125;" horiz-adv-x="774" 
d="M129 0v740h123v-337l-31 -10q11 38 43.5 70.5t79.5 53.5t99 21q68 0 114 -27t68.5 -76t22.5 -117v-318h-123v302q0 42 -15 70.5t-43.5 43.5t-66.5 14q-32 0 -59 -11t-47 -29.5t-30.5 -41.5t-10.5 -48v-300h-62h-38.5h-23.5zM260 795l-41 42l128 103h79l128 -103l-41 -42
l-141 67h29z" />
    <glyph glyph-name="Hbar" unicode="&#x126;" horiz-adv-x="1017" 
d="M84 472v116h129l56 -10h467l53 10h145v-116h-143l-43 10h-489l-50 -10h-125zM696 0v700h130v-700h-130zM191 0v700h130v-700h-130zM245 286l1 122h513v-122h-514z" />
    <glyph glyph-name="hbar" unicode="&#x127;" horiz-adv-x="777" 
d="M49 589v98h345v-98h-345zM129 0v740h123v-337l-31 -10q11 38 43.5 70.5t79.5 53.5t99 21q68 0 114 -27t68.5 -76t22.5 -117v-318h-123v302q0 42 -15 70.5t-43.5 43.5t-66.5 14q-32 0 -59 -11t-47 -29.5t-30.5 -41.5t-10.5 -48v-300h-62h-38.5h-23.5z" />
    <glyph glyph-name="Itilde" unicode="&#x128;" horiz-adv-x="655" 
d="M120 0v118h143v464h-143v118h416v-118h-143v-464h143v-118h-416zM403 768q-22 0 -44.5 7t-44.5 16q-17 7 -29 11t-22 4q-14 0 -22 -9.5t-8 -28.5h-85q0 58 35 90.5t83 32.5q20 0 39.5 -6t40.5 -16q15 -6 27.5 -10t21.5 -4q14 0 21.5 10t6.5 26h84q0 -32 -12.5 -60.5
t-36 -45.5t-55.5 -17z" />
    <glyph glyph-name="itilde" unicode="&#x129;" horiz-adv-x="365" 
d="M121 0v527h123v-527h-123zM239 615q-19 0 -34 7t-33 21q-18 16 -28 22t-18 6q-13 0 -23.5 -13.5t-14.5 -41.5l-75 11q1 52 31 89t81 37q19 0 33.5 -7t32.5 -20q18 -14 27.5 -21t18.5 -7q14 0 24 13.5t13 40.5l76 -11q-1 -33 -15 -62.5t-38.5 -46.5t-57.5 -17z" />
    <glyph glyph-name="Imacron" unicode="&#x12a;" horiz-adv-x="655" 
d="M120 0v118h143v464h-143v118h416v-118h-143v-464h143v-118h-416zM157 788v84h341v-84h-341z" />
    <glyph glyph-name="imacron" unicode="&#x12b;" horiz-adv-x="365" 
d="M121 0v527h123v-527h-123zM27 641v84h308v-84h-308z" />
    <glyph glyph-name="Ibreve" unicode="&#x12c;" horiz-adv-x="655" 
d="M120 0v118h143v464h-143v118h416v-118h-143v-464h143v-118h-416zM328 753q-42 0 -77 19t-58.5 50.5t-32.5 70.5l84 12q11 -25 33 -44t51 -19t51 19t33 44l84 -12q-8 -39 -32 -70.5t-58.5 -50.5t-77.5 -19z" />
    <glyph glyph-name="ibreve" unicode="&#x12d;" horiz-adv-x="365" 
d="M121 0v527h123v-527h-123zM181 593q-66 0 -110 42t-58 114l84 12q12 -36 34 -57.5t50 -21.5t50 21.5t34 57.5l84 -12q-14 -72 -58 -114t-110 -42z" />
    <glyph glyph-name="Iogonek" unicode="&#x12e;" horiz-adv-x="655" 
d="M120 0v118h143v464h-143v118h416v-118h-143v-464h143v-118h-416zM349 -204q-31 0 -56.5 13.5t-41 37t-15.5 53.5q0 26 11.5 49.5t33.5 42.5t51 33t63 23l38 -48q-28 -7 -51 -20.5t-35.5 -29.5t-12.5 -34q0 -15 8.5 -24.5t23.5 -9.5q11 0 19.5 6.5t15.5 18.5l61 -44
q-11 -27 -42 -47t-71 -20z" />
    <glyph glyph-name="iogonek" unicode="&#x12f;" horiz-adv-x="365" 
d="M121 0v527h123v-527h-123zM181 642q-37 0 -57.5 19t-20.5 53q0 31 21 51t57 20q37 0 57.5 -18.5t20.5 -52.5q0 -32 -21 -52t-57 -20zM150 -204q-30 0 -56 14.5t-41.5 38.5t-15.5 53q0 27 12 49.5t33.5 40t52.5 31t67 23.5l39 -46q-28 -6 -52.5 -19t-39 -30t-14.5 -35
q0 -15 9 -24.5t23 -9.5q11 0 19.5 7t15.5 18l61 -44q-7 -16 -23.5 -31.5t-39 -25.5t-50.5 -10z" />
    <glyph glyph-name="Idotaccent" unicode="&#x130;" horiz-adv-x="655" 
d="M120 0v118h143v464h-143v118h416v-118h-143v-464h143v-118h-416zM328 758q-39 0 -58.5 19.5t-19.5 51.5q0 29 19.5 50.5t58.5 21.5t58.5 -19.5t19.5 -52.5q0 -28 -19.5 -49.5t-58.5 -21.5z" />
    <glyph glyph-name="dotlessi" unicode="&#x131;" horiz-adv-x="365" 
d="M121 0v527h123v-527h-123z" />
    <glyph glyph-name="IJ" unicode="&#x132;" horiz-adv-x="1401" 
d="M120 0v118h143v464h-143v118h416v-118h-143v-464h143v-118h-416zM971 -10q-48 0 -87 13t-69 33.5t-50.5 45t-33.5 47.5l81 83q16 -24 33 -43.5t34.5 -32t39 -19.5t45.5 -7q41 0 71.5 18.5t47 50.5t16.5 71v330h-147v120h393v-120h-118v-343q0 -51 -18 -95.5t-51.5 -79
t-81 -53.5t-105.5 -19z" />
    <glyph glyph-name="ij" unicode="&#x133;" horiz-adv-x="816" 
d="M139 0v527h123v-527h-123zM199 643q-37 0 -57.5 18.5t-20.5 52.5q0 32 21 52t57 20q37 0 58 -18.5t21 -53.5q0 -31 -21.5 -51t-57.5 -20zM460 -201l-47 99q54 0 86.5 19t48 56.5t15.5 93.5v460h123v-489q0 -76 -28.5 -129.5t-79 -81.5t-118.5 -28zM626 642
q-37 0 -57.5 19t-20.5 53q0 31 21 51t57 20q38 0 58.5 -18.5t20.5 -52.5q0 -32 -21 -52t-58 -20z" />
    <glyph glyph-name="Jcircumflex" unicode="&#x134;" horiz-adv-x="746" 
d="M316 -10q-48 0 -87 13t-69 33.5t-50.5 45t-33.5 47.5l81 83q16 -24 33 -43.5t34.5 -32t39 -19.5t45.5 -7q41 0 71.5 18.5t47 50.5t16.5 71v330h-147v120h393v-120h-118v-343q0 -51 -18 -95.5t-51.5 -79t-81 -53.5t-105.5 -19zM376 755l-41 42l128 103h79l128 -103
l-41 -42l-141 67h29z" />
    <glyph glyph-name="jcircumflex" unicode="&#x135;" horiz-adv-x="408" 
d="M58 -201l-47 99q54 0 86.5 19t48 56.5t15.5 93.5v460h123v-489q0 -76 -28.5 -129.5t-79 -81.5t-118.5 -28zM100 605l-45 39l125 119h90l125 -119l-45 -39l-140 77h30z" />
    <glyph glyph-name="uni0136" unicode="&#x136;" horiz-adv-x="870" 
d="M225 194l-17 130l419 376h171zM128 0v700h130v-700h-130zM639 0l-281 361l87 86l356 -447h-162zM379 -261l-30 47q14 4 28.5 12t23.5 19.5t9 22.5q0 7 -5 11t-16 8q-16 6 -24.5 15.5t-8.5 27.5q0 27 20 41t51 14q34 0 60 -21.5t26 -62.5q0 -25 -11.5 -46t-30.5 -37.5
t-42.5 -29.5t-49.5 -21z" />
    <glyph glyph-name="uni0137" unicode="&#x137;" horiz-adv-x="740" 
d="M238 149l-18 115l297 263h167zM129 0v740h120v-740h-120zM533 0l-224 259l85 74l292 -333h-153zM323 -260l-30 46q14 5 28.5 13t23.5 19t9 22q0 9 -5 12.5t-17 6.5q-16 7 -24 16.5t-8 27.5q0 26 20.5 40.5t51.5 14.5q34 0 59.5 -22t25.5 -64q0 -23 -11.5 -43.5t-30.5 -37
t-42.5 -29.5t-49.5 -22z" />
    <glyph glyph-name="kgreenlandic" unicode="&#x138;" horiz-adv-x="720" 
d="M241 143l-23 105l295 279h162zM129 0v527h122v-527h-122zM527 0l-216 272l86 58l277 -331z" />
    <glyph glyph-name="Lacute" unicode="&#x139;" horiz-adv-x="722" 
d="M128 0v700h130v-580h379v-120h-509zM116 752l-31 63l192 113l50 -99z" />
    <glyph glyph-name="lacute" unicode="&#x13a;" horiz-adv-x="379" 
d="M127 0v740h124v-740h-124zM111 792l-31 63l192 113l50 -99z" />
    <glyph glyph-name="uni013B" unicode="&#x13b;" horiz-adv-x="722" 
d="M128 0v700h130v-580h379v-120h-509zM312 -261l-30 47q14 4 28.5 12t23.5 19.5t9 22.5q0 7 -5 11t-16 8q-16 6 -24.5 15.5t-8.5 27.5q0 27 20 41t51 14q34 0 60 -21.5t26 -62.5q0 -25 -11.5 -46t-30.5 -37.5t-42.5 -29.5t-49.5 -21z" />
    <glyph glyph-name="uni013C" unicode="&#x13c;" horiz-adv-x="379" 
d="M127 0v740h124v-740h-124zM137 -260l-30 46q14 5 28.5 13t23.5 19t9 22q0 9 -5 12.5t-17 6.5q-16 7 -24 16.5t-8 27.5q0 26 20.5 40.5t51.5 14.5q34 0 59.5 -22t25.5 -64q0 -23 -11.5 -43.5t-30.5 -37t-42.5 -29.5t-49.5 -22z" />
    <glyph glyph-name="Lcaron" unicode="&#x13d;" horiz-adv-x="722" 
d="M128 0v700h130v-580h379v-120h-509zM422 482l-30 47q14 3 28.5 11.5t23.5 20t9 22.5q0 7 -5 11t-16 8q-16 5 -24.5 14.5t-8.5 28.5q0 26 20 40.5t51 14.5q34 0 60 -21.5t26 -62.5q0 -25 -11.5 -46t-30.5 -38t-42.5 -29.5t-49.5 -20.5z" />
    <glyph glyph-name="lcaron" unicode="&#x13e;" horiz-adv-x="417" 
d="M127 0v740h124v-740h-124zM346 522l-30 47q14 3 28.5 11.5t23.5 20t9 22.5q0 7 -5 11t-16 8q-16 5 -24.5 14.5t-8.5 28.5q0 26 20 40.5t51 14.5q34 0 60 -21.5t26 -62.5q0 -25 -11.5 -46t-30.5 -38t-42.5 -29.5t-49.5 -20.5z" />
    <glyph glyph-name="Ldot" unicode="&#x13f;" horiz-adv-x="722" 
d="M128 0v700h130v-580h379v-120h-509zM549 299q-44 0 -66.5 21.5t-22.5 58.5q0 33 23 56.5t66 23.5q44 0 66.5 -21t22.5 -59q0 -33 -23 -56.5t-66 -23.5z" />
    <glyph glyph-name="ldot" unicode="&#x140;" horiz-adv-x="474" 
d="M127 0v740h124v-740h-124zM428 299q-44 0 -66.5 21.5t-22.5 58.5q0 33 23 56.5t66 23.5q44 0 66.5 -21t22.5 -59q0 -33 -23 -56.5t-66 -23.5z" />
    <glyph glyph-name="Lslash" unicode="&#x141;" horiz-adv-x="750" 
d="M59 237l-36 99l423 175l38 -102zM155 0v700h130v-580h379v-120h-509z" />
    <glyph glyph-name="lslash" unicode="&#x142;" horiz-adv-x="405" 
d="M61 279l-37 101l319 112l39 -99zM141 0v740h123v-740h-123z" />
    <glyph glyph-name="Nacute" unicode="&#x143;" horiz-adv-x="929" 
d="M128 0v700h121l462 -547l-18 -4q-5 30 -8 61.5t-5.5 64.5t-4 68t-2 71.5t-0.5 75.5v210h129v-700h-123l-464 539l22 7q3 -41 6 -74t6 -60.5t4.5 -51t2.5 -46t1 -43.5v-271h-129zM387 752l-31 63l192 113l50 -99z" />
    <glyph glyph-name="nacute" unicode="&#x144;" horiz-adv-x="774" 
d="M129 0v527h120l3 -124l-31 -9q14 37 46 69.5t77 53.5t96 21q68 0 115 -26.5t70 -76t23 -117.5v-318h-123v303q0 41 -15 69t-43.5 43t-66.5 14q-32 0 -59 -11t-47 -29.5t-30.5 -41t-10.5 -46.5v-301h-62h-38.5h-23.5zM344 600l-39 59l156 130l68 -89z" />
    <glyph glyph-name="uni0145" unicode="&#x145;" horiz-adv-x="929" 
d="M128 0v700h121l462 -547l-18 -4q-5 30 -8 61.5t-5.5 64.5t-4 68t-2 71.5t-0.5 75.5v210h129v-700h-123l-464 539l22 7q3 -41 6 -74t6 -60.5t4.5 -51t2.5 -46t1 -43.5v-271h-129zM413 -261l-30 47q14 4 28.5 12t23.5 19.5t9 22.5q0 7 -5 11t-16 8q-16 6 -24.5 15.5
t-8.5 27.5q0 27 20 41t51 14q34 0 60 -21.5t26 -62.5q0 -25 -11.5 -46t-30.5 -37.5t-42.5 -29.5t-49.5 -21z" />
    <glyph glyph-name="uni0146" unicode="&#x146;" horiz-adv-x="774" 
d="M129 0v527h120l3 -124l-31 -9q14 37 46 69.5t77 53.5t96 21q68 0 115 -26.5t70 -76t23 -117.5v-318h-123v303q0 41 -15 69t-43.5 43t-66.5 14q-32 0 -59 -11t-47 -29.5t-30.5 -41t-10.5 -46.5v-301h-62h-38.5h-23.5zM335 -260l-30 46q14 5 28.5 13t23.5 19t9 22
q0 9 -5 12.5t-17 6.5q-16 7 -24 16.5t-8 27.5q0 26 20.5 40.5t51.5 14.5q34 0 59.5 -22t25.5 -64q0 -23 -11.5 -43.5t-30.5 -37t-42.5 -29.5t-49.5 -22z" />
    <glyph glyph-name="Ncaron" unicode="&#x147;" horiz-adv-x="929" 
d="M128 0v700h121l462 -547l-18 -4q-5 30 -8 61.5t-5.5 64.5t-4 68t-2 71.5t-0.5 75.5v210h129v-700h-123l-464 539l22 7q3 -41 6 -74t6 -60.5t4.5 -51t2.5 -46t1 -43.5v-271h-129zM420 756l-125 105l42 41l143 -66h-30l143 66l42 -41l-125 -105h-90z" />
    <glyph glyph-name="ncaron" unicode="&#x148;" horiz-adv-x="774" 
d="M129 0v527h120l3 -124l-31 -9q14 37 46 69.5t77 53.5t96 21q68 0 115 -26.5t70 -76t23 -117.5v-318h-123v303q0 41 -15 69t-43.5 43t-66.5 14q-32 0 -59 -11t-47 -29.5t-30.5 -41t-10.5 -46.5v-301h-62h-38.5h-23.5zM369 607l-117 119l45 39l132 -78h-30l132 78l45 -39
l-117 -119h-90z" />
    <glyph glyph-name="napostrophe" unicode="&#x149;" horiz-adv-x="813" 
d="M-40 432l18 268h138l-82 -268h-74zM168 0v527h120l3 -124l-31 -9q14 37 46 69.5t77 53.5t96 21q68 0 115 -26.5t70 -76t23 -117.5v-318h-123v303q0 41 -15 69t-43.5 43t-66.5 14q-32 0 -59 -11t-47 -29.5t-30.5 -41t-10.5 -46.5v-301h-62h-38.5h-23.5z" />
    <glyph glyph-name="Eng" unicode="&#x14a;" horiz-adv-x="929" 
d="M568 -199l-49 104q34 0 61.5 8t48 23.5t32.5 36t12 48.5v48l7 -70l-449 519l8 12q2 -29 5 -58.5t5 -57t4 -53t3 -46t1 -36.5v-279h-129v700h121l455 -537l-11 -8q-7 37 -10.5 76.5t-5.5 81.5t-3 86.5t-1 90.5v210h129v-667q0 -73 -30 -125.5t-82.5 -79.5t-121.5 -27z" />
    <glyph glyph-name="eng" unicode="&#x14b;" horiz-adv-x="774" 
d="M425 -199l-46 100q75 0 110.5 29t35.5 83v290q0 41 -15 69t-43.5 43t-66.5 14q-32 0 -59 -11t-47 -29.5t-30.5 -41t-10.5 -46.5v-301h-124v527h120l1 -83q20 26 50 47.5t65 34t75 12.5q68 0 115 -26.5t70 -76t23 -117.5v-337q0 -57 -28 -97t-78 -61.5t-117 -21.5z" />
    <glyph glyph-name="Omacron" unicode="&#x14c;" horiz-adv-x="921" 
d="M460 -10q-83 0 -152.5 27t-121.5 76t-80 115t-28 143t28 143t80 115t121.5 76t152.5 27t153 -27t121 -76.5t79.5 -115t28.5 -142.5q0 -76 -28.5 -142t-79.5 -115.5t-121 -76.5t-153 -27zM460 114q55 0 100.5 17.5t79 50t52 75.5t18.5 94t-18.5 94t-52 75.5t-79 50
t-100.5 17.5q-54 0 -100 -17.5t-79.5 -50t-51.5 -75.5t-18 -94t18 -94t51.5 -75.5t79.5 -50t100 -17.5zM289 788v84h341v-84h-341z" />
    <glyph glyph-name="omacron" unicode="&#x14d;" horiz-adv-x="762" 
d="M381 -10q-89 0 -158 35.5t-108.5 97.5t-39.5 141t39.5 141t108.5 97.5t158 35.5t158 -35.5t108.5 -97.5t39.5 -141t-39.5 -141t-108.5 -97.5t-158 -35.5zM381 99q51 0 92.5 22t65 59t23.5 84q0 48 -23.5 85.5t-65 58.5t-92.5 21q-50 0 -92 -21.5t-66 -58.5t-23 -85
q-1 -47 23 -84t66 -59t92 -22zM227 641v84h308v-84h-308z" />
    <glyph glyph-name="Obreve" unicode="&#x14e;" horiz-adv-x="921" 
d="M460 -10q-83 0 -152.5 27t-121.5 76t-80 115t-28 143t28 143t80 115t121.5 76t152.5 27t153 -27t121 -76.5t79.5 -115t28.5 -142.5q0 -76 -28.5 -142t-79.5 -115.5t-121 -76.5t-153 -27zM460 114q55 0 100.5 17.5t79 50t52 75.5t18.5 94t-18.5 94t-52 75.5t-79 50
t-100.5 17.5q-54 0 -100 -17.5t-79.5 -50t-51.5 -75.5t-18 -94t18 -94t51.5 -75.5t79.5 -50t100 -17.5zM460 753q-42 0 -77 19t-58.5 50.5t-32.5 70.5l84 12q11 -25 33 -44t51 -19t51 19t33 44l84 -12q-8 -39 -32 -70.5t-58.5 -50.5t-77.5 -19z" />
    <glyph glyph-name="obreve" unicode="&#x14f;" horiz-adv-x="762" 
d="M381 -10q-89 0 -158 35.5t-108.5 97.5t-39.5 141t39.5 141t108.5 97.5t158 35.5t158 -35.5t108.5 -97.5t39.5 -141t-39.5 -141t-108.5 -97.5t-158 -35.5zM381 99q51 0 92.5 22t65 59t23.5 84q0 48 -23.5 85.5t-65 58.5t-92.5 21q-50 0 -92 -21.5t-66 -58.5t-23 -85
q-1 -47 23 -84t66 -59t92 -22zM381 593q-66 0 -110 42t-58 114l84 12q12 -36 34 -57.5t50 -21.5t50 21.5t34 57.5l84 -12q-14 -72 -58 -114t-110 -42z" />
    <glyph glyph-name="Ohungarumlaut" unicode="&#x150;" horiz-adv-x="921" 
d="M460 -10q-83 0 -152.5 27t-121.5 76t-80 115t-28 143t28 143t80 115t121.5 76t152.5 27t153 -27t121 -76.5t79.5 -115t28.5 -142.5q0 -76 -28.5 -142t-79.5 -115.5t-121 -76.5t-153 -27zM460 114q55 0 100.5 17.5t79 50t52 75.5t18.5 94t-18.5 94t-52 75.5t-79 50
t-100.5 17.5q-54 0 -100 -17.5t-79.5 -50t-51.5 -75.5t-18 -94t18 -94t51.5 -75.5t79.5 -50t100 -17.5zM346 751l-43 56l138 139l74 -84zM553 750l-42 57l140 138l74 -85z" />
    <glyph glyph-name="ohungarumlaut" unicode="&#x151;" horiz-adv-x="762" 
d="M381 -10q-89 0 -158 35.5t-108.5 97.5t-39.5 141t39.5 141t108.5 97.5t158 35.5t158 -35.5t108.5 -97.5t39.5 -141t-39.5 -141t-108.5 -97.5t-158 -35.5zM381 99q51 0 92.5 22t65 59t23.5 84q0 48 -23.5 85.5t-65 58.5t-92.5 21q-50 0 -92 -21.5t-66 -58.5t-23 -85
q-1 -47 23 -84t66 -59t92 -22zM416 600l-44 51l146 141l74 -85zM215 599l-46 50l143 143l75 -83z" />
    <glyph glyph-name="OE" unicode="&#x152;" horiz-adv-x="1223" 
d="M435 0q-84 0 -150.5 26t-112 73t-70 111t-24.5 140q0 75 26 138.5t74.5 111.5t118.5 74t158 26h665v-118h-389v-165h334v-116h-334v-183h389v-118h-685zM210 350q0 -49 15.5 -91.5t45.5 -73.5t73 -48t100 -17h159v460h-143q-61 0 -107 -17t-78 -48.5t-48.5 -73.5
t-16.5 -91z" />
    <glyph glyph-name="oe" unicode="&#x153;" horiz-adv-x="1219" 
d="M381 -10q-89 0 -158 35.5t-108.5 97.5t-39.5 141t39.5 141t108.5 97.5t158 35.5q58 0 108 -15.5t88.5 -44.5t64.5 -67l-32 -1q27 41 65 69t86 43.5t102 15.5q59 0 110 -19t88.5 -53.5t58.5 -82t20 -104.5l-1 -47h-469l1 86h394l-45 -39v30q0 38 -22 65.5t-58 42t-78 14.5
q-40 0 -73.5 -10.5t-56.5 -31t-35.5 -51t-12.5 -69.5q0 -49 24.5 -87.5t71 -60t113.5 -21.5q53 0 92.5 14.5t74.5 39.5l57 -85q-29 -23 -68 -41t-83 -28t-88 -10q-61 0 -112.5 15.5t-91.5 44t-66 67.5l32 1q-25 -39 -63.5 -68t-88.5 -44.5t-107 -15.5zM381 99q50 0 91 21
t65 57.5t25 85.5q0 49 -23.5 86t-65 58.5t-92.5 21.5t-92 -21.5t-65.5 -58.5t-23.5 -85q-1 -47 23.5 -84t65.5 -59t92 -22z" />
    <glyph glyph-name="Racute" unicode="&#x154;" horiz-adv-x="823" 
d="M128 0v700h346q65 0 118 -29t83.5 -79t30.5 -113q0 -62 -32 -113t-86 -81t-120 -30h-213v-255h-127zM584 0l-202 316l136 25l222 -342zM255 368h209q31 0 55.5 14.5t39 39t14.5 54.5q0 31 -16 55t-44 38t-64 14h-194v-215zM305 749l-31 63l192 113l50 -99z" />
    <glyph glyph-name="racute" unicode="&#x155;" horiz-adv-x="571" 
d="M129 0v527h121l3 -178l-25 24q13 46 44.5 83.5t72.5 59.5t85 22q25 0 49 -5t38 -13l-33 -133q-16 10 -38.5 15.5t-45.5 5.5q-32 0 -59 -11.5t-46.5 -31t-30.5 -44t-11 -52.5v-269h-124zM263 599l-39 59l156 130l68 -89z" />
    <glyph glyph-name="uni0156" unicode="&#x156;" horiz-adv-x="823" 
d="M128 0v700h346q65 0 118 -29t83.5 -79t30.5 -113q0 -62 -32 -113t-86 -81t-120 -30h-213v-255h-127zM584 0l-202 316l136 25l222 -342zM255 368h209q31 0 55.5 14.5t39 39t14.5 54.5q0 31 -16 55t-44 38t-64 14h-194v-215zM357 -261l-30 47q14 4 28.5 12t23.5 19.5
t9 22.5q0 7 -5 11t-16 8q-16 6 -24.5 15.5t-8.5 27.5q0 27 20 41t51 14q34 0 60 -21.5t26 -62.5q0 -25 -11.5 -46t-30.5 -37.5t-42.5 -29.5t-49.5 -21z" />
    <glyph glyph-name="uni0157" unicode="&#x157;" horiz-adv-x="571" 
d="M129 0v527h121l3 -178l-25 24q13 46 44.5 83.5t72.5 59.5t85 22q25 0 49 -5t38 -13l-33 -133q-16 10 -38.5 15.5t-45.5 5.5q-32 0 -59 -11.5t-46.5 -31t-30.5 -44t-11 -52.5v-269h-124zM139 -260l-30 46q14 5 28.5 13t23.5 19t9 22q0 9 -5 12.5t-17 6.5q-16 7 -24 16.5
t-8 27.5q0 26 20.5 40.5t51.5 14.5q34 0 59.5 -22t25.5 -64q0 -23 -11.5 -43.5t-30.5 -37t-42.5 -29.5t-49.5 -22z" />
    <glyph glyph-name="Rcaron" unicode="&#x158;" horiz-adv-x="823" 
d="M128 0v700h346q65 0 118 -29t83.5 -79t30.5 -113q0 -62 -32 -113t-86 -81t-120 -30h-213v-255h-127zM584 0l-202 316l136 25l222 -342zM255 368h209q31 0 55.5 14.5t39 39t14.5 54.5q0 31 -16 55t-44 38t-64 14h-194v-215zM338 753l-125 105l42 41l143 -66h-30l143 66
l42 -41l-125 -105h-90z" />
    <glyph glyph-name="rcaron" unicode="&#x159;" horiz-adv-x="571" 
d="M129 0v527h121l3 -178l-25 24q13 46 44.5 83.5t72.5 59.5t85 22q25 0 49 -5t38 -13l-33 -133q-16 10 -38.5 15.5t-45.5 5.5q-32 0 -59 -11.5t-46.5 -31t-30.5 -44t-11 -52.5v-269h-124zM287 606l-117 119l45 39l132 -78h-30l132 78l45 -39l-117 -119h-90z" />
    <glyph glyph-name="Sacute" unicode="&#x15a;" horiz-adv-x="752" 
d="M383 -10q-69 0 -126.5 15.5t-103 45.5t-83.5 73l80 100q58 -67 115 -94t125 -27q39 0 73 10t55 30.5t21 49.5q0 19 -10 33.5t-27.5 25t-41 18.5t-49.5 13.5t-54 9.5q-60 10 -107 27t-79 43.5t-48.5 61.5t-16.5 81t21.5 84t60 65t89 42t108.5 15q65 0 116.5 -14t90.5 -41
t66 -64l-82 -88q-24 31 -54 51.5t-65.5 31t-73.5 10.5q-42 0 -73.5 -10t-50 -29t-18.5 -46q0 -21 11.5 -37t33 -28t52 -20t67.5 -14q57 -10 106 -25t85.5 -38t56.5 -56.5t20 -80.5q0 -69 -36.5 -119.5t-101.5 -77.5t-152 -27zM313 752l-31 63l192 113l50 -99z" />
    <glyph glyph-name="sacute" unicode="&#x15b;" horiz-adv-x="616" 
d="M319 -10q-80 0 -144.5 23.5t-107.5 71.5l80 71q34 -35 79 -52.5t97 -17.5q19 0 38 3.5t34.5 10.5t24 18.5t8.5 26.5q0 26 -30 40q-18 6 -44 13.5t-60 14.5q-58 12 -100.5 28t-68.5 39q-21 19 -32 44.5t-11 57.5q0 35 17.5 64t49 49.5t73 31.5t88.5 11q43 0 87 -9.5
t82.5 -27.5t65.5 -46l-66 -77q-22 18 -51 32.5t-60 23.5t-58 9q-20 0 -40 -3.5t-34.5 -10t-23 -17t-8.5 -25.5q-1 -11 5.5 -20.5t16.5 -17.5q16 -10 44.5 -18t69.5 -17q55 -11 96.5 -26.5t68.5 -36.5q21 -17 32 -40.5t11 -53.5q0 -50 -30.5 -87.5t-81.5 -58.5t-117 -21z
M240 600l-39 59l156 130l68 -89z" />
    <glyph glyph-name="Scircumflex" unicode="&#x15c;" horiz-adv-x="752" 
d="M383 -10q-69 0 -126.5 15.5t-103 45.5t-83.5 73l80 100q58 -67 115 -94t125 -27q39 0 73 10t55 30.5t21 49.5q0 19 -10 33.5t-27.5 25t-41 18.5t-49.5 13.5t-54 9.5q-60 10 -107 27t-79 43.5t-48.5 61.5t-16.5 81t21.5 84t60 65t89 42t108.5 15q65 0 116.5 -14t90.5 -41
t66 -64l-82 -88q-24 31 -54 51.5t-65.5 31t-73.5 10.5q-42 0 -73.5 -10t-50 -29t-18.5 -46q0 -21 11.5 -37t33 -28t52 -20t67.5 -14q57 -10 106 -25t85.5 -38t56.5 -56.5t20 -80.5q0 -69 -36.5 -119.5t-101.5 -77.5t-152 -27zM265 755l-41 42l128 103h79l128 -103l-41 -42
l-141 67h29z" />
    <glyph glyph-name="scircumflex" unicode="&#x15d;" horiz-adv-x="616" 
d="M319 -10q-80 0 -144.5 23.5t-107.5 71.5l80 71q34 -35 79 -52.5t97 -17.5q19 0 38 3.5t34.5 10.5t24 18.5t8.5 26.5q0 26 -30 40q-18 6 -44 13.5t-60 14.5q-58 12 -100.5 28t-68.5 39q-21 19 -32 44.5t-11 57.5q0 35 17.5 64t49 49.5t73 31.5t88.5 11q43 0 87 -9.5
t82.5 -27.5t65.5 -46l-66 -77q-22 18 -51 32.5t-60 23.5t-58 9q-20 0 -40 -3.5t-34.5 -10t-23 -17t-8.5 -25.5q-1 -11 5.5 -20.5t16.5 -17.5q16 -10 44.5 -18t69.5 -17q55 -11 96.5 -26.5t68.5 -36.5q21 -17 32 -40.5t11 -53.5q0 -50 -30.5 -87.5t-81.5 -58.5t-117 -21z
M185 605l-45 39l125 119h90l125 -119l-45 -39l-140 77h30z" />
    <glyph glyph-name="Scedilla" unicode="&#x15e;" horiz-adv-x="752" 
d="M383 -10q-69 0 -126.5 15.5t-103 45.5t-83.5 73l80 100q58 -67 115 -94t125 -27q39 0 73 10t55 30.5t21 49.5q0 19 -10 33.5t-27.5 25t-41 18.5t-49.5 13.5t-54 9.5q-60 10 -107 27t-79 43.5t-48.5 61.5t-16.5 81t21.5 84t60 65t89 42t108.5 15q65 0 116.5 -14t90.5 -41
t66 -64l-82 -88q-24 31 -54 51.5t-65.5 31t-73.5 10.5q-42 0 -73.5 -10t-50 -29t-18.5 -46q0 -21 11.5 -37t33 -28t52 -20t67.5 -14q57 -10 106 -25t85.5 -38t56.5 -56.5t20 -80.5q0 -69 -36.5 -119.5t-101.5 -77.5t-152 -27zM311 -245l-8 60q25 0 50 6t42.5 17t17.5 24
q0 14 -15 22t-35.5 12.5t-36.5 4.5l-13 14l70 109h67l-44 -69q47 -9 74 -32.5t27 -61.5q0 -28 -18 -48.5t-47 -33.5t-63.5 -19t-67.5 -5z" />
    <glyph glyph-name="scedilla" unicode="&#x15f;" horiz-adv-x="616" 
d="M319 -10q-80 0 -144.5 23.5t-107.5 71.5l80 71q34 -35 79 -52.5t97 -17.5q19 0 38 3.5t34.5 10.5t24 18.5t8.5 26.5q0 26 -30 40q-18 6 -44 13.5t-60 14.5q-58 12 -100.5 28t-68.5 39q-21 19 -32 44.5t-11 57.5q0 35 17.5 64t49 49.5t73 31.5t88.5 11q43 0 87 -9.5
t82.5 -27.5t65.5 -46l-66 -77q-22 18 -51 32.5t-60 23.5t-58 9q-20 0 -40 -3.5t-34.5 -10t-23 -17t-8.5 -25.5q-1 -11 5.5 -20.5t16.5 -17.5q16 -10 44.5 -18t69.5 -17q55 -11 96.5 -26.5t68.5 -36.5q21 -17 32 -40.5t11 -53.5q0 -50 -30.5 -87.5t-81.5 -58.5t-117 -21z
M224 -245l-7 60q24 0 49.5 6t42.5 17t17 24q0 14 -15 22t-35.5 12.5t-35.5 4.5l-14 14l70 109h67l-44 -69q48 -9 74.5 -32.5t26.5 -61.5q0 -28 -18 -48.5t-47.5 -33.5t-63.5 -19t-67 -5z" />
    <glyph glyph-name="Scaron" unicode="&#x160;" horiz-adv-x="752" 
d="M383 -10q-69 0 -126.5 15.5t-103 45.5t-83.5 73l80 100q58 -67 115 -94t125 -27q39 0 73 10t55 30.5t21 49.5q0 19 -10 33.5t-27.5 25t-41 18.5t-49.5 13.5t-54 9.5q-60 10 -107 27t-79 43.5t-48.5 61.5t-16.5 81t21.5 84t60 65t89 42t108.5 15q65 0 116.5 -14t90.5 -41
t66 -64l-82 -88q-24 31 -54 51.5t-65.5 31t-73.5 10.5q-42 0 -73.5 -10t-50 -29t-18.5 -46q0 -21 11.5 -37t33 -28t52 -20t67.5 -14q57 -10 106 -25t85.5 -38t56.5 -56.5t20 -80.5q0 -69 -36.5 -119.5t-101.5 -77.5t-152 -27zM347 756l-125 105l42 41l143 -66h-30l143 66
l42 -41l-125 -105h-90z" />
    <glyph glyph-name="scaron" unicode="&#x161;" horiz-adv-x="616" 
d="M319 -10q-80 0 -144.5 23.5t-107.5 71.5l80 71q34 -35 79 -52.5t97 -17.5q19 0 38 3.5t34.5 10.5t24 18.5t8.5 26.5q0 26 -30 40q-18 6 -44 13.5t-60 14.5q-58 12 -100.5 28t-68.5 39q-21 19 -32 44.5t-11 57.5q0 35 17.5 64t49 49.5t73 31.5t88.5 11q43 0 87 -9.5
t82.5 -27.5t65.5 -46l-66 -77q-22 18 -51 32.5t-60 23.5t-58 9q-20 0 -40 -3.5t-34.5 -10t-23 -17t-8.5 -25.5q-1 -11 5.5 -20.5t16.5 -17.5q16 -10 44.5 -18t69.5 -17q55 -11 96.5 -26.5t68.5 -36.5q21 -17 32 -40.5t11 -53.5q0 -50 -30.5 -87.5t-81.5 -58.5t-117 -21z
M265 607l-117 119l45 39l132 -78h-30l132 78l45 -39l-117 -119h-90z" />
    <glyph glyph-name="uni0162" unicode="&#x162;" horiz-adv-x="712" 
d="M288 0v580h-228v120h592v-120h-234v-580h-130zM262 -245l-8 60q25 0 50 6t42.5 17t17.5 24q0 14 -15 22t-35.5 12.5t-36.5 4.5l-13 14l70 109h67l-44 -69q47 -9 74 -32.5t27 -61.5q0 -28 -18 -48.5t-47 -33.5t-63.5 -19t-67.5 -5z" />
    <glyph glyph-name="uni0163" unicode="&#x163;" horiz-adv-x="535" 
d="M192 0v673h123v-673h-123zM64 413v114h398v-114h-398zM163 -245l-7 60q24 0 49.5 6t42.5 17t17 24q0 14 -15 22t-35.5 12.5t-35.5 4.5l-14 14l70 109h67l-44 -69q48 -9 74.5 -32.5t26.5 -61.5q0 -28 -18 -48.5t-47.5 -33.5t-63.5 -19t-67 -5z" />
    <glyph glyph-name="Tcaron" unicode="&#x164;" horiz-adv-x="712" 
d="M288 0v580h-228v120h592v-120h-234v-580h-130zM311 756l-125 105l42 41l143 -66h-30l143 66l42 -41l-125 -105h-90z" />
    <glyph glyph-name="tcaron" unicode="&#x165;" horiz-adv-x="535" 
d="M192 0v673h123v-673h-123zM64 413v114h398v-114h-398zM393 584l-30 47q14 3 28.5 11.5t23.5 20t9 22.5q0 7 -5 11t-16 8q-16 5 -24.5 14.5t-8.5 28.5q0 26 20 40.5t51 14.5q34 0 60 -21.5t26 -62.5q0 -25 -11.5 -46t-30.5 -38t-42.5 -29.5t-49.5 -20.5z" />
    <glyph glyph-name="Tbar" unicode="&#x166;" horiz-adv-x="712" 
d="M185 302v99h345v-99h-345zM288 0v580h-228v120h592v-120h-234v-580h-130z" />
    <glyph glyph-name="tbar" unicode="&#x167;" horiz-adv-x="535" 
d="M90 211v98h344v-98h-344zM192 0v673h123v-673h-123zM64 413v114h398v-114h-398z" />
    <glyph glyph-name="Utilde" unicode="&#x168;" horiz-adv-x="871" 
d="M435 -6q-93 0 -164 39t-111.5 107.5t-40.5 154.5v406h131v-399q0 -54 25 -96t67 -67t93 -25q55 0 98 25t68 67t25 96v399h126v-406q0 -86 -40.5 -154.5t-111.5 -107.5t-165 -39zM510 768q-22 0 -44.5 7t-44.5 16q-17 7 -29 11t-22 4q-14 0 -22 -9.5t-8 -28.5h-85
q0 58 35 90.5t83 32.5q20 0 39.5 -6t40.5 -16q15 -6 27.5 -10t21.5 -4q14 0 21.5 10t6.5 26h84q0 -32 -12.5 -60.5t-36 -45.5t-55.5 -17z" />
    <glyph glyph-name="utilde" unicode="&#x169;" horiz-adv-x="768" 
d="M326 -10q-62 0 -108 28t-71.5 81t-25.5 127v301h123v-271q0 -51 14.5 -85.5t44 -52.5t72.5 -18q31 0 57.5 10t46.5 28.5t31.5 44t11.5 56.5v288h123v-527h-120l-2 110l22 12q-12 -35 -43 -65t-75.5 -48.5t-100.5 -18.5zM442 615q-19 0 -34 7t-33 21q-18 16 -28 22t-18 6
q-13 0 -23.5 -13.5t-14.5 -41.5l-75 11q1 52 31 89t81 37q19 0 33.5 -7t32.5 -20q18 -14 27.5 -21t18.5 -7q14 0 24 13.5t13 40.5l76 -11q-1 -33 -15 -62.5t-38.5 -46.5t-57.5 -17z" />
    <glyph glyph-name="Umacron" unicode="&#x16a;" horiz-adv-x="871" 
d="M435 -6q-93 0 -164 39t-111.5 107.5t-40.5 154.5v406h131v-399q0 -54 25 -96t67 -67t93 -25q55 0 98 25t68 67t25 96v399h126v-406q0 -86 -40.5 -154.5t-111.5 -107.5t-165 -39zM264 788v84h341v-84h-341z" />
    <glyph glyph-name="umacron" unicode="&#x16b;" horiz-adv-x="768" 
d="M326 -10q-62 0 -108 28t-71.5 81t-25.5 127v301h123v-271q0 -51 14.5 -85.5t44 -52.5t72.5 -18q31 0 57.5 10t46.5 28.5t31.5 44t11.5 56.5v288h123v-527h-120l-2 110l22 12q-12 -35 -43 -65t-75.5 -48.5t-100.5 -18.5zM231 641v84h308v-84h-308z" />
    <glyph glyph-name="Ubreve" unicode="&#x16c;" horiz-adv-x="871" 
d="M435 -6q-93 0 -164 39t-111.5 107.5t-40.5 154.5v406h131v-399q0 -54 25 -96t67 -67t93 -25q55 0 98 25t68 67t25 96v399h126v-406q0 -86 -40.5 -154.5t-111.5 -107.5t-165 -39zM435 753q-42 0 -77 19t-58.5 50.5t-32.5 70.5l84 12q11 -25 33 -44t51 -19t51 19t33 44
l84 -12q-8 -39 -32 -70.5t-58.5 -50.5t-77.5 -19z" />
    <glyph glyph-name="ubreve" unicode="&#x16d;" horiz-adv-x="768" 
d="M326 -10q-62 0 -108 28t-71.5 81t-25.5 127v301h123v-271q0 -51 14.5 -85.5t44 -52.5t72.5 -18q31 0 57.5 10t46.5 28.5t31.5 44t11.5 56.5v288h123v-527h-120l-2 110l22 12q-12 -35 -43 -65t-75.5 -48.5t-100.5 -18.5zM385 593q-66 0 -110 42t-58 114l84 12
q12 -36 34 -57.5t50 -21.5t50 21.5t34 57.5l84 -12q-14 -72 -58 -114t-110 -42z" />
    <glyph glyph-name="Uring" unicode="&#x16e;" horiz-adv-x="871" 
d="M435 -6q-93 0 -164 39t-111.5 107.5t-40.5 154.5v406h131v-399q0 -54 25 -96t67 -67t93 -25q55 0 98 25t68 67t25 96v399h126v-406q0 -86 -40.5 -154.5t-111.5 -107.5t-165 -39zM434 702q-30 0 -57 15.5t-43.5 41t-16.5 55.5q0 32 16.5 57.5t43.5 41t57 15.5
q31 0 58 -15.5t43.5 -41t16.5 -57.5q0 -30 -16.5 -55.5t-43.5 -41t-58 -15.5zM434 770q20 0 33.5 12.5t13.5 31.5q0 21 -14 33t-33 12t-32.5 -12.5t-13.5 -32.5q0 -19 13.5 -31.5t32.5 -12.5z" />
    <glyph glyph-name="uring" unicode="&#x16f;" horiz-adv-x="768" 
d="M326 -10q-62 0 -108 28t-71.5 81t-25.5 127v301h123v-271q0 -51 14.5 -85.5t44 -52.5t72.5 -18q31 0 57.5 10t46.5 28.5t31.5 44t11.5 56.5v288h123v-527h-120l-2 110l22 12q-12 -35 -43 -65t-75.5 -48.5t-100.5 -18.5zM384 604q-29 0 -55 15t-42 40t-16 54q0 30 15.5 55
t41.5 40t56 15q31 0 57 -15t41.5 -40t15.5 -55q0 -29 -15.5 -54t-41.5 -40t-57 -15zM384 670q19 0 32.5 12.5t13.5 30.5q0 19 -13.5 31t-32.5 12t-32 -12t-13 -31q0 -18 13.5 -30.5t31.5 -12.5z" />
    <glyph glyph-name="Uhungarumlaut" unicode="&#x170;" horiz-adv-x="871" 
d="M435 -6q-93 0 -164 39t-111.5 107.5t-40.5 154.5v406h131v-399q0 -54 25 -96t67 -67t93 -25q55 0 98 25t68 67t25 96v399h126v-406q0 -86 -40.5 -154.5t-111.5 -107.5t-165 -39zM321 751l-43 56l138 139l74 -84zM528 750l-42 57l140 138l74 -85z" />
    <glyph glyph-name="uhungarumlaut" unicode="&#x171;" horiz-adv-x="768" 
d="M326 -10q-62 0 -108 28t-71.5 81t-25.5 127v301h123v-271q0 -51 14.5 -85.5t44 -52.5t72.5 -18q31 0 57.5 10t46.5 28.5t31.5 44t11.5 56.5v288h123v-527h-120l-2 110l22 12q-12 -35 -43 -65t-75.5 -48.5t-100.5 -18.5zM420 600l-44 51l146 141l74 -85zM219 599l-46 50
l143 143l75 -83z" />
    <glyph glyph-name="Uogonek" unicode="&#x172;" horiz-adv-x="871" 
d="M514 -204q-46 0 -78.5 29t-32.5 76q0 34 17.5 62t44.5 51t58.5 42t59.5 35l30 -49q-19 -11 -39 -24.5t-36.5 -28.5t-26.5 -32.5t-10 -36.5q0 -18 8.5 -28t23.5 -10q12 0 20.5 7t14.5 18l61 -44q-11 -25 -42.5 -46t-72.5 -21zM435 -6q-93 0 -164 39t-111.5 107.5
t-40.5 154.5v406h131v-399q0 -54 25 -96t67 -67t93 -25q55 0 98 25t68 67t25 96v399h126v-406q0 -86 -40.5 -154.5t-111.5 -107.5t-165 -39z" />
    <glyph glyph-name="uogonek" unicode="&#x173;" horiz-adv-x="768" 
d="M326 -10q-62 0 -108 28t-71.5 81t-25.5 127v301h123v-271q0 -51 14.5 -85.5t44 -52.5t72.5 -18q31 0 57.5 10t46.5 28.5t31.5 44t11.5 56.5v288h123v-527h-120l-2 110l22 12q-12 -35 -43 -65t-75.5 -48.5t-100.5 -18.5zM546 -204q-30 0 -56 14.5t-41.5 38.5t-15.5 53
q0 27 12 49.5t33.5 40t52.5 31t67 23.5l39 -46q-28 -6 -52.5 -19t-39 -30t-14.5 -35q0 -15 9 -24.5t23 -9.5q11 0 19.5 7t15.5 18l61 -44q-7 -16 -23.5 -31.5t-39 -25.5t-50.5 -10z" />
    <glyph glyph-name="Wcircumflex" unicode="&#x174;" horiz-adv-x="1107" 
d="M276 0l-232 700h138l129 -402q7 -21 13 -44.5t11.5 -48t10 -46t8.5 -37.5l-33 1q11 40 20 70t17.5 56t17.5 49l120 292h113l117 -291q11 -29 21.5 -58.5t18.5 -57t12 -53.5l-29 -5q4 21 7 37.5t6.5 32.5t7.5 32t10 34t12 40l136 399h135l-245 -700h-94l-185 439l16 -4
l-180 -435h-99zM427 755l-41 42l128 103h79l128 -103l-41 -42l-141 67h29z" />
    <glyph glyph-name="wcircumflex" unicode="&#x175;" horiz-adv-x="912" 
d="M231 0l-185 527l130 1l120 -383l-22 2l137 302h84l141 -303l-22 -2l128 383h127l-191 -527h-89l-156 346l40 3l-154 -349h-88zM333 605l-45 39l125 119h90l125 -119l-45 -39l-140 77h30z" />
    <glyph glyph-name="Ycircumflex" unicode="&#x176;" horiz-adv-x="790" 
d="M340 0v335l12 -61l-320 426h160l239 -327l-46 2l223 325h150l-299 -421l11 64v-343h-130zM268 755l-41 42l128 103h79l128 -103l-41 -42l-141 67h29z" />
    <glyph glyph-name="ycircumflex" unicode="&#x177;" horiz-adv-x="740" 
d="M208 -230l127 259l-1 -81l-288 579h143l149 -321q17 -32 30 -63t20 -59l-25 -6q11 26 24.5 58.5t28.5 69.5l135 321h143l-253 -529l-105 -228h-128zM244 605l-45 39l125 119h90l125 -119l-45 -39l-140 77h30z" />
    <glyph glyph-name="Ydieresis" unicode="&#x178;" horiz-adv-x="790" 
d="M340 0v335l12 -61l-320 426h160l239 -327l-46 2l223 325h150l-299 -421l11 64v-343h-130zM505 757q-38 0 -57 19.5t-19 52.5q0 29 19 50.5t57 21.5q37 0 56 -19.5t19 -52.5q0 -29 -19 -50.5t-56 -21.5zM285 757q-37 0 -56 19.5t-19 52.5q0 29 19 50.5t56 21.5
q38 0 57 -19.5t19 -52.5q0 -29 -19 -50.5t-57 -21.5z" />
    <glyph glyph-name="Zacute" unicode="&#x179;" horiz-adv-x="758" 
d="M76 0v91l437 522l41 -36h-452v123h571v-90l-436 -523l-41 34h488v-121h-608zM300 752l-31 63l192 113l50 -99z" />
    <glyph glyph-name="zacute" unicode="&#x17a;" horiz-adv-x="605" 
d="M70 0v88l328 362l7 -25h-335v102h459v-88l-321 -355l-10 18h338v-102h-466zM232 600l-39 59l156 130l68 -89z" />
    <glyph glyph-name="Zdotaccent" unicode="&#x17b;" horiz-adv-x="758" 
d="M76 0v91l437 522l41 -36h-452v123h571v-90l-436 -523l-41 34h488v-121h-608zM378 758q-39 0 -58.5 19.5t-19.5 51.5q0 29 19.5 50.5t58.5 21.5t58.5 -19.5t19.5 -52.5q0 -28 -19.5 -49.5t-58.5 -21.5z" />
    <glyph glyph-name="zdotaccent" unicode="&#x17c;" horiz-adv-x="605" 
d="M70 0v88l328 362l7 -25h-335v102h459v-88l-321 -355l-10 18h338v-102h-466zM302 642q-37 0 -57.5 19t-20.5 53q0 31 21 51t57 20q37 0 57.5 -18.5t20.5 -52.5q0 -32 -21 -52t-57 -20z" />
    <glyph glyph-name="Zcaron" unicode="&#x17d;" horiz-adv-x="758" 
d="M76 0v91l437 522l41 -36h-452v123h571v-90l-436 -523l-41 34h488v-121h-608zM333 756l-125 105l42 41l143 -66h-30l143 66l42 -41l-125 -105h-90z" />
    <glyph glyph-name="zcaron" unicode="&#x17e;" horiz-adv-x="605" 
d="M70 0v88l328 362l7 -25h-335v102h459v-88l-321 -355l-10 18h338v-102h-466zM257 607l-117 119l45 39l132 -78h-30l132 78l45 -39l-117 -119h-90z" />
    <glyph glyph-name="uni018F" unicode="&#x18f;" horiz-adv-x="852" 
d="M426 -10q-67 0 -128.5 23.5t-109.5 67t-77.5 102.5t-32.5 130v87h638l9 -111h-513q8 -39 28 -72t48.5 -58t64 -38t73.5 -13q46 0 86 17t69.5 48.5t46 76.5t16.5 101q0 57 -17.5 102t-47 76t-70.5 47t-90 16q-41 0 -76 -8t-66 -24.5t-62 -44.5l-70 87q40 38 82 62t90 35
t106 11q72 0 135 -28t111.5 -77.5t76 -114.5t27.5 -140t-27 -140t-75 -114.5t-110.5 -77.5t-134.5 -28z" />
    <glyph glyph-name="florin" unicode="&#x192;" horiz-adv-x="676" 
d="M137 -31q-32 0 -59.5 9.5t-46.5 22.5l39 93q17 -8 31 -11.5t33 -3.5t33 9.5t24 26.5t15 39l96 381q19 80 68.5 121.5t130.5 41.5q41 0 76.5 -10.5t68.5 -35.5l-39 -91q-25 13 -46 20t-40 7q-37 0 -59 -20t-32 -59l-98 -377q-20 -82 -67.5 -122.5t-127.5 -40.5zM118 338
v105l423 -1v-105z" />
    <glyph glyph-name="uni019D" unicode="&#x19d;" horiz-adv-x="922" 
d="M24 -199l-49 104q76 0 111 42.5t35 119.5v633h120l463 -539l-27 -12q-5 38 -9 77.5t-6 82t-3.5 88t-1.5 93.5v210h137v-700h-123l-463 531l29 15q4 -36 7 -69t5.5 -63.5t4 -57t2.5 -50.5t1 -45v-223q0 -75 -29 -128.5t-82 -81t-122 -27.5z" />
    <glyph glyph-name="Ohorn" unicode="&#x1a0;" horiz-adv-x="921" 
d="M460 -10q-83 0 -152.5 27t-121.5 76t-80 115t-28 143t28 143t80 115t121.5 76t152.5 27q24 0 46 -2.5t42 -6.5q18 -4 35.5 -6t34.5 -2q33 0 55 13t33.5 40.5t11.5 69.5h104q0 -40 -8.5 -74t-26 -59.5t-46 -41.5t-70.5 -18l14 23q49 -33 84 -78t54 -100.5t19 -118.5
q0 -76 -28.5 -142t-79.5 -115.5t-121 -76.5t-153 -27zM460 114q55 0 100.5 17.5t79 50t52 75.5t18.5 94t-18.5 94t-52 75.5t-79 50t-100.5 17.5q-54 0 -100 -17.5t-79.5 -50t-51.5 -75.5t-18 -94t18 -94t51.5 -75.5t79.5 -50t100 -17.5z" />
    <glyph glyph-name="ohorn" unicode="&#x1a1;" horiz-adv-x="760" 
d="M381 -10q-89 0 -158 35.5t-109 97.5t-40 141t40 141t109 97.5t158 35.5q22 0 41.5 -2.5t37.5 -5.5q12 -2 22.5 -4t21.5 -2q47 0 66.5 29t19.5 88h96q0 -46 -11.5 -85t-39 -64.5t-74.5 -33.5l9 25q55 -36 85.5 -92.5t30.5 -126.5q0 -79 -39.5 -141t-108.5 -97.5
t-157 -35.5zM381 99q51 0 92 22t65 59t23 84q1 48 -23 85t-65 58.5t-92 21.5t-93 -21.5t-65.5 -58.5t-23.5 -85q0 -47 23.5 -84t65.5 -59t93 -22z" />
    <glyph glyph-name="Uhorn" unicode="&#x1af;" horiz-adv-x="871" 
d="M435 -6q-93 0 -164 39t-111.5 107.5t-40.5 154.5v406h131v-399q0 -54 25 -96t67 -67t93 -25q55 0 98 25t68 67t25 96v399h40q51 0 71.5 30.5t20.5 86.5h104q0 -51 -16 -92.5t-48 -67t-82 -29.5l36 45v-379q0 -86 -40.5 -154.5t-111.5 -107.5t-165 -39z" />
    <glyph glyph-name="uhorn" unicode="&#x1b0;" horiz-adv-x="768" 
d="M326 -10q-62 0 -108.5 28t-71.5 81t-25 127v301h123v-271q0 -51 14.5 -85.5t44 -52.5t72.5 -18q31 0 57.5 10t46.5 28.5t31.5 44t11.5 56.5v288q35 0 58 7t36 20.5t18.5 35t5.5 51.5h96q0 -44 -12 -82.5t-39.5 -63.5t-72.5 -29l33 45v-511h-120l-2 127l15 -23
q-16 -31 -47 -57t-72.5 -41.5t-92.5 -15.5z" />
    <glyph glyph-name="uni01C4" unicode="&#x1c4;" horiz-adv-x="1593" 
d="M128 0v700h313q84 0 150.5 -26t114 -74t72 -111.5t24.5 -138.5q0 -76 -24.5 -140t-71.5 -111t-114 -73t-151 -26h-313zM258 101l-10 19h188q57 0 100.5 17t72.5 48t44 72.5t15 92.5q0 50 -15 92t-44.5 73t-72.5 48t-100 17h-191l13 17v-496zM912 0v91l437 522l41 -36
h-452v123h571v-90l-436 -523l-41 34h488v-121h-608zM1169 756l-125 105l42 41l143 -66h-30l143 66l42 -41l-125 -105h-90z" />
    <glyph glyph-name="uni01C5" unicode="&#x1c5;" horiz-adv-x="1485" 
d="M128 0v700h313q84 0 150.5 -26t114 -74t72 -111.5t24.5 -138.5q0 -76 -24.5 -140t-71.5 -111t-114 -73t-151 -26h-313zM258 101l-10 19h188q57 0 100.5 17t72.5 48t44 72.5t15 92.5q0 50 -15 92t-44.5 73t-72.5 48t-100 17h-191l13 17v-496zM950 0v88l328 362l7 -25h-335
v102h459v-88l-321 -355l-10 18h338v-102h-466zM1136 607l-117 119l45 39l132 -78h-30l132 78l45 -39l-117 -119h-90z" />
    <glyph glyph-name="uni01C6" unicode="&#x1c6;" horiz-adv-x="1379" 
d="M340 -10q-79 0 -140 35.5t-95.5 97t-34.5 141.5q0 79 35 141t97 97.5t141 35.5q46 0 86.5 -12.5t72 -33t49.5 -45.5t20 -51l-33 -4v348h123v-740h-119l-3 132l24 -5q-1 -25 -20 -48.5t-49.5 -43.5t-70.5 -32.5t-83 -12.5zM368 96q51 0 90.5 22t61.5 59.5t22 86.5
q0 48 -22 86t-61.5 59t-90.5 21t-90.5 -21t-61.5 -59t-22 -86q0 -49 22 -86.5t61.5 -59.5t90.5 -22zM843 0v88l328 362l7 -25h-335v102h459v-88l-321 -355l-10 18h338v-102h-466zM1030 607l-117 119l45 39l132 -78h-30l132 78l45 -39l-117 -119h-90z" />
    <glyph glyph-name="uni01C7" unicode="&#x1c7;" horiz-adv-x="1468" 
d="M128 0v700h130v-580h379v-120h-509zM1038 -10q-48 0 -87 13t-69 33.5t-50.5 45t-33.5 47.5l81 83q16 -24 33 -43.5t34.5 -32t39 -19.5t45.5 -7q41 0 71.5 18.5t47 50.5t16.5 71v330h-147v120h393v-120h-118v-343q0 -51 -18 -95.5t-51.5 -79t-81 -53.5t-105.5 -19z" />
    <glyph glyph-name="uni01C8" unicode="&#x1c8;" horiz-adv-x="1140" 
d="M128 0v700h130v-580h379v-120h-509zM784 -201l-47 99q54 0 86.5 19t48 56.5t15.5 93.5v460h123v-489q0 -76 -28.5 -129.5t-79 -81.5t-118.5 -28zM950 642q-37 0 -57.5 19t-20.5 53q0 31 21 51t57 20q38 0 58.5 -18.5t20.5 -52.5q0 -32 -21 -52t-58 -20z" />
    <glyph glyph-name="uni01C9" unicode="&#x1c9;" horiz-adv-x="782" 
d="M127 0v740h124v-740h-124zM427 -201l-47 99q54 0 86.5 19t48 56.5t15.5 93.5v460h123v-489q0 -76 -28.5 -129.5t-79 -81.5t-118.5 -28zM593 642q-37 0 -57.5 19t-20.5 53q0 31 21 51t57 20q38 0 58.5 -18.5t20.5 -52.5q0 -32 -21 -52t-58 -20z" />
    <glyph glyph-name="uni01CA" unicode="&#x1ca;" horiz-adv-x="1675" 
d="M128 0v700h121l462 -547l-18 -4q-5 30 -8 61.5t-5.5 64.5t-4 68t-2 71.5t-0.5 75.5v210h129v-700h-123l-464 539l22 7q3 -41 6 -74t6 -60.5t4.5 -51t2.5 -46t1 -43.5v-271h-129zM1245 -10q-48 0 -87 13t-69 33.5t-50.5 45t-33.5 47.5l81 83q16 -24 33 -43.5t34.5 -32
t39 -19.5t45.5 -7q41 0 71.5 18.5t47 50.5t16.5 71v330h-147v120h393v-120h-118v-343q0 -51 -18 -95.5t-51.5 -79t-81 -53.5t-105.5 -19z" />
    <glyph glyph-name="uni01CB" unicode="&#x1cb;" horiz-adv-x="1347" 
d="M128 0v700h121l462 -547l-18 -4q-5 30 -8 61.5t-5.5 64.5t-4 68t-2 71.5t-0.5 75.5v210h129v-700h-123l-464 539l22 7q3 -41 6 -74t6 -60.5t4.5 -51t2.5 -46t1 -43.5v-271h-129zM991 -201l-47 99q54 0 86.5 19t48 56.5t15.5 93.5v460h123v-489q0 -76 -28.5 -129.5
t-79 -81.5t-118.5 -28zM1157 642q-37 0 -57.5 19t-20.5 53q0 31 21 51t57 20q38 0 58.5 -18.5t20.5 -52.5q0 -32 -21 -52t-58 -20z" />
    <glyph glyph-name="uni01CC" unicode="&#x1cc;" horiz-adv-x="1192" 
d="M129 0v527h120l3 -124l-31 -9q14 37 46 69.5t77 53.5t96 21q68 0 115 -26.5t70 -76t23 -117.5v-318h-123v303q0 41 -15 69t-43.5 43t-66.5 14q-32 0 -59 -11t-47 -29.5t-30.5 -41t-10.5 -46.5v-301h-62h-38.5h-23.5zM836 -201l-47 99q54 0 86.5 19t48 56.5t15.5 93.5v460
h123v-489q0 -76 -28.5 -129.5t-79 -81.5t-118.5 -28zM1002 642q-37 0 -57.5 19t-20.5 53q0 31 21 51t57 20q38 0 58.5 -18.5t20.5 -52.5q0 -32 -21 -52t-58 -20z" />
    <glyph glyph-name="uni01CD" unicode="&#x1cd;" horiz-adv-x="815" 
d="M43 0l301 700h129l299 -700h-137l-180 422q-6 16 -14.5 39t-18 48.5t-18 49t-13.5 39.5l29 1q-6 -21 -14.5 -44.5t-17.5 -47t-18 -46t-16 -42.5l-180 -419h-131zM178 156l47 113h357l37 -113h-441zM362 756l-125 105l42 41l143 -66h-30l143 66l42 -41l-125 -105h-90z" />
    <glyph glyph-name="uni01CE" unicode="&#x1ce;" horiz-adv-x="782" 
d="M334 -10q-77 0 -136.5 35.5t-94 97.5t-34.5 142q0 79 35 141t96.5 97t140.5 35q47 0 86.5 -12t69 -33.5t47.5 -47t22 -53.5l-29 3v132h123v-527h-124v134l27 -1q-5 -25 -24.5 -50.5t-51 -46t-70.5 -33.5t-83 -13zM367 99q51 0 90.5 21t61.5 58.5t22 86.5q0 47 -22 84
t-61.5 58.5t-90.5 21.5q-52 0 -91 -21.5t-60.5 -58.5t-21.5 -84q0 -49 21.5 -86.5t60.5 -58.5t91 -21zM338 607l-117 119l45 39l132 -78h-30l132 78l45 -39l-117 -119h-90z" />
    <glyph glyph-name="uni01CF" unicode="&#x1cf;" horiz-adv-x="655" 
d="M120 0v118h143v464h-143v118h416v-118h-143v-464h143v-118h-416zM283 756l-125 105l42 41l143 -66h-30l143 66l42 -41l-125 -105h-90z" />
    <glyph glyph-name="uni01D0" unicode="&#x1d0;" horiz-adv-x="365" 
d="M121 0v527h123v-527h-123zM136 607l-117 119l45 39l132 -78h-30l132 78l45 -39l-117 -119h-90z" />
    <glyph glyph-name="uni01D1" unicode="&#x1d1;" horiz-adv-x="921" 
d="M460 -10q-83 0 -152.5 27t-121.5 76t-80 115t-28 143t28 143t80 115t121.5 76t152.5 27t153 -27t121 -76.5t79.5 -115t28.5 -142.5q0 -76 -28.5 -142t-79.5 -115.5t-121 -76.5t-153 -27zM460 114q55 0 100.5 17.5t79 50t52 75.5t18.5 94t-18.5 94t-52 75.5t-79 50
t-100.5 17.5q-54 0 -100 -17.5t-79.5 -50t-51.5 -75.5t-18 -94t18 -94t51.5 -75.5t79.5 -50t100 -17.5zM415 756l-125 105l42 41l143 -66h-30l143 66l42 -41l-125 -105h-90z" />
    <glyph glyph-name="uni01D2" unicode="&#x1d2;" horiz-adv-x="762" 
d="M381 -10q-89 0 -158 35.5t-108.5 97.5t-39.5 141t39.5 141t108.5 97.5t158 35.5t158 -35.5t108.5 -97.5t39.5 -141t-39.5 -141t-108.5 -97.5t-158 -35.5zM381 99q51 0 92.5 22t65 59t23.5 84q0 48 -23.5 85.5t-65 58.5t-92.5 21q-50 0 -92 -21.5t-66 -58.5t-23 -85
q-1 -47 23 -84t66 -59t92 -22zM336 607l-117 119l45 39l132 -78h-30l132 78l45 -39l-117 -119h-90z" />
    <glyph glyph-name="uni01D3" unicode="&#x1d3;" horiz-adv-x="871" 
d="M435 -6q-93 0 -164 39t-111.5 107.5t-40.5 154.5v406h131v-399q0 -54 25 -96t67 -67t93 -25q55 0 98 25t68 67t25 96v399h126v-406q0 -86 -40.5 -154.5t-111.5 -107.5t-165 -39zM390 756l-125 105l42 41l143 -66h-30l143 66l42 -41l-125 -105h-90z" />
    <glyph glyph-name="uni01D4" unicode="&#x1d4;" horiz-adv-x="768" 
d="M326 -10q-62 0 -108 28t-71.5 81t-25.5 127v301h123v-271q0 -51 14.5 -85.5t44 -52.5t72.5 -18q31 0 57.5 10t46.5 28.5t31.5 44t11.5 56.5v288h123v-527h-120l-2 110l22 12q-12 -35 -43 -65t-75.5 -48.5t-100.5 -18.5zM340 607l-117 119l45 39l132 -78h-30l132 78
l45 -39l-117 -119h-90z" />
    <glyph glyph-name="Gcaron" unicode="&#x1e6;" horiz-adv-x="897" 
d="M465 -10q-82 0 -152.5 25.5t-123 73t-82 114t-29.5 148.5q0 76 29.5 141.5t83.5 114t126.5 75.5t156.5 27q64 0 120.5 -16t101 -43t72.5 -59l-82 -88q-30 26 -63.5 44.5t-71 29.5t-78.5 11q-55 0 -102.5 -18t-82.5 -50t-55 -75t-20 -94q0 -55 20.5 -99.5t57 -76t83.5 -48
t100 -16.5q45 0 84.5 11t69.5 30.5t46.5 46.5t15.5 58v19l18 -24h-241v115h353q2 -13 3 -25.5t1.5 -23t0.5 -17.5q0 -73 -27 -130.5t-75.5 -97.5t-114 -61.5t-143.5 -21.5zM423 756l-125 105l42 41l143 -66h-30l143 66l42 -41l-125 -105h-90z" />
    <glyph glyph-name="gcaron" unicode="&#x1e7;" horiz-adv-x="798" 
d="M387 -230q-73 0 -135 18.5t-100 46.5l43 93q21 -13 49.5 -24.5t63 -19t72.5 -7.5q54 0 92.5 18.5t59.5 56t21 91.5v81l18 -7q-7 -30 -39.5 -58t-80.5 -46t-102 -18q-80 0 -141.5 35t-97 95.5t-35.5 139.5t36 140.5t99 97t144 35.5q27 0 57.5 -6.5t59 -18.5t52.5 -28
t39 -34.5t18 -37.5l-26 -8l2 122h120v-475q0 -70 -21.5 -122t-60.5 -88t-92 -54t-115 -18zM380 100q53 0 93 21t62 58t22 85q0 49 -22.5 86.5t-62 58.5t-92.5 21t-93.5 -21.5t-64 -59t-23.5 -85.5q0 -47 23.5 -84.5t64 -58.5t93.5 -21zM347 607l-117 119l45 39l132 -78h-30
l132 78l45 -39l-117 -119h-90z" />
    <glyph glyph-name="uni01EA" unicode="&#x1ea;" horiz-adv-x="921" 
d="M544 -204q-46 0 -79 29t-33 76q0 34 18 62t47.5 51t64.5 42t70 35l30 -49q-21 -12 -44 -25.5t-42.5 -29t-32.5 -32.5t-13 -37q0 -16 9 -26t23 -10q12 0 20.5 7t15.5 18l61 -44q-11 -25 -42.5 -46t-72.5 -21zM460 -10q-83 0 -152.5 27t-121.5 76t-80 115t-28 143t28 143
t80 115t121.5 76t152.5 27t153 -27t121 -76.5t79.5 -115t28.5 -142.5q0 -76 -28.5 -142t-79.5 -115.5t-121 -76.5t-153 -27zM460 114q55 0 100.5 17.5t79 50t52 75.5t18.5 94t-18.5 94t-52 75.5t-79 50t-100.5 17.5q-54 0 -100 -17.5t-79.5 -50t-51.5 -75.5t-18 -94t18 -94
t51.5 -75.5t79.5 -50t100 -17.5z" />
    <glyph glyph-name="uni01EB" unicode="&#x1eb;" horiz-adv-x="760" 
d="M462 -202q-52 0 -82 30t-30 72q0 45 27.5 77t72.5 58.5t101 50.5l11 -46q-49 -29 -81.5 -55.5t-32.5 -61.5q0 -17 9 -27.5t25 -10.5q12 0 21 6t17 18l61 -44q-9 -17 -26 -32.5t-40.5 -25t-52.5 -9.5zM381 -10q-89 0 -158 35.5t-108.5 97.5t-39.5 141t39.5 141t108.5 97.5
t158 35.5t158 -35.5t108.5 -97.5t39.5 -141t-39.5 -141t-108.5 -97.5t-158 -35.5zM381 99q51 0 92.5 22t65 59t23.5 84q0 48 -23.5 85t-65 58.5t-92.5 21.5t-92.5 -21.5t-65.5 -58.5t-23 -85q-1 -47 23 -84t65.5 -59t92.5 -22z" />
    <glyph glyph-name="uni01F1" unicode="&#x1f1;" horiz-adv-x="1593" 
d="M128 0v700h313q84 0 150.5 -26t114 -74t72 -111.5t24.5 -138.5q0 -76 -24.5 -140t-71.5 -111t-114 -73t-151 -26h-313zM258 101l-10 19h188q57 0 100.5 17t72.5 48t44 72.5t15 92.5q0 50 -15 92t-44.5 73t-72.5 48t-100 17h-191l13 17v-496zM912 0v91l437 522l41 -36
h-452v123h571v-90l-436 -523l-41 34h488v-121h-608z" />
    <glyph glyph-name="uni01F2" unicode="&#x1f2;" horiz-adv-x="1485" 
d="M128 0v700h313q84 0 150.5 -26t114 -74t72 -111.5t24.5 -138.5q0 -76 -24.5 -140t-71.5 -111t-114 -73t-151 -26h-313zM258 101l-10 19h188q57 0 100.5 17t72.5 48t44 72.5t15 92.5q0 50 -15 92t-44.5 73t-72.5 48t-100 17h-191l13 17v-496zM950 0v88l328 362l7 -25h-335
v102h459v-88l-321 -355l-10 18h338v-102h-466z" />
    <glyph glyph-name="Aringacute" unicode="&#x1fa;" horiz-adv-x="815" 
d="M43 0l301 700h129l299 -700h-137l-180 422q-6 16 -14.5 39t-18 48.5t-18 49t-13.5 39.5l29 1q-6 -21 -14.5 -44.5t-17.5 -47t-18 -46t-16 -42.5l-180 -419h-131zM178 156l47 113h357l37 -113h-441zM406 702q-30 0 -57 15.5t-43.5 41t-16.5 55.5q0 32 16.5 57.5t43.5 41
t57 15.5q31 0 58 -15.5t43.5 -41t16.5 -57.5q0 -30 -16.5 -55.5t-43.5 -41t-58 -15.5zM406 770q20 0 33.5 12.5t13.5 31.5q0 21 -14 33t-33 12t-32.5 -12.5t-13.5 -32.5q0 -19 13.5 -31.5t32.5 -12.5zM328 949l-31 63l192 113l50 -99z" />
    <glyph glyph-name="aringacute" unicode="&#x1fb;" horiz-adv-x="782" 
d="M334 -10q-77 0 -136.5 35.5t-94 97.5t-34.5 142q0 79 35 141t96.5 97t140.5 35q47 0 86.5 -12t69 -33.5t47.5 -47t22 -53.5l-29 3v132h123v-527h-124v134l27 -1q-5 -25 -24.5 -50.5t-51 -46t-70.5 -33.5t-83 -13zM367 99q51 0 90.5 21t61.5 58.5t22 86.5q0 47 -22 84
t-61.5 58.5t-90.5 21.5q-52 0 -91 -21.5t-60.5 -58.5t-21.5 -84q0 -49 21.5 -86.5t60.5 -58.5t91 -21zM382 604q-29 0 -55 15t-42 40t-16 54q0 30 15.5 55t41.5 40t56 15q31 0 57 -15t41.5 -40t15.5 -55q0 -29 -15.5 -54t-41.5 -40t-57 -15zM382 670q19 0 32.5 12.5
t13.5 30.5q0 19 -13.5 31t-32.5 12t-32 -12t-13 -31q0 -18 13.5 -30.5t31.5 -12.5zM313 848l-39 59l156 130l68 -89z" />
    <glyph glyph-name="AEacute" unicode="&#x1fc;" horiz-adv-x="1188" 
d="M35 0l544 700h505v-114h-381v-179h336v-112h-336v-181h381v-114h-506v149h-301l85 112h216v304l27 -10l-426 -555h-144zM714 752l-31 63l192 113l50 -99z" />
    <glyph glyph-name="aeacute" unicode="&#x1fd;" horiz-adv-x="1086" 
d="M276 -10q-60 0 -106.5 19t-73.5 54.5t-27 85.5q0 47 20 80t55 53t83.5 28.5t106.5 8.5h566l-13 -17v23q-3 32 -24.5 55.5t-54 37.5t-69.5 14q-53 0 -93.5 -16.5t-63.5 -52.5t-23 -95q0 -53 29 -91t78 -59t109 -21q53 0 92 14t72 41l57 -87q-26 -21 -64.5 -38.5t-82 -27
t-87.5 -9.5q-94 0 -165 34.5t-109.5 95.5t-38.5 139q0 63 23 114t63 88t92.5 57t110.5 20q77 -1 138 -34t96.5 -91.5t35.5 -134.5l-1 -45h-680q-26 0 -51.5 -4t-45 -13t-31 -23t-11.5 -35q0 -22 14 -37.5t37.5 -23t53.5 -7.5q41 0 76.5 13.5t61.5 34.5t39 42l46 -73
q-21 -29 -57 -56t-82.5 -44t-100.5 -17zM448 254v86q0 20 -10.5 37t-28.5 29t-40 18t-45 6q-47 0 -88 -16t-76 -52l-72 78q31 29 68.5 51.5t81.5 34.5t96 12q45 0 85 -9t72 -28.5t49.5 -49t17.5 -70.5v-122zM472 600l-39 59l156 130l68 -89z" />
    <glyph glyph-name="Oslashacute" unicode="&#x1fe;" horiz-adv-x="927" 
d="M155 -33l-62 61l677 711l67 -55zM466 -10q-84 0 -153.5 27t-121.5 76t-79.5 115t-27.5 143t27.5 143t79.5 115t121.5 76t152.5 27t153 -27t121.5 -76.5t79.5 -115t28 -142.5q0 -76 -28 -142t-79.5 -115.5t-121.5 -76.5t-152 -27zM465 114q55 0 100.5 17.5t79 50t52 75.5
t18.5 94t-18.5 94t-52 75.5t-79 50t-100.5 17.5q-54 0 -99.5 -17.5t-79.5 -50t-52 -75.5t-18 -94t18 -94t52 -75.5t79.5 -50t99.5 -17.5zM385 752l-31 63l192 113l50 -99z" />
    <glyph glyph-name="oslashacute" unicode="&#x1ff;" horiz-adv-x="760" 
d="M151 -27l-63 52l516 521l63 -53zM381 -10q-89 0 -158 35.5t-108.5 97.5t-39.5 141t39.5 141t108.5 97.5t158 35.5q90 0 159 -35.5t108 -97.5t39 -141t-39 -141t-108 -97.5t-159 -35.5zM381 99q52 0 93.5 22t65 59t22.5 84q1 48 -22.5 85.5t-65 58.5t-93.5 21
q-50 0 -91.5 -21.5t-66 -58.5t-23.5 -85q-1 -47 23.5 -84t66 -59t91.5 -22zM311 600l-39 59l156 130l68 -89z" />
    <glyph glyph-name="uni0200" unicode="&#x200;" horiz-adv-x="815" 
d="M43 0l301 700h129l299 -700h-137l-180 422q-6 16 -14.5 39t-18 48.5t-18 49t-13.5 39.5l29 1q-6 -21 -14.5 -44.5t-17.5 -47t-18 -46t-16 -42.5l-180 -419h-131zM178 156l47 113h357l37 -113h-441zM518 747l-167 114l76 83l135 -142zM311 746l-169 113l75 84l138 -141z
" />
    <glyph glyph-name="uni0201" unicode="&#x201;" horiz-adv-x="782" 
d="M334 -10q-77 0 -136.5 35.5t-94 97.5t-34.5 142q0 79 35 141t96.5 97t140.5 35q47 0 86.5 -12t69 -33.5t47.5 -47t22 -53.5l-29 3v132h123v-527h-124v134l27 -1q-5 -25 -24.5 -50.5t-51 -46t-70.5 -33.5t-83 -13zM367 99q51 0 90.5 21t61.5 58.5t22 86.5q0 47 -22 84
t-61.5 58.5t-90.5 21.5q-52 0 -91 -21.5t-60.5 -58.5t-21.5 -84q0 -49 21.5 -86.5t60.5 -58.5t91 -21zM485 599l-172 110l75 83l143 -143zM284 600l-176 107l74 85l146 -141z" />
    <glyph glyph-name="uni0202" unicode="&#x202;" horiz-adv-x="815" 
d="M43 0l301 700h129l299 -700h-137l-180 422q-6 16 -14.5 39t-18 48.5t-18 49t-13.5 39.5l29 1q-6 -21 -14.5 -44.5t-17.5 -47t-18 -46t-16 -42.5l-180 -419h-131zM178 156l47 113h357l37 -113h-441zM323 753l-84 12q9 40 32.5 71.5t58.5 50.5t77 19q43 0 77.5 -19
t58.5 -50.5t32 -71.5l-84 -12q-11 26 -33 44.5t-51 18.5t-51 -18.5t-33 -44.5z" />
    <glyph glyph-name="uni0203" unicode="&#x203;" horiz-adv-x="782" 
d="M334 -10q-77 0 -136.5 35.5t-94 97.5t-34.5 142q0 79 35 141t96.5 97t140.5 35q47 0 86.5 -12t69 -33.5t47.5 -47t22 -53.5l-29 3v132h123v-527h-124v134l27 -1q-5 -25 -24.5 -50.5t-51 -46t-70.5 -33.5t-83 -13zM367 99q51 0 90.5 21t61.5 58.5t22 86.5q0 47 -22 84
t-61.5 58.5t-90.5 21.5q-52 0 -91 -21.5t-60.5 -58.5t-21.5 -84q0 -49 21.5 -86.5t60.5 -58.5t91 -21zM299 603l-84 12q14 72 58 114t110 42t110 -42t58 -114l-84 -12q-12 37 -34 58t-50 21t-50 -21t-34 -58z" />
    <glyph glyph-name="uni0204" unicode="&#x204;" horiz-adv-x="749" 
d="M128 0v700h514v-118h-386v-464h390v-118h-518zM192 300v116h399v-116h-399zM505 747l-167 114l76 83l135 -142zM298 746l-169 113l75 84l138 -141z" />
    <glyph glyph-name="uni0205" unicode="&#x205;" horiz-adv-x="724" 
d="M383 -10q-92 0 -163 35t-110.5 95.5t-39.5 138.5q0 64 23 115t63.5 88t95.5 57t119 20q58 0 108.5 -19.5t88 -54t58 -82t19.5 -104.5l-1 -47h-483l-23 86h403l-16 -15v22q-4 31 -26 54.5t-55.5 37.5t-72.5 14q-55 0 -96 -17.5t-63.5 -53.5t-22.5 -92q0 -51 26.5 -88.5
t74 -58.5t110.5 -21q54 0 93 14.5t72 39.5l58 -85q-29 -23 -68 -41t-83 -28t-89 -10zM473 599l-172 110l75 83l143 -143zM272 600l-176 107l74 85l146 -141z" />
    <glyph glyph-name="uni0206" unicode="&#x206;" horiz-adv-x="749" 
d="M128 0v700h514v-118h-386v-464h390v-118h-518zM192 300v116h399v-116h-399zM311 753l-84 12q9 40 32.5 71.5t58.5 50.5t77 19q43 0 77.5 -19t58.5 -50.5t32 -71.5l-84 -12q-11 26 -33 44.5t-51 18.5t-51 -18.5t-33 -44.5z" />
    <glyph glyph-name="uni0207" unicode="&#x207;" horiz-adv-x="724" 
d="M383 -10q-92 0 -163 35t-110.5 95.5t-39.5 138.5q0 64 23 115t63.5 88t95.5 57t119 20q58 0 108.5 -19.5t88 -54t58 -82t19.5 -104.5l-1 -47h-483l-23 86h403l-16 -15v22q-4 31 -26 54.5t-55.5 37.5t-72.5 14q-55 0 -96 -17.5t-63.5 -53.5t-22.5 -92q0 -51 26.5 -88.5
t74 -58.5t110.5 -21q54 0 93 14.5t72 39.5l58 -85q-29 -23 -68 -41t-83 -28t-89 -10zM287 603l-84 12q14 72 58 114t110 42t110 -42t58 -114l-84 -12q-12 37 -34 58t-50 21t-50 -21t-34 -58z" />
    <glyph glyph-name="uni0208" unicode="&#x208;" horiz-adv-x="655" 
d="M120 0v118h143v464h-143v118h416v-118h-143v-464h143v-118h-416zM439 747l-167 114l76 83l135 -142zM232 746l-169 113l75 84l138 -141z" />
    <glyph glyph-name="uni0209" unicode="&#x209;" horiz-adv-x="365" 
d="M121 0v527h123v-527h-123zM284 599l-172 110l75 83l143 -143zM83 600l-176 107l74 85l146 -141z" />
    <glyph glyph-name="uni020A" unicode="&#x20a;" horiz-adv-x="655" 
d="M120 0v118h143v464h-143v118h416v-118h-143v-464h143v-118h-416zM244 753l-84 12q9 40 32.5 71.5t58.5 50.5t77 19q43 0 77.5 -19t58.5 -50.5t32 -71.5l-84 -12q-11 26 -33 44.5t-51 18.5t-51 -18.5t-33 -44.5z" />
    <glyph glyph-name="uni020B" unicode="&#x20b;" horiz-adv-x="365" 
d="M121 0v527h123v-527h-123zM97 603l-84 12q14 72 58 114t110 42t110 -42t58 -114l-84 -12q-12 37 -34 58t-50 21t-50 -21t-34 -58z" />
    <glyph glyph-name="uni020C" unicode="&#x20c;" horiz-adv-x="921" 
d="M460 -10q-83 0 -152.5 27t-121.5 76t-80 115t-28 143t28 143t80 115t121.5 76t152.5 27t153 -27t121 -76.5t79.5 -115t28.5 -142.5q0 -76 -28.5 -142t-79.5 -115.5t-121 -76.5t-153 -27zM460 114q55 0 100.5 17.5t79 50t52 75.5t18.5 94t-18.5 94t-52 75.5t-79 50
t-100.5 17.5q-54 0 -100 -17.5t-79.5 -50t-51.5 -75.5t-18 -94t18 -94t51.5 -75.5t79.5 -50t100 -17.5zM571 747l-167 114l76 83l135 -142zM364 746l-169 113l75 84l138 -141z" />
    <glyph glyph-name="uni020D" unicode="&#x20d;" horiz-adv-x="762" 
d="M381 -10q-89 0 -158 35.5t-108.5 97.5t-39.5 141t39.5 141t108.5 97.5t158 35.5t158 -35.5t108.5 -97.5t39.5 -141t-39.5 -141t-108.5 -97.5t-158 -35.5zM381 99q51 0 92.5 22t65 59t23.5 84q0 48 -23.5 85.5t-65 58.5t-92.5 21q-50 0 -92 -21.5t-66 -58.5t-23 -85
q-1 -47 23 -84t66 -59t92 -22zM484 599l-172 110l75 83l143 -143zM283 600l-176 107l74 85l146 -141z" />
    <glyph glyph-name="uni020E" unicode="&#x20e;" horiz-adv-x="921" 
d="M460 -10q-83 0 -152.5 27t-121.5 76t-80 115t-28 143t28 143t80 115t121.5 76t152.5 27t153 -27t121 -76.5t79.5 -115t28.5 -142.5q0 -76 -28.5 -142t-79.5 -115.5t-121 -76.5t-153 -27zM460 114q55 0 100.5 17.5t79 50t52 75.5t18.5 94t-18.5 94t-52 75.5t-79 50
t-100.5 17.5q-54 0 -100 -17.5t-79.5 -50t-51.5 -75.5t-18 -94t18 -94t51.5 -75.5t79.5 -50t100 -17.5zM376 753l-84 12q9 40 32.5 71.5t58.5 50.5t77 19q43 0 77.5 -19t58.5 -50.5t32 -71.5l-84 -12q-11 26 -33 44.5t-51 18.5t-51 -18.5t-33 -44.5z" />
    <glyph glyph-name="uni020F" unicode="&#x20f;" horiz-adv-x="762" 
d="M381 -10q-89 0 -158 35.5t-108.5 97.5t-39.5 141t39.5 141t108.5 97.5t158 35.5t158 -35.5t108.5 -97.5t39.5 -141t-39.5 -141t-108.5 -97.5t-158 -35.5zM381 99q51 0 92.5 22t65 59t23.5 84q0 48 -23.5 85.5t-65 58.5t-92.5 21q-50 0 -92 -21.5t-66 -58.5t-23 -85
q-1 -47 23 -84t66 -59t92 -22zM297 603l-84 12q14 72 58 114t110 42t110 -42t58 -114l-84 -12q-12 37 -34 58t-50 21t-50 -21t-34 -58z" />
    <glyph glyph-name="uni0210" unicode="&#x210;" horiz-adv-x="823" 
d="M128 0v700h346q65 0 118 -29t83.5 -79t30.5 -113q0 -62 -32 -113t-86 -81t-120 -30h-213v-255h-127zM584 0l-202 316l136 25l222 -342zM255 368h209q31 0 55.5 14.5t39 39t14.5 54.5q0 31 -16 55t-44 38t-64 14h-194v-215zM493 744l-167 114l76 83l135 -142zM286 743
l-169 113l75 84l138 -141z" />
    <glyph glyph-name="uni0211" unicode="&#x211;" horiz-adv-x="571" 
d="M129 0v527h121l3 -178l-25 24q13 46 44.5 83.5t72.5 59.5t85 22q25 0 49 -5t38 -13l-33 -133q-16 10 -38.5 15.5t-45.5 5.5q-32 0 -59 -11.5t-46.5 -31t-30.5 -44t-11 -52.5v-269h-124zM436 598l-172 110l75 83l143 -143zM235 599l-176 107l74 85l146 -141z" />
    <glyph glyph-name="uni0212" unicode="&#x212;" horiz-adv-x="823" 
d="M128 0v700h346q65 0 118 -29t83.5 -79t30.5 -113q0 -62 -32 -113t-86 -81t-120 -30h-213v-255h-127zM584 0l-202 316l136 25l222 -342zM255 368h209q31 0 55.5 14.5t39 39t14.5 54.5q0 31 -16 55t-44 38t-64 14h-194v-215zM299 750l-84 12q9 40 32.5 71.5t58.5 50.5
t77 19q43 0 77.5 -19t58.5 -50.5t32 -71.5l-84 -12q-11 26 -33 44.5t-51 18.5t-51 -18.5t-33 -44.5z" />
    <glyph glyph-name="uni0213" unicode="&#x213;" horiz-adv-x="571" 
d="M129 0v527h121l3 -178l-25 24q13 46 44.5 83.5t72.5 59.5t85 22q25 0 49 -5t38 -13l-33 -133q-16 10 -38.5 15.5t-45.5 5.5q-32 0 -59 -11.5t-46.5 -31t-30.5 -44t-11 -52.5v-269h-124zM248 602l-84 12q14 72 58 114t110 42t110 -42t58 -114l-84 -12q-12 37 -34 58
t-50 21t-50 -21t-34 -58z" />
    <glyph glyph-name="uni0214" unicode="&#x214;" horiz-adv-x="871" 
d="M435 -6q-93 0 -164 39t-111.5 107.5t-40.5 154.5v406h131v-399q0 -54 25 -96t67 -67t93 -25q55 0 98 25t68 67t25 96v399h126v-406q0 -86 -40.5 -154.5t-111.5 -107.5t-165 -39zM547 747l-167 114l76 83l135 -142zM340 746l-169 113l75 84l138 -141z" />
    <glyph glyph-name="uni0215" unicode="&#x215;" horiz-adv-x="768" 
d="M326 -10q-62 0 -108 28t-71.5 81t-25.5 127v301h123v-271q0 -51 14.5 -85.5t44 -52.5t72.5 -18q31 0 57.5 10t46.5 28.5t31.5 44t11.5 56.5v288h123v-527h-120l-2 110l22 12q-12 -35 -43 -65t-75.5 -48.5t-100.5 -18.5zM488 599l-172 110l75 83l143 -143zM287 600
l-176 107l74 85l146 -141z" />
    <glyph glyph-name="uni0216" unicode="&#x216;" horiz-adv-x="871" 
d="M435 -6q-93 0 -164 39t-111.5 107.5t-40.5 154.5v406h131v-399q0 -54 25 -96t67 -67t93 -25q55 0 98 25t68 67t25 96v399h126v-406q0 -86 -40.5 -154.5t-111.5 -107.5t-165 -39zM351 753l-84 12q9 40 32.5 71.5t58.5 50.5t77 19q43 0 77.5 -19t58.5 -50.5t32 -71.5
l-84 -12q-11 26 -33 44.5t-51 18.5t-51 -18.5t-33 -44.5z" />
    <glyph glyph-name="uni0217" unicode="&#x217;" horiz-adv-x="768" 
d="M326 -10q-62 0 -108 28t-71.5 81t-25.5 127v301h123v-271q0 -51 14.5 -85.5t44 -52.5t72.5 -18q31 0 57.5 10t46.5 28.5t31.5 44t11.5 56.5v288h123v-527h-120l-2 110l22 12q-12 -35 -43 -65t-75.5 -48.5t-100.5 -18.5zM301 603l-84 12q14 72 58 114t110 42t110 -42
t58 -114l-84 -12q-12 37 -34 58t-50 21t-50 -21t-34 -58z" />
    <glyph glyph-name="uni0218" unicode="&#x218;" horiz-adv-x="752" 
d="M383 -10q-69 0 -126.5 15.5t-103 45.5t-83.5 73l80 100q58 -67 115 -94t125 -27q39 0 73 10t55 30.5t21 49.5q0 19 -10 33.5t-27.5 25t-41 18.5t-49.5 13.5t-54 9.5q-60 10 -107 27t-79 43.5t-48.5 61.5t-16.5 81t21.5 84t60 65t89 42t108.5 15q65 0 116.5 -14t90.5 -41
t66 -64l-82 -88q-24 31 -54 51.5t-65.5 31t-73.5 10.5q-42 0 -73.5 -10t-50 -29t-18.5 -46q0 -21 11.5 -37t33 -28t52 -20t67.5 -14q57 -10 106 -25t85.5 -38t56.5 -56.5t20 -80.5q0 -69 -36.5 -119.5t-101.5 -77.5t-152 -27zM353 -261l-30 47q14 4 28.5 12t23.5 19.5
t9 22.5q0 7 -5 11t-16 8q-16 6 -24.5 15.5t-8.5 27.5q0 27 20 41t51 14q34 0 60 -21.5t26 -62.5q0 -25 -11.5 -46t-30.5 -37.5t-42.5 -29.5t-49.5 -21z" />
    <glyph glyph-name="uni0219" unicode="&#x219;" horiz-adv-x="616" 
d="M319 -10q-80 0 -144.5 23.5t-107.5 71.5l80 71q34 -35 79 -52.5t97 -17.5q19 0 38 3.5t34.5 10.5t24 18.5t8.5 26.5q0 26 -30 40q-18 6 -44 13.5t-60 14.5q-58 12 -100.5 28t-68.5 39q-21 19 -32 44.5t-11 57.5q0 35 17.5 64t49 49.5t73 31.5t88.5 11q43 0 87 -9.5
t82.5 -27.5t65.5 -46l-66 -77q-22 18 -51 32.5t-60 23.5t-58 9q-20 0 -40 -3.5t-34.5 -10t-23 -17t-8.5 -25.5q-1 -11 5.5 -20.5t16.5 -17.5q16 -10 44.5 -18t69.5 -17q55 -11 96.5 -26.5t68.5 -36.5q21 -17 32 -40.5t11 -53.5q0 -50 -30.5 -87.5t-81.5 -58.5t-117 -21z
M269 -260l-30 46q14 5 28.5 13t23.5 19t9 22q0 9 -5 12.5t-17 6.5q-16 7 -24 16.5t-8 27.5q0 26 20.5 40.5t51.5 14.5q34 0 59.5 -22t25.5 -64q0 -23 -11.5 -43.5t-30.5 -37t-42.5 -29.5t-49.5 -22z" />
    <glyph glyph-name="uni021A" unicode="&#x21a;" horiz-adv-x="712" 
d="M288 0v580h-228v120h592v-120h-234v-580h-130zM304 -261l-30 47q14 4 28.5 12t23.5 19.5t9 22.5q0 7 -5 11t-16 8q-16 6 -24.5 15.5t-8.5 27.5q0 27 20 41t51 14q34 0 60 -21.5t26 -62.5q0 -25 -11.5 -46t-30.5 -37.5t-42.5 -29.5t-49.5 -21z" />
    <glyph glyph-name="uni021B" unicode="&#x21b;" horiz-adv-x="535" 
d="M192 0v673h123v-673h-123zM64 413v114h398v-114h-398zM210 -260l-30 46q14 5 28.5 13t23.5 19t9 22q0 9 -5 12.5t-17 6.5q-16 7 -24 16.5t-8 27.5q0 26 20.5 40.5t51.5 14.5q34 0 59.5 -22t25.5 -64q0 -23 -11.5 -43.5t-30.5 -37t-42.5 -29.5t-49.5 -22z" />
    <glyph glyph-name="uni022A" unicode="&#x22a;" horiz-adv-x="921" 
d="M460 -10q-83 0 -152.5 27t-121.5 76t-80 115t-28 143t28 143t80 115t121.5 76t152.5 27t153 -27t121 -76.5t79.5 -115t28.5 -142.5q0 -76 -28.5 -142t-79.5 -115.5t-121 -76.5t-153 -27zM460 114q55 0 100.5 17.5t79 50t52 75.5t18.5 94t-18.5 94t-52 75.5t-79 50
t-100.5 17.5q-54 0 -100 -17.5t-79.5 -50t-51.5 -75.5t-18 -94t18 -94t51.5 -75.5t79.5 -50t100 -17.5zM570 757q-38 0 -57 19.5t-19 52.5q0 29 19 50.5t57 21.5q37 0 56 -19.5t19 -52.5q0 -29 -19 -50.5t-56 -21.5zM350 757q-37 0 -56 19.5t-19 52.5q0 29 19 50.5t56 21.5
q38 0 57 -19.5t19 -52.5q0 -29 -19 -50.5t-57 -21.5zM289 952v84h341v-84h-341z" />
    <glyph glyph-name="uni022B" unicode="&#x22b;" horiz-adv-x="762" 
d="M381 -10q-89 0 -158 35.5t-108.5 97.5t-39.5 141t39.5 141t108.5 97.5t158 35.5t158 -35.5t108.5 -97.5t39.5 -141t-39.5 -141t-108.5 -97.5t-158 -35.5zM381 99q51 0 92.5 22t65 59t23.5 84q0 48 -23.5 85.5t-65 58.5t-92.5 21q-50 0 -92 -21.5t-66 -58.5t-23 -85
q-1 -47 23 -84t66 -59t92 -22zM488 641q-36 0 -55.5 19t-19.5 54q0 32 20 52t55 20q36 0 56 -19t20 -53q0 -32 -20.5 -52.5t-55.5 -20.5zM274 641q-36 0 -55.5 19t-19.5 54q0 32 20 52t55 20q36 0 55.5 -19t19.5 -53q0 -32 -20 -52.5t-55 -20.5zM227 836v84h308v-84h-308z
" />
    <glyph glyph-name="uni022C" unicode="&#x22c;" horiz-adv-x="921" 
d="M460 -10q-83 0 -152.5 27t-121.5 76t-80 115t-28 143t28 143t80 115t121.5 76t152.5 27t153 -27t121 -76.5t79.5 -115t28.5 -142.5q0 -76 -28.5 -142t-79.5 -115.5t-121 -76.5t-153 -27zM460 114q55 0 100.5 17.5t79 50t52 75.5t18.5 94t-18.5 94t-52 75.5t-79 50
t-100.5 17.5q-54 0 -100 -17.5t-79.5 -50t-51.5 -75.5t-18 -94t18 -94t51.5 -75.5t79.5 -50t100 -17.5zM535 768q-22 0 -44.5 7t-44.5 16q-17 7 -29 11t-22 4q-14 0 -22 -9.5t-8 -28.5h-85q0 58 35 90.5t83 32.5q20 0 39.5 -6t40.5 -16q15 -6 27.5 -10t21.5 -4q14 0 21.5 10
t6.5 26h84q0 -32 -12.5 -60.5t-36 -45.5t-55.5 -17zM289 952v84h341v-84h-341z" />
    <glyph glyph-name="uni022D" unicode="&#x22d;" horiz-adv-x="762" 
d="M381 -10q-89 0 -158 35.5t-108.5 97.5t-39.5 141t39.5 141t108.5 97.5t158 35.5t158 -35.5t108.5 -97.5t39.5 -141t-39.5 -141t-108.5 -97.5t-158 -35.5zM381 99q51 0 92.5 22t65 59t23.5 84q0 48 -23.5 85.5t-65 58.5t-92.5 21q-50 0 -92 -21.5t-66 -58.5t-23 -85
q-1 -47 23 -84t66 -59t92 -22zM438 615q-19 0 -34 7t-33 21q-18 16 -28 22t-18 6q-13 0 -23.5 -13.5t-14.5 -41.5l-75 11q1 52 31 89t81 37q19 0 33.5 -7t32.5 -20q18 -14 27.5 -21t18.5 -7q14 0 24 13.5t13 40.5l76 -11q-1 -33 -15 -62.5t-38.5 -46.5t-57.5 -17zM227 834
v84h308v-84h-308z" />
    <glyph glyph-name="uni0230" unicode="&#x230;" horiz-adv-x="921" 
d="M460 -10q-83 0 -152.5 27t-121.5 76t-80 115t-28 143t28 143t80 115t121.5 76t152.5 27t153 -27t121 -76.5t79.5 -115t28.5 -142.5q0 -76 -28.5 -142t-79.5 -115.5t-121 -76.5t-153 -27zM460 114q55 0 100.5 17.5t79 50t52 75.5t18.5 94t-18.5 94t-52 75.5t-79 50
t-100.5 17.5q-54 0 -100 -17.5t-79.5 -50t-51.5 -75.5t-18 -94t18 -94t51.5 -75.5t79.5 -50t100 -17.5zM460 758q-39 0 -58.5 19.5t-19.5 51.5q0 29 19.5 50.5t58.5 21.5t58.5 -19.5t19.5 -52.5q0 -28 -19.5 -49.5t-58.5 -21.5zM289 952v84h341v-84h-341z" />
    <glyph glyph-name="uni0231" unicode="&#x231;" horiz-adv-x="762" 
d="M381 -10q-89 0 -158 35.5t-108.5 97.5t-39.5 141t39.5 141t108.5 97.5t158 35.5t158 -35.5t108.5 -97.5t39.5 -141t-39.5 -141t-108.5 -97.5t-158 -35.5zM381 99q51 0 92.5 22t65 59t23.5 84q0 48 -23.5 85.5t-65 58.5t-92.5 21q-50 0 -92 -21.5t-66 -58.5t-23 -85
q-1 -47 23 -84t66 -59t92 -22zM381 642q-37 0 -57.5 19t-20.5 53q0 31 21 51t57 20q37 0 57.5 -18.5t20.5 -52.5q0 -32 -21 -52t-57 -20zM227 836v84h308v-84h-308z" />
    <glyph glyph-name="uni0232" unicode="&#x232;" horiz-adv-x="790" 
d="M340 0v335l12 -61l-320 426h160l239 -327l-46 2l223 325h150l-299 -421l11 64v-343h-130zM224 788v84h341v-84h-341z" />
    <glyph glyph-name="uni0233" unicode="&#x233;" horiz-adv-x="740" 
d="M208 -230l127 259l-1 -81l-288 579h143l149 -321q17 -32 30 -63t20 -59l-25 -6q11 26 24.5 58.5t28.5 69.5l135 321h143l-253 -529l-105 -228h-128zM215 641v84h308v-84h-308z" />
    <glyph glyph-name="uni0237" unicode="&#x237;" horiz-adv-x="408" 
d="M58 -201l-47 99q54 0 86.5 19t48 56.5t15.5 93.5v460h123v-489q0 -76 -28.5 -129.5t-79 -81.5t-118.5 -28z" />
    <glyph glyph-name="uni0259" unicode="&#x259;" horiz-adv-x="724" 
d="M353 -12q-78 1 -140 34t-98 91.5t-36 134.5l1 47h483l23 -86h-403l16 15v-22q4 -30 26 -54t55.5 -38t72.5 -14q55 0 96 17.5t63.5 54t22.5 91.5q0 51 -26.5 88.5t-73.5 58.5t-111 21q-54 0 -93 -14.5t-72 -39.5l-58 85q30 24 68.5 41.5t82.5 27.5t89 10q93 0 163.5 -34.5
t110 -95.5t39.5 -139q0 -64 -23 -115t-63.5 -88t-96 -57t-118.5 -20z" />
    <glyph glyph-name="uni0272" unicode="&#x272;" horiz-adv-x="814" 
d="M62 -201l-47 99q33 0 61 5.5t49 18.5t32.5 34t11.5 54v517h120l2 -128l-16 23q19 32 49.5 58t70.5 42t84 16q69 0 115.5 -26.5t70 -76t23.5 -117.5v-318h-123v303q0 41 -15.5 69t-43 43t-66.5 14q-33 0 -60 -11t-46.5 -29.5t-30.5 -41t-11 -46.5v-317q0 -58 -29.5 -99.5
t-81 -63.5t-119.5 -22z" />
    <glyph glyph-name="uni02BB" unicode="&#x2bb;" horiz-adv-x="293" 
d="M176 431q-31 0 -57.5 17t-42.5 46t-16 67q0 30 13.5 58.5t37 55t53.5 47t63 31.5l44 -53q-44 -22 -71 -47.5t-27 -44.5q0 -15 10 -25.5t24 -18.5q22 -16 35.5 -31t13.5 -36q0 -31 -23 -48.5t-57 -17.5z" />
    <glyph glyph-name="uni02BC" unicode="&#x2bc;" horiz-adv-x="287" 
d="M69 432l18 268h138l-82 -268h-74z" />
    <glyph glyph-name="uni02BE" unicode="&#x2be;" horiz-adv-x="221" 
d="M59 527v68q18 0 30.5 11.5t12.5 28.5q0 20 -12.5 31t-30.5 11v68q31 0 56.5 -15t41 -39.5t15.5 -55.5q0 -29 -16 -53.5t-41.5 -39.5t-55.5 -15z" />
    <glyph glyph-name="uni02BF" unicode="&#x2bf;" horiz-adv-x="221" 
d="M149 527q-28 0 -54 14t-43 38.5t-17 55.5t15.5 55.5t41 39.5t55.5 15l2 -68q-18 0 -31 -10.5t-13 -31.5q0 -17 12 -28.5t32 -11.5v-68z" />
    <glyph glyph-name="circumflex" unicode="&#x2c6;" horiz-adv-x="500" 
d="M125 603l-45 39l125 119h90l125 -119l-45 -39l-140 77h30z" />
    <glyph glyph-name="caron" unicode="&#x2c7;" horiz-adv-x="500" 
d="M205 605l-117 119l45 39l132 -78h-30l132 78l45 -39l-117 -119h-90z" />
    <glyph glyph-name="uni02C8" unicode="&#x2c8;" horiz-adv-x="231" 
d="M67 368v344h97v-344h-97z" />
    <glyph glyph-name="uni02CC" unicode="&#x2cc;" horiz-adv-x="239" 
d="M66 -147v344h107v-344h-107z" />
    <glyph glyph-name="breve" unicode="&#x2d8;" horiz-adv-x="402" 
d="M250 591q-66 0 -110 42t-58 114l84 12q12 -36 34 -57.5t50 -21.5t50 21.5t34 57.5l84 -12q-14 -72 -58 -114t-110 -42z" />
    <glyph glyph-name="dotaccent" unicode="&#x2d9;" horiz-adv-x="500" 
d="M250 640q-37 0 -57.5 19t-20.5 53q0 31 21 51t57 20q37 0 57.5 -18.5t20.5 -52.5q0 -32 -21 -52t-57 -20z" />
    <glyph glyph-name="ring" unicode="&#x2da;" horiz-adv-x="500" 
d="M250 602q-29 0 -55 15t-42 40t-16 54q0 30 15.5 55t41.5 40t56 15q31 0 57 -15t41.5 -40t15.5 -55q0 -29 -15.5 -54t-41.5 -40t-57 -15zM250 668q19 0 32.5 12.5t13.5 30.5q0 19 -13.5 31t-32.5 12t-32 -12t-13 -31q0 -18 13.5 -30.5t31.5 -12.5z" />
    <glyph glyph-name="ogonek" unicode="&#x2db;" horiz-adv-x="500" 
d="M250 -204q-30 0 -56 14.5t-41.5 38.5t-15.5 53q0 27 12 49.5t33.5 40t52.5 31t67 23.5l39 -46q-28 -6 -52.5 -19t-39 -30t-14.5 -35q0 -15 9 -24.5t23 -9.5q11 0 19.5 7t15.5 18l61 -44q-7 -16 -23.5 -31.5t-39 -25.5t-50.5 -10z" />
    <glyph glyph-name="tilde" unicode="&#x2dc;" horiz-adv-x="500" 
d="M308 613q-19 0 -34 7t-33 21q-18 16 -28 22t-18 6q-13 0 -23.5 -13.5t-14.5 -41.5l-75 11q1 52 31 89t81 37q19 0 33.5 -7t32.5 -20q18 -14 27.5 -21t18.5 -7q14 0 24 13.5t13 40.5l76 -11q-1 -33 -15 -62.5t-38.5 -46.5t-57.5 -17z" />
    <glyph glyph-name="hungarumlaut" unicode="&#x2dd;" horiz-adv-x="500" 
d="M286 598l-44 51l146 141l74 -85zM85 597l-46 50l143 143l75 -83z" />
    <glyph glyph-name="gravecomb" unicode="&#x300;" 
d="M323 598l-185 100l68 90l156 -131z" />
    <glyph glyph-name="acutecomb" unicode="&#x301;" 
d="M177 598l-39 59l156 130l68 -89z" />
    <glyph glyph-name="uni0302" unicode="&#x302;" 
d="M125 603l-45 39l125 119h90l125 -119l-45 -39l-140 77h30z" />
    <glyph glyph-name="tildecomb" unicode="&#x303;" 
d="M308 613q-19 0 -34 7t-33 21q-18 16 -28 22t-18 6q-13 0 -23.5 -13.5t-14.5 -41.5l-75 11q1 52 31 89t81 37q19 0 33.5 -7t32.5 -20q18 -14 27.5 -21t18.5 -7q14 0 24 13.5t13 40.5l76 -11q-1 -33 -15 -62.5t-38.5 -46.5t-57.5 -17z" />
    <glyph glyph-name="uni0304" unicode="&#x304;" 
d="M96 639v84h308v-84h-308z" />
    <glyph glyph-name="uni0306" unicode="&#x306;" 
d="M250 591q-66 0 -110 42t-58 114l84 12q12 -36 34 -57.5t50 -21.5t50 21.5t34 57.5l84 -12q-14 -72 -58 -114t-110 -42z" />
    <glyph glyph-name="uni0307" unicode="&#x307;" 
d="M250 640q-37 0 -57.5 19t-20.5 53q0 31 21 51t57 20q37 0 57.5 -18.5t20.5 -52.5q0 -32 -21 -52t-57 -20z" />
    <glyph glyph-name="uni0308" unicode="&#x308;" 
d="M357 639q-36 0 -55.5 19t-19.5 54q0 32 20 52t55 20q36 0 56 -19t20 -53q0 -32 -20.5 -52.5t-55.5 -20.5zM143 639q-36 0 -55.5 19t-19.5 54q0 32 20 52t55 20q36 0 55.5 -19t19.5 -53q0 -32 -20 -52.5t-55 -20.5z" />
    <glyph glyph-name="hookabovecomb" unicode="&#x309;" 
d="M227 590q-7 10 -11.5 20t-4.5 20t5.5 21.5t22.5 22.5q16 11 23 17t7 14q0 9 -8.5 13.5t-21.5 4.5q-18 0 -37.5 -5.5t-38.5 -14.5l-19 71q21 12 48 19t53 7q54 0 83 -23t29 -59q0 -28 -12.5 -43t-26.5 -24q-18 -9 -27.5 -16.5t-9.5 -17.5q0 -3 1 -6.5t2 -6.5z" />
    <glyph glyph-name="uni030A" unicode="&#x30a;" 
d="M250 602q-29 0 -55 15t-42 40t-16 54q0 30 15.5 55t41.5 40t56 15q31 0 57 -15t41.5 -40t15.5 -55q0 -29 -15.5 -54t-41.5 -40t-57 -15zM250 668q19 0 32.5 12.5t13.5 30.5q0 19 -13.5 31t-32.5 12t-32 -12t-13 -31q0 -18 13.5 -30.5t31.5 -12.5z" />
    <glyph glyph-name="uni030B" unicode="&#x30b;" 
d="M286 598l-44 51l146 141l74 -85zM85 597l-46 50l143 143l75 -83z" />
    <glyph glyph-name="uni030C" unicode="&#x30c;" 
d="M205 605l-117 119l45 39l132 -78h-30l132 78l45 -39l-117 -119h-90z" />
    <glyph glyph-name="uni030F" unicode="&#x30f;" 
d="M416 597l-172 110l75 83l143 -143zM215 598l-176 107l74 85l146 -141z" />
    <glyph glyph-name="uni0311" unicode="&#x311;" 
d="M166 601l-84 12q14 72 58 114t110 42t110 -42t58 -114l-84 -12q-12 37 -34 58t-50 21t-50 -21t-34 -58z" />
    <glyph glyph-name="uni0312" unicode="&#x312;" 
d="M253 600q-31 0 -58 20.5t-27 64.5q0 27 13.5 49t34.5 38.5t44.5 28t41.5 17.5l30 -46q-13 -3 -27.5 -11.5t-24 -20t-9.5 -22.5q0 -10 6.5 -13.5t15.5 -6.5q13 -5 22.5 -13t9.5 -30q0 -27 -21 -41t-51 -14z" />
    <glyph glyph-name="uni031B" unicode="&#x31b;" 
d="M154 437v81q53 0 74.5 28t21.5 86h96q0 -55 -19 -99t-61 -70t-112 -26z" />
    <glyph glyph-name="dotbelowcomb" unicode="&#x323;" 
d="M250 -212q-38 0 -58.5 19t-20.5 53q0 30 21 51t58 21q38 0 58.5 -19.5t20.5 -52.5q0 -31 -21 -51.5t-58 -20.5z" />
    <glyph glyph-name="uni0324" unicode="&#x324;" 
d="M357 -213q-36 0 -55.5 19t-19.5 54q0 32 20 52t55 20q36 0 56 -19t20 -53q0 -32 -20.5 -52.5t-55.5 -20.5zM143 -213q-36 0 -55.5 19t-19.5 54q0 32 20 52t55 20q36 0 55.5 -19t19.5 -53q0 -32 -20 -52.5t-55 -20.5z" />
    <glyph glyph-name="uni0326" unicode="&#x326;" 
d="M198 -260l-30 46q14 5 28.5 13t23.5 19t9 22q0 9 -5 12.5t-17 6.5q-16 7 -24 16.5t-8 27.5q0 26 20.5 40.5t51.5 14.5q34 0 59.5 -22t25.5 -64q0 -23 -11.5 -43.5t-30.5 -37t-42.5 -29.5t-49.5 -22z" />
    <glyph glyph-name="uni0327" unicode="&#x327;" 
d="M156 -245l-7 60q24 0 49.5 6t42.5 17t17 24q0 14 -15 22t-35.5 12.5t-35.5 4.5l-14 14l70 109h67l-44 -69q48 -9 74.5 -32.5t26.5 -61.5q0 -28 -18 -48.5t-47.5 -33.5t-63.5 -19t-67 -5z" />
    <glyph glyph-name="uni0328" unicode="&#x328;" 
d="M250 -204q-30 0 -56 14.5t-41.5 38.5t-15.5 53q0 27 12 49.5t33.5 40t52.5 31t67 23.5l39 -46q-28 -6 -52.5 -19t-39 -30t-14.5 -35q0 -15 9 -24.5t23 -9.5q11 0 19.5 7t15.5 18l61 -44q-7 -16 -23.5 -31.5t-39 -25.5t-50.5 -10z" />
    <glyph glyph-name="uni032E" unicode="&#x32e;" 
d="M250 -234q-63 0 -108.5 42t-59.5 114l84 12q11 -34 34 -56.5t50 -22.5t50 22.5t34 56.5l84 -12q-14 -72 -59.5 -114t-108.5 -42z" />
    <glyph glyph-name="uni0331" unicode="&#x331;" 
d="M106 -185v89h289v-89h-289z" />
    <glyph glyph-name="uni0335" unicode="&#x335;" 
d="M84 248v99h332v-99h-332z" />
    <glyph glyph-name="uni0394" unicode="&#x394;" horiz-adv-x="754" 
d="M38 0l375 725l378 -725h-753zM192 64l-42 43h536l-51 -46l-242 469h40z" />
    <glyph glyph-name="uni03A9" unicode="&#x3a9;" horiz-adv-x="768" 
d="M67 0v119h200l-31 -38q-44 43 -81 94.5t-59 108.5t-22 116q0 68 26.5 125t74 98.5t111.5 65t137 23.5q75 0 138.5 -23.5t110.5 -65.5t73.5 -99t26.5 -125q0 -58 -22.5 -115.5t-59 -108.5t-79.5 -93l-27 37h195v-119h-289v90q22 26 40.5 48t33 39.5t23.5 32.5
q19 28 31.5 55.5t19 59t6.5 68.5q0 41 -16.5 77t-46.5 62t-70.5 40.5t-87.5 14.5t-87 -14t-69.5 -40.5t-46.5 -62.5t-17 -77q0 -43 9 -78.5t26 -67t38 -61.5q11 -16 21 -29.5t20.5 -25t19.5 -22t17 -19.5v-90h-287z" />
    <glyph glyph-name="uni03BC" unicode="&#x3bc;" horiz-adv-x="656" 
d="M106 -159v686h127v-299q0 -38 12 -66.5t38.5 -44.5t67.5 -16q32 0 59.5 10.5t47 29t31 42t11.5 50.5v294h127v-527h-124l-2 102l21 13q-18 -38 -45.5 -66t-65.5 -43.5t-88 -15.5q-19 0 -39.5 5t-38 16t-24.5 25l10 27l2 -222h-127z" />
    <glyph glyph-name="pi" unicode="&#x3c0;" horiz-adv-x="777" 
d="M171 0v478l17 -65h-119v115h642v-115h-111l9 27v-440h-112v462l10 -49h-237l13 27v-440h-112z" />
    <glyph glyph-name="uni1E08" unicode="&#x1e08;" horiz-adv-x="805" 
d="M451 -10q-80 0 -148 26t-118.5 74t-78.5 114.5t-28 146.5q0 77 29.5 142t81 113.5t120 75.5t146.5 27q58 0 111.5 -16t98 -42t73.5 -58l-80 -98q-29 28 -61 47.5t-68.5 30.5t-77.5 11q-47 0 -91 -16.5t-77 -47.5t-52.5 -74t-19.5 -96q0 -55 19.5 -98.5t54.5 -74t81 -47
t99 -16.5q44 0 81 12t67 30.5t55 40.5l63 -104q-26 -25 -69.5 -49t-98.5 -39t-112 -15zM350 -245l-8 60q25 0 50 6t42.5 17t17.5 24q0 14 -15 22t-35.5 12.5t-36.5 4.5l-13 14l70 109h67l-44 -69q47 -9 74 -32.5t27 -61.5q0 -28 -18 -48.5t-47 -33.5t-63.5 -19t-67.5 -5z
M376 752l-31 63l192 113l50 -99z" />
    <glyph glyph-name="uni1E09" unicode="&#x1e09;" horiz-adv-x="677" 
d="M365 -10q-84 0 -149 36t-103 98t-38 140t38 140t102.5 98t147.5 36q79 0 145.5 -26.5t105.5 -73.5l-68 -88q-20 22 -48.5 40t-61 28.5t-64.5 10.5q-51 0 -90.5 -21.5t-61.5 -59t-22 -84.5t23 -84t62.5 -59t88.5 -22q37 0 68 9.5t58 25t48 35.5l67 -87
q-43 -39 -107.5 -65.5t-140.5 -26.5zM266 -245l-7 60q24 0 49.5 6t42.5 17t17 24q0 14 -15 22t-35.5 12.5t-35.5 4.5l-14 14l70 109h67l-44 -69q48 -9 74.5 -32.5t26.5 -61.5q0 -28 -18 -48.5t-47.5 -33.5t-63.5 -19t-67 -5zM293 600l-39 59l156 130l68 -89z" />
    <glyph glyph-name="uni1E0C" unicode="&#x1e0c;" horiz-adv-x="881" 
d="M128 0v700h313q84 0 150.5 -26t114 -74t72 -111.5t24.5 -138.5q0 -76 -24.5 -140t-71.5 -111t-114 -73t-151 -26h-313zM258 101l-10 19h188q57 0 100.5 17t72.5 48t44 72.5t15 92.5q0 50 -15 92t-44.5 73t-72.5 48t-100 17h-191l13 17v-496zM441 -212q-38 0 -58.5 19
t-20.5 53q0 30 21 51t58 21q38 0 58.5 -19.5t20.5 -52.5q0 -31 -21 -51.5t-58 -20.5z" />
    <glyph glyph-name="uni1E0D" unicode="&#x1e0d;" horiz-adv-x="773" 
d="M340 -10q-79 0 -140 35.5t-95.5 97t-34.5 141.5q0 79 35 141t97 97.5t141 35.5q46 0 86.5 -12.5t72 -33t49.5 -45.5t20 -51l-33 -4v348h123v-740h-119l-3 132l24 -5q-1 -25 -20 -48.5t-49.5 -43.5t-70.5 -32.5t-83 -12.5zM368 96q51 0 90.5 22t61.5 59.5t22 86.5
q0 48 -22 86t-61.5 59t-90.5 21t-90.5 -21t-61.5 -59t-22 -86q0 -49 22 -86.5t61.5 -59.5t90.5 -22zM381 -212q-38 0 -58.5 19t-20.5 53q0 30 21 51t58 21q38 0 58.5 -19.5t20.5 -52.5q0 -31 -21 -51.5t-58 -20.5z" />
    <glyph glyph-name="uni1E0E" unicode="&#x1e0e;" horiz-adv-x="881" 
d="M128 0v700h313q84 0 150.5 -26t114 -74t72 -111.5t24.5 -138.5q0 -76 -24.5 -140t-71.5 -111t-114 -73t-151 -26h-313zM258 101l-10 19h188q57 0 100.5 17t72.5 48t44 72.5t15 92.5q0 50 -15 92t-44.5 73t-72.5 48t-100 17h-191l13 17v-496zM296 -185v89h289v-89h-289z
" />
    <glyph glyph-name="uni1E0F" unicode="&#x1e0f;" horiz-adv-x="773" 
d="M340 -10q-79 0 -140 35.5t-95.5 97t-34.5 141.5q0 79 35 141t97 97.5t141 35.5q46 0 86.5 -12.5t72 -33t49.5 -45.5t20 -51l-33 -4v348h123v-740h-119l-3 132l24 -5q-1 -25 -20 -48.5t-49.5 -43.5t-70.5 -32.5t-83 -12.5zM368 96q51 0 90.5 22t61.5 59.5t22 86.5
q0 48 -22 86t-61.5 59t-90.5 21t-90.5 -21t-61.5 -59t-22 -86q0 -49 22 -86.5t61.5 -59.5t90.5 -22zM236 -185v89h289v-89h-289z" />
    <glyph glyph-name="uni1E14" unicode="&#x1e14;" horiz-adv-x="749" 
d="M128 0v700h514v-118h-386v-464h390v-118h-518zM192 300v116h399v-116h-399zM224 788v84h341v-84h-341zM482 916l-211 77l52 99l192 -113z" />
    <glyph glyph-name="uni1E15" unicode="&#x1e15;" horiz-adv-x="724" 
d="M383 -10q-92 0 -163 35t-110.5 95.5t-39.5 138.5q0 64 23 115t63.5 88t95.5 57t119 20q58 0 108.5 -19.5t88 -54t58 -82t19.5 -104.5l-1 -47h-483l-23 86h403l-16 -15v22q-4 31 -26 54.5t-55.5 37.5t-72.5 14q-55 0 -96 -17.5t-63.5 -53.5t-22.5 -92q0 -51 26.5 -88.5
t74 -58.5t110.5 -21q54 0 93 14.5t72 39.5l58 -85q-29 -23 -68 -41t-83 -28t-89 -10zM384 757l-120 126l85 63l93 -150zM220 631v84h302v-84h-302z" />
    <glyph glyph-name="uni1E16" unicode="&#x1e16;" horiz-adv-x="749" 
d="M128 0v700h514v-118h-386v-464h390v-118h-518zM192 300v116h399v-116h-399zM224 788v84h341v-84h-341zM317 916l-31 63l192 113l50 -99z" />
    <glyph glyph-name="uni1E17" unicode="&#x1e17;" horiz-adv-x="724" 
d="M383 -10q-92 0 -163 35t-110.5 95.5t-39.5 138.5q0 64 23 115t63.5 88t95.5 57t119 20q58 0 108.5 -19.5t88 -54t58 -82t19.5 -104.5l-1 -47h-483l-23 86h403l-16 -15v22q-4 31 -26 54.5t-55.5 37.5t-72.5 14q-55 0 -96 -17.5t-63.5 -53.5t-22.5 -92q0 -51 26.5 -88.5
t74 -58.5t110.5 -21q54 0 93 14.5t72 39.5l58 -85q-29 -23 -68 -41t-83 -28t-89 -10zM220 631v84h302v-84h-302zM373 757l-57 39l92 150l86 -63z" />
    <glyph glyph-name="uni1E1C" unicode="&#x1e1c;" horiz-adv-x="749" 
d="M128 0v700h514v-118h-386v-464h390v-118h-518zM192 300v116h399v-116h-399zM279 -245l-8 60q25 0 50 6t42.5 17t17.5 24q0 14 -15 22t-35.5 12.5t-36.5 4.5l-13 14l70 109h67l-44 -69q47 -9 74 -32.5t27 -61.5q0 -28 -18 -48.5t-47 -33.5t-63.5 -19t-67.5 -5zM395 753
q-42 0 -77 19t-58.5 50.5t-32.5 70.5l84 12q11 -25 33 -44t51 -19t51 19t33 44l84 -12q-8 -39 -32 -70.5t-58.5 -50.5t-77.5 -19z" />
    <glyph glyph-name="uni1E1D" unicode="&#x1e1d;" horiz-adv-x="724" 
d="M383 -10q-92 0 -163 35t-110.5 95.5t-39.5 138.5q0 64 23 115t63.5 88t95.5 57t119 20q58 0 108.5 -19.5t88 -54t58 -82t19.5 -104.5l-1 -47h-483l-23 86h403l-16 -15v22q-4 31 -26 54.5t-55.5 37.5t-72.5 14q-55 0 -96 -17.5t-63.5 -53.5t-22.5 -92q0 -51 26.5 -88.5
t74 -58.5t110.5 -21q54 0 93 14.5t72 39.5l58 -85q-29 -23 -68 -41t-83 -28t-89 -10zM286 -245l-7 60q24 0 49.5 6t42.5 17t17 24q0 14 -15 22t-35.5 12.5t-35.5 4.5l-14 14l70 109h67l-44 -69q48 -9 74.5 -32.5t26.5 -61.5q0 -28 -18 -48.5t-47.5 -33.5t-63.5 -19t-67 -5z
M371 593q-66 0 -110 42t-58 114l84 12q12 -36 34 -57.5t50 -21.5t50 21.5t34 57.5l84 -12q-14 -72 -58 -114t-110 -42z" />
    <glyph glyph-name="uni1E20" unicode="&#x1e20;" horiz-adv-x="897" 
d="M465 -10q-82 0 -152.5 25.5t-123 73t-82 114t-29.5 148.5q0 76 29.5 141.5t83.5 114t126.5 75.5t156.5 27q64 0 120.5 -16t101 -43t72.5 -59l-82 -88q-30 26 -63.5 44.5t-71 29.5t-78.5 11q-55 0 -102.5 -18t-82.5 -50t-55 -75t-20 -94q0 -55 20.5 -99.5t57 -76t83.5 -48
t100 -16.5q45 0 84.5 11t69.5 30.5t46.5 46.5t15.5 58v19l18 -24h-241v115h353q2 -13 3 -25.5t1.5 -23t0.5 -17.5q0 -73 -27 -130.5t-75.5 -97.5t-114 -61.5t-143.5 -21.5zM297 788v84h341v-84h-341z" />
    <glyph glyph-name="uni1E21" unicode="&#x1e21;" horiz-adv-x="798" 
d="M387 -230q-73 0 -135 18.5t-100 46.5l43 93q21 -13 49.5 -24.5t63 -19t72.5 -7.5q54 0 92.5 18.5t59.5 56t21 91.5v81l18 -7q-7 -30 -39.5 -58t-80.5 -46t-102 -18q-80 0 -141.5 35t-97 95.5t-35.5 139.5t36 140.5t99 97t144 35.5q27 0 57.5 -6.5t59 -18.5t52.5 -28
t39 -34.5t18 -37.5l-26 -8l2 122h120v-475q0 -70 -21.5 -122t-60.5 -88t-92 -54t-115 -18zM380 100q53 0 93 21t62 58t22 85q0 49 -22.5 86.5t-62 58.5t-92.5 21t-93.5 -21.5t-64 -59t-23.5 -85.5q0 -47 23.5 -84.5t64 -58.5t93.5 -21zM238 641v84h308v-84h-308z" />
    <glyph glyph-name="uni1E24" unicode="&#x1e24;" horiz-adv-x="891" 
d="M633 0v700h130v-700h-130zM128 0v700h130v-700h-130zM182 286v122h514v-122h-514zM446 -212q-38 0 -58.5 19t-20.5 53q0 30 21 51t58 21q38 0 58.5 -19.5t20.5 -52.5q0 -31 -21 -51.5t-58 -20.5z" />
    <glyph glyph-name="uni1E25" unicode="&#x1e25;" horiz-adv-x="774" 
d="M129 0v740h123v-337l-31 -10q11 38 43.5 70.5t79.5 53.5t99 21q68 0 114 -27t68.5 -76t22.5 -117v-318h-123v302q0 42 -15 70.5t-43.5 43.5t-66.5 14q-32 0 -59 -11t-47 -29.5t-30.5 -41.5t-10.5 -48v-300h-62h-38.5h-23.5zM387 -212q-38 0 -58.5 19t-20.5 53q0 30 21 51
t58 21q38 0 58.5 -19.5t20.5 -52.5q0 -31 -21 -51.5t-58 -20.5z" />
    <glyph glyph-name="uni1E2A" unicode="&#x1e2a;" horiz-adv-x="891" 
d="M633 0v700h130v-700h-130zM128 0v700h130v-700h-130zM182 286v122h514v-122h-514zM446 -234q-63 0 -108.5 42t-59.5 114l84 12q11 -34 34 -56.5t50 -22.5t50 22.5t34 56.5l84 -12q-14 -72 -59.5 -114t-108.5 -42z" />
    <glyph glyph-name="uni1E2B" unicode="&#x1e2b;" horiz-adv-x="774" 
d="M129 0v740h123v-337l-31 -10q11 38 43.5 70.5t79.5 53.5t99 21q68 0 114 -27t68.5 -76t22.5 -117v-318h-123v302q0 42 -15 70.5t-43.5 43.5t-66.5 14q-32 0 -59 -11t-47 -29.5t-30.5 -41.5t-10.5 -48v-300h-62h-38.5h-23.5zM387 -234q-63 0 -108.5 42t-59.5 114l84 12
q11 -34 34 -56.5t50 -22.5t50 22.5t34 56.5l84 -12q-14 -72 -59.5 -114t-108.5 -42z" />
    <glyph glyph-name="uni1E2E" unicode="&#x1e2e;" horiz-adv-x="655" 
d="M120 0v118h143v464h-143v118h416v-118h-143v-464h143v-118h-416zM252 929l-31 62l192 113l50 -99zM217 757q-37 0 -56 19.5t-19 52.5q0 29 19 50.5t56 21.5q38 0 57 -19.5t19 -52.5q0 -29 -19 -50.5t-57 -21.5zM437 757q-38 0 -57 19.5t-19 52.5q0 29 19 50.5t57 21.5
q37 0 56 -19.5t19 -52.5q0 -29 -19 -50.5t-56 -21.5z" />
    <glyph glyph-name="uni1E2F" unicode="&#x1e2f;" horiz-adv-x="365" 
d="M121 0v527h123v-527h-123zM75 627q-36 0 -56 19t-20 54q0 32 20.5 52t55.5 20q36 0 55.5 -19t19.5 -53q0 -32 -20 -52.5t-55 -20.5zM289 627q-36 0 -55.5 19t-19.5 54q0 32 20 52t55 20q36 0 55.5 -19t19.5 -53q0 -32 -20 -52.5t-55 -20.5zM192 784l-58 39l85 154l93 -67
z" />
    <glyph glyph-name="uni1E36" unicode="&#x1e36;" horiz-adv-x="722" 
d="M128 0v700h130v-580h379v-120h-509zM364 -212q-38 0 -58.5 19t-20.5 53q0 30 21 51t58 21q38 0 58.5 -19.5t20.5 -52.5q0 -31 -21 -51.5t-58 -20.5z" />
    <glyph glyph-name="uni1E37" unicode="&#x1e37;" horiz-adv-x="379" 
d="M127 0v740h124v-740h-124zM189 -212q-38 0 -58.5 19t-20.5 53q0 30 21 51t58 21q38 0 58.5 -19.5t20.5 -52.5q0 -31 -21 -51.5t-58 -20.5z" />
    <glyph glyph-name="uni1E3A" unicode="&#x1e3a;" horiz-adv-x="722" 
d="M128 0v700h130v-580h379v-120h-509zM219 -185v89h289v-89h-289z" />
    <glyph glyph-name="uni1E3B" unicode="&#x1e3b;" horiz-adv-x="379" 
d="M127 0v740h124v-740h-124zM45 -185v89h289v-89h-289z" />
    <glyph glyph-name="uni1E42" unicode="&#x1e42;" horiz-adv-x="994" 
d="M128 0v700h123l280 -407l-67 1l283 406h119v-700h-129v267q0 87 4.5 159.5t15.5 145.5l15 -45l-244 -337h-66l-239 336l14 46q11 -71 15.5 -142.5t4.5 -162.5v-267h-129zM496 -212q-38 0 -58.5 19t-20.5 53q0 30 21 51t58 21q38 0 58.5 -19.5t20.5 -52.5q0 -31 -21 -51.5
t-58 -20.5z" />
    <glyph glyph-name="uni1E43" unicode="&#x1e43;" horiz-adv-x="1138" 
d="M122 0v527h121l2 -122h-28q10 24 30.5 47.5t49.5 42t64 30t75 11.5q47 0 85 -14.5t63 -46.5t35 -81l-27 6l8 16q13 22 35 43t51 38.5t63 28t69 10.5q71 0 115.5 -27t65 -77t20.5 -118v-314h-124v302q0 40 -11.5 68t-36 42.5t-62.5 14.5q-32 0 -60.5 -10.5t-49.5 -29.5
t-32.5 -43.5t-11.5 -52.5v-291h-124v303q0 39 -13 66.5t-39 42.5t-66 15q-31 0 -57 -11t-45.5 -29.5t-30 -40.5t-10.5 -46v-300h-124zM568 -212q-38 0 -58.5 19t-20.5 53q0 30 21 51t58 21q38 0 58.5 -19.5t20.5 -52.5q0 -31 -21 -51.5t-58 -20.5z" />
    <glyph glyph-name="uni1E44" unicode="&#x1e44;" horiz-adv-x="929" 
d="M128 0v700h121l462 -547l-18 -4q-5 30 -8 61.5t-5.5 64.5t-4 68t-2 71.5t-0.5 75.5v210h129v-700h-123l-464 539l22 7q3 -41 6 -74t6 -60.5t4.5 -51t2.5 -46t1 -43.5v-271h-129zM465 758q-39 0 -58.5 19.5t-19.5 51.5q0 29 19.5 50.5t58.5 21.5t58.5 -19.5t19.5 -52.5
q0 -28 -19.5 -49.5t-58.5 -21.5z" />
    <glyph glyph-name="uni1E45" unicode="&#x1e45;" horiz-adv-x="774" 
d="M129 0v527h120l3 -124l-31 -9q14 37 46 69.5t77 53.5t96 21q68 0 115 -26.5t70 -76t23 -117.5v-318h-123v303q0 41 -15 69t-43.5 43t-66.5 14q-32 0 -59 -11t-47 -29.5t-30.5 -41t-10.5 -46.5v-301h-62h-38.5h-23.5zM414 642q-37 0 -57.5 19t-20.5 53q0 31 21 51t57 20
q37 0 57.5 -18.5t20.5 -52.5q0 -32 -21 -52t-57 -20z" />
    <glyph glyph-name="uni1E46" unicode="&#x1e46;" horiz-adv-x="929" 
d="M128 0v700h121l462 -547l-18 -4q-5 30 -8 61.5t-5.5 64.5t-4 68t-2 71.5t-0.5 75.5v210h129v-700h-123l-464 539l22 7q3 -41 6 -74t6 -60.5t4.5 -51t2.5 -46t1 -43.5v-271h-129zM465 -212q-38 0 -58.5 19t-20.5 53q0 30 21 51t58 21q38 0 58.5 -19.5t20.5 -52.5
q0 -31 -21 -51.5t-58 -20.5z" />
    <glyph glyph-name="uni1E47" unicode="&#x1e47;" horiz-adv-x="774" 
d="M129 0v527h120l3 -124l-31 -9q14 37 46 69.5t77 53.5t96 21q68 0 115 -26.5t70 -76t23 -117.5v-318h-123v303q0 41 -15 69t-43.5 43t-66.5 14q-32 0 -59 -11t-47 -29.5t-30.5 -41t-10.5 -46.5v-301h-62h-38.5h-23.5zM387 -212q-38 0 -58.5 19t-20.5 53q0 30 21 51t58 21
q38 0 58.5 -19.5t20.5 -52.5q0 -31 -21 -51.5t-58 -20.5z" />
    <glyph glyph-name="uni1E48" unicode="&#x1e48;" horiz-adv-x="929" 
d="M128 0v700h121l462 -547l-18 -4q-5 30 -8 61.5t-5.5 64.5t-4 68t-2 71.5t-0.5 75.5v210h129v-700h-123l-464 539l22 7q3 -41 6 -74t6 -60.5t4.5 -51t2.5 -46t1 -43.5v-271h-129zM321 -185v89h289v-89h-289z" />
    <glyph glyph-name="uni1E49" unicode="&#x1e49;" horiz-adv-x="774" 
d="M129 0v527h120l3 -124l-31 -9q14 37 46 69.5t77 53.5t96 21q68 0 115 -26.5t70 -76t23 -117.5v-318h-123v303q0 41 -15 69t-43.5 43t-66.5 14q-32 0 -59 -11t-47 -29.5t-30.5 -41t-10.5 -46.5v-301h-62h-38.5h-23.5zM242 -185v89h289v-89h-289z" />
    <glyph glyph-name="uni1E4C" unicode="&#x1e4c;" horiz-adv-x="921" 
d="M460 -10q-83 0 -152.5 27t-121.5 76t-80 115t-28 143t28 143t80 115t121.5 76t152.5 27t153 -27t121 -76.5t79.5 -115t28.5 -142.5q0 -76 -28.5 -142t-79.5 -115.5t-121 -76.5t-153 -27zM460 114q55 0 100.5 17.5t79 50t52 75.5t18.5 94t-18.5 94t-52 75.5t-79 50
t-100.5 17.5q-54 0 -100 -17.5t-79.5 -50t-51.5 -75.5t-18 -94t18 -94t51.5 -75.5t79.5 -50t100 -17.5zM535 768q-22 0 -44.5 7t-44.5 16q-17 7 -29 11t-22 4q-14 0 -22 -9.5t-8 -28.5h-85q0 58 35 90.5t83 32.5q20 0 39.5 -6t40.5 -16q15 -6 27.5 -10t21.5 -4q14 0 21.5 10
t6.5 26h84q0 -32 -12.5 -60.5t-36 -45.5t-55.5 -17zM382 916l-31 63l192 113l50 -99z" />
    <glyph glyph-name="uni1E4D" unicode="&#x1e4d;" horiz-adv-x="762" 
d="M381 -10q-89 0 -158 35.5t-108.5 97.5t-39.5 141t39.5 141t108.5 97.5t158 35.5t158 -35.5t108.5 -97.5t39.5 -141t-39.5 -141t-108.5 -97.5t-158 -35.5zM381 99q51 0 92.5 22t65 59t23.5 84q0 48 -23.5 85.5t-65 58.5t-92.5 21q-50 0 -92 -21.5t-66 -58.5t-23 -85
q-1 -47 23 -84t66 -59t92 -22zM439 615q-19 0 -34 7t-33 21q-18 16 -28 22t-18 6q-13 0 -23.5 -13.5t-14.5 -41.5l-75 11q1 52 31 89t81 37q19 0 33.5 -7t32.5 -20q18 -14 27.5 -21t18.5 -7q14 0 24 13.5t13 40.5l76 -11q-1 -33 -15 -62.5t-38.5 -46.5t-57.5 -17zM393 773
l-58 39l93 150l85 -63z" />
    <glyph glyph-name="uni1E4E" unicode="&#x1e4e;" horiz-adv-x="921" 
d="M460 -10q-83 0 -152.5 27t-121.5 76t-80 115t-28 143t28 143t80 115t121.5 76t152.5 27t153 -27t121 -76.5t79.5 -115t28.5 -142.5q0 -76 -28.5 -142t-79.5 -115.5t-121 -76.5t-153 -27zM460 114q55 0 100.5 17.5t79 50t52 75.5t18.5 94t-18.5 94t-52 75.5t-79 50
t-100.5 17.5q-54 0 -100 -17.5t-79.5 -50t-51.5 -75.5t-18 -94t18 -94t51.5 -75.5t79.5 -50t100 -17.5zM535 768q-22 0 -44.5 7t-44.5 16q-17 7 -29 11t-22 4q-14 0 -22 -9.5t-8 -28.5h-85q0 58 35 90.5t83 32.5q20 0 39.5 -6t40.5 -16q15 -6 27.5 -10t21.5 -4q14 0 21.5 10
t6.5 26h84q0 -32 -12.5 -60.5t-36 -45.5t-55.5 -17zM570 921q-38 0 -57 19.5t-19 52.5q0 29 19 50.5t57 21.5q37 0 56 -19.5t19 -52.5q0 -29 -19 -50.5t-56 -21.5zM350 921q-37 0 -56 19.5t-19 52.5q0 29 19 50.5t56 21.5q38 0 57 -19.5t19 -52.5q0 -29 -19 -50.5t-57 -21.5
z" />
    <glyph glyph-name="uni1E4F" unicode="&#x1e4f;" horiz-adv-x="762" 
d="M381 -10q-89 0 -158 35.5t-108.5 97.5t-39.5 141t39.5 141t108.5 97.5t158 35.5t158 -35.5t108.5 -97.5t39.5 -141t-39.5 -141t-108.5 -97.5t-158 -35.5zM381 99q51 0 92.5 22t65 59t23.5 84q0 48 -23.5 85.5t-65 58.5t-92.5 21q-50 0 -92 -21.5t-66 -58.5t-23 -85
q-1 -47 23 -84t66 -59t92 -22zM486 806q-36 0 -55 18t-19 52q0 30 20 49.5t54 19.5q35 0 54.5 -18t19.5 -51q0 -31 -20 -50.5t-54 -19.5zM274 806q-35 0 -54.5 18t-19.5 52q0 30 20 49.5t54 19.5q36 0 55 -18t19 -51q0 -31 -19.5 -50.5t-54.5 -19.5zM437 615q-19 0 -34 7
t-32 21q-19 16 -29 22t-18 6q-13 0 -23.5 -13.5t-13.5 -41.5l-76 11q2 52 32 89t80 37q19 0 34 -7t32 -20q18 -14 28 -21t19 -7q14 0 23.5 13.5t13.5 40.5l75 -11q0 -33 -14.5 -62.5t-38.5 -46.5t-58 -17z" />
    <glyph glyph-name="uni1E50" unicode="&#x1e50;" horiz-adv-x="921" 
d="M460 -10q-83 0 -152.5 27t-121.5 76t-80 115t-28 143t28 143t80 115t121.5 76t152.5 27t153 -27t121 -76.5t79.5 -115t28.5 -142.5q0 -76 -28.5 -142t-79.5 -115.5t-121 -76.5t-153 -27zM460 114q55 0 100.5 17.5t79 50t52 75.5t18.5 94t-18.5 94t-52 75.5t-79 50
t-100.5 17.5q-54 0 -100 -17.5t-79.5 -50t-51.5 -75.5t-18 -94t18 -94t51.5 -75.5t79.5 -50t100 -17.5zM289 788v84h341v-84h-341zM547 916l-211 77l52 99l192 -113z" />
    <glyph glyph-name="uni1E51" unicode="&#x1e51;" horiz-adv-x="762" 
d="M381 -10q-89 0 -158 35.5t-108.5 97.5t-39.5 141t39.5 141t108.5 97.5t158 35.5t158 -35.5t108.5 -97.5t39.5 -141t-39.5 -141t-108.5 -97.5t-158 -35.5zM381 99q51 0 92.5 22t65 59t23.5 84q0 48 -23.5 85.5t-65 58.5t-92.5 21q-50 0 -92 -21.5t-66 -58.5t-23 -85
q-1 -47 23 -84t66 -59t92 -22zM394 757l-120 126l85 63l93 -150zM230 631v84h302v-84h-302z" />
    <glyph glyph-name="uni1E52" unicode="&#x1e52;" horiz-adv-x="921" 
d="M460 -10q-83 0 -152.5 27t-121.5 76t-80 115t-28 143t28 143t80 115t121.5 76t152.5 27t153 -27t121 -76.5t79.5 -115t28.5 -142.5q0 -76 -28.5 -142t-79.5 -115.5t-121 -76.5t-153 -27zM460 114q55 0 100.5 17.5t79 50t52 75.5t18.5 94t-18.5 94t-52 75.5t-79 50
t-100.5 17.5q-54 0 -100 -17.5t-79.5 -50t-51.5 -75.5t-18 -94t18 -94t51.5 -75.5t79.5 -50t100 -17.5zM289 788v84h341v-84h-341zM382 916l-31 63l192 113l50 -99z" />
    <glyph glyph-name="uni1E53" unicode="&#x1e53;" horiz-adv-x="762" 
d="M381 -10q-89 0 -158 35.5t-108.5 97.5t-39.5 141t39.5 141t108.5 97.5t158 35.5t158 -35.5t108.5 -97.5t39.5 -141t-39.5 -141t-108.5 -97.5t-158 -35.5zM381 99q51 0 92.5 22t65 59t23.5 84q0 48 -23.5 85.5t-65 58.5t-92.5 21q-50 0 -92 -21.5t-66 -58.5t-23 -85
q-1 -47 23 -84t66 -59t92 -22zM230 631v84h302v-84h-302zM383 757l-57 39l92 150l86 -63z" />
    <glyph glyph-name="uni1E5A" unicode="&#x1e5a;" horiz-adv-x="823" 
d="M128 0v700h346q65 0 118 -29t83.5 -79t30.5 -113q0 -62 -32 -113t-86 -81t-120 -30h-213v-255h-127zM584 0l-202 316l136 25l222 -342zM255 368h209q31 0 55.5 14.5t39 39t14.5 54.5q0 31 -16 55t-44 38t-64 14h-194v-215zM409 -212q-38 0 -58.5 19t-20.5 53q0 30 21 51
t58 21q38 0 58.5 -19.5t20.5 -52.5q0 -31 -21 -51.5t-58 -20.5z" />
    <glyph glyph-name="uni1E5B" unicode="&#x1e5b;" horiz-adv-x="571" 
d="M129 0v527h121l3 -178l-25 24q13 46 44.5 83.5t72.5 59.5t85 22q25 0 49 -5t38 -13l-33 -133q-16 10 -38.5 15.5t-45.5 5.5q-32 0 -59 -11.5t-46.5 -31t-30.5 -44t-11 -52.5v-269h-124zM191 -212q-38 0 -58.5 19t-20.5 53q0 30 21 51t58 21q38 0 58.5 -19.5t20.5 -52.5
q0 -31 -21 -51.5t-58 -20.5z" />
    <glyph glyph-name="uni1E5E" unicode="&#x1e5e;" horiz-adv-x="823" 
d="M128 0v700h346q65 0 118 -29t83.5 -79t30.5 -113q0 -62 -32 -113t-86 -81t-120 -30h-213v-255h-127zM584 0l-202 316l136 25l222 -342zM255 368h209q31 0 55.5 14.5t39 39t14.5 54.5q0 31 -16 55t-44 38t-64 14h-194v-215zM264 -185v89h289v-89h-289z" />
    <glyph glyph-name="uni1E5F" unicode="&#x1e5f;" horiz-adv-x="571" 
d="M129 0v527h121l3 -178l-25 24q13 46 44.5 83.5t72.5 59.5t85 22q25 0 49 -5t38 -13l-33 -133q-16 10 -38.5 15.5t-45.5 5.5q-32 0 -59 -11.5t-46.5 -31t-30.5 -44t-11 -52.5v-269h-124zM46 -185v89h289v-89h-289z" />
    <glyph glyph-name="uni1E60" unicode="&#x1e60;" horiz-adv-x="752" 
d="M383 -10q-69 0 -126.5 15.5t-103 45.5t-83.5 73l80 100q58 -67 115 -94t125 -27q39 0 73 10t55 30.5t21 49.5q0 19 -10 33.5t-27.5 25t-41 18.5t-49.5 13.5t-54 9.5q-60 10 -107 27t-79 43.5t-48.5 61.5t-16.5 81t21.5 84t60 65t89 42t108.5 15q65 0 116.5 -14t90.5 -41
t66 -64l-82 -88q-24 31 -54 51.5t-65.5 31t-73.5 10.5q-42 0 -73.5 -10t-50 -29t-18.5 -46q0 -21 11.5 -37t33 -28t52 -20t67.5 -14q57 -10 106 -25t85.5 -38t56.5 -56.5t20 -80.5q0 -69 -36.5 -119.5t-101.5 -77.5t-152 -27zM392 758q-39 0 -58.5 19.5t-19.5 51.5
q0 29 19.5 50.5t58.5 21.5t58.5 -19.5t19.5 -52.5q0 -28 -19.5 -49.5t-58.5 -21.5z" />
    <glyph glyph-name="uni1E61" unicode="&#x1e61;" horiz-adv-x="616" 
d="M319 -10q-80 0 -144.5 23.5t-107.5 71.5l80 71q34 -35 79 -52.5t97 -17.5q19 0 38 3.5t34.5 10.5t24 18.5t8.5 26.5q0 26 -30 40q-18 6 -44 13.5t-60 14.5q-58 12 -100.5 28t-68.5 39q-21 19 -32 44.5t-11 57.5q0 35 17.5 64t49 49.5t73 31.5t88.5 11q43 0 87 -9.5
t82.5 -27.5t65.5 -46l-66 -77q-22 18 -51 32.5t-60 23.5t-58 9q-20 0 -40 -3.5t-34.5 -10t-23 -17t-8.5 -25.5q-1 -11 5.5 -20.5t16.5 -17.5q16 -10 44.5 -18t69.5 -17q55 -11 96.5 -26.5t68.5 -36.5q21 -17 32 -40.5t11 -53.5q0 -50 -30.5 -87.5t-81.5 -58.5t-117 -21z
M310 642q-37 0 -57.5 19t-20.5 53q0 31 21 51t57 20q37 0 57.5 -18.5t20.5 -52.5q0 -32 -21 -52t-57 -20z" />
    <glyph glyph-name="uni1E62" unicode="&#x1e62;" horiz-adv-x="752" 
d="M383 -10q-69 0 -126.5 15.5t-103 45.5t-83.5 73l80 100q58 -67 115 -94t125 -27q39 0 73 10t55 30.5t21 49.5q0 19 -10 33.5t-27.5 25t-41 18.5t-49.5 13.5t-54 9.5q-60 10 -107 27t-79 43.5t-48.5 61.5t-16.5 81t21.5 84t60 65t89 42t108.5 15q65 0 116.5 -14t90.5 -41
t66 -64l-82 -88q-24 31 -54 51.5t-65.5 31t-73.5 10.5q-42 0 -73.5 -10t-50 -29t-18.5 -46q0 -21 11.5 -37t33 -28t52 -20t67.5 -14q57 -10 106 -25t85.5 -38t56.5 -56.5t20 -80.5q0 -69 -36.5 -119.5t-101.5 -77.5t-152 -27zM405 -212q-38 0 -58.5 19t-20.5 53q0 30 21 51
t58 21q38 0 58.5 -19.5t20.5 -52.5q0 -31 -21 -51.5t-58 -20.5z" />
    <glyph glyph-name="uni1E63" unicode="&#x1e63;" horiz-adv-x="616" 
d="M319 -10q-80 0 -144.5 23.5t-107.5 71.5l80 71q34 -35 79 -52.5t97 -17.5q19 0 38 3.5t34.5 10.5t24 18.5t8.5 26.5q0 26 -30 40q-18 6 -44 13.5t-60 14.5q-58 12 -100.5 28t-68.5 39q-21 19 -32 44.5t-11 57.5q0 35 17.5 64t49 49.5t73 31.5t88.5 11q43 0 87 -9.5
t82.5 -27.5t65.5 -46l-66 -77q-22 18 -51 32.5t-60 23.5t-58 9q-20 0 -40 -3.5t-34.5 -10t-23 -17t-8.5 -25.5q-1 -11 5.5 -20.5t16.5 -17.5q16 -10 44.5 -18t69.5 -17q55 -11 96.5 -26.5t68.5 -36.5q21 -17 32 -40.5t11 -53.5q0 -50 -30.5 -87.5t-81.5 -58.5t-117 -21z
M321 -212q-38 0 -58.5 19t-20.5 53q0 30 21 51t58 21q38 0 58.5 -19.5t20.5 -52.5q0 -31 -21 -51.5t-58 -20.5z" />
    <glyph glyph-name="uni1E64" unicode="&#x1e64;" horiz-adv-x="752" 
d="M383 -10q-69 0 -126.5 15.5t-103 45.5t-83.5 73l80 100q58 -67 115 -94t125 -27q39 0 73 10t55 30.5t21 49.5q0 19 -10 33.5t-27.5 25t-41 18.5t-49.5 13.5t-54 9.5q-60 10 -107 27t-79 43.5t-48.5 61.5t-16.5 81t21.5 84t60 65t89 42t108.5 15q65 0 116.5 -14t90.5 -41
t66 -64l-82 -88q-24 31 -54 51.5t-65.5 31t-73.5 10.5q-42 0 -73.5 -10t-50 -29t-18.5 -46q0 -21 11.5 -37t33 -28t52 -20t67.5 -14q57 -10 106 -25t85.5 -38t56.5 -56.5t20 -80.5q0 -69 -36.5 -119.5t-101.5 -77.5t-152 -27zM468 751l-58 39l93 150l85 -63zM304 757
q-36 0 -56 18.5t-20 50.5q0 31 20.5 50.5t55.5 19.5q36 0 55.5 -18.5t19.5 -51.5q0 -30 -20 -49.5t-55 -19.5z" />
    <glyph glyph-name="uni1E65" unicode="&#x1e65;" horiz-adv-x="616" 
d="M319 -10q-80 0 -144.5 23.5t-107.5 71.5l80 71q34 -35 79 -52.5t97 -17.5q19 0 38 3.5t34.5 10.5t24 18.5t8.5 26.5q0 26 -30 40q-18 6 -44 13.5t-60 14.5q-58 12 -100.5 28t-68.5 39q-21 19 -32 44.5t-11 57.5q0 35 17.5 64t49 49.5t73 31.5t88.5 11q43 0 87 -9.5
t82.5 -27.5t65.5 -46l-66 -77q-22 18 -51 32.5t-60 23.5t-58 9q-20 0 -40 -3.5t-34.5 -10t-23 -17t-8.5 -25.5q-1 -11 5.5 -20.5t16.5 -17.5q16 -10 44.5 -18t69.5 -17q55 -11 96.5 -26.5t68.5 -36.5q21 -17 32 -40.5t11 -53.5q0 -50 -30.5 -87.5t-81.5 -58.5t-117 -21z
M386 624l-58 39l93 149l85 -62zM222 630q-36 0 -56 18t-20 51q0 31 20.5 50t55.5 19q36 0 55.5 -18t19.5 -51q0 -30 -20 -49.5t-55 -19.5z" />
    <glyph glyph-name="uni1E66" unicode="&#x1e66;" horiz-adv-x="752" 
d="M383 -10q-69 0 -126.5 15.5t-103 45.5t-83.5 73l80 100q58 -67 115 -94t125 -27q39 0 73 10t55 30.5t21 49.5q0 19 -10 33.5t-27.5 25t-41 18.5t-49.5 13.5t-54 9.5q-60 10 -107 27t-79 43.5t-48.5 61.5t-16.5 81t21.5 84t60 65t89 42t108.5 15q65 0 116.5 -14t90.5 -41
t66 -64l-82 -88q-24 31 -54 51.5t-65.5 31t-73.5 10.5q-42 0 -73.5 -10t-50 -29t-18.5 -46q0 -21 11.5 -37t33 -28t52 -20t67.5 -14q57 -10 106 -25t85.5 -38t56.5 -56.5t20 -80.5q0 -69 -36.5 -119.5t-101.5 -77.5t-152 -27zM347 756l-125 105l42 41l143 -66h-30l143 66
l42 -41l-125 -105h-90zM392 922q-39 0 -58.5 19.5t-19.5 51.5q0 29 19.5 50.5t58.5 21.5t58.5 -19.5t19.5 -52.5q0 -28 -19.5 -49.5t-58.5 -21.5z" />
    <glyph glyph-name="uni1E67" unicode="&#x1e67;" horiz-adv-x="616" 
d="M319 -10q-80 0 -144.5 23.5t-107.5 71.5l80 71q34 -35 79 -52.5t97 -17.5q19 0 38 3.5t34.5 10.5t24 18.5t8.5 26.5q0 26 -30 40q-18 6 -44 13.5t-60 14.5q-58 12 -100.5 28t-68.5 39q-21 19 -32 44.5t-11 57.5q0 35 17.5 64t49 49.5t73 31.5t88.5 11q43 0 87 -9.5
t82.5 -27.5t65.5 -46l-66 -77q-22 18 -51 32.5t-60 23.5t-58 9q-20 0 -40 -3.5t-34.5 -10t-23 -17t-8.5 -25.5q-1 -11 5.5 -20.5t16.5 -17.5q16 -10 44.5 -18t69.5 -17q55 -11 96.5 -26.5t68.5 -36.5q21 -17 32 -40.5t11 -53.5q0 -50 -30.5 -87.5t-81.5 -58.5t-117 -21z
M265 602l-117 119l45 39l132 -78h-30l132 78l45 -39l-117 -119h-90zM310 776q-37 0 -57.5 19t-20.5 53q0 31 21 51t57 20q37 0 57.5 -18.5t20.5 -52.5q0 -32 -21 -52t-57 -20z" />
    <glyph glyph-name="uni1E68" unicode="&#x1e68;" horiz-adv-x="752" 
d="M383 -10q-69 0 -126.5 15.5t-103 45.5t-83.5 73l80 100q58 -67 115 -94t125 -27q39 0 73 10t55 30.5t21 49.5q0 19 -10 33.5t-27.5 25t-41 18.5t-49.5 13.5t-54 9.5q-60 10 -107 27t-79 43.5t-48.5 61.5t-16.5 81t21.5 84t60 65t89 42t108.5 15q65 0 116.5 -14t90.5 -41
t66 -64l-82 -88q-24 31 -54 51.5t-65.5 31t-73.5 10.5q-42 0 -73.5 -10t-50 -29t-18.5 -46q0 -21 11.5 -37t33 -28t52 -20t67.5 -14q57 -10 106 -25t85.5 -38t56.5 -56.5t20 -80.5q0 -69 -36.5 -119.5t-101.5 -77.5t-152 -27zM405 -212q-38 0 -58.5 19t-20.5 53q0 30 21 51
t58 21q38 0 58.5 -19.5t20.5 -52.5q0 -31 -21 -51.5t-58 -20.5zM392 758q-39 0 -58.5 19.5t-19.5 51.5q0 29 19.5 50.5t58.5 21.5t58.5 -19.5t19.5 -52.5q0 -28 -19.5 -49.5t-58.5 -21.5z" />
    <glyph glyph-name="uni1E69" unicode="&#x1e69;" horiz-adv-x="616" 
d="M319 -10q-80 0 -144.5 23.5t-107.5 71.5l80 71q34 -35 79 -52.5t97 -17.5q19 0 38 3.5t34.5 10.5t24 18.5t8.5 26.5q0 26 -30 40q-18 6 -44 13.5t-60 14.5q-58 12 -100.5 28t-68.5 39q-21 19 -32 44.5t-11 57.5q0 35 17.5 64t49 49.5t73 31.5t88.5 11q43 0 87 -9.5
t82.5 -27.5t65.5 -46l-66 -77q-22 18 -51 32.5t-60 23.5t-58 9q-20 0 -40 -3.5t-34.5 -10t-23 -17t-8.5 -25.5q-1 -11 5.5 -20.5t16.5 -17.5q16 -10 44.5 -18t69.5 -17q55 -11 96.5 -26.5t68.5 -36.5q21 -17 32 -40.5t11 -53.5q0 -50 -30.5 -87.5t-81.5 -58.5t-117 -21z
M321 -212q-38 0 -58.5 19t-20.5 53q0 30 21 51t58 21q38 0 58.5 -19.5t20.5 -52.5q0 -31 -21 -51.5t-58 -20.5zM310 642q-37 0 -57.5 19t-20.5 53q0 31 21 51t57 20q37 0 57.5 -18.5t20.5 -52.5q0 -32 -21 -52t-57 -20z" />
    <glyph glyph-name="uni1E6C" unicode="&#x1e6c;" horiz-adv-x="712" 
d="M288 0v580h-228v120h592v-120h-234v-580h-130zM356 -212q-38 0 -58.5 19t-20.5 53q0 30 21 51t58 21q38 0 58.5 -19.5t20.5 -52.5q0 -31 -21 -51.5t-58 -20.5z" />
    <glyph glyph-name="uni1E6D" unicode="&#x1e6d;" horiz-adv-x="535" 
d="M192 0v673h123v-673h-123zM64 413v114h398v-114h-398zM262 -212q-38 0 -58.5 19t-20.5 53q0 30 21 51t58 21q38 0 58.5 -19.5t20.5 -52.5q0 -31 -21 -51.5t-58 -20.5z" />
    <glyph glyph-name="uni1E6E" unicode="&#x1e6e;" horiz-adv-x="712" 
d="M288 0v580h-228v120h592v-120h-234v-580h-130zM211 -185v89h289v-89h-289z" />
    <glyph glyph-name="uni1E6F" unicode="&#x1e6f;" horiz-adv-x="535" 
d="M192 0v673h123v-673h-123zM64 413v114h398v-114h-398zM117 -185v89h289v-89h-289z" />
    <glyph glyph-name="uni1E78" unicode="&#x1e78;" horiz-adv-x="871" 
d="M435 -6q-93 0 -164 39t-111.5 107.5t-40.5 154.5v406h131v-399q0 -54 25 -96t67 -67t93 -25q55 0 98 25t68 67t25 96v399h126v-406q0 -86 -40.5 -154.5t-111.5 -107.5t-165 -39zM510 768q-22 0 -44.5 7t-44.5 16q-17 7 -29 11t-22 4q-14 0 -22 -9.5t-8 -28.5h-85
q0 58 35 90.5t83 32.5q20 0 39.5 -6t40.5 -16q15 -6 27.5 -10t21.5 -4q14 0 21.5 10t6.5 26h84q0 -32 -12.5 -60.5t-36 -45.5t-55.5 -17zM357 916l-31 63l192 113l50 -99z" />
    <glyph glyph-name="uni1E79" unicode="&#x1e79;" horiz-adv-x="768" 
d="M326 -10q-62 0 -108 28t-71.5 81t-25.5 127v301h123v-271q0 -51 14.5 -85.5t44 -52.5t72.5 -18q31 0 57.5 10t46.5 28.5t31.5 44t11.5 56.5v288h123v-527h-120l-2 110l22 12q-12 -35 -43 -65t-75.5 -48.5t-100.5 -18.5zM443 615q-19 0 -34 7t-33 21q-18 16 -28 22t-18 6
q-13 0 -23.5 -13.5t-14.5 -41.5l-75 11q1 52 31 89t81 37q19 0 33.5 -7t32.5 -20q18 -14 27.5 -21t18.5 -7q14 0 24 13.5t13 40.5l76 -11q-1 -33 -15 -62.5t-38.5 -46.5t-57.5 -17zM397 773l-58 39l93 150l85 -63z" />
    <glyph glyph-name="uni1E7A" unicode="&#x1e7a;" horiz-adv-x="871" 
d="M435 -6q-93 0 -164 39t-111.5 107.5t-40.5 154.5v406h131v-399q0 -54 25 -96t67 -67t93 -25q55 0 98 25t68 67t25 96v399h126v-406q0 -86 -40.5 -154.5t-111.5 -107.5t-165 -39zM264 788v84h341v-84h-341zM545 921q-38 0 -57 19.5t-19 52.5q0 29 19 50.5t57 21.5
q37 0 56 -19.5t19 -52.5q0 -29 -19 -50.5t-56 -21.5zM325 921q-37 0 -56 19.5t-19 52.5q0 29 19 50.5t56 21.5q38 0 57 -19.5t19 -52.5q0 -29 -19 -50.5t-57 -21.5z" />
    <glyph glyph-name="uni1E7B" unicode="&#x1e7b;" horiz-adv-x="768" 
d="M326 -10q-62 0 -108 28t-71.5 81t-25.5 127v301h123v-271q0 -51 14.5 -85.5t44 -52.5t72.5 -18q31 0 57.5 10t46.5 28.5t31.5 44t11.5 56.5v288h123v-527h-120l-2 110l22 12q-12 -35 -43 -65t-75.5 -48.5t-100.5 -18.5zM231 641v84h308v-84h-308zM492 792q-36 0 -55.5 19
t-19.5 54q0 32 20 52t55 20q36 0 56 -19t20 -53q0 -32 -20.5 -52.5t-55.5 -20.5zM278 792q-36 0 -55.5 19t-19.5 54q0 32 20 52t55 20q36 0 55.5 -19t19.5 -53q0 -32 -20 -52.5t-55 -20.5z" />
    <glyph glyph-name="Wgrave" unicode="&#x1e80;" horiz-adv-x="1107" 
d="M276 0l-232 700h138l129 -402q7 -21 13 -44.5t11.5 -48t10 -46t8.5 -37.5l-33 1q11 40 20 70t17.5 56t17.5 49l120 292h113l117 -291q11 -29 21.5 -58.5t18.5 -57t12 -53.5l-29 -5q4 21 7 37.5t6.5 32.5t7.5 32t10 34t12 40l136 399h135l-245 -700h-94l-185 439l16 -4
l-180 -435h-99zM640 752l-211 77l52 99l192 -113z" />
    <glyph glyph-name="wgrave" unicode="&#x1e81;" horiz-adv-x="912" 
d="M231 0l-185 527l130 1l120 -383l-22 2l137 302h84l141 -303l-22 -2l128 383h127l-191 -527h-89l-156 346l40 3l-154 -349h-88zM514 600l-185 100l68 90l156 -131z" />
    <glyph glyph-name="Wacute" unicode="&#x1e82;" horiz-adv-x="1107" 
d="M276 0l-232 700h138l129 -402q7 -21 13 -44.5t11.5 -48t10 -46t8.5 -37.5l-33 1q11 40 20 70t17.5 56t17.5 49l120 292h113l117 -291q11 -29 21.5 -58.5t18.5 -57t12 -53.5l-29 -5q4 21 7 37.5t6.5 32.5t7.5 32t10 34t12 40l136 399h135l-245 -700h-94l-185 439l16 -4
l-180 -435h-99zM475 752l-31 63l192 113l50 -99z" />
    <glyph glyph-name="wacute" unicode="&#x1e83;" horiz-adv-x="912" 
d="M231 0l-185 527l130 1l120 -383l-22 2l137 302h84l141 -303l-22 -2l128 383h127l-191 -527h-89l-156 346l40 3l-154 -349h-88zM388 600l-39 59l156 130l68 -89z" />
    <glyph glyph-name="Wdieresis" unicode="&#x1e84;" horiz-adv-x="1107" 
d="M276 0l-232 700h138l129 -402q7 -21 13 -44.5t11.5 -48t10 -46t8.5 -37.5l-33 1q11 40 20 70t17.5 56t17.5 49l120 292h113l117 -291q11 -29 21.5 -58.5t18.5 -57t12 -53.5l-29 -5q4 21 7 37.5t6.5 32.5t7.5 32t10 34t12 40l136 399h135l-245 -700h-94l-185 439l16 -4
l-180 -435h-99zM663 757q-38 0 -57 19.5t-19 52.5q0 29 19 50.5t57 21.5q37 0 56 -19.5t19 -52.5q0 -29 -19 -50.5t-56 -21.5zM443 757q-37 0 -56 19.5t-19 52.5q0 29 19 50.5t56 21.5q38 0 57 -19.5t19 -52.5q0 -29 -19 -50.5t-57 -21.5z" />
    <glyph glyph-name="wdieresis" unicode="&#x1e85;" horiz-adv-x="912" 
d="M231 0l-185 527l130 1l120 -383l-22 2l137 302h84l141 -303l-22 -2l128 383h127l-191 -527h-89l-156 346l40 3l-154 -349h-88zM564 641q-36 0 -55.5 19t-19.5 54q0 32 20 52t55 20q36 0 56 -19t20 -53q0 -32 -20.5 -52.5t-55.5 -20.5zM350 641q-36 0 -55.5 19t-19.5 54
q0 32 20 52t55 20q36 0 55.5 -19t19.5 -53q0 -32 -20 -52.5t-55 -20.5z" />
    <glyph glyph-name="uni1E8E" unicode="&#x1e8e;" horiz-adv-x="790" 
d="M340 0v335l12 -61l-320 426h160l239 -327l-46 2l223 325h150l-299 -421l11 64v-343h-130zM395 758q-39 0 -58.5 19.5t-19.5 51.5q0 29 19.5 50.5t58.5 21.5t58.5 -19.5t19.5 -52.5q0 -28 -19.5 -49.5t-58.5 -21.5z" />
    <glyph glyph-name="uni1E8F" unicode="&#x1e8f;" horiz-adv-x="740" 
d="M208 -230l127 259l-1 -81l-288 579h143l149 -321q17 -32 30 -63t20 -59l-25 -6q11 26 24.5 58.5t28.5 69.5l135 321h143l-253 -529l-105 -228h-128zM369 642q-37 0 -57.5 19t-20.5 53q0 31 21 51t57 20q37 0 57.5 -18.5t20.5 -52.5q0 -32 -21 -52t-57 -20z" />
    <glyph glyph-name="uni1E92" unicode="&#x1e92;" horiz-adv-x="758" 
d="M76 0v91l437 522l41 -36h-452v123h571v-90l-436 -523l-41 34h488v-121h-608zM378 -212q-38 0 -58.5 19t-20.5 53q0 30 21 51t58 21q38 0 58.5 -19.5t20.5 -52.5q0 -31 -21 -51.5t-58 -20.5z" />
    <glyph glyph-name="uni1E93" unicode="&#x1e93;" horiz-adv-x="605" 
d="M70 0v88l328 362l7 -25h-335v102h459v-88l-321 -355l-10 18h338v-102h-466zM302 -212q-38 0 -58.5 19t-20.5 53q0 30 21 51t58 21q38 0 58.5 -19.5t20.5 -52.5q0 -31 -21 -51.5t-58 -20.5z" />
    <glyph glyph-name="uni1E97" unicode="&#x1e97;" horiz-adv-x="535" 
d="M192 0v673h123v-673h-123zM64 413v114h398v-114h-398zM362 726q-36 0 -55.5 19t-19.5 54q0 32 20 52t55 20q36 0 56 -19t20 -53q0 -32 -20.5 -52.5t-55.5 -20.5zM148 726q-36 0 -55.5 19t-19.5 54q0 32 20 52t55 20q36 0 55.5 -19t19.5 -53q0 -32 -20 -52.5t-55 -20.5z
" />
    <glyph glyph-name="uni1E9E" unicode="&#x1e9e;" horiz-adv-x="911" 
d="M595 -10q-46 0 -88 11t-77 31t-62 46l75 90q30 -28 68 -47.5t80 -19.5q48 0 78.5 20t30.5 57q0 23 -15 39.5t-45.5 32.5t-78.5 38q-47 21 -79 44.5t-48.5 54t-16.5 71.5q0 40 18 73t51 56t74.5 35.5t87.5 12.5l32 -39q-29 10 -77.5 18t-97.5 8q-52 1 -96.5 -19
t-77.5 -58.5t-52 -97t-19 -136.5l-2 -310h-130l1 312q1 131 46 223t128 141t196 49q68 0 129.5 -10.5t122.5 -31.5l6 -91q-65 -8 -112.5 -22.5t-73.5 -36.5t-26 -53q0 -21 14 -39t40 -32.5t63 -30.5q52 -21 90 -44t59 -57.5t21 -90.5q0 -54 -31.5 -98.5t-84.5 -71.5
t-121 -27z" />
    <glyph glyph-name="uni1EA0" unicode="&#x1ea0;" horiz-adv-x="815" 
d="M43 0l301 700h129l299 -700h-137l-180 422q-6 16 -14.5 39t-18 48.5t-18 49t-13.5 39.5l29 1q-6 -21 -14.5 -44.5t-17.5 -47t-18 -46t-16 -42.5l-180 -419h-131zM178 156l47 113h357l37 -113h-441zM407 -212q-38 0 -58.5 19t-20.5 53q0 30 21 51t58 21q38 0 58.5 -19.5
t20.5 -52.5q0 -31 -21 -51.5t-58 -20.5z" />
    <glyph glyph-name="uni1EA1" unicode="&#x1ea1;" horiz-adv-x="782" 
d="M334 -10q-77 0 -136.5 35.5t-94 97.5t-34.5 142q0 79 35 141t96.5 97t140.5 35q47 0 86.5 -12t69 -33.5t47.5 -47t22 -53.5l-29 3v132h123v-527h-124v134l27 -1q-5 -25 -24.5 -50.5t-51 -46t-70.5 -33.5t-83 -13zM367 99q51 0 90.5 21t61.5 58.5t22 86.5q0 47 -22 84
t-61.5 58.5t-90.5 21.5q-52 0 -91 -21.5t-60.5 -58.5t-21.5 -84q0 -49 21.5 -86.5t60.5 -58.5t91 -21zM383 -212q-38 0 -58.5 19t-20.5 53q0 30 21 51t58 21q38 0 58.5 -19.5t20.5 -52.5q0 -31 -21 -51.5t-58 -20.5z" />
    <glyph glyph-name="uni1EA2" unicode="&#x1ea2;" horiz-adv-x="815" 
d="M43 0l301 700h129l299 -700h-137l-180 422q-6 16 -14.5 39t-18 48.5t-18 49t-13.5 39.5l29 1q-6 -21 -14.5 -44.5t-17.5 -47t-18 -46t-16 -42.5l-180 -419h-131zM178 156l47 113h357l37 -113h-441zM383 754q-7 10 -11.5 19.5t-4.5 19.5q0 11 5.5 22t22.5 23
q16 10 23 16.5t7 14.5q0 9 -8.5 13t-21.5 4q-18 0 -37.5 -5.5t-38.5 -13.5l-19 70q21 12 48 19t53 7q54 0 83 -23t29 -59q0 -27 -12.5 -42.5t-26.5 -23.5q-18 -9 -27.5 -16.5t-9.5 -17.5q0 -4 1 -7l2 -6z" />
    <glyph glyph-name="uni1EA3" unicode="&#x1ea3;" horiz-adv-x="782" 
d="M334 -10q-77 0 -136.5 35.5t-94 97.5t-34.5 142q0 79 35 141t96.5 97t140.5 35q47 0 86.5 -12t69 -33.5t47.5 -47t22 -53.5l-29 3v132h123v-527h-124v134l27 -1q-5 -25 -24.5 -50.5t-51 -46t-70.5 -33.5t-83 -13zM367 99q51 0 90.5 21t61.5 58.5t22 86.5q0 47 -22 84
t-61.5 58.5t-90.5 21.5q-52 0 -91 -21.5t-60.5 -58.5t-21.5 -84q0 -49 21.5 -86.5t60.5 -58.5t91 -21zM359 592q-7 10 -11.5 20t-4.5 20t5.5 21.5t22.5 22.5q16 11 23 17t7 14q0 9 -8.5 13.5t-21.5 4.5q-18 0 -37.5 -5.5t-38.5 -14.5l-19 71q21 12 48 19t53 7q54 0 83 -23
t29 -59q0 -28 -12.5 -43t-26.5 -24q-18 -9 -27.5 -16.5t-9.5 -17.5q0 -3 1 -6.5t2 -6.5z" />
    <glyph glyph-name="uni1EA4" unicode="&#x1ea4;" horiz-adv-x="815" 
d="M43 0l301 700h129l299 -700h-137l-180 422q-6 16 -14.5 39t-18 48.5t-18 49t-13.5 39.5l29 1q-6 -21 -14.5 -44.5t-17.5 -47t-18 -46t-16 -42.5l-180 -419h-131zM178 156l47 113h357l37 -113h-441zM280 753l-38 43l126 99h78l126 -99l-38 -43l-142 64h30zM575 869l-56 40
l87 152l92 -65z" />
    <glyph glyph-name="uni1EA5" unicode="&#x1ea5;" horiz-adv-x="782" 
d="M334 -10q-77 0 -136.5 35.5t-94 97.5t-34.5 142q0 79 35 141t96.5 97t140.5 35q47 0 86.5 -12t69 -33.5t47.5 -47t22 -53.5l-29 3v132h123v-527h-124v134l27 -1q-5 -25 -24.5 -50.5t-51 -46t-70.5 -33.5t-83 -13zM367 99q51 0 90.5 21t61.5 58.5t22 86.5q0 47 -22 84
t-61.5 58.5t-90.5 21.5q-52 0 -91 -21.5t-60.5 -58.5t-21.5 -84q0 -49 21.5 -86.5t60.5 -58.5t91 -21zM258 605l-41 40l121 111h89l121 -111l-41 -40l-139 71h30zM559 748l-56 39l86 153l92 -66z" />
    <glyph glyph-name="uni1EA6" unicode="&#x1ea6;" horiz-adv-x="815" 
d="M43 0l301 700h129l299 -700h-137l-180 422q-6 16 -14.5 39t-18 48.5t-18 49t-13.5 39.5l29 1q-6 -21 -14.5 -44.5t-17.5 -47t-18 -46t-16 -42.5l-180 -419h-131zM178 156l47 113h357l37 -113h-441zM279 753l-37 43l125 99h79l125 -99l-37 -43l-142 64h29zM573 870
l-125 127l91 66l87 -152z" />
    <glyph glyph-name="uni1EA7" unicode="&#x1ea7;" horiz-adv-x="782" 
d="M334 -10q-77 0 -136.5 35.5t-94 97.5t-34.5 142q0 79 35 141t96.5 97t140.5 35q47 0 86.5 -12t69 -33.5t47.5 -47t22 -53.5l-29 3v132h123v-527h-124v134l27 -1q-5 -25 -24.5 -50.5t-51 -46t-70.5 -33.5t-83 -13zM367 99q51 0 90.5 21t61.5 58.5t22 86.5q0 47 -22 84
t-61.5 58.5t-90.5 21.5q-52 0 -91 -21.5t-60.5 -58.5t-21.5 -84q0 -49 21.5 -86.5t60.5 -58.5t91 -21zM258 605l-41 40l121 111h89l121 -111l-41 -40l-140 71h30zM541 746l-125 127l91 67l87 -153z" />
    <glyph glyph-name="uni1EA8" unicode="&#x1ea8;" horiz-adv-x="815" 
d="M43 0l301 700h129l299 -700h-137l-180 422q-6 16 -14.5 39t-18 48.5t-18 49t-13.5 39.5l29 1q-6 -21 -14.5 -44.5t-17.5 -47t-18 -46t-16 -42.5l-180 -419h-131zM178 156l47 113h357l37 -113h-441zM279 753l-37 43l125 99h79l125 -99l-37 -43l-142 64h29zM547 868
q-7 8 -11.5 17.5t-4.5 18.5q0 10 4.5 19t22.5 20q13 9 21 15.5t8 11.5q0 9 -9 13.5t-22 4.5q-17 0 -37 -5.5t-38 -13.5l-19 71q21 12 47.5 18.5t51.5 6.5q55 0 84.5 -23.5t29.5 -58.5q0 -24 -13.5 -37.5t-27.5 -22.5q-18 -10 -26.5 -17.5t-8.5 -14.5q0 -3 0.5 -5t1.5 -5z
" />
    <glyph glyph-name="uni1EA9" unicode="&#x1ea9;" horiz-adv-x="782" 
d="M334 -10q-77 0 -136.5 35.5t-94 97.5t-34.5 142q0 79 35 141t96.5 97t140.5 35q47 0 86.5 -12t69 -33.5t47.5 -47t22 -53.5l-29 3v132h123v-527h-124v134l27 -1q-5 -25 -24.5 -50.5t-51 -46t-70.5 -33.5t-83 -13zM367 99q51 0 90.5 21t61.5 58.5t22 86.5q0 47 -22 84
t-61.5 58.5t-90.5 21.5q-52 0 -91 -21.5t-60.5 -58.5t-21.5 -84q0 -49 21.5 -86.5t60.5 -58.5t91 -21zM259 605l-42 40l122 111h89l121 -111l-41 -40l-140 71h30zM531 737q-7 10 -11.5 19.5t-4.5 19.5q0 9 5.5 19.5t21.5 21.5q15 10 22 16.5t7 13.5q0 9 -9 13.5t-22 4.5
q-17 0 -37 -4t-38 -15l-19 71q21 12 47.5 18.5t51.5 6.5q55 0 84.5 -23.5t29.5 -58.5q0 -28 -12.5 -43t-28.5 -23q-17 -8 -26 -15t-9 -17q0 -4 0.5 -6.5t1.5 -5.5z" />
    <glyph glyph-name="uni1EAA" unicode="&#x1eaa;" horiz-adv-x="815" 
d="M43 0l301 700h129l299 -700h-137l-180 422q-6 16 -14.5 39t-18 48.5t-18 49t-13.5 39.5l29 1q-6 -21 -14.5 -44.5t-17.5 -47t-18 -46t-16 -42.5l-180 -419h-131zM178 156l47 113h357l37 -113h-441zM279 753l-37 43l125 99h79l125 -99l-37 -43l-142 64h29zM485 943
q-23 0 -43.5 6.5t-38.5 13.5q-18 8 -30 13t-22 5q-15 0 -24.5 -10t-13.5 -27l-76 8q1 47 31 79.5t73 32.5q21 0 38.5 -6.5t36.5 -15.5q14 -6 27.5 -11t23.5 -5q15 0 22 9.5t11 28.5l76 -8q-1 -31 -12 -57t-30.5 -41t-48.5 -15z" />
    <glyph glyph-name="uni1EAB" unicode="&#x1eab;" horiz-adv-x="782" 
d="M334 -10q-77 0 -136.5 35.5t-94 97.5t-34.5 142q0 79 35 141t96.5 97t140.5 35q47 0 86.5 -12t69 -33.5t47.5 -47t22 -53.5l-29 3v132h123v-527h-124v134l27 -1q-5 -25 -24.5 -50.5t-51 -46t-70.5 -33.5t-83 -13zM367 99q51 0 90.5 21t61.5 58.5t22 86.5q0 47 -22 84
t-61.5 58.5t-90.5 21.5q-52 0 -91 -21.5t-60.5 -58.5t-21.5 -84q0 -49 21.5 -86.5t60.5 -58.5t91 -21zM258 605l-42 40l122 111h89l121 -111l-41 -40l-140 71h30zM459 814q-26 0 -45.5 8t-39.5 16q-13 6 -24 10.5t-23 4.5q-13 0 -23.5 -10t-14.5 -27l-75 11q1 45 30 78
t70 33q21 0 39.5 -8t37.5 -17q14 -6 25.5 -10.5t21.5 -4.5q14 0 24 9.5t13 28.5l76 -11q-1 -29 -12.5 -54.5t-31.5 -41t-48 -15.5z" />
    <glyph glyph-name="uni1EAC" unicode="&#x1eac;" horiz-adv-x="815" 
d="M43 0l301 700h129l299 -700h-137l-180 422q-6 16 -14.5 39t-18 48.5t-18 49t-13.5 39.5l29 1q-6 -21 -14.5 -44.5t-17.5 -47t-18 -46t-16 -42.5l-180 -419h-131zM178 156l47 113h357l37 -113h-441zM407 -212q-38 0 -58.5 19t-20.5 53q0 30 21 51t58 21q38 0 58.5 -19.5
t20.5 -52.5q0 -31 -21 -51.5t-58 -20.5zM280 755l-41 42l128 103h79l128 -103l-41 -42l-141 67h29z" />
    <glyph glyph-name="uni1EAD" unicode="&#x1ead;" horiz-adv-x="782" 
d="M334 -10q-77 0 -136.5 35.5t-94 97.5t-34.5 142q0 79 35 141t96.5 97t140.5 35q47 0 86.5 -12t69 -33.5t47.5 -47t22 -53.5l-29 3v132h123v-527h-124v134l27 -1q-5 -25 -24.5 -50.5t-51 -46t-70.5 -33.5t-83 -13zM367 99q51 0 90.5 21t61.5 58.5t22 86.5q0 47 -22 84
t-61.5 58.5t-90.5 21.5q-52 0 -91 -21.5t-60.5 -58.5t-21.5 -84q0 -49 21.5 -86.5t60.5 -58.5t91 -21zM383 -212q-38 0 -58.5 19t-20.5 53q0 30 21 51t58 21q38 0 58.5 -19.5t20.5 -52.5q0 -31 -21 -51.5t-58 -20.5zM258 605l-45 39l125 119h90l125 -119l-45 -39l-140 77h30
z" />
    <glyph glyph-name="uni1EAE" unicode="&#x1eae;" horiz-adv-x="815" 
d="M43 0l301 700h129l299 -700h-137l-180 422q-6 16 -14.5 39t-18 48.5t-18 49t-13.5 39.5l29 1q-6 -21 -14.5 -44.5t-17.5 -47t-18 -46t-16 -42.5l-180 -419h-131zM178 156l47 113h357l37 -113h-441zM407 749q-64 0 -109.5 36.5t-58.5 100.5l79 12q14 -35 37 -50t52 -15
t52 15t37 50l79 -12q-13 -64 -58.5 -100.5t-109.5 -36.5zM414 886l-53 41l87 152l91 -66z" />
    <glyph glyph-name="uni1EAF" unicode="&#x1eaf;" horiz-adv-x="782" 
d="M334 -10q-77 0 -136.5 35.5t-94 97.5t-34.5 142q0 79 35 141t96.5 97t140.5 35q47 0 86.5 -12t69 -33.5t47.5 -47t22 -53.5l-29 3v132h123v-527h-124v134l27 -1q-5 -25 -24.5 -50.5t-51 -46t-70.5 -33.5t-83 -13zM367 99q51 0 90.5 21t61.5 58.5t22 86.5q0 47 -22 84
t-61.5 58.5t-90.5 21.5q-52 0 -91 -21.5t-60.5 -58.5t-21.5 -84q0 -49 21.5 -86.5t60.5 -58.5t91 -21zM383 591q-66 0 -110 36.5t-58 100.5l83 12q12 -31 34.5 -46.5t50.5 -15.5t50.5 15.5t34.5 46.5l83 -12q-14 -64 -58 -100.5t-110 -36.5zM391 760l-56 39l86 153l92 -66z
" />
    <glyph glyph-name="uni1EB0" unicode="&#x1eb0;" horiz-adv-x="815" 
d="M43 0l301 700h129l299 -700h-137l-180 422q-6 16 -14.5 39t-18 48.5t-18 49t-13.5 39.5l29 1q-6 -21 -14.5 -44.5t-17.5 -47t-18 -46t-16 -42.5l-180 -419h-131zM178 156l47 113h357l37 -113h-441zM407 749q-64 0 -109.5 36.5t-58.5 100.5l79 12q15 -35 37 -50t52 -15
q29 0 52 15t37 50l79 -12q-13 -64 -58.5 -100.5t-109.5 -36.5zM406 886l-126 127l91 66l87 -152z" />
    <glyph glyph-name="uni1EB1" unicode="&#x1eb1;" horiz-adv-x="782" 
d="M334 -10q-77 0 -136.5 35.5t-94 97.5t-34.5 142q0 79 35 141t96.5 97t140.5 35q47 0 86.5 -12t69 -33.5t47.5 -47t22 -53.5l-29 3v132h123v-527h-124v134l27 -1q-5 -25 -24.5 -50.5t-51 -46t-70.5 -33.5t-83 -13zM367 99q51 0 90.5 21t61.5 58.5t22 86.5q0 47 -22 84
t-61.5 58.5t-90.5 21.5q-52 0 -91 -21.5t-60.5 -58.5t-21.5 -84q0 -49 21.5 -86.5t60.5 -58.5t91 -21zM383 591q-66 0 -110 38.5t-58 106.5l83 12q12 -34 34.5 -52t50.5 -18t50.5 18t34.5 52l83 -12q-14 -68 -58 -106.5t-110 -38.5zM385 759l-125 127l90 66l88 -153z" />
    <glyph glyph-name="uni1EB2" unicode="&#x1eb2;" horiz-adv-x="815" 
d="M43 0l301 700h129l299 -700h-137l-180 422q-6 16 -14.5 39t-18 48.5t-18 49t-13.5 39.5l29 1q-6 -21 -14.5 -44.5t-17.5 -47t-18 -46t-16 -42.5l-180 -419h-131zM178 156l47 113h357l37 -113h-441zM407 749q-64 0 -109.5 36.5t-58.5 100.5l79 12q13 -35 36.5 -50
t52.5 -15t52.5 15t36.5 50l79 -12q-13 -64 -58.5 -100.5t-109.5 -36.5zM385 885q-7 8 -11.5 17.5t-4.5 19.5q0 9 4.5 18t21.5 21q14 9 21.5 15.5t7.5 10.5q0 10 -8.5 14t-22.5 4q-17 0 -37 -5t-38 -13l-18 70q21 12 47.5 18.5t51.5 6.5q54 0 83.5 -23t29.5 -59
q0 -24 -13.5 -37.5t-26.5 -22.5q-18 -10 -27 -17t-9 -14q0 -3 1 -5.5t2 -4.5z" />
    <glyph glyph-name="uni1EB3" unicode="&#x1eb3;" horiz-adv-x="782" 
d="M334 -10q-77 0 -136.5 35.5t-94 97.5t-34.5 142q0 79 35 141t96.5 97t140.5 35q47 0 86.5 -12t69 -33.5t47.5 -47t22 -53.5l-29 3v132h123v-527h-124v134l27 -1q-5 -25 -24.5 -50.5t-51 -46t-70.5 -33.5t-83 -13zM367 99q51 0 90.5 21t61.5 58.5t22 86.5q0 47 -22 84
t-61.5 58.5t-90.5 21.5q-52 0 -91 -21.5t-60.5 -58.5t-21.5 -84q0 -49 21.5 -86.5t60.5 -58.5t91 -21zM383 591q-66 0 -110 38.5t-58 106.5l83 12q12 -34 34.5 -52t50.5 -18t50.5 18t34.5 52l83 -12q-14 -68 -58 -106.5t-110 -38.5zM359 760q-8 10 -12 19.5t-4 19.5
q0 9 5.5 20t20.5 21q16 10 22.5 16.5t7.5 13.5q0 9 -9 13.5t-22 4.5q-18 0 -37.5 -5.5t-38.5 -13.5l-18 71q20 13 47 19t52 6q55 0 84.5 -23t29.5 -59q0 -27 -13 -42t-28 -23q-17 -9 -26.5 -16t-9.5 -17q0 -3 1 -6l2 -6z" />
    <glyph glyph-name="uni1EB4" unicode="&#x1eb4;" horiz-adv-x="815" 
d="M43 0l301 700h129l299 -700h-137l-180 422q-6 16 -14.5 39t-18 48.5t-18 49t-13.5 39.5l29 1q-6 -21 -14.5 -44.5t-17.5 -47t-18 -46t-16 -42.5l-180 -419h-131zM178 156l47 113h357l37 -113h-441zM407 749q-64 0 -109.5 34t-58.5 95l79 12q14 -31 37 -44t52 -13t52 13
t37 44l79 -12q-13 -61 -58.5 -95t-109.5 -34zM485 942q-22 0 -42 6.5t-39 14.5q-18 9 -30 13.5t-22 4.5q-15 0 -24.5 -10t-13.5 -27l-76 8q1 47 31 79.5t73 32.5q21 0 39 -6.5t37 -15.5q14 -6 27 -11.5t23 -5.5q15 0 22 10t11 29l76 -8q-1 -31 -12 -57t-31 -41.5t-49 -15.5z
" />
    <glyph glyph-name="uni1EB5" unicode="&#x1eb5;" horiz-adv-x="782" 
d="M334 -10q-77 0 -136.5 35.5t-94 97.5t-34.5 142q0 79 35 141t96.5 97t140.5 35q47 0 86.5 -12t69 -33.5t47.5 -47t22 -53.5l-29 3v132h123v-527h-124v134l27 -1q-5 -25 -24.5 -50.5t-51 -46t-70.5 -33.5t-83 -13zM367 99q51 0 90.5 21t61.5 58.5t22 86.5q0 47 -22 84
t-61.5 58.5t-90.5 21.5q-52 0 -91 -21.5t-60.5 -58.5t-21.5 -84q0 -49 21.5 -86.5t60.5 -58.5t91 -21zM382 591q-66 0 -110 38.5t-58 106.5l83 12q12 -34 34.5 -52t50.5 -18t50.5 18t35.5 52l82 -12q-14 -68 -58 -106.5t-110 -38.5zM459 822q-26 0 -45.5 8t-39.5 16
q-13 6 -24 10.5t-23 4.5q-13 0 -23.5 -10t-14.5 -27l-75 11q1 45 30 78t70 33q21 0 39.5 -8t37.5 -17q14 -6 25.5 -10.5t21.5 -4.5q14 0 24 9.5t13 28.5l76 -11q-1 -29 -12.5 -54.5t-31.5 -41t-48 -15.5z" />
    <glyph glyph-name="uni1EB6" unicode="&#x1eb6;" horiz-adv-x="815" 
d="M43 0l301 700h129l299 -700h-137l-180 422q-6 16 -14.5 39t-18 48.5t-18 49t-13.5 39.5l29 1q-6 -21 -14.5 -44.5t-17.5 -47t-18 -46t-16 -42.5l-180 -419h-131zM178 156l47 113h357l37 -113h-441zM407 -212q-38 0 -58.5 19t-20.5 53q0 30 21 51t58 21q38 0 58.5 -19.5
t20.5 -52.5q0 -31 -21 -51.5t-58 -20.5zM407 753q-42 0 -77 19t-58.5 50.5t-32.5 70.5l84 12q11 -25 33 -44t51 -19t51 19t33 44l84 -12q-8 -39 -32 -70.5t-58.5 -50.5t-77.5 -19z" />
    <glyph glyph-name="uni1EB7" unicode="&#x1eb7;" horiz-adv-x="782" 
d="M334 -10q-77 0 -136.5 35.5t-94 97.5t-34.5 142q0 79 35 141t96.5 97t140.5 35q47 0 86.5 -12t69 -33.5t47.5 -47t22 -53.5l-29 3v132h123v-527h-124v134l27 -1q-5 -25 -24.5 -50.5t-51 -46t-70.5 -33.5t-83 -13zM367 99q51 0 90.5 21t61.5 58.5t22 86.5q0 47 -22 84
t-61.5 58.5t-90.5 21.5q-52 0 -91 -21.5t-60.5 -58.5t-21.5 -84q0 -49 21.5 -86.5t60.5 -58.5t91 -21zM383 -212q-38 0 -58.5 19t-20.5 53q0 30 21 51t58 21q38 0 58.5 -19.5t20.5 -52.5q0 -31 -21 -51.5t-58 -20.5zM383 593q-66 0 -110 42t-58 114l84 12q12 -36 34 -57.5
t50 -21.5t50 21.5t34 57.5l84 -12q-14 -72 -58 -114t-110 -42z" />
    <glyph glyph-name="uni1EB8" unicode="&#x1eb8;" horiz-adv-x="749" 
d="M128 0v700h514v-118h-386v-464h390v-118h-518zM192 300v116h399v-116h-399zM374 -212q-38 0 -58.5 19t-20.5 53q0 30 21 51t58 21q38 0 58.5 -19.5t20.5 -52.5q0 -31 -21 -51.5t-58 -20.5z" />
    <glyph glyph-name="uni1EB9" unicode="&#x1eb9;" horiz-adv-x="724" 
d="M383 -10q-92 0 -163 35t-110.5 95.5t-39.5 138.5q0 64 23 115t63.5 88t95.5 57t119 20q58 0 108.5 -19.5t88 -54t58 -82t19.5 -104.5l-1 -47h-483l-23 86h403l-16 -15v22q-4 31 -26 54.5t-55.5 37.5t-72.5 14q-55 0 -96 -17.5t-63.5 -53.5t-22.5 -92q0 -51 26.5 -88.5
t74 -58.5t110.5 -21q54 0 93 14.5t72 39.5l58 -85q-29 -23 -68 -41t-83 -28t-89 -10zM384 -212q-38 0 -58.5 19t-20.5 53q0 30 21 51t58 21q38 0 58.5 -19.5t20.5 -52.5q0 -31 -21 -51.5t-58 -20.5z" />
    <glyph glyph-name="uni1EBA" unicode="&#x1eba;" horiz-adv-x="749" 
d="M128 0v700h514v-118h-386v-464h390v-118h-518zM192 300v116h399v-116h-399zM372 754q-7 10 -11.5 19.5t-4.5 19.5q0 11 5.5 22t22.5 23q16 10 23 16.5t7 14.5q0 9 -8.5 13t-21.5 4q-18 0 -37.5 -5.5t-38.5 -13.5l-19 70q21 12 48 19t53 7q54 0 83 -23t29 -59
q0 -27 -12.5 -42.5t-26.5 -23.5q-18 -9 -27.5 -16.5t-9.5 -17.5q0 -4 1 -7l2 -6z" />
    <glyph glyph-name="uni1EBB" unicode="&#x1ebb;" horiz-adv-x="724" 
d="M383 -10q-92 0 -163 35t-110.5 95.5t-39.5 138.5q0 64 23 115t63.5 88t95.5 57t119 20q58 0 108.5 -19.5t88 -54t58 -82t19.5 -104.5l-1 -47h-483l-23 86h403l-16 -15v22q-4 31 -26 54.5t-55.5 37.5t-72.5 14q-55 0 -96 -17.5t-63.5 -53.5t-22.5 -92q0 -51 26.5 -88.5
t74 -58.5t110.5 -21q54 0 93 14.5t72 39.5l58 -85q-29 -23 -68 -41t-83 -28t-89 -10zM347 592q-7 10 -11.5 20t-4.5 20t5.5 21.5t22.5 22.5q16 11 23 17t7 14q0 9 -8.5 13.5t-21.5 4.5q-18 0 -37.5 -5.5t-38.5 -14.5l-19 71q21 12 48 19t53 7q54 0 83 -23t29 -59
q0 -28 -12.5 -43t-26.5 -24q-18 -9 -27.5 -16.5t-9.5 -17.5q0 -3 1 -6.5t2 -6.5z" />
    <glyph glyph-name="uni1EBC" unicode="&#x1ebc;" horiz-adv-x="749" 
d="M128 0v700h514v-118h-386v-464h390v-118h-518zM192 300v116h399v-116h-399zM470 768q-22 0 -44.5 7t-44.5 16q-17 7 -29 11t-22 4q-14 0 -22 -9.5t-8 -28.5h-85q0 58 35 90.5t83 32.5q20 0 39.5 -6t40.5 -16q15 -6 27.5 -10t21.5 -4q14 0 21.5 10t6.5 26h84
q0 -32 -12.5 -60.5t-36 -45.5t-55.5 -17z" />
    <glyph glyph-name="uni1EBD" unicode="&#x1ebd;" horiz-adv-x="724" 
d="M383 -10q-92 0 -163 35t-110.5 95.5t-39.5 138.5q0 64 23 115t63.5 88t95.5 57t119 20q58 0 108.5 -19.5t88 -54t58 -82t19.5 -104.5l-1 -47h-483l-23 86h403l-16 -15v22q-4 31 -26 54.5t-55.5 37.5t-72.5 14q-55 0 -96 -17.5t-63.5 -53.5t-22.5 -92q0 -51 26.5 -88.5
t74 -58.5t110.5 -21q54 0 93 14.5t72 39.5l58 -85q-29 -23 -68 -41t-83 -28t-89 -10zM428 615q-19 0 -34 7t-33 21q-18 16 -28 22t-18 6q-13 0 -23.5 -13.5t-14.5 -41.5l-75 11q1 52 31 89t81 37q19 0 33.5 -7t32.5 -20q18 -14 27.5 -21t18.5 -7q14 0 24 13.5t13 40.5
l76 -11q-1 -33 -15 -62.5t-38.5 -46.5t-57.5 -17z" />
    <glyph glyph-name="uni1EBE" unicode="&#x1ebe;" horiz-adv-x="749" 
d="M128 0v700h514v-118h-386v-464h390v-118h-518zM192 300v116h399v-116h-399zM268 753l-38 43l126 99h78l126 -99l-38 -43l-142 64h30zM563 869l-56 40l87 152l92 -65z" />
    <glyph glyph-name="uni1EBF" unicode="&#x1ebf;" horiz-adv-x="724" 
d="M383 -10q-92 0 -163 35t-110.5 95.5t-39.5 138.5q0 64 23 115t63.5 88t95.5 57t119 20q58 0 108.5 -19.5t88 -54t58 -82t19.5 -104.5l-1 -47h-483l-23 86h403l-16 -15v22q-4 31 -26 54.5t-55.5 37.5t-72.5 14q-55 0 -96 -17.5t-63.5 -53.5t-22.5 -92q0 -51 26.5 -88.5
t74 -58.5t110.5 -21q54 0 93 14.5t72 39.5l58 -85q-29 -23 -68 -41t-83 -28t-89 -10zM246 605l-41 40l121 111h89l121 -111l-41 -40l-139 71h30zM547 748l-56 39l86 153l92 -66z" />
    </font>
</defs>
</svg>
