<svg width="61" height="60" viewBox="0 0 61 60" fill="none" xmlns="http://www.w3.org/2000/svg">
<circle opacity="0.2" cx="30.5" cy="30" r="30" fill="#39F329"/>
<path d="M36.2514 25.05C36.0114 25.01 35.7614 25 35.5014 25H25.5014C25.2214 25 24.9514 25.02 24.6914 25.06C24.8314 24.78 25.0314 24.52 25.2714 24.28L28.5214 21.02C29.8914 19.66 32.1114 19.66 33.4814 21.02L35.2314 22.79C35.8714 23.42 36.2114 24.22 36.2514 25.05Z" stroke="#39F329" stroke-width="1.5" stroke-linecap="round" stroke-linejoin="round"/>
<path d="M27.5 37C27.5 37.75 27.29 38.46 26.92 39.06C26.23 40.22 24.96 41 23.5 41C22.04 41 20.77 40.22 20.08 39.06C19.71 38.46 19.5 37.75 19.5 37C19.5 34.79 21.29 33 23.5 33C25.71 33 27.5 34.79 27.5 37Z" stroke="#39F329" stroke-width="1.5" stroke-miterlimit="10" stroke-linecap="round" stroke-linejoin="round"/>
<path d="M24.9917 36.9795H22.0117" stroke="#39F329" stroke-width="1.5" stroke-miterlimit="10" stroke-linecap="round" stroke-linejoin="round"/>
<path d="M23.5 35.5195V38.5095" stroke="#39F329" stroke-width="1.5" stroke-miterlimit="10" stroke-linecap="round" stroke-linejoin="round"/>
<path d="M40.5 30V35C40.5 38 38.5 40 35.5 40H26.13C26.44 39.74 26.71 39.42 26.92 39.06C27.29 38.46 27.5 37.75 27.5 37C27.5 34.79 25.71 33 23.5 33C22.3 33 21.23 33.53 20.5 34.36V30C20.5 27.28 22.14 25.38 24.69 25.06C24.95 25.02 25.22 25 25.5 25H35.5C35.76 25 36.01 25.01 36.25 25.05C38.83 25.35 40.5 27.26 40.5 30Z" stroke="#39F329" stroke-width="1.5" stroke-linecap="round" stroke-linejoin="round"/>
<path d="M40.5 30.5H37.5C36.4 30.5 35.5 31.4 35.5 32.5C35.5 33.6 36.4 34.5 37.5 34.5H40.5" stroke="#39F329" stroke-width="1.5" stroke-linecap="round" stroke-linejoin="round"/>
</svg>
