<svg width="74" height="74" viewBox="0 0 74 74" fill="none" xmlns="http://www.w3.org/2000/svg">
<path d="M54.0512 23.9576C53.8354 23.9267 53.6195 23.9267 53.4037 23.9576C48.6245 23.8034 44.832 19.8876 44.832 15.0776C44.832 10.1751 48.8095 6.16675 53.7429 6.16675C58.6454 6.16675 62.6537 10.1442 62.6537 15.0776C62.6229 19.8876 58.8304 23.8034 54.0512 23.9576Z" fill="#FF5400"/>
<path d="M64.1008 45.3248C60.6475 47.6373 55.8066 48.5006 51.3358 47.9148C52.5075 45.3864 53.1241 42.5806 53.155 39.6206C53.155 36.5373 52.4766 33.6081 51.1816 31.0489C55.745 30.4323 60.5858 31.2956 64.07 33.6081C68.9416 36.8148 68.9416 42.0873 64.1008 45.3248Z" fill="#FF5400"/>
<path d="M19.8568 23.9576C20.0727 23.9267 20.2885 23.9267 20.5043 23.9576C25.2835 23.8034 29.076 19.8876 29.076 15.0776C29.076 10.1442 25.0985 6.16675 20.1652 6.16675C15.2627 6.16675 11.2852 10.1442 11.2852 15.0776C11.2852 19.8876 15.0777 23.8034 19.8568 23.9576Z" fill="#FF5400"/>
<path d="M20.196 39.6212C20.196 42.612 20.8435 45.4487 22.0151 48.0079C17.6676 48.4704 13.1351 47.5454 9.80512 45.3562C4.93345 42.1187 4.93345 36.8462 9.80512 33.6087C13.1043 31.3887 17.7601 30.4945 22.1384 30.9879C20.8743 33.5779 20.196 36.507 20.196 39.6212Z" fill="#FF5400"/>
<path d="M37.3698 48.9325C37.1231 48.9017 36.8456 48.9017 36.5681 48.9325C30.8948 48.7475 26.3623 44.0917 26.3623 38.3567C26.3931 32.4983 31.1106 27.75 36.9998 27.75C42.8581 27.75 47.6065 32.4983 47.6065 38.3567C47.5756 44.0917 43.074 48.7475 37.3698 48.9325Z" fill="#FF5400"/>
<path d="M27.3483 55.3146C22.6925 58.4288 22.6925 63.5471 27.3483 66.6305C32.6517 70.1763 41.3467 70.1763 46.65 66.6305C51.3058 63.5163 51.3058 58.398 46.65 55.3146C41.3775 51.7688 32.6825 51.7688 27.3483 55.3146Z" fill="#FF5400"/>
</svg>
