<svg width="335" height="134" viewBox="0 0 335 134" fill="none" xmlns="http://www.w3.org/2000/svg">
<path d="M292.153 67.7164C290.469 66.6028 288.593 65.7964 286.831 64.7979C285.683 64.1451 284.458 63.5883 283.481 62.7627C281.797 61.361 282.141 58.6346 283.902 57.4441C286.448 55.7545 290.641 56.6953 291.081 60.1514C291.081 60.2282 291.158 60.2666 291.234 60.2666H295.063C295.159 60.2666 295.235 60.1898 295.216 60.0938C295.025 57.713 294.087 55.7161 292.402 54.4489C290.775 53.2392 288.937 52.5864 286.984 52.5864C276.858 52.5864 275.939 63.3003 281.395 66.6988C282.007 67.102 287.367 69.7901 289.263 70.9613C291.158 72.1325 291.751 74.2638 290.928 75.9534C290.181 77.4894 288.248 78.5647 286.295 78.4495C284.19 78.3343 282.543 77.1822 281.969 75.3966C281.873 75.0702 281.816 74.4558 281.816 74.187C281.816 74.1102 281.739 74.0334 281.663 74.0334H277.509C277.509 74.0334 277.355 74.1102 277.355 74.187C277.355 77.2014 278.102 78.8719 280.15 80.3887C282.065 81.8287 284.151 82.424 286.314 82.424C291.981 82.424 294.91 79.2175 295.522 75.8766C296.039 72.6125 295.082 69.6748 292.172 67.7356L292.153 67.7164Z" fill="#949494"/>
<path d="M111.824 53.1426H107.977C107.977 53.1426 107.843 53.2002 107.823 53.2386L104.416 64.4901C104.359 64.6437 104.167 64.6437 104.11 64.4901L100.702 53.2386C100.702 53.2386 100.626 53.1426 100.549 53.1426H94.2127C94.2127 53.1426 94.0596 53.2194 94.0596 53.2962V82.0009C94.0596 82.0009 94.1361 82.1545 94.2127 82.1545H98.3668C98.3668 82.1545 98.5199 82.0777 98.5199 82.0009V60.1892C98.5199 60.0163 98.7688 59.9971 98.8262 60.1315L102.253 71.4598L102.502 72.247C102.502 72.247 102.578 72.343 102.655 72.343H105.833C105.833 72.343 105.947 72.2854 105.986 72.247L106.235 71.4598L109.661 60.1315C109.719 59.9587 109.968 60.0163 109.968 60.1892V82.0009C109.968 82.0009 110.044 82.1545 110.121 82.1545H114.275C114.275 82.1545 114.428 82.0777 114.428 82.0009V53.2962C114.428 53.2962 114.351 53.1426 114.275 53.1426H111.844H111.824Z" fill="#949494"/>
<path d="M228.56 53.1426C228.56 53.1426 228.426 53.2002 228.407 53.2386L224.999 64.4901C224.942 64.6437 224.751 64.6437 224.693 64.4901L221.286 53.2386C221.286 53.2386 221.209 53.1426 221.132 53.1426H214.815C214.815 53.1426 214.662 53.2194 214.662 53.2962V82.0009C214.662 82.0009 214.739 82.1545 214.815 82.1545H218.969C218.969 82.1545 219.122 82.0777 219.122 82.0009V60.1892C219.122 60.0163 219.371 59.9971 219.429 60.1315L222.855 71.4598L223.104 72.247C223.104 72.247 223.181 72.343 223.257 72.343H226.435C226.435 72.343 226.569 72.2854 226.588 72.247L226.837 71.4598L230.264 60.1315C230.321 59.9587 230.57 60.0163 230.57 60.1892V82.0009C230.57 82.0009 230.647 82.1545 230.723 82.1545H234.877C234.877 82.1545 235.03 82.0777 235.03 82.0009V53.2962C235.03 53.2962 234.954 53.1426 234.877 53.1426H228.56Z" fill="#949494"/>
<path d="M174.997 53.1426H155.375C155.375 53.1426 155.222 53.2194 155.222 53.2962V56.8867C155.222 56.8867 155.298 57.0403 155.375 57.0403H162.956V82.0201C162.956 82.0201 163.032 82.1737 163.109 82.1737H167.263C167.263 82.1737 167.416 82.0969 167.416 82.0201V57.0403H174.997C174.997 57.0403 175.15 56.9635 175.15 56.8867V53.2962C175.15 53.2962 175.092 53.1426 174.997 53.1426Z" fill="#949494"/>
<path d="M199.499 82.1558H203.271C203.366 82.1558 203.443 82.0598 203.424 81.9638L195.613 53.1439C195.613 53.1439 195.537 53.0479 195.46 53.0479H190.043C190.043 53.0479 189.909 53.1055 189.89 53.1439L182.079 81.9638C182.06 82.0598 182.137 82.1558 182.232 82.1558H186.003C186.003 82.1558 186.118 82.0982 186.157 82.0598L188.416 73.6692C188.416 73.6692 188.492 73.5732 188.569 73.5732H196.934C196.934 73.5732 197.068 73.6308 197.087 73.6692L199.346 82.0598C199.346 82.0598 199.442 82.1558 199.499 82.1558ZM189.583 69.4643L192.608 58.2512C192.665 58.0976 192.857 58.0976 192.914 58.2512L195.939 69.4643C195.958 69.5603 195.881 69.6563 195.786 69.6563H189.717C189.622 69.6563 189.545 69.5603 189.564 69.4643H189.583Z" fill="#949494"/>
<path d="M263.955 82.1558H267.727C267.822 82.1558 267.899 82.0598 267.88 81.9638L260.069 53.1439C260.069 53.1439 259.993 53.0479 259.916 53.0479H254.499C254.499 53.0479 254.365 53.1055 254.346 53.1439L246.535 81.9638C246.516 82.0598 246.593 82.1558 246.688 82.1558H250.46C250.46 82.1558 250.594 82.0982 250.613 82.0598L252.872 73.6692C252.872 73.6692 252.948 73.5732 253.025 73.5732H261.39C261.39 73.5732 261.524 73.6308 261.543 73.6692L263.802 82.0598C263.802 82.0598 263.879 82.1558 263.955 82.1558ZM254.039 69.4643L257.083 58.2512C257.14 58.0976 257.332 58.0976 257.389 58.2512L260.433 69.4643C260.452 69.5603 260.376 69.6563 260.28 69.6563H254.212C254.116 69.6563 254.039 69.5603 254.058 69.4643H254.039Z" fill="#949494"/>
<path d="M131.274 77.8924V68.9834C131.274 68.9834 131.35 68.8298 131.427 68.8298H142.492C142.492 68.8298 142.645 68.753 142.645 68.6762V65.0857C142.645 65.0857 142.568 64.9321 142.492 64.9321H131.427C131.427 64.9321 131.274 64.8553 131.274 64.7785V57.1751C131.274 57.1751 131.35 57.0215 131.427 57.0215H144.004C144.004 57.0215 144.157 56.9447 144.157 56.8679V53.2774C144.157 53.2774 144.081 53.1238 144.004 53.1238H126.967C126.967 53.1238 126.813 53.2006 126.813 53.2774V81.9629C126.813 81.9629 126.89 82.1165 126.967 82.1165H144.521C144.521 82.1165 144.674 82.0397 144.674 81.9629V78.1804C144.674 78.1804 144.597 78.0268 144.521 78.0268H131.389C131.389 78.0268 131.274 77.95 131.274 77.854V77.8924Z" fill="#949494"/>
<path d="M330.114 81.9052L315.737 67.044C315.737 67.044 315.68 66.8904 315.737 66.852L328.678 53.4117C328.774 53.3157 328.697 53.1621 328.582 53.1621H323.28C323.28 53.1621 323.203 53.1813 323.184 53.2197L312.215 64.6056C312.119 64.7016 311.966 64.6248 311.966 64.5096V53.3157C311.966 53.3157 311.89 53.1621 311.813 53.1621H307.659C307.659 53.1621 307.506 53.2389 307.506 53.3157V82.0204C307.506 82.0204 307.582 82.174 307.659 82.174H311.813C311.813 82.174 311.966 82.0972 311.966 82.0204V69.3865C311.966 69.2713 312.139 69.1945 312.215 69.2905L324.639 82.1356C324.639 82.1356 324.716 82.1932 324.735 82.1932H330.037C330.133 82.174 330.21 82.0012 330.114 81.9244V81.9052Z" fill="#949494"/>
<path d="M65.6887 37.687L40.5537 56.3499L45.2246 45.348L65.6887 37.687Z" fill="#E17726" stroke="#E17726" stroke-width="0.581081" stroke-linecap="round" stroke-linejoin="round"/>
<path d="M7.70508 37.687L32.6295 56.5227L28.1691 45.348L7.70508 37.687Z" fill="#E27625" stroke="#E27625" stroke-width="0.581081" stroke-linecap="round" stroke-linejoin="round"/>
<path d="M56.6351 80.9646L49.9541 91.2177L64.2732 95.1729L68.3698 81.195L56.6351 80.9646Z" fill="#E27625" stroke="#E27625" stroke-width="0.581081" stroke-linecap="round" stroke-linejoin="round"/>
<path d="M5.04395 81.195L9.12144 95.1729L23.4214 91.2177L16.7596 80.9646L5.04395 81.195Z" fill="#E27625" stroke="#E27625" stroke-width="0.581081" stroke-linecap="round" stroke-linejoin="round"/>
<path d="M22.6556 63.6457L18.6738 69.6746L32.8398 70.3274L32.3612 55.0247L22.6365 63.6649L22.6556 63.6457Z" fill="#E27625" stroke="#E27625" stroke-width="0.581081" stroke-linecap="round" stroke-linejoin="round"/>
<path d="M50.757 63.6453L40.8791 54.8323L40.5537 70.3079L54.7196 69.655L50.7379 63.6261L50.757 63.6453Z" fill="#E27625" stroke="#E27625" stroke-width="0.581081" stroke-linecap="round" stroke-linejoin="round"/>
<path d="M23.4209 91.2177L31.997 87.0704L24.6078 81.291L23.4209 91.2177Z" fill="#E27625" stroke="#E27625" stroke-width="0.581081" stroke-linecap="round" stroke-linejoin="round"/>
<path d="M41.3965 87.0516L49.9535 91.1989L48.7857 81.2722L41.3965 87.0516Z" fill="#E27625" stroke="#E27625" stroke-width="0.581081" stroke-linecap="round" stroke-linejoin="round"/>
<path d="M49.9535 91.2179L41.3965 87.0706L42.0856 92.6387L42.0091 95.0003L49.9343 91.2179H49.9535Z" fill="#D5BFB2" stroke="#D5BFB2" stroke-width="0.581081" stroke-linecap="round" stroke-linejoin="round"/>
<path d="M23.4209 91.2179L31.3845 95.0003L31.327 92.6387L31.997 87.0706L23.4209 91.2179Z" fill="#D5BFB2" stroke="#D5BFB2" stroke-width="0.581081" stroke-linecap="round" stroke-linejoin="round"/>
<path d="M31.5187 77.6046L24.3975 75.5117L29.413 73.1885L31.4996 77.5854L31.5187 77.6046Z" fill="#233447" stroke="#233447" stroke-width="0.581081" stroke-linecap="round" stroke-linejoin="round"/>
<path d="M41.876 77.6052L43.9626 73.2083L49.0164 75.5315L41.876 77.6244V77.6052Z" fill="#233447" stroke="#233447" stroke-width="0.581081" stroke-linecap="round" stroke-linejoin="round"/>
<path d="M23.4206 91.2177L24.6649 80.9646L16.7588 81.195L23.4206 91.2177Z" fill="#CC6228" stroke="#CC6228" stroke-width="0.581081" stroke-linecap="round" stroke-linejoin="round"/>
<path d="M48.7285 80.9646L49.9537 91.2177L56.6346 81.195L48.7285 80.9646Z" fill="#CC6228" stroke="#CC6228" stroke-width="0.581081" stroke-linecap="round" stroke-linejoin="round"/>
<path d="M54.7196 69.6748L40.5537 70.3276L41.8746 77.6238L43.9612 73.2269L49.015 75.5501L54.7388 69.694L54.7196 69.6748Z" fill="#CC6228" stroke="#CC6228" stroke-width="0.581081" stroke-linecap="round" stroke-linejoin="round"/>
<path d="M24.4168 75.5116L29.4323 73.1883L31.5189 77.5852L32.8398 70.289L18.6738 69.6362L24.4168 75.4924V75.5116Z" fill="#CC6228" stroke="#CC6228" stroke-width="0.581081" stroke-linecap="round" stroke-linejoin="round"/>
<path d="M18.6738 69.6752L24.6082 81.2915L24.4168 75.5121L18.6738 69.656V69.6752Z" fill="#E27525" stroke="#E27525" stroke-width="0.581081" stroke-linecap="round" stroke-linejoin="round"/>
<path d="M49.0159 75.5117L48.7861 81.2911L54.7205 69.6748L48.9967 75.5309L49.0159 75.5117Z" fill="#E27525" stroke="#E27525" stroke-width="0.581081" stroke-linecap="round" stroke-linejoin="round"/>
<path d="M32.8404 70.3086L31.5195 77.6048L33.185 86.2066L33.5487 74.8591L32.8213 70.3086H32.8404Z" fill="#E27525" stroke="#E27525" stroke-width="0.581081" stroke-linecap="round" stroke-linejoin="round"/>
<path d="M40.5544 70.3086L39.8652 74.8399L40.2098 86.2066L41.8753 77.6048L40.5544 70.3086Z" fill="#E27525" stroke="#E27525" stroke-width="0.581081" stroke-linecap="round" stroke-linejoin="round"/>
<path d="M41.8754 77.6047L40.21 86.2065L41.3968 87.0514L48.7861 81.272L49.0158 75.4927L41.8754 77.5855V77.6047Z" fill="#F5841F" stroke="#F5841F" stroke-width="0.581081" stroke-linecap="round" stroke-linejoin="round"/>
<path d="M24.4166 75.5115L24.608 81.2908L31.9973 87.0702L33.1842 86.2253L31.5187 77.6235L24.3975 75.5307L24.4166 75.5115Z" fill="#F5841F" stroke="#F5841F" stroke-width="0.581081" stroke-linecap="round" stroke-linejoin="round"/>
<path d="M42.0284 95L42.105 92.6384L41.4541 92.0816H31.9591L31.3466 92.6384L31.404 95L23.4404 91.2175L26.2353 93.5024L31.8826 97.4001H41.5499L47.2162 93.5024L49.9728 91.2175L42.0476 95H42.0284Z" fill="#C0AC9D" stroke="#C0AC9D" stroke-width="0.581081" stroke-linecap="round" stroke-linejoin="round"/>
<path d="M41.3968 87.0506L40.21 86.2058H33.2036L32.0167 87.0506L31.3467 92.6188L31.9593 92.062H41.4543L42.1051 92.6188L41.416 87.0506H41.3968Z" fill="#949494" stroke="#949494" stroke-width="0.581081" stroke-linecap="round" stroke-linejoin="round"/>
<path d="M66.7612 57.5783L68.8669 47.2868L65.6892 37.7058L41.3965 55.7351L50.7383 63.6456L63.9471 67.5049L66.8569 64.0873L65.5934 63.1656L67.6035 61.3224L66.0529 60.132L68.0629 58.5959L66.742 57.5783H66.7612Z" fill="#763E1A" stroke="#763E1A" stroke-width="0.581081" stroke-linecap="round" stroke-linejoin="round"/>
<path d="M4.50781 47.268L6.65185 57.5595L5.29268 58.5771L7.341 60.1132L5.7904 61.3036L7.80044 63.1468L6.53699 64.0685L9.44675 67.4861L22.6555 63.6268L31.9974 55.7163L7.70472 37.687L4.50781 47.268Z" fill="#763E1A" stroke="#763E1A" stroke-width="0.581081" stroke-linecap="round" stroke-linejoin="round"/>
<path d="M63.9475 67.505L50.7387 63.6458L54.7205 69.6747L48.7861 81.291L56.654 81.195H68.3887L63.9667 67.505H63.9475Z" fill="#F5841F" stroke="#F5841F" stroke-width="0.581081" stroke-linecap="round" stroke-linejoin="round"/>
<path d="M22.6556 63.6458L9.44687 67.505L5.04395 81.195H16.7596L24.6274 81.291L18.693 69.6747L22.6748 63.6458H22.6556Z" fill="#F5841F" stroke="#F5841F" stroke-width="0.581081" stroke-linecap="round" stroke-linejoin="round"/>
<path d="M40.5546 70.3088L41.3969 55.7357L45.2255 45.3674H28.1689L31.9976 55.7357L32.8399 70.3088L33.1653 74.8786V86.2068H40.21V74.8786L40.5546 70.3088Z" fill="#F5841F" stroke="#F5841F" stroke-width="0.581081" stroke-linecap="round" stroke-linejoin="round"/>
</svg>
