<svg width="326" height="130" viewBox="0 0 326 130" fill="none" xmlns="http://www.w3.org/2000/svg">
<path fill-rule="evenodd" clip-rule="evenodd" d="M61.115 100.655H44.1911L31.5002 50.9673C30.8979 48.6817 29.6189 46.6611 27.7375 45.7087C23.0424 43.3154 17.8687 41.4107 12.2246 40.4501V38.5372H39.4877C43.2504 38.5372 46.0724 41.4107 46.5428 44.7481L53.1275 80.5894L70.0432 38.5372H86.4968L61.115 100.655ZM95.9032 100.655H79.92L93.0812 38.5372H109.064L95.9032 100.655ZM129.743 55.7456C130.213 52.4 133.035 50.487 136.328 50.487C141.501 50.0067 147.137 50.9673 151.84 53.3523L154.662 39.9781C149.959 38.0651 144.785 37.1045 140.09 37.1045C124.577 37.1045 113.289 45.7087 113.289 57.6503C113.289 66.7348 121.285 71.5048 126.929 74.3784C133.035 77.2437 135.387 79.1567 134.917 82.022C134.917 86.32 130.213 88.233 125.518 88.233C119.874 88.233 114.23 86.8003 109.064 84.407L106.242 97.7895C111.886 100.175 117.993 101.135 123.637 101.135C141.031 101.607 151.84 93.0113 151.84 80.1091C151.84 63.8612 129.743 62.9089 129.743 55.7456V55.7456ZM207.779 100.655L195.088 38.5372H181.456C178.634 38.5372 175.812 40.4501 174.871 43.3154L151.371 100.655H167.825L171.109 91.5786H191.325L193.206 100.655H207.779ZM183.807 55.2657L188.502 78.6768H175.341L183.807 55.2657Z" fill="#828282"/>
<path fill-rule="evenodd" clip-rule="evenodd" d="M256.334 93.3131C250.213 98.4571 242.272 101.562 233.596 101.562C214.235 101.562 198.541 86.1022 198.541 67.0312C198.541 47.9601 214.235 32.5 233.596 32.5C242.272 32.5 250.213 35.6053 256.334 40.7492C262.455 35.6053 270.396 32.5 279.072 32.5C298.432 32.5 314.127 47.9602 314.127 67.0312C314.127 86.1022 298.432 101.562 279.072 101.562C270.396 101.562 262.455 98.4571 256.334 93.3131Z" fill="#ED0006"/>
<path fill-rule="evenodd" clip-rule="evenodd" d="M256.334 93.3133C263.871 86.9797 268.65 77.5552 268.65 67.0312C268.65 56.5071 263.871 47.0827 256.334 40.749C262.455 35.6052 270.396 32.5 279.072 32.5C298.432 32.5 314.127 47.9601 314.127 67.0312C314.127 86.1022 298.432 101.562 279.072 101.562C270.396 101.562 262.455 98.4571 256.334 93.3133Z" fill="#F9A000"/>
<path fill-rule="evenodd" clip-rule="evenodd" d="M256.334 93.3135C263.871 86.9798 268.65 77.5554 268.65 67.0315C268.65 56.5075 263.871 47.0832 256.334 40.7495C248.797 47.0832 244.018 56.5075 244.018 67.0315C244.018 77.5554 248.797 86.9798 256.334 93.3135Z" fill="#FF5E00"/>
</svg>
