<svg width="334" height="134" viewBox="0 0 334 134" fill="none" xmlns="http://www.w3.org/2000/svg">
<path d="M98.3093 71.0073C98.3093 71.5659 97.8383 72.0382 97.2505 72.0382H77.7708C78.2692 76.8719 81.8853 81.2918 86.9968 81.2918C90.4926 81.2918 93.0775 79.9645 95.0162 77.1649C95.2225 76.8719 95.5147 76.665 95.8687 76.665C96.4256 76.665 96.8381 77.0787 96.8381 77.6373C96.8381 77.8441 96.7796 77.9924 96.6902 78.1372C94.7206 81.5538 90.8157 83.2363 86.9933 83.2363C80.4416 83.2363 75.7393 77.3442 75.7393 71.0659C75.7393 64.7877 80.4107 58.8956 86.9933 58.8956C93.576 58.8956 98.2749 64.7291 98.3058 71.0073H98.3093ZM96.2228 70.0937C95.8103 65.26 92.1082 60.8401 86.9968 60.8401C81.8853 60.8401 78.2726 65.26 77.7708 70.0937H96.2228ZM121.959 59.3679C122.515 59.3679 122.928 59.8678 122.928 60.3402C122.928 60.8987 122.515 61.3124 121.959 61.3124H116.73V81.909C116.73 82.4089 116.318 82.8812 115.761 82.8812C115.204 82.8812 114.792 82.3813 114.792 81.909V61.3124H109.766C109.209 61.3124 108.797 60.8987 108.797 60.3402C108.797 59.8402 109.209 59.3679 109.766 59.3679H114.792V51.8554C114.792 51.3555 115.173 50.8831 115.672 50.8245C116.287 50.7659 116.758 51.2072 116.758 51.7968V59.3714H121.959V59.3679ZM153.865 69.3283V81.7917C153.865 82.3503 153.366 82.764 152.895 82.764C152.338 82.764 151.926 82.3503 151.926 81.7917V69.3283C151.926 65.1152 149.547 60.9297 144.876 60.9297C138.881 60.9297 136.296 66.1737 136.65 71.5659C136.65 71.7141 136.709 72.3312 136.709 72.4209V81.7607C136.709 82.2606 136.327 82.733 135.829 82.7916C135.213 82.8502 134.742 82.4089 134.742 81.8193V40.8331C134.742 40.3332 135.155 39.8608 135.712 39.8608C136.269 39.8608 136.681 40.3608 136.681 40.8331V63.9947C138.355 60.9883 141.352 58.9542 144.848 58.9542C150.606 58.9542 153.868 63.9947 153.868 69.3283H153.865ZM188.854 71.0073C188.854 71.5659 188.383 72.0382 187.795 72.0382H168.315C168.814 76.8719 172.43 81.2918 177.541 81.2918C181.037 81.2918 183.622 79.9645 185.561 77.1649C185.767 76.8719 186.059 76.665 186.413 76.665C186.97 76.665 187.383 77.0787 187.383 77.6373C187.383 77.8441 187.324 77.9924 187.235 78.1372C185.265 81.5538 181.36 83.2363 177.538 83.2363C170.986 83.2363 166.284 77.3442 166.284 71.0659C166.284 64.7877 170.955 58.8956 177.538 58.8956C184.121 58.8956 188.792 64.7291 188.851 71.0073H188.854ZM186.74 70.0937C186.327 65.26 182.625 60.8401 177.514 60.8401C172.403 60.8401 168.79 65.26 168.288 70.0937H186.74ZM212.771 60.2815C212.771 60.8987 212.417 61.2538 211.861 61.3434C206.13 62.1985 203.545 66.8839 203.545 72.3347V81.6745C203.545 82.1744 203.164 82.6468 202.665 82.7054C202.05 82.764 201.579 82.3227 201.579 81.7331V60.4298C201.579 59.9299 201.961 59.4576 202.459 59.3989C203.075 59.3403 203.545 59.7816 203.545 60.3712V64.7015C205.161 61.9606 208.365 59.3679 211.713 59.3679C212.211 59.3679 212.771 59.723 212.771 60.2815ZM244.825 71.0073C244.825 71.5659 244.354 72.0382 243.767 72.0382H224.287C224.785 76.8719 228.401 81.2918 233.513 81.2918C237.009 81.2918 239.594 79.9645 241.532 77.1649C241.738 76.8719 242.031 76.665 242.385 76.665C242.942 76.665 243.354 77.0787 243.354 77.6373C243.354 77.8441 243.296 77.9924 243.206 78.1372C241.237 81.5538 237.332 83.2363 233.509 83.2363C226.958 83.2363 222.255 77.3442 222.255 71.0659C222.255 64.7877 226.927 58.8956 233.509 58.8956C240.092 58.8956 244.791 64.7291 244.822 71.0073H244.825ZM242.739 70.0937C242.326 65.26 238.624 60.8401 233.513 60.8401C228.401 60.8401 224.789 65.26 224.287 70.0937H242.739ZM276.319 60.516V81.909C276.319 82.4675 275.82 82.8812 275.349 82.8812C274.793 82.8812 274.38 82.4675 274.38 81.909V77.8441C272.765 81.0574 269.915 83.3846 266.271 83.3846C260.483 83.3846 257.282 78.344 257.282 73.0104V60.4884C257.282 59.9885 257.695 59.5162 258.252 59.5162C258.809 59.5162 259.221 60.0161 259.221 60.4884V73.0104C259.221 77.2235 261.6 81.409 266.271 81.409C272.823 81.409 274.38 75.2514 274.38 68.4422V60.4574C274.38 59.8678 274.995 59.2783 275.704 59.5437C276.058 59.7196 276.319 60.1023 276.319 60.516ZM325.646 69.2387V81.7607C325.646 82.3192 325.147 82.733 324.676 82.733C324.119 82.733 323.707 82.3192 323.707 81.7607V69.2387C323.707 65.0256 321.328 60.8987 316.657 60.8987C310.782 60.8987 308.548 67.2045 308.548 72.0968V81.7607C308.548 82.3192 308.05 82.733 307.579 82.733C307.022 82.733 306.609 82.3192 306.609 81.7607V69.2387C306.609 65.0256 304.231 60.8987 299.559 60.8987C293.626 60.8987 291.186 65.5841 291.392 71.8313C291.392 71.9796 291.45 72.2451 291.392 72.3312V81.7297C291.392 82.2296 291.01 82.7019 290.512 82.7605C289.897 82.8191 289.426 82.3778 289.426 81.7883V60.4229C289.426 59.923 289.807 59.4507 290.306 59.392C290.921 59.3334 291.392 59.7747 291.392 60.3643V63.9292C293.066 60.9228 296.063 58.9507 299.559 58.9507C303.526 58.9507 306.609 61.4848 307.874 65.1669C309.49 61.5124 312.635 58.9507 316.66 58.9507C322.39 58.9507 325.649 63.9292 325.649 69.2352L325.646 69.2387Z" fill="#939393"/>
<path opacity="0.6" d="M32.7346 80.1983L57.1505 65.7284L32.7346 54.6199L8.34961 65.7318L32.7346 80.2018V80.1983Z" fill="#8C8C8C"/>
<path opacity="0.45" d="M32.7346 54.6235V25.125L8.34961 65.732L32.7346 80.202V54.6235Z" fill="#8C8C8C"/>
<path opacity="0.8" d="M32.7344 80.1985L57.1503 65.7285L32.7344 25.125V80.1985Z" fill="#8C8C8C"/>
<path opacity="0.45" d="M32.7346 84.8252L8.34961 70.3862L32.7346 104.863V84.8252Z" fill="#8C8C8C"/>
<path opacity="0.8" d="M57.1503 70.3862L32.7344 84.8252V104.863L57.1503 70.3862Z" fill="#8C8C8C"/>
</svg>
