<svg width="334" height="134" viewBox="0 0 334 134" fill="none" xmlns="http://www.w3.org/2000/svg">
<path d="M129.101 49.4199H112.467C111.329 49.4199 110.361 50.2213 110.183 51.312L103.455 92.6802C103.337 93.4139 103.855 94.101 104.611 94.2165C104.682 94.227 104.754 94.2328 104.828 94.2328H112.769C113.908 94.2328 114.876 93.4291 115.053 92.3384L116.868 81.1803C117.044 80.0908 118.012 79.287 119.15 79.2859H124.416C135.374 79.2859 141.697 74.1437 143.349 63.9527C144.093 59.4942 143.38 55.991 141.228 53.5378C138.863 50.8442 134.67 49.4187 129.103 49.4187L129.101 49.4199ZM131.02 64.529C130.11 70.3174 125.549 70.3174 121.139 70.3174H118.629L120.39 59.507C120.497 58.8537 121.077 58.372 121.759 58.372H122.909C125.912 58.372 128.746 58.372 130.21 60.0331C131.083 61.0235 131.35 62.4957 131.017 64.529H131.02ZM178.824 64.3424H170.859C170.177 64.3424 169.596 64.8241 169.49 65.4774L169.138 67.6379L168.581 66.8551C166.856 64.4275 163.01 63.6168 159.172 63.6168C150.37 63.6168 142.851 70.083 141.387 79.1529C140.625 83.6767 141.708 88.0035 144.354 91.0202C146.782 93.7942 150.255 94.9503 154.387 94.9503C161.48 94.9503 165.412 90.5279 165.412 90.5279L165.058 92.6743C164.936 93.4081 165.452 94.0975 166.208 94.2142C166.28 94.2259 166.352 94.2305 166.424 94.2305H173.599C174.738 94.2305 175.706 93.4268 175.883 92.336L180.188 65.895C180.31 65.1648 179.796 64.4765 179.043 64.3599C178.971 64.3482 178.898 64.3424 178.824 64.3424ZM167.721 79.378C166.952 83.7911 163.34 86.7541 158.733 86.7541C156.42 86.7541 154.571 86.0343 153.384 84.6706C152.206 83.3163 151.759 81.3891 152.134 79.2427C152.852 74.867 156.525 71.8071 161.061 71.8071C163.323 71.8071 165.161 72.5362 166.372 73.9116C167.586 75.3009 168.067 77.2397 167.719 79.3768L167.721 79.378ZM221.248 64.3424H213.243C212.477 64.3435 211.76 64.7122 211.33 65.3258L200.29 81.0975L195.61 65.9417C195.315 64.9921 194.414 64.3424 193.392 64.3424H185.525C184.759 64.34 184.137 64.9408 184.135 65.6839C184.135 65.8332 184.16 65.9802 184.209 66.1214L193.026 91.215L184.737 102.563C184.293 103.169 184.44 104.009 185.064 104.438C185.299 104.6 185.581 104.686 185.868 104.686H193.863C194.621 104.686 195.331 104.328 195.763 103.724L222.386 66.4527C222.823 65.8425 222.667 65.005 222.037 64.5815C221.805 64.4252 221.53 64.3412 221.247 64.3412L221.248 64.3424Z" fill="#253B80"/>
<path d="M247.751 49.4201H231.114C229.978 49.4201 229.009 50.2226 228.833 51.3122L222.105 92.6804C221.986 93.413 222.501 94.1001 223.255 94.2155C223.327 94.226 223.399 94.2319 223.471 94.2319H232.009C232.805 94.2319 233.481 93.6684 233.605 92.9067L235.514 81.1805C235.69 80.091 236.658 79.2872 237.796 79.286H243.06C254.02 79.286 260.341 74.1439 261.995 63.9529C262.742 59.4944 262.024 55.9912 259.872 53.538C257.511 50.8444 253.319 49.4189 247.752 49.4189L247.751 49.4201ZM249.669 64.5292C248.762 70.3176 244.201 70.3176 239.789 70.3176H237.281L239.045 59.5072C239.149 58.8539 239.729 58.3722 240.411 58.3722H241.561C244.562 58.3722 247.398 58.3722 248.862 60.0333C249.736 61.0237 250 62.4959 249.667 64.5292H249.669ZM297.472 64.3426H289.511C288.829 64.3402 288.248 64.8232 288.145 65.4776L287.792 67.6381L287.233 66.8553C285.508 64.4277 281.665 63.617 277.827 63.617C269.024 63.617 261.509 70.0831 260.044 79.1531C259.285 83.6769 260.363 88.0037 263.009 91.0204C265.441 93.7944 268.91 94.9505 273.042 94.9505C280.135 94.9505 284.067 90.5281 284.067 90.5281L283.712 92.6745C283.591 93.4083 284.107 94.0977 284.862 94.2144C284.935 94.226 285.01 94.2319 285.083 94.2307H292.256C293.394 94.2307 294.361 93.427 294.538 92.3362L298.845 65.8952C298.962 65.1603 298.442 64.472 297.684 64.3589C297.613 64.3484 297.542 64.3426 297.472 64.3437V64.3426ZM286.368 79.3782C285.604 83.7913 281.987 86.7543 277.38 86.7543C275.072 86.7543 273.219 86.0345 272.031 84.6708C270.854 83.3165 270.411 81.3893 270.782 79.2429C271.505 74.8672 275.172 71.8073 279.708 71.8073C281.97 71.8073 283.808 72.5364 285.02 73.9118C286.238 75.3011 286.719 77.2399 286.367 79.377L286.368 79.3782ZM306.862 50.5551L300.035 92.6804C299.916 93.413 300.431 94.1001 301.185 94.2155C301.257 94.226 301.329 94.2319 301.401 94.2319H308.265C309.405 94.2319 310.373 93.4293 310.549 92.3374L317.281 50.9716C317.4 50.2378 316.884 49.5495 316.128 49.4341C316.057 49.4236 315.986 49.4177 315.914 49.4177H308.227C307.545 49.4201 306.967 49.9018 306.861 50.5551H306.862Z" fill="#179BD7"/>
<path d="M34.3753 102.272L35.6479 94.4348L32.814 94.3706H19.2832L28.6858 36.5483C28.7436 36.1832 29.0683 35.9137 29.4496 35.916H52.2652C59.8395 35.916 65.0658 37.4442 67.7951 40.4621C69.0749 41.8771 69.8892 43.3563 70.2837 44.9836C70.6975 46.6914 70.7047 48.7317 70.3006 51.2212L70.2717 51.4031V52.9978L71.5515 53.7012C72.5282 54.1807 73.4063 54.8305 74.1425 55.6167C75.237 56.8264 75.9443 58.3651 76.2438 60.1884C76.553 62.0642 76.4507 64.2958 75.9443 66.8214C75.3609 69.7273 74.4167 72.2587 73.1429 74.3293C72.0182 76.1853 70.5063 77.7916 68.7044 79.0469C67.012 80.2122 64.9996 81.0965 62.7263 81.6634C60.5227 82.2199 58.0099 82.501 55.2542 82.501H53.4788C52.2086 82.501 50.9757 82.9443 50.0074 83.7399C49.0403 84.5436 48.3992 85.653 48.1983 86.8721L48.0648 87.5778L45.8179 101.39L45.7157 101.897C45.6892 102.058 45.6423 102.138 45.5749 102.192C45.5088 102.245 45.427 102.274 45.3416 102.275H34.3789L34.3753 102.272Z" fill="#253B80"/>
<path d="M72.7611 51.5862C72.6926 52.0085 72.6156 52.4401 72.5278 52.8834C69.5195 67.8654 59.2255 73.0402 46.0785 73.0402H39.3846C37.7764 73.0402 36.422 74.1729 36.1718 75.7104L32.745 96.79L31.7743 102.765C31.6263 103.671 32.2638 104.522 33.1984 104.665C33.2862 104.679 33.3752 104.685 33.4655 104.685H45.3375C46.7436 104.685 47.9381 103.695 48.1594 102.35L48.2761 101.765L50.5109 88.0082L50.6541 87.2534C50.873 85.9037 52.0698 84.9133 53.4759 84.9133H55.2513C66.7541 84.9133 75.7586 80.3848 78.3904 67.2786C79.4898 61.804 78.9209 57.2323 76.0112 54.0173C75.0886 53.0222 73.988 52.1998 72.7611 51.5873V51.5862Z" fill="#179BD7"/>
<path d="M69.6147 50.3682C68.6537 50.0987 67.677 49.8887 66.6882 49.7383C64.736 49.4478 62.7621 49.3078 60.7871 49.3206H42.9044C41.4983 49.3206 40.3015 50.3134 40.0849 51.6607L36.2804 75.0279L36.1709 75.7091C36.4163 74.1716 37.7803 73.0377 39.3837 73.0389H46.0775C59.2246 73.0389 69.5173 67.8606 72.5268 52.8821C72.617 52.4388 72.6928 52.0072 72.7602 51.5849C71.9663 51.1813 71.1387 50.843 70.2859 50.5735C70.0622 50.5012 69.8385 50.4335 69.6123 50.3682H69.6147Z" fill="#737373"/>
<path d="M40.0851 51.6608C40.2992 50.3123 41.4972 49.3184 42.9045 49.3231H60.7872C62.9054 49.3231 64.8829 49.4572 66.6883 49.7407C67.9092 49.9273 69.1145 50.205 70.2909 50.5736C71.1786 50.8594 72.0037 51.1966 72.7651 51.585C73.66 46.0486 72.7579 42.2794 69.6714 38.8661C66.2661 35.1087 60.1244 33.5 52.2663 33.5H29.4507C27.8449 33.5 26.4761 34.6327 26.2283 36.1726L16.7247 94.591C16.5551 95.6281 17.2852 96.6021 18.3545 96.7666C18.4556 96.7818 18.5566 96.79 18.6588 96.79H32.7441L36.2805 75.0292L40.0851 51.662V51.6608Z" fill="#253B80"/>
</svg>
