<svg width="327" height="130" viewBox="0 0 327 130" fill="none" xmlns="http://www.w3.org/2000/svg">
<path d="M74.0942 71.4561C69.9667 88.2692 53.1258 98.52 36.4779 94.3508C19.83 90.1789 9.68422 73.1681 13.8118 56.355C17.9394 39.5393 34.7803 29.2885 51.4282 33.4604C51.4573 33.4684 51.4837 33.4738 51.5128 33.4818C68.1157 37.691 78.2165 54.6751 74.0942 71.4561Z" fill="#F7931A"/>
<path d="M50.9974 59.3369C50.027 63.2578 44.1066 61.2493 42.1869 60.7685L43.8845 53.9071C45.7778 54.3771 51.9678 55.2799 50.9683 59.3369H50.9974ZM49.9397 70.4237C48.8926 74.6971 41.7692 72.3841 39.4581 71.8045L41.3302 64.2273C43.6413 64.8149 51.0344 65.9633 49.9371 70.4237H49.9397ZM57.7031 59.3957C58.3139 55.2185 55.17 52.9749 50.9102 51.4846L52.3063 45.8277L48.8609 44.965L47.5018 50.475C46.608 50.2507 45.6879 50.0343 44.7756 49.8287L46.1347 44.2599L42.729 43.3972L41.3329 49.0541L39.1593 48.5653L34.4527 47.3795L33.551 51.0546C33.551 51.0546 36.0736 51.6422 36.026 51.6822C36.9885 51.7998 37.6918 52.6651 37.6178 53.6427L36.026 60.0821C36.145 60.1088 36.2639 60.1489 36.375 60.1996L36.0154 60.1008L33.7916 69.1283C33.5827 69.788 32.8847 70.1513 32.2289 69.9429C32.2289 69.991 29.7434 69.326 29.7434 69.326L28.0537 73.2468L32.488 74.3552L34.9128 74.9935L33.506 80.7092L36.9118 81.5719L38.3079 75.915C39.2254 76.1687 40.1298 76.4038 41.0156 76.6201L39.6379 82.2957L43.0437 83.1477L44.4504 77.4427C50.2729 78.5511 54.6305 78.1078 56.4736 72.7954C57.9596 68.522 56.3969 66.0622 53.3402 64.4543C55.5719 63.9362 57.2219 62.4939 57.6978 59.3957H57.7031Z" fill="white"/>
<path d="M93.7435 85.4314C95.5574 85.4368 97.3423 84.9694 98.9261 84.0773C100.555 83.1986 101.991 81.9914 103.138 80.5277C104.334 78.9813 105.275 77.2506 105.923 75.4023C106.608 73.49 106.954 71.4735 106.951 69.4436C107.06 67.3817 106.623 65.3278 105.69 63.4929C104.854 62.072 103.302 61.3456 101.052 61.3456C100.071 61.3803 99.0954 61.5138 98.1408 61.7462C96.9562 62.0133 95.8589 62.5875 94.9572 63.4128L89.8142 85.135L90.6392 85.2925C90.8851 85.354 91.1363 85.394 91.3849 85.4101C91.7075 85.4501 92.0301 85.4661 92.3553 85.4581L93.7435 85.4288V85.4314ZM103.963 51.4767C106.211 51.4233 108.44 51.888 110.484 52.8309C112.258 53.6855 113.818 54.9355 115.045 56.4873C116.301 58.0925 117.224 59.9354 117.763 61.9065C118.35 64.0805 118.641 66.3267 118.628 68.5809C118.625 75.5973 115.934 82.3359 111.116 87.3918C108.781 89.8116 106.002 91.748 102.935 93.0968C99.7194 94.5257 96.2396 95.2549 92.7255 95.2335H90.2399C88.8888 95.1881 87.5402 95.0706 86.2023 94.8809C84.5681 94.6406 82.9472 94.3147 81.3501 93.9007C79.6737 93.5001 78.0475 92.9152 76.498 92.1567L90.1342 34.4607L102.313 32.5002L97.4612 52.9778C98.4713 52.5157 99.5211 52.1444 100.595 51.8693C101.703 51.5969 102.842 51.4607 103.982 51.4687L103.963 51.4794V51.4767Z" fill="#4D4D4D"/>
<path d="M136.87 47.2702C135.284 47.2862 133.734 46.7707 132.465 45.8092C131.119 44.7328 130.389 43.0502 130.524 41.3195C130.519 40.2404 130.746 39.1721 131.193 38.1919C131.621 37.2357 132.222 36.373 132.97 35.6439C133.716 34.9281 134.58 34.3512 135.521 33.9372C136.502 33.5125 137.56 33.2962 138.626 33.2989C140.202 33.2935 141.735 33.8117 142.994 34.7678C144.337 35.8469 145.064 37.5268 144.935 39.2576C144.943 40.3393 144.718 41.4103 144.276 42.3932C143.848 43.344 143.25 44.204 142.51 44.9305C141.767 45.6489 140.902 46.2259 139.958 46.6372C138.977 47.0618 137.92 47.2755 136.854 47.2648H136.873L136.87 47.2702ZM131.211 94.1144H119.566L129.405 52.3555H141.119L131.211 94.1144Z" fill="#4D4D4D"/>
<path d="M151.31 41.9576L163.489 40.0559L160.462 52.3579H173.505L171.155 62.0425H158.219L154.766 76.6093C154.467 77.7258 154.282 78.8689 154.213 80.0227C154.142 80.9548 154.28 81.8923 154.61 82.7657C154.935 83.5483 155.536 84.1812 156.3 84.5391C157.397 85.0279 158.595 85.2523 159.793 85.1855C161.022 85.1908 162.247 85.068 163.452 84.8222C164.663 84.5819 165.858 84.256 167.025 83.842L167.897 92.8989C166.226 93.5052 164.518 94.0074 162.783 94.4C160.641 94.8594 158.452 95.073 156.263 95.0383C152.643 95.0383 149.848 94.4881 147.849 93.4117C145.979 92.4502 144.48 90.8851 143.6 88.9621C142.738 86.9215 142.362 84.7047 142.502 82.4933C142.632 79.8972 142.999 77.3171 143.6 74.7878L151.315 41.9228V41.9629L151.31 41.9576Z" fill="#4D4D4D"/>
<path d="M173.077 77.443C173.054 73.9789 173.638 70.5361 174.804 67.2777C175.899 64.1982 177.581 61.3644 179.754 58.9366C181.943 56.5301 184.609 54.6124 187.576 53.3091C190.812 51.8988 194.308 51.1937 197.832 51.2418C199.961 51.2151 202.084 51.4421 204.16 51.9175C205.905 52.3342 207.603 52.9325 209.226 53.7017L205.181 62.8868C204.134 62.4568 203.044 62.0855 201.92 61.741C200.577 61.3644 199.189 61.1881 197.795 61.2228C194.276 61.0946 190.891 62.5956 188.604 65.3012C186.333 67.9988 185.193 71.6258 185.188 76.1823C185.082 78.4926 185.685 80.7789 186.915 82.7313C188.065 84.3979 190.188 85.2286 193.282 85.2286C194.763 85.2286 196.241 85.0683 197.687 84.7478C198.977 84.47 200.241 84.0721 201.463 83.5619L202.328 93.0114C200.741 93.6177 199.12 94.1359 197.476 94.5579C195.387 95.0333 193.25 95.2576 191.108 95.2256C188.266 95.3084 185.439 94.825 182.782 93.8047C180.669 92.9447 178.768 91.6306 177.21 89.9533C175.732 88.3268 174.64 86.3824 174.019 84.267C173.36 82.0422 173.033 79.7292 173.048 77.4056L173.077 77.4457V77.443Z" fill="#4D4D4D"/>
<path d="M230.535 61.2599C228.893 61.2359 227.288 61.7647 225.974 62.761C224.641 63.8026 223.523 65.098 222.684 66.575C221.762 68.1454 221.069 69.8441 220.627 71.6149C220.201 73.3136 219.979 75.055 219.969 76.8097C219.863 78.9491 220.294 81.0778 221.222 83.0061C222.066 84.4858 223.581 85.2309 225.783 85.2309C227.428 85.2603 229.036 84.7288 230.345 83.7219C231.68 82.6803 232.801 81.3849 233.645 79.9106C234.554 78.3375 235.231 76.6415 235.654 74.8707C236.077 73.1693 236.299 71.4226 236.313 69.6652C236.421 67.5285 235.99 65.3944 235.059 63.4688C234.216 61.9998 232.69 61.2546 230.498 61.2546L230.538 61.2653L230.535 61.2599ZM224.712 95.2333C222.24 95.2921 219.781 94.8567 217.473 93.9593C215.532 93.1848 213.797 91.9642 212.406 90.3911C211.039 88.8072 210.011 86.9537 209.379 84.9505C208.694 82.7043 208.363 80.362 208.408 78.0116C208.416 74.7745 208.929 71.5588 209.934 68.4846C210.907 65.3891 212.428 62.4992 214.416 59.9459C216.415 57.3952 218.901 55.2745 221.722 53.7121C224.76 52.0615 228.168 51.2282 231.622 51.2896C234.081 51.2442 236.524 51.6769 238.822 52.5636C240.765 53.3248 242.511 54.5294 243.917 56.0838C245.276 57.673 246.302 59.5239 246.937 61.5244C247.627 63.7732 247.955 66.1183 247.907 68.474C247.897 71.7084 247.397 74.9214 246.421 78.0009C245.464 81.0991 243.973 84.0024 242.016 86.5771C240.046 89.1384 237.571 91.2591 234.747 92.8029C231.661 94.4615 228.208 95.3001 224.712 95.2333Z" fill="#4D4D4D"/>
<path d="M266.296 47.2704C264.712 47.2864 263.165 46.7736 261.901 45.8094C260.553 44.733 259.826 43.0504 259.96 41.3197C259.955 40.2407 260.183 39.1723 260.629 38.1921C261.045 37.2413 261.632 36.3786 262.356 35.6441C263.107 34.931 263.972 34.3541 264.918 33.9374C265.897 33.5127 266.949 33.2964 268.015 33.2991C269.601 33.2857 271.153 33.8039 272.42 34.7681C273.763 35.8471 274.49 37.5271 274.361 39.2578C274.361 40.3421 274.131 41.4105 273.681 42.3934C273.261 43.3442 272.663 44.2069 271.925 44.9307C271.182 45.6492 270.318 46.2261 269.374 46.6374C268.401 47.0594 267.354 47.273 266.296 47.265V47.2704ZM260.648 94.1147H249.003L258.823 52.3557H270.545L260.645 94.1147H260.648Z" fill="#4D4D4D"/>
<path d="M278.932 54.2596C279.815 54.0059 280.796 53.6907 281.843 53.3488C282.89 53.007 284.115 52.6918 285.463 52.3686C286.941 52.0508 288.435 51.8131 289.937 51.6528C291.804 51.4525 293.679 51.359 295.556 51.3697C301.691 51.3697 305.919 53.1699 308.248 56.7702C309.642 58.9283 310.348 61.5591 310.366 64.6653V64.8896C310.356 66.9088 310.057 69.1283 309.472 71.5428L304.126 94.0875H292.441L297.632 72.0128C297.941 70.6427 298.195 69.3072 298.38 68.0039C298.581 66.8741 298.581 65.7203 298.38 64.5932C298.187 63.6504 297.671 62.809 296.926 62.2108C295.889 61.5243 294.657 61.2038 293.422 61.3C291.867 61.3027 290.315 61.4629 288.792 61.7807L281.164 94.1276H269.41L278.932 54.2623V54.2596Z" fill="#4D4D4D"/>
</svg>
