<svg xmlns="http://www.w3.org/2000/svg" width="24" height="24" viewBox="0 0 24 24" fill="none">
  <g clip-path="url(#clip0_3_285)">
    <path d="M16.3638 2.14545C14.5092 2.94545 12.582 4.10908 10.9092 5.78181C7.63651 9.05454 6.32741 13.4909 5.81832 15.8545C5.78196 15.9636 5.81832 16.1091 5.92741 16.1818L7.81832 18.0727C7.89105 18.1454 7.96378 18.1818 8.07287 18.1818C8.50923 18.1818 14.4001 16.9091 18.2183 13.0909C19.8911 11.4182 21.0547 9.4909 21.8547 7.63636C19.4547 6.58181 17.4183 4.54545 16.3638 2.14545ZM16.6547 10.2545C15.8547 11.0545 14.5456 11.0545 13.782 10.2545C13.0183 9.4909 12.9456 8.18181 13.782 7.38181C14.582 6.58181 15.8911 6.58181 16.6547 7.38181C17.4183 8.14545 17.4547 9.45454 16.6547 10.2545Z" fill="#02092b"/>
    <path d="M23.2362 0.363632C23.0544 0.363632 20.2544 0.581814 17.0181 1.8909C17.9999 4.07272 19.9272 6 22.109 6.98181C23.4181 3.70909 23.6362 0.94545 23.6362 0.763632C23.6362 0.509087 23.4544 0.363632 23.2362 0.363632Z" fill="#02092b"/>
    <path d="M5.70914 18.2545C4.90914 17.4545 3.56368 17.4182 2.72732 18.2545C2.00004 19.0182 1.49095 21.8182 1.45459 22.1454C1.45459 22.2545 1.49095 22.3636 1.56368 22.4727C1.63641 22.5091 1.70914 22.5454 1.81823 22.5454H1.89095C2.21823 22.5091 4.98186 22 5.7455 21.2727C6.5455 20.4364 6.5455 19.0909 5.70914 18.2545Z" fill="#02092b"/>
    <path d="M7.52727 9.12727C7.45455 9.12727 7.41818 9.12727 7.34545 9.12727C6 9.12727 4.98182 9.45455 4.36364 10.0727L0.472726 14C0.254544 14.2182 0.399999 14.5818 0.690908 14.6182L5.30909 14.9091C5.67273 13.3818 6.36364 11.2364 7.52727 9.12727Z" fill="#02092b"/>
    <path d="M10.0363 23.5273L13.8908 19.6364C14.6908 18.8364 14.8726 17.6 14.8726 16.4727C12.7635 17.6364 10.6545 18.3273 9.09082 18.6909L9.41809 23.2727C9.41809 23.6 9.81809 23.7454 10.0363 23.5273Z" fill="#02092b"/>
  </g>
  <defs>
    <clipPath id="clip0_3_285">
      <rect width="24" height="24" fill="white"/>
    </clipPath>
  </defs>
</svg>